<?xml version="1.0" encoding="utf-8"?>
<!-- Generator: Adobe Illustrator 21.1.0, SVG Export Plug-In . SVG Version: 6.00 Build 0)  -->
<!DOCTYPE svg PUBLIC "-//W3C//DTD SVG 1.1//EN" "http://www.w3.org/Graphics/SVG/1.1/DTD/svg11.dtd" [
	<!ENTITY st0 "fill:#FFFFFF;">
	<!ENTITY st1 "fill:#727F9B;">
	<!ENTITY st2 "fill:#515A6D;">
	<!ENTITY st3 "fill:#D0DAED;">
	<!ENTITY st4 "fill:#E58231;">
	<!ENTITY st5 "fill:#F5CCB1;">
	<!ENTITY st6 "fill:#A1C14D;">
	<!ENTITY st7 "fill:#D0DEA4;">
	<!ENTITY st8 "fill:#F49F60;">
	<!ENTITY st9 "fill:#E58231;stroke:#FFFFFF;stroke-miterlimit:10;">
	<!ENTITY st10 "fill:#FF00FF;">
	<!ENTITY st11 "font-family:'Asap-Medium';">
	<!ENTITY st12 "font-size:46px;">
]>
<svg version="1.1" xmlns="http://www.w3.org/2000/svg" xmlns:xlink="http://www.w3.org/1999/xlink" x="0px" y="0px"
	 viewBox="0 0 436.3 436.3" style="enable-background:new 0 0 436.3 436.3;" xml:space="preserve">
<g id="working_artboard">
</g>
<g id="Layer_1">
	<circle id="circle_4_" style="&st0;" cx="218.2" cy="218.2" r="216.8"/>
	<path id="circle-stroke_4_" style="&st1;" d="M433.5,218.2c-0.1,44.5-13.9,88.2-39.6,124.5c-25.2,35.6-61.3,63.1-102.3,78
		c-42.4,15.4-89.5,17-132.8,4.5c-41.8-12-79.3-36.8-106.9-70.3c-57.4-69.6-64.7-170.9-18-248.1C56.2,69.8,89.7,40,129,22.1
		c41.3-18.8,88.4-24,132.8-14.8c86.5,17.8,155,89.4,169,176.7C432.6,195.2,433.5,206.7,433.5,218.2c0,1.8,2.9,1.8,2.9,0
		c-0.1-45.2-14.1-89.7-40.4-126.5c-25.4-35.6-61.3-63.1-102.3-78.3c-43-15.9-90.9-17.7-135-5.2c-42.5,12-80.8,37.2-108.9,71.2
		C21.5,113.7,4.2,156.3,0.7,200.7C-2.9,246,7.8,292,31.4,330.9c22.7,37.6,56.8,68,96.9,86.1c41.4,18.7,88.4,24,133,15.1
		c43.5-8.7,83.8-30.9,114.4-62.9c30.8-32.1,51.3-73.4,58.1-117.4c1.7-11.1,2.6-22.4,2.6-33.6C436.4,216.3,433.5,216.3,433.5,218.2z"
		/>
	<path id="connector-fill_7_" style="&st0;" d="M250,315.4c-40.8,0-81.6,0-122.4,0c-3.7,0-7.4,0-11.2,0c0-39.5,0-77,0-116.5
		c0-5.7,0-11.4,0-17.2c0-7.7-12-7.7-12,0c0,40.8,0,79.6,0,120.4c0,5.7,0,11.4,0,17.2c0,0.6,0.1,1.2,0.2,1.7
		c-0.2,3.1,1.7,6.4,5.8,6.4c40.8,0,81.6,0,122.4,0c5.7,0,11.4,0,17.2,0C257.7,327.4,257.7,315.4,250,315.4z"/>
	<path id="connector-stroke_6_" style="&st1;" d="M250.5,314.4c-44.5,0-89,0-133.5,0c0.5,0.5,1,1,1.5,1.5c0-37.2,0-74.4,0-111.5
		c0-4.2,0-8.4,0-12.5c0-3.6,0.7-7.9-0.2-11.4c-0.9-3.3-3.8-5.4-7.3-5.4c-3.4,0-6.4,2.1-7.3,5.4c-0.8,3-0.2,6.6-0.2,9.7
		c0,4.9,0,9.8,0,14.6c0,37.1,0,74.1,0,111.2c0,4.7-0.4,11.1,5.1,13c3.1,1.1,7,0.4,10.3,0.4c4.9,0,9.9,0,14.8,0c19.1,0,38.2,0,57.2,0
		c10.5,0,21.1,0,31.6,0c5.2,0,10.4,0,15.6,0c4.4,0,9.3,0.6,13.6-0.1C260.5,327.8,259.1,315,250.5,314.4c-1.9-0.1-1.9,2.9,0,3
		c3,0.2,4.9,2.7,4.2,5.7c-0.8,3.1-3.4,3.2-6.1,3.3c-7.7,0.2-15.4,0-23.1,0c-15.1,0-30.3,0-45.4,0c-15.1,0-30.3,0-45.4,0
		c-7,0-14.8,1-21.7,0c-2.6-0.4-3.8,1.4-6-3c-0.7-1.3-0.4-4.1-0.4-5.5c-0.1-4.1,0-8.3,0-12.4c0-29.4,0-58.8,0-88.1
		c0-7.1,0-14.3,0-21.4c0-4.5-2.5-18,4.5-18c6.9,0,4.5,11.4,4.5,15.7c0,7.5,0,14.9,0,22.4v99.8c0,0.8,0.7,1.5,1.5,1.5h133.5
		C252.4,317.4,252.4,314.4,250.5,314.4z"/>
	<path id="connection-line_3_" style="&st1;" d="M111.2,146.4c1,14.2,1.5,28.4,1.9,42.6c0.1,7.1,0.3,14.2,0.4,21.3
		c0.1,7.1,0.2,14.2,0.1,21.3c-0.1,14.2-0.9,28.4-1.4,42.6c-0.2,7.1-0.4,14.2-0.4,21.3c0,3.5,0,7.1,0.1,10.6l0.1,5.3l0.1,2.7
		c0,0.4,0,0.9,0.1,1.3c0,0.4,0.1,0.7,0.2,1l0.1,0.2l0,0.3c0,1.2,0.4,2.5,1.3,3.2c0.8,0.8,1.9,1.1,3.2,1l9.3-0.4
		c6.2-0.3,12.4-0.5,18.6-0.6l18.6-0.3c6.2-0.1,12.4-0.2,18.6-0.2c12.4,0,24.8,0.3,37.2,0.8c12.4,0.5,24.8,1.1,37.2,2.1v0.6
		c-12.4,1.1-24.8,1.7-37.2,2.1c-12.4,0.4-24.8,0.8-37.2,0.8c-6.2,0-12.4-0.1-18.6-0.2l-18.6-0.3c-6.2-0.1-12.4-0.3-18.6-0.6
		l-9.3-0.4c-1.9-0.1-3.9-0.8-5.2-2.4c-1.3-1.5-1.9-3.5-1.7-5.3l0,0.4c-0.1-0.5-0.2-1.1-0.2-1.6c0-0.6,0-0.9,0-1.4l0.1-2.7l0.1-5.3
		c0-3.5,0.1-7.1,0.1-10.6c0-7.1-0.2-14.2-0.4-21.3c-0.5-14.2-1.2-28.4-1.4-42.6c-0.1-7.1,0-14.2,0.1-21.3c0-7.1,0.2-14.2,0.4-21.3
		c0.4-14.2,0.9-28.4,1.9-42.6H111.2z"/>
	<circle id="circle_14_" style="&st3;" cx="288.8" cy="322.9" r="43.5"/>
	<path id="circle-stroke_19_" style="&st1;" d="M330.8,322.9c-0.3,17.5-11,33.5-27.6,39.5c-16.3,5.9-35,1-46.2-12.2
		c-11.5-13.4-13.3-33.2-4.3-48.5c8.9-15.2,26.8-23.4,44.1-20.1C316.5,285.4,330.5,302.9,330.8,322.9c0,1.9,3,1.9,3,0
		c-0.3-18.8-11.9-35.9-29.8-42.3c-17.7-6.4-38.1-0.6-50,14c-11.8,14.6-13.4,35.6-3.6,51.6c9.7,16,28.8,24.4,47.1,20.9
		c21.1-4.1,36-22.9,36.3-44.1C333.8,320.9,330.8,320.9,330.8,322.9z"/>
	<circle id="circle_15_" style="&st3;" cx="111.9" cy="143" r="43.5"/>
	<path id="circle-stroke_18_" style="&st1;" d="M153.9,143c-0.3,17.5-11,33.5-27.6,39.5c-16.3,5.9-35,1-46.2-12.2
		c-11.5-13.4-13.3-33.2-4.3-48.5c8.9-15.2,26.8-23.4,44.1-20.1C139.6,105.5,153.6,123,153.9,143c0,1.9,3,1.9,3,0
		c-0.3-18.8-11.9-35.9-29.8-42.3c-17.7-6.4-38.1-0.6-50,14c-11.8,14.6-13.4,35.6-3.6,51.6c9.7,16,28.8,24.4,47.1,20.9
		c21.1-4.1,36-22.9,36.3-44.1C156.9,141,153.9,141,153.9,143z"/>
	<path id="a_3_" style="&st2;" d="M276.8,312.8l4.8,13.8c0,0.1,0.1,0.2,0.1,0.3c0,0.3-0.3,0.4-1,0.4h-1.1c-0.6,0-0.9-0.1-1-0.4
		l-0.9-2.6h-4.9l-0.9,2.6c-0.1,0.2-0.4,0.4-0.8,0.4h-1c-0.8,0-1.2-0.1-1.2-0.4c0,0,0-0.2,0.1-0.4l4.8-13.8c0.1-0.3,0.5-0.4,1.1-0.4
		h0.9C276.4,312.4,276.7,312.5,276.8,312.8z M275.2,316.4c0,0.1,0,0.2-0.1,0.5c0,0.3-0.1,0.5-0.2,0.8l-1.6,4.7h3.8l-1.6-4.7
		C275.5,317.4,275.4,316.9,275.2,316.4L275.2,316.4z"/>
	<path id="p_7_" style="&st2;" d="M291.2,317.3c0.6,0.5,1.1,1.1,1.4,2c0.3,0.9,0.5,1.9,0.5,3c0,1.8-0.4,3.1-1.2,4.1
		s-1.9,1.5-3.2,1.5c-0.9,0-1.7-0.3-2.3-0.8v4.4c-0.1,0.4-0.5,0.6-1.3,0.9h-0.4c-0.7-0.3-1.1-0.5-1.3-0.9v-11.2
		c0.2-0.9,0.2-1.6,0.1-2c-0.1-0.4-0.1-0.7-0.1-0.8c0-0.2,0.2-0.3,0.7-0.5s0.9-0.2,1.2-0.2c0.2,0,0.4,0.1,0.5,0.3s0.2,0.4,0.2,0.6
		c0,0.2,0.1,0.4,0.1,0.5c0.3-0.5,0.8-0.9,1.3-1.2c0.5-0.3,1.1-0.4,1.7-0.4C289.9,316.6,290.6,316.8,291.2,317.3z M287.4,319.1
		c-0.4,0.2-0.7,0.6-1,1v5.1c0.5,0.4,1.2,0.6,1.9,0.6c1.5,0,2.3-1.2,2.3-3.4c0-1.1-0.2-2-0.5-2.6c-0.3-0.6-0.8-0.9-1.5-0.9
		C288.1,318.8,287.8,318.9,287.4,319.1z"/>
	<path id="p_6_" style="&st2;" d="M303.6,317.3c0.6,0.5,1.1,1.1,1.4,2c0.3,0.9,0.5,1.9,0.5,3c0,1.8-0.4,3.1-1.2,4.1
		s-1.9,1.5-3.2,1.5c-0.9,0-1.7-0.3-2.7-0.8v4.4c0.2,0.4-0.2,0.6-0.9,0.9h-0.4c-0.7-0.3-1.1-0.5-1.7-0.9v-11.2c0.6-0.9,0.6-1.6,0.5-2
		c-0.1-0.4-0.1-0.7-0.1-0.8c0-0.2,0.2-0.3,0.7-0.5s0.9-0.2,1.2-0.2c0.2,0,0.4,0.1,0.5,0.3s0.2,0.4,0.2,0.6c0,0.2,0.1,0.4,0.1,0.5
		c0.3-0.5,0.8-0.9,1.3-1.2c0.5-0.3,1.1-0.4,1.7-0.4C302.3,316.6,303,316.8,303.6,317.3z M299.4,319.1c-0.4,0.2-0.7,0.6-1,1v5.1
		c0.5,0.4,1.2,0.6,1.9,0.6c1.5,0,2.3-1.2,2.3-3.4c0-1.1-0.2-2-0.5-2.6c-0.3-0.6-0.8-0.9-1.5-0.9
		C300.1,318.8,299.8,318.9,299.4,319.1z"/>
	<path id="highlight_41_" style="&st0;" d="M268.4,348.5c-1.9-2.8-3.8-5.7-5.6-8.5c-1.1-1.6-3.4-0.2-2.6,1.5c1.8,4,5.5,6.9,9.8,7.7
		c1.9,0.3,2.7-2.5,0.8-2.9c-3.6-0.7-6.5-2.9-8-6.3c-0.9,0.5-1.7,1-2.6,1.5c1.9,2.8,3.8,5.7,5.6,8.5
		C266.9,351.6,269.5,350.1,268.4,348.5z"/>
	<path id="highlight_42_" style="&st0;" d="M303.5,292.9c7.9,6.7,16.4,14.3,15.8,25.5c-0.1,2,2.8,1.9,3,0c1.4-13.7-8-25-21.5-26.8
		c-1.9-0.2-1.9,2.8,0,3c11.9,1.6,19.7,12,18.5,23.8c1,0,2,0,3,0c0.6-12.1-8.2-20.5-16.7-27.7C304.2,289.5,302.1,291.6,303.5,292.9z"
		/>
	<path id="s_3_" style="&st2;" d="M83.8,134.1c0.6,0.1,1,0.3,1.4,0.5c0.4,0.2,0.5,0.4,0.5,0.7c0,0.3-0.1,0.6-0.3,1
		c-0.2,0.4-0.4,0.6-0.6,0.6c0,0-0.2,0-0.4-0.1c-0.3-0.1-0.6-0.3-0.9-0.3s-0.7-0.1-1.2-0.1c-0.8,0-1.3,0.2-1.7,0.5
		c-0.4,0.3-0.5,0.7-0.5,1.2c0,0.4,0.1,0.7,0.3,1c0.2,0.3,0.5,0.5,0.8,0.6c0.3,0.2,0.8,0.4,1.4,0.6c0.8,0.3,1.5,0.6,2,0.9
		c0.5,0.3,1,0.7,1.3,1.3s0.6,1.3,0.6,2.2c0,1.5-0.4,2.6-1.3,3.3c-0.9,0.7-2,1.1-3.4,1.1c-0.9,0-1.7-0.1-2.4-0.3s-1.3-0.4-1.7-0.7
		s-0.6-0.5-0.6-0.7c0-0.2,0.1-0.4,0.2-0.7c0.1-0.3,0.3-0.5,0.5-0.7s0.3-0.3,0.5-0.3c0.1,0,0.3,0.1,0.5,0.2c0.4,0.2,0.9,0.4,1.3,0.6
		c0.4,0.1,0.9,0.2,1.5,0.2c0.6,0,1.2-0.2,1.6-0.5s0.7-0.8,0.7-1.4c0-0.4-0.1-0.7-0.3-1c-0.2-0.3-0.5-0.5-0.8-0.7s-0.8-0.4-1.4-0.6
		c-0.4-0.1-0.6-0.2-0.7-0.3c-0.6-0.3-1.2-0.6-1.6-0.9s-0.8-0.7-1.1-1.3c-0.3-0.5-0.4-1.2-0.4-2c0-0.9,0.2-1.6,0.7-2.3
		c0.4-0.6,1-1.1,1.8-1.4c0.7-0.3,1.6-0.5,2.4-0.5C82.6,133.9,83.2,134,83.8,134.1z"/>
	<path id="e_5_" style="&st2;" d="M96.5,139.3c0.7,1,1.1,2.3,1.1,4c0,0.2-0.1,0.4-0.4,0.7s-0.4,0.4-0.6,0.4h-5.8
		c0.1,0.9,0.3,1.6,0.8,2c0.4,0.4,1.1,0.6,1.9,0.6c0.5,0,0.9-0.1,1.2-0.2s0.7-0.3,1.1-0.4c0.2-0.1,0.4-0.1,0.4-0.1
		c0.2,0,0.4,0.2,0.6,0.5c0.2,0.4,0.3,0.6,0.3,0.8c0,0.3-0.2,0.5-0.6,0.7s-0.9,0.4-1.5,0.5s-1.2,0.2-1.7,0.2c-1.8,0-3.2-0.5-4-1.4
		s-1.3-2.3-1.3-4.1c0-1.9,0.4-3.4,1.3-4.3c0.9-0.9,2.1-1.4,3.7-1.4C94.6,137.9,95.8,138.4,96.5,139.3z M90.8,142.4H95
		c0-0.8-0.2-1.4-0.5-1.9c-0.3-0.4-0.8-0.7-1.4-0.7C91.8,139.8,91,140.7,90.8,142.4z"/>
	<path id="r_3_" style="&st2;" d="M106,137.9c0.2,0.2,0.3,0.4,0.3,0.7c0,0.3-0.1,0.6-0.2,1c-0.1,0.4-0.2,0.6-0.4,0.6
		c-0.1,0-0.2,0-0.4-0.1s-0.4-0.1-0.6-0.1c-0.4,0-0.8,0.1-1.1,0.4c-0.3,0.3-0.5,0.5-0.2,0.8v7.1c-0.5,0.4-0.9,0.6-1.6,0.2h-0.4
		c-0.7,0.4-1.1,0.2-1-0.2v-6.9c-0.1-0.9-0.2-1.6-0.3-2c-0.1-0.4-0.1-0.7-0.1-0.8c0-0.2,0.2-0.3,0.7-0.5c0.5-0.1,0.9-0.2,1.2-0.2
		c0.2,0,0.4,0.1,0.5,0.3s0.2,0.4,0.2,0.6c0,0.2,0.1,0.4,0.1,0.5c0.3-0.5,0.7-0.9,1-1.2c0.4-0.3,0.8-0.4,1.3-0.4
		C105.5,137.6,105.8,137.7,106,137.9z"/>
	<path id="v_3_" style="&st2;" d="M116.7,137.8c0,0.1,0,0.2-0.1,0.4l-3.3,9.8c-0.1,0.3-0.4,0.4-1,0.4h-0.7c-0.6,0-1-0.1-1.1-0.4
		l-3.3-9.9c-0.1-0.1-0.1-0.3-0.1-0.3c0-0.3,0.4-0.4,1.1-0.4h0.4c0.6,0,1,0.1,1.1,0.4l1.6,5l0.5,1.8l0.2,0.8h0.1
		c0.2-1.1,0.4-2,0.6-2.6l1.6-5c0.1-0.3,0.5-0.4,1.1-0.4h0.3C116.3,137.4,116.7,137.5,116.7,137.8z"/>
	<path id="i_3_" style="&st2;" d="M121.4,133.5v1.5c0,0.2-0.1,0.3-0.3,0.4c-0.2,0.1-0.5,0.1-0.9-0.1h-0.5c-0.4,0.2-0.7,0.2-0.9,0.1
		c-0.2-0.1-0.3-0.2-0.6-0.4v-1.5c0.3-0.4,0.7-0.6,1.4-1.1h0.5C121,132.9,121.4,133.1,121.4,133.5z M121.4,138.3v9.9
		c0,0.4-0.4,0.6-1.1,0.2h-0.4c-0.7,0.4-1.1,0.2-1.4-0.2v-9.9c0.3-0.4,0.7-0.6,1.4-0.9h0.4C121,137.7,121.4,137.9,121.4,138.3z"/>
	<path id="c_2_" style="&st2;" d="M131.7,138c0.7,0.2,1.1,0.5,1.1,0.9c0,0.2-0.1,0.5-0.4,0.9c-0.2,0.4-0.4,0.6-0.6,0.6
		c0,0-0.1,0-0.3-0.1c-0.6-0.3-1.3-0.5-2-0.5c-0.9,0-1.5,0.3-2,0.9c-0.4,0.6-0.7,1.5-0.7,2.7c0,1.2,0.2,2.1,0.6,2.7
		c0.4,0.6,1.1,0.9,2,0.9c0.7,0,1.5-0.2,2.2-0.5c0.2-0.1,0.3-0.1,0.3-0.1c0.2,0,0.4,0.2,0.6,0.5c0.2,0.4,0.3,0.7,0.3,0.9
		c0,0.3-0.2,0.5-0.6,0.7s-0.9,0.4-1.5,0.5s-1.1,0.1-1.5,0.1c-1.8,0-3.1-0.5-3.9-1.4c-0.9-0.9-1.3-2.3-1.3-4.2c0-1.9,0.5-3.4,1.4-4.3
		c0.9-0.9,2.2-1.4,3.9-1.4C130.2,137.6,131,137.7,131.7,138z"/>
	<path id="e_6_" style="&st2;" d="M143,139.3c0.7,1,1.1,2.3,1.1,4c0,0.2-0.1,0.4-0.4,0.7s-0.4,0.4-0.6,0.4h-5.8
		c0.1,0.9,0.3,1.6,0.8,2c0.4,0.4,1.1,0.6,1.9,0.6c0.5,0,0.9-0.1,1.2-0.2s0.7-0.3,1.1-0.4c0.2-0.1,0.4-0.1,0.4-0.1
		c0.2,0,0.4,0.2,0.6,0.5c0.2,0.4,0.3,0.6,0.3,0.8c0,0.3-0.2,0.5-0.6,0.7s-0.9,0.4-1.5,0.5s-1.2,0.2-1.7,0.2c-1.8,0-3.2-0.5-4-1.4
		s-1.3-2.3-1.3-4.1c0-1.9,0.4-3.4,1.3-4.3c0.9-0.9,2.1-1.4,3.7-1.4C141.2,137.9,142.3,138.4,143,139.3z M137.4,142.4h4.1
		c0-0.8-0.2-1.4-0.5-1.9c-0.3-0.4-0.8-0.7-1.4-0.7C138.3,139.8,137.6,140.7,137.4,142.4z"/>
	<path id="highlight_43_" style="&st0;" d="M120,114.6c5.7,0.5,10.7,3.6,13.8,8.4c0.8-0.6,1.6-1.2,2.4-1.8
		c-4.1-4.3-8.8-8.2-15.1-7.8c-1.3,0.1-2.2,2.1-0.8,2.8c3.9,1.8,7,4.5,9,8.3c0.9,1.7,3.5,0.2,2.6-1.5c-2.3-4.2-5.7-7.5-10.1-9.4
		c-0.3,0.9-0.5,1.9-0.8,2.8c5.5-0.3,9.4,3.2,13,6.9c1.2,1.2,3.3-0.4,2.4-1.8c-3.7-5.8-9.6-9.3-16.4-9.9
		C118.1,111.4,118.1,114.4,120,114.6z"/>
	<path id="highlight_44_" style="&st0;" d="M83.7,161.7c4.4,9.9,14.9,13.2,24.8,14.9c1.6,0.3,2.6-1.8,1.2-2.7
		c-5-3.3-10-6.6-15.1-9.9c-1.3-0.9-2.7,0.8-2.1,2.1c1.3,2.4,2.8,4.3,4.8,6.1c0.5-0.8,1-1.7,1.5-2.5c-6.4-1.4-9.6-7.1-12.4-12.5
		c-0.9-1.7-3.5-0.2-2.6,1.5c3.2,6.2,6.9,12.3,14.2,13.9c1.4,0.3,2.6-1.5,1.5-2.5c-1.8-1.6-3.2-3.3-4.4-5.5c-0.7,0.7-1.4,1.4-2.1,2.1
		c5,3.3,10,6.6,15.1,9.9c0.4-0.9,0.8-1.8,1.2-2.7c-9.2-1.6-18.9-4.2-23-13.5C85.5,158.4,82.9,159.9,83.7,161.7z"/>
	<g id="cb-stroke_3_">
		<path style="&st1;" d="M165.4,303.4h-30c-1.7,0-3,1.3-3,3v11h36v-11C168.4,304.8,167.1,303.4,165.4,303.4z"/>
		<path style="&st1;" d="M132.4,336.4c0,1.7,1.3,3,3,3h30c1.7,0,3-1.3,3-3v-10h-36V336.4z"/>
	</g>
	<path id="cb-fill_2_" style="&st6;" d="M166.4,322.4v-16c0-0.6-0.4-1-1-1h-30c-0.6,0-1,0.4-1,1v30c0,0.6,0.4,1,1,1h30
		c0.6,0,1-0.4,1-1V322.4"/>
	<path id="cb-highlight_5_" style="&st7;" d="M158.4,318.2c0,1.9,0,3.9,0,5.8c0,1.4,0.6,5.1,0,6.3c-0.4,0.9-0.7,0.6-1.9,0.6
		c-1,0-2.1,0-3.1-0.1c-2.3-0.1-4.7-0.4-7-0.7c0,1,0,1.9,0,2.9c3.2-0.8,6.4-0.4,9.6-0.5c1.4-0.1,2.7,0,3.6-1.1c1.4-1.6,1-4.6,1.1-6.5
		c0.2-3.2,0.2-6.3,0.1-9.5c-0.1-1.9-3-1.9-3,0c0.1,2,0.1,4.1,0.1,6.1c0,2.1,0.4,5.5-1.1,7.1c-1.5,1.6-3.8,0.9-5.9,0.9
		c-1.8,0-3.6,0.2-5.4,0.7c-1.3,0.3-1.5,2.6,0,2.9c3,0.4,6,0.8,9,0.9c1.7,0.1,4.3,0.6,5.8-0.6c1.3-1.1,1-3.3,1-4.8
		c0-3.4,0-6.8,0-10.2C161.4,316.2,158.4,316.2,158.4,318.2z"/>
	<path id="cb-highlight_4_" style="&st7;" d="M140.4,314.3c0.1-0.8-0.4-2.3,0.5-2.8c1.1-0.5,2.9-0.4,4.1-0.3c1.9,0.1,1.9-2.9,0-3
		c-1.9-0.1-4.6-0.2-6.2,1c-1.7,1.3-1.2,3.2-1.4,5C137.3,316.2,140.3,316.2,140.4,314.3z"/>
	<g>
		<text transform="matrix(1 0 0 1 195.6573 127.8943)"><tspan x="0" y="0" style="&st2; &st11; &st12;">Closed </tspan><tspan x="0" y="52" style="&st2; &st11; &st12;">circuit </tspan><tspan x="0" y="104" style="&st2; &st11; &st12;">breaker</tspan></text>
	</g>
</g>
</svg>
