<?xml version="1.0" encoding="utf-8"?>
<!-- Generator: Adobe Illustrator 19.2.1, SVG Export Plug-In . SVG Version: 6.00 Build 0)  -->
<svg version="1.1" id="Layer_1" xmlns="http://www.w3.org/2000/svg" xmlns:xlink="http://www.w3.org/1999/xlink" x="0px" y="0px"
	 viewBox="0 0 436.3 436.3" style="enable-background:new 0 0 436.3 436.3;" xml:space="preserve">
<style type="text/css">
	.st0{fill:#FFFFFF;}
	.st1{fill:#727F9B;}
	.st2{fill:#D0DAED;}
	.st3{fill:#515A6D;}
	.st4{fill:#F5CCB1;}
	.st5{fill:#E58231;}
	.st6{enable-background:new    ;}
</style>
<g id="working_artboard">
</g>
<g id="Layer_1_1_">
	<circle id="circle_26_" class="st0" cx="218.2" cy="218.2" r="216.8"/>
	<path id="circle-stroke_29_" class="st1" d="M433.5,218.2c-0.1,44.5-13.9,88.2-39.6,124.5c-25.2,35.6-61.3,63.1-102.3,78
		c-42.4,15.4-89.5,17-132.8,4.5c-41.8-12-79.3-36.8-106.9-70.3c-57.4-69.6-64.7-170.9-18-248.1C56.2,69.8,89.7,40,129,22.1
		c41.3-18.8,88.4-24,132.8-14.8c86.5,17.8,155,89.4,169,176.7C432.6,195.2,433.5,206.7,433.5,218.2c0,1.8,2.9,1.8,2.9,0
		c-0.1-45.2-14.1-89.7-40.4-126.5c-25.4-35.6-61.3-63.1-102.3-78.3c-43-15.9-90.9-17.7-135-5.2c-42.5,12-80.8,37.2-108.9,71.2
		C21.5,113.7,4.2,156.3,0.7,200.7C-2.9,246,7.8,292,31.4,330.9c22.7,37.6,56.8,68,96.9,86.1c41.4,18.7,88.4,24,133,15.1
		c43.5-8.7,83.8-30.9,114.4-62.9c30.8-32.1,51.3-73.4,58.1-117.4c1.7-11.1,2.6-22.4,2.6-33.6C436.4,216.3,433.5,216.3,433.5,218.2z"
		/>
	<path id="connector-fill_1_" class="st0" d="M250,315.4c-19.1,0-37.4,0-56.5,0c0-5.3,0-8.8,0-11c0-2.4,0-3.3,0-3.4
		c0-2.5,0-6.6,0-13.1c0-5.7,0-11.4,0-17.2c0-7.7-12-7.7-12,0c0,40.2,0,6.7,0,44.6c-17.7,0-36.2,0-53.8,0c-3.7,0-7.4,0-11.2,0
		c0-39.5,0-77,0-116.5c0-5.7,0-11.4,0-17.2c0-7.7-12-7.7-12,0c0,40.8,0,79.6,0,120.4c0,5.7,0,11.4,0,17.2c0,0.6,0.1,1.2,0.2,1.7
		c-0.2,3.1,1.7,6.4,5.8,6.4c40.8,0,81.6,0,122.4,0c5.7,0,11.4,0,17.2,0C257.7,327.4,257.7,315.4,250,315.4z"/>
	<path id="connector_7_" class="st1" d="M250.3,314.4c-19.1,0-38.3,0-57.4,0c0.5,0.5,1,1,1.5,1.5c0-6,0-12.1,0-18.1
		c0-4.4,0-8.7,0-13.1c0-4.6,0.7-9.8-0.1-14.3c-1.3-7.9-13.1-8.4-14.8-0.4c-1.2,5.9-0.1,13.1-0.1,19.2c0,1.7,0,3.4,0,5.2
		c0,7.2,0,14.4,0,21.6c0.5-0.5,1-1,1.5-1.5c-21.3,0-42.7,0-64,0c0.5,0.5,1,1,1.5,1.5c0-37.2,0-74.4,0-111.5c0-4.2,0-8.4,0-12.5
		c0-3.6,0.7-7.9-0.2-11.4c-0.9-3.3-3.8-5.4-7.3-5.4c-3.4,0-6.4,2.1-7.3,5.4c-0.8,3-0.2,6.6-0.2,9.7c0,4.9,0,9.8,0,14.6
		c0,37.1,0,74.1,0,111.2c0,4.7-0.4,11.1,5.1,13c3.1,1.1,7,0.4,10.3,0.4c4.9,0,9.9,0,14.8,0c19.1,0,38.2,0,57.2,0
		c10.5,0,21.1,0,31.6,0c5.2,0,10.4,0,15.6,0c4.4,0,9.3,0.6,13.6-0.1c8.8-1.5,7.4-14.3-1.2-14.9c-1.9-0.1-1.9,2.9,0,3
		c3,0.2,4.9,2.7,4.2,5.7c-0.8,3.1-3.4,3.2-6.1,3.3c-7.7,0.2-15.4,0-23.1,0c-15.1,0-30.3,0-45.4,0s-30.3,0-45.4,0c-7,0-14.8,1-21.7,0
		c-2.6-0.4-3.8,1.4-6-3c-0.7-1.3-0.4-4.1-0.4-5.5c-0.1-4.1,0-8.3,0-12.4c0-29.4,0-58.8,0-88.1c0-7.1,0-14.3,0-21.4
		c0-4.5-2.5-18,4.5-18c6.9,0,4.5,11.4,4.5,15.7c0,7.5,0,14.9,0,22.4V316c0,0.8,0.7,1.5,1.5,1.5h64c0.8,0,1.5-0.7,1.5-1.5v-30.1
		c0-2.5,0-5,0-7.5c0-3-1-8.3,1.6-10.4c2.3-1.8,6.1-0.9,7.1,1.9c1.2,3.1,0.2,7.8,0.2,11v35c0,0.8,0.7,1.5,1.5,1.5h57.4
		C252.3,317.4,252.3,314.4,250.3,314.4z"/>
	<path id="connection-line_8_" class="st1" d="M111.2,146.4c1,14.2,1.5,28.4,1.9,42.6c0.1,7.1,0.3,14.2,0.4,21.3s0.2,14.2,0.1,21.3
		c-0.1,14.2-0.9,28.4-1.4,42.6c-0.2,7.1-0.4,14.2-0.4,21.3c0,3.5,0,7.1,0.1,10.6l0.1,5.3l0.1,2.7c0,0.4,0,0.9,0.1,1.3
		c0,0.4,0.1,0.7,0.2,1l0.1,0.2v0.3c0,1.2,0.5,2.5,1.3,3.2c0.8,0.8,1.9,1.1,3.2,1l9.3-0.4c6.2-0.3,12.4-0.5,18.6-0.6l18.6-0.3
		c6.2-0.1,12.4-0.2,18.6-0.2c12.4,0,24.8,0.3,37.2,0.8s24.8,1.1,37.2,2.1v0.6c-12.4,1.1-24.8,1.7-37.2,2.1s-24.8,0.8-37.2,0.8
		c-6.2,0-12.4-0.1-18.6-0.2l-18.6-0.3c-6.2-0.1-12.4-0.3-18.6-0.6l-9.3-0.4c-1.9-0.1-3.9-0.8-5.2-2.4c-1.3-1.5-1.9-3.5-1.7-5.3v0.4
		c-0.1-0.5-0.2-1.1-0.2-1.6c0-0.6,0-0.9,0-1.4l0.1-2.7l0.1-5.3c0-3.5,0.1-7.1,0.1-10.6c0-7.1-0.2-14.2-0.4-21.3
		c-0.5-14.2-1.2-28.4-1.4-42.6c-0.1-7.1,0-14.2,0.1-21.3c0-7.1,0.2-14.2,0.4-21.3c0.4-14.2,0.9-28.4,1.9-42.6h0.4V146.4z"/>
	<circle id="circle_28_" class="st2" cx="111.9" cy="143" r="43.5"/>
	<path id="circle-stroke_31_" class="st1" d="M153.9,143c-0.3,17.5-11,33.5-27.6,39.5c-16.3,5.9-35,1-46.2-12.2
		c-11.5-13.4-13.3-33.2-4.3-48.5c8.9-15.2,26.8-23.4,44.1-20.1C139.6,105.5,153.6,123,153.9,143c0,1.9,3,1.9,3,0
		c-0.3-18.8-11.9-35.9-29.8-42.3c-17.7-6.4-38.1-0.6-50,14c-11.8,14.6-13.4,35.6-3.6,51.6c9.7,16,28.8,24.4,47.1,20.9
		c21.1-4.1,36-22.9,36.3-44.1C156.9,141,153.9,141,153.9,143z"/>
	<path id="s_5_" class="st3" d="M83.8,134.1c0.6,0.1,1,0.3,1.4,0.5s0.5,0.4,0.5,0.7s-0.1,0.6-0.3,1c-0.2,0.4-0.4,0.6-0.6,0.6
		c0,0-0.2,0-0.4-0.1c-0.3-0.1-0.6-0.3-0.9-0.3s-0.7-0.1-1.2-0.1c-0.8,0-1.3,0.2-1.7,0.5c-0.4,0.3-0.5,0.7-0.5,1.2
		c0,0.4,0.1,0.7,0.3,1c0.2,0.3,0.5,0.5,0.8,0.6c0.3,0.2,0.8,0.4,1.4,0.6c0.8,0.3,1.5,0.6,2,0.9c0.5,0.3,1,0.7,1.3,1.3
		s0.6,1.3,0.6,2.2c0,1.5-0.4,2.6-1.3,3.3s-2,1.1-3.4,1.1c-0.9,0-1.7-0.1-2.4-0.3s-1.3-0.4-1.7-0.7s-0.6-0.5-0.6-0.7s0.1-0.4,0.2-0.7
		s0.3-0.5,0.5-0.7s0.3-0.3,0.5-0.3c0.1,0,0.3,0.1,0.5,0.2c0.4,0.2,0.9,0.4,1.3,0.6c0.4,0.1,0.9,0.2,1.5,0.2s1.2-0.2,1.6-0.5
		s0.7-0.8,0.7-1.4c0-0.4-0.1-0.7-0.3-1c-0.2-0.3-0.5-0.5-0.8-0.7s-0.8-0.4-1.4-0.6c-0.4-0.1-0.6-0.2-0.7-0.3
		c-0.6-0.3-1.2-0.6-1.6-0.9s-0.8-0.7-1.1-1.3c-0.3-0.5-0.4-1.2-0.4-2c0-0.9,0.2-1.6,0.7-2.3c0.4-0.6,1-1.1,1.8-1.4
		c0.7-0.3,1.6-0.5,2.4-0.5C82.6,133.9,83.2,134,83.8,134.1z"/>
	<path id="e_9_" class="st3" d="M96.5,139.3c0.7,1,1.1,2.3,1.1,4c0,0.2-0.1,0.4-0.4,0.7s-0.4,0.4-0.6,0.4h-5.8
		c0.1,0.9,0.3,1.6,0.8,2c0.4,0.4,1.1,0.6,1.9,0.6c0.5,0,0.9-0.1,1.2-0.2s0.7-0.3,1.1-0.4c0.2-0.1,0.4-0.1,0.4-0.1
		c0.2,0,0.4,0.2,0.6,0.5c0.2,0.4,0.3,0.6,0.3,0.8c0,0.3-0.2,0.5-0.6,0.7s-0.9,0.4-1.5,0.5s-1.2,0.2-1.7,0.2c-1.8,0-3.2-0.5-4-1.4
		s-1.3-2.3-1.3-4.1c0-1.9,0.4-3.4,1.3-4.3c0.9-0.9,2.1-1.4,3.7-1.4C94.6,137.9,95.8,138.4,96.5,139.3z M90.8,142.4H95
		c0-0.8-0.2-1.4-0.5-1.9c-0.3-0.4-0.8-0.7-1.4-0.7C91.8,139.8,91,140.7,90.8,142.4z"/>
	<path id="r_5_" class="st3" d="M106,137.9c0.2,0.2,0.3,0.4,0.3,0.7s-0.1,0.6-0.2,1s-0.2,0.6-0.4,0.6c-0.1,0-0.2,0-0.4-0.1
		s-0.4-0.1-0.6-0.1c-0.4,0-0.8,0.1-1.1,0.4c-0.3,0.3-0.5,0.5-0.2,0.8v7.1c-0.5,0.4-0.9,0.6-1.6,0.2h-0.4c-0.7,0.4-1.1,0.2-1-0.2
		v-6.9c-0.1-0.9-0.2-1.6-0.3-2c-0.1-0.4-0.1-0.7-0.1-0.8c0-0.2,0.2-0.3,0.7-0.5c0.5-0.1,0.9-0.2,1.2-0.2c0.2,0,0.4,0.1,0.5,0.3
		s0.2,0.4,0.2,0.6c0,0.2,0.1,0.4,0.1,0.5c0.3-0.5,0.7-0.9,1-1.2c0.4-0.3,0.8-0.4,1.3-0.4C105.5,137.6,105.8,137.7,106,137.9z"/>
	<path id="v_5_" class="st3" d="M116.7,137.8c0,0.1,0,0.2-0.1,0.4l-3.3,9.8c-0.1,0.3-0.4,0.4-1,0.4h-0.7c-0.6,0-1-0.1-1.1-0.4
		l-3.3-9.9c-0.1-0.1-0.1-0.3-0.1-0.3c0-0.3,0.4-0.4,1.1-0.4h0.4c0.6,0,1,0.1,1.1,0.4l1.6,5l0.5,1.8l0.2,0.8h0.1
		c0.2-1.1,0.4-2,0.6-2.6l1.6-5c0.1-0.3,0.5-0.4,1.1-0.4h0.3C116.3,137.4,116.7,137.5,116.7,137.8z"/>
	<path id="i_5_" class="st3" d="M121.4,133.5v1.5c0,0.2-0.1,0.3-0.3,0.4c-0.2,0.1-0.5,0.1-0.9-0.1h-0.5c-0.4,0.2-0.7,0.2-0.9,0.1
		c-0.2-0.1-0.3-0.2-0.6-0.4v-1.5c0.3-0.4,0.7-0.6,1.4-1.1h0.5C121,132.9,121.4,133.1,121.4,133.5z M121.4,138.3v9.9
		c0,0.4-0.4,0.6-1.1,0.2h-0.4c-0.7,0.4-1.1,0.2-1.4-0.2v-9.9c0.3-0.4,0.7-0.6,1.4-0.9h0.4C121,137.7,121.4,137.9,121.4,138.3z"/>
	<path id="c_4_" class="st3" d="M131.7,138c0.7,0.2,1.1,0.5,1.1,0.9c0,0.2-0.1,0.5-0.4,0.9c-0.2,0.4-0.4,0.6-0.6,0.6
		c0,0-0.1,0-0.3-0.1c-0.6-0.3-1.3-0.5-2-0.5c-0.9,0-1.5,0.3-2,0.9c-0.4,0.6-0.7,1.5-0.7,2.7s0.2,2.1,0.6,2.7c0.4,0.6,1.1,0.9,2,0.9
		c0.7,0,1.5-0.2,2.2-0.5c0.2-0.1,0.3-0.1,0.3-0.1c0.2,0,0.4,0.2,0.6,0.5c0.2,0.4,0.3,0.7,0.3,0.9c0,0.3-0.2,0.5-0.6,0.7
		s-0.9,0.4-1.5,0.5s-1.1,0.1-1.5,0.1c-1.8,0-3.1-0.5-3.9-1.4c-0.9-0.9-1.3-2.3-1.3-4.2s0.5-3.4,1.4-4.3c0.9-0.9,2.2-1.4,3.9-1.4
		C130.2,137.6,131,137.7,131.7,138z"/>
	<path id="e_10_" class="st3" d="M143,139.3c0.7,1,1.1,2.3,1.1,4c0,0.2-0.1,0.4-0.4,0.7s-0.4,0.4-0.6,0.4h-5.8
		c0.1,0.9,0.3,1.6,0.8,2c0.4,0.4,1.1,0.6,1.9,0.6c0.5,0,0.9-0.1,1.2-0.2s0.7-0.3,1.1-0.4c0.2-0.1,0.4-0.1,0.4-0.1
		c0.2,0,0.4,0.2,0.6,0.5c0.2,0.4,0.3,0.6,0.3,0.8c0,0.3-0.2,0.5-0.6,0.7s-0.9,0.4-1.5,0.5s-1.2,0.2-1.7,0.2c-1.8,0-3.2-0.5-4-1.4
		s-1.3-2.3-1.3-4.1c0-1.9,0.4-3.4,1.3-4.3c0.9-0.9,2.1-1.4,3.7-1.4C141.2,137.9,142.3,138.4,143,139.3z M137.4,142.4h4.1
		c0-0.8-0.2-1.4-0.5-1.9c-0.3-0.4-0.8-0.7-1.4-0.7C138.3,139.8,137.6,140.7,137.4,142.4z"/>
	<path id="highlight_25_" class="st0" d="M120,114.6c5.7,0.5,10.7,3.6,13.8,8.4c0.8-0.6,1.6-1.2,2.4-1.8c-4.1-4.3-8.8-8.2-15.1-7.8
		c-1.3,0.1-2.2,2.1-0.8,2.8c3.9,1.8,7,4.5,9,8.3c0.9,1.7,3.5,0.2,2.6-1.5c-2.3-4.2-5.7-7.5-10.1-9.4c-0.3,0.9-0.5,1.9-0.8,2.8
		c5.5-0.3,9.4,3.2,13,6.9c1.2,1.2,3.3-0.4,2.4-1.8c-3.7-5.8-9.6-9.3-16.4-9.9C118.1,111.4,118.1,114.4,120,114.6z"/>
	<path id="highlight_24_" class="st0" d="M83.7,161.7c4.4,9.9,14.9,13.2,24.8,14.9c1.6,0.3,2.6-1.8,1.2-2.7c-5-3.3-10-6.6-15.1-9.9
		c-1.3-0.9-2.7,0.8-2.1,2.1c1.3,2.4,2.8,4.3,4.8,6.1c0.5-0.8,1-1.7,1.5-2.5c-6.4-1.4-9.6-7.1-12.4-12.5c-0.9-1.7-3.5-0.2-2.6,1.5
		c3.2,6.2,6.9,12.3,14.2,13.9c1.4,0.3,2.6-1.5,1.5-2.5c-1.8-1.6-3.2-3.3-4.4-5.5c-0.7,0.7-1.4,1.4-2.1,2.1c5,3.3,10,6.6,15.1,9.9
		c0.4-0.9,0.8-1.8,1.2-2.7c-9.2-1.6-18.9-4.2-23-13.5C85.5,158.4,82.9,159.9,83.7,161.7z"/>
	<g id="cb-stroke_5_">
		<path class="st1" d="M165.4,303.4h-30c-1.7,0-3,1.3-3,3v11h36v-11C168.4,304.8,167.1,303.4,165.4,303.4z"/>
		<path class="st1" d="M132.4,336.4c0,1.7,1.3,3,3,3h30c1.7,0,3-1.3,3-3v-10h-36V336.4z"/>
	</g>
	<path id="cb-halfopen-fill" class="st4" d="M166.4,322.4v-16c0-0.6-0.4-1-1-1h-30c-0.6,0-1,0.4-1,1v30c0,0.6,0.4,1,1,1h30
		c0.6,0,1-0.4,1-1V322.4"/>
	<path id="cb-halfopen-highlight" class="st5" d="M158.4,318.2c0,1.9,0,3.9,0,5.8c0,1.4,0.6,5.1,0,6.3c-0.4,0.9-0.7,0.6-1.9,0.6
		c-1,0-2.1,0-3.1-0.1c-2.3-0.1-4.7-0.4-7-0.7c0,1,0,1.9,0,2.9c3.2-0.8,6.4-0.4,9.6-0.5c1.4-0.1,2.7,0,3.6-1.1c1.4-1.6,1-4.6,1.1-6.5
		c0.2-3.2,0.2-6.3,0.1-9.5c-0.1-1.9-3-1.9-3,0c0.1,2,0.1,4.1,0.1,6.1c0,2.1,0.4,5.5-1.1,7.1s-3.8,0.9-5.9,0.9
		c-1.8,0-3.6,0.2-5.4,0.7c-1.3,0.3-1.5,2.6,0,2.9c3,0.4,6,0.8,9,0.9c1.7,0.1,4.3,0.6,5.8-0.6c1.3-1.1,1-3.3,1-4.8
		c0-3.4,0-6.8,0-10.2C161.4,316.2,158.4,316.2,158.4,318.2z"/>
	<path id="cb-halfopen-highlight_1_" class="st5" d="M140.4,314.3c0.1-0.8-0.4-2.3,0.5-2.8c1.1-0.5,2.9-0.4,4.1-0.3
		c1.9,0.1,1.9-2.9,0-3s-4.6-0.2-6.2,1c-1.7,1.3-1.2,3.2-1.4,5C137.3,316.2,140.3,316.2,140.4,314.3z"/>
	<circle id="circle_29_" class="st2" cx="187.5" cy="266.2" r="20.2"/>
	<path id="circle-stroke_32_" class="st1" d="M206.2,266.2c-0.3,10.1-8.3,18.8-18.7,18.7c-10.2-0.1-18.7-8.5-18.7-18.7
		c0-10,8.1-18.3,18-18.7C197.5,247.1,205.9,255.7,206.2,266.2c0.1,1.9,3.1,1.9,3,0c-0.4-11.8-9.6-21.7-21.7-21.7
		c-11.8,0-21.7,9.9-21.7,21.7c0,11.8,9.9,21.7,21.7,21.7c12.1,0,21.3-9.9,21.7-21.7C209.3,264.2,206.3,264.2,206.2,266.2z"/>
	<path id="highlight_27_" class="st0" d="M178.8,260.8c1.8-3.4,5.3-5.3,9.1-5.1c1.9,0.1,1.9-2.9,0-3c-4.9-0.3-9.4,2.3-11.7,6.6
		C175.3,261,177.9,262.5,178.8,260.8z"/>
	<path id="highlight_26_" class="st0" d="M186.8,279.1c9.1,1.9,16.5-5.4,14.9-14.5c-0.3-1.6-2.4-1.3-2.9,0c-1.5,4.2-3.7,8.1-8.2,9.4
		c-3.8,1.1-8,1.4-11.9,1.3c-1.9,0-1.9,3,0,3c4.9,0.1,11.1-0.1,15.6-2.4c3.9-2.1,6-6.5,7.5-10.5c-1,0-1.9,0-2.9,0
		c1.2,6.8-4.5,12.2-11.2,10.8C185.7,275.8,184.9,278.7,186.8,279.1z"/>
	<circle id="circle_30_" class="st2" cx="288.8" cy="322.9" r="43.5"/>
	<path id="circle-stroke_33_" class="st1" d="M330.8,322.9c-0.3,17.5-11,33.5-27.6,39.5c-16.3,5.9-35,1-46.2-12.2
		c-11.5-13.4-13.3-33.2-4.3-48.5c8.9-15.2,26.8-23.4,44.1-20.1C316.5,285.4,330.5,302.9,330.8,322.9c0,1.9,3,1.9,3,0
		c-0.3-18.8-11.9-35.9-29.8-42.3c-17.7-6.4-38.1-0.6-50,14c-11.8,14.6-13.4,35.6-3.6,51.6c9.7,16,28.8,24.4,47.1,20.9
		c21.1-4.1,36-22.9,36.3-44.1C333.8,320.9,330.8,320.9,330.8,322.9z"/>
	<path id="a_7_" class="st3" d="M276.8,312.8l4.8,13.8c0,0.1,0.1,0.2,0.1,0.3c0,0.3-0.3,0.4-1,0.4h-1.1c-0.6,0-0.9-0.1-1-0.4
		l-0.9-2.6h-4.9l-0.9,2.6c-0.1,0.2-0.4,0.4-0.8,0.4h-1c-0.8,0-1.2-0.1-1.2-0.4c0,0,0-0.2,0.1-0.4l4.8-13.8c0.1-0.3,0.5-0.4,1.1-0.4
		h0.9C276.4,312.4,276.7,312.5,276.8,312.8z M275.2,316.4c0,0.1,0,0.2-0.1,0.5c0,0.3-0.1,0.5-0.2,0.8l-1.6,4.7h3.8l-1.6-4.7
		C275.5,317.4,275.4,316.9,275.2,316.4L275.2,316.4z"/>
	<path id="p_14_" class="st3" d="M291.2,317.3c0.6,0.5,1.1,1.1,1.4,2s0.5,1.9,0.5,3c0,1.8-0.4,3.1-1.2,4.1s-1.9,1.5-3.2,1.5
		c-0.9,0-1.7-0.3-2.3-0.8v4.4c-0.1,0.4-0.5,0.6-1.3,0.9h-0.4c-0.7-0.3-1.1-0.5-1.3-0.9v-11.2c0.2-0.9,0.2-1.6,0.1-2.1
		c-0.1-0.4-0.1-0.7-0.1-0.8c0-0.2,0.2-0.3,0.7-0.5s0.9-0.2,1.2-0.2c0.2,0,0.4,0.1,0.5,0.3c0.1,0.2,0.2,0.4,0.2,0.6s0.1,0.4,0.1,0.5
		c0.3-0.5,0.8-0.9,1.3-1.2c0.5-0.3,1.1-0.4,1.7-0.4C289.9,316.6,290.6,316.8,291.2,317.3z M287.4,319.1c-0.4,0.2-0.7,0.6-1,1v5.1
		c0.5,0.4,1.2,0.6,1.9,0.6c1.5,0,2.3-1.2,2.3-3.4c0-1.1-0.2-2-0.5-2.6s-0.8-0.9-1.5-0.9C288.1,318.8,287.8,318.9,287.4,319.1z"/>
	<path id="p_15_" class="st3" d="M303.6,317.3c0.6,0.5,1.1,1.1,1.4,2s0.5,1.9,0.5,3c0,1.8-0.4,3.1-1.2,4.1s-1.9,1.5-3.2,1.5
		c-0.9,0-1.7-0.3-2.7-0.8v4.4c0.2,0.4-0.2,0.6-0.9,0.9h-0.4c-0.7-0.3-1.1-0.5-1.7-0.9v-11.2c0.6-0.9,0.6-1.6,0.5-2.1
		c-0.1-0.4-0.1-0.7-0.1-0.8c0-0.2,0.2-0.3,0.7-0.5s0.9-0.2,1.2-0.2c0.2,0,0.4,0.1,0.5,0.3c0.1,0.2,0.2,0.4,0.2,0.6s0.1,0.4,0.1,0.5
		c0.3-0.5,0.8-0.9,1.3-1.2c0.5-0.3,1.1-0.4,1.7-0.4C302.3,316.6,303,316.8,303.6,317.3z M299.4,319.1c-0.4,0.2-0.7,0.6-1,1v5.1
		c0.5,0.4,1.2,0.6,1.9,0.6c1.5,0,2.3-1.2,2.3-3.4c0-1.1-0.2-2-0.5-2.6s-0.8-0.9-1.5-0.9C300.1,318.8,299.8,318.9,299.4,319.1z"/>
	<path id="highlight_29_" class="st0" d="M268.4,348.5c-1.9-2.8-3.8-5.7-5.6-8.5c-1.1-1.6-3.4-0.2-2.6,1.5c1.8,4,5.5,6.9,9.8,7.7
		c1.9,0.3,2.7-2.5,0.8-2.9c-3.6-0.7-6.5-2.9-8-6.3c-0.9,0.5-1.7,1-2.6,1.5c1.9,2.8,3.8,5.7,5.6,8.5
		C266.9,351.6,269.5,350.1,268.4,348.5z"/>
	<path id="highlight_28_" class="st0" d="M303.5,292.9c7.9,6.7,16.4,14.3,15.8,25.5c-0.1,2,2.8,1.9,3,0c1.4-13.7-8-25-21.5-26.8
		c-1.9-0.2-1.9,2.8,0,3c11.9,1.6,19.7,12,18.5,23.8c1,0,2,0,3,0c0.6-12.1-8.2-20.5-16.7-27.7C304.2,289.5,302.1,291.6,303.5,292.9z"
		/>
	<g>
		<g class="st6">
			<path class="st3" d="M177.7,112V90.5c0-0.5,0.5-0.8,1.5-0.8h0.5c1,0,1.5,0.3,1.5,0.8v9h11.1v-9c0-0.5,0.5-0.8,1.5-0.8h0.5
				c1,0,1.5,0.3,1.5,0.8V112c0,0.5-0.5,0.8-1.5,0.8h-0.5c-1,0-1.5-0.3-1.5-0.8v-9.5h-11.1v9.5c0,0.5-0.5,0.8-1.5,0.8h-0.5
				C178.2,112.9,177.7,112.6,177.7,112z"/>
			<path class="st3" d="M201.8,111.8c-1-0.8-1.4-2.1-1.4-3.6c0-2.2,0.9-3.8,2.8-4.7c1.8-0.9,4.4-1.3,7.7-1.4v-1.4
				c0-0.8-0.3-1.4-0.8-1.8c-0.5-0.5-1.4-0.7-2.5-0.7c-0.9,0-1.7,0.1-2.4,0.3c-0.7,0.2-1.2,0.4-1.7,0.7c-0.5,0.2-0.7,0.3-0.8,0.3
				c-0.2,0-0.5-0.3-0.8-0.8c-0.3-0.5-0.5-0.9-0.5-1.2c0-0.3,0.3-0.6,0.9-1c0.6-0.3,1.4-0.6,2.3-0.9c1-0.2,2-0.3,3-0.3
				c2.2,0,3.8,0.5,5,1.4c1.1,0.9,1.7,2.2,1.7,3.9v7c0,1.5,0.1,2.5,0.2,3.2s0.2,1,0.2,1.1c0,0.3-0.3,0.5-0.8,0.7s-1,0.2-1.5,0.2
				c-0.4,0-0.6-0.2-0.7-0.5c-0.1-0.3-0.3-0.7-0.3-1.1c-0.1-0.4-0.1-0.6-0.1-0.8c-0.6,0.7-1.3,1.3-2.2,1.8c-0.9,0.5-1.9,0.7-3.1,0.7
				C204.1,113,202.8,112.6,201.8,111.8z M208.8,109.6c0.7-0.4,1.4-0.9,2-1.6v-3.3c-2.1,0-3.8,0.2-5.1,0.6c-1.3,0.4-1.9,1.3-1.9,2.6
				c0,0.7,0.2,1.3,0.6,1.7c0.4,0.4,1,0.6,1.8,0.6C207.3,110.2,208.1,110,208.8,109.6z"/>
			<path class="st3" d="M220.6,111.9c-0.9-0.7-1.3-2-1.3-3.7V88.8c0-0.5,0.5-0.8,1.5-0.8h0.4c1,0,1.5,0.3,1.5,0.8v19.3
				c0,0.8,0.1,1.3,0.4,1.7s0.7,0.5,1.2,0.5c0.3,0,0.6,0,0.8-0.1s0.4-0.1,0.5-0.1c0.2,0,0.4,0.2,0.6,0.7c0.2,0.5,0.2,0.8,0.2,1.1
				c0,0.8-0.9,1.2-2.6,1.2C222.5,113,221.4,112.7,220.6,111.9z"/>
			<path class="st3" d="M229.8,112V98.4h-1.1c-0.3,0-0.5-0.1-0.6-0.3c-0.1-0.2-0.2-0.5-0.2-0.9v-0.4c0-0.4,0.1-0.7,0.2-0.9
				c0.1-0.2,0.3-0.3,0.6-0.3h1.1v-2.9c0-1.8,0.4-3,1.3-3.7c0.8-0.7,1.9-1.1,3.1-1.1c1.8,0,2.6,0.4,2.6,1.2c0,0.2-0.1,0.6-0.2,1.1
				s-0.3,0.7-0.6,0.7c-0.1,0-0.3,0-0.5-0.1c-0.2-0.1-0.5-0.1-0.8-0.1c-0.5,0-0.9,0.1-1.2,0.4s-0.4,0.9-0.4,1.7v2.8h2.5
				c0.3,0,0.5,0.1,0.6,0.3s0.2,0.5,0.2,0.9v0.4c0,0.4-0.1,0.7-0.2,0.9c-0.1,0.2-0.3,0.3-0.6,0.3h-2.5V112c0,0.5-0.5,0.8-1.5,0.8
				h-0.4C230.3,112.9,229.8,112.6,229.8,112z"/>
			<path class="st3" d="M238.7,105.1c-0.1-0.2-0.2-0.5-0.2-0.9v-0.3c0-0.4,0.1-0.7,0.2-0.9c0.1-0.2,0.3-0.3,0.6-0.3h6.4
				c0.3,0,0.5,0.1,0.6,0.3c0.1,0.2,0.2,0.5,0.2,0.9v0.3c0,0.4-0.1,0.7-0.2,0.9c-0.1,0.2-0.3,0.3-0.6,0.3h-6.4
				C239,105.4,238.8,105.3,238.7,105.1z"/>
			<path class="st3" d="M251.4,110.8c-1.3-1.5-2-3.7-2-6.5c0-2.9,0.7-5.1,2-6.6c1.3-1.5,3.2-2.3,5.7-2.3s4.4,0.8,5.7,2.3
				s2,3.7,2,6.6c0,2.9-0.6,5-1.9,6.5s-3.2,2.3-5.7,2.3C254.7,113,252.8,112.3,251.4,110.8z M260.3,108.7c0.7-1,1-2.5,1-4.5
				c0-2-0.3-3.6-1-4.6c-0.7-1-1.8-1.5-3.2-1.5c-1.4,0-2.5,0.5-3.2,1.5s-1,2.5-1,4.6c0,2,0.3,3.6,1,4.5s1.7,1.5,3.2,1.5
				C258.6,110.2,259.7,109.7,260.3,108.7z"/>
			<path class="st3" d="M269.2,118.8v-18c0-1.4-0.1-2.5-0.2-3.2s-0.2-1-0.2-1.1c0-0.3,0.3-0.5,0.8-0.7c0.5-0.1,1.1-0.2,1.5-0.2
				c0.3,0,0.6,0.2,0.7,0.5c0.2,0.3,0.3,0.6,0.3,1c0.1,0.3,0.1,0.6,0.1,0.7c0.7-0.8,1.4-1.4,2.3-1.8c0.8-0.4,1.7-0.6,2.7-0.6
				c1.3,0,2.4,0.4,3.4,1.1s1.7,1.8,2.2,3.1c0.5,1.3,0.8,2.9,0.8,4.6c0,2.8-0.6,4.9-1.8,6.5c-1.2,1.6-2.9,2.3-4.9,2.3
				c-0.9,0-1.7-0.1-2.3-0.4c-0.7-0.3-1.3-0.6-2-1.1v7.3c0,0.5-0.5,0.8-1.5,0.8h-0.4C269.7,119.6,269.2,119.3,269.2,118.8z
				 M279.2,108.7c0.7-1,1-2.4,1-4.3c0-2-0.3-3.5-0.9-4.6c-0.6-1.1-1.5-1.6-2.7-1.6c-0.7,0-1.4,0.2-2.1,0.6s-1.3,0.9-1.9,1.6v8.6
				c1,0.8,2.2,1.2,3.6,1.2C277.5,110.2,278.5,109.7,279.2,108.7z"/>
			<path class="st3" d="M287.1,104.3c0-3,0.7-5.2,2-6.7c1.3-1.5,3.3-2.3,5.8-2.3c2.3,0,4,0.7,5.2,2.2s1.7,3.6,1.7,6.4
				c0,0.2-0.2,0.5-0.5,0.9s-0.6,0.6-0.8,0.6h-9.8c0.1,1.7,0.6,2.9,1.4,3.6c0.8,0.8,1.9,1.1,3.4,1.1c0.8,0,1.6-0.1,2.2-0.3
				c0.6-0.2,1.2-0.4,1.6-0.6s0.7-0.3,0.8-0.3c0.2,0,0.5,0.3,0.8,0.8c0.3,0.5,0.5,0.9,0.5,1.1c0,0.4-0.3,0.7-0.9,1s-1.3,0.6-2.3,0.8
				c-0.9,0.2-1.9,0.3-2.8,0.3C289.8,113,287.1,110.1,287.1,104.3z M298.3,102.8c0-1.5-0.3-2.7-0.9-3.5c-0.6-0.8-1.5-1.2-2.6-1.2
				c-2.5,0-3.9,1.6-4.2,4.7H298.3z"/>
			<path class="st3" d="M305.8,112v-11.2c0-1.4-0.1-2.5-0.2-3.2s-0.2-1-0.2-1.1c0-0.3,0.3-0.5,0.8-0.7c0.5-0.1,1.1-0.2,1.5-0.2
				c0.3,0,0.6,0.2,0.7,0.5c0.1,0.3,0.3,0.6,0.3,1c0.1,0.4,0.1,0.6,0.1,0.7c0.7-0.8,1.4-1.4,2.3-1.8c0.9-0.4,1.8-0.7,2.7-0.7
				c1.7,0,3,0.5,3.9,1.4c0.9,0.9,1.4,2.2,1.4,3.9V112c0,0.5-0.5,0.8-1.5,0.8h-0.4c-1,0-1.5-0.3-1.5-0.8v-11c0-0.9-0.3-1.6-0.8-2.1
				c-0.5-0.5-1.2-0.7-2.2-0.7c-0.7,0-1.4,0.2-2,0.6c-0.7,0.4-1.2,0.9-1.6,1.6V112c0,0.5-0.5,0.8-1.5,0.8h-0.4
				C306.3,112.9,305.8,112.6,305.8,112z"/>
		</g>
		<g class="st6">
			<path class="st3" d="M178.3,148.1c-1.3-1.4-2-3.7-2-6.7c0-3.1,0.7-5.3,2.2-6.7c1.5-1.4,3.4-2.1,5.8-2.1c1.3,0,2.4,0.2,3.5,0.5
				c1.1,0.3,1.6,0.8,1.6,1.2c0,0.3-0.2,0.7-0.5,1.2c-0.3,0.5-0.6,0.8-0.8,0.8c0,0-0.2-0.1-0.4-0.2c-0.5-0.2-1-0.4-1.5-0.6
				c-0.5-0.2-1.1-0.2-1.8-0.2c-1.5,0-2.6,0.5-3.3,1.4c-0.8,1-1.1,2.5-1.1,4.5c0,2.2,0.4,3.7,1.1,4.7c0.7,1,1.9,1.5,3.6,1.5
				c0.8,0,1.4-0.1,2-0.2s1.1-0.4,1.6-0.6c0.3-0.1,0.4-0.1,0.4-0.1c0.2,0,0.5,0.2,0.8,0.7c0.3,0.5,0.5,0.9,0.5,1.2
				c0,0.5-0.6,0.9-1.7,1.3s-2.4,0.6-3.6,0.6C181.7,150.2,179.6,149.5,178.3,148.1z"/>
			<path class="st3" d="M193.3,129v-1.9c0-0.6,0.6-0.9,1.8-0.9c1.1,0,1.7,0.3,1.7,0.9v1.9c0,0.6-0.6,0.9-1.8,0.9
				C193.8,129.9,193.3,129.6,193.3,129z M193.3,149.2v-15.7c0-0.5,0.5-0.8,1.5-0.8h0.3c1,0,1.5,0.3,1.5,0.8v15.7
				c0,0.5-0.5,0.8-1.5,0.8h-0.3C193.8,150.1,193.3,149.8,193.3,149.2z"/>
			<path class="st3" d="M202.1,149.2V138c0-1.4-0.1-2.5-0.2-3.2s-0.2-1-0.2-1.1c0-0.3,0.3-0.5,0.8-0.7c0.5-0.1,1.1-0.2,1.5-0.2
				c0.3,0,0.6,0.2,0.7,0.5c0.1,0.3,0.3,0.6,0.3,1c0.1,0.4,0.1,0.6,0.1,0.7c1.1-1.7,2.4-2.5,3.8-2.5c0.6,0,1.1,0.1,1.4,0.4
				c0.3,0.3,0.5,0.6,0.5,1s-0.1,0.8-0.2,1.3c-0.2,0.5-0.3,0.7-0.5,0.7c-0.1,0-0.4-0.1-0.7-0.2c-0.3-0.1-0.7-0.2-1.1-0.2
				c-0.7,0-1.3,0.2-1.8,0.7c-0.5,0.5-0.9,0.9-1.1,1.2v11.6c0,0.5-0.5,0.8-1.5,0.8h-0.4C202.6,150.1,202.1,149.8,202.1,149.2z"/>
			<path class="st3" d="M215,148.1c-1.3-1.4-2-3.7-2-6.7c0-3.1,0.7-5.3,2.2-6.7c1.5-1.4,3.4-2.1,5.8-2.1c1.3,0,2.4,0.2,3.5,0.5
				c1.1,0.3,1.6,0.8,1.6,1.2c0,0.3-0.2,0.7-0.5,1.2c-0.3,0.5-0.6,0.8-0.8,0.8c0,0-0.2-0.1-0.4-0.2c-0.5-0.2-1-0.4-1.5-0.6
				c-0.5-0.2-1.1-0.2-1.8-0.2c-1.5,0-2.6,0.5-3.3,1.4c-0.8,1-1.1,2.5-1.1,4.5c0,2.2,0.4,3.7,1.1,4.7c0.7,1,1.9,1.5,3.6,1.5
				c0.8,0,1.4-0.1,2-0.2c0.6-0.2,1.1-0.4,1.6-0.6c0.3-0.1,0.4-0.1,0.4-0.1c0.2,0,0.5,0.2,0.8,0.7s0.5,0.9,0.5,1.2
				c0,0.5-0.6,0.9-1.7,1.3c-1.2,0.4-2.4,0.6-3.6,0.6C218.4,150.2,216.4,149.5,215,148.1z"/>
			<path class="st3" d="M231.1,148.8c-0.9-0.9-1.4-2.2-1.4-3.9v-11.4c0-0.5,0.5-0.8,1.5-0.8h0.4c1,0,1.5,0.3,1.5,0.8v11
				c0,0.9,0.3,1.6,0.8,2.1s1.2,0.7,2.2,0.7c0.7,0,1.4-0.2,2-0.6c0.7-0.4,1.2-0.9,1.6-1.6v-11.6c0-0.5,0.5-0.8,1.5-0.8h0.4
				c1,0,1.5,0.3,1.5,0.8v11.3c0,1.5,0.1,2.5,0.2,3.2c0.1,0.7,0.2,1,0.2,1.1c0,0.3-0.3,0.5-0.8,0.7c-0.5,0.1-1.1,0.2-1.5,0.2
				c-0.3,0-0.6-0.2-0.7-0.5c-0.1-0.3-0.3-0.7-0.3-1.1c-0.1-0.4-0.1-0.6-0.1-0.8c-0.6,0.8-1.4,1.4-2.3,1.8c-0.9,0.4-1.8,0.7-2.8,0.7
				C233.3,150.2,232,149.8,231.1,148.8z"/>
			<path class="st3" d="M248.4,129v-1.9c0-0.6,0.6-0.9,1.8-0.9c1.1,0,1.7,0.3,1.7,0.9v1.9c0,0.6-0.6,0.9-1.8,0.9
				C248.9,129.9,248.4,129.6,248.4,129z M248.4,149.2v-15.7c0-0.5,0.5-0.8,1.5-0.8h0.3c1,0,1.5,0.3,1.5,0.8v15.7
				c0,0.5-0.5,0.8-1.5,0.8H250C248.9,150.1,248.4,149.8,248.4,149.2z"/>
			<path class="st3" d="M259,149.1c-0.9-0.7-1.3-2-1.3-3.7v-9.9h-1.3c-0.3,0-0.5-0.1-0.6-0.3c-0.1-0.2-0.2-0.5-0.2-0.9V134
				c0-0.4,0.1-0.7,0.2-0.9c0.1-0.2,0.3-0.3,0.6-0.3h1.3l0.4-3.4c0.1-0.5,0.5-0.8,1.3-0.8h0.5c0.8,0,1.2,0.3,1.2,0.8v3.4h2.4
				c0.3,0,0.5,0.1,0.6,0.3c0.1,0.2,0.2,0.5,0.2,0.9v0.4c0,0.4-0.1,0.7-0.2,0.9c-0.1,0.2-0.3,0.3-0.6,0.3h-2.4v9.7
				c0,0.8,0.1,1.3,0.4,1.7s0.7,0.5,1.2,0.5c0.3,0,0.6,0,0.8-0.1s0.4-0.1,0.5-0.1c0.2,0,0.4,0.2,0.6,0.7c0.2,0.5,0.2,0.8,0.2,1.1
				c0,0.8-0.9,1.2-2.6,1.2C260.9,150.2,259.9,149.9,259,149.1z"/>
			<path class="st3" d="M281.7,149.6c-0.8-0.4-1.6-1-2.3-1.8c-0.1,0.6-0.3,1.2-0.5,1.8c-0.1,0.2-0.2,0.3-0.4,0.4
				c-0.2,0.1-0.5,0.1-0.8,0.1h-0.2c-0.8,0-1.3-0.3-1.3-0.8V126c0-0.5,0.5-0.8,1.5-0.8h0.4c1,0,1.5,0.3,1.5,0.8v8
				c0.6-0.5,1.3-0.9,2-1.1c0.7-0.3,1.5-0.4,2.3-0.4c2.1,0,3.7,0.8,4.9,2.3s1.8,3.7,1.8,6.5c0,1.8-0.3,3.3-0.8,4.6
				c-0.5,1.3-1.3,2.4-2.2,3.1c-1,0.7-2.1,1.1-3.3,1.1C283.4,150.2,282.5,150,281.7,149.6z M286.3,145.8c0.6-1.1,0.9-2.6,0.9-4.6
				c0-1.9-0.3-3.3-1-4.3s-1.7-1.5-3-1.5c-0.6,0-1.3,0.1-1.9,0.3s-1.2,0.5-1.7,0.9v8.6c0.6,0.7,1.2,1.2,1.9,1.6
				c0.7,0.4,1.4,0.6,2.1,0.6C284.8,147.4,285.7,146.8,286.3,145.8z"/>
			<path class="st3" d="M295.1,149.2V138c0-1.4-0.1-2.5-0.2-3.2c-0.1-0.7-0.2-1-0.2-1.1c0-0.3,0.3-0.5,0.8-0.7
				c0.5-0.1,1.1-0.2,1.5-0.2c0.3,0,0.6,0.2,0.7,0.5c0.1,0.3,0.3,0.6,0.3,1c0.1,0.4,0.1,0.6,0.1,0.7c1.1-1.7,2.4-2.5,3.8-2.5
				c0.6,0,1.1,0.1,1.4,0.4c0.3,0.3,0.5,0.6,0.5,1s-0.1,0.8-0.2,1.3c-0.2,0.5-0.3,0.7-0.5,0.7c-0.1,0-0.4-0.1-0.7-0.2
				c-0.3-0.1-0.7-0.2-1.1-0.2c-0.7,0-1.3,0.2-1.8,0.7c-0.5,0.5-0.9,0.9-1.1,1.2v11.6c0,0.5-0.5,0.8-1.5,0.8h-0.4
				C295.6,150.1,295.1,149.8,295.1,149.2z"/>
			<path class="st3" d="M306.1,141.5c0-3,0.7-5.2,2-6.7c1.3-1.5,3.3-2.3,5.8-2.3c2.3,0,4,0.7,5.2,2.2s1.7,3.6,1.7,6.4
				c0,0.2-0.2,0.5-0.5,0.9s-0.6,0.6-0.8,0.6h-9.8c0.1,1.7,0.6,2.9,1.4,3.6c0.8,0.8,1.9,1.1,3.4,1.1c0.8,0,1.6-0.1,2.2-0.3
				c0.6-0.2,1.2-0.4,1.6-0.6s0.7-0.3,0.8-0.3c0.2,0,0.5,0.3,0.8,0.8c0.3,0.5,0.5,0.9,0.5,1.1c0,0.4-0.3,0.7-0.9,1s-1.3,0.6-2.3,0.8
				c-0.9,0.2-1.9,0.3-2.8,0.3C308.9,150.2,306.1,147.3,306.1,141.5z M317.3,140c0-1.5-0.3-2.7-0.9-3.5c-0.6-0.8-1.5-1.2-2.6-1.2
				c-2.5,0-3.9,1.6-4.2,4.7H317.3z"/>
			<path class="st3" d="M325.2,149c-1-0.8-1.4-2.1-1.4-3.6c0-2.2,0.9-3.8,2.8-4.7c1.8-0.9,4.4-1.3,7.7-1.4v-1.4
				c0-0.8-0.3-1.4-0.8-1.8c-0.5-0.5-1.4-0.7-2.5-0.7c-0.9,0-1.7,0.1-2.4,0.3c-0.7,0.2-1.2,0.4-1.7,0.7c-0.5,0.2-0.7,0.3-0.8,0.3
				c-0.2,0-0.5-0.3-0.8-0.8c-0.3-0.5-0.5-0.9-0.5-1.2c0-0.3,0.3-0.6,0.9-1c0.6-0.3,1.4-0.6,2.3-0.9s2-0.3,3-0.3c2.2,0,3.8,0.5,5,1.4
				c1.1,0.9,1.7,2.2,1.7,3.9v7c0,1.5,0.1,2.5,0.2,3.2s0.2,1,0.2,1.1c0,0.3-0.3,0.5-0.8,0.7s-1,0.2-1.5,0.2c-0.4,0-0.6-0.2-0.7-0.5
				c-0.1-0.3-0.3-0.7-0.3-1.1c-0.1-0.4-0.1-0.6-0.1-0.8c-0.6,0.7-1.3,1.3-2.2,1.8c-0.9,0.5-1.9,0.7-3.1,0.7
				C327.5,150.2,326.2,149.8,325.2,149z M332.2,146.8c0.7-0.4,1.4-0.9,2-1.6v-3.3c-2.1,0-3.8,0.2-5.1,0.6c-1.3,0.4-1.9,1.3-1.9,2.6
				c0,0.7,0.2,1.3,0.6,1.7c0.4,0.4,1,0.6,1.8,0.6C330.7,147.4,331.5,147.2,332.2,146.8z"/>
			<path class="st3" d="M356.4,149.6c0,0.2-0.1,0.3-0.4,0.3c-0.2,0.1-0.6,0.1-1.2,0.1h-0.5c-0.5,0-0.8,0-1.2-0.1
				c-0.3-0.1-0.5-0.2-0.7-0.4l-6-7.7l-0.1,0v7.4c0,0.5-0.5,0.8-1.5,0.8h-0.4c-1,0-1.5-0.3-1.5-0.8V126c0-0.5,0.5-0.8,1.5-0.8h0.4
				c1,0,1.5,0.3,1.5,0.8v14.3h0.1l5.6-7.1c0.3-0.3,0.9-0.5,1.8-0.5h0.4c0.4,0,0.8,0,1,0.1c0.2,0.1,0.3,0.2,0.3,0.3
				c0,0.2-0.1,0.4-0.3,0.7l-5.6,7l6.4,8.1C356.3,149.3,356.4,149.5,356.4,149.6z"/>
			<path class="st3" d="M359,141.5c0-3,0.7-5.2,2-6.7c1.3-1.5,3.3-2.3,5.8-2.3c2.3,0,4,0.7,5.2,2.2s1.7,3.6,1.7,6.4
				c0,0.2-0.2,0.5-0.5,0.9s-0.6,0.6-0.8,0.6h-9.8c0.1,1.7,0.6,2.9,1.4,3.6c0.8,0.8,1.9,1.1,3.4,1.1c0.8,0,1.6-0.1,2.2-0.3
				c0.6-0.2,1.2-0.4,1.6-0.6s0.7-0.3,0.8-0.3c0.2,0,0.5,0.3,0.8,0.8c0.3,0.5,0.5,0.9,0.5,1.1c0,0.4-0.3,0.7-0.9,1s-1.3,0.6-2.3,0.8
				c-0.9,0.2-1.9,0.3-2.8,0.3C361.7,150.2,359,147.3,359,141.5z M370.2,140c0-1.5-0.3-2.7-0.9-3.5c-0.6-0.8-1.5-1.2-2.6-1.2
				c-2.5,0-3.9,1.6-4.2,4.7H370.2z"/>
			<path class="st3" d="M377.8,149.2V138c0-1.4-0.1-2.5-0.2-3.2c-0.1-0.7-0.2-1-0.2-1.1c0-0.3,0.3-0.5,0.8-0.7
				c0.5-0.1,1.1-0.2,1.5-0.2c0.3,0,0.6,0.2,0.7,0.5c0.1,0.3,0.3,0.6,0.3,1c0.1,0.4,0.1,0.6,0.1,0.7c1.1-1.7,2.4-2.5,3.8-2.5
				c0.6,0,1.1,0.1,1.4,0.4c0.3,0.3,0.5,0.6,0.5,1s-0.1,0.8-0.2,1.3c-0.2,0.5-0.3,0.7-0.5,0.7c-0.1,0-0.4-0.1-0.7-0.2
				c-0.3-0.1-0.7-0.2-1.1-0.2c-0.7,0-1.3,0.2-1.8,0.7c-0.5,0.5-0.9,0.9-1.1,1.2v11.6c0,0.5-0.5,0.8-1.5,0.8h-0.4
				C378.3,150.1,377.8,149.8,377.8,149.2z"/>
		</g>
		<g class="st6">
			<path class="st3" d="M180,186.8l-4.3-15.5c-0.1-0.3-0.1-0.5-0.1-0.6c0-0.4,0.5-0.7,1.6-0.7c1,0,1.6,0.2,1.7,0.6l2.6,10
				c0.1,0.3,0.2,0.8,0.3,1.5l0.3,1.8h0.1c0-0.1,0.1-0.4,0.2-0.8c0.3-1.4,0.4-2.3,0.5-2.5l2.6-9.9c0.1-0.4,0.6-0.6,1.4-0.6h0.4
				c0.9,0,1.4,0.2,1.4,0.6l2.6,10c0.2,1,0.4,1.9,0.5,2.7c0,0.2,0.1,0.4,0.1,0.7h0.1c0.1-0.3,0.2-0.8,0.3-1.5c0-0.2,0.1-0.5,0.2-0.9
				c0.1-0.4,0.1-0.7,0.2-0.9l2.6-10c0.1-0.4,0.6-0.6,1.5-0.6c1,0,1.5,0.2,1.5,0.7c0,0.1,0,0.3-0.1,0.5l-4.2,15.7
				c0,0.2-0.2,0.3-0.5,0.4c-0.3,0.1-0.6,0.1-1,0.1h-1.2c-0.9,0-1.4-0.2-1.4-0.6l-2.4-9.7c-0.1-0.2-0.2-0.8-0.3-1.7l-0.1-0.7h-0.1
				c0,0.4-0.1,0.6-0.1,0.8c-0.1,0.7-0.2,1.3-0.3,1.7l-2.5,9.7c0,0.2-0.2,0.3-0.5,0.4c-0.3,0.1-0.6,0.1-1,0.1h-1.2
				C180.5,187.4,180,187.2,180,186.8z"/>
			<path class="st3" d="M201.9,166.3v-1.9c0-0.6,0.6-0.9,1.8-0.9c1.1,0,1.7,0.3,1.7,0.9v1.9c0,0.6-0.6,0.9-1.8,0.9
				C202.5,167.2,201.9,166.9,201.9,166.3z M202,186.5v-15.7c0-0.5,0.5-0.8,1.5-0.8h0.3c1,0,1.5,0.3,1.5,0.8v15.7
				c0,0.5-0.5,0.8-1.5,0.8h-0.3C202.5,187.4,202,187.1,202,186.5z"/>
			<path class="st3" d="M212.5,186.4c-0.9-0.7-1.3-2-1.3-3.7v-9.9h-1.3c-0.3,0-0.5-0.1-0.6-0.3c-0.1-0.2-0.2-0.5-0.2-0.9v-0.4
				c0-0.4,0.1-0.7,0.2-0.9c0.1-0.2,0.3-0.3,0.6-0.3h1.3l0.4-3.4c0.1-0.5,0.5-0.8,1.3-0.8h0.5c0.8,0,1.2,0.3,1.2,0.8v3.4h2.4
				c0.3,0,0.5,0.1,0.6,0.3c0.1,0.2,0.2,0.5,0.2,0.9v0.4c0,0.4-0.1,0.7-0.2,0.9c-0.1,0.2-0.3,0.3-0.6,0.3h-2.4v9.7
				c0,0.8,0.1,1.3,0.4,1.7s0.7,0.5,1.2,0.5c0.3,0,0.6,0,0.8-0.1s0.4-0.1,0.5-0.1c0.2,0,0.4,0.2,0.6,0.7c0.2,0.5,0.2,0.8,0.2,1.1
				c0,0.8-0.9,1.2-2.6,1.2C214.4,187.5,213.4,187.2,212.5,186.4z"/>
			<path class="st3" d="M222.1,186.5v-23.2c0-0.5,0.5-0.8,1.5-0.8h0.4c1,0,1.5,0.3,1.5,0.8v8.8c0.6-0.7,1.4-1.2,2.2-1.6
				c0.8-0.4,1.8-0.6,2.7-0.6c1.4,0,2.7,0.4,3.7,1.2s1.5,2.2,1.5,4.1v11.4c0,0.5-0.5,0.8-1.5,0.8h-0.3c-1,0-1.5-0.3-1.5-0.8v-11
				c0-0.9-0.3-1.6-0.8-2.1c-0.5-0.5-1.3-0.7-2.2-0.7c-0.6,0-1.2,0.1-1.8,0.4c-0.5,0.3-1,0.6-1.3,1c-0.3,0.4-0.5,0.6-0.6,0.7v11.6
				c0,0.5-0.5,0.8-1.5,0.8h-0.4C222.6,187.4,222.1,187.1,222.1,186.5z"/>
			<path class="st3" d="M249.1,186.5v-13.7h-1.1c-0.3,0-0.5-0.1-0.6-0.3c-0.1-0.2-0.2-0.5-0.2-0.9v-0.4c0-0.4,0.1-0.7,0.2-0.9
				c0.1-0.2,0.3-0.3,0.6-0.3h1.1v-2.9c0-1.8,0.4-3,1.3-3.7c0.8-0.7,1.9-1.1,3.1-1.1c1.8,0,2.6,0.4,2.6,1.2c0,0.2-0.1,0.6-0.2,1.1
				s-0.3,0.7-0.6,0.7c-0.1,0-0.3,0-0.5-0.1c-0.2-0.1-0.5-0.1-0.8-0.1c-0.5,0-0.9,0.1-1.2,0.4s-0.4,0.9-0.4,1.7v2.8h2.5
				c0.3,0,0.5,0.1,0.6,0.3s0.2,0.5,0.2,0.9v0.4c0,0.4-0.1,0.7-0.2,0.9c-0.1,0.2-0.3,0.3-0.6,0.3h-2.5v13.7c0,0.5-0.5,0.8-1.5,0.8
				h-0.4C249.6,187.4,249.1,187.1,249.1,186.5z"/>
			<path class="st3" d="M259.5,186.3c-1-0.8-1.4-2.1-1.4-3.6c0-2.2,0.9-3.8,2.8-4.7c1.8-0.9,4.4-1.3,7.7-1.4v-1.4
				c0-0.8-0.3-1.4-0.8-1.8c-0.5-0.5-1.4-0.7-2.5-0.7c-0.9,0-1.7,0.1-2.4,0.3c-0.7,0.2-1.2,0.4-1.7,0.7c-0.5,0.2-0.7,0.3-0.8,0.3
				c-0.2,0-0.5-0.3-0.8-0.8c-0.3-0.5-0.5-0.9-0.5-1.2c0-0.3,0.3-0.6,0.9-1c0.6-0.3,1.4-0.6,2.3-0.9s2-0.3,3-0.3c2.2,0,3.8,0.5,5,1.4
				c1.1,0.9,1.7,2.2,1.7,3.9v7c0,1.5,0.1,2.5,0.2,3.2s0.2,1,0.2,1.1c0,0.3-0.3,0.5-0.8,0.7s-1,0.2-1.5,0.2c-0.4,0-0.6-0.2-0.7-0.5
				c-0.1-0.3-0.3-0.7-0.3-1.1c-0.1-0.4-0.1-0.6-0.1-0.8c-0.6,0.7-1.3,1.3-2.2,1.8c-0.9,0.5-1.9,0.7-3.1,0.7
				C261.8,187.5,260.4,187.1,259.5,186.3z M266.5,184.1c0.7-0.4,1.4-0.9,2-1.6v-3.3c-2.1,0-3.8,0.2-5.1,0.6
				c-1.3,0.4-1.9,1.3-1.9,2.6c0,0.7,0.2,1.3,0.6,1.7c0.4,0.4,1,0.6,1.8,0.6C265,184.7,265.8,184.5,266.5,184.1z"/>
			<path class="st3" d="M278.3,186.4c-0.9-0.7-1.3-2-1.3-3.7v-19.4c0-0.5,0.5-0.8,1.5-0.8h0.4c1,0,1.5,0.3,1.5,0.8v19.3
				c0,0.8,0.1,1.3,0.4,1.7s0.7,0.5,1.2,0.5c0.3,0,0.6,0,0.8-0.1s0.4-0.1,0.5-0.1c0.2,0,0.4,0.2,0.6,0.7c0.2,0.5,0.2,0.8,0.2,1.1
				c0,0.8-0.9,1.2-2.6,1.2C280.1,187.5,279.1,187.2,278.3,186.4z"/>
			<path class="st3" d="M288,186.4c-0.9-0.7-1.3-2-1.3-3.7v-19.4c0-0.5,0.5-0.8,1.5-0.8h0.4c1,0,1.5,0.3,1.5,0.8v19.3
				c0,0.8,0.1,1.3,0.4,1.7s0.7,0.5,1.2,0.5c0.3,0,0.6,0,0.8-0.1s0.4-0.1,0.5-0.1c0.2,0,0.4,0.2,0.6,0.7c0.2,0.5,0.2,0.8,0.2,1.1
				c0,0.8-0.9,1.2-2.6,1.2C289.9,187.5,288.9,187.2,288,186.4z"/>
			<path class="st3" d="M302.1,186.9c-0.8-0.4-1.6-1-2.3-1.8c-0.1,0.6-0.3,1.2-0.5,1.8c-0.1,0.2-0.2,0.3-0.4,0.4
				c-0.2,0.1-0.5,0.1-0.8,0.1h-0.2c-0.8,0-1.3-0.3-1.3-0.8v-23.2c0-0.5,0.5-0.8,1.5-0.8h0.4c1,0,1.5,0.3,1.5,0.8v8
				c0.6-0.5,1.3-0.9,2-1.1c0.7-0.3,1.5-0.4,2.3-0.4c2.1,0,3.7,0.8,4.9,2.3s1.8,3.7,1.8,6.5c0,1.8-0.3,3.3-0.8,4.6
				c-0.5,1.3-1.3,2.4-2.2,3.1c-1,0.7-2.1,1.1-3.3,1.1C303.8,187.5,302.9,187.3,302.1,186.9z M306.7,183.1c0.6-1.1,0.9-2.6,0.9-4.6
				c0-1.9-0.3-3.3-1-4.3s-1.7-1.5-3-1.5c-0.6,0-1.3,0.1-1.9,0.3s-1.2,0.5-1.7,0.9v8.6c0.6,0.7,1.2,1.2,1.9,1.6
				c0.7,0.4,1.4,0.6,2.1,0.6C305.1,184.7,306,184.1,306.7,183.1z"/>
			<path class="st3" d="M315.7,186.3c-1-0.8-1.4-2.1-1.4-3.6c0-2.2,0.9-3.8,2.8-4.7c1.8-0.9,4.4-1.3,7.7-1.4v-1.4
				c0-0.8-0.3-1.4-0.8-1.8c-0.5-0.5-1.4-0.7-2.5-0.7c-0.9,0-1.7,0.1-2.4,0.3c-0.7,0.2-1.2,0.4-1.7,0.7c-0.5,0.2-0.7,0.3-0.8,0.3
				c-0.2,0-0.5-0.3-0.8-0.8c-0.3-0.5-0.5-0.9-0.5-1.2c0-0.3,0.3-0.6,0.9-1c0.6-0.3,1.4-0.6,2.3-0.9s2-0.3,3-0.3c2.2,0,3.8,0.5,5,1.4
				c1.1,0.9,1.7,2.2,1.7,3.9v7c0,1.5,0.1,2.5,0.2,3.2s0.2,1,0.2,1.1c0,0.3-0.3,0.5-0.8,0.7s-1,0.2-1.5,0.2c-0.4,0-0.6-0.2-0.7-0.5
				c-0.1-0.3-0.3-0.7-0.3-1.1c-0.1-0.4-0.1-0.6-0.1-0.8c-0.6,0.7-1.3,1.3-2.2,1.8c-0.9,0.5-1.9,0.7-3.1,0.7
				C318,187.5,316.7,187.1,315.7,186.3z M322.8,184.1c0.7-0.4,1.4-0.9,2-1.6v-3.3c-2.1,0-3.8,0.2-5.1,0.6c-1.3,0.4-1.9,1.3-1.9,2.6
				c0,0.7,0.2,1.3,0.6,1.7c0.4,0.4,1,0.6,1.8,0.6C321.2,184.7,322.1,184.5,322.8,184.1z"/>
			<path class="st3" d="M334.3,185.4c-1.3-1.4-2-3.7-2-6.7c0-3.1,0.7-5.3,2.2-6.7c1.5-1.4,3.4-2.1,5.8-2.1c1.3,0,2.4,0.2,3.5,0.5
				c1.1,0.3,1.6,0.8,1.6,1.2c0,0.3-0.2,0.7-0.5,1.2c-0.3,0.5-0.6,0.8-0.8,0.8c0,0-0.2-0.1-0.4-0.2c-0.5-0.2-1-0.4-1.5-0.6
				c-0.5-0.2-1.1-0.2-1.8-0.2c-1.5,0-2.6,0.5-3.3,1.4c-0.8,1-1.1,2.5-1.1,4.5c0,2.2,0.4,3.7,1.1,4.7c0.7,1,1.9,1.5,3.6,1.5
				c0.8,0,1.4-0.1,2-0.2c0.6-0.2,1.1-0.4,1.6-0.6c0.3-0.1,0.4-0.1,0.4-0.1c0.2,0,0.5,0.2,0.8,0.7s0.5,0.9,0.5,1.2
				c0,0.5-0.6,0.9-1.7,1.3c-1.2,0.4-2.4,0.6-3.6,0.6C337.7,187.5,335.7,186.8,334.3,185.4z"/>
			<path class="st3" d="M362.9,186.9c0,0.2-0.1,0.3-0.4,0.3c-0.2,0.1-0.6,0.1-1.2,0.1h-0.5c-0.5,0-0.8,0-1.2-0.1
				c-0.3-0.1-0.5-0.2-0.7-0.4l-6-7.7l-0.1,0v7.4c0,0.5-0.5,0.8-1.5,0.8H351c-1,0-1.5-0.3-1.5-0.8v-23.2c0-0.5,0.5-0.8,1.5-0.8h0.4
				c1,0,1.5,0.3,1.5,0.8v14.3h0.1l5.6-7.1c0.3-0.3,0.9-0.5,1.8-0.5h0.4c0.4,0,0.8,0,1,0.1c0.2,0.1,0.3,0.2,0.3,0.3
				c0,0.2-0.1,0.4-0.3,0.7l-5.6,7l6.4,8.1C362.8,186.6,362.9,186.8,362.9,186.9z"/>
		</g>
		<g class="st6">
			<path class="st3" d="M178.5,224.5c-0.8-0.2-1.5-0.5-2-0.8c-0.5-0.3-0.7-0.7-0.7-1c0-0.3,0.2-0.7,0.5-1.2c0.3-0.5,0.6-0.7,0.8-0.7
				c0,0,0.3,0.1,0.7,0.3c0.4,0.2,0.8,0.4,1.4,0.6c0.5,0.2,1.1,0.3,1.7,0.3c1.9,0,2.9-0.8,2.9-2.3c0-0.7-0.2-1.2-0.7-1.6
				c-0.5-0.4-1.3-0.8-2.4-1.1c-1.5-0.5-2.6-1.1-3.3-1.8s-1-1.8-1-3.1c0-1.5,0.5-2.7,1.5-3.6c1-0.9,2.4-1.4,4.1-1.4
				c1.1,0,2.2,0.1,3.1,0.4c0.9,0.3,1.4,0.7,1.4,1.1c0,0.3-0.1,0.7-0.4,1.3c-0.3,0.5-0.5,0.8-0.8,0.8c-0.1,0-0.4-0.2-0.9-0.4
				c-0.5-0.3-1.2-0.4-2-0.4c-0.8,0-1.4,0.2-1.9,0.5c-0.5,0.3-0.7,0.8-0.7,1.3c0,0.7,0.2,1.2,0.7,1.6c0.5,0.4,1.2,0.8,2.2,1.1
				c1.2,0.4,2.1,0.8,2.7,1.2c0.6,0.4,1.1,0.9,1.4,1.5c0.3,0.6,0.4,1.4,0.4,2.3c0,1-0.3,1.9-0.8,2.7s-1.2,1.4-2.1,1.9
				s-1.9,0.7-3.1,0.7C180.2,224.8,179.3,224.7,178.5,224.5z"/>
			<path class="st3" d="M189.9,216c0-3,0.7-5.2,2-6.7c1.3-1.5,3.3-2.3,5.8-2.3c2.3,0,4,0.7,5.2,2.2c1.1,1.5,1.7,3.6,1.7,6.4
				c0,0.2-0.2,0.5-0.5,0.9s-0.6,0.6-0.8,0.6h-9.8c0.1,1.7,0.6,2.9,1.4,3.6c0.8,0.8,1.9,1.1,3.4,1.1c0.8,0,1.6-0.1,2.2-0.3
				c0.6-0.2,1.2-0.4,1.6-0.6c0.4-0.2,0.7-0.3,0.8-0.3c0.2,0,0.5,0.3,0.8,0.8c0.3,0.5,0.5,0.9,0.5,1.1c0,0.4-0.3,0.7-0.9,1
				c-0.6,0.3-1.3,0.6-2.3,0.8c-0.9,0.2-1.9,0.3-2.8,0.3C192.7,224.7,189.9,221.8,189.9,216z M201.1,214.5c0-1.5-0.3-2.7-0.9-3.5
				c-0.6-0.8-1.5-1.2-2.6-1.2c-2.5,0-3.9,1.6-4.2,4.7H201.1z"/>
			<path class="st3" d="M208.7,223.7v-11.2c0-1.4-0.1-2.5-0.2-3.2s-0.2-1-0.2-1.1c0-0.3,0.3-0.5,0.8-0.7c0.5-0.1,1.1-0.2,1.5-0.2
				c0.3,0,0.6,0.2,0.7,0.5c0.1,0.3,0.3,0.6,0.3,1c0.1,0.4,0.1,0.6,0.1,0.7c1.1-1.7,2.4-2.5,3.8-2.5c0.6,0,1.1,0.1,1.4,0.4
				c0.3,0.3,0.5,0.6,0.5,1s-0.1,0.8-0.2,1.3c-0.2,0.5-0.3,0.7-0.5,0.7c-0.1,0-0.4-0.1-0.7-0.2c-0.3-0.1-0.7-0.2-1.1-0.2
				c-0.7,0-1.3,0.2-1.8,0.7c-0.5,0.5-0.9,0.9-1.1,1.2v11.6c0,0.5-0.5,0.8-1.5,0.8h-0.4C209.2,224.6,208.7,224.3,208.7,223.7z"/>
			<path class="st3" d="M224,224l-5.3-15.7c-0.1-0.3-0.1-0.4-0.1-0.5c0-0.4,0.5-0.6,1.6-0.6h0.4c0.9,0,1.4,0.2,1.5,0.6l2.9,9.3
				c0.2,0.6,0.6,2,1.1,4.1h0.1l0.3-1.3c0.2-1,0.5-2,0.7-2.8l3-9.3c0.1-0.4,0.6-0.6,1.5-0.6h0.3c0.9,0,1.4,0.2,1.4,0.6
				c0,0.1,0,0.3-0.1,0.5l-5.3,15.7c-0.1,0.4-0.6,0.6-1.5,0.6h-1.1C224.6,224.6,224.1,224.4,224,224z"/>
			<path class="st3" d="M236.7,203.5v-1.9c0-0.6,0.6-0.9,1.8-0.9c1.1,0,1.7,0.3,1.7,0.9v1.9c0,0.6-0.6,0.9-1.8,0.9
				C237.3,204.4,236.7,204.1,236.7,203.5z M236.7,223.7V208c0-0.5,0.5-0.8,1.5-0.8h0.3c1,0,1.5,0.3,1.5,0.8v15.7
				c0,0.5-0.5,0.8-1.5,0.8h-0.3C237.3,224.6,236.7,224.3,236.7,223.7z"/>
			<path class="st3" d="M246.4,222.6c-1.3-1.4-2-3.7-2-6.7c0-3.1,0.7-5.3,2.2-6.7c1.5-1.4,3.4-2.1,5.8-2.1c1.3,0,2.4,0.2,3.5,0.5
				c1.1,0.3,1.6,0.8,1.6,1.2c0,0.3-0.2,0.7-0.5,1.2c-0.3,0.5-0.6,0.8-0.8,0.8c0,0-0.2-0.1-0.4-0.2c-0.5-0.2-1-0.4-1.5-0.6
				c-0.5-0.2-1.1-0.2-1.8-0.2c-1.5,0-2.6,0.5-3.3,1.4c-0.8,1-1.1,2.5-1.1,4.5c0,2.2,0.4,3.7,1.1,4.7c0.7,1,1.9,1.5,3.6,1.5
				c0.8,0,1.4-0.1,2-0.2c0.6-0.2,1.1-0.4,1.6-0.6c0.3-0.1,0.4-0.1,0.4-0.1c0.2,0,0.5,0.2,0.8,0.7s0.5,0.9,0.5,1.2
				c0,0.5-0.6,0.9-1.7,1.3c-1.2,0.4-2.4,0.6-3.6,0.6C249.8,224.7,247.7,224,246.4,222.6z"/>
			<path class="st3" d="M260.4,216c0-3,0.7-5.2,2-6.7c1.3-1.5,3.3-2.3,5.8-2.3c2.3,0,4,0.7,5.2,2.2s1.7,3.6,1.7,6.4
				c0,0.2-0.2,0.5-0.5,0.9s-0.6,0.6-0.8,0.6H264c0.1,1.7,0.6,2.9,1.4,3.6c0.8,0.8,1.9,1.1,3.4,1.1c0.8,0,1.6-0.1,2.2-0.3
				c0.6-0.2,1.2-0.4,1.6-0.6s0.7-0.3,0.8-0.3c0.2,0,0.5,0.3,0.8,0.8c0.3,0.5,0.5,0.9,0.5,1.1c0,0.4-0.3,0.7-0.9,1s-1.3,0.6-2.3,0.8
				c-0.9,0.2-1.9,0.3-2.8,0.3C263.2,224.7,260.4,221.8,260.4,216z M271.6,214.5c0-1.5-0.3-2.7-0.9-3.5c-0.6-0.8-1.5-1.2-2.6-1.2
				c-2.5,0-3.9,1.6-4.2,4.7H271.6z"/>
		</g>
	</g>
</g>
</svg>
