<?xml version="1.0" encoding="utf-8"?>
<!-- Generator: Adobe Illustrator 21.1.0, SVG Export Plug-In . SVG Version: 6.00 Build 0)  -->
<!DOCTYPE svg PUBLIC "-//W3C//DTD SVG 1.1//EN" "http://www.w3.org/Graphics/SVG/1.1/DTD/svg11.dtd" [
	<!ENTITY st0 "fill:#FFFFFF;">
	<!ENTITY st1 "fill:#727F9B;">
	<!ENTITY st2 "fill:#515A6D;">
	<!ENTITY st3 "fill:#D0DAED;">
	<!ENTITY st4 "fill:#E58231;">
	<!ENTITY st5 "fill:#F5CCB1;">
	<!ENTITY st6 "fill:#A1C14D;">
	<!ENTITY st7 "fill:#D0DEA4;">
	<!ENTITY st8 "fill:#F49F60;">
	<!ENTITY st9 "fill:#E58231;stroke:#FFFFFF;stroke-miterlimit:10;">
	<!ENTITY st10 "fill:#FF00FF;">
]>
<svg version="1.1" xmlns="http://www.w3.org/2000/svg" xmlns:xlink="http://www.w3.org/1999/xlink" x="0px" y="0px"
	 viewBox="0 0 300 298.9" style="enable-background:new 0 0 300 298.9;" xml:space="preserve">
<g id="working_artboard">
	<path style="&st1;" d="M259.8,82.8c-0.1-5-0.2-10-0.3-15c-0.1-5-0.3-10-0.5-15c-0.5-10-1-20-2-30.1h-0.6c-1,10-1.5,20-2,30.1
		c-0.2,5-0.4,10-0.5,15c-0.2,5-0.3,10-0.3,15c-0.1,5-0.1,10,0,15l0.2,15l0.3,15c0.1,2.5,0.1,5,0.2,7.5l0.1,3.8l0.1,1.9
		c0,0.4,0,0.5,0,0.7c0,0.2,0,0.4-0.1,0.6l-0.1,0.5l0,0.2c0.1,0.9-0.1,1.9-0.6,2.6c-0.5,0.7-1.3,1.3-2.3,1.5l-2.4,0.6
		c-7.5-0.8-15-1.3-22.5-1.7l-6.4-0.3l-6.4-0.2c-4.3-0.2-8.5-0.2-12.8-0.3c-8.5-0.1-17.1,0.1-25.6,0.4c-4.3,0.1-8.5,0.2-12.8,0.4
		c-4.3,0.2-8.5,0.5-12.8,0.8c-8.5,0.6-17.1,0.9-25.6,0.7c-8.5-0.2-17.1-1.1-25.6-1.5c-4.3-0.2-8.5-0.2-12.8-0.2
		c-4.3,0-8.5,0.2-12.8,0.3c-6.5,0.3-13.1,0.7-19.6,1.3l-2.1-0.2c-1-0.1-1.9-0.5-2.6-1.3c-0.7-0.7-1-1.8-1-2.9l0-0.3l-0.1-0.2
		c-0.2-0.5-0.2-0.9-0.2-1.5l-0.1-1.9l-0.1-3.8c-0.1-2.5-0.1-5-0.1-7.5c-0.1-5,0-10,0.2-15c0.4-10,1.3-20,1.5-30.1c0.1-5,0.1-10,0-15
		c0-5-0.2-10-0.3-15c-0.4-10-0.9-20-2-30.1h-0.6c-1.1,10-1.6,20-2,30.1c-0.1,5-0.3,10-0.3,15c-0.1,5-0.1,10,0,15
		c0.2,10,1.1,20,1.5,30.1c0.2,5,0.3,10,0.2,15c0,2.5,0,5-0.1,7.5l-0.1,3.8l-0.1,1.9c0,0.6,0,1.3,0.1,1.9c-0.1,1.6,0.3,3.3,1.3,4.7
		c0.2,0.3,0.5,0.7,0.8,0.9c-0.4,0.3-0.8,0.7-1.1,1.1c-1.1,1.3-1.7,3-1.7,4.7c-0.1,0.3-0.2,0.6-0.2,1c-0.1,0.4-0.1,0.9-0.1,1.2
		l-0.1,1.9l-0.1,3.8c-0.1,2.5-0.2,5-0.2,7.5l-0.3,15l-0.2,15c-0.1,5,0,10,0,15c0.1,5,0.2,10,0.3,15c0.1,5,0.3,10,0.5,15
		c0.5,10,1,20,2,30.1h0.6c1-10,1.5-20,2-30.1c0.2-5,0.4-10,0.5-15c0.2-5,0.3-10,0.3-15c0.1-5,0.1-10,0-15l-0.2-15l-0.3-15
		c-0.1-2.5-0.1-5-0.2-7.5l-0.1-3.8l-0.1-1.9c0-0.4,0-0.5,0-0.7c0-0.2,0-0.4,0.1-0.6l0.1-0.5l0-0.2c-0.1-0.9,0.1-1.9,0.6-2.6
		c0.5-0.7,1.3-1.3,2.3-1.5l3.6-0.9c6,0.6,12,0.9,18,1.2c4.3,0.2,8.5,0.3,12.8,0.3c4.3,0.1,8.5,0,12.8-0.2c8.5-0.4,17.1-1.4,25.6-1.5
		c8.5-0.2,17.1,0.1,25.6,0.7c4.3,0.3,8.5,0.6,12.8,0.8c4.3,0.2,8.5,0.3,12.8,0.4c8.5,0.2,17.1,0.5,25.6,0.4
		c4.3-0.1,8.5-0.1,12.8-0.3l6.4-0.2l6.4-0.3c5.6-0.3,11.2-0.7,16.8-1.2l8.1,0.8c1,0.1,1.9,0.5,2.6,1.3c0.7,0.7,1,1.8,1,2.9l0,0.3
		l0.1,0.2c0.2,0.5,0.2,0.9,0.2,1.5l0.1,1.9l0.1,3.8c0.1,2.5,0.1,5,0.1,7.5c0.1,5,0,10-0.2,15c-0.4,10-1.3,20-1.5,30.1
		c-0.1,5-0.1,10,0,15c0,5,0.2,10,0.3,15c0.4,10,0.9,20,2,30.1h0.6c1.1-10,1.6-20,2-30.1c0.1-5,0.3-10,0.3-15c0.1-5,0.1-10,0-15
		c-0.2-10-1.1-20-1.5-30.1c-0.2-5-0.3-10-0.2-15c0-2.5,0-5,0.1-7.5l0.1-3.8l0.1-1.9c0-0.6,0-1.3-0.1-1.9c0.1-1.6-0.3-3.3-1.3-4.7
		c-0.2-0.3-0.5-0.7-0.8-0.9c0.4-0.3,0.8-0.7,1.1-1.1c1.1-1.3,1.7-3,1.7-4.7c0.1-0.3,0.2-0.6,0.2-1c0.1-0.4,0.1-0.9,0.1-1.2l0.1-1.9
		l0.1-3.8c0.1-2.5,0.2-5,0.2-7.5l0.3-15l0.2-15C259.9,92.8,259.8,87.8,259.8,82.8z"/>
	<path style="&st1;" d="M249.1,8.7c0,44.5,0,89.1,0,133.6c0.5-0.5,1-1,1.5-1.5c-66.2,0-132.4,0-198.5,0c0.5,0.5,1,1,1.5,1.5
		c0-22.3,0-44.6,0-66.9c0-11,0-21.9,0-32.9c0-11.2,0.9-22.7,0-33.8c-0.8-9.5-14.2-9.5-15,0c-0.9,10.9,0,22.2,0,33.2
		c0,11.2,0,22.5,0,33.7c0,43.2,0,86.4,0,129.6c0,21.9,0,43.8,0,65.7c0,5.5-0.1,11.1,0,16.7c0.1,2.5,0.4,4.7,2.3,6.4
		c2.8,2.5,7.5,2.5,10.4,0c2.2-2,2.3-4.5,2.3-7.3c0.1-6.4,0-12.8,0-19.2c0-12.3,0-24.6,0-37c0-25.2,0-50.4,0-75.6
		c-0.5,0.5-1,1-1.5,1.5c66.2,0,132.4,0,198.5,0c-0.5-0.5-1-1-1.5-1.5c0,35.5,0,71.1,0,106.6c0,8.9-0.7,18.1,0,27
		c0.3,3.4,2,6.2,5.5,7.1c12.5,3.1,9.5-15.3,9.5-21.8c0-69.9,0-139.8,0-209.7c0-10,0-20,0-29.9c0-5.2,0-10.4,0-15.6
		c0-3.7,0.7-8.1-0.2-11.7C261.7-1.5,249.7,0.6,249.1,8.7c-0.1,1.9,2.9,1.9,3,0c0.2-3,2.7-4.9,5.7-4.2c3.2,0.8,3.2,3.4,3.3,6.1
		c0.3,7.8,0,15.7,0,23.5c0,14.8,0,29.6,0,44.4c0,28.6,0,57.2,0,85.8c0,29.7,0,59.4,0,89.1c0,7.1,0,14.3,0,21.4c0,3.3,0,6.5,0,9.8
		c0,3.1,0.6,7.1-3.3,8.1c-7.6,1.9-5.7-9.5-5.7-13.7c0-7.8,0-15.5,0-23.3c0-33.6,0-67.2,0-100.8c0-0.8-0.7-1.5-1.5-1.5
		c-66.2,0-132.4,0-198.5,0c-0.8,0-1.5,0.7-1.5,1.5c0,38.5,0,77,0,115.5c0,4.5,0,8.9,0,13.4c0,3.6,0.6,9.1-4.5,9.1
		c-4.8,0-4.5-4.8-4.5-8.2c0-5.2,0-10.4,0-15.7c0-19,0-38,0-57c0-37.4,0-74.8,0-112.2c0-19,0-37.9,0-56.9c0-9.7,0-19.5,0-29.2
		c0-3.6-0.8-8.5,3.9-9.2c5.1-0.7,5.1,4.4,5.1,8c0,43.3,0,86.5,0,129.8c0,0.8,0.7,1.5,1.5,1.5c66.2,0,132.4,0,198.5,0
		c0.8,0,1.5-0.7,1.5-1.5c0-44.5,0-89.1,0-133.6C252.1,6.8,249.1,6.8,249.1,8.7z"/>
	<circle style="&st3;" cx="44.9" cy="44.9" r="43.5"/>
	<path style="&st1;" d="M86.8,44.9c-0.3,17.5-11,33.5-27.6,39.5c-16.3,5.9-35,1-46.2-12.2C1.5,58.8-0.3,39,8.6,23.7
		C17.5,8.6,35.5,0.4,52.7,3.7C72.5,7.5,86.5,25,86.8,44.9c0,1.9,3,1.9,3,0C89.5,26.1,77.9,9,60,2.6c-17.7-6.4-38.1-0.6-50,14
		C-1.8,31.1-3.3,52.1,6.4,68.2c9.7,16,28.8,24.4,47.1,20.9c21.1-4.1,36-22.9,36.3-44.1C89.9,43,86.9,43,86.8,44.9z"/>
	<circle style="&st3;" cx="255" cy="45" r="43.5"/>
	<path style="&st1;" d="M297,45c-0.3,17.5-11,33.5-27.6,39.5c-16.3,5.9-35,1-46.2-12.2c-11.5-13.4-13.3-33.2-4.3-48.5
		c8.9-15.2,26.8-23.4,44.1-20.1C282.7,7.5,296.7,25,297,45c0,1.9,3,1.9,3,0C299.7,26.1,288,9,270.2,2.6c-17.7-6.4-38.1-0.6-50,14
		c-11.8,14.6-13.4,35.6-3.6,51.6c9.7,16,28.8,24.4,47.1,20.9c21.1-4.1,36-22.9,36.3-44.1C300,43,297,43,297,45z"/>
	<circle style="&st3;" cx="44.9" cy="253.9" r="43.5"/>
	<path style="&st1;" d="M86.8,253.9c-0.3,17.5-11,33.5-27.6,39.5c-16.3,5.9-35,1-46.2-12.2C1.5,267.8-0.3,248,8.6,232.7
		c8.9-15.2,26.8-23.4,44.1-20.1C72.5,216.5,86.5,234,86.8,253.9c0,1.9,3,1.9,3,0C89.5,235.1,77.9,218,60,211.6
		c-17.7-6.4-38.1-0.6-50,14c-11.8,14.6-13.4,35.6-3.6,51.6c9.7,16,28.8,24.4,47.1,20.9c21.1-4.1,36-22.9,36.3-44.1
		C89.9,252,86.9,252,86.8,253.9z"/>
	<circle style="&st3;" cx="255" cy="254" r="43.5"/>
	<path style="&st1;" d="M297,254c-0.3,17.5-11,33.5-27.6,39.5c-16.3,5.9-35,1-46.2-12.2c-11.5-13.4-13.3-33.2-4.3-48.5
		c8.9-15.2,26.8-23.4,44.1-20.1C282.7,216.5,296.7,234,297,254c0,1.9,3,1.9,3,0c-0.3-18.8-11.9-35.9-29.8-42.3
		c-17.7-6.4-38.1-0.6-50,14c-11.8,14.6-13.4,35.6-3.6,51.6c9.7,16,28.8,24.4,47.1,20.9c21.1-4.1,36-22.9,36.3-44.1
		C300,252,297,252,297,254z"/>
	<path style="&st2;" d="M16.4,36.1c0.5,0.1,1,0.3,1.4,0.5c0.4,0.2,0.6,0.4,0.6,0.7c0,0.2-0.1,0.4-0.3,0.7c-0.2,0.3-0.3,0.4-0.4,0.4
		c-0.1,0-0.1,0-0.2-0.1s-0.2-0.1-0.2-0.1c-0.7-0.4-1.5-0.6-2.3-0.6s-1.5,0.2-2,0.6c-0.5,0.4-0.7,1-0.7,1.7c0,0.5,0.1,0.9,0.4,1.2
		c0.2,0.3,0.5,0.5,0.9,0.7c0.3,0.2,0.9,0.4,1.6,0.7c0.8,0.3,1.5,0.6,2.1,0.9c0.5,0.3,1,0.7,1.4,1.3c0.4,0.6,0.6,1.3,0.6,2.2
		c0,1.3-0.4,2.3-1.3,3s-2,1.1-3.4,1.1c-0.8,0-1.5-0.1-2.2-0.3c-0.7-0.2-1.2-0.4-1.6-0.6S10,49.5,10,49.3c0-0.2,0.1-0.4,0.3-0.7
		c0.2-0.3,0.3-0.4,0.5-0.4c0,0,0.2,0.1,0.4,0.2c0.5,0.3,1,0.5,1.5,0.6s1.1,0.2,1.7,0.2c0.8,0,1.5-0.2,2-0.7c0.5-0.5,0.8-1.1,0.8-1.8
		c0-0.5-0.1-0.9-0.4-1.3s-0.6-0.6-1-0.8c-0.4-0.2-1-0.5-1.7-0.7c-0.8-0.3-1.5-0.6-1.9-0.9c-0.5-0.3-0.9-0.7-1.2-1.2
		c-0.3-0.5-0.5-1.2-0.5-2.1c0-0.8,0.2-1.4,0.6-2s0.9-1,1.6-1.4c0.7-0.3,1.5-0.5,2.4-0.5C15.4,35.9,15.9,35.9,16.4,36.1z"/>
	<path style="&st2;" d="M29.3,41c0.7,0.9,1.1,2.3,1.1,4.1c0,0.1-0.1,0.3-0.3,0.5C30,45.8,29.9,46,29.7,46h-6.6
		c0.1,1.2,0.4,2,0.9,2.6s1.3,0.8,2.3,0.8c0.6,0,1.1-0.1,1.5-0.2c0.4-0.1,0.8-0.3,1.1-0.4c0.3-0.1,0.4-0.2,0.5-0.2
		c0.1,0,0.3,0.1,0.5,0.4c0.2,0.3,0.3,0.5,0.3,0.6c0,0.2-0.2,0.4-0.5,0.6c-0.4,0.2-0.8,0.4-1.4,0.5c-0.6,0.1-1.2,0.2-1.9,0.2
		c-1.8,0-3-0.5-3.9-1.4c-0.8-0.9-1.3-2.3-1.3-4.2c0-1.9,0.4-3.3,1.2-4.2c0.8-1,2-1.5,3.7-1.5C27.5,39.6,28.6,40.1,29.3,41z
		 M23.1,44.4h5.5c0-2.2-0.8-3.3-2.5-3.3C24.2,41.1,23.3,42.2,23.1,44.4z"/>
	<path style="&st2;" d="M38.6,39.8c0.2,0.2,0.3,0.4,0.3,0.6c0,0.2,0,0.5-0.1,0.7c-0.1,0.3-0.2,0.4-0.3,0.4c-0.1,0-0.2,0-0.4-0.1
		c-0.2-0.1-0.5-0.1-0.7-0.1c-0.3,0-0.6,0.1-0.9,0.3c-0.3,0.2-0.5,0.4-0.7,0.6c-0.2,0.2-0.3,0.4-0.3,0.4v7.7c0,0.3-0.3,0.5-0.8,0.5
		h-0.1c-0.6,0-0.8-0.2-0.8-0.5v-7.4c0-0.9,0-1.6-0.1-2s-0.1-0.6-0.1-0.7c0-0.2,0.1-0.3,0.4-0.4c0.3-0.1,0.5-0.1,0.7-0.1
		c0.2,0,0.3,0.1,0.4,0.3c0.1,0.2,0.2,0.4,0.2,0.6c0,0.2,0.1,0.4,0.1,0.4c0.7-1.1,1.6-1.6,2.4-1.6C38,39.6,38.3,39.7,38.6,39.8z"/>
	<path style="&st2;" d="M49.5,40c0,0.1,0,0.2-0.1,0.3L46,50.4c-0.1,0.2-0.4,0.3-0.8,0.3h-0.7c-0.5,0-0.8-0.1-0.8-0.3l-3.4-10.1
		c0-0.1-0.1-0.2-0.1-0.3c0-0.2,0.3-0.4,0.9-0.4h0.1c0.5,0,0.8,0.1,0.8,0.3l2.1,6.7c0.1,0.4,0.4,1.3,0.7,2.6H45l0.1-0.6
		c0.2-0.8,0.3-1.5,0.5-2l2.2-6.7c0.1-0.2,0.4-0.3,0.9-0.3h0.1C49.2,39.7,49.5,39.8,49.5,40z"/>
	<path style="&st2;" d="M54,35.4v1.2c0,0.3-0.3,0.5-0.8,0.5h-0.3c-0.6,0-0.8-0.2-0.8-0.5v-1.2c0-0.3,0.3-0.5,0.8-0.5h0.3
		C53.7,34.9,54,35.1,54,35.4z M53.9,40.1v10.2c0,0.3-0.3,0.5-0.8,0.5H53c-0.6,0-0.8-0.2-0.8-0.5V40.1c0-0.3,0.3-0.5,0.8-0.5h0.1
		C53.6,39.7,53.9,39.8,53.9,40.1z"/>
	<path style="&st2;" d="M64.4,39.9c0.6,0.2,1,0.4,1,0.7c0,0.2-0.1,0.4-0.2,0.7s-0.3,0.4-0.4,0.4c0,0-0.1,0-0.1,0c0,0-0.1,0-0.1-0.1
		c-0.8-0.3-1.5-0.5-2.3-0.5c-2,0-3,1.3-3,4c0,1.5,0.2,2.6,0.7,3.2c0.5,0.7,1.3,1,2.5,1c0.9,0,1.6-0.2,2.4-0.5l0.2-0.1
		c0.1,0,0.3,0.1,0.5,0.4c0.2,0.3,0.3,0.5,0.3,0.7c0,0.2-0.2,0.3-0.5,0.5c-0.3,0.2-0.7,0.3-1.2,0.4c-0.5,0.1-1.1,0.2-1.6,0.2
		c-1.7,0-3-0.4-3.9-1.3s-1.3-2.3-1.3-4.3c0-2,0.5-3.4,1.4-4.3c1-0.9,2.1-1.3,3.6-1.3C63,39.6,63.7,39.7,64.4,39.9z"/>
	<path style="&st2;" d="M75.9,41c0.7,0.9,1.1,2.3,1.1,4.1c0,0.1-0.1,0.3-0.3,0.5c-0.2,0.2-0.3,0.3-0.4,0.3h-6.6
		c0.1,1.2,0.4,2,0.9,2.6s1.3,0.8,2.3,0.8c0.6,0,1.1-0.1,1.5-0.2c0.4-0.1,0.8-0.3,1.1-0.4c0.3-0.1,0.4-0.2,0.5-0.2
		c0.1,0,0.3,0.1,0.5,0.4c0.2,0.3,0.3,0.5,0.3,0.6c0,0.2-0.2,0.4-0.5,0.6c-0.4,0.2-0.8,0.4-1.4,0.5c-0.6,0.1-1.2,0.2-1.9,0.2
		c-1.8,0-3-0.5-3.9-1.4c-0.8-0.9-1.3-2.3-1.3-4.2c0-1.9,0.4-3.3,1.2-4.2c0.8-1,2-1.5,3.7-1.5C74.1,39.6,75.2,40.1,75.9,41z
		 M69.7,44.4h5.5c0-2.2-0.8-3.3-2.5-3.3C70.8,41.1,69.8,42.2,69.7,44.4z"/>
	<path style="&st2;" d="M226.5,36.1c0.5,0.1,1,0.3,1.4,0.5c0.4,0.2,0.6,0.4,0.6,0.7c0,0.2-0.1,0.4-0.3,0.7c-0.2,0.3-0.3,0.4-0.4,0.4
		c-0.1,0-0.1,0-0.2-0.1s-0.2-0.1-0.2-0.1c-0.7-0.4-1.5-0.6-2.3-0.6s-1.5,0.2-2,0.6c-0.5,0.4-0.7,1-0.7,1.7c0,0.5,0.1,0.9,0.4,1.2
		c0.2,0.3,0.5,0.5,0.9,0.7c0.3,0.2,0.9,0.4,1.6,0.7c0.8,0.3,1.5,0.6,2.1,0.9c0.5,0.3,1,0.7,1.4,1.3c0.4,0.6,0.6,1.3,0.6,2.2
		c0,1.3-0.4,2.3-1.3,3s-2,1.1-3.4,1.1c-0.8,0-1.5-0.1-2.2-0.3c-0.7-0.2-1.2-0.4-1.6-0.6s-0.6-0.5-0.6-0.7c0-0.2,0.1-0.4,0.3-0.7
		c0.2-0.3,0.3-0.4,0.5-0.4c0,0,0.2,0.1,0.4,0.2c0.5,0.3,1,0.5,1.5,0.6s1.1,0.2,1.7,0.2c0.8,0,1.5-0.2,2-0.7c0.5-0.5,0.8-1.1,0.8-1.8
		c0-0.5-0.1-0.9-0.4-1.3s-0.6-0.6-1-0.8c-0.4-0.2-1-0.5-1.7-0.7c-0.8-0.3-1.5-0.6-1.9-0.9c-0.5-0.3-0.9-0.7-1.2-1.2
		c-0.3-0.5-0.5-1.2-0.5-2.1c0-0.8,0.2-1.4,0.6-2s0.9-1,1.6-1.4c0.7-0.3,1.5-0.5,2.4-0.5C225.5,35.9,226,36,226.5,36.1z"/>
	<path style="&st2;" d="M239.5,41c0.7,0.9,1.1,2.3,1.1,4.1c0,0.1-0.1,0.3-0.3,0.5c-0.2,0.2-0.3,0.3-0.4,0.3h-6.6
		c0.1,1.2,0.4,2,0.9,2.6s1.3,0.8,2.3,0.8c0.6,0,1.1-0.1,1.5-0.2c0.4-0.1,0.8-0.3,1.1-0.4c0.3-0.1,0.4-0.2,0.5-0.2
		c0.1,0,0.3,0.1,0.5,0.4c0.2,0.3,0.3,0.5,0.3,0.6c0,0.2-0.2,0.4-0.5,0.6c-0.4,0.2-0.8,0.4-1.4,0.5c-0.6,0.1-1.2,0.2-1.9,0.2
		c-1.8,0-3-0.5-3.9-1.4c-0.8-0.9-1.3-2.3-1.3-4.2c0-1.9,0.4-3.3,1.2-4.2c0.8-1,2-1.5,3.7-1.5C237.7,39.6,238.7,40.1,239.5,41z
		 M233.2,44.5h5.5c0-2.2-0.8-3.3-2.5-3.3C234.4,41.2,233.4,42.3,233.2,44.5z"/>
	<path style="&st2;" d="M248.7,39.9c0.2,0.2,0.3,0.4,0.3,0.6c0,0.2,0,0.5-0.1,0.7c-0.1,0.3-0.2,0.4-0.3,0.4c-0.1,0-0.2,0-0.4-0.1
		c-0.2-0.1-0.5-0.1-0.7-0.1c-0.3,0-0.6,0.1-0.9,0.3c-0.3,0.2-0.5,0.4-0.7,0.6c-0.2,0.2-0.3,0.4-0.3,0.4v7.7c0,0.3-0.3,0.5-0.8,0.5
		h-0.1c-0.6,0-0.8-0.2-0.8-0.5V43c0-0.9,0-1.6-0.1-2s-0.1-0.6-0.1-0.7c0-0.2,0.1-0.3,0.4-0.4c0.3-0.1,0.5-0.1,0.7-0.1
		c0.2,0,0.3,0.1,0.4,0.3c0.1,0.2,0.2,0.4,0.2,0.6c0,0.2,0.1,0.4,0.1,0.4c0.7-1.1,1.6-1.6,2.4-1.6C248.2,39.6,248.5,39.7,248.7,39.9z
		"/>
	<path style="&st2;" d="M259.6,40.1c0,0.1,0,0.2-0.1,0.3l-3.4,10.1c-0.1,0.2-0.4,0.3-0.8,0.3h-0.7c-0.5,0-0.8-0.1-0.8-0.3l-3.4-10.1
		c0-0.1-0.1-0.2-0.1-0.3c0-0.2,0.3-0.4,0.9-0.4h0.1c0.5,0,0.8,0.1,0.8,0.3l2.1,6.7c0.1,0.4,0.4,1.3,0.7,2.6h0.1l0.1-0.6
		c0.2-0.8,0.3-1.5,0.5-2l2.2-6.7c0.1-0.2,0.4-0.3,0.9-0.3h0.1C259.3,39.7,259.6,39.9,259.6,40.1z"/>
	<path style="&st2;" d="M264.1,35.4v1.2c0,0.3-0.3,0.5-0.8,0.5H263c-0.6,0-0.8-0.2-0.8-0.5v-1.2c0-0.3,0.3-0.5,0.8-0.5h0.3
		C263.8,35,264.1,35.1,264.1,35.4z M264,40.2v10.2c0,0.3-0.3,0.5-0.8,0.5h-0.1c-0.6,0-0.8-0.2-0.8-0.5V40.2c0-0.3,0.3-0.5,0.8-0.5
		h0.1C263.7,39.7,264,39.9,264,40.2z"/>
	<path style="&st2;" d="M274.5,39.9c0.6,0.2,1,0.4,1,0.7c0,0.2-0.1,0.4-0.2,0.7s-0.3,0.4-0.4,0.4c0,0-0.1,0-0.1,0c0,0-0.1,0-0.1-0.1
		c-0.8-0.3-1.5-0.5-2.3-0.5c-2,0-3,1.3-3,4c0,1.5,0.2,2.6,0.7,3.2c0.5,0.7,1.3,1,2.5,1c0.9,0,1.6-0.2,2.4-0.5l0.2-0.1
		c0.1,0,0.3,0.1,0.5,0.4c0.2,0.3,0.3,0.5,0.3,0.7c0,0.2-0.2,0.3-0.5,0.5c-0.3,0.2-0.7,0.3-1.2,0.4c-0.5,0.1-1.1,0.2-1.6,0.2
		c-1.7,0-3-0.4-3.9-1.3s-1.3-2.3-1.3-4.3c0-2,0.5-3.4,1.4-4.3c1-0.9,2.1-1.3,3.6-1.3C273.1,39.6,273.8,39.7,274.5,39.9z"/>
	<path style="&st2;" d="M286,41c0.7,0.9,1.1,2.3,1.1,4.1c0,0.1-0.1,0.3-0.3,0.5c-0.2,0.2-0.3,0.3-0.4,0.3h-6.6
		c0.1,1.2,0.4,2,0.9,2.6s1.3,0.8,2.3,0.8c0.6,0,1.1-0.1,1.5-0.2c0.4-0.1,0.8-0.3,1.1-0.4c0.3-0.1,0.4-0.2,0.5-0.2
		c0.1,0,0.3,0.1,0.5,0.4c0.2,0.3,0.3,0.5,0.3,0.6c0,0.2-0.2,0.4-0.5,0.6c-0.4,0.2-0.8,0.4-1.4,0.5c-0.6,0.1-1.2,0.2-1.9,0.2
		c-1.8,0-3-0.5-3.9-1.4c-0.8-0.9-1.3-2.3-1.3-4.2c0-1.9,0.4-3.3,1.2-4.2c0.8-1,2-1.5,3.7-1.5C284.2,39.6,285.3,40.1,286,41z
		 M279.8,44.5h5.5c0-2.2-0.8-3.3-2.5-3.3C280.9,41.2,279.9,42.3,279.8,44.5z"/>
	<path style="&st2;" d="M16.4,245.1c0.5,0.1,1,0.3,1.4,0.5c0.4,0.2,0.6,0.4,0.6,0.7c0,0.2-0.1,0.4-0.3,0.7c-0.2,0.3-0.3,0.4-0.4,0.4
		c-0.1,0-0.1,0-0.2-0.1s-0.2-0.1-0.2-0.1c-0.7-0.4-1.5-0.6-2.3-0.6s-1.5,0.2-2,0.6c-0.5,0.4-0.7,1-0.7,1.7c0,0.5,0.1,0.9,0.4,1.2
		c0.2,0.3,0.5,0.5,0.9,0.7c0.3,0.2,0.9,0.4,1.6,0.7c0.8,0.3,1.5,0.6,2.1,0.9c0.5,0.3,1,0.7,1.4,1.3c0.4,0.6,0.6,1.3,0.6,2.2
		c0,1.3-0.4,2.3-1.3,3s-2,1.1-3.4,1.1c-0.8,0-1.5-0.1-2.2-0.3c-0.7-0.2-1.2-0.4-1.6-0.6s-0.6-0.5-0.6-0.7c0-0.2,0.1-0.4,0.3-0.7
		c0.2-0.3,0.3-0.4,0.5-0.4c0,0,0.2,0.1,0.4,0.2c0.5,0.3,1,0.5,1.5,0.6s1.1,0.2,1.7,0.2c0.8,0,1.5-0.2,2-0.7c0.5-0.5,0.8-1.1,0.8-1.8
		c0-0.5-0.1-0.9-0.4-1.3s-0.6-0.6-1-0.8c-0.4-0.2-1-0.5-1.7-0.7c-0.8-0.3-1.5-0.6-1.9-0.9c-0.5-0.3-0.9-0.7-1.2-1.2
		c-0.3-0.5-0.5-1.2-0.5-2.1c0-0.8,0.2-1.4,0.6-2s0.9-1,1.6-1.4c0.7-0.3,1.5-0.5,2.4-0.5C15.4,244.9,15.9,244.9,16.4,245.1z"/>
	<path style="&st2;" d="M29.3,250c0.7,0.9,1.1,2.3,1.1,4.1c0,0.1-0.1,0.3-0.3,0.5c-0.2,0.2-0.3,0.3-0.4,0.3h-6.6
		c0.1,1.2,0.4,2,0.9,2.6s1.3,0.8,2.3,0.8c0.6,0,1.1-0.1,1.5-0.2c0.4-0.1,0.8-0.3,1.1-0.4c0.3-0.1,0.4-0.2,0.5-0.2
		c0.1,0,0.3,0.1,0.5,0.4c0.2,0.3,0.3,0.5,0.3,0.6c0,0.2-0.2,0.4-0.5,0.6c-0.4,0.2-0.8,0.4-1.4,0.5c-0.6,0.1-1.2,0.2-1.9,0.2
		c-1.8,0-3-0.5-3.9-1.4c-0.8-0.9-1.3-2.3-1.3-4.2c0-1.9,0.4-3.3,1.2-4.2c0.8-1,2-1.5,3.7-1.5C27.5,248.6,28.6,249.1,29.3,250z
		 M23.1,253.4h5.5c0-2.2-0.8-3.3-2.5-3.3C24.2,250.1,23.3,251.2,23.1,253.4z"/>
	<path style="&st2;" d="M38.6,248.8c0.2,0.2,0.3,0.4,0.3,0.6c0,0.2,0,0.5-0.1,0.7c-0.1,0.3-0.2,0.4-0.3,0.4c-0.1,0-0.2,0-0.4-0.1
		c-0.2-0.1-0.5-0.1-0.7-0.1c-0.3,0-0.6,0.1-0.9,0.3c-0.3,0.2-0.5,0.4-0.7,0.6c-0.2,0.2-0.3,0.4-0.3,0.4v7.7c0,0.3-0.3,0.5-0.8,0.5
		h-0.1c-0.6,0-0.8-0.2-0.8-0.5v-7.4c0-0.9,0-1.6-0.1-2s-0.1-0.6-0.1-0.7c0-0.2,0.1-0.3,0.4-0.4c0.3-0.1,0.5-0.1,0.7-0.1
		c0.2,0,0.3,0.1,0.4,0.3c0.1,0.2,0.2,0.4,0.2,0.6c0,0.2,0.1,0.4,0.1,0.4c0.7-1.1,1.6-1.6,2.4-1.6C38,248.6,38.3,248.7,38.6,248.8z"
		/>
	<path style="&st2;" d="M49.5,249c0,0.1,0,0.2-0.1,0.3L46,259.4c-0.1,0.2-0.4,0.3-0.8,0.3h-0.7c-0.5,0-0.8-0.1-0.8-0.3l-3.4-10.1
		c0-0.1-0.1-0.2-0.1-0.3c0-0.2,0.3-0.4,0.9-0.4h0.1c0.5,0,0.8,0.1,0.8,0.3l2.1,6.7c0.1,0.4,0.4,1.3,0.7,2.6H45l0.1-0.6
		c0.2-0.8,0.3-1.5,0.5-2l2.2-6.7c0.1-0.2,0.4-0.3,0.9-0.3h0.1C49.2,248.7,49.5,248.8,49.5,249z"/>
	<path style="&st2;" d="M54,244.4v1.2c0,0.3-0.3,0.5-0.8,0.5h-0.3c-0.6,0-0.8-0.2-0.8-0.5v-1.2c0-0.3,0.3-0.5,0.8-0.5h0.3
		C53.7,243.9,54,244.1,54,244.4z M53.9,249.1v10.2c0,0.3-0.3,0.5-0.8,0.5H53c-0.6,0-0.8-0.2-0.8-0.5v-10.2c0-0.3,0.3-0.5,0.8-0.5
		h0.1C53.6,248.7,53.9,248.8,53.9,249.1z"/>
	<path style="&st2;" d="M64.4,248.9c0.6,0.2,1,0.4,1,0.7c0,0.2-0.1,0.4-0.2,0.7s-0.3,0.4-0.4,0.4c0,0-0.1,0-0.1,0c0,0-0.1,0-0.1-0.1
		c-0.8-0.3-1.5-0.5-2.3-0.5c-2,0-3,1.3-3,4c0,1.5,0.2,2.6,0.7,3.2c0.5,0.7,1.3,1,2.5,1c0.9,0,1.6-0.2,2.4-0.5l0.2-0.1
		c0.1,0,0.3,0.1,0.5,0.4c0.2,0.3,0.3,0.5,0.3,0.7c0,0.2-0.2,0.3-0.5,0.5c-0.3,0.2-0.7,0.3-1.2,0.4c-0.5,0.1-1.1,0.2-1.6,0.2
		c-1.7,0-3-0.4-3.9-1.3s-1.3-2.3-1.3-4.3c0-2,0.5-3.4,1.4-4.3c1-0.9,2.1-1.3,3.6-1.3C63,248.6,63.7,248.7,64.4,248.9z"/>
	<path style="&st2;" d="M75.9,250c0.7,0.9,1.1,2.3,1.1,4.1c0,0.1-0.1,0.3-0.3,0.5c-0.2,0.2-0.3,0.3-0.4,0.3h-6.6
		c0.1,1.2,0.4,2,0.9,2.6s1.3,0.8,2.3,0.8c0.6,0,1.1-0.1,1.5-0.2c0.4-0.1,0.8-0.3,1.1-0.4c0.3-0.1,0.4-0.2,0.5-0.2
		c0.1,0,0.3,0.1,0.5,0.4c0.2,0.3,0.3,0.5,0.3,0.6c0,0.2-0.2,0.4-0.5,0.6c-0.4,0.2-0.8,0.4-1.4,0.5c-0.6,0.1-1.2,0.2-1.9,0.2
		c-1.8,0-3-0.5-3.9-1.4c-0.8-0.9-1.3-2.3-1.3-4.2c0-1.9,0.4-3.3,1.2-4.2c0.8-1,2-1.5,3.7-1.5C74.1,248.6,75.2,249.1,75.9,250z
		 M69.7,253.4h5.5c0-2.2-0.8-3.3-2.5-3.3C70.8,250.1,69.8,251.2,69.7,253.4z"/>
	<path style="&st2;" d="M226.5,245.1c0.5,0.1,1,0.3,1.4,0.5c0.4,0.2,0.6,0.4,0.6,0.7c0,0.2-0.1,0.4-0.3,0.7
		c-0.2,0.3-0.3,0.4-0.4,0.4c-0.1,0-0.1,0-0.2-0.1s-0.2-0.1-0.2-0.1c-0.7-0.4-1.5-0.6-2.3-0.6s-1.5,0.2-2,0.6c-0.5,0.4-0.7,1-0.7,1.7
		c0,0.5,0.1,0.9,0.4,1.2c0.2,0.3,0.5,0.5,0.9,0.7c0.3,0.2,0.9,0.4,1.6,0.7c0.8,0.3,1.5,0.6,2.1,0.9c0.5,0.3,1,0.7,1.4,1.3
		c0.4,0.6,0.6,1.3,0.6,2.2c0,1.3-0.4,2.3-1.3,3s-2,1.1-3.4,1.1c-0.8,0-1.5-0.1-2.2-0.3c-0.7-0.2-1.2-0.4-1.6-0.6s-0.6-0.5-0.6-0.7
		c0-0.2,0.1-0.4,0.3-0.7c0.2-0.3,0.3-0.4,0.5-0.4c0,0,0.2,0.1,0.4,0.2c0.5,0.3,1,0.5,1.5,0.6s1.1,0.2,1.7,0.2c0.8,0,1.5-0.2,2-0.7
		c0.5-0.5,0.8-1.1,0.8-1.8c0-0.5-0.1-0.9-0.4-1.3s-0.6-0.6-1-0.8c-0.4-0.2-1-0.5-1.7-0.7c-0.8-0.3-1.5-0.6-1.9-0.9
		c-0.5-0.3-0.9-0.7-1.2-1.2c-0.3-0.5-0.5-1.2-0.5-2.1c0-0.8,0.2-1.4,0.6-2s0.9-1,1.6-1.4c0.7-0.3,1.5-0.5,2.4-0.5
		C225.5,244.9,226,245,226.5,245.1z"/>
	<path style="&st2;" d="M239.5,250c0.7,0.9,1.1,2.3,1.1,4.1c0,0.1-0.1,0.3-0.3,0.5c-0.2,0.2-0.3,0.3-0.4,0.3h-6.6
		c0.1,1.2,0.4,2,0.9,2.6s1.3,0.8,2.3,0.8c0.6,0,1.1-0.1,1.5-0.2c0.4-0.1,0.8-0.3,1.1-0.4c0.3-0.1,0.4-0.2,0.5-0.2
		c0.1,0,0.3,0.1,0.5,0.4c0.2,0.3,0.3,0.5,0.3,0.6c0,0.2-0.2,0.4-0.5,0.6c-0.4,0.2-0.8,0.4-1.4,0.5c-0.6,0.1-1.2,0.2-1.9,0.2
		c-1.8,0-3-0.5-3.9-1.4c-0.8-0.9-1.3-2.3-1.3-4.2c0-1.9,0.4-3.3,1.2-4.2c0.8-1,2-1.5,3.7-1.5C237.7,248.6,238.7,249.1,239.5,250z
		 M233.2,253.5h5.5c0-2.2-0.8-3.3-2.5-3.3C234.4,250.2,233.4,251.3,233.2,253.5z"/>
	<path style="&st2;" d="M248.7,248.9c0.2,0.2,0.3,0.4,0.3,0.6c0,0.2,0,0.5-0.1,0.7c-0.1,0.3-0.2,0.4-0.3,0.4c-0.1,0-0.2,0-0.4-0.1
		c-0.2-0.1-0.5-0.1-0.7-0.1c-0.3,0-0.6,0.1-0.9,0.3c-0.3,0.2-0.5,0.4-0.7,0.6c-0.2,0.2-0.3,0.4-0.3,0.4v7.7c0,0.3-0.3,0.5-0.8,0.5
		h-0.1c-0.6,0-0.8-0.2-0.8-0.5V252c0-0.9,0-1.6-0.1-2s-0.1-0.6-0.1-0.7c0-0.2,0.1-0.3,0.4-0.4c0.3-0.1,0.5-0.1,0.7-0.1
		c0.2,0,0.3,0.1,0.4,0.3c0.1,0.2,0.2,0.4,0.2,0.6c0,0.2,0.1,0.4,0.1,0.4c0.7-1.1,1.6-1.6,2.4-1.6
		C248.2,248.6,248.5,248.7,248.7,248.9z"/>
	<path style="&st2;" d="M259.6,249.1c0,0.1,0,0.2-0.1,0.3l-3.4,10.1c-0.1,0.2-0.4,0.3-0.8,0.3h-0.7c-0.5,0-0.8-0.1-0.8-0.3
		l-3.4-10.1c0-0.1-0.1-0.2-0.1-0.3c0-0.2,0.3-0.4,0.9-0.4h0.1c0.5,0,0.8,0.1,0.8,0.3l2.1,6.7c0.1,0.4,0.4,1.3,0.7,2.6h0.1l0.1-0.6
		c0.2-0.8,0.3-1.5,0.5-2l2.2-6.7c0.1-0.2,0.4-0.3,0.9-0.3h0.1C259.3,248.7,259.6,248.9,259.6,249.1z"/>
	<path style="&st2;" d="M264.1,244.4v1.2c0,0.3-0.3,0.5-0.8,0.5H263c-0.6,0-0.8-0.2-0.8-0.5v-1.2c0-0.3,0.3-0.5,0.8-0.5h0.3
		C263.8,244,264.1,244.1,264.1,244.4z M264,249.2v10.2c0,0.3-0.3,0.5-0.8,0.5h-0.1c-0.6,0-0.8-0.2-0.8-0.5v-10.2
		c0-0.3,0.3-0.5,0.8-0.5h0.1C263.7,248.7,264,248.9,264,249.2z"/>
	<path style="&st2;" d="M274.5,248.9c0.6,0.2,1,0.4,1,0.7c0,0.2-0.1,0.4-0.2,0.7s-0.3,0.4-0.4,0.4c0,0-0.1,0-0.1,0
		c0,0-0.1,0-0.1-0.1c-0.8-0.3-1.5-0.5-2.3-0.5c-2,0-3,1.3-3,4c0,1.5,0.2,2.6,0.7,3.2c0.5,0.7,1.3,1,2.5,1c0.9,0,1.6-0.2,2.4-0.5
		l0.2-0.1c0.1,0,0.3,0.1,0.5,0.4c0.2,0.3,0.3,0.5,0.3,0.7c0,0.2-0.2,0.3-0.5,0.5c-0.3,0.2-0.7,0.3-1.2,0.4c-0.5,0.1-1.1,0.2-1.6,0.2
		c-1.7,0-3-0.4-3.9-1.3s-1.3-2.3-1.3-4.3c0-2,0.5-3.4,1.4-4.3c1-0.9,2.1-1.3,3.6-1.3C273.1,248.6,273.8,248.7,274.5,248.9z"/>
	<path style="&st2;" d="M286,250c0.7,0.9,1.1,2.3,1.1,4.1c0,0.1-0.1,0.3-0.3,0.5c-0.2,0.2-0.3,0.3-0.4,0.3h-6.6
		c0.1,1.2,0.4,2,0.9,2.6s1.3,0.8,2.3,0.8c0.6,0,1.1-0.1,1.5-0.2c0.4-0.1,0.8-0.3,1.1-0.4c0.3-0.1,0.4-0.2,0.5-0.2
		c0.1,0,0.3,0.1,0.5,0.4c0.2,0.3,0.3,0.5,0.3,0.6c0,0.2-0.2,0.4-0.5,0.6c-0.4,0.2-0.8,0.4-1.4,0.5c-0.6,0.1-1.2,0.2-1.9,0.2
		c-1.8,0-3-0.5-3.9-1.4c-0.8-0.9-1.3-2.3-1.3-4.2c0-1.9,0.4-3.3,1.2-4.2c0.8-1,2-1.5,3.7-1.5C284.2,248.6,285.3,249.1,286,250z
		 M279.8,253.5h5.5c0-2.2-0.8-3.3-2.5-3.3C280.9,250.2,279.9,251.3,279.8,253.5z"/>
	<circle style="&st3;" cx="154.1" cy="149.4" r="43.5"/>
	<path style="&st1;" d="M196.1,149.4c-0.3,17.5-11,33.5-27.6,39.5c-16.3,5.9-35,1-46.2-12.2c-11.5-13.4-13.3-33.2-4.3-48.5
		c8.9-15.2,26.8-23.4,44.1-20.1C181.7,111.9,195.7,129.4,196.1,149.4c0,1.9,3,1.9,3,0c-0.3-18.8-11.9-35.9-29.8-42.3
		c-17.7-6.4-38.1-0.6-50,14c-11.8,14.6-13.4,35.6-3.6,51.6c9.7,16,28.8,24.4,47.1,20.9c21.1-4.1,36-22.9,36.3-44.1
		C199.1,147.4,196.1,147.4,196.1,149.4z"/>
	<path style="&st2;" d="M142.1,139.9l4.8,13.6c0,0.1,0.1,0.2,0.1,0.3c0,0.3-0.3,0.4-1,0.4h-0.7c-0.6,0-1-0.1-1.1-0.4l-1-2.9h-5.4
		l-1,2.9c-0.1,0.3-0.4,0.4-0.9,0.4h-0.6c-0.8,0-1.2-0.1-1.2-0.4c0,0,0-0.2,0.1-0.4l4.8-13.6c0.1-0.3,0.5-0.4,1.1-0.4h0.9
		C141.6,139.5,142,139.6,142.1,139.9z M140.5,142.7c0,0.1,0,0.2-0.1,0.5c0,0.3-0.1,0.5-0.2,0.8l-1.6,4.7h3.8l-1.6-4.7
		C140.8,143.7,140.7,143.2,140.5,142.7L140.5,142.7z"/>
	<path style="&st2;" d="M156.5,143.8c0.6,0.5,1.1,1.1,1.4,2c0.3,0.9,0.5,1.9,0.5,3c0,1.8-0.4,3.1-1.2,4.1s-1.9,1.5-3.2,1.5
		c-0.9,0-1.7-0.3-2.4-0.8v4.4c0,0.4-0.4,0.6-1.1,0.6H150c-0.7,0-1.1-0.2-1.1-0.6v-11.2c0-0.9,0-1.6-0.1-2c-0.1-0.4-0.1-0.7-0.1-0.8
		c0-0.2,0.2-0.3,0.7-0.5s0.9-0.2,1.2-0.2c0.2,0,0.4,0.1,0.5,0.3s0.2,0.4,0.2,0.6c0,0.2,0.1,0.4,0.1,0.5c0.3-0.5,0.8-0.9,1.3-1.2
		c0.5-0.3,1.1-0.4,1.7-0.4C155.2,143.1,155.9,143.3,156.5,143.8z M152.5,145.6c-0.4,0.2-0.7,0.6-1,1v5.1c0.5,0.4,1.2,0.6,1.9,0.6
		c1.5,0,2.3-1.2,2.3-3.4c0-1.1-0.2-2-0.5-2.6c-0.3-0.6-0.8-0.9-1.5-0.9C153.3,145.3,152.9,145.4,152.5,145.6z"/>
	<path style="&st2;" d="M168.8,143.8c0.6,0.5,1.1,1.1,1.4,2c0.3,0.9,0.5,1.9,0.5,3c0,1.8-0.4,3.1-1.2,4.1s-1.9,1.5-3.2,1.5
		c-0.9,0-1.7-0.3-2.4-0.8v4.4c0,0.4-0.4,0.6-1.1,0.6h-0.4c-0.7,0-1.1-0.2-1.1-0.6v-11.2c0-0.9,0-1.6-0.1-2c-0.1-0.4-0.1-0.7-0.1-0.8
		c0-0.2,0.2-0.3,0.7-0.5s0.9-0.2,1.2-0.2c0.2,0,0.4,0.1,0.5,0.3s0.2,0.4,0.2,0.6c0,0.2,0.1,0.4,0.1,0.5c0.3-0.5,0.8-0.9,1.3-1.2
		c0.5-0.3,1.1-0.4,1.7-0.4C167.5,143.1,168.2,143.3,168.8,143.8z M164.9,145.6c-0.4,0.2-0.7,0.6-1,1v5.1c0.5,0.4,1.2,0.6,1.9,0.6
		c1.5,0,2.3-1.2,2.3-3.4c0-1.1-0.2-2-0.5-2.6c-0.3-0.6-0.8-0.9-1.5-0.9C165.6,145.3,165.2,145.4,164.9,145.6z"/>
	<path style="&st0;" d="M54,14.5c5.7,0.5,10.7,3.6,13.8,8.4c0.8-0.6,1.6-1.2,2.4-1.8c-4.1-4.3-8.8-8.2-15.1-7.8
		c-1.3,0.1-2.2,2.1-0.8,2.8c3.9,1.8,7,4.5,9,8.3c0.9,1.7,3.5,0.2,2.6-1.5c-2.3-4.2-5.7-7.5-10.1-9.4c-0.3,0.9-0.5,1.9-0.8,2.8
		c5.5-0.3,9.4,3.2,13,6.9c1.2,1.2,3.3-0.4,2.4-1.8c-3.7-5.8-9.6-9.3-16.4-9.9C52.1,11.4,52.1,14.4,54,14.5z"/>
	<path style="&st0;" d="M16.6,64.6c4.4,9.9,14.9,13.2,24.8,14.9c1.6,0.3,2.6-1.8,1.2-2.7c-5-3.3-10-6.6-15.1-9.9
		c-1.3-0.9-2.7,0.8-2.1,2.1c1.3,2.4,2.8,4.3,4.8,6.1c0.5-0.8,1-1.7,1.5-2.5c-6.4-1.4-9.6-7.1-12.4-12.5c-0.9-1.7-3.5-0.2-2.6,1.5
		C20,67.7,23.7,73.8,31,75.4c1.4,0.3,2.6-1.5,1.5-2.5c-1.8-1.6-3.2-3.3-4.4-5.5c-0.7,0.7-1.4,1.4-2.1,2.1c5,3.3,10,6.6,15.1,9.9
		c0.4-0.9,0.8-1.8,1.2-2.7c-9.2-1.6-18.9-4.2-23-13.5C18.4,61.3,15.8,62.9,16.6,64.6z"/>
	<path style="&st0;" d="M264.1,14.6c5.7,0.5,10.7,3.6,13.8,8.4c0.8-0.6,1.6-1.2,2.4-1.8c-4.1-4.3-8.8-8.2-15.1-7.8
		c-1.3,0.1-2.2,2.1-0.8,2.8c3.9,1.8,7,4.5,9,8.3c0.9,1.7,3.5,0.2,2.6-1.5c-2.3-4.2-5.7-7.5-10.1-9.4c-0.3,0.9-0.5,1.9-0.8,2.8
		c5.5-0.3,9.4,3.2,13,6.9c1.2,1.2,3.3-0.4,2.4-1.8c-3.7-5.8-9.6-9.3-16.4-9.9C262.2,11.4,262.2,14.4,264.1,14.6z"/>
	<path style="&st0;" d="M226.7,63.7c4.4,9.9,14.9,13.2,24.8,14.9c1.6,0.3,2.6-1.8,1.2-2.7c-5-3.3-10-6.6-15.1-9.9
		c-1.3-0.9-2.7,0.8-2.1,2.1c1.3,2.4,2.8,4.3,4.8,6.1c0.5-0.8,1-1.7,1.5-2.5c-6.4-1.4-9.6-7.1-12.4-12.5c-0.9-1.7-3.5-0.2-2.6,1.5
		c3.2,6.2,6.9,12.3,14.2,13.9c1.4,0.3,2.6-1.5,1.5-2.5c-1.8-1.6-3.2-3.3-4.4-5.5c-0.7,0.7-1.4,1.4-2.1,2.1c5,3.3,10,6.6,15.1,9.9
		c0.4-0.9,0.8-1.8,1.2-2.7c-9.2-1.6-18.9-4.2-23-13.5C228.5,60.4,226,61.9,226.7,63.7z"/>
	<path style="&st0;" d="M54,223.5c5.7,0.5,10.7,3.6,13.8,8.4c0.8-0.6,1.6-1.2,2.4-1.8c-4.1-4.3-8.8-8.2-15.1-7.8
		c-1.3,0.1-2.2,2.1-0.8,2.8c3.9,1.8,7,4.5,9,8.3c0.9,1.7,3.5,0.2,2.6-1.5c-2.3-4.2-5.7-7.5-10.1-9.4c-0.3,0.9-0.5,1.9-0.8,2.8
		c5.5-0.3,9.4,3.2,13,6.9c1.2,1.2,3.3-0.4,2.4-1.8c-3.7-5.8-9.6-9.3-16.4-9.9C52.1,220.4,52.1,223.4,54,223.5z"/>
	<path style="&st0;" d="M16.6,273.6c4.4,9.9,14.9,13.2,24.8,14.9c1.6,0.3,2.6-1.8,1.2-2.7c-5-3.3-10-6.6-15.1-9.9
		c-1.3-0.9-2.7,0.8-2.1,2.1c1.3,2.4,2.8,4.3,4.8,6.1c0.5-0.8,1-1.7,1.5-2.5c-6.4-1.4-9.6-7.1-12.4-12.5c-0.9-1.7-3.5-0.2-2.6,1.5
		c3.2,6.2,6.9,12.3,14.2,13.9c1.4,0.3,2.6-1.5,1.5-2.5c-1.8-1.6-3.2-3.3-4.4-5.5c-0.7,0.7-1.4,1.4-2.1,2.1c5,3.3,10,6.6,15.1,9.9
		c0.4-0.9,0.8-1.8,1.2-2.7c-9.2-1.6-18.9-4.2-23-13.5C18.4,270.3,15.8,271.9,16.6,273.6z"/>
	<path style="&st0;" d="M264.1,223.6c5.7,0.5,10.7,3.6,13.8,8.4c0.8-0.6,1.6-1.2,2.4-1.8c-4.1-4.3-8.8-8.2-15.1-7.8
		c-1.3,0.1-2.2,2.1-0.8,2.8c3.9,1.8,7,4.5,9,8.3c0.9,1.7,3.5,0.2,2.6-1.5c-2.3-4.2-5.7-7.5-10.1-9.4c-0.3,0.9-0.5,1.9-0.8,2.8
		c5.5-0.3,9.4,3.2,13,6.9c1.2,1.2,3.3-0.4,2.4-1.8c-3.7-5.8-9.6-9.3-16.4-9.9C262.2,220.4,262.2,223.4,264.1,223.6z"/>
	<path style="&st0;" d="M226.7,273.7c4.4,9.9,14.9,13.2,24.8,14.9c1.6,0.3,2.6-1.8,1.2-2.7c-5-3.3-10-6.6-15.1-9.9
		c-1.3-0.9-2.7,0.8-2.1,2.1c1.3,2.4,2.8,4.3,4.8,6.1c0.5-0.8,1-1.7,1.5-2.5c-6.4-1.4-9.6-7.1-12.4-12.5c-0.9-1.7-3.5-0.2-2.6,1.5
		c3.2,6.2,6.9,12.3,14.2,13.9c1.4,0.3,2.6-1.5,1.5-2.5c-1.8-1.6-3.2-3.3-4.4-5.5c-0.7,0.7-1.4,1.4-2.1,2.1c5,3.3,10,6.6,15.1,9.9
		c0.4-0.9,0.8-1.8,1.2-2.7c-9.2-1.6-18.9-4.2-23-13.5C228.5,270.4,226,271.9,226.7,273.7z"/>
	<path style="&st0;" d="M133.7,175c-1.9-2.8-3.8-5.7-5.6-8.5c-1.1-1.6-3.4-0.2-2.6,1.5c1.8,4,5.5,6.9,9.8,7.7
		c1.9,0.3,2.7-2.5,0.8-2.9c-3.6-0.7-6.5-2.9-8-6.3c-0.9,0.5-1.7,1-2.6,1.5c1.9,2.8,3.8,5.7,5.6,8.5
		C132.2,178.1,134.8,176.6,133.7,175z"/>
	<path style="&st0;" d="M166.8,121.8c7.9,6.7,16.4,14.3,15.8,25.5c-0.1,2,2.8,1.9,3,0c1.4-13.7-8-25-21.5-26.8c-1.9-0.2-1.9,2.8,0,3
		c11.9,1.6,19.7,12,18.5,23.8c1,0,2,0,3,0c0.6-12.1-8.2-20.5-16.7-27.7C167.5,118.4,165.3,120.5,166.8,121.8z"/>
</g>
<g id="Layer_1">
</g>
</svg>
