<?xml version="1.0" encoding="utf-8"?>
<!-- Generator: Adobe Illustrator 21.1.0, SVG Export Plug-In . SVG Version: 6.00 Build 0)  -->
<!DOCTYPE svg PUBLIC "-//W3C//DTD SVG 1.1//EN" "http://www.w3.org/Graphics/SVG/1.1/DTD/svg11.dtd" [
	<!ENTITY st0 "fill:#FFFFFF;">
	<!ENTITY st1 "fill:#727F9B;">
	<!ENTITY st2 "fill:#515A6D;">
	<!ENTITY st3 "fill:#D0DAED;">
	<!ENTITY st4 "fill:#E58231;">
	<!ENTITY st5 "fill:#F5CCB1;">
	<!ENTITY st6 "fill:#A1C14D;">
	<!ENTITY st7 "fill:#D0DEA4;">
	<!ENTITY st8 "fill:#F49F60;">
	<!ENTITY st9 "fill:#E58231;stroke:#FFFFFF;stroke-miterlimit:10;">
	<!ENTITY st10 "fill:#FF00FF;">
]>
<svg version="1.1" xmlns="http://www.w3.org/2000/svg" xmlns:xlink="http://www.w3.org/1999/xlink" x="0px" y="0px"
	 viewBox="0 0 436.3 436.3" style="enable-background:new 0 0 436.3 436.3;" xml:space="preserve">
<g id="working_artboard">
</g>
<g id="Layer_1">
	<circle id="circle" style="&st0;" cx="218.2" cy="218.2" r="216.8"/>
	<path id="circle-stroke" style="&st1;" d="M433.5,218.2c-0.1,44.5-13.9,88.2-39.6,124.5c-25.2,35.6-61.3,63.1-102.3,78
		c-42.4,15.4-89.5,17-132.8,4.5c-41.8-12-79.3-36.8-106.9-70.3c-57.4-69.6-64.7-170.9-18-248.1C56.2,69.8,89.7,40,129,22.1
		c41.3-18.8,88.4-24,132.8-14.8c86.5,17.8,155,89.4,169,176.7C432.6,195.2,433.5,206.7,433.5,218.2c0,1.8,2.9,1.8,2.9,0
		c-0.1-45.2-14.1-89.7-40.4-126.5c-25.4-35.6-61.3-63.1-102.3-78.3c-43-15.9-90.9-17.7-135-5.2c-42.5,12-80.8,37.2-108.9,71.2
		C21.5,113.7,4.2,156.3,0.7,200.7C-2.9,246,7.8,292,31.4,330.9c22.7,37.6,56.8,68,96.9,86.1c41.4,18.7,88.4,24,133,15.1
		c43.5-8.7,83.8-30.9,114.4-62.9c30.8-32.1,51.3-73.4,58.1-117.4c1.7-11.1,2.6-22.4,2.6-33.6C436.4,216.3,433.5,216.3,433.5,218.2z"
		/>
	<path id="connection-lines" style="&st1;" d="M268.8,312.4c-6.7-3.7-13.5-7.3-20.3-10.8c-6.8-3.5-13.8-6.7-20.7-9.9
		c-3.5-1.6-6.9-3.2-10.5-4.8c-3.5-1.6-7.1-3-10.6-4.5c-7.1-3-14.1-6.1-20.9-9.6c-6.8-3.5-13.3-7.7-20-11.3c-2.4-1.3-4.8-2.5-7.2-3.7
		c6.5-2.3,13-4.3,19.7-6.1c3.7-1,7.4-2,11.1-3.1c3.7-1.1,7.3-2.2,11-3.3c7.3-2.3,14.6-4.5,21.9-7.1c7.2-2.6,14.4-5.2,21.5-8.1
		c7.1-2.8,14.2-5.8,21.2-9.1l-0.2-0.5c-7.5,1.6-14.9,3.6-22.3,5.7c-7.4,2.1-14.7,4.3-22,6.7c-7.3,2.4-14.5,5-21.6,7.7
		c-3.6,1.3-7.2,2.6-10.8,4c-3.6,1.4-7.1,2.9-10.7,4.3c-6.9,2.8-13.8,5.4-20.9,7.7c-0.3-0.1-0.6-0.3-0.9-0.4l3.6-3.5
		c2.8-2.6,5.4-5.4,8-8.2c5.2-5.6,10-11.6,15.4-17.1c5.3-5.5,10.9-10.7,16.7-15.8c2.9-2.5,5.8-5.1,8.6-7.6c2.8-2.6,5.6-5.2,8.4-7.8
		c5.6-5.3,11.1-10.5,16.5-16c5.4-5.5,10.6-11,15.8-16.7c5.1-5.7,10.2-11.4,15-17.5l-0.4-0.4c-6,4.8-11.8,9.8-17.5,15
		c-5.7,5.1-11.3,10.4-16.8,15.7c-5.5,5.3-10.8,10.9-16.1,16.4c-2.6,2.8-5.3,5.5-7.9,8.4c-2.6,2.8-5.1,5.7-7.7,8.6
		c-5.1,5.7-10.3,11.3-15.9,16.6c-5.5,5.3-11.5,10.1-17.2,15.3c-2.8,2.6-5.6,5.2-8.2,8l-4,4.1l-0.6,0.6l-1.1-0.5l-5.2-2.4
		c-6.1-2.7-12.2-5.3-18.5-7.6c-4.3-3.9-8.7-7.7-13.4-11.3l-0.4,0.4c4.7,6.1,9.8,11.8,15,17.5l3.9,4.2l4,4.1c1,1,2,2,3,3
		c-1.7,0.5-3.4,0.9-5,1.4c-3.7,1.1-7.3,2.2-10.9,3.6l-5.4,1.9l-5.4,2c-7.1,2.8-14.3,5.6-21.2,9l0.2,0.5c7.6-1.5,15-3.6,22.3-5.7
		l5.5-1.7l5.5-1.8c3.7-1.1,7.3-2.4,10.8-3.8c2.2-0.8,4.4-1.7,6.5-2.7c0.1,0.1,0.2,0.2,0.3,0.3c-3,3.4-6,6.9-8.8,10.5l0.4,0.4
		c3.7-2.8,7.2-5.8,10.6-8.8c5.6,5.2,11.5,10,17,15.2c5.5,5.3,10.7,10.9,15.8,16.7c2.5,2.9,5.1,5.8,7.6,8.6c2.6,2.8,5.2,5.6,7.8,8.4
		c5.3,5.6,10.5,11.1,16,16.5c5.5,5.4,11,10.6,16.7,15.8c5.7,5.1,11.4,10.2,17.5,15l0.4-0.4c-4.8-6-9.8-11.8-15-17.5
		c-5.1-5.7-10.4-11.3-15.7-16.8c-5.3-5.5-10.9-10.8-16.4-16.1c-2.8-2.6-5.5-5.3-8.4-7.9c-2.8-2.6-5.7-5.1-8.6-7.7
		c-5.7-5.1-11.3-10.3-16.6-15.9c-5.2-5.4-9.9-11.3-15-16.9c1.2-1.1,2.5-2.2,3.7-3.4l0.1-0.1c0.6-0.2,1.1-0.4,1.7-0.7l0.8,0.4
		c3.4,1.8,6.9,3.4,10.4,5c7,3.1,14.2,5.7,21.2,9c6.9,3.2,13.7,6.9,20.3,10.7c3.3,1.9,6.6,3.8,10,5.7c3.4,1.9,6.7,3.6,10.1,5.4
		c6.8,3.6,13.6,7.1,20.5,10.4c6.9,3.3,13.9,6.5,20.9,9.5c7,3,14.1,6,21.4,8.6l0.2-0.5C282.1,319.9,275.5,316.1,268.8,312.4z
		 M139,255.5l-4.1-4l-3.7-3.4c4,2.4,8.1,4.7,12.2,6.9l5,2.7l-0.2,0.2c-0.5,0.6-1.1,1.2-1.6,1.8c-0.9,0.2-1.8,0.5-2.7,0.7
		C142.3,258.7,140.7,257.1,139,255.5z"/>
	<path id="connector_2_" style="&st1;" d="M285.2,311.6c-36.1-17.6-72.2-35.2-108.3-52.8c-0.2,1.2-0.3,2.3-0.5,3.5
		c19.2-6.6,38.4-13.2,57.7-19.9c5-1.7,10-3.5,15.1-5.2c3.8-1.3,8.4-2.2,11.8-4.4c3.3-2.2,4.7-6.3,3.7-10.1c-0.9-3.7-3.8-6.8-7.6-7.4
		c-3.5-0.5-6.9,1.2-10.1,2.3c-5,1.7-10,3.4-14.9,5.1c-19.3,6.6-38.6,13.3-57.9,19.9c0.6,1.1,1.2,2.1,1.9,3.2
		c16.6-16.6,33.2-33.2,49.8-49.8c8.3-8.3,16.5-16.5,24.8-24.8c4-4,7.9-7.9,11.9-11.9c3.6-3.6,8.5-7.3,11.3-11.6
		c2.9-4.5,1-10.4-3.5-13.2c-6.5-4.1-11.3,1.1-15.7,5.5c-16.6,16.6-33.1,33.1-49.7,49.7c-18.8,18.8-37.7,37.7-56.5,56.5
		c0.8-0.1,1.6-0.2,2.3-0.3c-5.1-2.5-10.2-5-15.4-7.5c-2.4-1.2-4.2-2.1-6.8-2.5c-4.6-0.6-9.1-1.3-13.7-1.9c-1.1-0.2-1.9,0.3-2.4,1.3
		c-1.7,4.3-3.1,8.8,0.4,12.6c2.3,2.6,6,3.7,8.9,5.2c4.3,2.1,8.6,4.2,13,6.3c0.2-1.2,0.3-2.3,0.5-3.5c-7.9,2.7-15.8,5.4-23.7,8.2
		c-6.8,2.3-14.6,4-21,7.3c-4.7,2.4-8.9,6.7-13.1,9.8c-0.6,0.5-1.2,1.3-0.9,2.2c1.5,3.5,3,7.1,6.8,8.6c5.2,2,11.6-1.8,16.4-3.5
		c14.5-5,29-10,43.4-15c-0.8-0.4-1.6-0.9-2.4-1.3c1.4,4.1,6.3,7.3,9.3,10.4c4.9,4.9,9.8,9.8,14.6,14.6c9.4,9.4,18.9,18.9,28.3,28.3
		c18.3,18.3,36.7,36.7,55,55c1.7,1.8,4.5-1,2.7-2.7l-0.1-0.1c-0.9,0.9-1.8,1.8-2.7,2.7c0.1,0.1,0.2,0.2,0.3,0.3
		c0.9-0.9,1.8-1.8,2.7-2.7l-0.1-0.1c-1.8-1.8-4.5,1-2.7,2.7c0.1,0.1,0.3,0.3,0.4,0.4c1.8,1.8,4.5-1,2.7-2.7l-0.1-0.1
		c-0.9,0.9-1.8,1.8-2.7,2.7c3.3,3.3,7,5.3,11.6,3.3c3.6-1.6,6.4-5.5,6.2-9.5c-0.3-6.4-8.2-11.5-12.3-15.5c-6-6-12-12-18-18
		c-23.9-23.9-47.7-47.7-71.6-71.6c-0.8,1-1.6,2-2.3,3c30.1,14.7,60.2,29.3,90.3,44c7.5,3.6,14.9,7.3,22.4,10.9
		c3.6,1.7,7.1,2.9,10.8,0.6C292,324.4,291.7,315.2,285.2,311.6c-2.2-1.2-4.1,2.1-1.9,3.3c3.9,2.2,4.4,7.5,0.5,10.1
		c-4.5,3-11.9-2.8-16-4.9c-11.6-5.7-23.3-11.3-34.9-17c-22.9-11.2-45.9-22.4-68.8-33.6c-1.9-0.9-3.9,1.4-2.3,3
		c19.2,19.2,38.5,38.5,57.7,57.7c9.3,9.3,18.6,18.6,28,28c2.6,2.6,5.3,5.3,7.9,7.9c2.2,2.2,6.5,5.2,7.1,8.4c0.5,2.6-1.3,5.2-3.5,6.3
		c-3.2,1.6-5.4-0.2-7.6-2.4c-1.8-1.8-4.5,1-2.7,2.7l0.1,0.1c0.9-0.9,1.8-1.8,2.7-2.7c-0.1-0.1-0.3-0.3-0.4-0.4
		c-0.9,0.9-1.8,1.8-2.7,2.7l0.1,0.1c1.8,1.8,4.5-1,2.7-2.7c-0.1-0.1-0.2-0.2-0.3-0.3c-1.8-1.8-4.5,1-2.7,2.7l0.1,0.1
		c0.9-0.9,1.8-1.8,2.7-2.7c-17.6-17.7-35.3-35.3-53-53c-9-9-17.9-17.9-26.9-26.9c-4.6-4.6-9.3-9.3-13.9-13.9
		c-2.1-2.1-4.2-4.2-6.3-6.3c-1.6-1.6-5.5-4.4-6.2-6.6c-0.3-0.9-1.3-1.7-2.4-1.3c-10.8,3.7-21.6,7.4-32.3,11.1
		c-5.2,1.8-10.5,3.6-15.7,5.4c-2.3,0.8-5.3,2.4-7.8,2.3c-3.4-0.2-4.9-3.6-6-6.3c-0.3,0.7-0.6,1.4-0.9,2.2c4.3-3.2,8.7-7.6,13.5-9.9
		c6.4-3.1,13.9-4.8,20.7-7.1c7.6-2.6,15.2-5.2,22.8-7.9c1.4-0.5,2.1-2.7,0.5-3.5c-5.5-2.7-10.9-5.3-16.4-8c-2.7-1.3-5.8-2.6-5.8-6.1
		c0-1.8,1.1-4,1.7-5.7c-0.8,0.4-1.6,0.9-2.4,1.3c4.3,0.6,8.6,1.2,13,1.8c7.6,1.1,15.1,6.3,22,9.7c0.8,0.4,1.7,0.3,2.3-0.3
		c28.9-28.9,57.8-57.8,86.8-86.8c7.4-7.4,14.7-15,22.2-22.2c3.1-2.9,6.7-4.5,9.8-0.7c3.5,4.4-0.7,7.9-3.8,10.9
		c-14.6,14.6-29.2,29.2-43.8,43.8c-16.4,16.4-32.8,32.8-49.1,49.1c-1.3,1.3,0,3.9,1.9,3.2c15.6-5.4,31.1-10.7,46.7-16.1
		c7.8-2.7,15.6-5.4,23.3-8c4.9-1.7,14-6.6,15.8,1.5c1.6,7.3-9.9,8.7-14.8,10.4c-8.1,2.8-16.2,5.6-24.3,8.4
		c-15.5,5.3-31,10.7-46.5,16c-1.4,0.5-2.1,2.7-0.5,3.5c36.1,17.6,72.2,35.2,108.3,52.8C285.5,316,287.5,312.6,285.2,311.6z"/>
	<circle id="service" style="&st3;" cx="290.7" cy="118.1" r="55.7"/>
	<path id="circle-stroke_8_" style="&st1;" d="M344.5,118.1c-0.3,22.5-14.3,43.1-35.7,50.7c-21.2,7.5-45.3,0.8-59.6-16.5
		c-14.3-17.3-16.2-42.6-4.6-61.9c11.5-19.2,34.5-29.4,56.5-25.1C326.3,70.3,344.2,92.7,344.5,118.1c0,2.5,3.9,2.5,3.8,0
		c-0.3-23.8-14.9-45.4-37.3-53.9c-22.9-8.7-49.6-1.4-65,17.5c-15.1,18.6-17.2,45.4-4.8,66c12.3,20.5,36.6,31.3,60.2,27
		c27.1-5,46.5-29.3,46.9-56.6C348.4,115.6,344.5,115.6,344.5,118.1z"/>
	<path id="highlight" style="&st0;" d="M298.5,83.7c8.8,0.8,16.5,5.6,21.2,13c1.2-0.9,2.4-1.9,3.6-2.8c-6.3-6.6-13.6-12.5-23.2-12
		c-2.1,0.1-3.4,3.3-1.2,4.3c6.1,2.7,10.7,7,13.8,12.8c1.4,2.6,5.4,0.3,4-2.3c-3.5-6.5-8.8-11.5-15.5-14.5c-0.4,1.4-0.8,2.9-1.2,4.3
		c8.4-0.5,14.5,4.9,19.9,10.6c1.8,1.9,5-0.6,3.6-2.8C318,85.5,309,80,298.5,79.1C295.6,78.8,295.6,83.4,298.5,83.7z"/>
	<path id="highlight_1_" style="&st0;" d="M253.4,136.1c6.5,15.3,23.1,20.3,38.2,22.8c2.5,0.4,4.1-2.7,1.8-4.2
		c-7.7-5.1-15.4-10.1-23.1-15.2c-2-1.3-4.2,1.2-3.2,3.2c1.9,3.6,4.3,6.7,7.4,9.3c0.7-1.3,1.5-2.6,2.2-3.9
		c-9.9-2-14.8-10.9-19.1-19.2c-1.4-2.6-5.4-0.3-4,2.3c4.9,9.3,10.7,19.1,21.8,21.3c2.1,0.4,4.1-2.2,2.2-3.9c-2.8-2.4-5-5.1-6.7-8.4
		c-1.1,1.1-2.1,2.1-3.2,3.2c7.7,5.1,15.4,10.1,23.1,15.2c0.6-1.4,1.2-2.8,1.8-4.2c-13.9-2.3-29.3-6.5-35.4-20.7
		C256.2,131,252.2,133.4,253.4,136.1z"/>
	<circle id="circle_35_" style="&st3;" cx="246.8" cy="365.5" r="25.9"/>
	<path id="circle-stroke_7_" style="&st1;" d="M270.8,365.5c-0.3,13.1-10.7,24-24,24c-13.1,0-24-10.9-24-24c0-13.1,10.9-24,24-24
		C260.2,341.5,270.5,352.5,270.8,365.5c0.1,2.5,3.9,2.5,3.8,0c-0.3-11.6-7.2-22-18.2-26.1c-11-4.1-23.6-0.6-31.1,8.3
		c-16.2,19.4,1.1,49.3,26,45.2c13.5-2.2,22.9-14,23.3-27.5C274.7,363.1,270.9,363.1,270.8,365.5z"/>
	<path id="highlight_6_" style="&st0;" d="M246,381.9c11.6,2.4,21.1-6.9,19-18.6c-0.4-2-3.1-1.6-3.7,0c-1.9,5.4-4.7,10.4-10.5,12.1
		c-4.9,1.5-10.2,1.7-15.3,1.7c-2.5,0-2.5,3.8,0,3.8c6.3,0.1,14.2-0.1,19.9-3.1c5-2.7,7.7-8.3,9.6-13.4c-1.2,0-2.5,0-3.7,0
		c1.6,8.7-5.7,15.6-14.3,13.8C244.6,377.7,243.5,381.4,246,381.9z"/>
	<path id="highlight_7_" style="&st0;" d="M236.9,358.7c2.3-4.4,6.8-6.8,11.7-6.5c2.5,0.1,2.5-3.7,0-3.8c-6.2-0.4-12.1,3-15,8.5
		C232.4,358.9,235.8,360.9,236.9,358.7z"/>
	<circle id="app-circle" style="&st3;" cx="97.1" cy="264" r="55.7"/>
	<path id="circle-stroke_2_" style="&st1;" d="M150.8,264c-0.3,22.5-14.3,43.1-35.7,50.7c-21.2,7.5-45.3,0.8-59.6-16.5
		c-14.3-17.3-16.2-42.6-4.6-61.9c11.5-19.2,34.5-29.4,56.5-25.1C132.6,216.2,150.5,238.5,150.8,264c0,2.5,3.9,2.5,3.8,0
		c-0.3-23.8-14.9-45.4-37.3-53.9c-22.9-8.7-49.6-1.4-65,17.5c-15.1,18.6-17.2,45.4-4.8,66c12.3,20.5,36.6,31.3,60.2,27
		c27.1-5,46.5-29.3,46.9-56.6C154.7,261.5,150.9,261.5,150.8,264z"/>
	<path id="a_5_" style="&st2;" d="M81.7,251.9l6.1,17.5c0.1,0.2,0.1,0.3,0.1,0.4c0,0.4-0.4,0.5-1.3,0.5h-1.1c-0.7,0-1.2-0.2-1.3-0.5
		l-1.2-3.5h-6.6l-1.2,3.5c-0.1,0.3-0.5,0.5-1.1,0.5h-1c-1,0-1.5-0.2-1.5-0.5c0-0.1,0-0.2,0.1-0.5l6.1-17.5c0.1-0.3,0.6-0.5,1.4-0.5
		h1.2C81.1,251.4,81.6,251.6,81.7,251.9z M79.7,255.4c0,0.1-0.1,0.3-0.1,0.7c-0.1,0.4-0.2,0.7-0.3,1l-2.1,6.3h5.1l-2.1-6.3
		c-0.2-0.5-0.3-1.1-0.4-1.7H79.7z"/>
	<path id="p_10_" style="&st2;" d="M100.1,256.9c0.8,0.6,1.4,1.4,1.8,2.5c0.4,1.1,0.6,2.4,0.6,3.9c0,2.2-0.5,4-1.5,5.3
		c-1,1.3-2.4,1.9-4.1,1.9c-1.2,0-2.2-0.3-3.5-1v5.6c0.4,0.5-0.1,0.8-1.1,0.4h-0.5c-1,0.4-1.4,0.2-1.4-0.4v-14.4c0-1.2,0-2.1-0.2-2.6
		c-0.1-0.5-0.2-0.9-0.2-1c0-0.3,0.3-0.4,0.9-0.6s1.1-0.2,1.6-0.2c0.3,0,0.5,0.1,0.6,0.4c0.1,0.3,0.2,0.5,0.3,0.8
		c0.1,0.3,0.1,0.5,0.1,0.6c0.4-0.6,1-1.1,1.7-1.5c0.7-0.4,1.4-0.5,2.2-0.5C98.5,256,99.4,256.3,100.1,256.9z M94.7,259.2
		c-0.5,0.3-0.9,0.7-1.3,1.2v6.5c0.7,0.5,1.5,0.8,2.4,0.8c1.9,0,2.9-1.5,2.9-4.4c0-1.5-0.2-2.6-0.6-3.4c-0.4-0.8-1.1-1.2-1.9-1.2
		C95.6,258.8,95.1,258.9,94.7,259.2z"/>
	<path id="p_11_" style="&st2;" d="M116,256.9c0.8,0.6,1.4,1.4,1.8,2.5c0.4,1.1,0.6,2.4,0.6,3.9c0,2.2-0.5,4-1.5,5.3
		c-1,1.3-2.4,1.9-4.1,1.9c-1.2,0-2.2-0.3-3.3-1v5.6c0.2,0.5-0.3,0.8-1.2,0.4h-0.5c-1,0.4-1.4,0.2-1.3-0.4v-14.4
		c-0.2-1.2-0.2-2.1-0.3-2.6c-0.1-0.5-0.2-0.9-0.2-1c0-0.3,0.3-0.4,0.9-0.6s1.1-0.2,1.6-0.2c0.3,0,0.5,0.1,0.6,0.4
		c0.1,0.3,0.2,0.5,0.3,0.8c0.1,0.3,0.1,0.5,0.1,0.6c0.4-0.6,1-1.1,1.7-1.5c0.7-0.4,1.4-0.5,2.2-0.5C114.3,256,115.2,256.3,116,256.9
		z M110.7,259.2c-0.5,0.3-0.9,0.7-1.3,1.2v6.5c0.7,0.5,1.5,0.8,2.4,0.8c1.9,0,2.9-1.5,2.9-4.4c0-1.5-0.2-2.6-0.6-3.4
		c-0.4-0.8-1.1-1.2-1.9-1.2C111.6,258.8,111.1,258.9,110.7,259.2z"/>
	<path id="highlight_9_" style="&st0;" d="M75.2,297.7c-2.4-3.6-4.8-7.3-7.2-10.9c-1.7-2.5-5.2-0.4-4,2.3c2.4,5.2,7.2,9,12.8,10
		c2.9,0.5,4.1-3.9,1.2-4.4c-4.6-0.8-8.2-3.6-10.1-7.9c-1.3,0.8-2.7,1.6-4,2.3c2.4,3.6,4.8,7.3,7.2,10.9
		C72.9,302.4,76.9,300.1,75.2,297.7z"/>
	<path id="highlight_8_" style="&st0;" d="M111.7,228c9.9,8.4,21.1,18.2,20.2,32.4c-0.2,3,4.3,2.9,4.6,0
		c1.9-17.6-10.5-32.6-27.9-34.7c-2.9-0.4-2.9,4.2,0,4.6c15.1,1.9,24.9,15.2,23.3,30.1c1.5,0,3.1,0,4.6,0c1-15.5-10.6-26.5-21.5-35.7
		C112.7,222.8,109.4,226.1,111.7,228z"/>
	<circle id="circle_36_" style="&st3;" cx="270.8" cy="227.6" r="39.6"/>
	<path id="circle-stroke_9_" style="&st1;" d="M308.5,227.6c-0.3,15.7-9.9,30.1-24.9,35.5c-14.7,5.3-31.5,0.7-41.6-11.2
		c-10.3-12.1-11.6-30-3.5-43.7c8.2-13.6,24.4-20.7,39.9-17.5C295.9,194.3,308.2,209.9,308.5,227.6c0,2.5,3.9,2.5,3.8,0
		c-0.3-17.3-10.8-32.9-27.1-38.9c-16.6-6.2-35.7-0.8-46.8,13c-10.7,13.4-12.1,32.6-3.3,47.3c8.8,14.7,26.1,22.5,43,19.5
		c19.8-3.5,33.8-21,34.2-40.9C312.4,225.1,308.5,225.1,308.5,227.6z"/>
	<path id="highlight_3_" style="&st0;" d="M277.1,205.9c5,0.5,9.4,3.2,12.1,7.4c1-0.8,2-1.6,3-2.3c-3.8-4-8.3-7.6-14.1-7.3
		c-1.7,0.1-2.9,2.7-1,3.6c3.5,1.6,6.2,4,8,7.4c1.2,2.2,4.5,0.2,3.3-1.9c-2.1-3.9-5.3-7-9.4-8.8c-0.3,1.2-0.6,2.4-1,3.6
		c4.8-0.3,8.3,2.8,11.4,6.1c1.5,1.6,4.2-0.5,3-2.3c-3.5-5.4-9-8.7-15.4-9.3C274.6,201.9,274.6,205.7,277.1,205.9z"/>
	<path id="highlight_2_" style="&st0;" d="M247.1,242.1c4.1,9.2,13.8,12.2,23,13.8c2.1,0.4,3.4-2.3,1.5-3.5c-4.6-3-9.1-6-13.7-9
		c-1.7-1.1-3.5,1-2.6,2.6c1.2,2.2,2.6,4,4.5,5.7c0.6-1.1,1.2-2.1,1.9-3.2c-5.7-1.3-8.4-6.3-11-11.1c-1.1-2.2-4.5-0.3-3.3,1.9
		c3,5.7,6.5,11.4,13.3,12.9c1.8,0.4,3.4-1.9,1.9-3.2c-1.6-1.4-2.9-3-3.9-4.9c-0.9,0.9-1.8,1.8-2.6,2.6c4.6,3,9.1,6,13.7,9
		c0.5-1.2,1-2.3,1.5-3.5c-8.2-1.4-17-3.7-20.7-12C249.4,237.9,246.1,239.9,247.1,242.1z"/>
	<circle id="circle_7_" style="&st3;" cx="305.8" cy="329.7" r="25.9"/>
	<path id="circle-stroke_10_" style="&st1;" d="M329.8,329.7c-0.3,13.1-10.7,24-24,24c-13.1,0-24-10.9-24-24c0-13.1,10.9-24,24-24
		C319.1,305.7,329.4,316.6,329.8,329.7c0.1,2.5,3.9,2.5,3.8,0c-0.3-11.6-7.2-22-18.2-26.1c-11-4.1-23.6-0.6-31.1,8.3
		c-16.2,19.4,1.1,49.3,26,45.2c13.5-2.2,22.9-14,23.3-27.5C333.7,327.2,329.8,327.2,329.8,329.7z"/>
	<path id="highlight_4_" style="&st0;" d="M304.9,345.9c11.6,2.4,21.1-6.9,19-18.6c-0.4-2-3.1-1.6-3.7,0
		c-1.9,5.4-4.7,10.4-10.5,12.1c-4.9,1.5-10.2,1.7-15.3,1.7c-2.5,0-2.5,3.8,0,3.8c6.3,0.1,14.2-0.1,19.9-3.1c5-2.7,7.7-8.3,9.6-13.4
		c-1.2,0-2.5,0-3.7,0c1.6,8.7-5.7,15.6-14.3,13.8C303.5,341.7,302.5,345.4,304.9,345.9z"/>
	<path id="highlight_5_" style="&st0;" d="M295.9,322.8c2.3-4.4,6.8-6.8,11.7-6.5c2.5,0.1,2.5-3.7,0-3.8c-6.2-0.4-12.1,3-15,8.4
		C291.4,323,294.7,325,295.9,322.8z"/>
</g>
</svg>
