<?xml version="1.0" encoding="utf-8"?>
<!-- Generator: Adobe Illustrator 19.2.1, SVG Export Plug-In . SVG Version: 6.00 Build 0)  -->
<svg version="1.1" id="Layer_1" xmlns="http://www.w3.org/2000/svg" xmlns:xlink="http://www.w3.org/1999/xlink" x="0px" y="0px"
	 viewBox="0 0 436.3 436.3" style="enable-background:new 0 0 436.3 436.3;" xml:space="preserve">
<style type="text/css">
	.st0{fill:#FFFFFF;}
	.st1{fill:#727F9B;}
	.st2{fill:#D0DAED;}
	.st3{fill:#515A6D;}
	.st4{fill:#E58231;}
	.st5{enable-background:new    ;}
</style>
<g id="working_artboard">
</g>
<g id="Layer_1_1_">
	<circle id="circle_2_" class="st0" cx="218.2" cy="218.2" r="216.8"/>
	<path id="circle-stroke_3_" class="st1" d="M433.5,218.2c-0.1,44.5-13.9,88.2-39.6,124.5c-25.2,35.6-61.3,63.1-102.3,78
		c-42.4,15.4-89.5,17-132.8,4.5c-41.8-12-79.3-36.8-106.9-70.3c-57.4-69.6-64.7-170.9-18-248.1C56.2,69.8,89.7,40,129,22.1
		c41.3-18.8,88.4-24,132.8-14.8c86.5,17.8,155,89.4,169,176.7C432.6,195.2,433.5,206.7,433.5,218.2c0,1.8,2.9,1.8,2.9,0
		c-0.1-45.2-14.1-89.7-40.4-126.5c-25.4-35.6-61.3-63.1-102.3-78.3c-43-15.9-90.9-17.7-135-5.2c-42.5,12-80.8,37.2-108.9,71.2
		C21.5,113.7,4.2,156.3,0.7,200.7C-2.9,246,7.8,292,31.4,330.9c22.7,37.6,56.8,68,96.9,86.1c41.4,18.7,88.4,24,133,15.1
		c43.5-8.7,83.8-30.9,114.4-62.9c30.8-32.1,51.3-73.4,58.1-117.4c1.7-11.1,2.6-22.4,2.6-33.6C436.4,216.3,433.5,216.3,433.5,218.2z"
		/>
	<path id="connector-fill_8_" class="st0" d="M250,315.4c-40.8,0-81.6,0-122.4,0c-3.7,0-7.4,0-11.2,0c0-39.5,0-77,0-116.5
		c0-5.7,0-11.4,0-17.2c0-7.7-12-7.7-12,0c0,40.8,0,79.6,0,120.4c0,5.7,0,11.4,0,17.2c0,0.6,0.1,1.2,0.2,1.7
		c-0.2,3.1,1.7,6.4,5.8,6.4c40.8,0,81.6,0,122.4,0c5.7,0,11.4,0,17.2,0C257.7,327.4,257.7,315.4,250,315.4z"/>
	<path id="connector-stroke_7_" class="st1" d="M250.5,314.4c-44.5,0-89,0-133.5,0c0.5,0.5,1,1,1.5,1.5c0-37.2,0-74.4,0-111.5
		c0-4.2,0-8.4,0-12.5c0-3.6,0.7-7.9-0.2-11.4c-0.9-3.3-3.8-5.4-7.3-5.4c-3.4,0-6.4,2.1-7.3,5.4c-0.8,3-0.2,6.6-0.2,9.7
		c0,4.9,0,9.8,0,14.6c0,37.1,0,74.1,0,111.2c0,4.7-0.4,11.1,5.1,13c3.1,1.1,7,0.4,10.3,0.4c4.9,0,9.9,0,14.8,0c19.1,0,38.2,0,57.2,0
		c10.5,0,21.1,0,31.6,0c5.2,0,10.4,0,15.6,0c4.4,0,9.3,0.6,13.6-0.1C260.5,327.8,259.1,315,250.5,314.4c-1.9-0.1-1.9,2.9,0,3
		c3,0.2,4.9,2.7,4.2,5.7c-0.8,3.1-3.4,3.2-6.1,3.3c-7.7,0.2-15.4,0-23.1,0c-15.1,0-30.3,0-45.4,0s-30.3,0-45.4,0c-7,0-14.8,1-21.7,0
		c-2.6-0.4-3.8,1.4-6-3c-0.7-1.3-0.4-4.1-0.4-5.5c-0.1-4.1,0-8.3,0-12.4c0-29.4,0-58.8,0-88.1c0-7.1,0-14.3,0-21.4
		c0-4.5-2.5-18,4.5-18c6.9,0,4.5,11.4,4.5,15.7c0,7.5,0,14.9,0,22.4v99.8c0,0.8,0.7,1.5,1.5,1.5h133.5
		C252.4,317.4,252.4,314.4,250.5,314.4z"/>
	<path id="connection-line" class="st1" d="M111.1,146.4c1.1,14,1.6,28.2,2,42.4l0.3,10.6V210c0.1,7.1,0.1,14.2-0.1,21.3
		c-0.3,14.2-1.2,28.4-1.5,42.6c-0.2,7.1-0.2,14.2-0.1,21.3c0,3.5,0.1,7.1,0.2,10.6l0.2,5.3l0.1,2.7v0.7c0,0.2,0,0.5,0,0.6
		c0,0.3,0.1,0.6,0.2,0.9l-0.1,0.2v0.4c0,1.4,0.6,2.6,1.6,3.2c0.5,0.3,1,0.5,1.7,0.6c0.3,0,0.6,0,1,0l1.4-0.1
		c3.6-0.3,7.3-0.4,10.9-0.6l10.9-0.3c3.6-0.1,7.3-0.2,10.9-0.1c7.3,0,14.5,0.4,21.8,0.8c7.3,0.5,14.5,1.1,21.8,2.1v0.8
		c-7.2,1.1-14.5,1.7-21.7,2.1s-14.5,0.8-21.7,0.8c-3.6,0-7.2,0-10.8-0.1l-10.8-0.3c-3.6-0.1-7.2-0.3-10.8-0.6l-1.4-0.1
		c-0.5,0-1.1-0.1-1.7-0.2c-1.2-0.3-2.3-0.8-3.3-1.6c-0.9-0.8-1.7-1.8-2.1-3c-0.4-1.1-0.5-2.3-0.4-3.4l0.1,0.5
		c-0.1-0.5-0.2-1.1-0.2-1.7c0-0.3,0-0.5,0-0.7V314l0.1-2.7l0.2-5.3c0.1-3.5,0.2-7.1,0.2-10.6c0.1-7.1,0.1-14.2-0.1-21.3
		c-0.3-14.2-1.2-28.4-1.5-42.6c-0.2-7.1-0.1-14.2-0.1-21.3l0.1-10.6l0.2-10.6c0.4-14.2,0.9-28.4,2-42.6L111.1,146.4L111.1,146.4z"/>
	<circle id="circle_34_" class="st2" cx="288.8" cy="322.9" r="43.5"/>
	<path id="circle-stroke_37_" class="st1" d="M330.8,322.9c-0.3,17.5-11,33.5-27.6,39.5c-16.3,5.9-35,1-46.2-12.2
		c-11.5-13.4-13.3-33.2-4.3-48.5c8.9-15.2,26.8-23.4,44.1-20.1C316.5,285.4,330.5,302.9,330.8,322.9c0,1.9,3,1.9,3,0
		c-0.3-18.8-11.9-35.9-29.8-42.3c-17.7-6.4-38.1-0.6-50,14c-11.8,14.6-13.4,35.6-3.6,51.6c9.7,16,28.8,24.4,47.1,20.9
		c21.1-4.1,36-22.9,36.3-44.1C333.8,320.9,330.8,320.9,330.8,322.9z"/>
	<circle id="circle_24_" class="st2" cx="111.9" cy="143" r="43.5"/>
	<path id="circle-stroke_27_" class="st1" d="M153.9,143c-0.3,17.5-11,33.5-27.6,39.5c-16.3,5.9-35,1-46.2-12.2
		c-11.5-13.4-13.3-33.2-4.3-48.5c8.9-15.2,26.8-23.4,44.1-20.1C139.6,105.5,153.6,123,153.9,143c0,1.9,3,1.9,3,0
		c-0.3-18.8-11.9-35.9-29.8-42.3c-17.7-6.4-38.1-0.6-50,14c-11.8,14.6-13.4,35.6-3.6,51.6c9.7,16,28.8,24.4,47.1,20.9
		c21.1-4.1,36-22.9,36.3-44.1C156.9,141,153.9,141,153.9,143z"/>
	<path id="a_6_" class="st3" d="M277.8,312.8l4.8,13.8c0,0.1,0.1,0.2,0.1,0.3c0,0.3-0.3,0.4-1,0.4h-1.1c-0.6,0-0.9-0.1-1-0.4
		l-0.9-2.6h-4.9l-0.9,2.6c-0.1,0.2-0.4,0.4-0.8,0.4h-1c-0.8,0-1.2-0.1-1.2-0.4c0,0,0-0.2,0.1-0.4l4.8-13.8c0.1-0.3,0.5-0.4,1.1-0.4
		h0.9C277.4,312.4,277.7,312.5,277.8,312.8z M276.2,316.4c0,0.1,0,0.2-0.1,0.5c0,0.3-0.1,0.5-0.2,0.8l-1.6,4.7h3.8l-1.6-4.7
		C276.5,317.4,276.4,316.9,276.2,316.4L276.2,316.4z"/>
	<path id="p_12_" class="st3" d="M292.2,317.3c0.6,0.5,1.1,1.1,1.4,2s0.5,1.9,0.5,3c0,1.8-0.4,3.1-1.2,4.1s-1.9,1.5-3.2,1.5
		c-0.9,0-1.7-0.3-2.3-0.8v4.4c-0.1,0.4-0.5,0.6-1.3,0.9h-0.4c-0.7-0.3-1.1-0.5-1.3-0.9v-11.2c0.2-0.9,0.2-1.6,0.1-2
		s-0.1-0.7-0.1-0.8c0-0.2,0.2-0.3,0.7-0.5s0.9-0.2,1.2-0.2c0.2,0,0.4,0.1,0.5,0.3s0.2,0.4,0.2,0.6s0.1,0.4,0.1,0.5
		c0.3-0.5,0.8-0.9,1.3-1.2s1.1-0.4,1.7-0.4C290.9,316.6,291.6,316.8,292.2,317.3z M288.4,319.1c-0.4,0.2-0.7,0.6-1,1v5.1
		c0.5,0.4,1.2,0.6,1.9,0.6c1.5,0,2.3-1.2,2.3-3.4c0-1.1-0.2-2-0.5-2.6s-0.8-0.9-1.5-0.9C289.1,318.8,288.8,318.9,288.4,319.1z"/>
	<path id="p_13_" class="st3" d="M304.6,317.3c0.6,0.5,1.1,1.1,1.4,2s0.5,1.9,0.5,3c0,1.8-0.4,3.1-1.2,4.1s-1.9,1.5-3.2,1.5
		c-0.9,0-1.7-0.3-2.7-0.8v4.4c0.2,0.4-0.2,0.6-0.9,0.9h-0.4c-0.7-0.3-1.1-0.5-1.7-0.9v-11.2c0.6-0.9,0.6-1.6,0.5-2s-0.1-0.7-0.1-0.8
		c0-0.2,0.2-0.3,0.7-0.5s0.9-0.2,1.2-0.2c0.2,0,0.4,0.1,0.5,0.3s0.2,0.4,0.2,0.6s0.1,0.4,0.1,0.5c0.3-0.5,0.8-0.9,1.3-1.2
		s1.1-0.4,1.7-0.4C303.3,316.6,304,316.8,304.6,317.3z M300.4,319.1c-0.4,0.2-0.7,0.6-1,1v5.1c0.5,0.4,1.2,0.6,1.9,0.6
		c1.5,0,2.3-1.2,2.3-3.4c0-1.1-0.2-2-0.5-2.6s-0.8-0.9-1.5-0.9C301.1,318.8,300.8,318.9,300.4,319.1z"/>
	<path id="highlight_52_" class="st0" d="M269.4,348.5c-1.9-2.8-3.8-5.7-5.6-8.5c-1.1-1.6-3.4-0.2-2.6,1.5c1.8,4,5.5,6.9,9.8,7.7
		c1.9,0.3,2.7-2.5,0.8-2.9c-3.6-0.7-6.5-2.9-8-6.3c-0.9,0.5-1.7,1-2.6,1.5c1.9,2.8,3.8,5.7,5.6,8.5
		C267.9,351.6,270.5,350.1,269.4,348.5z"/>
	<path id="highlight_51_" class="st0" d="M304.5,292.9c7.9,6.7,16.4,14.3,15.8,25.5c-0.1,2,2.8,1.9,3,0c1.4-13.7-8-25-21.5-26.8
		c-1.9-0.2-1.9,2.8,0,3c11.9,1.6,19.7,12,18.5,23.8c1,0,2,0,3,0c0.6-12.1-8.2-20.5-16.7-27.7C305.2,289.5,303.1,291.6,304.5,292.9z"
		/>
	<path id="s_8_" class="st3" d="M84.8,134.1c0.6,0.1,1,0.3,1.4,0.5s0.5,0.4,0.5,0.7s-0.1,0.6-0.3,1c-0.2,0.4-0.4,0.6-0.6,0.6
		c0,0-0.2,0-0.4-0.1c-0.3-0.1-0.6-0.3-0.9-0.3s-0.7-0.1-1.2-0.1c-0.8,0-1.3,0.2-1.7,0.5c-0.4,0.3-0.5,0.7-0.5,1.2
		c0,0.4,0.1,0.7,0.3,1c0.2,0.3,0.5,0.5,0.8,0.6c0.3,0.2,0.8,0.4,1.4,0.6c0.8,0.3,1.5,0.6,2,0.9c0.5,0.3,1,0.7,1.3,1.3
		s0.6,1.3,0.6,2.2c0,1.5-0.4,2.6-1.3,3.3s-2,1.1-3.4,1.1c-0.9,0-1.7-0.1-2.4-0.3s-1.3-0.4-1.7-0.7s-0.6-0.5-0.6-0.7s0.1-0.4,0.2-0.7
		s0.3-0.5,0.5-0.7s0.3-0.3,0.5-0.3c0.1,0,0.3,0.1,0.5,0.2c0.4,0.2,0.9,0.4,1.3,0.6c0.4,0.1,0.9,0.2,1.5,0.2s1.2-0.2,1.6-0.5
		s0.7-0.8,0.7-1.4c0-0.4-0.1-0.7-0.3-1c-0.2-0.3-0.5-0.5-0.8-0.7s-0.8-0.4-1.4-0.6c-0.4-0.1-0.6-0.2-0.7-0.3
		c-0.6-0.3-1.2-0.6-1.6-0.9s-0.8-0.7-1.1-1.3c-0.3-0.5-0.4-1.2-0.4-2c0-0.9,0.2-1.6,0.7-2.3c0.4-0.6,1-1.1,1.8-1.4
		c0.7-0.3,1.6-0.5,2.4-0.5C83.6,133.9,84.2,134,84.8,134.1z"/>
	<path id="e_16_" class="st3" d="M97.5,139.3c0.7,1,1.1,2.3,1.1,4c0,0.2-0.1,0.4-0.4,0.7s-0.4,0.4-0.6,0.4h-5.8
		c0.1,0.9,0.3,1.6,0.8,2c0.4,0.4,1.1,0.6,1.9,0.6c0.5,0,0.9-0.1,1.2-0.2s0.7-0.3,1.1-0.4c0.2-0.1,0.4-0.1,0.4-0.1
		c0.2,0,0.4,0.2,0.6,0.5c0.2,0.4,0.3,0.6,0.3,0.8c0,0.3-0.2,0.5-0.6,0.7s-0.9,0.4-1.5,0.5s-1.2,0.2-1.7,0.2c-1.8,0-3.2-0.5-4-1.4
		s-1.3-2.3-1.3-4.1c0-1.9,0.4-3.4,1.3-4.3c0.9-0.9,2.1-1.4,3.7-1.4C95.6,137.9,96.8,138.4,97.5,139.3z M91.8,142.4H96
		c0-0.8-0.2-1.4-0.5-1.9c-0.3-0.4-0.8-0.7-1.4-0.7C92.8,139.8,92,140.7,91.8,142.4z"/>
	<path id="r_8_" class="st3" d="M107,137.9c0.2,0.2,0.3,0.4,0.3,0.7s-0.1,0.6-0.2,1s-0.2,0.6-0.4,0.6c-0.1,0-0.2,0-0.4-0.1
		s-0.4-0.1-0.6-0.1c-0.4,0-0.8,0.1-1.1,0.4c-0.3,0.3-0.5,0.5-0.2,0.8v7.1c-0.5,0.4-0.9,0.6-1.6,0.2h-0.4c-0.7,0.4-1.1,0.2-1-0.2
		v-6.9c-0.1-0.9-0.2-1.6-0.3-2c-0.1-0.4-0.1-0.7-0.1-0.8c0-0.2,0.2-0.3,0.7-0.5c0.5-0.1,0.9-0.2,1.2-0.2c0.2,0,0.4,0.1,0.5,0.3
		s0.2,0.4,0.2,0.6c0,0.2,0.1,0.4,0.1,0.5c0.3-0.5,0.7-0.9,1-1.2c0.4-0.3,0.8-0.4,1.3-0.4C106.5,137.6,106.8,137.7,107,137.9z"/>
	<path id="v_8_" class="st3" d="M117.7,137.8c0,0.1,0,0.2-0.1,0.4l-3.3,9.8c-0.1,0.3-0.4,0.4-1,0.4h-0.7c-0.6,0-1-0.1-1.1-0.4
		l-3.3-9.9c-0.1-0.1-0.1-0.3-0.1-0.3c0-0.3,0.4-0.4,1.1-0.4h0.4c0.6,0,1,0.1,1.1,0.4l1.6,5l0.5,1.8l0.2,0.8h0.1
		c0.2-1.1,0.4-2,0.6-2.6l1.6-5c0.1-0.3,0.5-0.4,1.1-0.4h0.3C117.3,137.4,117.7,137.5,117.7,137.8z"/>
	<path id="i_8_" class="st3" d="M122.4,133.5v1.5c0,0.2-0.1,0.3-0.3,0.4c-0.2,0.1-0.5,0.1-0.9-0.1h-0.5c-0.4,0.2-0.7,0.2-0.9,0.1
		c-0.2-0.1-0.3-0.2-0.6-0.4v-1.5c0.3-0.4,0.7-0.6,1.4-1.1h0.5C122,132.9,122.4,133.1,122.4,133.5z M122.4,138.3v9.9
		c0,0.4-0.4,0.6-1.1,0.2h-0.4c-0.7,0.4-1.1,0.2-1.4-0.2v-9.9c0.3-0.4,0.7-0.6,1.4-0.9h0.4C122,137.7,122.4,137.9,122.4,138.3z"/>
	<path id="c_8_" class="st3" d="M132.7,138c0.7,0.2,1.1,0.5,1.1,0.9c0,0.2-0.1,0.5-0.4,0.9c-0.2,0.4-0.4,0.6-0.6,0.6
		c0,0-0.1,0-0.3-0.1c-0.6-0.3-1.3-0.5-2-0.5c-0.9,0-1.5,0.3-2,0.9c-0.4,0.6-0.7,1.5-0.7,2.7s0.2,2.1,0.6,2.7c0.4,0.6,1.1,0.9,2,0.9
		c0.7,0,1.5-0.2,2.2-0.5c0.2-0.1,0.3-0.1,0.3-0.1c0.2,0,0.4,0.2,0.6,0.5c0.2,0.4,0.3,0.7,0.3,0.9c0,0.3-0.2,0.5-0.6,0.7
		s-0.9,0.4-1.5,0.5s-1.1,0.1-1.5,0.1c-1.8,0-3.1-0.5-3.9-1.4c-0.9-0.9-1.3-2.3-1.3-4.2s0.5-3.4,1.4-4.3c0.9-0.9,2.2-1.4,3.9-1.4
		C131.2,137.6,132,137.7,132.7,138z"/>
	<path id="e_17_" class="st3" d="M144,139.3c0.7,1,1.1,2.3,1.1,4c0,0.2-0.1,0.4-0.4,0.7s-0.4,0.4-0.6,0.4h-5.8
		c0.1,0.9,0.3,1.6,0.8,2c0.4,0.4,1.1,0.6,1.9,0.6c0.5,0,0.9-0.1,1.2-0.2s0.7-0.3,1.1-0.4c0.2-0.1,0.4-0.1,0.4-0.1
		c0.2,0,0.4,0.2,0.6,0.5c0.2,0.4,0.3,0.6,0.3,0.8c0,0.3-0.2,0.5-0.6,0.7s-0.9,0.4-1.5,0.5s-1.2,0.2-1.7,0.2c-1.8,0-3.2-0.5-4-1.4
		s-1.3-2.3-1.3-4.1c0-1.9,0.4-3.4,1.3-4.3c0.9-0.9,2.1-1.4,3.7-1.4C142.2,137.9,143.3,138.4,144,139.3z M138.4,142.4h4.1
		c0-0.8-0.2-1.4-0.5-1.9c-0.3-0.4-0.8-0.7-1.4-0.7C139.3,139.8,138.6,140.7,138.4,142.4z"/>
	<path id="highlight_49_" class="st0" d="M121,114.6c5.7,0.5,10.7,3.6,13.8,8.4c0.8-0.6,1.6-1.2,2.4-1.8c-4.1-4.3-8.8-8.2-15.1-7.8
		c-1.3,0.1-2.2,2.1-0.8,2.8c3.9,1.8,7,4.5,9,8.3c0.9,1.7,3.5,0.2,2.6-1.5c-2.3-4.2-5.7-7.5-10.1-9.4c-0.3,0.9-0.5,1.9-0.8,2.8
		c5.5-0.3,9.4,3.2,13,6.9c1.2,1.2,3.3-0.4,2.4-1.8c-3.7-5.8-9.6-9.3-16.4-9.9C119.1,111.4,119.1,114.4,121,114.6z"/>
	<path id="highlight_50_" class="st0" d="M84.7,161.7c4.4,9.9,14.9,13.2,24.8,14.9c1.6,0.3,2.6-1.8,1.2-2.7c-5-3.3-10-6.6-15.1-9.9
		c-1.3-0.9-2.7,0.8-2.1,2.1c1.3,2.4,2.8,4.3,4.8,6.1c0.5-0.8,1-1.7,1.5-2.5c-6.4-1.4-9.6-7.1-12.4-12.5c-0.9-1.7-3.5-0.2-2.6,1.5
		c3.2,6.2,6.9,12.3,14.2,13.9c1.4,0.3,2.6-1.5,1.5-2.5c-1.8-1.6-3.2-3.3-4.4-5.5c-0.7,0.7-1.4,1.4-2.1,2.1c5,3.3,10,6.6,15.1,9.9
		c0.4-0.9,0.8-1.8,1.2-2.7c-9.2-1.6-18.9-4.2-23-13.5C86.5,158.4,83.9,159.9,84.7,161.7z"/>
	<circle id="failure-bg" class="st0" cx="111.4" cy="180.4" r="19"/>
	<path id="failure" class="st4" d="M111.4,163.4c-9.4,0-17,7.6-17,17s7.6,17,17,17s17-7.6,17-17S120.8,163.4,111.4,163.4z
		 M119.5,186.3l-2.3,2.3l-5.7-5.9l-5.9,5.9l-2.3-2.3l5.9-5.9l-5.7-5.9l2.3-2.3l5.9,5.9l5.9-5.9l2.3,2.3l-6,5.9L119.5,186.3z"/>
	<g>
		<g class="st5">
			<path class="st3" d="M204.3,162c-1.6-0.4-2.8-1-3.6-1.6c-0.6-0.5-1-0.9-1-1.3c0-0.5,0.2-1.1,0.7-1.8c0.5-0.8,0.9-1.1,1.2-1.1
				c0.2,0,0.6,0.2,1.1,0.5c1,0.5,2,1,3,1.3c1,0.3,2.2,0.5,3.5,0.5c1.6,0,2.9-0.4,4-1.3s1.6-2,1.6-3.5c0-1-0.3-1.8-0.8-2.5
				c-0.5-0.7-1.2-1.2-2-1.6c-0.8-0.4-1.9-0.9-3.2-1.5l-1-0.4c-1.6-0.6-2.9-1.3-3.9-1.9c-1-0.6-1.9-1.5-2.6-2.7c-0.7-1.2-1-2.6-1-4.5
				c0-1.8,0.5-3.3,1.4-4.6c0.9-1.3,2.1-2.3,3.7-3c1.6-0.7,3.3-1.1,5.3-1.1c1.2,0,2.4,0.2,3.7,0.5c1.3,0.3,2.3,0.7,3,1.2
				c0.6,0.4,1,0.8,1,1.3c0,0.4-0.2,1-0.7,1.8c-0.4,0.8-0.8,1.1-1.1,1.1c-0.2,0-0.6-0.2-1.3-0.6c-1.4-0.7-2.9-1-4.4-1
				c-1.7,0-3.1,0.4-4,1.2c-1,0.8-1.4,1.9-1.4,3.2c0,1,0.3,1.8,0.8,2.4s1.1,1.1,1.8,1.4c0.7,0.3,1.8,0.8,3.3,1.4
				c1.8,0.7,3.3,1.4,4.4,2c1.1,0.7,2.1,1.6,2.9,2.9c0.8,1.2,1.2,2.8,1.2,4.8c0,3-1,5.3-2.9,6.9c-1.9,1.6-4.4,2.4-7.4,2.4
				C207.6,162.7,205.9,162.5,204.3,162z"/>
			<path class="st3" d="M223.5,150.5c0-4.1,0.9-7.3,2.8-9.4s4.6-3.2,8.1-3.2c3.2,0,5.6,1,7.2,3.1c1.6,2.1,2.4,5,2.4,8.9
				c0,0.3-0.2,0.7-0.7,1.3c-0.4,0.6-0.8,0.8-1.1,0.8h-13.8c0.2,2.3,0.8,4,1.9,5.1c1.1,1.1,2.6,1.6,4.7,1.6c1.2,0,2.2-0.1,3.1-0.4
				s1.6-0.6,2.3-0.9c0.6-0.3,1-0.5,1.1-0.5c0.3,0,0.7,0.4,1.2,1.1c0.4,0.7,0.7,1.2,0.7,1.6c0,0.5-0.4,1-1.2,1.4
				c-0.8,0.5-1.9,0.9-3.2,1.2c-1.3,0.3-2.6,0.5-3.9,0.5C227.3,162.7,223.5,158.7,223.5,150.5z M239.1,148.5c0-2.1-0.4-3.7-1.2-4.9
				c-0.8-1.1-2-1.7-3.7-1.7c-3.5,0-5.4,2.2-5.8,6.5H239.1z"/>
			<path class="st3" d="M249.7,161.3v-15.7c0-2-0.1-3.5-0.3-4.4c-0.2-0.9-0.3-1.4-0.3-1.6c0-0.4,0.4-0.7,1.2-0.9
				c0.8-0.2,1.5-0.3,2.1-0.3c0.5,0,0.8,0.2,1,0.6c0.2,0.4,0.4,0.9,0.5,1.4c0.1,0.5,0.2,0.8,0.2,1c1.6-2.3,3.3-3.5,5.2-3.5
				c0.9,0,1.6,0.2,2,0.6c0.4,0.4,0.7,0.9,0.7,1.4c0,0.6-0.1,1.2-0.3,1.8c-0.2,0.7-0.5,1-0.7,1c-0.2,0-0.5-0.1-0.9-0.2
				c-0.4-0.2-0.9-0.2-1.5-0.2c-1,0-1.8,0.3-2.5,0.9c-0.7,0.6-1.2,1.2-1.6,1.7v16.2c0,0.8-0.7,1.1-2.1,1.1h-0.5
				C250.4,162.5,249.7,162.1,249.7,161.3z"/>
			<path class="st3" d="M271.1,161.7l-7.4-21.9c-0.1-0.4-0.1-0.6-0.1-0.7c0-0.6,0.7-0.8,2.2-0.8h0.6c1.2,0,1.9,0.3,2.1,0.8l4.1,12.9
				c0.3,0.9,0.8,2.8,1.5,5.7h0.2l0.4-1.8c0.3-1.4,0.6-2.7,1-3.9l4.1-13c0.2-0.5,0.8-0.8,2.1-0.8h0.5c1.3,0,2,0.3,2,0.8
				c0,0.2,0,0.4-0.1,0.7l-7.4,21.9c-0.2,0.5-0.8,0.8-2.1,0.8h-1.6C271.9,162.5,271.3,162.2,271.1,161.7z"/>
			<path class="st3" d="M288.8,133.1v-2.7c0-0.9,0.8-1.3,2.5-1.3c1.6,0,2.4,0.4,2.4,1.3v2.7c0,0.9-0.8,1.3-2.5,1.3
				C289.6,134.4,288.8,134,288.8,133.1z M288.9,161.3v-21.9c0-0.8,0.7-1.2,2.1-1.2h0.5c1.4,0,2.1,0.4,2.1,1.2v21.9
				c0,0.8-0.7,1.1-2.1,1.1H291C289.6,162.5,288.9,162.1,288.9,161.3z"/>
			<path class="st3" d="M302.3,159.8c-1.9-2-2.8-5.1-2.8-9.4c0-4.3,1-7.5,3.1-9.4c2-1.9,4.7-2.9,8.1-2.9c1.8,0,3.4,0.2,4.9,0.7
				c1.5,0.5,2.2,1.1,2.2,1.7c0,0.4-0.2,1-0.6,1.7c-0.4,0.7-0.8,1.1-1.2,1.1c0,0-0.2-0.1-0.6-0.2c-0.7-0.3-1.4-0.6-2.1-0.8
				c-0.7-0.2-1.6-0.3-2.6-0.3c-2.1,0-3.6,0.7-4.7,2c-1.1,1.3-1.6,3.4-1.6,6.3c0,3,0.5,5.2,1.5,6.6c1,1.4,2.7,2,5,2
				c1.1,0,2-0.1,2.8-0.3c0.8-0.2,1.5-0.5,2.2-0.9c0.4-0.1,0.6-0.2,0.6-0.2c0.3,0,0.7,0.3,1.1,1c0.4,0.7,0.6,1.2,0.6,1.6
				c0,0.7-0.8,1.3-2.4,1.8c-1.6,0.5-3.3,0.8-5,0.8C307.1,162.7,304.2,161.7,302.3,159.8z"/>
			<path class="st3" d="M321.9,150.5c0-4.1,0.9-7.3,2.8-9.4c1.9-2.1,4.6-3.2,8-3.2c3.2,0,5.6,1,7.2,3.1c1.6,2.1,2.4,5,2.4,8.9
				c0,0.3-0.2,0.7-0.7,1.3c-0.4,0.6-0.8,0.8-1.1,0.8h-13.8c0.2,2.3,0.8,4,1.9,5.1c1.1,1.1,2.6,1.6,4.7,1.6c1.2,0,2.2-0.1,3.1-0.4
				s1.6-0.6,2.3-0.9c0.6-0.3,1-0.5,1.1-0.5c0.3,0,0.7,0.4,1.2,1.1c0.4,0.7,0.7,1.2,0.7,1.6c0,0.5-0.4,1-1.2,1.4
				c-0.8,0.5-1.9,0.9-3.2,1.2c-1.3,0.3-2.6,0.5-3.9,0.5C325.8,162.7,321.9,158.7,321.9,150.5z M337.6,148.5c0-2.1-0.4-3.7-1.2-4.9
				c-0.8-1.1-2-1.7-3.7-1.7c-3.5,0-5.4,2.2-5.8,6.5H337.6z"/>
		</g>
		<g class="st5">
			<path class="st3" d="M202.8,213.3v-19.1h-1.6c-0.4,0-0.6-0.1-0.8-0.4c-0.2-0.3-0.3-0.7-0.3-1.3V192c0-0.6,0.1-1,0.3-1.3
				c0.2-0.3,0.4-0.4,0.8-0.4h1.6v-4.1c0-2.5,0.6-4.2,1.8-5.2c1.2-1,2.6-1.5,4.4-1.5c2.5,0,3.7,0.5,3.7,1.6c0,0.3-0.1,0.8-0.3,1.5
				c-0.2,0.7-0.5,1-0.8,1c-0.2,0-0.4,0-0.7-0.1c-0.3-0.1-0.7-0.1-1.1-0.1c-0.7,0-1.3,0.2-1.7,0.6c-0.4,0.4-0.6,1.2-0.6,2.4v3.9h3.5
				c0.4,0,0.6,0.1,0.8,0.4c0.2,0.3,0.3,0.7,0.3,1.3v0.6c0,0.6-0.1,1-0.3,1.3c-0.2,0.3-0.4,0.4-0.8,0.4h-3.5v19.1
				c0,0.8-0.7,1.1-2.1,1.1h-0.5C203.4,214.5,202.8,214.1,202.8,213.3z"/>
			<path class="st3" d="M217.3,212.9c-1.3-1.2-2-2.9-2-5.1c0-3.1,1.3-5.3,3.9-6.5c2.6-1.2,6.2-1.9,10.8-1.9v-2
				c0-1.1-0.4-1.9-1.1-2.6c-0.7-0.6-1.9-1-3.5-1c-1.3,0-2.4,0.1-3.3,0.4c-0.9,0.3-1.7,0.6-2.4,0.9c-0.7,0.3-1,0.5-1.1,0.5
				c-0.3,0-0.7-0.4-1.2-1.1c-0.4-0.7-0.7-1.3-0.7-1.6c0-0.4,0.4-0.9,1.2-1.4c0.8-0.5,1.9-0.9,3.2-1.2c1.3-0.3,2.8-0.5,4.3-0.5
				c3,0,5.3,0.7,6.9,2c1.6,1.3,2.4,3.1,2.4,5.4v9.8c0,2.1,0.1,3.5,0.3,4.5s0.3,1.4,0.3,1.6c0,0.4-0.4,0.7-1.1,0.9
				c-0.8,0.2-1.4,0.3-2.1,0.3c-0.5,0-0.8-0.2-1-0.7c-0.2-0.5-0.4-1-0.5-1.5c-0.1-0.5-0.2-0.9-0.2-1.1c-0.8,1-1.9,1.8-3.1,2.5
				c-1.2,0.7-2.7,1-4.3,1C220.5,214.7,218.6,214.1,217.3,212.9z M227.1,209.9c1-0.6,1.9-1.3,2.8-2.3v-4.6c-3,0-5.4,0.3-7.1,0.9
				s-2.7,1.8-2.7,3.6c0,1,0.3,1.8,0.9,2.4c0.6,0.6,1.4,0.9,2.6,0.9C224.9,210.8,226.1,210.5,227.1,209.9z"/>
			<path class="st3" d="M241.9,185.1v-2.7c0-0.9,0.8-1.3,2.5-1.3c1.6,0,2.4,0.4,2.4,1.3v2.7c0,0.9-0.8,1.3-2.5,1.3
				C242.7,186.4,241.9,186,241.9,185.1z M241.9,213.3v-21.9c0-0.8,0.7-1.2,2.1-1.2h0.5c1.4,0,2.1,0.4,2.1,1.2v21.9
				c0,0.8-0.7,1.1-2.1,1.1h-0.5C242.7,214.5,241.9,214.1,241.9,213.3z"/>
			<path class="st3" d="M255.7,213.2c-1.2-1-1.8-2.7-1.8-5.1v-27.1c0-0.8,0.7-1.2,2.1-1.2h0.5c1.4,0,2.1,0.4,2.1,1.2v26.9
				c0,1.1,0.2,1.9,0.6,2.3c0.4,0.4,1,0.7,1.7,0.7c0.4,0,0.8,0,1.1-0.1c0.3-0.1,0.5-0.1,0.7-0.1c0.3,0,0.6,0.3,0.8,1
				c0.2,0.7,0.3,1.2,0.3,1.5c0,1.1-1.2,1.7-3.7,1.7C258.3,214.7,256.9,214.2,255.7,213.2z"/>
			<path class="st3" d="M269.2,212.8c-1.3-1.3-1.9-3.1-1.9-5.5v-15.9c0-0.8,0.7-1.2,2.1-1.2h0.5c1.4,0,2.1,0.4,2.1,1.2v15.3
				c0,1.3,0.4,2.2,1.1,2.9c0.7,0.7,1.7,1,3.1,1c1,0,1.9-0.3,2.9-0.9c0.9-0.6,1.7-1.3,2.3-2.2v-16.2c0-0.8,0.7-1.2,2.1-1.2h0.5
				c1.4,0,2.1,0.4,2.1,1.2v15.8c0,2.1,0.1,3.5,0.3,4.5c0.2,0.9,0.3,1.4,0.3,1.6c0,0.4-0.4,0.7-1.2,0.9c-0.8,0.2-1.5,0.3-2.1,0.3
				c-0.5,0-0.8-0.2-1-0.7c-0.2-0.5-0.4-1-0.5-1.5c-0.1-0.5-0.2-0.9-0.2-1.1c-0.9,1.1-2,1.9-3.2,2.6c-1.3,0.6-2.5,0.9-3.9,0.9
				C272.2,214.7,270.4,214.1,269.2,212.8z"/>
			<path class="st3" d="M293.4,213.3v-15.7c0-2-0.1-3.5-0.3-4.4c-0.2-0.9-0.3-1.4-0.3-1.6c0-0.4,0.4-0.7,1.2-0.9
				c0.8-0.2,1.5-0.3,2.1-0.3c0.5,0,0.8,0.2,1,0.6c0.2,0.4,0.4,0.9,0.5,1.4c0.1,0.5,0.2,0.8,0.2,1c1.6-2.3,3.3-3.5,5.2-3.5
				c0.9,0,1.6,0.2,2,0.6c0.4,0.4,0.7,0.9,0.7,1.4c0,0.6-0.1,1.2-0.3,1.8c-0.2,0.7-0.5,1-0.7,1c-0.2,0-0.5-0.1-0.9-0.2
				c-0.4-0.2-0.9-0.2-1.5-0.2c-1,0-1.8,0.3-2.5,0.9c-0.7,0.6-1.2,1.2-1.6,1.7v16.2c0,0.8-0.7,1.1-2.1,1.1h-0.5
				C294.1,214.5,293.4,214.1,293.4,213.3z"/>
			<path class="st3" d="M308.8,202.5c0-4.1,0.9-7.3,2.8-9.4c1.9-2.1,4.6-3.2,8-3.2c3.2,0,5.6,1,7.2,3.1c1.6,2.1,2.4,5,2.4,8.9
				c0,0.3-0.2,0.7-0.7,1.3c-0.4,0.6-0.8,0.8-1.1,0.8h-13.8c0.2,2.3,0.8,4,1.9,5.1c1.1,1.1,2.6,1.6,4.7,1.6c1.2,0,2.2-0.1,3.1-0.4
				s1.6-0.6,2.3-0.9c0.6-0.3,1-0.5,1.1-0.5c0.3,0,0.7,0.4,1.2,1.1c0.4,0.7,0.7,1.2,0.7,1.6c0,0.5-0.4,1-1.2,1.4
				c-0.8,0.5-1.9,0.9-3.2,1.2c-1.3,0.3-2.6,0.5-3.9,0.5C312.7,214.7,308.8,210.7,308.8,202.5z M324.5,200.5c0-2.1-0.4-3.7-1.2-4.9
				c-0.8-1.1-2-1.7-3.7-1.7c-3.5,0-5.4,2.2-5.8,6.5H324.5z"/>
		</g>
	</g>
</g>
</svg>
