<?xml version="1.0" encoding="utf-8"?>
<!-- Generator: Adobe Illustrator 19.2.1, SVG Export Plug-In . SVG Version: 6.00 Build 0)  -->
<svg version="1.1" id="Layer_1" xmlns="http://www.w3.org/2000/svg" xmlns:xlink="http://www.w3.org/1999/xlink" x="0px" y="0px"
	 viewBox="0 0 436.3 436.3" style="enable-background:new 0 0 436.3 436.3;" xml:space="preserve">
<style type="text/css">
	.st0{fill:#FFFFFF;}
	.st1{fill:#727F9B;}
	.st2{fill:#D0DAED;}
	.st3{fill:#515A6D;}
	.st4{fill:#E58231;}
	.st5{fill:#F5CCB1;}
	.st6{enable-background:new    ;}
</style>
<g id="working_artboard">
</g>
<g id="Layer_1_1_">
	<circle id="circle_25_" class="st0" cx="218.2" cy="218.2" r="216.8"/>
	<path id="circle-stroke_28_" class="st1" d="M433.5,218.2c-0.1,44.5-13.9,88.2-39.6,124.5c-25.2,35.6-61.3,63.1-102.3,78
		c-42.4,15.4-89.5,17-132.8,4.5c-41.8-12-79.3-36.8-106.9-70.3c-57.4-69.6-64.7-170.9-18-248.1C56.2,69.8,89.7,40,129,22.1
		c41.3-18.8,88.4-24,132.8-14.8c86.5,17.8,155,89.4,169,176.7C432.6,195.2,433.5,206.7,433.5,218.2c0,1.8,2.9,1.8,2.9,0
		c-0.1-45.2-14.1-89.7-40.4-126.5c-25.4-35.6-61.3-63.1-102.3-78.3c-43-15.9-90.9-17.7-135-5.2c-42.5,12-80.8,37.2-108.9,71.2
		C21.5,113.7,4.2,156.3,0.7,200.7C-2.9,246,7.8,292,31.4,330.9c22.7,37.6,56.8,68,96.9,86.1c41.4,18.7,88.4,24,133,15.1
		c43.5-8.7,83.8-30.9,114.4-62.9c30.8-32.1,51.3-73.4,58.1-117.4c1.7-11.1,2.6-22.4,2.6-33.6C436.4,216.3,433.5,216.3,433.5,218.2z"
		/>
	<path id="connector-fill_4_" class="st0" d="M250,315.4c-19.1,0-37.4,0-56.5,0c0-5.3,0-8.8,0-11c0-2.4,0-3.3,0-3.4
		c0-2.5,0-6.6,0-13.1c0-5.7,0-11.4,0-17.2c0-7.7-12-7.7-12,0c0,40.2,0,6.7,0,44.6c-17.7,0-36.2,0-53.8,0c-3.7,0-7.4,0-11.2,0
		c0-39.5,0-77,0-116.5c0-5.7,0-11.4,0-17.2c0-7.7-12-7.7-12,0c0,40.8,0,79.6,0,120.4c0,5.7,0,11.4,0,17.2c0,0.6,0.1,1.2,0.2,1.7
		c-0.2,3.1,1.7,6.4,5.8,6.4c40.8,0,81.6,0,122.4,0c5.7,0,11.4,0,17.2,0C257.7,327.4,257.7,315.4,250,315.4z"/>
	<path id="connector-stroke_3_" class="st1" d="M250.3,314.4c-19.1,0-38.3,0-57.4,0c0.5,0.5,1,1,1.5,1.5c0-6,0-12.1,0-18.1
		c0-4.4,0-8.7,0-13.1c0-4.6,0.7-9.8-0.1-14.3c-1.3-7.9-13.1-8.4-14.8-0.4c-1.2,5.9-0.1,13.1-0.1,19.2c0,1.7,0,3.4,0,5.2
		c0,7.2,0,14.4,0,21.6c0.5-0.5,1-1,1.5-1.5c-21.3,0-42.7,0-64,0c0.5,0.5,1,1,1.5,1.5c0-37.2,0-74.4,0-111.5c0-4.2,0-8.4,0-12.5
		c0-3.6,0.7-7.9-0.2-11.4c-0.9-3.3-3.8-5.4-7.3-5.4c-3.4,0-6.4,2.1-7.3,5.4c-0.8,3-0.2,6.6-0.2,9.7c0,4.9,0,9.8,0,14.6
		c0,37.1,0,74.1,0,111.2c0,4.7-0.4,11.1,5.1,13c3.1,1.1,7,0.4,10.3,0.4c4.9,0,9.9,0,14.8,0c19.1,0,38.2,0,57.2,0
		c10.5,0,21.1,0,31.6,0c5.2,0,10.4,0,15.6,0c4.4,0,9.3,0.6,13.6-0.1c8.8-1.5,7.4-14.3-1.2-14.9c-1.9-0.1-1.9,2.9,0,3
		c3,0.2,4.9,2.7,4.2,5.7c-0.8,3.1-3.4,3.2-6.1,3.3c-7.7,0.2-15.4,0-23.1,0c-15.1,0-30.3,0-45.4,0s-30.3,0-45.4,0c-7,0-14.8,1-21.7,0
		c-2.6-0.4-3.8,1.4-6-3c-0.7-1.3-0.4-4.1-0.4-5.5c-0.1-4.1,0-8.3,0-12.4c0-29.4,0-58.8,0-88.1c0-7.1,0-14.3,0-21.4
		c0-4.5-2.5-18,4.5-18c6.9,0,4.5,11.4,4.5,15.7c0,7.5,0,14.9,0,22.4V316c0,0.8,0.7,1.5,1.5,1.5h64c0.8,0,1.5-0.7,1.5-1.5v-30.1
		c0-2.5,0-5,0-7.5c0-3-1-8.3,1.6-10.4c2.3-1.8,6.1-0.9,7.1,1.9c1.2,3.1,0.2,7.8,0.2,11v35c0,0.8,0.7,1.5,1.5,1.5h57.4
		C252.3,317.4,252.3,314.4,250.3,314.4z"/>
	<path id="connection-line_4_" class="st1" d="M288.4,323.2l-25.1,0.7c-8.4,0.2-16.7,0.5-25.1,0.6c-16.7,0.4-33.5,0.6-50.2,1.1
		l-2.6,0.1l-0.1-2.8c-0.2-4.3-0.4-8.6-0.4-12.9s0.1-8.6,0.3-12.9s0.5-8.6,0.9-12.9s0.9-8.6,1.6-12.9h0.6c0.7,4.3,1.2,8.6,1.6,12.9
		c0.4,4.3,0.7,8.6,0.9,12.9s0.4,8.6,0.3,12.9c0,4.3-0.2,8.6-0.4,12.9l-2.7-2.7c16.7,0.4,33.5,0.7,50.2,1.1
		c8.4,0.1,16.7,0.4,25.1,0.6l25.1,0.7V323.2z"/>
	<circle id="circle_33_" class="st2" cx="111.9" cy="143" r="43.5"/>
	<path id="circle-stroke_36_" class="st1" d="M153.9,143c-0.3,17.5-11,33.5-27.6,39.5c-16.3,5.9-35,1-46.2-12.2
		c-11.5-13.4-13.3-33.2-4.3-48.5c8.9-15.2,26.8-23.4,44.1-20.1C139.6,105.5,153.6,123,153.9,143c0,1.9,3,1.9,3,0
		c-0.3-18.8-11.9-35.9-29.8-42.3c-17.7-6.4-38.1-0.6-50,14c-11.8,14.6-13.4,35.6-3.6,51.6c9.7,16,28.8,24.4,47.1,20.9
		c21.1-4.1,36-22.9,36.3-44.1C156.9,141,153.9,141,153.9,143z"/>
	<path id="s_7_" class="st3" d="M83.8,134.1c0.6,0.1,1,0.3,1.4,0.5s0.5,0.4,0.5,0.7s-0.1,0.6-0.3,1c-0.2,0.4-0.4,0.6-0.6,0.6
		c0,0-0.2,0-0.4-0.1c-0.3-0.1-0.6-0.3-0.9-0.3s-0.7-0.1-1.2-0.1c-0.8,0-1.3,0.2-1.7,0.5c-0.4,0.3-0.5,0.7-0.5,1.2
		c0,0.4,0.1,0.7,0.3,1c0.2,0.3,0.5,0.5,0.8,0.6c0.3,0.2,0.8,0.4,1.4,0.6c0.8,0.3,1.5,0.6,2,0.9c0.5,0.3,1,0.7,1.3,1.3
		s0.6,1.3,0.6,2.2c0,1.5-0.4,2.6-1.3,3.3s-2,1.1-3.4,1.1c-0.9,0-1.7-0.1-2.4-0.3s-1.3-0.4-1.7-0.7s-0.6-0.5-0.6-0.7s0.1-0.4,0.2-0.7
		s0.3-0.5,0.5-0.7s0.3-0.3,0.5-0.3c0.1,0,0.3,0.1,0.5,0.2c0.4,0.2,0.9,0.4,1.3,0.6c0.4,0.1,0.9,0.2,1.5,0.2s1.2-0.2,1.6-0.5
		s0.7-0.8,0.7-1.4c0-0.4-0.1-0.7-0.3-1c-0.2-0.3-0.5-0.5-0.8-0.7s-0.8-0.4-1.4-0.6c-0.4-0.1-0.6-0.2-0.7-0.3
		c-0.6-0.3-1.2-0.6-1.6-0.9s-0.8-0.7-1.1-1.3c-0.3-0.5-0.4-1.2-0.4-2c0-0.9,0.2-1.6,0.7-2.3c0.4-0.6,1-1.1,1.8-1.4
		c0.7-0.3,1.6-0.5,2.4-0.5C82.6,133.9,83.2,134,83.8,134.1z"/>
	<path id="e_13_" class="st3" d="M96.5,139.3c0.7,1,1.1,2.3,1.1,4c0,0.2-0.1,0.4-0.4,0.7s-0.4,0.4-0.6,0.4h-5.8
		c0.1,0.9,0.3,1.6,0.8,2c0.4,0.4,1.1,0.6,1.9,0.6c0.5,0,0.9-0.1,1.2-0.2s0.7-0.3,1.1-0.4c0.2-0.1,0.4-0.1,0.4-0.1
		c0.2,0,0.4,0.2,0.6,0.5c0.2,0.4,0.3,0.6,0.3,0.8c0,0.3-0.2,0.5-0.6,0.7s-0.9,0.4-1.5,0.5s-1.2,0.2-1.7,0.2c-1.8,0-3.2-0.5-4-1.4
		s-1.3-2.3-1.3-4.1c0-1.9,0.4-3.4,1.3-4.3c0.9-0.9,2.1-1.4,3.7-1.4C94.6,137.9,95.8,138.4,96.5,139.3z M90.8,142.4H95
		c0-0.8-0.2-1.4-0.5-1.9c-0.3-0.4-0.8-0.7-1.4-0.7C91.8,139.8,91,140.7,90.8,142.4z"/>
	<path id="r_7_" class="st3" d="M106,137.9c0.2,0.2,0.3,0.4,0.3,0.7s-0.1,0.6-0.2,1s-0.2,0.6-0.4,0.6c-0.1,0-0.2,0-0.4-0.1
		s-0.4-0.1-0.6-0.1c-0.4,0-0.8,0.1-1.1,0.4c-0.3,0.3-0.5,0.5-0.2,0.8v7.1c-0.5,0.4-0.9,0.6-1.6,0.2h-0.4c-0.7,0.4-1.1,0.2-1-0.2
		v-6.9c-0.1-0.9-0.2-1.6-0.3-2c-0.1-0.4-0.1-0.7-0.1-0.8c0-0.2,0.2-0.3,0.7-0.5c0.5-0.1,0.9-0.2,1.2-0.2c0.2,0,0.4,0.1,0.5,0.3
		s0.2,0.4,0.2,0.6c0,0.2,0.1,0.4,0.1,0.5c0.3-0.5,0.7-0.9,1-1.2c0.4-0.3,0.8-0.4,1.3-0.4C105.5,137.6,105.8,137.7,106,137.9z"/>
	<path id="v_7_" class="st3" d="M116.7,137.8c0,0.1,0,0.2-0.1,0.4l-3.3,9.8c-0.1,0.3-0.4,0.4-1,0.4h-0.7c-0.6,0-1-0.1-1.1-0.4
		l-3.3-9.9c-0.1-0.1-0.1-0.3-0.1-0.3c0-0.3,0.4-0.4,1.1-0.4h0.4c0.6,0,1,0.1,1.1,0.4l1.6,5l0.5,1.8l0.2,0.8h0.1
		c0.2-1.1,0.4-2,0.6-2.6l1.6-5c0.1-0.3,0.5-0.4,1.1-0.4h0.3C116.3,137.4,116.7,137.5,116.7,137.8z"/>
	<path id="i_7_" class="st3" d="M121.4,133.5v1.5c0,0.2-0.1,0.3-0.3,0.4c-0.2,0.1-0.5,0.1-0.9-0.1h-0.5c-0.4,0.2-0.7,0.2-0.9,0.1
		c-0.2-0.1-0.3-0.2-0.6-0.4v-1.5c0.3-0.4,0.7-0.6,1.4-1.1h0.5C121,132.9,121.4,133.1,121.4,133.5z M121.4,138.3v9.9
		c0,0.4-0.4,0.6-1.1,0.2h-0.4c-0.7,0.4-1.1,0.2-1.4-0.2v-9.9c0.3-0.4,0.7-0.6,1.4-0.9h0.4C121,137.7,121.4,137.9,121.4,138.3z"/>
	<path id="c_6_" class="st3" d="M131.7,138c0.7,0.2,1.1,0.5,1.1,0.9c0,0.2-0.1,0.5-0.4,0.9c-0.2,0.4-0.4,0.6-0.6,0.6
		c0,0-0.1,0-0.3-0.1c-0.6-0.3-1.3-0.5-2-0.5c-0.9,0-1.5,0.3-2,0.9c-0.4,0.6-0.7,1.5-0.7,2.7s0.2,2.1,0.6,2.7c0.4,0.6,1.1,0.9,2,0.9
		c0.7,0,1.5-0.2,2.2-0.5c0.2-0.1,0.3-0.1,0.3-0.1c0.2,0,0.4,0.2,0.6,0.5c0.2,0.4,0.3,0.7,0.3,0.9c0,0.3-0.2,0.5-0.6,0.7
		s-0.9,0.4-1.5,0.5s-1.1,0.1-1.5,0.1c-1.8,0-3.1-0.5-3.9-1.4c-0.9-0.9-1.3-2.3-1.3-4.2s0.5-3.4,1.4-4.3c0.9-0.9,2.2-1.4,3.9-1.4
		C130.2,137.6,131,137.7,131.7,138z"/>
	<path id="e_14_" class="st3" d="M143,139.3c0.7,1,1.1,2.3,1.1,4c0,0.2-0.1,0.4-0.4,0.7s-0.4,0.4-0.6,0.4h-5.8
		c0.1,0.9,0.3,1.6,0.8,2c0.4,0.4,1.1,0.6,1.9,0.6c0.5,0,0.9-0.1,1.2-0.2s0.7-0.3,1.1-0.4c0.2-0.1,0.4-0.1,0.4-0.1
		c0.2,0,0.4,0.2,0.6,0.5c0.2,0.4,0.3,0.6,0.3,0.8c0,0.3-0.2,0.5-0.6,0.7s-0.9,0.4-1.5,0.5s-1.2,0.2-1.7,0.2c-1.8,0-3.2-0.5-4-1.4
		s-1.3-2.3-1.3-4.1c0-1.9,0.4-3.4,1.3-4.3c0.9-0.9,2.1-1.4,3.7-1.4C141.2,137.9,142.3,138.4,143,139.3z M137.4,142.4h4.1
		c0-0.8-0.2-1.4-0.5-1.9c-0.3-0.4-0.8-0.7-1.4-0.7C138.3,139.8,137.6,140.7,137.4,142.4z"/>
	<path id="highlight_22_" class="st0" d="M120,114.6c5.7,0.5,10.7,3.6,13.8,8.4c0.8-0.6,1.6-1.2,2.4-1.8c-4.1-4.3-8.8-8.2-15.1-7.8
		c-1.3,0.1-2.2,2.1-0.8,2.8c3.9,1.8,7,4.5,9,8.3c0.9,1.7,3.5,0.2,2.6-1.5c-2.3-4.2-5.7-7.5-10.1-9.4c-0.3,0.9-0.5,1.9-0.8,2.8
		c5.5-0.3,9.4,3.2,13,6.9c1.2,1.2,3.3-0.4,2.4-1.8c-3.7-5.8-9.6-9.3-16.4-9.9C118.1,111.4,118.1,114.4,120,114.6z"/>
	<path id="highlight_23_" class="st0" d="M83.7,161.7c4.4,9.9,14.9,13.2,24.8,14.9c1.6,0.3,2.6-1.8,1.2-2.7c-5-3.3-10-6.6-15.1-9.9
		c-1.3-0.9-2.7,0.8-2.1,2.1c1.3,2.4,2.8,4.3,4.8,6.1c0.5-0.8,1-1.7,1.5-2.5c-6.4-1.4-9.6-7.1-12.4-12.5c-0.9-1.7-3.5-0.2-2.6,1.5
		c3.2,6.2,6.9,12.3,14.2,13.9c1.4,0.3,2.6-1.5,1.5-2.5c-1.8-1.6-3.2-3.3-4.4-5.5c-0.7,0.7-1.4,1.4-2.1,2.1c5,3.3,10,6.6,15.1,9.9
		c0.4-0.9,0.8-1.8,1.2-2.7c-9.2-1.6-18.9-4.2-23-13.5C85.5,158.4,82.9,159.9,83.7,161.7z"/>
	<g id="cb-stroke_6_">
		<path class="st1" d="M165.4,303.4h-30c-1.7,0-3,1.3-3,3v11h36v-11C168.4,304.8,167.1,303.4,165.4,303.4z"/>
		<path class="st1" d="M132.4,336.4c0,1.7,1.3,3,3,3h30c1.7,0,3-1.3,3-3v-10h-36V336.4z"/>
	</g>
	<path id="cb-open-fill_1_" class="st4" d="M166.4,322.4v-16c0-0.6-0.4-1-1-1h-30c-0.6,0-1,0.4-1,1v30c0,0.6,0.4,1,1,1h30
		c0.6,0,1-0.4,1-1V322.4"/>
	<path id="cb-open-highlight_5_" class="st5" d="M160.4,318.4c0,0,0,8.3,0,12.5c0,0.4,0,0.7-0.2,1c-0.3,0.4-0.8,0.4-1.3,0.4
		c-4.2,0.1-8.3-0.2-12.4-0.9c3.6-1.1,7.6-0.4,11.4-0.7c0.4,0,0.8-0.1,1.1-0.3c0.5-0.4,0.6-1.1,0.7-1.7c0.4-4.5,0.5-9.1,0.3-13.7"/>
	<path id="cb-open-highlight_4_" class="st5" d="M158.4,318.2c0,1.9,0,3.9,0,5.8c0,1.4,0.6,5.1,0,6.3c-0.4,0.9-0.7,0.6-1.9,0.6
		c-1,0-2.1,0-3.1-0.1c-2.3-0.1-4.7-0.4-7-0.7c0,1,0,1.9,0,2.9c3.2-0.8,6.4-0.4,9.6-0.5c1.4-0.1,2.7,0,3.6-1.1c1.4-1.6,1-4.6,1.1-6.5
		c0.2-3.2,0.2-6.3,0.1-9.5c-0.1-1.9-3-1.9-3,0c0.1,2,0.1,4.1,0.1,6.1c0,2.1,0.4,5.5-1.1,7.1s-3.8,0.9-5.9,0.9
		c-1.8,0-3.6,0.2-5.4,0.7c-1.3,0.3-1.5,2.6,0,2.9c3,0.4,6,0.8,9,0.9c1.7,0.1,4.3,0.6,5.8-0.6c1.3-1.1,1-3.3,1-4.8
		c0-3.4,0-6.8,0-10.2C161.4,316.2,158.4,316.2,158.4,318.2z"/>
	<path id="cb-open-highlight_3_" class="st5" d="M138.9,314.3c0.1-0.6,0-1.3,0-2s0.1-1.4,0.6-1.8c0.4-0.3,0.8-0.5,1.3-0.6
		c1.3-0.3,2.7-0.4,4.1-0.3"/>
	<path id="cb-open-highlight_2_" class="st5" d="M140.4,314.3c0.1-0.8-0.4-2.3,0.5-2.8c1.1-0.5,2.9-0.4,4.1-0.3c1.9,0.1,1.9-2.9,0-3
		s-4.6-0.2-6.2,1c-1.7,1.3-1.2,3.2-1.4,5C137.3,316.2,140.3,316.2,140.4,314.3z"/>
	<circle id="circle_21_" class="st2" cx="187.5" cy="266.2" r="20.2"/>
	<path id="circle-stroke_24_" class="st1" d="M206.2,266.2c-0.3,10.1-8.3,18.8-18.7,18.7c-10.2-0.1-18.7-8.5-18.7-18.7
		c0-10,8.1-18.3,18-18.7C197.5,247.1,205.9,255.7,206.2,266.2c0.1,1.9,3.1,1.9,3,0c-0.4-11.8-9.6-21.7-21.7-21.7
		c-11.8,0-21.7,9.9-21.7,21.7c0,11.8,9.9,21.7,21.7,21.7c12.1,0,21.3-9.9,21.7-21.7C209.3,264.2,206.3,264.2,206.2,266.2z"/>
	<path id="highlight_21_" class="st0" d="M178.8,260.8c1.8-3.4,5.3-5.3,9.1-5.1c1.9,0.1,1.9-2.9,0-3c-4.9-0.3-9.4,2.3-11.7,6.6
		C175.3,261,177.9,262.5,178.8,260.8z"/>
	<path id="highlight_20_" class="st0" d="M186.8,279.1c9.1,1.9,16.4-5.4,14.9-14.5c-0.3-1.6-2.4-1.3-2.9,0c-1.5,4.2-3.7,8.1-8.2,9.4
		c-3.8,1.1-8,1.4-11.9,1.3c-1.9,0-1.9,3,0,3c4.9,0.1,11.1-0.1,15.6-2.4c3.9-2.1,6-6.5,7.5-10.5c-1,0-1.9,0-2.9,0
		c1.2,6.8-4.5,12.2-11.2,10.8C185.7,275.8,184.9,278.7,186.8,279.1z"/>
	<circle id="circle_16_" class="st2" cx="288.8" cy="322.9" r="43.5"/>
	<path id="circle-stroke_20_" class="st1" d="M330.8,322.9c-0.3,17.5-11,33.5-27.6,39.5c-16.3,5.9-35,1-46.2-12.2
		c-11.5-13.4-13.3-33.2-4.3-48.5c8.9-15.2,26.8-23.4,44.1-20.1C316.5,285.4,330.5,302.9,330.8,322.9c0,1.9,3,1.9,3,0
		c-0.3-18.8-11.9-35.9-29.8-42.3c-17.7-6.4-38.1-0.6-50,14c-11.8,14.6-13.4,35.6-3.6,51.6c9.7,16,28.8,24.4,47.1,20.9
		c21.1-4.1,36-22.9,36.3-44.1C333.8,320.9,330.8,320.9,330.8,322.9z"/>
	<path id="a_4_" class="st3" d="M276.8,312.8l4.8,13.8c0,0.1,0.1,0.2,0.1,0.3c0,0.3-0.3,0.4-1,0.4h-1.1c-0.6,0-0.9-0.1-1-0.4
		l-0.9-2.6h-4.9l-0.9,2.6c-0.1,0.2-0.4,0.4-0.8,0.4h-1c-0.8,0-1.2-0.1-1.2-0.4c0,0,0-0.2,0.1-0.4l4.8-13.8c0.1-0.3,0.5-0.4,1.1-0.4
		h0.9C276.4,312.4,276.7,312.5,276.8,312.8z M275.2,316.4c0,0.1,0,0.2-0.1,0.5c0,0.3-0.1,0.5-0.2,0.8l-1.6,4.7h3.8l-1.6-4.7
		C275.5,317.4,275.4,316.9,275.2,316.4L275.2,316.4z"/>
	<path id="p_8_" class="st3" d="M291.2,317.3c0.6,0.5,1.1,1.1,1.4,2s0.5,1.9,0.5,3c0,1.8-0.4,3.1-1.2,4.1s-1.9,1.5-3.2,1.5
		c-0.9,0-1.7-0.3-2.3-0.8v4.4c-0.1,0.4-0.5,0.6-1.3,0.9h-0.4c-0.7-0.3-1.1-0.5-1.3-0.9v-11.2c0.2-0.9,0.2-1.6,0.1-2.1
		c-0.1-0.4-0.1-0.7-0.1-0.8c0-0.2,0.2-0.3,0.7-0.5s0.9-0.2,1.2-0.2c0.2,0,0.4,0.1,0.5,0.3c0.1,0.2,0.2,0.4,0.2,0.6s0.1,0.4,0.1,0.5
		c0.3-0.5,0.8-0.9,1.3-1.2c0.5-0.3,1.1-0.4,1.7-0.4C289.9,316.6,290.6,316.8,291.2,317.3z M287.4,319.1c-0.4,0.2-0.7,0.6-1,1v5.1
		c0.5,0.4,1.2,0.6,1.9,0.6c1.5,0,2.3-1.2,2.3-3.4c0-1.1-0.2-2-0.5-2.6s-0.8-0.9-1.5-0.9C288.1,318.8,287.8,318.9,287.4,319.1z"/>
	<path id="p_9_" class="st3" d="M303.6,317.3c0.6,0.5,1.1,1.1,1.4,2s0.5,1.9,0.5,3c0,1.8-0.4,3.1-1.2,4.1s-1.9,1.5-3.2,1.5
		c-0.9,0-1.7-0.3-2.7-0.8v4.4c0.2,0.4-0.2,0.6-0.9,0.9h-0.4c-0.7-0.3-1.1-0.5-1.7-0.9v-11.2c0.6-0.9,0.6-1.6,0.5-2.1
		c-0.1-0.4-0.1-0.7-0.1-0.8c0-0.2,0.2-0.3,0.7-0.5s0.9-0.2,1.2-0.2c0.2,0,0.4,0.1,0.5,0.3c0.1,0.2,0.2,0.4,0.2,0.6s0.1,0.4,0.1,0.5
		c0.3-0.5,0.8-0.9,1.3-1.2c0.5-0.3,1.1-0.4,1.7-0.4C302.3,316.6,303,316.8,303.6,317.3z M299.4,319.1c-0.4,0.2-0.7,0.6-1,1v5.1
		c0.5,0.4,1.2,0.6,1.9,0.6c1.5,0,2.3-1.2,2.3-3.4c0-1.1-0.2-2-0.5-2.6s-0.8-0.9-1.5-0.9C300.1,318.8,299.8,318.9,299.4,319.1z"/>
	<path id="highlight_19_" class="st0" d="M268.4,348.5c-1.9-2.8-3.8-5.7-5.6-8.5c-1.1-1.6-3.4-0.2-2.6,1.5c1.8,4,5.5,6.9,9.8,7.7
		c1.9,0.3,2.7-2.5,0.8-2.9c-3.6-0.7-6.5-2.9-8-6.3c-0.9,0.5-1.7,1-2.6,1.5c1.9,2.8,3.8,5.7,5.6,8.5
		C266.9,351.6,269.5,350.1,268.4,348.5z"/>
	<path id="highlight_18_" class="st0" d="M303.5,292.9c7.9,6.7,16.4,14.3,15.8,25.5c-0.1,2,2.8,1.9,3,0c1.4-13.7-8-25-21.5-26.8
		c-1.9-0.2-1.9,2.8,0,3c11.9,1.6,19.7,12,18.5,23.8c1,0,2,0,3,0c0.6-12.1-8.2-20.5-16.7-27.7C304.2,289.5,302.1,291.6,303.5,292.9z"
		/>
	<g>
		<g class="st6">
			<path class="st3" d="M196.1,125.2c0-0.2,0-0.4,0.1-0.7l10.7-30c0.2-0.5,0.9-0.8,2.1-0.8h1.6c1.2,0,1.9,0.3,2.1,0.8l10.7,30.1
				c0.1,0.3,0.1,0.5,0.1,0.7c0,0.6-0.7,0.8-2.1,0.8h-0.8c-1.2,0-1.9-0.3-2.1-0.8l-2.4-7h-12.7l-2.4,7c-0.2,0.5-0.9,0.8-1.9,0.8h-0.7
				C196.8,126,196.1,125.7,196.1,125.2z M214.6,114l-4.2-12.1c-0.1-0.4-0.2-0.9-0.3-1.5c-0.1-0.6-0.2-1-0.3-1.2h-0.1
				c-0.2,1.3-0.5,2.2-0.7,2.8l-4.2,12.1H214.6z"/>
			<path class="st3" d="M230.3,124.7c-1.3-1-2.4-2.5-3.1-4.3c-0.7-1.9-1.1-4-1.1-6.4c0-2.6,0.4-4.8,1.2-6.6c0.8-1.9,1.9-3.3,3.3-4.3
				c1.4-1,3.1-1.5,5-1.5c1.2,0,2.3,0.2,3.3,0.6c1,0.4,1.9,0.9,2.8,1.6V92.4c0-0.8,0.7-1.2,2.1-1.2h0.5c1.4,0,2.1,0.4,2.1,1.2v26.3
				c0,2.1,0.1,3.5,0.3,4.5s0.3,1.4,0.3,1.6c0,0.4-0.4,0.7-1.2,0.9c-0.8,0.2-1.5,0.3-2.1,0.3c-0.5,0-0.8-0.2-1-0.7
				c-0.2-0.5-0.4-0.9-0.5-1.4s-0.2-0.9-0.2-1c-2,2.3-4.4,3.5-7,3.5C233.2,126.2,231.7,125.7,230.3,124.7z M238.9,121.4
				c1-0.5,1.8-1.3,2.7-2.2v-12c-1.5-1.1-3.1-1.7-5-1.7c-1.9,0-3.3,0.7-4.2,2.1c-1,1.4-1.4,3.4-1.4,6c0,2.8,0.4,4.9,1.3,6.4
				c0.9,1.5,2.1,2.2,3.8,2.2C237,122.2,238,121.9,238.9,121.4z"/>
			<path class="st3" d="M256.3,124.7c-1.3-1-2.4-2.5-3.1-4.3c-0.7-1.9-1.1-4-1.1-6.4c0-2.6,0.4-4.8,1.2-6.6c0.8-1.9,1.9-3.3,3.3-4.3
				c1.4-1,3.1-1.5,5-1.5c1.2,0,2.3,0.2,3.3,0.6c1,0.4,1.9,0.9,2.8,1.6V92.4c0-0.8,0.7-1.2,2.1-1.2h0.5c1.4,0,2.1,0.4,2.1,1.2v26.3
				c0,2.1,0.1,3.5,0.3,4.5c0.2,0.9,0.3,1.4,0.3,1.6c0,0.4-0.4,0.7-1.2,0.9c-0.8,0.2-1.5,0.3-2.1,0.3c-0.5,0-0.8-0.2-1-0.7
				c-0.2-0.5-0.4-0.9-0.5-1.4c-0.1-0.5-0.2-0.9-0.2-1c-2,2.3-4.4,3.5-7,3.5C259.2,126.2,257.6,125.7,256.3,124.7z M264.9,121.4
				c1-0.5,1.8-1.3,2.7-2.2v-12c-1.5-1.1-3.1-1.7-5-1.7c-1.9,0-3.3,0.7-4.2,2.1c-1,1.4-1.4,3.4-1.4,6c0,2.8,0.4,4.9,1.3,6.4
				c0.9,1.5,2.1,2.2,3.8,2.2C263,122.2,264,121.9,264.9,121.4z"/>
			<path class="st3" d="M278.2,114c0-4.1,0.9-7.3,2.8-9.4c1.9-2.1,4.6-3.2,8-3.2c3.2,0,5.6,1,7.2,3.1c1.6,2.1,2.4,5,2.4,8.9
				c0,0.3-0.2,0.7-0.7,1.3c-0.4,0.6-0.8,0.8-1.1,0.8h-13.8c0.2,2.3,0.8,4,1.9,5.1c1.1,1.1,2.6,1.6,4.7,1.6c1.2,0,2.2-0.1,3.1-0.4
				s1.6-0.6,2.3-0.9c0.6-0.3,1-0.5,1.1-0.5c0.3,0,0.7,0.4,1.2,1.1c0.4,0.7,0.7,1.2,0.7,1.6c0,0.5-0.4,1-1.2,1.4
				c-0.8,0.5-1.9,0.9-3.2,1.2c-1.3,0.3-2.6,0.5-3.9,0.5C282,126.2,278.2,122.2,278.2,114z M293.8,112c0-2.1-0.4-3.7-1.2-4.9
				c-0.8-1.1-2-1.7-3.7-1.7c-3.5,0-5.4,2.2-5.8,6.5H293.8z"/>
			<path class="st3" d="M307.1,124.7c-1.3-1-2.4-2.5-3.1-4.3c-0.7-1.9-1.1-4-1.1-6.4c0-2.6,0.4-4.8,1.2-6.6c0.8-1.9,1.9-3.3,3.3-4.3
				c1.4-1,3.1-1.5,5-1.5c1.2,0,2.3,0.2,3.3,0.6c1,0.4,1.9,0.9,2.8,1.6V92.4c0-0.8,0.7-1.2,2.1-1.2h0.5c1.4,0,2.1,0.4,2.1,1.2v26.3
				c0,2.1,0.1,3.5,0.3,4.5c0.2,0.9,0.3,1.4,0.3,1.6c0,0.4-0.4,0.7-1.2,0.9c-0.8,0.2-1.5,0.3-2.1,0.3c-0.5,0-0.8-0.2-1-0.7
				c-0.2-0.5-0.4-0.9-0.5-1.4c-0.1-0.5-0.2-0.9-0.2-1c-2,2.3-4.4,3.5-7,3.5C310,126.2,308.4,125.7,307.1,124.7z M315.7,121.4
				c1-0.5,1.8-1.3,2.7-2.2v-12c-1.5-1.1-3.1-1.7-5-1.7c-1.9,0-3.3,0.7-4.2,2.1c-1,1.4-1.4,3.4-1.4,6c0,2.8,0.4,4.9,1.3,6.4
				c0.9,1.5,2.1,2.2,3.8,2.2C313.8,122.2,314.8,121.9,315.7,121.4z"/>
		</g>
		<g class="st6">
			<path class="st3" d="M200.3,176.8v-19.1h-1.6c-0.4,0-0.6-0.1-0.8-0.4c-0.2-0.3-0.3-0.7-0.3-1.3v-0.6c0-0.6,0.1-1,0.3-1.3
				c0.2-0.3,0.4-0.4,0.8-0.4h1.6v-4.1c0-2.5,0.6-4.2,1.8-5.2c1.2-1,2.6-1.5,4.4-1.5c2.5,0,3.7,0.5,3.7,1.6c0,0.3-0.1,0.8-0.3,1.5
				c-0.2,0.7-0.5,1-0.8,1c-0.2,0-0.4,0-0.7-0.1c-0.3-0.1-0.7-0.1-1.1-0.1c-0.7,0-1.3,0.2-1.7,0.6c-0.4,0.4-0.6,1.2-0.6,2.4v3.9h3.5
				c0.4,0,0.6,0.1,0.8,0.4c0.2,0.3,0.3,0.7,0.3,1.3v0.6c0,0.6-0.1,1-0.3,1.3c-0.2,0.3-0.4,0.4-0.8,0.4h-3.5v19.1
				c0,0.8-0.7,1.1-2.1,1.1h-0.5C200.9,178,200.3,177.6,200.3,176.8z"/>
			<path class="st3" d="M214.8,176.4c-1.3-1.2-2-2.9-2-5.1c0-3.1,1.3-5.3,3.9-6.5c2.6-1.2,6.2-1.9,10.8-1.9v-2
				c0-1.1-0.4-1.9-1.1-2.6c-0.7-0.6-1.9-1-3.5-1c-1.3,0-2.4,0.1-3.3,0.4c-0.9,0.3-1.7,0.6-2.4,0.9c-0.7,0.3-1,0.5-1.1,0.5
				c-0.3,0-0.7-0.4-1.2-1.1c-0.4-0.7-0.7-1.3-0.7-1.6c0-0.4,0.4-0.9,1.2-1.4c0.8-0.5,1.9-0.9,3.2-1.2c1.3-0.3,2.8-0.5,4.3-0.5
				c3,0,5.3,0.7,6.9,2c1.6,1.3,2.4,3.1,2.4,5.4v9.8c0,2.1,0.1,3.5,0.3,4.5s0.3,1.4,0.3,1.6c0,0.4-0.4,0.7-1.1,0.9
				c-0.8,0.2-1.4,0.3-2.1,0.3c-0.5,0-0.8-0.2-1-0.7c-0.2-0.5-0.4-1-0.5-1.5c-0.1-0.5-0.2-0.9-0.2-1.1c-0.8,1-1.9,1.8-3.1,2.5
				c-1.2,0.7-2.7,1-4.3,1C218,178.2,216.1,177.6,214.8,176.4z M224.6,173.4c1-0.6,1.9-1.3,2.8-2.3v-4.6c-3,0-5.4,0.3-7.1,0.9
				c-1.8,0.6-2.7,1.8-2.7,3.6c0,1,0.3,1.8,0.9,2.4c0.6,0.6,1.4,0.9,2.6,0.9C222.4,174.3,223.6,174,224.6,173.4z"/>
			<path class="st3" d="M241,176.7c-1.2-1-1.8-2.7-1.8-5.1v-27.1c0-0.8,0.7-1.2,2.1-1.2h0.5c1.4,0,2.1,0.4,2.1,1.2v26.9
				c0,1.1,0.2,1.9,0.6,2.3c0.4,0.4,1,0.7,1.7,0.7c0.4,0,0.8,0,1.1-0.1c0.3-0.1,0.5-0.1,0.7-0.1c0.3,0,0.6,0.3,0.8,1
				c0.2,0.7,0.3,1.2,0.3,1.5c0,1.1-1.2,1.7-3.7,1.7C243.6,178.2,242.2,177.7,241,176.7z"/>
			<path class="st3" d="M254.7,176.7c-1.2-1-1.8-2.7-1.8-5.1v-27.1c0-0.8,0.7-1.2,2.1-1.2h0.5c1.4,0,2.1,0.4,2.1,1.2v26.9
				c0,1.1,0.2,1.9,0.6,2.3c0.4,0.4,1,0.7,1.7,0.7c0.4,0,0.8,0,1.1-0.1c0.3-0.1,0.5-0.1,0.7-0.1c0.3,0,0.6,0.3,0.8,1
				c0.2,0.7,0.3,1.2,0.3,1.5c0,1.1-1.2,1.7-3.7,1.7C257.3,178.2,255.9,177.7,254.7,176.7z"/>
			<path class="st3" d="M274.2,177.3c-1.2-0.6-2.2-1.4-3.2-2.6c-0.1,0.8-0.4,1.7-0.7,2.5c-0.1,0.3-0.3,0.5-0.5,0.6
				c-0.3,0.1-0.6,0.2-1.1,0.2h-0.3c-1.2,0-1.7-0.4-1.7-1.1v-32.4c0-0.8,0.7-1.2,2.1-1.2h0.5c1.4,0,2.1,0.4,2.1,1.2v11.2
				c0.9-0.7,1.8-1.2,2.8-1.6c1-0.4,2-0.6,3.3-0.6c2.9,0,5.2,1.1,6.9,3.3c1.7,2.2,2.6,5.2,2.6,9.1c0,2.5-0.4,4.6-1.1,6.5
				c-0.7,1.9-1.7,3.3-3.1,4.3s-2.9,1.5-4.7,1.5C276.7,178.2,275.4,177.9,274.2,177.3z M280.7,172c0.9-1.5,1.3-3.6,1.3-6.4
				c0-2.6-0.5-4.6-1.4-6c-1-1.4-2.4-2.1-4.2-2.1c-0.9,0-1.8,0.1-2.6,0.4c-0.9,0.3-1.6,0.7-2.3,1.3v12c0.8,1,1.7,1.7,2.6,2.2
				c1,0.5,1.9,0.8,2.9,0.8C278.5,174.2,279.8,173.5,280.7,172z"/>
			<path class="st3" d="M293.4,176.4c-1.3-1.2-2-2.9-2-5.1c0-3.1,1.3-5.3,3.9-6.5c2.6-1.2,6.2-1.9,10.8-1.9v-2
				c0-1.1-0.4-1.9-1.1-2.6c-0.7-0.6-1.9-1-3.5-1c-1.3,0-2.4,0.1-3.3,0.4c-0.9,0.3-1.7,0.6-2.4,0.9c-0.7,0.3-1,0.5-1.1,0.5
				c-0.3,0-0.7-0.4-1.2-1.1c-0.4-0.7-0.7-1.3-0.7-1.6c0-0.4,0.4-0.9,1.2-1.4c0.8-0.5,1.9-0.9,3.2-1.2c1.3-0.3,2.8-0.5,4.3-0.5
				c3,0,5.3,0.7,6.9,2c1.6,1.3,2.4,3.1,2.4,5.4v9.8c0,2.1,0.1,3.5,0.3,4.5c0.2,0.9,0.3,1.4,0.3,1.6c0,0.4-0.4,0.7-1.1,0.9
				c-0.8,0.2-1.4,0.3-2.1,0.3c-0.5,0-0.8-0.2-1-0.7c-0.2-0.5-0.4-1-0.5-1.5c-0.1-0.5-0.2-0.9-0.2-1.1c-0.8,1-1.9,1.8-3.1,2.5
				c-1.2,0.7-2.7,1-4.3,1C296.5,178.2,294.7,177.6,293.4,176.4z M303.2,173.4c1-0.6,1.9-1.3,2.8-2.3v-4.6c-3,0-5.4,0.3-7.1,0.9
				c-1.8,0.6-2.7,1.8-2.7,3.6c0,1,0.3,1.8,0.9,2.4c0.6,0.6,1.4,0.9,2.6,0.9C301,174.3,302.2,174,303.2,173.4z"/>
			<path class="st3" d="M319.3,175.2c-1.9-2-2.8-5.1-2.8-9.4c0-4.3,1-7.5,3.1-9.4c2-1.9,4.7-2.9,8.1-2.9c1.8,0,3.4,0.2,4.9,0.7
				c1.5,0.5,2.2,1.1,2.2,1.7c0,0.4-0.2,1-0.6,1.7c-0.4,0.7-0.8,1.1-1.2,1.1c0,0-0.2-0.1-0.6-0.2c-0.7-0.3-1.4-0.6-2.1-0.8
				c-0.7-0.2-1.6-0.3-2.6-0.3c-2.1,0-3.6,0.7-4.7,2c-1.1,1.3-1.6,3.4-1.6,6.3c0,3,0.5,5.2,1.5,6.6c1,1.4,2.7,2,5,2
				c1.1,0,2-0.1,2.8-0.3c0.8-0.2,1.5-0.5,2.2-0.9c0.4-0.1,0.6-0.2,0.6-0.2c0.3,0,0.7,0.3,1.1,1c0.4,0.7,0.6,1.2,0.6,1.6
				c0,0.7-0.8,1.3-2.4,1.8c-1.6,0.5-3.3,0.8-5,0.8C324,178.2,321.2,177.2,319.3,175.2z"/>
			<path class="st3" d="M359.2,177.3c0,0.2-0.2,0.4-0.5,0.5c-0.3,0.1-0.9,0.2-1.7,0.2h-0.6c-0.6,0-1.2,0-1.6-0.1s-0.8-0.3-1-0.6
				l-8.4-10.8l-0.2,0v10.3c0,0.8-0.7,1.1-2.1,1.1h-0.5c-1.4,0-2.1-0.4-2.1-1.1v-32.4c0-0.8,0.7-1.2,2.1-1.2h0.5
				c1.4,0,2.1,0.4,2.1,1.2v19.9h0.2l7.9-9.9c0.4-0.5,1.3-0.7,2.6-0.7h0.6c0.6,0,1.1,0.1,1.4,0.2c0.3,0.1,0.5,0.3,0.5,0.5
				c0,0.3-0.2,0.6-0.5,0.9l-7.9,9.8l8.9,11.4C359.1,176.9,359.2,177.2,359.2,177.3z"/>
		</g>
		<g class="st6">
			<path class="st3" d="M201,229.8c-1.1-0.3-2-0.7-2.7-1.2s-1-0.9-1-1.4c0-0.4,0.2-0.9,0.7-1.6c0.4-0.7,0.8-1,1.2-1
				c0.1,0,0.4,0.2,0.9,0.5c0.6,0.3,1.2,0.6,1.9,0.9c0.7,0.2,1.5,0.4,2.4,0.4c2.7,0,4-1.1,4-3.2c0-1-0.3-1.7-1-2.2
				c-0.7-0.5-1.8-1.1-3.4-1.6c-2.1-0.6-3.7-1.5-4.6-2.6c-1-1.1-1.4-2.5-1.4-4.3c0-2.1,0.7-3.7,2.2-5s3.3-1.9,5.7-1.9
				c1.6,0,3.1,0.2,4.4,0.6c1.3,0.4,2,0.9,2,1.5c0,0.5-0.2,1-0.6,1.7c-0.4,0.7-0.7,1.1-1.1,1.1c-0.1,0-0.5-0.2-1.2-0.6
				c-0.7-0.4-1.7-0.5-2.9-0.5c-1.1,0-1.9,0.2-2.6,0.7c-0.7,0.4-1,1.1-1,1.9c0,1,0.3,1.7,1,2.3c0.7,0.6,1.7,1.1,3.1,1.6
				c1.6,0.6,2.9,1.1,3.8,1.7c0.9,0.6,1.6,1.3,2,2.2c0.4,0.9,0.6,1.9,0.6,3.3c0,1.4-0.4,2.7-1.1,3.8c-0.7,1.1-1.7,2-3,2.6
				c-1.3,0.6-2.7,0.9-4.3,0.9C203.3,230.3,202.1,230.2,201,229.8z"/>
			<path class="st3" d="M217,218c0-4.1,0.9-7.3,2.8-9.4c1.9-2.1,4.6-3.2,8-3.2c3.2,0,5.6,1,7.2,3.1c1.6,2.1,2.4,5,2.4,8.9
				c0,0.3-0.2,0.7-0.7,1.3c-0.4,0.6-0.8,0.8-1.1,0.8H222c0.2,2.3,0.8,4,1.9,5.1c1.1,1.1,2.6,1.6,4.7,1.6c1.2,0,2.2-0.1,3.1-0.4
				c0.9-0.3,1.6-0.6,2.3-0.9c0.6-0.3,1-0.5,1.1-0.5c0.3,0,0.7,0.4,1.2,1.1c0.4,0.7,0.7,1.2,0.7,1.6c0,0.5-0.4,1-1.2,1.4
				s-1.9,0.9-3.2,1.2c-1.3,0.3-2.6,0.5-3.9,0.5C220.8,230.2,217,226.2,217,218z M232.6,216c0-2.1-0.4-3.7-1.2-4.9
				c-0.8-1.1-2-1.7-3.7-1.7c-3.5,0-5.4,2.2-5.8,6.5H232.6z"/>
			<path class="st3" d="M243.2,228.8v-15.7c0-2-0.1-3.5-0.3-4.4c-0.2-0.9-0.3-1.4-0.3-1.6c0-0.4,0.4-0.7,1.2-0.9
				c0.8-0.2,1.5-0.3,2.1-0.3c0.5,0,0.8,0.2,1,0.6c0.2,0.4,0.4,0.9,0.5,1.4c0.1,0.5,0.2,0.8,0.2,1c1.6-2.3,3.3-3.5,5.2-3.5
				c0.9,0,1.6,0.2,2,0.6c0.4,0.4,0.7,0.9,0.7,1.4c0,0.6-0.1,1.2-0.3,1.8c-0.2,0.7-0.5,1-0.7,1c-0.2,0-0.5-0.1-0.9-0.2
				c-0.4-0.2-0.9-0.2-1.5-0.2c-1,0-1.8,0.3-2.5,0.9c-0.7,0.6-1.2,1.2-1.6,1.7v16.2c0,0.8-0.7,1.1-2.1,1.1h-0.5
				C243.9,230,243.2,229.6,243.2,228.8z"/>
			<path class="st3" d="M264.6,229.2l-7.4-21.9c-0.1-0.4-0.1-0.6-0.1-0.7c0-0.6,0.7-0.8,2.2-0.8h0.6c1.2,0,1.9,0.3,2.1,0.8l4.1,12.9
				c0.3,0.9,0.8,2.8,1.5,5.7h0.2l0.4-1.8c0.3-1.4,0.6-2.7,1-3.9l4.1-13c0.2-0.5,0.8-0.8,2.1-0.8h0.5c1.3,0,2,0.3,2,0.8
				c0,0.2,0,0.4-0.1,0.7l-7.4,21.9c-0.2,0.5-0.8,0.8-2.1,0.8h-1.6C265.4,230,264.8,229.7,264.6,229.2z"/>
			<path class="st3" d="M282.3,200.6v-2.7c0-0.9,0.8-1.3,2.5-1.3c1.6,0,2.4,0.4,2.4,1.3v2.7c0,0.9-0.8,1.3-2.5,1.3
				C283.1,201.9,282.3,201.5,282.3,200.6z M282.4,228.8v-21.9c0-0.8,0.7-1.2,2.1-1.2h0.5c1.4,0,2.1,0.4,2.1,1.2v21.9
				c0,0.8-0.7,1.1-2.1,1.1h-0.5C283.1,230,282.4,229.6,282.4,228.8z"/>
			<path class="st3" d="M295.8,227.2c-1.9-2-2.8-5.1-2.8-9.4c0-4.3,1-7.5,3.1-9.4c2-1.9,4.7-2.9,8.1-2.9c1.8,0,3.4,0.2,4.9,0.7
				c1.5,0.5,2.2,1.1,2.2,1.7c0,0.4-0.2,1-0.6,1.7c-0.4,0.7-0.8,1.1-1.2,1.1c0,0-0.2-0.1-0.6-0.2c-0.7-0.3-1.4-0.6-2.1-0.8
				c-0.7-0.2-1.6-0.3-2.6-0.3c-2.1,0-3.6,0.7-4.7,2c-1.1,1.3-1.6,3.4-1.6,6.3c0,3,0.5,5.2,1.5,6.6c1,1.4,2.7,2,5,2
				c1.1,0,2-0.1,2.8-0.3c0.8-0.2,1.5-0.5,2.2-0.9c0.4-0.1,0.6-0.2,0.6-0.2c0.3,0,0.7,0.3,1.1,1c0.4,0.7,0.6,1.2,0.6,1.6
				c0,0.7-0.8,1.3-2.4,1.8c-1.6,0.5-3.3,0.8-5,0.8C300.6,230.2,297.7,229.2,295.8,227.2z"/>
			<path class="st3" d="M315.4,218c0-4.1,0.9-7.3,2.8-9.4c1.9-2.1,4.6-3.2,8-3.2c3.2,0,5.6,1,7.2,3.1c1.6,2.1,2.4,5,2.4,8.9
				c0,0.3-0.2,0.7-0.7,1.3c-0.4,0.6-0.8,0.8-1.1,0.8h-13.8c0.2,2.3,0.8,4,1.9,5.1c1.1,1.1,2.6,1.6,4.7,1.6c1.2,0,2.2-0.1,3.1-0.4
				s1.6-0.6,2.3-0.9c0.6-0.3,1-0.5,1.1-0.5c0.3,0,0.7,0.4,1.2,1.1c0.4,0.7,0.7,1.2,0.7,1.6c0,0.5-0.4,1-1.2,1.4
				c-0.8,0.5-1.9,0.9-3.2,1.2c-1.3,0.3-2.6,0.5-3.9,0.5C319.3,230.2,315.4,226.2,315.4,218z M331.1,216c0-2.1-0.4-3.7-1.2-4.9
				c-0.8-1.1-2-1.7-3.7-1.7c-3.5,0-5.4,2.2-5.8,6.5H331.1z"/>
		</g>
	</g>
</g>
</svg>
