<?xml version="1.0" encoding="utf-8"?>
<!-- Generator: Adobe Illustrator 19.1.0, SVG Export Plug-In . SVG Version: 6.00 Build 0)  -->
<svg version="1.1" id="Layer_1" xmlns="http://www.w3.org/2000/svg" xmlns:xlink="http://www.w3.org/1999/xlink" x="0px" y="0px"
	 width="151.6px" height="135.4px" viewBox="0 0 151.6 135.4" style="enable-background:new 0 0 151.6 135.4;" xml:space="preserve"
	>
<style type="text/css">
	.st0{fill:#D1EE83;stroke:#97BD30;stroke-width:2.5;stroke-miterlimit:10;}
	.st1{fill:#D1EE83;stroke:#97BD30;stroke-width:4;stroke-miterlimit:10;}
	.st2{fill:#97BD30;}
	.st3{fill:none;stroke:#97BD30;stroke-width:4;stroke-miterlimit:10;}
	.st4{fill:none;stroke:#C8D2D2;stroke-width:4;stroke-miterlimit:10;}
	.st5{fill:#C8D2D2;}
	.st6{fill:#D1EE83;stroke:#97BD30;stroke-width:3.4991;stroke-miterlimit:10;}
	.st7{fill:#D1EE83;stroke:#97BD30;stroke-width:5.6814;stroke-miterlimit:10;}
	.st8{fill:none;stroke:#97BD30;stroke-width:4.8706;stroke-miterlimit:10;}
	.st9{fill:none;stroke:#C8D2D2;stroke-width:4.8076;stroke-miterlimit:10;}
	.st10{fill:none;stroke:#C8D2D2;stroke-width:3.2416;stroke-miterlimit:10;}
	.st11{fill:none;stroke:#97BD30;stroke-width:2.5;stroke-miterlimit:10;}
	.st12{fill:#EE9B83;stroke:#BD3130;stroke-width:2.5;stroke-miterlimit:10;}
	.st13{fill:#BD3130;}
	.st14{fill:none;stroke:#BD3130;stroke-width:4;stroke-miterlimit:10;}
	.st15{fill:#EE9B83;stroke:#BD3130;stroke-width:4;stroke-miterlimit:10;}
	.st16{fill:none;stroke:#97BD30;stroke-width:3;stroke-miterlimit:10;}
	.st17{fill:#FF990D;}
	.st18{fill:none;stroke:#BD3130;stroke-width:2.4036;stroke-miterlimit:10;}
	.st19{fill:none;stroke:#C8D2D2;stroke-width:2.4036;stroke-miterlimit:10;}
	.st20{fill:#EE9B83;stroke:#BD3130;stroke-width:2.4036;stroke-miterlimit:10;}
	.st21{fill:#D1EE83;stroke:#97BD30;stroke-width:1.8073;stroke-miterlimit:10;}
	.st22{fill:#D1EE83;stroke:#97BD30;stroke-width:3;stroke-miterlimit:10;}
	.st23{fill:none;stroke:#C8D2D2;stroke-width:3;stroke-miterlimit:10;}
	.st24{font-family:'Asap-Medium';}
	.st25{font-size:14px;}
	.st26{fill:#D1EE83;stroke:#97BD30;stroke-width:2.6609;stroke-miterlimit:10;}
	.st27{fill:none;stroke:#BD3130;stroke-width:2.6609;stroke-miterlimit:10;}
	.st28{fill:none;stroke:#97BD30;stroke-width:2.6609;stroke-miterlimit:10;}
	.st29{fill:#EE9B83;stroke:#BD3130;stroke-width:2.6609;stroke-miterlimit:10;}
	.st30{fill:none;stroke:#C8D2D2;stroke-width:2.6609;stroke-miterlimit:10;}
	.st31{fill:#EE9B83;stroke:#BD3130;stroke-width:1.8073;stroke-miterlimit:10;}
	.st32{fill:none;stroke:#97BD30;stroke-width:1.8069;stroke-miterlimit:10;}
	.st33{fill:none;stroke:#BD3130;stroke-width:2.9701;stroke-miterlimit:10;}
	.st34{fill:none;stroke:#C8D2D2;stroke-width:2.9701;stroke-miterlimit:10;}
	.st35{fill:#EE9B83;stroke:#BD3130;stroke-width:2.9701;stroke-miterlimit:10;}
	.st36{fill:none;}
	.st37{font-size:8px;}
	.st38{fill:none;stroke:#BD3130;stroke-width:3;stroke-miterlimit:10;}
	.st39{fill:#EE9B83;stroke:#BD3130;stroke-width:3;stroke-miterlimit:10;}
	.st40{fill:none;stroke:#BD3130;stroke-width:2.6101;stroke-miterlimit:10;}
	.st41{fill:none;stroke:#C8D2D2;stroke-width:2.6101;stroke-miterlimit:10;}
	.st42{fill:#EE9B83;stroke:#BD3130;stroke-width:2.6101;stroke-miterlimit:10;}
	.st43{fill:none;stroke:#97BD30;stroke-width:2.6364;stroke-miterlimit:10;}
	.st44{fill:none;stroke:#97BD30;stroke-width:1.8073;stroke-miterlimit:10;}
</style>
<g>
	<path class="st22" d="M102.9,89.2h-59c-1,0-1.9-0.9-1.9-1.9V39.5c0-1,0.9-1.9,1.9-1.9h59c1,0,1.9,0.9,1.9,1.9v47.9
		C104.8,88.4,104,89.2,102.9,89.2z"/>
	<path class="st2" d="M106.7,71.3L106.7,71.3c-1.3,0-2.3-1-2.3-2.3V57.8c0-1.3,1-2.3,2.3-2.3l0,0c1.3,0,2.3,1,2.3,2.3V69
		C109,70.3,108,71.3,106.7,71.3z"/>
	<path class="st2" d="M40,71.3L40,71.3c-1.3,0-2.3-1-2.3-2.3V57.8c0-1.3,1-2.3,2.3-2.3h0c1.3,0,2.3,1,2.3,2.3V69
		C42.3,70.3,41.2,71.3,40,71.3z"/>
	<path class="st16" d="M40,63.4c0,0-13-3.3-13,14.7s0,27.3,0,27.3"/>
	<path class="st16" d="M106.4,63.4c0,0,13-3.3,13,14.7c0,4.6,0,15,0,18.4"/>
	<path class="st23" d="M46,129.3H24.8c-5,0-9.1-4.1-9.1-9.1V117c0-5,4.1-9.1,9.1-9.1H46c5,0,9.1,4.1,9.1,9.1v3.1
		C55.2,125.2,51.1,129.3,46,129.3z"/>
	<polygon class="st23" points="103.1,99.5 119.8,128.3 136.4,99.5 	"/>
	<path class="st5" d="M22,104.9v-0.3c0-0.9,0.7-1.6,1.6-1.6h6.9c0.9,0,1.6,0.7,1.6,1.6v0.3c0,0.9-0.7,1.6-1.6,1.6h-6.9
		C22.7,106.5,22,105.7,22,104.9z"/>
	<path class="st5" d="M124.4,96.5v-0.3c0-0.9-0.7-1.6-1.6-1.6h-6.9c-0.9,0-1.6,0.7-1.6,1.6v0.3c0,0.9,0.7,1.6,1.6,1.6h6.9
		C123.7,98.1,124.4,97.4,124.4,96.5z"/>
</g>
<text transform="matrix(1 0 0 1 8.141 17.5602)" class="st24 st25">Circuit Breaker Added</text>
<rect x="107.7" y="105.5" class="st36" width="24.9" height="6.2"/>
<text transform="matrix(1 0 0 1 113.0959 111.476)" class="st24 st37">App</text>
<rect x="18.7" y="115.5" class="st36" width="34.4" height="6.2"/>
<text transform="matrix(1 0 0 1 23.1495 121.4907)" class="st24 st37">Service</text>
</svg>
