<?xml version="1.0" encoding="utf-8"?>
<!-- Generator: Adobe Illustrator 19.1.0, SVG Export Plug-In . SVG Version: 6.00 Build 0)  -->
<svg version="1.1" id="Layer_1" xmlns="http://www.w3.org/2000/svg" xmlns:xlink="http://www.w3.org/1999/xlink" x="0px" y="0px"
	 width="152.2px" height="136.1px" viewBox="0 0 152.2 136.1" style="enable-background:new 0 0 152.2 136.1;" xml:space="preserve"
	>
<style type="text/css">
	.st0{fill:#D1EE83;stroke:#97BD30;stroke-width:2.5;stroke-miterlimit:10;}
	.st1{fill:#D1EE83;stroke:#97BD30;stroke-width:4;stroke-miterlimit:10;}
	.st2{fill:#97BD30;}
	.st3{fill:none;stroke:#97BD30;stroke-width:4;stroke-miterlimit:10;}
	.st4{fill:none;stroke:#C8D2D2;stroke-width:4;stroke-miterlimit:10;}
	.st5{fill:#C8D2D2;}
	.st6{fill:#D1EE83;stroke:#97BD30;stroke-width:3.4991;stroke-miterlimit:10;}
	.st7{fill:#D1EE83;stroke:#97BD30;stroke-width:5.6814;stroke-miterlimit:10;}
	.st8{fill:none;stroke:#97BD30;stroke-width:4.8706;stroke-miterlimit:10;}
	.st9{fill:none;stroke:#C8D2D2;stroke-width:4.8076;stroke-miterlimit:10;}
	.st10{fill:none;stroke:#C8D2D2;stroke-width:3.2416;stroke-miterlimit:10;}
	.st11{fill:none;stroke:#97BD30;stroke-width:2.5;stroke-miterlimit:10;}
	.st12{fill:#EE9B83;stroke:#BD3130;stroke-width:2.5;stroke-miterlimit:10;}
	.st13{fill:#BD3130;}
	.st14{fill:none;stroke:#BD3130;stroke-width:4;stroke-miterlimit:10;}
	.st15{fill:#EE9B83;stroke:#BD3130;stroke-width:4;stroke-miterlimit:10;}
	.st16{fill:none;stroke:#97BD30;stroke-width:3;stroke-miterlimit:10;}
	.st17{fill:#FF990D;}
	.st18{fill:none;stroke:#BD3130;stroke-width:2.4036;stroke-miterlimit:10;}
	.st19{fill:none;stroke:#C8D2D2;stroke-width:2.4036;stroke-miterlimit:10;}
	.st20{fill:#EE9B83;stroke:#BD3130;stroke-width:2.4036;stroke-miterlimit:10;}
	.st21{fill:#D1EE83;stroke:#97BD30;stroke-width:1.8073;stroke-miterlimit:10;}
	.st22{fill:#D1EE83;stroke:#97BD30;stroke-width:3;stroke-miterlimit:10;}
	.st23{fill:none;stroke:#C8D2D2;stroke-width:3;stroke-miterlimit:10;}
	.st24{fill:#D1EE83;stroke:#97BD30;stroke-width:2.6609;stroke-miterlimit:10;}
	.st25{fill:none;stroke:#BD3130;stroke-width:2.6609;stroke-miterlimit:10;}
	.st26{fill:none;stroke:#97BD30;stroke-width:2.6609;stroke-miterlimit:10;}
	.st27{fill:#EE9B83;stroke:#BD3130;stroke-width:2.6609;stroke-miterlimit:10;}
	.st28{fill:none;stroke:#C8D2D2;stroke-width:2.6609;stroke-miterlimit:10;}
	.st29{font-family:'Asap-Medium';}
	.st30{font-size:14px;}
	.st31{fill:#EE9B83;stroke:#BD3130;stroke-width:1.8073;stroke-miterlimit:10;}
	.st32{fill:none;stroke:#97BD30;stroke-width:1.8069;stroke-miterlimit:10;}
	.st33{fill:none;stroke:#BD3130;stroke-width:2.9701;stroke-miterlimit:10;}
	.st34{fill:none;stroke:#C8D2D2;stroke-width:2.9701;stroke-miterlimit:10;}
	.st35{fill:#EE9B83;stroke:#BD3130;stroke-width:2.9701;stroke-miterlimit:10;}
	.st36{fill:none;stroke:#BD3130;stroke-width:3;stroke-miterlimit:10;}
	.st37{fill:#EE9B83;stroke:#BD3130;stroke-width:3;stroke-miterlimit:10;}
	.st38{fill:none;stroke:#BD3130;stroke-width:2.6101;stroke-miterlimit:10;}
	.st39{fill:none;stroke:#C8D2D2;stroke-width:2.6101;stroke-miterlimit:10;}
	.st40{fill:#EE9B83;stroke:#BD3130;stroke-width:2.6101;stroke-miterlimit:10;}
	.st41{fill:none;stroke:#97BD30;stroke-width:2.6364;stroke-miterlimit:10;}
	.st42{fill:none;stroke:#97BD30;stroke-width:1.8073;stroke-miterlimit:10;}
	.st43{font-size:10px;}
</style>
<path class="st21" d="M148.8,25.4H3.4c-1.1,0-2-0.9-2-2V3.2c0-1.1,0.9-2,2-2h145.4c1.1,0,2,0.9,2,2v20.2
	C150.8,24.5,149.9,25.4,148.8,25.4z"/>
<path class="st24" d="M99.9,92.6H47.6c-0.9,0-1.7-0.8-1.7-1.7V48.4c0-0.9,0.8-1.7,1.7-1.7h52.4c0.9,0,1.7,0.8,1.7,1.7v42.5
	C101.6,91.8,100.9,92.6,99.9,92.6z"/>
<path class="st2" d="M103.3,76.7L103.3,76.7c-1.1,0-2-0.9-2-2v-9.9c0-1.1,0.9-2,2-2l0,0c1.1,0,2,0.9,2,2v9.9
	C105.4,75.7,104.4,76.7,103.3,76.7z"/>
<path class="st25" d="M44.1,69.7c0,0-11.5-2.9-11.5,13.1s0,24.2,0,24.2"/>
<path class="st2" d="M44.1,76.7L44.1,76.7c-1.1,0-2-0.9-2-2v-9.9c0-1.1,0.9-2,2-2h0c1.1,0,2,0.9,2,2v9.9
	C46.2,75.7,45.2,76.7,44.1,76.7z"/>
<path class="st26" d="M103.1,69.7c0,0,11.5-2.9,11.5,13.1c0,4,0,13.3,0,16.3"/>
<path class="st27" d="M49.5,128.1H30.6c-4.5,0-8.1-3.7-8.1-8.1v-2.8c0-4.5,3.7-8.1,8.1-8.1h18.8c4.5,0,8.1,3.7,8.1,8.1v2.8
	C57.6,124.4,53.9,128.1,49.5,128.1z"/>
<polygon class="st28" points="100.1,101.7 114.9,127.2 129.6,101.7 "/>
<path class="st13" d="M28.2,106.4v-0.3c0-0.8,0.6-1.4,1.4-1.4h6.1c0.8,0,1.4,0.6,1.4,1.4v0.3c0,0.8-0.6,1.4-1.4,1.4h-6.1
	C28.8,107.9,28.2,107.2,28.2,106.4z"/>
<path class="st5" d="M119,99v-0.3c0-0.8-0.6-1.4-1.4-1.4h-6.1c-0.8,0-1.4,0.6-1.4,1.4V99c0,0.8,0.6,1.4,1.4,1.4h6.1
	C118.4,100.5,119,99.8,119,99z"/>
<text transform="matrix(1 0 0 1 51.0506 17.5521)" class="st29 st30">CLOSED</text>
<text transform="matrix(1 0 0 1 49.6626 38.6402)" class="st29 st43">Service failed</text>
</svg>
