<?xml version="1.0" encoding="utf-8"?>
<!-- Generator: Adobe Illustrator 19.1.0, SVG Export Plug-In . SVG Version: 6.00 Build 0)  -->
<svg version="1.1" id="Layer_1" xmlns="http://www.w3.org/2000/svg" xmlns:xlink="http://www.w3.org/1999/xlink" x="0px" y="0px"
	 width="152.2px" height="136.1px" viewBox="0 0 152.2 136.1" style="enable-background:new 0 0 152.2 136.1;" xml:space="preserve"
	>
<style type="text/css">
	.st0{fill:#D1EE83;stroke:#97BD30;stroke-width:2.5;stroke-miterlimit:10;}
	.st1{fill:#D1EE83;stroke:#97BD30;stroke-width:4;stroke-miterlimit:10;}
	.st2{fill:#97BD30;}
	.st3{fill:none;stroke:#97BD30;stroke-width:4;stroke-miterlimit:10;}
	.st4{fill:none;stroke:#C8D2D2;stroke-width:4;stroke-miterlimit:10;}
	.st5{fill:#C8D2D2;}
	.st6{fill:#D1EE83;stroke:#97BD30;stroke-width:3.4991;stroke-miterlimit:10;}
	.st7{fill:#D1EE83;stroke:#97BD30;stroke-width:5.6814;stroke-miterlimit:10;}
	.st8{fill:none;stroke:#97BD30;stroke-width:4.8706;stroke-miterlimit:10;}
	.st9{fill:none;stroke:#C8D2D2;stroke-width:4.8076;stroke-miterlimit:10;}
	.st10{fill:none;stroke:#C8D2D2;stroke-width:3.2416;stroke-miterlimit:10;}
	.st11{fill:none;stroke:#97BD30;stroke-width:2.5;stroke-miterlimit:10;}
	.st12{fill:#EE9B83;stroke:#BD3130;stroke-width:2.5;stroke-miterlimit:10;}
	.st13{fill:#BD3130;}
	.st14{fill:none;stroke:#BD3130;stroke-width:4;stroke-miterlimit:10;}
	.st15{fill:#EE9B83;stroke:#BD3130;stroke-width:4;stroke-miterlimit:10;}
	.st16{fill:none;stroke:#97BD30;stroke-width:3;stroke-miterlimit:10;}
	.st17{fill:#FF990D;}
	.st18{fill:none;stroke:#BD3130;stroke-width:2.4036;stroke-miterlimit:10;}
	.st19{fill:none;stroke:#C8D2D2;stroke-width:2.4036;stroke-miterlimit:10;}
	.st20{fill:#EE9B83;stroke:#BD3130;stroke-width:2.4036;stroke-miterlimit:10;}
	.st21{fill:#D1EE83;stroke:#97BD30;stroke-width:1.8073;stroke-miterlimit:10;}
	.st22{fill:#D1EE83;stroke:#97BD30;stroke-width:3;stroke-miterlimit:10;}
	.st23{fill:none;stroke:#C8D2D2;stroke-width:3;stroke-miterlimit:10;}
	.st24{fill:#D1EE83;stroke:#97BD30;stroke-width:2.6609;stroke-miterlimit:10;}
	.st25{fill:none;stroke:#BD3130;stroke-width:2.6609;stroke-miterlimit:10;}
	.st26{fill:none;stroke:#97BD30;stroke-width:2.6609;stroke-miterlimit:10;}
	.st27{fill:#EE9B83;stroke:#BD3130;stroke-width:2.6609;stroke-miterlimit:10;}
	.st28{fill:none;stroke:#C8D2D2;stroke-width:2.6609;stroke-miterlimit:10;}
	.st29{fill:#EE9B83;stroke:#BD3130;stroke-width:1.8073;stroke-miterlimit:10;}
	.st30{fill:none;stroke:#97BD30;stroke-width:1.8069;stroke-miterlimit:10;}
	.st31{fill:none;stroke:#BD3130;stroke-width:2.9701;stroke-miterlimit:10;}
	.st32{fill:none;stroke:#C8D2D2;stroke-width:2.9701;stroke-miterlimit:10;}
	.st33{fill:#EE9B83;stroke:#BD3130;stroke-width:2.9701;stroke-miterlimit:10;}
	.st34{fill:none;stroke:#BD3130;stroke-width:3;stroke-miterlimit:10;}
	.st35{fill:#EE9B83;stroke:#BD3130;stroke-width:3;stroke-miterlimit:10;}
	.st36{fill:none;stroke:#BD3130;stroke-width:2.6101;stroke-miterlimit:10;}
	.st37{fill:none;stroke:#C8D2D2;stroke-width:2.6101;stroke-miterlimit:10;}
	.st38{fill:#EE9B83;stroke:#BD3130;stroke-width:2.6101;stroke-miterlimit:10;}
	.st39{fill:none;stroke:#97BD30;stroke-width:2.6364;stroke-miterlimit:10;}
	.st40{fill:none;stroke:#97BD30;stroke-width:1.8073;stroke-miterlimit:10;}
	.st41{font-family:'Asap-Medium';}
	.st42{font-size:14px;}
	.st43{font-size:10px;}
</style>
<path class="st16" d="M99.4,73.4c0,0,10.8-2.8,10.8,12.7c0,3.9,0,12.9,0,15.8"/>
<path class="st40" d="M149,25.4H3.6c-1.1,0-2-0.9-2-2V3.3c0-1.1,0.9-2,2-2H149c1.1,0,2,0.9,2,2v20.2C151,24.5,150.1,25.4,149,25.4z"
	/>
<text transform="matrix(1 0 0 1 39.4122 17.6079)" class="st41 st42">HALF-OPEN</text>
<text transform="matrix(1 0 0 1 42.1703 38.8728)" class="st41 st43">Fallback added</text>
<path class="st2" d="M99.7,80.1L99.7,80.1c-1.1,0-1.9-0.8-1.9-1.9v-9.8c0-1,0.8-1.9,1.9-1.9h0.1c1,0,1.9,0.8,1.9,1.9v9.8
	C101.6,79.3,100.7,80.1,99.7,80.1z"/>
<polygon class="st37" points="100.9,103.7 114.9,127.5 128.5,103.5 "/>
<path class="st5" d="M114.2,101.9l0-0.2c0-0.7-0.6-1.3-1.3-1.3l-5.7,0c-0.7,0-1.3,0.6-1.3,1.3l0,0.2c0,0.7,0.6,1.3,1.3,1.3l5.7,0
	C113.6,103.2,114.2,102.6,114.2,101.9z"/>
<circle class="st37" cx="139.9" cy="73" r="8.2"/>
<path class="st5" d="M130.7,80.2L130.7,80.2c1,0,1.9-0.8,1.9-1.9l0.1-9.3c0-1-0.8-1.9-1.9-1.9l0,0c-1,0-1.9,0.8-1.9,1.9l-0.1,9.3
	C128.8,79.3,129.7,80.2,130.7,80.2z"/>
<path class="st37" d="M131,73.7c0,0-10.8-2.8-10.9,12.2c0,3.8-0.1,12.4-0.1,15.3"/>
<path class="st5" d="M115.9,101.9l0-0.2c0-0.7,0.6-1.3,1.3-1.3l5.7,0c0.7,0,1.3,0.6,1.3,1.3l0,0.2c0,0.7-0.6,1.3-1.3,1.3l-5.7,0
	C116.5,103.2,115.9,102.6,115.9,101.9z"/>
<path class="st2" d="M42.2,80.1L42.2,80.1c-1.1,0-1.9-0.8-1.9-1.9v-9.8c0-1,0.8-1.9,1.9-1.9h0.1c1,0,1.9,0.8,1.9,1.9v9.8
	C44.1,79.3,43.3,80.1,42.2,80.1z"/>
<path class="st16" d="M40.7,72.6c0,0-16.2-2-16.2,13.4s0,23.5,0,23.5"/>
<path class="st23" d="M40.1,129.9H22.7c-4.2,0-7.7-3.5-7.7-7.7v-2.9c0-4.2,3.5-7.7,7.7-7.7h17.4c4.2,0,7.7,3.5,7.7,7.7v2.9
	C47.8,126.5,44.3,129.9,40.1,129.9z"/>
<path class="st5" d="M20.3,109v-0.3c0-0.7,0.6-1.3,1.3-1.3h5.7c0.7,0,1.3,0.6,1.3,1.3v0.3c0,0.7-0.6,1.3-1.3,1.3h-5.7
	C20.9,110.3,20.3,109.7,20.3,109z"/>
<path class="st5" d="M114.3,101.8v-0.3c0-0.7-0.6-1.3-1.3-1.3h-5.7c-0.7,0-1.3,0.6-1.3,1.3v0.3c0,0.7,0.6,1.3,1.3,1.3h5.7
	C113.7,103.2,114.3,102.6,114.3,101.8z"/>
<polygon class="st17" points="66.2,78.1 79.1,69.2 66.2,60.3 77.6,52.4 73.8,52.4 62.5,60.3 75.3,69.2 62.5,78.1 75.2,87 64,94.3 
	67.9,94.3 79.1,87.1 "/>
<path class="st16" d="M95.3,95.5h-49c-0.9,0-1.6-0.7-1.6-1.6V52.8c0-0.9,0.7-1.6,1.6-1.6h49c0.9,0,1.6,0.7,1.6,1.6v41.2
	C96.9,94.8,96.2,95.5,95.3,95.5z"/>
</svg>
