<?xml version="1.0" encoding="utf-8"?>
<!-- Generator: Adobe Illustrator 19.1.0, SVG Export Plug-In . SVG Version: 6.00 Build 0)  -->
<svg version="1.1" id="Layer_1" xmlns="http://www.w3.org/2000/svg" xmlns:xlink="http://www.w3.org/1999/xlink" x="0px" y="0px"
	 width="152.1px" height="136.7px" viewBox="0 0 152.1 136.7" style="enable-background:new 0 0 152.1 136.7;" xml:space="preserve"
	>
<style type="text/css">
	.st0{fill:#D1EE83;stroke:#97BD30;stroke-width:2.5;stroke-miterlimit:10;}
	.st1{fill:#D1EE83;stroke:#97BD30;stroke-width:4;stroke-miterlimit:10;}
	.st2{fill:#97BD30;}
	.st3{fill:none;stroke:#97BD30;stroke-width:4;stroke-miterlimit:10;}
	.st4{fill:none;stroke:#C8D2D2;stroke-width:4;stroke-miterlimit:10;}
	.st5{fill:#C8D2D2;}
	.st6{fill:#D1EE83;stroke:#97BD30;stroke-width:3.4991;stroke-miterlimit:10;}
	.st7{fill:#D1EE83;stroke:#97BD30;stroke-width:5.6814;stroke-miterlimit:10;}
	.st8{fill:none;stroke:#97BD30;stroke-width:4.8706;stroke-miterlimit:10;}
	.st9{fill:none;stroke:#C8D2D2;stroke-width:4.8076;stroke-miterlimit:10;}
	.st10{fill:none;stroke:#C8D2D2;stroke-width:3.2416;stroke-miterlimit:10;}
	.st11{fill:none;stroke:#97BD30;stroke-width:2.5;stroke-miterlimit:10;}
	.st12{fill:#EE9B83;stroke:#BD3130;stroke-width:2.5;stroke-miterlimit:10;}
	.st13{fill:#BD3130;}
	.st14{fill:none;stroke:#BD3130;stroke-width:4;stroke-miterlimit:10;}
	.st15{fill:#EE9B83;stroke:#BD3130;stroke-width:4;stroke-miterlimit:10;}
	.st16{fill:none;stroke:#97BD30;stroke-width:3;stroke-miterlimit:10;}
	.st17{fill:#FF990D;}
	.st18{fill:none;stroke:#BD3130;stroke-width:2.4036;stroke-miterlimit:10;}
	.st19{fill:none;stroke:#C8D2D2;stroke-width:2.4036;stroke-miterlimit:10;}
	.st20{fill:#EE9B83;stroke:#BD3130;stroke-width:2.4036;stroke-miterlimit:10;}
	.st21{fill:#D1EE83;stroke:#97BD30;stroke-width:1.8073;stroke-miterlimit:10;}
	.st22{fill:#D1EE83;stroke:#97BD30;stroke-width:3;stroke-miterlimit:10;}
	.st23{fill:none;stroke:#C8D2D2;stroke-width:3;stroke-miterlimit:10;}
	.st24{fill:#D1EE83;stroke:#97BD30;stroke-width:2.6609;stroke-miterlimit:10;}
	.st25{fill:none;stroke:#BD3130;stroke-width:2.6609;stroke-miterlimit:10;}
	.st26{fill:none;stroke:#97BD30;stroke-width:2.6609;stroke-miterlimit:10;}
	.st27{fill:#EE9B83;stroke:#BD3130;stroke-width:2.6609;stroke-miterlimit:10;}
	.st28{fill:none;stroke:#C8D2D2;stroke-width:2.6609;stroke-miterlimit:10;}
	.st29{fill:#EE9B83;stroke:#BD3130;stroke-width:1.8073;stroke-miterlimit:10;}
	.st30{fill:none;stroke:#97BD30;stroke-width:1.8069;stroke-miterlimit:10;}
	.st31{fill:none;stroke:#BD3130;stroke-width:2.9701;stroke-miterlimit:10;}
	.st32{fill:none;stroke:#C8D2D2;stroke-width:2.9701;stroke-miterlimit:10;}
	.st33{fill:#EE9B83;stroke:#BD3130;stroke-width:2.9701;stroke-miterlimit:10;}
	.st34{fill:none;stroke:#BD3130;stroke-width:3;stroke-miterlimit:10;}
	.st35{fill:#EE9B83;stroke:#BD3130;stroke-width:3;stroke-miterlimit:10;}
	.st36{fill:none;stroke:#BD3130;stroke-width:2.6101;stroke-miterlimit:10;}
	.st37{fill:none;stroke:#C8D2D2;stroke-width:2.6101;stroke-miterlimit:10;}
	.st38{fill:#EE9B83;stroke:#BD3130;stroke-width:2.6101;stroke-miterlimit:10;}
	.st39{fill:none;stroke:#97BD30;stroke-width:2.6364;stroke-miterlimit:10;}
	.st40{fill:none;stroke:#97BD30;stroke-width:1.8073;stroke-miterlimit:10;}
	.st41{font-family:'Asap-Medium';}
	.st42{font-size:14px;}
	.st43{fill:none;}
	.st44{font-size:8px;}
</style>
<text transform="matrix(1 0 0 1 19.893 18.157)" class="st41 st42">SERVICE FAILURE</text>
<path class="st34" d="M118.9,91.1c0-3.4,0-13.8,0-18.4c0-5.4-1.6-11.2-6.9-13.6c-3-1.4-6.3-1.1-9.5-1.1c-3.5,0-7,0-10.5,0
	c-4.9,0-9.7,0-14.6,0c-5.1,0-10.2,0-15.4,0c-4.3,0-8.6,0-13,0c-2.5,0-4.9,0-7.4,0c-0.2,0-0.4,0-0.7,0c0,0-14.7-1.7-14.7,14.8
	c0,17.3,0,26.6,0,26.6h0.2"/>
<path class="st33" d="M45.8,123.9H24.5c-5,0-9.1-4.1-9.1-9.1v-3.1c0-5,4.1-9.1,9.1-9.1h21.2c5,0,9.1,4.1,9.1,9.1v3.1
	C54.9,119.8,50.8,123.9,45.8,123.9z"/>
<polygon class="st23" points="102.9,94.1 119.5,122.9 136.1,94.1 "/>
<path class="st13" d="M21.8,99.5v-0.3c0-0.9,0.7-1.6,1.6-1.6h6.9c0.9,0,1.6,0.7,1.6,1.6v0.3c0,0.9-0.7,1.6-1.6,1.6h-6.9
	C22.5,101.1,21.8,100.3,21.8,99.5z"/>
<path class="st5" d="M124.1,91.1v-0.3c0-0.9-0.7-1.6-1.6-1.6h-6.9c-0.9,0-1.6,0.7-1.6,1.6v0.3c0,0.9,0.7,1.6,1.6,1.6h6.9
	C123.4,92.7,124.1,92,124.1,91.1z"/>
<rect x="107.4" y="100.3" class="st43" width="24.9" height="6.2"/>
<text transform="matrix(1 0 0 1 112.796 106.3503)" class="st41 st44">App</text>
<rect x="18.4" y="110.3" class="st43" width="34.4" height="6.2"/>
<text transform="matrix(1 0 0 1 22.8494 116.3649)" class="st41 st44">Service</text>
</svg>
