<?xml version="1.0" encoding="utf-8"?>
<!-- Generator: Adobe Illustrator 19.1.0, SVG Export Plug-In . SVG Version: 6.00 Build 0)  -->
<svg version="1.1" id="Layer_1" xmlns="http://www.w3.org/2000/svg" xmlns:xlink="http://www.w3.org/1999/xlink" x="0px" y="0px"
	 width="176.6px" height="131.7px" viewBox="0 0 176.6 131.7" style="enable-background:new 0 0 176.6 131.7;" xml:space="preserve"
	>
<style type="text/css">
	.st0{fill:#D1EE83;stroke:#97BD30;stroke-width:2.5;stroke-miterlimit:10;}
	.st1{fill:#D1EE83;stroke:#97BD30;stroke-width:4;stroke-miterlimit:10;}
	.st2{fill:#97BD30;}
	.st3{fill:none;stroke:#97BD30;stroke-width:4;stroke-miterlimit:10;}
	.st4{fill:none;stroke:#C8D2D2;stroke-width:4;stroke-miterlimit:10;}
	.st5{fill:#C8D2D2;}
	.st6{fill:#D1EE83;stroke:#97BD30;stroke-width:3.4991;stroke-miterlimit:10;}
	.st7{fill:#D1EE83;stroke:#97BD30;stroke-width:5.6814;stroke-miterlimit:10;}
	.st8{fill:none;stroke:#97BD30;stroke-width:4.8706;stroke-miterlimit:10;}
	.st9{fill:none;stroke:#C8D2D2;stroke-width:4.8076;stroke-miterlimit:10;}
	.st10{fill:none;stroke:#C8D2D2;stroke-width:3.2416;stroke-miterlimit:10;}
	.st11{fill:none;stroke:#97BD30;stroke-width:2.5;stroke-miterlimit:10;}
	.st12{fill:#EE9B83;stroke:#BD3130;stroke-width:2.5;stroke-miterlimit:10;}
	.st13{fill:#BD3130;}
	.st14{fill:none;stroke:#BD3130;stroke-width:4;stroke-miterlimit:10;}
	.st15{fill:#EE9B83;stroke:#BD3130;stroke-width:4;stroke-miterlimit:10;}
	.st16{fill:none;stroke:#97BD30;stroke-width:3;stroke-miterlimit:10;}
	.st17{fill:#FF990D;}
	.st18{fill:none;stroke:#BD3130;stroke-width:2.4036;stroke-miterlimit:10;}
	.st19{fill:none;stroke:#C8D2D2;stroke-width:2.4036;stroke-miterlimit:10;}
	.st20{fill:#EE9B83;stroke:#BD3130;stroke-width:2.4036;stroke-miterlimit:10;}
	.st21{fill:#D1EE83;stroke:#97BD30;stroke-width:1.8073;stroke-miterlimit:10;}
	.st22{fill:#D1EE83;stroke:#97BD30;stroke-width:3;stroke-miterlimit:10;}
	.st23{fill:none;stroke:#C8D2D2;stroke-width:3;stroke-miterlimit:10;}
	.st24{fill:#D1EE83;stroke:#97BD30;stroke-width:2.6609;stroke-miterlimit:10;}
	.st25{fill:none;stroke:#BD3130;stroke-width:2.6609;stroke-miterlimit:10;}
	.st26{fill:none;stroke:#97BD30;stroke-width:2.6609;stroke-miterlimit:10;}
	.st27{fill:#EE9B83;stroke:#BD3130;stroke-width:2.6609;stroke-miterlimit:10;}
	.st28{fill:none;stroke:#C8D2D2;stroke-width:2.6609;stroke-miterlimit:10;}
	.st29{fill:#EE9B83;stroke:#BD3130;stroke-width:1.8073;stroke-miterlimit:10;}
	.st30{fill:none;stroke:#97BD30;stroke-width:1.8069;stroke-miterlimit:10;}
	.st31{fill:none;stroke:#BD3130;stroke-width:2.9701;stroke-miterlimit:10;}
	.st32{fill:none;stroke:#C8D2D2;stroke-width:2.9701;stroke-miterlimit:10;}
	.st33{fill:#EE9B83;stroke:#BD3130;stroke-width:2.9701;stroke-miterlimit:10;}
	.st34{fill:none;}
	.st35{font-family:'Asap-Medium';}
	.st36{font-size:8px;}
	.st37{fill:none;stroke:#BD3130;stroke-width:3;stroke-miterlimit:10;}
	.st38{fill:#EE9B83;stroke:#BD3130;stroke-width:3;stroke-miterlimit:10;}
	.st39{fill:none;stroke:#BD3130;stroke-width:2.6101;stroke-miterlimit:10;}
	.st40{fill:none;stroke:#C8D2D2;stroke-width:2.6101;stroke-miterlimit:10;}
	.st41{fill:#EE9B83;stroke:#BD3130;stroke-width:2.6101;stroke-miterlimit:10;}
	.st42{fill:none;stroke:#97BD30;stroke-width:2.6364;stroke-miterlimit:10;}
	.st43{fill:none;stroke:#97BD30;stroke-width:1.8073;stroke-miterlimit:10;}
</style>
<polygon class="st23" points="70.7,58.1 87.3,86.9 103.9,58.1 "/>
<rect x="74.9" y="64.3" class="st34" width="24.9" height="6.2"/>
<text transform="matrix(1 0 0 1 80.2735 70.3319)" class="st35 st36">App</text>
<path class="st16" d="M77.7,75.3c-2.9,1.9-28.3,18.6-32.1,21.1"/>
<path class="st23" d="M48.5,107.2L36.8,89.5c-2.8-4.2-8.5-5.4-12.7-2.6l-2.6,1.7c-4.2,2.8-5.4,8.5-2.6,12.7L30.6,119
	c2.8,4.2,8.5,5.4,12.7,2.6l2.6-1.7C50.1,117.1,51.2,111.4,48.5,107.2z"/>
<path class="st5" d="M80.5,79.5l-0.2,0.2c-0.7,0.5-1.7,0.3-2.2-0.5l-3.8-5.8c-0.5-0.7-0.3-1.7,0.5-2.2l0.2-0.2
	c0.7-0.5,1.7-0.3,2.2,0.5l3.8,5.8C81.4,78.1,81.2,79.1,80.5,79.5z"/>
<path class="st5" d="M42,92.7l0.2-0.2c0.7-0.5,1.7-0.3,2.2,0.5l3.8,5.8c0.5,0.7,0.3,1.7-0.5,2.2l-0.2,0.2c-0.7,0.5-1.7,0.3-2.2-0.5
	l-3.8-5.8C41,94.2,41.3,93.2,42,92.7z"/>
<path class="st16" d="M97,75.3c2.9,1.9,28.3,18.6,32.1,21.1"/>
<path class="st23" d="M126.1,107.2l11.7-17.8c2.8-4.2,8.5-5.4,12.7-2.6l2.6,1.7c4.2,2.8,5.4,8.5,2.6,12.7L144,119
	c-2.8,4.2-8.5,5.4-12.7,2.6l-2.6-1.7C124.5,117.1,123.3,111.5,126.1,107.2z"/>
<path class="st5" d="M94.2,79.5l0.2,0.2c0.7,0.5,1.7,0.3,2.2-0.5l3.8-5.8c0.5-0.7,0.3-1.7-0.5-2.2l-0.2-0.2
	c-0.7-0.5-1.7-0.3-2.2,0.5l-3.8,5.8C93.3,78.1,93.5,79.1,94.2,79.5z"/>
<g>
	<path d="M133.6,109.6c0.2-0.2,0.3-0.3,0.4-0.3c0.1-0.1,0.2-0.1,0.3,0c0.1,0.1,0.2,0.2,0.2,0.3s0.1,0.3,0.1,0.3c0,0-0.1,0-0.1,0.1
		c-0.1,0.1-0.2,0.1-0.3,0.2c-0.1,0.1-0.2,0.2-0.3,0.3c-0.2,0.2-0.2,0.5-0.2,0.6s0.1,0.3,0.3,0.4c0.1,0.1,0.3,0.1,0.4,0.1
		c0.1,0,0.2,0,0.4-0.1c0.1-0.1,0.3-0.2,0.5-0.3c0.3-0.2,0.5-0.3,0.7-0.4c0.2-0.1,0.4-0.2,0.7-0.2c0.3,0,0.5,0.1,0.8,0.3
		c0.5,0.3,0.7,0.7,0.8,1.1c0,0.4-0.1,0.9-0.4,1.3c-0.2,0.3-0.4,0.5-0.6,0.7s-0.4,0.3-0.6,0.4c-0.2,0.1-0.3,0.1-0.4,0
		c-0.1,0-0.1-0.1-0.2-0.2c-0.1-0.1-0.1-0.2-0.1-0.3c0-0.1,0-0.2,0-0.2c0,0,0.1-0.1,0.2-0.1c0.2-0.1,0.3-0.2,0.5-0.3s0.3-0.2,0.4-0.4
		c0.1-0.2,0.2-0.4,0.2-0.6c0-0.2-0.1-0.4-0.3-0.5c-0.1-0.1-0.2-0.1-0.4-0.1c-0.1,0-0.3,0.1-0.4,0.1c-0.1,0.1-0.3,0.2-0.5,0.3
		c-0.1,0.1-0.2,0.1-0.2,0.2c-0.2,0.1-0.4,0.3-0.6,0.3c-0.2,0.1-0.4,0.1-0.6,0.1c-0.2,0-0.5-0.1-0.7-0.3c-0.3-0.2-0.5-0.4-0.6-0.7
		c-0.1-0.3-0.1-0.6-0.1-0.9c0.1-0.3,0.2-0.6,0.4-0.9C133.3,109.9,133.5,109.7,133.6,109.6z"/>
	<path d="M137.8,106.7c0.5,0,1,0.1,1.5,0.5c0,0,0.1,0.1,0.1,0.3c0,0.1,0,0.2,0,0.3l-1.2,1.9c0.3,0.2,0.6,0.2,0.8,0.2
		c0.2-0.1,0.4-0.2,0.6-0.5c0.1-0.1,0.2-0.3,0.2-0.4c0-0.1,0.1-0.3,0.1-0.4c0-0.1,0-0.1,0-0.2c0-0.1,0.1-0.1,0.3-0.1s0.3,0,0.3,0.1
		c0.1,0.1,0.1,0.2,0.1,0.3c0,0.2-0.1,0.4-0.1,0.6s-0.2,0.4-0.3,0.6c-0.4,0.6-0.8,0.9-1.3,1c-0.5,0.1-1-0.1-1.6-0.4
		c-0.6-0.4-1-0.8-1.1-1.3c-0.1-0.5,0-1,0.3-1.5C136.9,106.9,137.3,106.7,137.8,106.7z M137.6,109.1l0.9-1.3
		c-0.3-0.2-0.5-0.3-0.7-0.2c-0.2,0-0.4,0.1-0.5,0.3C137,108.3,137.1,108.7,137.6,109.1z"/>
	<path d="M139.3,103.5c0.1,0,0.2,0,0.3,0.1c0.1,0.1,0.2,0.1,0.3,0.3c0.1,0.1,0.1,0.2,0.1,0.2c0,0-0.1,0.1-0.1,0.1s-0.1,0.1-0.2,0.2
		c-0.1,0.1-0.1,0.3-0.1,0.4c0,0.1,0,0.3,0.1,0.4l2.3,1.5c0.1,0.1,0.1,0.2,0,0.5l-0.1,0.1c-0.2,0.2-0.3,0.3-0.4,0.2l-2.2-1.4
		c-0.3-0.2-0.5-0.3-0.7-0.4c-0.2-0.1-0.2-0.1-0.3-0.1c-0.1,0-0.1-0.1,0-0.3c0.1-0.2,0.1-0.3,0.2-0.4c0-0.1,0.1-0.1,0.2-0.1
		c0.1,0,0.2,0,0.2,0.1c0.1,0,0.1,0.1,0.2,0.1c-0.1-0.2-0.1-0.4-0.2-0.6c0-0.2,0-0.3,0.1-0.5C139.1,103.6,139.2,103.5,139.3,103.5z"
		/>
	<path d="M141.6,100.2c0,0,0.1,0,0.1,0.1l2.4,3.1c0.1,0.1,0,0.2-0.1,0.4l-0.1,0.2c-0.1,0.2-0.2,0.3-0.4,0.3l-3.9-1
		c-0.1,0-0.1,0-0.1,0c-0.1-0.1-0.1-0.2,0.1-0.5l0.1-0.1c0.1-0.2,0.2-0.3,0.4-0.3l1.9,0.5l0.7,0.2l0.3,0.1l0,0
		c-0.3-0.3-0.5-0.5-0.7-0.7L141,101c-0.1-0.1,0-0.2,0.1-0.4l0.1-0.1C141.4,100.3,141.5,100.2,141.6,100.2z"/>
	<path d="M142.5,98.9l3.2,2.1c0.1,0.1,0.1,0.2,0,0.5l-0.1,0.1c-0.2,0.2-0.3,0.3-0.4,0.2l-3.1-2.1c-0.1-0.1-0.1-0.2,0-0.5l0.1-0.1
		C142.3,98.9,142.4,98.8,142.5,98.9z M141,97.9l0.5,0.3c0.1,0,0.1,0.1,0.1,0.2c0,0.1,0,0.2-0.1,0.3l-0.1,0.1
		c-0.1,0.1-0.2,0.2-0.2,0.2c-0.1,0-0.1,0-0.2,0l-0.5-0.3c-0.1-0.1-0.1-0.2,0-0.5l0.1-0.1C140.8,97.9,140.9,97.8,141,97.9z"/>
	<path d="M144.5,95.6c0.2-0.2,0.4-0.2,0.5-0.1c0.1,0,0.1,0.1,0.2,0.3c0.1,0.2,0.1,0.3,0.1,0.3c0,0,0,0-0.1,0.1
		c-0.2,0.1-0.4,0.3-0.6,0.5c-0.2,0.3-0.2,0.5-0.1,0.8c0.1,0.3,0.3,0.5,0.7,0.8c0.4,0.3,0.7,0.4,1,0.4c0.3,0,0.5-0.2,0.7-0.5
		c0.2-0.2,0.2-0.5,0.3-0.8c0-0.1,0-0.1,0-0.1c0-0.1,0.1-0.1,0.3-0.1c0.2,0,0.3,0,0.3,0.1c0.1,0.1,0.1,0.2,0.1,0.3
		c0,0.2-0.1,0.4-0.2,0.6c-0.1,0.2-0.2,0.4-0.3,0.5c-0.4,0.6-0.8,0.9-1.3,1c-0.5,0.1-1-0.1-1.6-0.5c-0.6-0.4-1-0.8-1.1-1.3
		c-0.1-0.5,0-1,0.4-1.5C144.1,96,144.3,95.8,144.5,95.6z"/>
	<path d="M147.2,92.3c0.5,0,1,0.1,1.5,0.5c0,0,0.1,0.1,0.1,0.3c0,0.1,0,0.2,0,0.3l-1.2,1.9c0.3,0.2,0.6,0.2,0.8,0.2
		c0.2-0.1,0.4-0.2,0.6-0.5c0.1-0.1,0.2-0.3,0.2-0.4c0-0.1,0.1-0.3,0.1-0.4c0-0.1,0-0.1,0-0.2c0-0.1,0.1-0.1,0.3-0.1s0.3,0,0.3,0.1
		c0.1,0.1,0.1,0.2,0.1,0.3s-0.1,0.4-0.1,0.6c-0.1,0.2-0.2,0.4-0.3,0.6c-0.4,0.6-0.8,0.9-1.3,1c-0.5,0.1-1-0.1-1.6-0.4
		c-0.6-0.4-1-0.8-1.1-1.3c-0.1-0.5,0-1,0.3-1.5C146.3,92.6,146.7,92.4,147.2,92.3z M147,94.8l0.9-1.3c-0.3-0.2-0.5-0.3-0.7-0.2
		c-0.2,0-0.4,0.1-0.5,0.3C146.4,94,146.5,94.4,147,94.8z"/>
</g>
<g>
	<path d="M29.8,95c0.1,0.2,0.1,0.4,0.1,0.5c0,0.2,0,0.3-0.1,0.3c-0.1,0.1-0.2,0.1-0.4,0.1c-0.2,0-0.3,0-0.3-0.1c0,0,0-0.1,0-0.2
		c0-0.1-0.1-0.2-0.1-0.4c0-0.1-0.1-0.2-0.2-0.4c-0.2-0.2-0.3-0.4-0.5-0.4c-0.2,0-0.3,0-0.5,0.1c-0.1,0.1-0.2,0.2-0.2,0.3
		c0,0.1,0,0.3,0,0.4c0,0.1,0.1,0.3,0.1,0.6c0.1,0.3,0.1,0.6,0.2,0.8c0,0.2,0,0.5-0.1,0.7c-0.1,0.2-0.3,0.5-0.5,0.7
		c-0.5,0.3-0.9,0.4-1.3,0.3c-0.4-0.1-0.8-0.4-1.1-0.8c-0.2-0.3-0.4-0.6-0.5-0.8c-0.1-0.3-0.2-0.5-0.2-0.7c0-0.2,0-0.3,0.1-0.4
		c0.1,0,0.1-0.1,0.2-0.1c0.1,0,0.2,0,0.3,0c0.1,0,0.2,0,0.2,0.1c0,0,0,0.1,0,0.2c0,0.2,0.1,0.4,0.1,0.5c0,0.2,0.1,0.3,0.3,0.5
		c0.1,0.2,0.3,0.3,0.5,0.4c0.2,0.1,0.4,0,0.6-0.1c0.1-0.1,0.2-0.2,0.2-0.3c0-0.1,0-0.3,0-0.4c0-0.1-0.1-0.3-0.1-0.6
		c0-0.1-0.1-0.2-0.1-0.3c-0.1-0.3-0.1-0.5-0.1-0.7c0-0.2,0-0.4,0.1-0.6c0.1-0.2,0.3-0.4,0.5-0.6c0.3-0.2,0.6-0.3,0.8-0.3
		c0.3,0,0.6,0.1,0.8,0.2c0.3,0.2,0.5,0.4,0.7,0.6C29.6,94.6,29.7,94.8,29.8,95z"/>
	<path d="M31.1,99.9c-0.1,0.4-0.5,0.9-1,1.2c0,0-0.1,0-0.3,0c-0.1,0-0.2,0-0.3-0.1l-1.3-1.8c-0.3,0.2-0.4,0.5-0.4,0.7
		c0,0.2,0.1,0.5,0.2,0.7c0.1,0.1,0.2,0.3,0.3,0.3c0.1,0.1,0.2,0.2,0.4,0.2c0.1,0,0.1,0.1,0.1,0.1c0,0.1,0,0.2,0,0.3
		c-0.1,0.2-0.1,0.3-0.2,0.3c-0.1,0.1-0.2,0.1-0.4,0c-0.2-0.1-0.3-0.2-0.5-0.3c-0.2-0.2-0.3-0.3-0.4-0.5c-0.4-0.6-0.6-1.1-0.5-1.6
		c0.1-0.5,0.4-0.9,1-1.3c0.6-0.4,1.1-0.6,1.6-0.6c0.5,0.1,0.9,0.3,1.3,0.8C31.1,99,31.2,99.5,31.1,99.9z M28.8,98.9l0.9,1.3
		c0.2-0.2,0.4-0.4,0.5-0.6c0.1-0.2,0-0.4-0.1-0.6C29.8,98.6,29.4,98.6,28.8,98.9z"/>
	<path d="M33.5,102.5c0,0.1-0.1,0.2-0.2,0.2c-0.1,0.1-0.2,0.1-0.3,0.2c-0.1,0-0.2,0.1-0.3,0c0,0,0-0.1-0.1-0.2
		c0-0.1-0.1-0.2-0.1-0.2c-0.1-0.1-0.2-0.2-0.4-0.2c-0.1,0-0.3-0.1-0.4,0l-2.2,1.6c-0.1,0.1-0.3,0-0.4-0.2l-0.1-0.1
		c-0.2-0.2-0.2-0.4-0.1-0.5l2.1-1.6c0.3-0.2,0.5-0.4,0.6-0.5c0.1-0.1,0.2-0.2,0.2-0.2c0.1,0,0.2,0,0.3,0.1c0.1,0.1,0.2,0.2,0.3,0.3
		c0,0.1,0.1,0.1,0,0.2c0,0.1-0.1,0.1-0.1,0.2c-0.1,0.1-0.1,0.1-0.1,0.1c0.2,0,0.4,0,0.6,0.1c0.2,0.1,0.3,0.2,0.4,0.3
		C33.5,102.3,33.5,102.4,33.5,102.5z"/>
	<path d="M35.8,105.7c0,0-0.1,0-0.1,0.1l-3.8,1.2c-0.1,0-0.2,0-0.4-0.2l-0.2-0.2c-0.1-0.2-0.2-0.3-0.1-0.4l2.3-3.3
		c0,0,0.1-0.1,0.1-0.1c0.1-0.1,0.2,0,0.4,0.3l0.1,0.1c0.1,0.2,0.2,0.3,0.1,0.4l-1.2,1.6l-0.5,0.5l-0.2,0.2l0,0
		c0.4-0.2,0.7-0.3,0.9-0.4l1.9-0.6c0.1,0,0.2,0,0.4,0.2l0.1,0.1C35.8,105.5,35.8,105.6,35.8,105.7z"/>
	<path d="M36.7,107.1l-3,2.2c-0.1,0.1-0.3,0-0.4-0.2l-0.1-0.1c-0.2-0.2-0.2-0.4-0.1-0.5l3-2.2c0.1-0.1,0.3,0,0.4,0.2l0.1,0.1
		C36.8,106.8,36.8,107,36.7,107.1z M38.2,106l-0.5,0.3c-0.1,0-0.1,0.1-0.2,0c-0.1,0-0.1-0.1-0.2-0.2l-0.1-0.1
		c-0.1-0.1-0.1-0.2-0.1-0.3c0-0.1,0-0.1,0.1-0.2l0.5-0.3c0.1-0.1,0.3,0,0.4,0.2l0.1,0.1C38.3,105.8,38.3,105.9,38.2,106z"/>
	<path d="M39,110.1c0.1,0.3,0.1,0.4,0,0.5c-0.1,0-0.2,0.1-0.4,0.1c-0.2,0-0.3,0-0.3-0.1c0,0,0,0,0-0.1c0-0.3-0.1-0.5-0.3-0.7
		c-0.2-0.3-0.4-0.4-0.7-0.4c-0.3,0-0.6,0.1-1,0.4c-0.4,0.3-0.6,0.5-0.7,0.8c-0.1,0.3,0,0.5,0.2,0.8c0.2,0.2,0.4,0.4,0.6,0.5
		c0.1,0,0.1,0.1,0.1,0.1c0,0.1,0,0.2,0,0.3c-0.1,0.2-0.1,0.3-0.2,0.3c-0.1,0.1-0.2,0.1-0.4,0c-0.2-0.1-0.3-0.2-0.5-0.3
		c-0.2-0.1-0.3-0.3-0.4-0.4c-0.4-0.5-0.6-1-0.5-1.5c0.1-0.5,0.4-0.9,1-1.4c0.6-0.4,1.1-0.6,1.6-0.6c0.5,0.1,0.9,0.4,1.3,0.9
		C38.8,109.5,39,109.8,39,110.1z"/>
	<path d="M41.2,113.7c-0.1,0.4-0.5,0.9-1,1.2c0,0-0.1,0-0.3,0c-0.1,0-0.2,0-0.3-0.1l-1.3-1.8c-0.3,0.2-0.4,0.5-0.4,0.7
		c0,0.2,0.1,0.5,0.2,0.7c0.1,0.1,0.2,0.3,0.3,0.3c0.1,0.1,0.2,0.2,0.4,0.2c0.1,0,0.1,0.1,0.1,0.1c0,0.1,0,0.2,0,0.3
		s-0.1,0.3-0.2,0.3c-0.1,0.1-0.2,0.1-0.4,0s-0.3-0.2-0.5-0.3c-0.2-0.2-0.3-0.3-0.4-0.5c-0.4-0.6-0.6-1.1-0.5-1.6
		c0.1-0.5,0.4-0.9,1-1.3c0.6-0.4,1.1-0.6,1.6-0.6c0.5,0.1,0.9,0.3,1.3,0.8C41.2,112.8,41.3,113.3,41.2,113.7z M38.9,112.7l0.9,1.3
		c0.2-0.2,0.4-0.4,0.5-0.6c0.1-0.2,0-0.4-0.1-0.6C39.9,112.4,39.5,112.4,38.9,112.7z"/>
</g>
<path class="st5" d="M132.6,92.8l-0.2-0.2c-0.7-0.5-1.7-0.3-2.2,0.5l-3.8,5.8c-0.5,0.7-0.3,1.7,0.5,2.2l0.2,0.2
	c0.7,0.5,1.7,0.3,2.2-0.5l3.8-5.8C133.5,94.2,133.3,93.2,132.6,92.8z"/>
<g>
	<path class="st16" d="M69.1,56.9c-2.8-2-27.4-19.9-31.1-22.5"/>
	<path class="st23" d="M29,40.8l12.5-17.2c3-4.1,2-9.8-2-12.8L36.9,9c-4.1-3-9.8-2-12.8,2L11.7,28.2c-3,4.1-2,9.8,2,12.8l2.5,1.8
		C20.3,45.8,26.1,44.9,29,40.8z"/>
	<path class="st5" d="M66.1,61l-0.2-0.2c-0.7-0.5-0.9-1.5-0.4-2.2l4.1-5.6c0.5-0.7,1.5-0.9,2.2-0.4l0.2,0.2c0.7,0.5,0.9,1.5,0.4,2.2
		l-4.1,5.6C67.8,61.4,66.8,61.5,66.1,61z"/>
	<path class="st5" d="M40.3,29.6l0.2,0.2c0.7,0.5,0.9,1.5,0.4,2.2l-4.1,5.6c-0.5,0.7-1.5,0.9-2.2,0.4l-0.2-0.2
		c-0.7-0.5-0.9-1.5-0.4-2.2l4.1-5.6C38.6,29.2,39.6,29.1,40.3,29.6z"/>
	<g>
		<path d="M17.4,31.3c0.2-0.1,0.3-0.2,0.5-0.3c0.1-0.1,0.3,0,0.3,0c0.1,0.1,0.1,0.2,0.2,0.3c0.1,0.2,0.1,0.3,0,0.3
			c0,0-0.1,0-0.1,0.1c-0.1,0.1-0.2,0.1-0.3,0.2c-0.1,0.1-0.2,0.2-0.3,0.3c-0.2,0.2-0.3,0.4-0.3,0.6s0.1,0.3,0.2,0.4
			c0.1,0.1,0.2,0.2,0.4,0.2c0.1,0,0.3,0,0.4-0.1c0.1-0.1,0.3-0.1,0.5-0.3c0.3-0.2,0.5-0.3,0.8-0.4c0.2-0.1,0.5-0.1,0.7-0.1
			c0.3,0,0.5,0.2,0.8,0.4c0.4,0.4,0.6,0.8,0.6,1.2c0,0.4-0.2,0.9-0.5,1.3c-0.2,0.3-0.5,0.5-0.7,0.6c-0.2,0.2-0.4,0.3-0.6,0.3
			c-0.2,0-0.3,0-0.4,0c-0.1,0-0.1-0.1-0.1-0.2c0-0.1-0.1-0.2-0.1-0.3c0-0.1,0-0.2,0-0.2c0,0,0.1-0.1,0.2-0.1
			c0.2-0.1,0.3-0.1,0.5-0.2c0.1-0.1,0.3-0.2,0.4-0.4c0.2-0.2,0.2-0.4,0.3-0.6c0-0.2-0.1-0.4-0.2-0.5c-0.1-0.1-0.2-0.1-0.4-0.1
			c-0.1,0-0.3,0-0.4,0.1c-0.1,0.1-0.3,0.1-0.5,0.3c-0.1,0.1-0.2,0.1-0.2,0.1c-0.2,0.1-0.5,0.2-0.7,0.3c-0.2,0-0.4,0.1-0.6,0
			c-0.2,0-0.5-0.2-0.7-0.4c-0.3-0.2-0.4-0.5-0.5-0.7c-0.1-0.3-0.1-0.6,0-0.9c0.1-0.3,0.2-0.6,0.5-0.8C17,31.6,17.2,31.4,17.4,31.3z"
			/>
		<path d="M21.9,28.9c0.5,0,0.9,0.2,1.4,0.7c0,0,0.1,0.1,0.1,0.3c0,0.1,0,0.2,0,0.3L22,31.8c0.3,0.2,0.6,0.3,0.8,0.3
			c0.2,0,0.4-0.2,0.7-0.4c0.1-0.1,0.2-0.3,0.3-0.4c0.1-0.1,0.1-0.3,0.1-0.4c0-0.1,0-0.1,0.1-0.2c0-0.1,0.1-0.1,0.3,0
			c0.2,0,0.3,0.1,0.3,0.1c0.1,0.1,0.1,0.2,0.1,0.4c0,0.2-0.1,0.4-0.2,0.6S24.1,32,24,32.2c-0.4,0.5-0.9,0.8-1.4,0.8
			c-0.5,0-1-0.2-1.5-0.6c-0.6-0.5-0.9-1-0.9-1.4c-0.1-0.5,0.1-1,0.5-1.4C21,29.1,21.4,28.9,21.9,28.9z M21.4,31.3l1-1.2
			c-0.2-0.2-0.5-0.3-0.7-0.3c-0.2,0-0.4,0.1-0.5,0.2C20.9,30.4,21,30.9,21.4,31.3z"/>
		<path d="M23.8,25.9c0.1,0,0.2,0,0.3,0.1c0.1,0.1,0.2,0.2,0.2,0.3c0.1,0.1,0.1,0.2,0.1,0.3c0,0-0.1,0.1-0.1,0.1
			c-0.1,0-0.1,0.1-0.2,0.2c-0.1,0.1-0.1,0.3-0.1,0.4c0,0.1,0,0.3,0,0.4l2.1,1.7c0.1,0.1,0.1,0.3-0.1,0.5L25.8,30
			c-0.2,0.2-0.3,0.3-0.4,0.2l-2-1.7c-0.3-0.2-0.5-0.4-0.6-0.5c-0.1-0.1-0.2-0.1-0.3-0.2c-0.1,0,0-0.2,0-0.3c0.1-0.2,0.2-0.3,0.3-0.4
			C22.8,27,22.9,27,23,27c0.1,0,0.2,0,0.2,0.1c0.1,0,0.1,0.1,0.2,0.1c-0.1-0.2-0.1-0.4-0.1-0.6c0-0.2,0.1-0.3,0.2-0.5
			C23.6,26,23.7,26,23.8,25.9z"/>
		<path d="M26.4,23c0,0,0.1,0.1,0.1,0.1l2.1,3.4c0.1,0.1,0,0.2-0.1,0.4l-0.2,0.2c-0.2,0.2-0.3,0.3-0.4,0.2l-3.7-1.5
			c-0.1,0-0.1,0-0.1-0.1c-0.1-0.1,0-0.2,0.2-0.4l0.1-0.1c0.2-0.2,0.3-0.3,0.4-0.2l1.8,0.8l0.6,0.3l0.3,0.1l0,0
			c-0.3-0.3-0.5-0.6-0.6-0.8l-1.1-1.7c-0.1-0.1,0-0.2,0.1-0.4l0.1-0.1C26.2,23,26.3,22.9,26.4,23z"/>
		<path d="M27.5,21.7l2.9,2.4c0.1,0.1,0.1,0.3-0.1,0.5l-0.1,0.1C30,25,29.9,25,29.8,24.9l-2.9-2.4c-0.1-0.1-0.1-0.2,0.1-0.5l0.1-0.1
			C27.2,21.7,27.4,21.7,27.5,21.7z M26.1,20.6l0.4,0.4c0.1,0,0.1,0.1,0.1,0.2c0,0.1-0.1,0.2-0.2,0.3l-0.1,0.1
			c-0.1,0.1-0.2,0.2-0.2,0.2c-0.1,0-0.1,0-0.2,0l-0.4-0.4c-0.1-0.1-0.1-0.3,0.1-0.5l0.1-0.1C25.9,20.5,26,20.5,26.1,20.6z"/>
		<path d="M29.9,18.7c0.2-0.1,0.4-0.2,0.5-0.1c0.1,0,0.1,0.2,0.2,0.3c0.1,0.2,0.1,0.3,0,0.3c0,0,0,0-0.1,0.1
			c-0.3,0.1-0.5,0.3-0.6,0.5c-0.2,0.3-0.3,0.5-0.2,0.8c0.1,0.3,0.3,0.5,0.6,0.8c0.4,0.3,0.7,0.5,0.9,0.5c0.3,0,0.5-0.1,0.7-0.4
			c0.2-0.2,0.3-0.5,0.4-0.8c0-0.1,0-0.1,0-0.1c0-0.1,0.2-0.1,0.3,0c0.2,0,0.3,0.1,0.3,0.1c0.1,0.1,0.1,0.2,0.1,0.4
			c0,0.2-0.1,0.3-0.2,0.5c-0.1,0.2-0.2,0.3-0.3,0.5c-0.4,0.5-0.9,0.8-1.4,0.8c-0.5,0-1-0.2-1.6-0.7c-0.6-0.5-0.9-1-0.9-1.4
			c0-0.5,0.1-1,0.5-1.5C29.4,19.1,29.6,18.9,29.9,18.7z"/>
		<path d="M32.9,15.8c0.5,0,0.9,0.2,1.4,0.7c0,0,0.1,0.1,0.1,0.3c0,0.1,0,0.2,0,0.3L33,18.7c0.3,0.2,0.6,0.3,0.8,0.3
			c0.2,0,0.4-0.2,0.7-0.4c0.1-0.1,0.2-0.3,0.3-0.4c0.1-0.1,0.1-0.3,0.1-0.4c0-0.1,0-0.1,0.1-0.2c0-0.1,0.1-0.1,0.3,0
			c0.2,0,0.3,0.1,0.3,0.1c0.1,0.1,0.1,0.2,0.1,0.4s-0.1,0.4-0.2,0.6c-0.1,0.2-0.2,0.4-0.4,0.5c-0.4,0.5-0.9,0.8-1.4,0.8
			c-0.5,0-1-0.2-1.5-0.6c-0.6-0.5-0.9-1-0.9-1.4c-0.1-0.5,0.1-1,0.5-1.4C32,16,32.4,15.8,32.9,15.8z M32.4,18.2l1-1.2
			c-0.2-0.2-0.5-0.3-0.7-0.3c-0.2,0-0.4,0.1-0.5,0.2C31.9,17.3,32,17.8,32.4,18.2z"/>
	</g>
</g>
<path class="st16" d="M106.6,56.9c2.8-2,27.4-19.9,31.1-22.5"/>
<path class="st23" d="M146.7,40.8l-12.5-17.2c-3-4.1-2-9.8,2-12.8l2.5-1.8c4.1-3,9.8-2,12.8,2L164,28.2c3,4.1,2,9.8-2,12.8l-2.5,1.8
	C155.4,45.8,149.6,44.9,146.7,40.8z"/>
<path class="st5" d="M109.6,61l0.2-0.2c0.7-0.5,0.9-1.5,0.4-2.2l-4.1-5.6c-0.5-0.7-1.5-0.9-2.2-0.4l-0.2,0.2
	c-0.7,0.5-0.9,1.5-0.4,2.2l4.1,5.6C107.9,61.4,108.9,61.5,109.6,61z"/>
<path class="st5" d="M135.5,29.6l-0.2,0.2c-0.7,0.5-0.9,1.5-0.4,2.2l4.1,5.6c0.5,0.7,1.5,0.9,2.2,0.4l0.2-0.2
	c0.7-0.5,0.9-1.5,0.4-2.2l-4.1-5.6C137.2,29.2,136.2,29.1,135.5,29.6z"/>
<g>
	<path d="M146.8,16.6c0.1,0.2,0.1,0.4,0.1,0.5c0,0.2,0,0.3-0.1,0.3c-0.1,0.1-0.2,0.1-0.4,0.1c-0.2,0-0.3,0-0.3-0.1c0,0,0-0.1,0-0.2
		c0-0.1-0.1-0.2-0.1-0.4c0-0.1-0.1-0.2-0.2-0.4c-0.2-0.2-0.3-0.4-0.5-0.4c-0.2,0-0.3,0-0.5,0.1c-0.1,0.1-0.2,0.2-0.2,0.3
		c0,0.1,0,0.3,0,0.4c0,0.1,0.1,0.3,0.1,0.6c0.1,0.3,0.1,0.6,0.2,0.8c0,0.2,0,0.5-0.1,0.7c-0.1,0.2-0.3,0.5-0.6,0.7
		c-0.5,0.3-0.9,0.4-1.3,0.3c-0.4-0.1-0.8-0.4-1.1-0.8c-0.2-0.3-0.4-0.6-0.5-0.8c-0.1-0.3-0.2-0.5-0.2-0.7c0-0.2,0-0.3,0.1-0.4
		c0.1,0,0.1-0.1,0.2-0.1c0.1,0,0.2,0,0.3,0c0.1,0,0.2,0,0.2,0.1c0,0,0,0.1,0,0.2c0,0.2,0.1,0.4,0.1,0.5c0,0.2,0.1,0.3,0.3,0.5
		c0.1,0.2,0.3,0.3,0.5,0.4c0.2,0.1,0.4,0,0.6-0.1c0.1-0.1,0.2-0.2,0.2-0.3c0-0.1,0-0.3,0-0.4c0-0.1-0.1-0.3-0.1-0.6
		c0-0.1-0.1-0.2-0.1-0.3c-0.1-0.3-0.1-0.5-0.1-0.7c0-0.2,0.1-0.4,0.2-0.6c0.1-0.2,0.3-0.4,0.5-0.6c0.3-0.2,0.6-0.3,0.8-0.3
		c0.3,0,0.6,0.1,0.8,0.2c0.3,0.2,0.5,0.4,0.7,0.7C146.6,16.2,146.7,16.4,146.8,16.6z"/>
	<path d="M148,21.6c-0.1,0.4-0.5,0.8-1,1.2c0,0-0.1,0-0.3,0c-0.1,0-0.2,0-0.3-0.1l-1.3-1.8c-0.3,0.2-0.4,0.5-0.5,0.7
		c0,0.2,0,0.5,0.2,0.7c0.1,0.1,0.2,0.3,0.3,0.3c0.1,0.1,0.2,0.2,0.4,0.2c0.1,0,0.1,0.1,0.1,0.1c0,0.1,0,0.2,0,0.3s-0.1,0.3-0.2,0.3
		c-0.1,0.1-0.2,0.1-0.4,0c-0.2-0.1-0.3-0.2-0.5-0.3s-0.3-0.3-0.4-0.5c-0.4-0.6-0.5-1.1-0.5-1.6c0.1-0.5,0.4-0.9,1-1.3
		c0.6-0.4,1.1-0.6,1.6-0.5c0.5,0.1,0.9,0.3,1.3,0.8C148,20.7,148.1,21.1,148,21.6z M145.7,20.5l0.9,1.3c0.3-0.2,0.4-0.4,0.5-0.6
		c0.1-0.2,0-0.4-0.1-0.6C146.7,20.2,146.3,20.2,145.7,20.5z"/>
	<path d="M150.4,24.1c0,0.1-0.1,0.2-0.2,0.2c-0.1,0.1-0.2,0.1-0.3,0.2c-0.1,0-0.2,0-0.3,0c0,0,0-0.1-0.1-0.2c0-0.1-0.1-0.2-0.1-0.2
		c-0.1-0.1-0.2-0.2-0.4-0.2c-0.1,0-0.3-0.1-0.4-0.1l-2.2,1.6c-0.1,0.1-0.3,0-0.4-0.2l-0.1-0.1c-0.2-0.2-0.2-0.4-0.1-0.5l2.1-1.5
		c0.3-0.2,0.5-0.4,0.6-0.5c0.1-0.1,0.2-0.2,0.2-0.2c0.1,0,0.2,0,0.3,0.1c0.1,0.1,0.2,0.2,0.3,0.3c0,0.1,0.1,0.1,0,0.2
		c0,0.1-0.1,0.1-0.1,0.2c-0.1,0.1-0.1,0.1-0.1,0.1c0.2,0,0.4,0,0.6,0.1c0.2,0.1,0.3,0.2,0.4,0.3C150.4,23.9,150.4,24,150.4,24.1z"/>
	<path d="M152.6,27.4c0,0-0.1,0-0.1,0.1l-3.8,1.1c-0.1,0-0.2,0-0.4-0.2l-0.2-0.2c-0.1-0.2-0.2-0.3-0.1-0.4l2.3-3.2
		c0,0,0.1-0.1,0.1-0.1c0.1-0.1,0.2,0,0.4,0.3l0.1,0.1c0.1,0.2,0.2,0.3,0.1,0.4l-1.2,1.6l-0.5,0.5l-0.2,0.2l0,0
		c0.4-0.2,0.7-0.3,0.9-0.4l1.9-0.6c0.1,0,0.2,0.1,0.4,0.2l0.1,0.1C152.7,27.2,152.7,27.4,152.6,27.4z"/>
	<path d="M153.5,28.8l-3.1,2.2c-0.1,0.1-0.3,0-0.4-0.2l-0.1-0.1c-0.2-0.2-0.2-0.4-0.1-0.5l3.1-2.2c0.1-0.1,0.3,0,0.4,0.2l0.1,0.1
		C153.6,28.6,153.6,28.7,153.5,28.8z M155,27.8l-0.5,0.3c-0.1,0-0.1,0-0.2,0c-0.1,0-0.1-0.1-0.2-0.2l-0.1-0.1
		c-0.1-0.1-0.1-0.2-0.1-0.3c0-0.1,0-0.1,0.1-0.2l0.5-0.3c0.1-0.1,0.3,0,0.4,0.2l0.1,0.1C155.1,27.5,155.1,27.7,155,27.8z"/>
	<path d="M155.8,31.8c0.1,0.3,0.1,0.4-0.1,0.5c-0.1,0-0.2,0.1-0.4,0.1c-0.2,0-0.3,0-0.3-0.1c0,0,0,0,0-0.1c0-0.3-0.1-0.5-0.3-0.7
		c-0.2-0.3-0.4-0.4-0.7-0.4c-0.3,0-0.6,0.1-1,0.4c-0.4,0.3-0.6,0.5-0.7,0.8c-0.1,0.3,0,0.5,0.2,0.8c0.2,0.2,0.4,0.4,0.6,0.6
		c0.1,0,0.1,0.1,0.1,0.1c0,0.1,0,0.2,0,0.3c-0.1,0.2-0.1,0.2-0.2,0.3c-0.1,0.1-0.2,0.1-0.4,0c-0.2-0.1-0.3-0.2-0.5-0.4
		c-0.2-0.2-0.3-0.3-0.4-0.4c-0.4-0.5-0.5-1.1-0.4-1.5c0.1-0.5,0.4-0.9,1-1.3c0.6-0.4,1.1-0.6,1.6-0.5c0.5,0.1,0.9,0.4,1.3,0.9
		C155.6,31.3,155.8,31.6,155.8,31.8z"/>
	<path d="M157.9,35.5c-0.1,0.4-0.5,0.8-1,1.2c0,0-0.1,0-0.3,0c-0.1,0-0.2,0-0.3-0.1l-1.3-1.8c-0.3,0.2-0.4,0.5-0.5,0.7
		c0,0.2,0,0.5,0.2,0.7c0.1,0.1,0.2,0.3,0.3,0.3c0.1,0.1,0.2,0.2,0.4,0.2c0.1,0,0.1,0.1,0.1,0.1c0,0.1,0,0.2,0,0.3s-0.1,0.3-0.2,0.3
		c-0.1,0.1-0.2,0.1-0.4,0c-0.2-0.1-0.3-0.2-0.5-0.3c-0.2-0.2-0.3-0.3-0.4-0.5c-0.4-0.6-0.5-1.1-0.4-1.6c0.1-0.5,0.4-0.9,1-1.3
		c0.6-0.4,1.1-0.6,1.6-0.5c0.5,0.1,0.9,0.3,1.3,0.8C158,34.6,158.1,35,157.9,35.5z M155.7,34.4l0.9,1.3c0.3-0.2,0.4-0.4,0.5-0.6
		c0.1-0.2,0-0.4-0.1-0.6C156.7,34.2,156.3,34.1,155.7,34.4z"/>
</g>
</svg>
