<?xml version="1.0" encoding="utf-8"?>
<!-- Generator: Adobe Illustrator 22.0.1, SVG Export Plug-In . SVG Version: 6.00 Build 0)  -->
<!DOCTYPE svg PUBLIC "-//W3C//DTD SVG 1.1//EN" "http://www.w3.org/Graphics/SVG/1.1/DTD/svg11.dtd" [
	<!ENTITY st0 "fill:#E3BC13;">
	<!ENTITY st1 "fill:#FFFFFF;">
	<!ENTITY st2 "fill:#727F9B;">
	<!ENTITY st3 "fill:#515A6D;">
	<!ENTITY st4 "fill:#D0DAED;">
	<!ENTITY st5 "fill:#A1C14D;">
	<!ENTITY st6 "fill:#D0DEA4;">
	<!ENTITY st7 "fill:#E58231;">
	<!ENTITY st8 "fill:#F5CCB1;">
	<!ENTITY st9 "fill:#F49F60;">
	<!ENTITY st10 "fill:#E58231;stroke:#FFFFFF;stroke-miterlimit:10;">
	<!ENTITY st11 "fill:#FF00FF;">
	<!ENTITY st12 "fill:#E62325;">
	<!ENTITY st13 "opacity:0.4;">
	<!ENTITY st14 "fill:#DB7C00;">
	<!ENTITY st15 "fill:#D0DAED;stroke:#727F9B;stroke-miterlimit:10;">
	<!ENTITY st16 "fill:#C8D2D2;">
	<!ENTITY st17 "fill:#3F4659;">
	<!ENTITY st18 "fill:#8C9696;">
	<!ENTITY st19 "fill:#343334;">
	<!ENTITY st20 "opacity:0.5;">
	<!ENTITY st21 "fill:#E3700D;">
	<!ENTITY st22 "fill:#F3F4F7;">
	<!ENTITY st23 "fill:#FF5C49;">
]>
<svg version="1.1" xmlns="http://www.w3.org/2000/svg" xmlns:xlink="http://www.w3.org/1999/xlink" x="0px" y="0px"
	 viewBox="0 0 265.2 268.3" style="enable-background:new 0 0 265.2 268.3;" xml:space="preserve">
<g id="working_artboard">
	<g>
		<path style="&st0;" d="M38,85.4c3.6,0.4,4.8,8.3,8.3,10.1c0.1-0.9,0.2-1.8,0.4-2.7c-4.3,0.9-4.9,3-8.5,5.1c-1,0.6-1,2.6,0.4,2.7
			c2.5,0.3,4.1,1.4,6.1,3c0-0.7,0-1.4,0-2.1c-1.9,2.2-5.5,2.2-7.5,4.5c-0.7,0.8-0.5,1.8,0.3,2.4c3,2.2,6,4,9.6,5.1
			c-0.1-0.9-0.2-1.8-0.4-2.7c-2.8,1.6-5.5,3.4-8.4,5c-1,0.6-0.9,2,0,2.6c2.6,1.6,2.8,1.9,3,5c0.1,1.9,0,4,0,5.9
			c0,4.5,0,9.1,0.1,13.6c0.1,8.9,0.2,17.9,0.3,26.8c0.3,18,0.7,36,1.3,54c0,0.8,0.7,1.5,1.5,1.5c20.1-0.6,40.3,0.1,60.4,0
			c8,0,16-0.2,24-0.2c6.2,0,13.2-0.2,18.5-3.7c-0.6-0.1-1.2-0.2-1.8-0.2c1.9,1.9,3.6,4.1,5.5,6c0.5,0.5,1.6,0.6,2.1,0
			c2.1-2.4,4.4-4.6,6.5-7c-0.7,0-1.4,0-2.1,0c2,2.6,4.6,4.8,6.6,7.4c0.6,0.7,2,0.5,2.4-0.3c1.2-2.4,1.3-4.5,3.3-6.4
			c-0.7,0-1.4,0-2.1,0c3.3,2.7,7.3,3.6,10.8,6c1.6,1.1,3.1-1.5,1.5-2.6c-3.2-2.2-7.2-3-10.2-5.5c-0.7-0.5-1.5-0.6-2.1,0
			c-2.6,2.3-2.3,4-3.8,7c0.8-0.1,1.6-0.2,2.4-0.3c-2-2.6-4.6-4.8-6.6-7.4c-0.5-0.6-1.6-0.6-2.1,0c-2.1,2.4-4.4,4.6-6.5,7
			c0.7,0,1.4,0,2.1,0c-1.9-1.9-3.6-4.1-5.5-6c-0.5-0.4-1.3-0.6-1.8-0.2c-6,4-14.3,3.4-21.2,3.3c-7.9-0.1-15.8,0.2-23.8,0.2
			c-18.8,0-37.7-0.5-56.5,0c0.5,0.5,1,1,1.5,1.5c-0.6-19.6-1.1-39.2-1.3-58.8c-0.1-9.6-0.2-19.2-0.3-28.8c0-4.9,0-9.8-0.1-14.7
			c-0.1-3.7-1.4-3.7-4.5-5.6c0,0.9,0,1.7,0,2.6c2.8-1.6,5.5-3.4,8.4-5c1.1-0.6,0.9-2.4-0.4-2.7c-3.4-1-6.1-2.7-8.9-4.8
			c0.1,0.8,0.2,1.6,0.3,2.4c1.9-2.2,5.5-2.2,7.5-4.5c0.5-0.6,0.7-1.6,0-2.1c-2.4-1.9-4.3-3.4-7.4-3.8c0.1,0.9,0.2,1.8,0.4,2.7
			c3.1-1.8,4.3-4,7.8-4.8c1.2-0.3,1.5-2.2,0.4-2.7c-4.6-2.4-3.8-9.8-9.8-10.5C36,82.1,36.1,85.1,38,85.4L38,85.4z"/>
	</g>
	<g>
		<path style="&st18;" d="M182.5,213.3c-24.7,0-49.4,0-74,0c-12.2,0-24.3,0-36.5,0c-5.3,0-10.6,0-15.9,0c-2.9,0-2.9-0.5-3.3-3.2
			c-0.5-3.4,0-7.3,0-10.7c0-23.3,0-46.7,0-70c0-11.5,0-23,0-34.6c0-5.7,2.3-14.1-4.3-17c-3.7-1.6-9-1.5-12.4,0.7
			c-1.4,1-2.4,2.2-2.8,3.8c-1.2,5-0.1,11.5-0.1,16.6c0,23.8,0,47.7,0,71.5c0,12,0,24,0,36c0,7.7-2.1,17.4,4.1,23.3
			c2.4,2.2,4.4,2.8,7.6,2.8c6.6,0.1,13.2,0,19.7,0c11.8,0,23.7,0,35.5,0c13.8,0,27.6,0,41.5,0c6.9,0,13.8,0,20.7,0
			c6.5,0,13.7,0.8,20.1,0C191.3,231.7,191.6,214,182.5,213.3c-1-0.1-1,1.4,0,1.5c5.1,0.4,5.6,7.8,4.7,11.6c-1.9,7.5-12,4.9-18,4.9
			c-16.4,0-32.8,0-49.2,0c-16.5,0-32.9,0-49.4,0c-7.2,0-14.5,0-21.7,0c-4.4,0-8.2,0.4-11.4-3.3c-3.3-3.7-2.8-8.1-2.8-12.7
			c0-32.2,0-64.5,0-96.7c0-7.8,0-15.6,0-23.3c0-5.8-2.4-14.6,4.9-16.5c4.3-1.1,10.5-0.3,11.6,4.7c0.8,3.4,0,7.9,0,11.4
			c0,4.5,0,9,0,13.6c0,35.2,0,70.4,0,105.6c0,0.4,0.3,0.8,0.8,0.8c43.5,0,87,0,130.5,0C183.5,214.8,183.5,213.3,182.5,213.3z"/>
	</g>
	<g>
		<circle style="&st16;" cx="44.1" cy="44.2" r="43.5"/>
		<g>
			<path style="&st18;" d="M86.9,44.2C86.6,62,75.6,78.3,58.7,84.3c-16.5,5.9-35.6,1-47-12.4C0,58.3-1.9,38.2,7.3,22.6
				C16.3,7.1,34.6-1.2,52.2,2.2C72.3,6.1,86.5,23.9,86.9,44.2c0,1,1.5,1,1.5,0C88.1,25.7,76.7,8.9,59.1,2.5
				C41.6-3.7,21.5,1.9,9.8,16.3C-1.8,30.6-3.3,51.3,6.3,67c9.5,15.7,28.2,24,46.3,20.5c20.8-4,35.4-22.5,35.8-43.4
				C88.4,43.2,86.9,43.2,86.9,44.2z"/>
		</g>
	</g>
	<g>
		<g>
			<path style="&st19;" d="M15.8,48.8c-0.6-0.2-1.1-0.4-1.4-0.6c-0.2-0.2-0.3-0.3-0.3-0.5c0-0.1,0.1-0.3,0.2-0.6s0.3-0.4,0.4-0.4
				c0,0,0.2,0.1,0.4,0.2c0.4,0.2,0.8,0.4,1.2,0.5c0.4,0.1,0.9,0.2,1.5,0.2c0.7,0,1.3-0.2,1.7-0.6c0.4-0.4,0.7-0.9,0.7-1.5
				c0-0.4-0.1-0.8-0.4-1.1s-0.5-0.5-0.9-0.7c-0.3-0.2-0.8-0.4-1.5-0.6c-0.7-0.3-1.2-0.5-1.7-0.8c-0.4-0.2-0.8-0.6-1-1
				c-0.3-0.4-0.4-1-0.4-1.8c0-0.6,0.2-1.2,0.5-1.7c0.3-0.5,0.8-0.9,1.4-1.2c0.6-0.3,1.3-0.4,2.1-0.4c0.4,0,0.9,0.1,1.4,0.2
				s0.9,0.3,1.2,0.5c0.2,0.1,0.4,0.3,0.4,0.5c0,0.1-0.1,0.3-0.2,0.6c-0.2,0.3-0.3,0.4-0.4,0.4c-0.1,0-0.1,0-0.3-0.1
				c-0.1-0.1-0.2-0.1-0.2-0.1c-0.6-0.3-1.2-0.5-1.9-0.5c-0.7,0-1.3,0.2-1.7,0.5C16.2,38.5,16,39,16,39.7c0,0.4,0.1,0.7,0.3,1
				s0.5,0.4,0.7,0.6c0.3,0.1,0.7,0.3,1.4,0.6c0.7,0.3,1.3,0.5,1.8,0.8c0.5,0.3,0.8,0.6,1.2,1.1c0.3,0.5,0.5,1.1,0.5,1.9
				c0,1.1-0.4,1.9-1.1,2.6c-0.7,0.6-1.7,0.9-2.9,0.9C17.1,49.1,16.4,49,15.8,48.8z"/>
			<path style="&st19;" d="M24.8,47.9c-0.7-0.8-1.1-2-1.1-3.6c0-1.6,0.4-2.8,1.1-3.6s1.8-1.2,3.1-1.2c1.2,0,2.1,0.4,2.8,1.2
				c0.6,0.8,0.9,2,0.9,3.5c0,0.1-0.1,0.3-0.2,0.5c-0.1,0.2-0.3,0.3-0.4,0.3h-5.7c0.1,1,0.3,1.7,0.8,2.2c0.4,0.5,1.1,0.7,2,0.7
				c0.5,0,0.9-0.1,1.3-0.2c0.4-0.1,0.7-0.3,0.9-0.4s0.4-0.2,0.4-0.2c0.1,0,0.3,0.1,0.4,0.4c0.1,0.2,0.2,0.4,0.2,0.5
				c0,0.1-0.1,0.3-0.4,0.5c-0.3,0.2-0.7,0.3-1.2,0.5s-1,0.2-1.6,0.2C26.6,49.1,25.5,48.7,24.8,47.9z M30,43.6c0-1.9-0.7-2.8-2.2-2.8
				c-1.5,0-2.4,0.9-2.5,2.8H30z"/>
			<path style="&st19;" d="M34.3,48.6v-6.3c0-0.8,0-1.4-0.1-1.7c-0.1-0.3-0.1-0.5-0.1-0.6c0-0.1,0.1-0.2,0.3-0.3
				c0.2-0.1,0.4-0.1,0.6-0.1c0.2,0,0.3,0.1,0.4,0.3s0.1,0.4,0.2,0.5s0.1,0.3,0.1,0.4c0.6-0.9,1.3-1.4,2.1-1.4c0.3,0,0.6,0.1,0.8,0.2
				c0.2,0.1,0.3,0.3,0.3,0.5c0,0.2,0,0.4-0.1,0.6c-0.1,0.2-0.2,0.3-0.3,0.3c-0.1,0-0.2,0-0.4-0.1c-0.2-0.1-0.4-0.1-0.6-0.1
				c-0.3,0-0.5,0.1-0.8,0.2s-0.5,0.3-0.6,0.5c-0.2,0.2-0.3,0.3-0.3,0.3v6.6c0,0.3-0.2,0.4-0.7,0.4H35C34.5,49,34.3,48.9,34.3,48.6z"
				/>
			<path style="&st19;" d="M42.9,48.7L40,40.1c0-0.1-0.1-0.2-0.1-0.2c0-0.2,0.3-0.3,0.8-0.3h0.1c0.4,0,0.7,0.1,0.7,0.3l1.8,5.7
				c0.1,0.4,0.3,1.1,0.6,2.2H44l0.1-0.5c0.1-0.7,0.3-1.2,0.4-1.7l1.9-5.8c0.1-0.2,0.3-0.3,0.7-0.3h0.1c0.4,0,0.7,0.1,0.7,0.3
				c0,0.1,0,0.1-0.1,0.3l-2.9,8.6c-0.1,0.2-0.3,0.3-0.7,0.3h-0.6C43.2,49,42.9,48.9,42.9,48.7z"/>
			<path style="&st19;" d="M50.1,37.4v-1c0-0.3,0.3-0.4,0.9-0.4c0.5,0,0.8,0.1,0.8,0.4v1c0,0.3-0.3,0.4-0.9,0.4
				C50.4,37.9,50.1,37.7,50.1,37.4z M50.2,48.6v-8.7c0-0.3,0.2-0.4,0.7-0.4H51c0.5,0,0.7,0.1,0.7,0.4v8.7c0,0.3-0.2,0.4-0.7,0.4
				h-0.1C50.4,49,50.2,48.9,50.2,48.6z"/>
			<path style="&st19;" d="M55.6,47.9c-0.7-0.8-1.1-2-1.1-3.7c0-1.7,0.4-2.9,1.2-3.7c0.8-0.7,1.8-1.1,3-1.1c0.7,0,1.3,0.1,1.9,0.3
				c0.6,0.2,0.8,0.4,0.8,0.6c0,0.2-0.1,0.4-0.2,0.6c-0.1,0.2-0.3,0.4-0.4,0.4c0,0-0.1,0-0.1,0c0,0-0.1,0-0.1,0
				c-0.6-0.3-1.3-0.4-2-0.4c-1.7,0-2.6,1.1-2.6,3.4c0,1.3,0.2,2.2,0.6,2.8c0.4,0.6,1.1,0.8,2.2,0.8c0.7,0,1.4-0.2,2-0.5l0.2-0.1
				c0.1,0,0.3,0.1,0.4,0.4c0.1,0.2,0.2,0.4,0.2,0.6c0,0.1-0.1,0.3-0.4,0.4s-0.6,0.3-1,0.4c-0.4,0.1-0.9,0.1-1.4,0.1
				C57.4,49.1,56.3,48.7,55.6,47.9z"/>
			<path style="&st19;" d="M64.6,47.9c-0.7-0.8-1.1-2-1.1-3.6c0-1.6,0.4-2.8,1.1-3.6s1.8-1.2,3.1-1.2c1.2,0,2.1,0.4,2.8,1.2
				c0.6,0.8,0.9,2,0.9,3.5c0,0.1-0.1,0.3-0.2,0.5c-0.1,0.2-0.3,0.3-0.4,0.3h-5.7c0.1,1,0.3,1.7,0.8,2.2c0.4,0.5,1.1,0.7,2,0.7
				c0.5,0,0.9-0.1,1.3-0.2c0.4-0.1,0.7-0.3,0.9-0.4s0.4-0.2,0.4-0.2c0.1,0,0.3,0.1,0.4,0.4c0.1,0.2,0.2,0.4,0.2,0.5
				c0,0.1-0.1,0.3-0.4,0.5c-0.3,0.2-0.7,0.3-1.2,0.5s-1,0.2-1.6,0.2C66.5,49.1,65.4,48.7,64.6,47.9z M69.9,43.6
				c0-1.9-0.7-2.8-2.2-2.8c-1.5,0-2.4,0.9-2.5,2.8H69.9z"/>
		</g>
	</g>
	<g>
		<circle style="&st16;" cx="221" cy="224.1" r="43.5"/>
		<g>
			<path style="&st18;" d="M263.7,224.1c-0.3,17.8-11.2,34.1-28.2,40.2c-16.5,5.9-35.6,1-47-12.4c-11.7-13.7-13.6-33.8-4.5-49.4
				c9.1-15.5,27.3-23.8,44.9-20.4C249.2,186,263.4,203.8,263.7,224.1c0,1,1.5,1,1.5,0c-0.3-18.5-11.7-35.3-29.3-41.6
				c-17.5-6.3-37.6-0.7-49.3,13.8c-11.6,14.3-13.1,35-3.5,50.7c9.5,15.7,28.2,24,46.3,20.5c20.8-4,35.4-22.5,35.8-43.4
				C265.3,223.1,263.8,223.1,263.7,224.1z"/>
		</g>
	</g>
	<g>
		<g>
			<path style="&st19;" d="M204,227.7c0-0.1,0-0.1,0.1-0.3l4.3-11.8c0.1-0.2,0.3-0.3,0.7-0.3h0.5c0.4,0,0.7,0.1,0.7,0.3l4.3,11.8
				c0,0.1,0.1,0.2,0.1,0.2c0,0.2-0.3,0.3-0.8,0.3h-0.1c-0.4,0-0.7-0.1-0.7-0.3l-1.1-3h-5.3l-1,3c-0.1,0.2-0.3,0.3-0.7,0.3h-0.1
				C204.2,228,204,227.9,204,227.7z M211.4,223.4l-1.9-5.4c-0.1-0.2-0.1-0.5-0.2-1h0c-0.1,0.5-0.2,0.8-0.3,1l-1.9,5.4H211.4z"/>
			<path style="&st19;" d="M216.6,231.3v-10c0-0.8,0-1.4-0.1-1.7c-0.1-0.3-0.1-0.5-0.1-0.6c0-0.1,0.1-0.2,0.3-0.3
				c0.2-0.1,0.4-0.1,0.6-0.1c0.2,0,0.3,0.1,0.4,0.3s0.1,0.4,0.2,0.5c0,0.2,0.1,0.3,0.1,0.4c0.9-0.9,1.8-1.4,2.9-1.4
				c0.7,0,1.4,0.2,1.9,0.6s0.9,1,1.2,1.7c0.3,0.7,0.4,1.6,0.4,2.5c0,1-0.2,1.9-0.5,2.6s-0.7,1.3-1.3,1.6s-1.2,0.6-1.9,0.6
				c-0.5,0-1-0.1-1.4-0.2c-0.4-0.2-0.8-0.4-1.2-0.7v4.2c0,0.3-0.2,0.4-0.7,0.4h-0.1C216.8,231.7,216.6,231.6,216.6,231.3z
				 M222.2,225.9c0.4-0.6,0.6-1.4,0.6-2.5c0-1.2-0.2-2.1-0.6-2.7s-0.9-0.9-1.6-0.9c-0.4,0-0.8,0.1-1.3,0.3c-0.4,0.2-0.8,0.5-1.2,0.9
				v4.9c0.6,0.5,1.4,0.8,2.2,0.8C221.1,226.7,221.7,226.4,222.2,225.9z"/>
			<path style="&st19;" d="M227.2,231.3v-10c0-0.8,0-1.4-0.1-1.7c-0.1-0.3-0.1-0.5-0.1-0.6c0-0.1,0.1-0.2,0.3-0.3
				c0.2-0.1,0.4-0.1,0.6-0.1c0.2,0,0.3,0.1,0.4,0.3s0.1,0.4,0.2,0.5c0,0.2,0.1,0.3,0.1,0.4c0.9-0.9,1.8-1.4,2.9-1.4
				c0.7,0,1.4,0.2,1.9,0.6s0.9,1,1.2,1.7c0.3,0.7,0.4,1.6,0.4,2.5c0,1-0.2,1.9-0.5,2.6s-0.7,1.3-1.3,1.6s-1.2,0.6-1.9,0.6
				c-0.5,0-1-0.1-1.4-0.2c-0.4-0.2-0.8-0.4-1.2-0.7v4.2c0,0.3-0.2,0.4-0.7,0.4h-0.1C227.4,231.7,227.2,231.6,227.2,231.3z
				 M232.7,225.9c0.4-0.6,0.6-1.4,0.6-2.5c0-1.2-0.2-2.1-0.6-2.7s-0.9-0.9-1.6-0.9c-0.4,0-0.8,0.1-1.3,0.3c-0.4,0.2-0.8,0.5-1.2,0.9
				v4.9c0.6,0.5,1.4,0.8,2.2,0.8C231.7,226.7,232.3,226.4,232.7,225.9z"/>
		</g>
		<g>
			<path style="&st1;" d="M201,248.1c-1.9-2.8-3.8-5.7-5.6-8.5c-0.5-0.8-1.7-0.1-1.3,0.8c1.7,3.8,5.2,6.6,9.4,7.3
				c0.9,0.2,1.3-1.3,0.4-1.4c-3.8-0.7-6.9-3.1-8.5-6.6c-0.4,0.3-0.9,0.5-1.3,0.8c1.9,2.8,3.8,5.7,5.6,8.5
				C200.2,249.7,201.5,248.9,201,248.1L201,248.1z"/>
		</g>
		<g>
			<path style="&st1;" d="M235.3,193.9c8,6.8,16.7,14.6,16,26.1c-0.1,1,1.4,0.9,1.5,0c1.3-13.2-7.6-24.3-20.7-26.1
				c-1-0.1-0.9,1.4,0,1.5c12.3,1.6,20.5,12.3,19.2,24.6c0.5,0,1,0,1.5,0c0.6-11.9-8.1-20.1-16.5-27.1
				C235.6,192.3,234.5,193.3,235.3,193.9L235.3,193.9z"/>
		</g>
	</g>
	<g>
		<path style="&st1;" d="M52.2,13c6,0.6,11.2,3.7,14.5,8.8c0.4-0.3,0.8-0.6,1.2-0.9c-3.9-4.2-8.5-7.9-14.6-7.6
			c-0.7,0-1.1,1.1-0.4,1.4c4,1.8,7.2,4.7,9.3,8.6c0.5,0.9,1.8,0.1,1.3-0.8c-2.2-4.1-5.5-7.2-9.8-9.1c-0.1,0.5-0.3,0.9-0.4,1.4
			c5.7-0.3,9.8,3.3,13.5,7.1c0.6,0.6,1.6-0.2,1.2-0.9c-3.6-5.5-9.2-8.9-15.8-9.5C51.3,11.4,51.3,12.9,52.2,13L52.2,13z"/>
	</g>
	<g>
		<path style="&st1;" d="M15.5,64.5c4.3,9.8,14.6,12.9,24.4,14.5c0.8,0.1,1.3-0.9,0.6-1.4c-5-3.3-10-6.6-15.1-9.9
			c-0.7-0.4-1.4,0.4-1,1c1.3,2.3,2.7,4.2,4.7,5.9c0.2-0.4,0.5-0.8,0.7-1.3C23.2,72,19.9,66.2,17,60.6c-0.4-0.9-1.7-0.1-1.3,0.8
			c3.1,6,6.7,12,13.7,13.5c0.7,0.2,1.3-0.7,0.7-1.3c-1.9-1.6-3.3-3.4-4.5-5.6c-0.3,0.3-0.7,0.7-1,1c5,3.3,10,6.6,15.1,9.9
			c0.2-0.5,0.4-0.9,0.6-1.4C30.9,76,21,73.1,16.8,63.7C16.4,62.8,15.1,63.6,15.5,64.5L15.5,64.5z"/>
	</g>
</g>
<g id="Layer_1">
</g>
</svg>
