<?xml version="1.0" encoding="utf-8"?>
<!-- Generator: Adobe Illustrator 19.2.1, SVG Export Plug-In . SVG Version: 6.00 Build 0)  -->
<svg version="1.1" id="Layer_1" xmlns="http://www.w3.org/2000/svg" xmlns:xlink="http://www.w3.org/1999/xlink" x="0px" y="0px"
	 viewBox="0 0 436.3 436.3" enable-background="new 0 0 436.3 436.3" xml:space="preserve">
<g id="working_artboard">
</g>
<g id="Layer_1_1_">
	<circle id="circle_5_" fill="#FFFFFF" cx="218.2" cy="218.2" r="216.8"/>
	<path id="circle-stroke_5_" fill="#727F9B" d="M433.5,218.2c-0.1,44.5-13.9,88.2-39.6,124.5c-25.2,35.6-61.3,63.1-102.3,78
		c-42.4,15.4-89.5,17-132.8,4.5c-41.8-12-79.3-36.8-106.9-70.3c-57.4-69.6-64.7-170.9-18-248.1C56.2,69.8,89.7,40,129,22.1
		c41.3-18.8,88.4-24,132.8-14.8c86.5,17.8,155,89.4,169,176.7C432.6,195.2,433.5,206.7,433.5,218.2c0,1.8,2.9,1.8,2.9,0
		c-0.1-45.2-14.1-89.7-40.4-126.5c-25.4-35.6-61.3-63.1-102.3-78.3c-43-15.9-90.9-17.7-135-5.2c-42.5,12-80.8,37.2-108.9,71.2
		C21.5,113.7,4.2,156.3,0.7,200.7C-2.9,246,7.8,292,31.4,330.9c22.7,37.6,56.8,68,96.9,86.1c41.4,18.7,88.4,24,133,15.1
		c43.5-8.7,83.8-30.9,114.4-62.9c30.8-32.1,51.3-73.4,58.1-117.4c1.7-11.1,2.6-22.4,2.6-33.6C436.4,216.3,433.5,216.3,433.5,218.2z"
		/>
	<path id="connector-fill_6_" fill="#FFFFFF" d="M250,315.4c-40.8,0-81.6,0-122.4,0c-3.7,0-7.4,0-11.2,0c0-39.5,0-77,0-116.5
		c0-5.7,0-11.4,0-17.2c0-7.7-12-7.7-12,0c0,40.8,0,79.6,0,120.4c0,5.7,0,11.4,0,17.2c0,0.6,0.1,1.2,0.2,1.7
		c-0.2,3.1,1.7,6.4,5.8,6.4c40.8,0,81.6,0,122.4,0c5.7,0,11.4,0,17.2,0C257.7,327.4,257.7,315.4,250,315.4z"/>
	<path id="connector-stroke_5_" fill="#727F9B" d="M250.5,314.4c-44.5,0-89,0-133.5,0c0.5,0.5,1,1,1.5,1.5c0-37.2,0-74.4,0-111.5
		c0-4.2,0-8.4,0-12.5c0-3.6,0.7-7.9-0.2-11.4c-0.9-3.3-3.8-5.4-7.3-5.4c-3.4,0-6.4,2.1-7.3,5.4c-0.8,3-0.2,6.6-0.2,9.7
		c0,4.9,0,9.8,0,14.6c0,37.1,0,74.1,0,111.2c0,4.7-0.4,11.1,5.1,13c3.1,1.1,7,0.4,10.3,0.4c4.9,0,9.9,0,14.8,0c19.1,0,38.2,0,57.2,0
		c10.5,0,21.1,0,31.6,0c5.2,0,10.4,0,15.6,0c4.4,0,9.3,0.6,13.6-0.1C260.5,327.8,259.1,315,250.5,314.4c-1.9-0.1-1.9,2.9,0,3
		c3,0.2,4.9,2.7,4.2,5.7c-0.8,3.1-3.4,3.2-6.1,3.3c-7.7,0.2-15.4,0-23.1,0c-15.1,0-30.3,0-45.4,0s-30.3,0-45.4,0c-7,0-14.8,1-21.7,0
		c-2.6-0.4-3.8,1.4-6-3c-0.7-1.3-0.4-4.1-0.4-5.5c-0.1-4.1,0-8.3,0-12.4c0-29.4,0-58.8,0-88.1c0-7.1,0-14.3,0-21.4
		c0-4.5-2.5-18,4.5-18c6.9,0,4.5,11.4,4.5,15.7c0,7.5,0,14.9,0,22.4v99.8c0,0.8,0.7,1.5,1.5,1.5h133.5
		C252.4,317.4,252.4,314.4,250.5,314.4z"/>
	<path id="connection-line_2_" fill="#727F9B" d="M111.2,146.4c1,14.2,1.5,28.4,1.9,42.6c0.1,7.1,0.3,14.2,0.4,21.3
		s0.2,14.2,0.1,21.3c-0.1,14.2-0.9,28.4-1.4,42.6c-0.2,7.1-0.4,14.2-0.4,21.3c0,3.5,0,7.1,0.1,10.6l0.1,5.3l0.1,2.7
		c0,0.4,0,0.9,0.1,1.3c0,0.4,0.1,0.7,0.2,1l0.1,0.2v0.3c0,1.2,0.5,2.5,1.3,3.2c0.8,0.8,1.9,1.1,3.2,1l9.3-0.4
		c6.2-0.3,12.4-0.5,18.6-0.6l18.6-0.3c6.2-0.1,12.4-0.2,18.6-0.2c12.4,0,24.8,0.3,37.2,0.8s24.8,1.1,37.2,2.1v0.6
		c-12.4,1.1-24.8,1.7-37.2,2.1s-24.8,0.8-37.2,0.8c-6.2,0-12.4-0.1-18.6-0.2l-18.6-0.3c-6.2-0.1-12.4-0.3-18.6-0.6l-9.3-0.4
		c-1.9-0.1-3.9-0.8-5.2-2.4c-1.3-1.5-1.9-3.5-1.7-5.3v0.4c-0.1-0.5-0.2-1.1-0.2-1.6c0-0.6,0-0.9,0-1.4l0.1-2.7l0.1-5.3
		c0-3.5,0.1-7.1,0.1-10.6c0-7.1-0.2-14.2-0.4-21.3c-0.5-14.2-1.2-28.4-1.4-42.6c-0.1-7.1,0-14.2,0.1-21.3c0-7.1,0.2-14.2,0.4-21.3
		c0.4-14.2,0.9-28.4,1.9-42.6h0.4V146.4z"/>
	<circle id="circle_13_" fill="#D0DAED" cx="288.8" cy="322.9" r="43.5"/>
	<path id="circle-stroke_17_" fill="#727F9B" d="M330.8,322.9c-0.3,17.5-11,33.5-27.6,39.5c-16.3,5.9-35,1-46.2-12.2
		c-11.5-13.4-13.3-33.2-4.3-48.5c8.9-15.2,26.8-23.4,44.1-20.1C316.5,285.4,330.5,302.9,330.8,322.9c0,1.9,3,1.9,3,0
		c-0.3-18.8-11.9-35.9-29.8-42.3c-17.7-6.4-38.1-0.6-50,14c-11.8,14.6-13.4,35.6-3.6,51.6c9.7,16,28.8,24.4,47.1,20.9
		c21.1-4.1,36-22.9,36.3-44.1C333.8,320.9,330.8,320.9,330.8,322.9z"/>
	<circle id="circle_12_" fill="#D0DAED" cx="111.9" cy="143" r="43.5"/>
	<path id="circle-stroke_16_" fill="#727F9B" d="M153.9,143c-0.3,17.5-11,33.5-27.6,39.5c-16.3,5.9-35,1-46.2-12.2
		c-11.5-13.4-13.3-33.2-4.3-48.5c8.9-15.2,26.8-23.4,44.1-20.1C139.6,105.5,153.6,123,153.9,143c0,1.9,3,1.9,3,0
		c-0.3-18.8-11.9-35.9-29.8-42.3c-17.7-6.4-38.1-0.6-50,14c-11.8,14.6-13.4,35.6-3.6,51.6c9.7,16,28.8,24.4,47.1,20.9
		c21.1-4.1,36-22.9,36.3-44.1C156.9,141,153.9,141,153.9,143z"/>
	<path id="a_2_" fill="#515A6D" d="M276.8,312.8l4.8,13.8c0,0.1,0.1,0.2,0.1,0.3c0,0.3-0.3,0.4-1,0.4h-1.1c-0.6,0-0.9-0.1-1-0.4
		l-0.9-2.6h-4.9l-0.9,2.6c-0.1,0.2-0.4,0.4-0.8,0.4h-1c-0.8,0-1.2-0.1-1.2-0.4c0,0,0-0.2,0.1-0.4l4.8-13.8c0.1-0.3,0.5-0.4,1.1-0.4
		h0.9C276.4,312.4,276.7,312.5,276.8,312.8z M275.2,316.4c0,0.1,0,0.2-0.1,0.5c0,0.3-0.1,0.5-0.2,0.8l-1.6,4.7h3.8l-1.6-4.7
		C275.5,317.4,275.4,316.9,275.2,316.4L275.2,316.4z"/>
	<path id="p_4_" fill="#515A6D" d="M291.2,317.3c0.6,0.5,1.1,1.1,1.4,2s0.5,1.9,0.5,3c0,1.8-0.4,3.1-1.2,4.1s-1.9,1.5-3.2,1.5
		c-0.9,0-1.7-0.3-2.3-0.8v4.4c-0.1,0.4-0.5,0.6-1.3,0.9h-0.4c-0.7-0.3-1.1-0.5-1.3-0.9v-11.2c0.2-0.9,0.2-1.6,0.1-2.1
		c-0.1-0.4-0.1-0.7-0.1-0.8c0-0.2,0.2-0.3,0.7-0.5s0.9-0.2,1.2-0.2c0.2,0,0.4,0.1,0.5,0.3c0.1,0.2,0.2,0.4,0.2,0.6s0.1,0.4,0.1,0.5
		c0.3-0.5,0.8-0.9,1.3-1.2c0.5-0.3,1.1-0.4,1.7-0.4C289.9,316.6,290.6,316.8,291.2,317.3z M287.4,319.1c-0.4,0.2-0.7,0.6-1,1v5.1
		c0.5,0.4,1.2,0.6,1.9,0.6c1.5,0,2.3-1.2,2.3-3.4c0-1.1-0.2-2-0.5-2.6s-0.8-0.9-1.5-0.9C288.1,318.8,287.8,318.9,287.4,319.1z"/>
	<path id="p_5_" fill="#515A6D" d="M303.6,317.3c0.6,0.5,1.1,1.1,1.4,2s0.5,1.9,0.5,3c0,1.8-0.4,3.1-1.2,4.1s-1.9,1.5-3.2,1.5
		c-0.9,0-1.7-0.3-2.7-0.8v4.4c0.2,0.4-0.2,0.6-0.9,0.9h-0.4c-0.7-0.3-1.1-0.5-1.7-0.9v-11.2c0.6-0.9,0.6-1.6,0.5-2.1
		c-0.1-0.4-0.1-0.7-0.1-0.8c0-0.2,0.2-0.3,0.7-0.5s0.9-0.2,1.2-0.2c0.2,0,0.4,0.1,0.5,0.3c0.1,0.2,0.2,0.4,0.2,0.6s0.1,0.4,0.1,0.5
		c0.3-0.5,0.8-0.9,1.3-1.2c0.5-0.3,1.1-0.4,1.7-0.4C302.3,316.6,303,316.8,303.6,317.3z M299.4,319.1c-0.4,0.2-0.7,0.6-1,1v5.1
		c0.5,0.4,1.2,0.6,1.9,0.6c1.5,0,2.3-1.2,2.3-3.4c0-1.1-0.2-2-0.5-2.6s-0.8-0.9-1.5-0.9C300.1,318.8,299.8,318.9,299.4,319.1z"/>
	<path id="highlight_39_" fill="#FFFFFF" d="M268.4,348.5c-1.9-2.8-3.8-5.7-5.6-8.5c-1.1-1.6-3.4-0.2-2.6,1.5c1.8,4,5.5,6.9,9.8,7.7
		c1.9,0.3,2.7-2.5,0.8-2.9c-3.6-0.7-6.5-2.9-8-6.3c-0.9,0.5-1.7,1-2.6,1.5c1.9,2.8,3.8,5.7,5.6,8.5
		C266.9,351.6,269.5,350.1,268.4,348.5z"/>
	<path id="highlight_38_" fill="#FFFFFF" d="M303.5,292.9c7.9,6.7,16.4,14.3,15.8,25.5c-0.1,2,2.8,1.9,3,0c1.4-13.7-8-25-21.5-26.8
		c-1.9-0.2-1.9,2.8,0,3c11.9,1.6,19.7,12,18.5,23.8c1,0,2,0,3,0c0.6-12.1-8.2-20.5-16.7-27.7C304.2,289.5,302.1,291.6,303.5,292.9z"
		/>
	<path id="s_2_" fill="#515A6D" d="M83.8,134.1c0.6,0.1,1,0.3,1.4,0.5s0.5,0.4,0.5,0.7s-0.1,0.6-0.3,1c-0.2,0.4-0.4,0.6-0.6,0.6
		c0,0-0.2,0-0.4-0.1c-0.3-0.1-0.6-0.3-0.9-0.3s-0.7-0.1-1.2-0.1c-0.8,0-1.3,0.2-1.7,0.5c-0.4,0.3-0.5,0.7-0.5,1.2
		c0,0.4,0.1,0.7,0.3,1c0.2,0.3,0.5,0.5,0.8,0.6c0.3,0.2,0.8,0.4,1.4,0.6c0.8,0.3,1.5,0.6,2,0.9c0.5,0.3,1,0.7,1.3,1.3
		s0.6,1.3,0.6,2.2c0,1.5-0.4,2.6-1.3,3.3s-2,1.1-3.4,1.1c-0.9,0-1.7-0.1-2.4-0.3s-1.3-0.4-1.7-0.7s-0.6-0.5-0.6-0.7s0.1-0.4,0.2-0.7
		s0.3-0.5,0.5-0.7s0.3-0.3,0.5-0.3c0.1,0,0.3,0.1,0.5,0.2c0.4,0.2,0.9,0.4,1.3,0.6c0.4,0.1,0.9,0.2,1.5,0.2s1.2-0.2,1.6-0.5
		s0.7-0.8,0.7-1.4c0-0.4-0.1-0.7-0.3-1c-0.2-0.3-0.5-0.5-0.8-0.7s-0.8-0.4-1.4-0.6c-0.4-0.1-0.6-0.2-0.7-0.3
		c-0.6-0.3-1.2-0.6-1.6-0.9s-0.8-0.7-1.1-1.3c-0.3-0.5-0.4-1.2-0.4-2c0-0.9,0.2-1.6,0.7-2.3c0.4-0.6,1-1.1,1.8-1.4
		c0.7-0.3,1.6-0.5,2.4-0.5C82.6,133.9,83.2,134,83.8,134.1z"/>
	<path id="e_4_" fill="#515A6D" d="M96.5,139.3c0.7,1,1.1,2.3,1.1,4c0,0.2-0.1,0.4-0.4,0.7s-0.4,0.4-0.6,0.4h-5.8
		c0.1,0.9,0.3,1.6,0.8,2c0.4,0.4,1.1,0.6,1.9,0.6c0.5,0,0.9-0.1,1.2-0.2s0.7-0.3,1.1-0.4c0.2-0.1,0.4-0.1,0.4-0.1
		c0.2,0,0.4,0.2,0.6,0.5c0.2,0.4,0.3,0.6,0.3,0.8c0,0.3-0.2,0.5-0.6,0.7s-0.9,0.4-1.5,0.5s-1.2,0.2-1.7,0.2c-1.8,0-3.2-0.5-4-1.4
		s-1.3-2.3-1.3-4.1c0-1.9,0.4-3.4,1.3-4.3c0.9-0.9,2.1-1.4,3.7-1.4C94.6,137.9,95.8,138.4,96.5,139.3z M90.8,142.4H95
		c0-0.8-0.2-1.4-0.5-1.9c-0.3-0.4-0.8-0.7-1.4-0.7C91.8,139.8,91,140.7,90.8,142.4z"/>
	<path id="r_2_" fill="#515A6D" d="M106,137.9c0.2,0.2,0.3,0.4,0.3,0.7s-0.1,0.6-0.2,1s-0.2,0.6-0.4,0.6c-0.1,0-0.2,0-0.4-0.1
		s-0.4-0.1-0.6-0.1c-0.4,0-0.8,0.1-1.1,0.4c-0.3,0.3-0.5,0.5-0.2,0.8v7.1c-0.5,0.4-0.9,0.6-1.6,0.2h-0.4c-0.7,0.4-1.1,0.2-1-0.2
		v-6.9c-0.1-0.9-0.2-1.6-0.3-2c-0.1-0.4-0.1-0.7-0.1-0.8c0-0.2,0.2-0.3,0.7-0.5c0.5-0.1,0.9-0.2,1.2-0.2c0.2,0,0.4,0.1,0.5,0.3
		s0.2,0.4,0.2,0.6c0,0.2,0.1,0.4,0.1,0.5c0.3-0.5,0.7-0.9,1-1.2c0.4-0.3,0.8-0.4,1.3-0.4C105.5,137.6,105.8,137.7,106,137.9z"/>
	<path id="v_2_" fill="#515A6D" d="M116.7,137.8c0,0.1,0,0.2-0.1,0.4l-3.3,9.8c-0.1,0.3-0.4,0.4-1,0.4h-0.7c-0.6,0-1-0.1-1.1-0.4
		l-3.3-9.9c-0.1-0.1-0.1-0.3-0.1-0.3c0-0.3,0.4-0.4,1.1-0.4h0.4c0.6,0,1,0.1,1.1,0.4l1.6,5l0.5,1.8l0.2,0.8h0.1
		c0.2-1.1,0.4-2,0.6-2.6l1.6-5c0.1-0.3,0.5-0.4,1.1-0.4h0.3C116.3,137.4,116.7,137.5,116.7,137.8z"/>
	<path id="i_2_" fill="#515A6D" d="M121.4,133.5v1.5c0,0.2-0.1,0.3-0.3,0.4c-0.2,0.1-0.5,0.1-0.9-0.1h-0.5c-0.4,0.2-0.7,0.2-0.9,0.1
		c-0.2-0.1-0.3-0.2-0.6-0.4v-1.5c0.3-0.4,0.7-0.6,1.4-1.1h0.5C121,132.9,121.4,133.1,121.4,133.5z M121.4,138.3v9.9
		c0,0.4-0.4,0.6-1.1,0.2h-0.4c-0.7,0.4-1.1,0.2-1.4-0.2v-9.9c0.3-0.4,0.7-0.6,1.4-0.9h0.4C121,137.7,121.4,137.9,121.4,138.3z"/>
	<path id="c_1_" fill="#515A6D" d="M131.7,138c0.7,0.2,1.1,0.5,1.1,0.9c0,0.2-0.1,0.5-0.4,0.9c-0.2,0.4-0.4,0.6-0.6,0.6
		c0,0-0.1,0-0.3-0.1c-0.6-0.3-1.3-0.5-2-0.5c-0.9,0-1.5,0.3-2,0.9c-0.4,0.6-0.7,1.5-0.7,2.7s0.2,2.1,0.6,2.7c0.4,0.6,1.1,0.9,2,0.9
		c0.7,0,1.5-0.2,2.2-0.5c0.2-0.1,0.3-0.1,0.3-0.1c0.2,0,0.4,0.2,0.6,0.5c0.2,0.4,0.3,0.7,0.3,0.9c0,0.3-0.2,0.5-0.6,0.7
		s-0.9,0.4-1.5,0.5s-1.1,0.1-1.5,0.1c-1.8,0-3.1-0.5-3.9-1.4c-0.9-0.9-1.3-2.3-1.3-4.2s0.5-3.4,1.4-4.3c0.9-0.9,2.2-1.4,3.9-1.4
		C130.2,137.6,131,137.7,131.7,138z"/>
	<path id="e_15_" fill="#515A6D" d="M143,139.3c0.7,1,1.1,2.3,1.1,4c0,0.2-0.1,0.4-0.4,0.7s-0.4,0.4-0.6,0.4h-5.8
		c0.1,0.9,0.3,1.6,0.8,2c0.4,0.4,1.1,0.6,1.9,0.6c0.5,0,0.9-0.1,1.2-0.2s0.7-0.3,1.1-0.4c0.2-0.1,0.4-0.1,0.4-0.1
		c0.2,0,0.4,0.2,0.6,0.5c0.2,0.4,0.3,0.6,0.3,0.8c0,0.3-0.2,0.5-0.6,0.7s-0.9,0.4-1.5,0.5s-1.2,0.2-1.7,0.2c-1.8,0-3.2-0.5-4-1.4
		s-1.3-2.3-1.3-4.1c0-1.9,0.4-3.4,1.3-4.3c0.9-0.9,2.1-1.4,3.7-1.4C141.2,137.9,142.3,138.4,143,139.3z M137.4,142.4h4.1
		c0-0.8-0.2-1.4-0.5-1.9c-0.3-0.4-0.8-0.7-1.4-0.7C138.3,139.8,137.6,140.7,137.4,142.4z"/>
	<path id="highlight_40_" fill="#FFFFFF" d="M120,114.6c5.7,0.5,10.7,3.6,13.8,8.4c0.8-0.6,1.6-1.2,2.4-1.8
		c-4.1-4.3-8.8-8.2-15.1-7.8c-1.3,0.1-2.2,2.1-0.8,2.8c3.9,1.8,7,4.5,9,8.3c0.9,1.7,3.5,0.2,2.6-1.5c-2.3-4.2-5.7-7.5-10.1-9.4
		c-0.3,0.9-0.5,1.9-0.8,2.8c5.5-0.3,9.4,3.2,13,6.9c1.2,1.2,3.3-0.4,2.4-1.8c-3.7-5.8-9.6-9.3-16.4-9.9
		C118.1,111.4,118.1,114.4,120,114.6z"/>
	<circle id="failure-bg_1_" fill="#FFFFFF" cx="100.4" cy="172.4" r="19"/>
	<path id="failure_1_" fill="#E58231" d="M100.4,155.4c-9.4,0-17,7.6-17,17s7.6,17,17,17s17-7.6,17-17S109.8,155.4,100.4,155.4z
		 M108.5,178.3l-2.3,2.3l-5.7-5.9l-5.9,5.9l-2.3-2.3l5.9-5.9l-5.7-5.9l2.3-2.3l5.9,5.9l5.9-5.9l2.3,2.3l-6,5.9L108.5,178.3z"/>
	<circle id="failure-medium-bg" fill="#FFFFFF" cx="121.9" cy="182.9" r="12.5"/>
	<path id="failure-medium" fill="#F5CCB1" d="M121.9,171.7c-6.2,0-11.2,5-11.2,11.2s5,11.2,11.2,11.2c6.2,0,11.2-5,11.2-11.2
		S128.1,171.7,121.9,171.7z M127.2,186.8l-1.5,1.5l-3.8-3.9l-3.9,3.9l-1.5-1.5l3.9-3.9l-3.8-3.9l1.5-1.5l3.9,3.9l3.9-3.9l1.5,1.5
		l-4,3.9L127.2,186.8z"/>
	<circle id="failure-small-bg" fill="#FFFFFF" cx="132.4" cy="168.4" r="8"/>
	<path id="failure-small" fill="#F49F60" d="M132.4,161.3c-4,0-7.2,3.2-7.2,7.2s3.2,7.2,7.2,7.2s7.2-3.2,7.2-7.2
		S136.4,161.3,132.4,161.3z M135.8,170.9l-1,1l-2.4-2.5l-2.5,2.5l-1-1l2.5-2.5l-2.4-2.5l1-1l2.5,2.5l2.5-2.5l1,1l-2.5,2.5
		L135.8,170.9z"/>
	<g id="cb-stroke_1_">
		<path fill="#727F9B" d="M165.4,303.4h-30c-1.7,0-3,1.3-3,3v11h36v-11C168.4,304.8,167.1,303.4,165.4,303.4z"/>
		<path fill="#727F9B" d="M132.4,336.4c0,1.7,1.3,3,3,3h30c1.7,0,3-1.3,3-3v-10h-36V336.4z"/>
	</g>
	<path id="cb-fill_1_" fill="#A1C14D" d="M166.4,322.4v-16c0-0.6-0.4-1-1-1h-30c-0.6,0-1,0.4-1,1v30c0,0.6,0.4,1,1,1h30
		c0.6,0,1-0.4,1-1V322.4"/>
	<path id="cb-highlight_3_" fill="#D0DEA4" d="M158.4,318.2c0,1.9,0,3.9,0,5.8c0,1.4,0.6,5.1,0,6.3c-0.4,0.9-0.7,0.6-1.9,0.6
		c-1,0-2.1,0-3.1-0.1c-2.3-0.1-4.7-0.4-7-0.7c0,1,0,1.9,0,2.9c3.2-0.8,6.4-0.4,9.6-0.5c1.4-0.1,2.7,0,3.6-1.1c1.4-1.6,1-4.6,1.1-6.5
		c0.2-3.2,0.2-6.3,0.1-9.5c-0.1-1.9-3-1.9-3,0c0.1,2,0.1,4.1,0.1,6.1c0,2.1,0.4,5.5-1.1,7.1s-3.8,0.9-5.9,0.9
		c-1.8,0-3.6,0.2-5.4,0.7c-1.3,0.3-1.5,2.6,0,2.9c3,0.4,6,0.8,9,0.9c1.7,0.1,4.3,0.6,5.8-0.6c1.3-1.1,1-3.3,1-4.8
		c0-3.4,0-6.8,0-10.2C161.4,316.2,158.4,316.2,158.4,318.2z"/>
	<path id="cb-highlight_2_" fill="#D0DEA4" d="M140.4,314.3c0.1-0.8-0.4-2.3,0.5-2.8c1.1-0.5,2.9-0.4,4.1-0.3c1.9,0.1,1.9-2.9,0-3
		s-4.6-0.2-6.2,1c-1.7,1.3-1.2,3.2-1.4,5C137.3,316.2,140.3,316.2,140.4,314.3z"/>
	<circle id="failure-badge_1_" fill="#E58231" cx="163.9" cy="305.9" r="9"/>
	<path id="failure-badge-stroke_1_" fill="#FFFFFF" d="M172.9,306.4h-0.5c0,2.3-1,4.5-2.5,6s-3.7,2.5-6,2.5s-4.5-1-6-2.5
		s-2.5-3.7-2.5-6s1-4.5,2.5-6s3.7-2.5,6-2.5s4.5,1,6,2.5s2.5,3.7,2.5,6H172.9h0.5c0-5.3-4.4-9.6-9.8-9.5c-5,0.1-9.1,4.3-9.2,9.2
		c-0.1,5.4,4.2,9.8,9.5,9.8c5.2,0,9.5-4.3,9.5-9.5H172.9z"/>
	<g display="none">
		<g display="inline" enable-background="new    ">
			<path fill="#515A6D" d="M212,152.6l-7.5-13.1c-0.2-0.3-0.6-1-1.1-2h-0.2c0.1,0.5,0.1,1.3,0.1,2.4v20.8c0,0.8-0.7,1.1-2.1,1.1
				h-0.6c-1.4,0-2.1-0.4-2.1-1.1v-30.1c0-0.8,0.7-1.1,2.1-1.1h1.9c1.1,0,1.8,0.3,2.2,1l8.4,14.6c0.5,0.8,0.8,1.6,1,2.3
				c0.2-0.5,0.6-1.3,1.1-2.4l8.3-14.5c0.3-0.6,1.1-1,2.2-1h1.7c1.4,0,2.1,0.4,2.1,1.1v30.1c0,0.8-0.7,1.1-2.1,1.1h-0.6
				c-1.4,0-2.1-0.4-2.1-1.1v-20.6c0-1.1,0-1.9,0.1-2.5h-0.2c-0.4,0.7-0.7,1.4-1.1,2l-7.4,12.8c-0.3,0.5-0.7,0.7-1.2,0.7h-1.7
				C212.7,153.3,212.3,153.1,212,152.6z"/>
			<path fill="#515A6D" d="M238.6,160.3c-1.3-1.3-1.9-3.1-1.9-5.5v-15.9c0-0.8,0.7-1.2,2.1-1.2h0.5c1.4,0,2.1,0.4,2.1,1.2v15.3
				c0,1.3,0.4,2.2,1.1,2.9c0.7,0.7,1.7,1,3.1,1c1,0,1.9-0.3,2.9-0.9c0.9-0.6,1.7-1.3,2.3-2.2v-16.2c0-0.8,0.7-1.2,2.1-1.2h0.5
				c1.4,0,2.1,0.4,2.1,1.2v15.8c0,2.1,0.1,3.5,0.3,4.5c0.2,0.9,0.3,1.4,0.3,1.6c0,0.4-0.4,0.7-1.2,0.9s-1.5,0.3-2.1,0.3
				c-0.5,0-0.8-0.2-1-0.7s-0.4-1-0.5-1.5s-0.2-0.9-0.2-1.1c-0.9,1.1-2,1.9-3.2,2.6c-1.3,0.6-2.5,0.9-3.9,0.9
				C241.6,162.2,239.8,161.6,238.6,160.3z"/>
			<path fill="#515A6D" d="M264.4,160.7c-1.2-1-1.8-2.7-1.8-5.1v-27.1c0-0.8,0.7-1.2,2.1-1.2h0.5c1.4,0,2.1,0.4,2.1,1.2v26.9
				c0,1.1,0.2,1.9,0.6,2.3c0.4,0.4,1,0.7,1.7,0.7c0.4,0,0.8,0,1.1-0.1c0.3-0.1,0.5-0.1,0.7-0.1c0.3,0,0.6,0.3,0.8,1
				c0.2,0.7,0.3,1.2,0.3,1.5c0,1.1-1.2,1.7-3.7,1.7C267,162.2,265.6,161.7,264.4,160.7z"/>
			<path fill="#515A6D" d="M279,160.7c-1.2-1-1.8-2.7-1.8-5.1v-13.8h-1.8c-0.4,0-0.6-0.1-0.8-0.4c-0.2-0.3-0.3-0.7-0.3-1.3v-0.6
				c0-0.6,0.1-1,0.3-1.3c0.2-0.3,0.4-0.4,0.8-0.4h1.8l0.6-4.7c0.1-0.8,0.7-1.2,1.7-1.2h0.7c1.1,0,1.7,0.4,1.7,1.2v4.7h3.4
				c0.4,0,0.6,0.1,0.8,0.4c0.2,0.3,0.3,0.7,0.3,1.3v0.6c0,0.6-0.1,1-0.3,1.3c-0.2,0.3-0.4,0.4-0.8,0.4H282v13.6
				c0,1.1,0.2,1.9,0.6,2.3c0.4,0.4,0.9,0.7,1.7,0.7c0.4,0,0.8,0,1.1-0.1c0.3-0.1,0.5-0.1,0.7-0.1c0.3,0,0.6,0.3,0.8,1
				c0.2,0.7,0.3,1.2,0.3,1.5c0,1.1-1.2,1.7-3.7,1.7C281.7,162.2,280.3,161.7,279,160.7z"/>
			<path fill="#515A6D" d="M292.1,132.6v-2.7c0-0.9,0.8-1.3,2.5-1.3c1.6,0,2.4,0.4,2.4,1.3v2.7c0,0.9-0.8,1.3-2.5,1.3
				C292.9,133.9,292.1,133.5,292.1,132.6z M292.2,160.8v-21.9c0-0.8,0.7-1.2,2.1-1.2h0.5c1.4,0,2.1,0.4,2.1,1.2v21.9
				c0,0.8-0.7,1.1-2.1,1.1h-0.5C292.9,162,292.2,161.6,292.2,160.8z"/>
			<path fill="#515A6D" d="M304.4,170.3v-25.2c0-2-0.1-3.5-0.3-4.4c-0.2-0.9-0.3-1.4-0.3-1.6c0-0.4,0.4-0.7,1.2-0.9
				c0.8-0.2,1.5-0.3,2.1-0.3c0.5,0,0.8,0.2,1,0.7c0.2,0.4,0.4,0.9,0.5,1.4s0.2,0.8,0.2,0.9c1-1.1,2-2,3.2-2.6s2.4-0.9,3.7-0.9
				c1.8,0,3.4,0.5,4.7,1.5s2.4,2.5,3.1,4.3c0.7,1.9,1.1,4,1.1,6.5c0,3.9-0.9,6.9-2.6,9.1c-1.7,2.2-4,3.3-6.9,3.3
				c-1.2,0-2.3-0.2-3.3-0.6c-1-0.4-1.9-0.9-2.8-1.6v10.2c0,0.7-0.7,1.1-2.1,1.1h-0.5C305.1,171.4,304.4,171,304.4,170.3z
				 M318.3,156.1c0.9-1.4,1.4-3.4,1.4-6c0-2.8-0.4-4.9-1.3-6.4s-2.1-2.2-3.8-2.2c-1,0-1.9,0.3-2.9,0.8s-1.8,1.3-2.6,2.2v12
				c1.4,1.1,3.1,1.7,5,1.7C315.9,158.2,317.3,157.5,318.3,156.1z"/>
			<path fill="#515A6D" d="M332.3,160.7c-1.2-1-1.8-2.7-1.8-5.1v-27.1c0-0.8,0.7-1.2,2.1-1.2h0.5c1.4,0,2.1,0.4,2.1,1.2v26.9
				c0,1.1,0.2,1.9,0.6,2.3c0.4,0.4,1,0.7,1.7,0.7c0.4,0,0.8,0,1.1-0.1c0.3-0.1,0.5-0.1,0.7-0.1c0.3,0,0.6,0.3,0.8,1
				c0.2,0.7,0.3,1.2,0.3,1.5c0,1.1-1.2,1.7-3.7,1.7C335,162.2,333.5,161.7,332.3,160.7z"/>
			<path fill="#515A6D" d="M343,150c0-4.1,0.9-7.3,2.8-9.4c1.9-2.1,4.6-3.2,8-3.2c3.2,0,5.6,1,7.2,3.1s2.4,5,2.4,8.9
				c0,0.3-0.2,0.7-0.7,1.3c-0.4,0.6-0.8,0.8-1.1,0.8H348c0.2,2.3,0.8,4,1.9,5.1s2.6,1.6,4.7,1.6c1.2,0,2.2-0.1,3.1-0.4
				s1.6-0.6,2.3-0.9c0.6-0.3,1-0.5,1.1-0.5c0.3,0,0.7,0.4,1.2,1.1c0.4,0.7,0.7,1.2,0.7,1.6c0,0.5-0.4,1-1.2,1.4
				c-0.8,0.5-1.9,0.9-3.2,1.2c-1.3,0.3-2.6,0.5-3.9,0.5C346.8,162.2,343,158.2,343,150z M358.6,148c0-2.1-0.4-3.7-1.2-4.9
				c-0.8-1.1-2-1.7-3.7-1.7c-3.5,0-5.4,2.2-5.8,6.5L358.6,148L358.6,148z"/>
		</g>
		<g display="inline" enable-background="new    ">
			<path fill="#515A6D" d="M199.3,212.8v-19.1h-1.6c-0.4,0-0.6-0.1-0.8-0.4c-0.2-0.3-0.3-0.7-0.3-1.3v-0.6c0-0.6,0.1-1,0.3-1.3
				s0.4-0.4,0.8-0.4h1.6v-4.1c0-2.5,0.6-4.2,1.8-5.2s2.6-1.5,4.4-1.5c2.5,0,3.7,0.5,3.7,1.6c0,0.3-0.1,0.8-0.3,1.5s-0.5,1-0.8,1
				c-0.2,0-0.4,0-0.7-0.1s-0.7-0.1-1.1-0.1c-0.7,0-1.3,0.2-1.7,0.6c-0.4,0.4-0.6,1.2-0.6,2.4v3.9h3.5c0.4,0,0.6,0.1,0.8,0.4
				c0.2,0.3,0.3,0.7,0.3,1.3v0.6c0,0.6-0.1,1-0.3,1.3s-0.4,0.4-0.8,0.4H204v19.1c0,0.8-0.7,1.1-2.1,1.1h-0.5
				C199.9,214,199.3,213.6,199.3,212.8z"/>
			<path fill="#515A6D" d="M213.8,212.4c-1.3-1.2-2-2.9-2-5.1c0-3.1,1.3-5.3,3.9-6.5c2.6-1.2,6.2-1.9,10.8-1.9v-2
				c0-1.1-0.4-1.9-1.1-2.6c-0.7-0.6-1.9-1-3.5-1c-1.3,0-2.4,0.1-3.3,0.4c-0.9,0.3-1.7,0.6-2.4,0.9c-0.7,0.3-1,0.5-1.1,0.5
				c-0.3,0-0.7-0.4-1.2-1.1c-0.4-0.7-0.7-1.3-0.7-1.6c0-0.4,0.4-0.9,1.2-1.4s1.9-0.9,3.2-1.2s2.8-0.5,4.3-0.5c3,0,5.3,0.7,6.9,2
				c1.6,1.3,2.4,3.1,2.4,5.4v9.8c0,2.1,0.1,3.5,0.3,4.5s0.3,1.4,0.3,1.6c0,0.4-0.4,0.7-1.1,0.9c-0.8,0.2-1.4,0.3-2.1,0.3
				c-0.5,0-0.8-0.2-1-0.7s-0.4-1-0.5-1.5s-0.2-0.9-0.2-1.1c-0.8,1-1.9,1.8-3.1,2.5c-1.2,0.7-2.7,1-4.3,1
				C217,214.2,215.1,213.6,213.8,212.4z M223.6,209.4c1-0.6,1.9-1.3,2.8-2.3v-4.6c-3,0-5.4,0.3-7.1,0.9s-2.7,1.8-2.7,3.6
				c0,1,0.3,1.8,0.9,2.4c0.6,0.6,1.4,0.9,2.6,0.9C221.4,210.3,222.6,210,223.6,209.4z"/>
			<path fill="#515A6D" d="M238.4,184.6v-2.7c0-0.9,0.8-1.3,2.5-1.3c1.6,0,2.4,0.4,2.4,1.3v2.7c0,0.9-0.8,1.3-2.5,1.3
				C239.2,185.9,238.4,185.5,238.4,184.6z M238.4,212.8v-21.9c0-0.8,0.7-1.2,2.1-1.2h0.5c1.4,0,2.1,0.4,2.1,1.2v21.9
				c0,0.8-0.7,1.1-2.1,1.1h-0.5C239.2,214,238.4,213.6,238.4,212.8z"/>
			<path fill="#515A6D" d="M252.2,212.7c-1.2-1-1.8-2.7-1.8-5.1v-27.1c0-0.8,0.7-1.2,2.1-1.2h0.5c1.4,0,2.1,0.4,2.1,1.2v26.9
				c0,1.1,0.2,1.9,0.6,2.3c0.4,0.4,1,0.7,1.7,0.7c0.4,0,0.8,0,1.1-0.1c0.3-0.1,0.5-0.1,0.7-0.1c0.3,0,0.6,0.3,0.8,1
				c0.2,0.7,0.3,1.2,0.3,1.5c0,1.1-1.2,1.7-3.7,1.7C254.8,214.2,253.4,213.7,252.2,212.7z"/>
			<path fill="#515A6D" d="M265.7,212.3c-1.3-1.3-1.9-3.1-1.9-5.5v-15.9c0-0.8,0.7-1.2,2.1-1.2h0.5c1.4,0,2.1,0.4,2.1,1.2v15.3
				c0,1.3,0.4,2.2,1.1,2.9s1.7,1,3.1,1c1,0,1.9-0.3,2.9-0.9c0.9-0.6,1.7-1.3,2.3-2.2v-16.2c0-0.8,0.7-1.2,2.1-1.2h0.5
				c1.4,0,2.1,0.4,2.1,1.2v15.8c0,2.1,0.1,3.5,0.3,4.5c0.2,0.9,0.3,1.4,0.3,1.6c0,0.4-0.4,0.7-1.2,0.9c-0.8,0.2-1.5,0.3-2.1,0.3
				c-0.5,0-0.8-0.2-1-0.7s-0.4-1-0.5-1.5s-0.2-0.9-0.2-1.1c-0.9,1.1-2,1.9-3.2,2.6c-1.3,0.6-2.5,0.9-3.9,0.9
				C268.7,214.2,266.9,213.6,265.7,212.3z"/>
			<path fill="#515A6D" d="M289.9,212.8v-15.7c0-2-0.1-3.5-0.3-4.4c-0.2-0.9-0.3-1.4-0.3-1.6c0-0.4,0.4-0.7,1.2-0.9
				c0.8-0.2,1.5-0.3,2.1-0.3c0.5,0,0.8,0.2,1,0.6c0.2,0.4,0.4,0.9,0.5,1.4s0.2,0.8,0.2,1c1.6-2.3,3.3-3.5,5.2-3.5
				c0.9,0,1.6,0.2,2,0.6c0.4,0.4,0.7,0.9,0.7,1.4c0,0.6-0.1,1.2-0.3,1.8c-0.2,0.7-0.5,1-0.7,1s-0.5-0.1-0.9-0.2
				c-0.4-0.2-0.9-0.2-1.5-0.2c-1,0-1.8,0.3-2.5,0.9c-0.7,0.6-1.2,1.2-1.6,1.7v16.2c0,0.8-0.7,1.1-2.1,1.1H292
				C290.6,214,289.9,213.6,289.9,212.8z"/>
			<path fill="#515A6D" d="M305.3,202c0-4.1,0.9-7.3,2.8-9.4c1.9-2.1,4.6-3.2,8-3.2c3.2,0,5.6,1,7.2,3.1s2.4,5,2.4,8.9
				c0,0.3-0.2,0.7-0.7,1.3c-0.4,0.6-0.8,0.8-1.1,0.8h-13.8c0.2,2.3,0.8,4,1.9,5.1s2.6,1.6,4.7,1.6c1.2,0,2.2-0.1,3.1-0.4
				s1.6-0.6,2.3-0.9c0.6-0.3,1-0.5,1.1-0.5c0.3,0,0.7,0.4,1.2,1.1c0.4,0.7,0.7,1.2,0.7,1.6c0,0.5-0.4,1-1.2,1.4
				c-0.8,0.5-1.9,0.9-3.2,1.2c-1.3,0.3-2.6,0.5-3.9,0.5C309.2,214.2,305.3,210.2,305.3,202z M321,200c0-2.1-0.4-3.7-1.2-4.9
				c-0.8-1.1-2-1.7-3.7-1.7c-3.5,0-5.4,2.2-5.8,6.5L321,200L321,200z"/>
			<path fill="#515A6D" d="M333.1,213.8c-1.1-0.3-2-0.7-2.7-1.2s-1-0.9-1-1.4c0-0.4,0.2-0.9,0.7-1.6c0.4-0.7,0.8-1,1.2-1
				c0.1,0,0.4,0.2,0.9,0.5c0.6,0.3,1.2,0.6,1.9,0.9c0.7,0.2,1.5,0.4,2.4,0.4c2.7,0,4-1.1,4-3.2c0-1-0.3-1.7-1-2.2s-1.8-1.1-3.4-1.6
				c-2.1-0.6-3.7-1.5-4.6-2.6c-1-1.1-1.4-2.5-1.4-4.3c0-2.1,0.7-3.7,2.2-5c1.4-1.3,3.3-1.9,5.7-1.9c1.6,0,3.1,0.2,4.4,0.6
				s2,0.9,2,1.5c0,0.5-0.2,1-0.6,1.7s-0.7,1.1-1.1,1.1c-0.1,0-0.5-0.2-1.2-0.6c-0.7-0.4-1.7-0.5-2.9-0.5c-1.1,0-1.9,0.2-2.6,0.7
				c-0.7,0.4-1,1.1-1,1.9c0,1,0.3,1.7,1,2.3s1.7,1.1,3.1,1.6c1.6,0.6,2.9,1.1,3.8,1.7c0.9,0.6,1.6,1.3,2,2.2s0.6,1.9,0.6,3.3
				c0,1.4-0.4,2.7-1.1,3.8s-1.7,2-3,2.6s-2.7,0.9-4.3,0.9C335.5,214.3,334.2,214.2,333.1,213.8z"/>
		</g>
	</g>
	<g>
		<path fill="#515A6D" d="M180.2,121.6c-2.4-2.7-3.6-6.8-3.6-12.5c0-10.9,5-16.4,15-16.4c1.5,0,3,0.2,4.4,0.5
			c1.5,0.3,2.6,0.7,3.5,1.2c0.8,0.5,1.2,0.9,1.2,1.3c0,0.5-0.2,1.1-0.7,1.9c-0.5,0.8-0.9,1.2-1.3,1.2c-0.1,0-0.5-0.2-1.2-0.5
			c-0.7-0.3-1.5-0.6-2.5-0.9s-2.1-0.4-3.4-0.4c-3.4,0-5.9,1-7.5,2.9c-1.6,1.9-2.4,5-2.4,9.2c0,4.1,0.8,7.2,2.4,9.2
			c1.6,2,4.1,3,7.4,3c1.5,0,2.7-0.2,3.8-0.5c1.1-0.4,2.1-0.8,3.1-1.3c0.4-0.2,0.7-0.4,0.9-0.4c0.3,0,0.6,0.2,0.9,0.6
			c0.3,0.4,0.5,0.8,0.8,1.3c0.2,0.5,0.3,0.8,0.3,1c0,0.6-0.5,1.2-1.5,1.7c-0.9,0.5-2.1,1-3.6,1.3c-1.5,0.3-3,0.5-4.6,0.5
			C186.4,125.6,182.6,124.2,180.2,121.6z"/>
		<path fill="#515A6D" d="M207.6,124c-1.2-1-1.8-2.7-1.8-5.1V91.8c0-0.8,0.7-1.2,2.1-1.2h0.5c1.4,0,2.1,0.4,2.1,1.2v26.9
			c0,1.1,0.2,1.9,0.6,2.3c0.4,0.4,1,0.7,1.7,0.7c0.4,0,0.8,0,1.1-0.1c0.3-0.1,0.5-0.1,0.7-0.1c0.3,0,0.6,0.3,0.8,1
			c0.2,0.7,0.3,1.2,0.3,1.5c0,1.1-1.2,1.7-3.7,1.7C210.3,125.6,208.8,125.1,207.6,124z"/>
		<path fill="#515A6D" d="M220.8,122.4c-1.8-2.1-2.8-5.1-2.8-9.1c0-4,0.9-7.1,2.8-9.2c1.9-2.1,4.5-3.2,8-3.2c3.5,0,6.1,1.1,7.9,3.2
			c1.8,2.1,2.7,5.2,2.7,9.2c0,4-0.9,7-2.7,9.1c-1.8,2.1-4.5,3.2-8,3.2C225.3,125.6,222.6,124.5,220.8,122.4z M233.2,119.6
			c1-1.4,1.4-3.5,1.4-6.3s-0.5-5-1.4-6.4c-1-1.4-2.5-2.1-4.5-2.1c-2,0-3.5,0.7-4.4,2.1c-1,1.4-1.4,3.5-1.4,6.4s0.5,5,1.4,6.3
			c0.9,1.4,2.4,2.1,4.4,2.1C230.8,121.7,232.3,121,233.2,119.6z"/>
		<path fill="#515A6D" d="M246.9,125.2c-1.1-0.3-2-0.7-2.7-1.1c-0.7-0.5-1-0.9-1-1.4c0-0.4,0.2-0.9,0.7-1.6c0.4-0.7,0.8-1,1.2-1
			c0.1,0,0.4,0.2,0.9,0.5c0.6,0.3,1.2,0.6,1.9,0.9c0.7,0.2,1.5,0.4,2.4,0.4c2.7,0,4-1.1,4-3.2c0-1-0.3-1.7-1-2.2
			c-0.7-0.5-1.8-1.1-3.4-1.6c-2.1-0.6-3.7-1.5-4.6-2.6c-1-1.1-1.4-2.5-1.4-4.3c0-2.1,0.7-3.7,2.2-5c1.4-1.3,3.3-1.9,5.7-1.9
			c1.6,0,3.1,0.2,4.4,0.6c1.3,0.4,2,0.9,2,1.5c0,0.5-0.2,1-0.6,1.7c-0.4,0.7-0.7,1.1-1.1,1.1c-0.1,0-0.5-0.2-1.2-0.6
			s-1.7-0.5-2.9-0.5c-1.1,0-1.9,0.2-2.6,0.7c-0.7,0.4-1,1.1-1,1.9c0,1,0.3,1.7,1,2.3c0.7,0.6,1.7,1.1,3.1,1.6
			c1.6,0.6,2.9,1.1,3.8,1.7c0.9,0.6,1.6,1.3,2,2.2c0.4,0.9,0.6,1.9,0.6,3.3c0,1.4-0.4,2.7-1.1,3.8c-0.7,1.1-1.7,2-3,2.6
			c-1.3,0.6-2.7,0.9-4.3,0.9C249.2,125.7,248,125.5,246.9,125.2z"/>
		<path fill="#515A6D" d="M262.6,113.4c0-4.1,0.9-7.3,2.8-9.4c1.9-2.1,4.6-3.2,8-3.2c3.2,0,5.6,1,7.2,3.1c1.6,2.1,2.4,5,2.4,8.9
			c0,0.3-0.2,0.7-0.7,1.3c-0.4,0.6-0.8,0.8-1.1,0.8h-13.8c0.2,2.3,0.8,4,1.9,5.1c1.1,1.1,2.6,1.6,4.7,1.6c1.2,0,2.2-0.1,3.1-0.4
			s1.6-0.6,2.3-0.9c0.6-0.3,1-0.5,1.1-0.5c0.3,0,0.7,0.4,1.2,1.1c0.4,0.7,0.7,1.2,0.7,1.6c0,0.5-0.4,1-1.2,1.4
			c-0.8,0.5-1.9,0.9-3.2,1.2s-2.6,0.5-3.9,0.5C266.5,125.6,262.6,121.5,262.6,113.4z M278.3,111.3c0-2.1-0.4-3.7-1.2-4.9
			c-0.8-1.1-2-1.7-3.7-1.7c-3.5,0-5.4,2.2-5.8,6.5H278.3z"/>
		<path fill="#515A6D" d="M291.3,124c-1.3-1-2.4-2.5-3.1-4.3c-0.7-1.9-1.1-4-1.1-6.4c0-2.6,0.4-4.8,1.2-6.6s1.9-3.3,3.3-4.3
			c1.4-1,3.1-1.5,5-1.5c1.2,0,2.3,0.2,3.3,0.6c1,0.4,1.9,0.9,2.8,1.6V91.8c0-0.8,0.7-1.2,2.1-1.2h0.5c1.4,0,2.1,0.4,2.1,1.2v26.3
			c0,2.1,0.1,3.5,0.3,4.5c0.2,0.9,0.3,1.4,0.3,1.6c0,0.4-0.4,0.7-1.2,0.9s-1.5,0.3-2.1,0.3c-0.5,0-0.8-0.2-1-0.7
			c-0.2-0.5-0.4-0.9-0.5-1.4c-0.1-0.5-0.2-0.9-0.2-1c-2,2.3-4.4,3.4-7,3.4C294.1,125.6,292.6,125.1,291.3,124z M299.9,120.8
			c1-0.5,1.8-1.3,2.7-2.2v-12c-1.5-1.1-3.1-1.7-5-1.7c-1.9,0-3.3,0.7-4.2,2.1s-1.4,3.4-1.4,6c0,2.8,0.4,4.9,1.3,6.4
			c0.9,1.5,2.1,2.2,3.8,2.2C298,121.6,298.9,121.3,299.9,120.8z"/>
		<path fill="#515A6D" d="M180.2,173.6c-2.4-2.7-3.6-6.8-3.6-12.5c0-10.9,5-16.4,15-16.4c1.5,0,3,0.2,4.4,0.5
			c1.5,0.3,2.6,0.7,3.5,1.2c0.8,0.5,1.2,0.9,1.2,1.3c0,0.5-0.2,1.1-0.7,1.9c-0.5,0.8-0.9,1.2-1.3,1.2c-0.1,0-0.5-0.2-1.2-0.5
			c-0.7-0.3-1.5-0.6-2.5-0.9s-2.1-0.4-3.4-0.4c-3.4,0-5.9,1-7.5,2.9c-1.6,1.9-2.4,5-2.4,9.2c0,4.1,0.8,7.2,2.4,9.2
			c1.6,2,4.1,3,7.4,3c1.5,0,2.7-0.2,3.8-0.5c1.1-0.4,2.1-0.8,3.1-1.3c0.4-0.2,0.7-0.4,0.9-0.4c0.3,0,0.6,0.2,0.9,0.6
			c0.3,0.4,0.5,0.8,0.8,1.3c0.2,0.5,0.3,0.8,0.3,1c0,0.6-0.5,1.2-1.5,1.7c-0.9,0.5-2.1,1-3.6,1.3c-1.5,0.3-3,0.5-4.6,0.5
			C186.4,177.6,182.6,176.2,180.2,173.6z"/>
		<path fill="#515A6D" d="M206,147.9v-2.7c0-0.9,0.8-1.3,2.5-1.3c1.6,0,2.4,0.4,2.4,1.3v2.7c0,0.9-0.8,1.3-2.5,1.3
			C206.8,149.2,206,148.8,206,147.9z M206.1,176.2v-21.9c0-0.8,0.7-1.1,2.1-1.1h0.5c1.4,0,2.1,0.4,2.1,1.1v21.9
			c0,0.8-0.7,1.1-2.1,1.1h-0.5C206.8,177.3,206.1,177,206.1,176.2z"/>
		<path fill="#515A6D" d="M218,176.2v-15.7c0-2-0.1-3.5-0.3-4.4c-0.2-0.9-0.3-1.4-0.3-1.6c0-0.4,0.4-0.7,1.2-0.9
			c0.8-0.2,1.5-0.3,2.1-0.3c0.5,0,0.8,0.2,1,0.6c0.2,0.4,0.4,0.9,0.5,1.4c0.1,0.5,0.2,0.8,0.2,1c1.6-2.3,3.3-3.5,5.2-3.5
			c0.9,0,1.6,0.2,2,0.6c0.4,0.4,0.7,0.9,0.7,1.4c0,0.6-0.1,1.2-0.3,1.8c-0.2,0.7-0.5,1-0.7,1c-0.2,0-0.5-0.1-0.9-0.2
			c-0.4-0.2-0.9-0.2-1.5-0.2c-1,0-1.8,0.3-2.5,0.9c-0.7,0.6-1.2,1.2-1.6,1.7v16.2c0,0.8-0.7,1.1-2.1,1.1h-0.5
			C218.7,177.3,218,177,218,176.2z"/>
		<path fill="#515A6D" d="M235.8,174.6c-1.9-2-2.8-5.1-2.8-9.4c0-4.3,1-7.5,3.1-9.4c2-1.9,4.7-2.9,8.1-2.9c1.8,0,3.4,0.2,4.9,0.7
			c1.5,0.5,2.2,1.1,2.2,1.7c0,0.4-0.2,1-0.6,1.7c-0.4,0.7-0.8,1.1-1.2,1.1c0,0-0.2-0.1-0.6-0.2c-0.7-0.3-1.4-0.6-2.1-0.8
			c-0.7-0.2-1.6-0.3-2.6-0.3c-2.1,0-3.6,0.7-4.7,2c-1.1,1.3-1.6,3.4-1.6,6.3c0,3,0.5,5.2,1.5,6.6c1,1.4,2.7,2,5,2
			c1.1,0,2-0.1,2.8-0.3s1.5-0.5,2.2-0.9c0.4-0.1,0.6-0.2,0.6-0.2c0.3,0,0.7,0.3,1.1,1s0.6,1.2,0.6,1.6c0,0.7-0.8,1.3-2.4,1.8
			c-1.6,0.5-3.3,0.8-5,0.8C240.6,177.6,237.7,176.6,235.8,174.6z"/>
		<path fill="#515A6D" d="M257.9,175.6c-1.3-1.3-1.9-3.1-1.9-5.5v-15.9c0-0.8,0.7-1.1,2.1-1.1h0.5c1.4,0,2.1,0.4,2.1,1.1v15.3
			c0,1.3,0.4,2.2,1.1,2.9c0.7,0.7,1.7,1,3.1,1c1,0,1.9-0.3,2.9-0.9c0.9-0.6,1.7-1.3,2.3-2.2v-16.2c0-0.8,0.7-1.1,2.1-1.1h0.5
			c1.4,0,2.1,0.4,2.1,1.1v15.8c0,2.1,0.1,3.5,0.3,4.5c0.2,0.9,0.3,1.4,0.3,1.6c0,0.4-0.4,0.7-1.2,0.9s-1.5,0.3-2.1,0.3
			c-0.5,0-0.8-0.2-1-0.7c-0.2-0.5-0.4-1-0.5-1.5c-0.1-0.5-0.2-0.9-0.2-1.1c-0.9,1.1-2,1.9-3.2,2.6c-1.3,0.6-2.5,0.9-3.9,0.9
			C261,177.6,259.2,176.9,257.9,175.6z"/>
		<path fill="#515A6D" d="M281.8,147.9v-2.7c0-0.9,0.8-1.3,2.5-1.3c1.6,0,2.4,0.4,2.4,1.3v2.7c0,0.9-0.8,1.3-2.5,1.3
			C282.6,149.2,281.8,148.8,281.8,147.9z M281.9,176.2v-21.9c0-0.8,0.7-1.1,2.1-1.1h0.5c1.4,0,2.1,0.4,2.1,1.1v21.9
			c0,0.8-0.7,1.1-2.1,1.1H284C282.6,177.3,281.9,177,281.9,176.2z"/>
		<path fill="#515A6D" d="M296.4,176c-1.2-1-1.8-2.7-1.8-5.1v-13.8h-1.8c-0.4,0-0.6-0.1-0.8-0.4c-0.2-0.3-0.3-0.7-0.3-1.3v-0.6
			c0-0.6,0.1-1,0.3-1.3c0.2-0.3,0.4-0.4,0.8-0.4h1.8l0.6-4.7c0.1-0.8,0.7-1.1,1.7-1.1h0.7c1.1,0,1.7,0.4,1.7,1.1v4.7h3.4
			c0.4,0,0.6,0.1,0.8,0.4c0.2,0.3,0.3,0.7,0.3,1.3v0.6c0,0.6-0.1,1-0.3,1.3c-0.2,0.3-0.4,0.4-0.8,0.4h-3.4v13.6
			c0,1.1,0.2,1.9,0.6,2.3c0.4,0.4,0.9,0.7,1.7,0.7c0.4,0,0.8,0,1.1-0.1c0.3-0.1,0.5-0.1,0.7-0.1c0.3,0,0.6,0.3,0.8,1
			c0.2,0.7,0.3,1.2,0.3,1.5c0,1.1-1.2,1.7-3.7,1.7C299,177.6,297.6,177.1,296.4,176z"/>
		<path fill="#515A6D" d="M181.5,228.6l-6-21.7c-0.1-0.4-0.2-0.6-0.2-0.8c0-0.6,0.8-0.9,2.3-0.9c1.4,0,2.2,0.3,2.3,0.8l3.6,14
			c0.1,0.4,0.3,1.1,0.4,2.1l0.5,2.5h0.2c0-0.2,0.1-0.6,0.2-1.2c0.4-2,0.6-3.1,0.7-3.5l3.6-13.9c0.1-0.6,0.8-0.8,2-0.8h0.6
			c1.2,0,1.9,0.3,2,0.8l3.6,13.9c0.3,1.4,0.6,2.6,0.7,3.7c0.1,0.2,0.1,0.6,0.2,1h0.1c0.1-0.4,0.2-1.1,0.4-2.2
			c0.1-0.3,0.1-0.7,0.2-1.3s0.2-1,0.3-1.3l3.6-14c0.1-0.5,0.8-0.8,2.1-0.8c1.4,0,2.2,0.3,2.2,0.9c0,0.2,0,0.4-0.1,0.6l-5.9,21.9
			c-0.1,0.3-0.3,0.5-0.7,0.6c-0.4,0.1-0.9,0.2-1.4,0.2h-1.6c-1.2,0-1.9-0.3-2-0.8l-3.4-13.6c-0.1-0.3-0.2-1.1-0.5-2.4l-0.1-1h-0.1
			c-0.1,0.5-0.1,0.9-0.2,1.1c-0.1,1-0.2,1.8-0.4,2.3l-3.4,13.6c-0.1,0.3-0.3,0.5-0.6,0.6c-0.4,0.1-0.8,0.2-1.4,0.2h-1.7
			C182.3,229.3,181.6,229.1,181.5,228.6z"/>
		<path fill="#515A6D" d="M211.9,199.9v-2.7c0-0.9,0.8-1.3,2.5-1.3c1.6,0,2.4,0.4,2.4,1.3v2.7c0,0.9-0.8,1.3-2.5,1.3
			C212.7,201.2,211.9,200.8,211.9,199.9z M211.9,228.2v-21.9c0-0.8,0.7-1.1,2.1-1.1h0.5c1.4,0,2.1,0.4,2.1,1.1v21.9
			c0,0.8-0.7,1.2-2.1,1.2h-0.5C212.7,229.3,211.9,229,211.9,228.2z"/>
		<path fill="#515A6D" d="M226.4,228c-1.2-1-1.8-2.7-1.8-5.1v-13.8h-1.8c-0.4,0-0.6-0.1-0.8-0.4c-0.2-0.3-0.3-0.7-0.3-1.3v-0.6
			c0-0.6,0.1-1,0.3-1.3c0.2-0.3,0.4-0.4,0.8-0.4h1.8l0.6-4.7c0.1-0.8,0.7-1.1,1.7-1.1h0.7c1.1,0,1.7,0.4,1.7,1.1v4.7h3.4
			c0.4,0,0.6,0.1,0.8,0.4c0.2,0.3,0.3,0.7,0.3,1.3v0.6c0,0.6-0.1,1-0.3,1.3c-0.2,0.3-0.4,0.4-0.8,0.4h-3.4v13.6
			c0,1.1,0.2,1.9,0.6,2.3c0.4,0.4,0.9,0.7,1.7,0.7c0.4,0,0.8,0,1.1-0.1c0.3-0.1,0.5-0.1,0.7-0.1c0.3,0,0.6,0.3,0.8,1
			c0.2,0.7,0.3,1.2,0.3,1.5c0,1.1-1.2,1.7-3.7,1.7C229.1,229.6,227.6,229.1,226.4,228z"/>
		<path fill="#515A6D" d="M239.5,228.2v-32.4c0-0.8,0.7-1.2,2.1-1.2h0.5c1.4,0,2.1,0.4,2.1,1.2V208c0.9-0.9,1.9-1.7,3.1-2.3
			c1.2-0.6,2.4-0.9,3.8-0.9c2,0,3.7,0.6,5.1,1.7c1.4,1.1,2.1,3.1,2.1,5.8v15.9c0,0.8-0.7,1.2-2.1,1.2h-0.5c-1.4,0-2.1-0.4-2.1-1.2
			v-15.3c0-1.3-0.4-2.2-1.1-2.9s-1.7-1-3.1-1c-0.9,0-1.7,0.2-2.5,0.6c-0.8,0.4-1.4,0.9-1.9,1.4c-0.5,0.5-0.8,0.9-0.9,1v16.2
			c0,0.8-0.7,1.2-2.1,1.2h-0.5C240.1,229.3,239.5,229,239.5,228.2z"/>
		<path fill="#515A6D" d="M276.6,228.2v-19.1h-1.6c-0.4,0-0.6-0.1-0.8-0.4c-0.2-0.3-0.3-0.7-0.3-1.3v-0.6c0-0.6,0.1-1,0.3-1.3
			c0.2-0.3,0.4-0.4,0.8-0.4h1.6v-4.1c0-2.5,0.6-4.2,1.8-5.2c1.2-1,2.6-1.5,4.4-1.5c2.5,0,3.7,0.5,3.7,1.6c0,0.3-0.1,0.8-0.3,1.5
			c-0.2,0.7-0.5,1-0.8,1c-0.2,0-0.4,0-0.7-0.1c-0.3-0.1-0.7-0.1-1.1-0.1c-0.7,0-1.3,0.2-1.7,0.6c-0.4,0.4-0.6,1.2-0.6,2.4v3.9h3.5
			c0.4,0,0.6,0.1,0.8,0.4c0.2,0.3,0.3,0.7,0.3,1.3v0.6c0,0.6-0.1,1-0.3,1.3c-0.2,0.3-0.4,0.4-0.8,0.4h-3.5v19.1
			c0,0.8-0.7,1.2-2.1,1.2h-0.5C277.3,229.3,276.6,229,276.6,228.2z"/>
		<path fill="#515A6D" d="M290.9,227.8c-1.3-1.2-2-2.9-2-5.1c0-3.1,1.3-5.3,3.9-6.5c2.6-1.2,6.2-1.9,10.8-1.9v-2
			c0-1.1-0.4-1.9-1.1-2.6c-0.7-0.6-1.9-1-3.5-1c-1.3,0-2.4,0.1-3.3,0.4c-0.9,0.3-1.7,0.6-2.4,0.9c-0.7,0.3-1,0.5-1.1,0.5
			c-0.3,0-0.7-0.4-1.2-1.1c-0.4-0.7-0.7-1.3-0.7-1.6c0-0.4,0.4-0.9,1.2-1.4c0.8-0.5,1.9-0.9,3.2-1.2c1.3-0.3,2.8-0.5,4.3-0.5
			c3,0,5.3,0.7,6.9,2c1.6,1.3,2.4,3.1,2.4,5.4v9.8c0,2.1,0.1,3.5,0.3,4.5c0.2,0.9,0.3,1.4,0.3,1.6c0,0.4-0.4,0.7-1.1,0.9
			c-0.8,0.2-1.4,0.3-2.1,0.3c-0.5,0-0.8-0.2-1-0.7c-0.2-0.5-0.4-1-0.5-1.5c-0.1-0.5-0.2-0.9-0.2-1.1c-0.8,1-1.9,1.8-3.1,2.5
			c-1.2,0.7-2.7,1-4.3,1C294.1,229.6,292.2,229,290.9,227.8z M300.7,224.8c1-0.6,1.9-1.3,2.8-2.3v-4.6c-3,0-5.4,0.3-7.1,0.9
			c-1.8,0.6-2.7,1.8-2.7,3.6c0,1,0.3,1.8,0.9,2.4c0.6,0.6,1.4,0.9,2.6,0.9C298.5,225.6,299.7,225.3,300.7,224.8z"/>
		<path fill="#515A6D" d="M315.2,199.9v-2.7c0-0.9,0.8-1.3,2.5-1.3c1.6,0,2.4,0.4,2.4,1.3v2.7c0,0.9-0.8,1.3-2.5,1.3
			C316,201.2,315.2,200.8,315.2,199.9z M315.3,228.2v-21.9c0-0.8,0.7-1.1,2.1-1.1h0.5c1.4,0,2.1,0.4,2.1,1.1v21.9
			c0,0.8-0.7,1.2-2.1,1.2h-0.5C316,229.3,315.3,229,315.3,228.2z"/>
		<path fill="#515A6D" d="M328.7,228c-1.2-1-1.8-2.7-1.8-5.1v-27.1c0-0.8,0.7-1.2,2.1-1.2h0.5c1.4,0,2.1,0.4,2.1,1.2v26.9
			c0,1.1,0.2,1.9,0.6,2.3c0.4,0.4,1,0.7,1.7,0.7c0.4,0,0.8,0,1.1-0.1c0.3-0.1,0.5-0.1,0.7-0.1c0.3,0,0.6,0.3,0.8,1
			c0.2,0.7,0.3,1.2,0.3,1.5c0,1.1-1.2,1.7-3.7,1.7C331.4,229.6,329.9,229.1,328.7,228z"/>
		<path fill="#515A6D" d="M341.9,227.6c-1.3-1.3-1.9-3.1-1.9-5.5v-15.9c0-0.8,0.7-1.1,2.1-1.1h0.5c1.4,0,2.1,0.4,2.1,1.1v15.3
			c0,1.3,0.4,2.2,1.1,2.9c0.7,0.7,1.7,1,3.1,1c1,0,1.9-0.3,2.9-0.9s1.7-1.3,2.3-2.2v-16.2c0-0.8,0.7-1.1,2.1-1.1h0.5
			c1.4,0,2.1,0.4,2.1,1.1v15.8c0,2.1,0.1,3.5,0.3,4.5c0.2,0.9,0.3,1.4,0.3,1.6c0,0.4-0.4,0.7-1.2,0.9c-0.8,0.2-1.5,0.3-2.1,0.3
			c-0.5,0-0.8-0.2-1-0.7c-0.2-0.5-0.4-1-0.5-1.5c-0.1-0.5-0.2-0.9-0.2-1.1c-0.9,1.1-2,1.9-3.2,2.6c-1.3,0.6-2.5,0.9-3.9,0.9
			C345,229.6,343.2,228.9,341.9,227.6z"/>
		<path fill="#515A6D" d="M365.9,228.2v-15.7c0-2-0.1-3.5-0.3-4.4c-0.2-0.9-0.3-1.4-0.3-1.6c0-0.4,0.4-0.7,1.2-0.9
			c0.8-0.2,1.5-0.3,2.1-0.3c0.5,0,0.8,0.2,1,0.6c0.2,0.4,0.4,0.9,0.5,1.4c0.1,0.5,0.2,0.8,0.2,1c1.6-2.3,3.3-3.5,5.2-3.5
			c0.9,0,1.6,0.2,2,0.6c0.4,0.4,0.7,0.9,0.7,1.4c0,0.6-0.1,1.2-0.3,1.8c-0.2,0.7-0.5,1-0.7,1c-0.2,0-0.5-0.1-0.9-0.2
			c-0.4-0.2-0.9-0.2-1.5-0.2c-1,0-1.8,0.3-2.5,0.9c-0.7,0.6-1.2,1.2-1.6,1.7v16.2c0,0.8-0.7,1.2-2.1,1.2H368
			C366.6,229.3,365.9,229,365.9,228.2z"/>
		<path fill="#515A6D" d="M381,217.4c0-4.1,0.9-7.3,2.8-9.4c1.9-2.1,4.6-3.2,8-3.2c3.2,0,5.6,1,7.2,3.1c1.6,2.1,2.4,5,2.4,8.9
			c0,0.3-0.2,0.7-0.7,1.3c-0.4,0.6-0.8,0.8-1.1,0.8H386c0.2,2.3,0.8,4,1.9,5.1c1.1,1.1,2.6,1.6,4.7,1.6c1.2,0,2.2-0.1,3.1-0.4
			c0.9-0.3,1.6-0.6,2.3-0.9c0.6-0.3,1-0.5,1.1-0.5c0.3,0,0.7,0.4,1.2,1.1c0.4,0.7,0.7,1.2,0.7,1.6c0,0.5-0.4,1-1.2,1.4
			c-0.8,0.5-1.9,0.9-3.2,1.2c-1.3,0.3-2.6,0.5-3.9,0.5C384.9,229.6,381,225.5,381,217.4z M396.7,215.3c0-2.1-0.4-3.7-1.2-4.9
			c-0.8-1.1-2-1.7-3.7-1.7c-3.5,0-5.4,2.2-5.8,6.5H396.7z"/>
		<path fill="#515A6D" d="M408.5,229.2c-1.1-0.3-2-0.7-2.7-1.2c-0.7-0.5-1-0.9-1-1.4c0-0.4,0.2-0.9,0.7-1.6c0.4-0.7,0.8-1,1.2-1
			c0.1,0,0.4,0.2,0.9,0.5c0.6,0.3,1.2,0.6,1.9,0.9c0.7,0.2,1.5,0.4,2.4,0.4c2.7,0,4-1.1,4-3.2c0-1-0.3-1.7-1-2.2
			c-0.7-0.5-1.8-1.1-3.4-1.6c-2.1-0.6-3.7-1.5-4.6-2.6c-1-1.1-1.4-2.5-1.4-4.3c0-2.1,0.7-3.7,2.2-5c1.4-1.3,3.3-1.9,5.7-1.9
			c1.6,0,3.1,0.2,4.4,0.6c1.3,0.4,2,0.9,2,1.5c0,0.5-0.2,1-0.6,1.7c-0.4,0.7-0.7,1.1-1.1,1.1c-0.1,0-0.5-0.2-1.2-0.6
			s-1.7-0.5-2.9-0.5c-1.1,0-1.9,0.2-2.6,0.7c-0.7,0.4-1,1.1-1,1.9c0,1,0.3,1.7,1,2.3c0.7,0.6,1.7,1.1,3.1,1.6
			c1.6,0.6,2.9,1.1,3.8,1.7c0.9,0.6,1.6,1.3,2,2.2s0.6,1.9,0.6,3.3c0,1.4-0.4,2.7-1.1,3.8s-1.7,2-3,2.6c-1.3,0.6-2.7,0.9-4.3,0.9
			C410.9,229.7,409.7,229.5,408.5,229.2z"/>
	</g>
</g>
</svg>
