<svg xmlns="http://www.w3.org/2000/svg" viewBox="0 0 436.3 436.3"><circle fill="#FFF" cx="218.2" cy="218.2" r="216.8"/><path fill="#727F9B" d="M433.5 218.2c-.1 44.5-13.9 88.2-39.6 124.5-25.2 35.6-61.3 63.1-102.3 78-42.4 15.4-89.5 17-132.8 4.5-41.8-12-79.3-36.8-106.9-70.3-57.4-69.6-64.7-170.9-18-248.1C56.2 69.8 89.7 40 129 22.1c41.3-18.8 88.4-24 132.8-14.8 86.5 17.8 155 89.4 169 176.7 1.8 11.2 2.7 22.7 2.7 34.2 0 1.8 2.9 1.8 2.9 0-.1-45.2-14.1-89.7-40.4-126.5-25.4-35.6-61.3-63.1-102.3-78.3-43-15.9-90.9-17.7-135-5.2-42.5 12-80.8 37.2-108.9 71.2C21.5 113.7 4.2 156.3.7 200.7-2.9 246 7.8 292 31.4 330.9c22.7 37.6 56.8 68 96.9 86.1 41.4 18.7 88.4 24 133 15.1 43.5-8.7 83.8-30.9 114.4-62.9 30.8-32.1 51.3-73.4 58.1-117.4 1.7-11.1 2.6-22.4 2.6-33.6 0-1.9-2.9-1.9-2.9 0z"/><path fill="#FFF" d="M250 315.4H116.4V198.9v-17.2c0-7.7-12-7.7-12 0v137.6c0 .6.1 1.2.2 1.7-.2 3.1 1.7 6.4 5.8 6.4H250c7.7 0 7.7-12 0-12z"/><path fill="#727F9B" d="M250.5 314.4H117l1.5 1.5V204.4v-12.5c0-3.6.7-7.9-.2-11.4-.9-3.3-3.8-5.4-7.3-5.4-3.4 0-6.4 2.1-7.3 5.4-.8 3-.2 6.6-.2 9.7V316c0 4.7-.4 11.1 5.1 13 3.1 1.1 7 .4 10.3.4H238.1c4.4 0 9.3.6 13.6-.1 8.8-1.5 7.4-14.3-1.2-14.9-1.9-.1-1.9 2.9 0 3 3 .2 4.9 2.7 4.2 5.7-.8 3.1-3.4 3.2-6.1 3.3-7.7.2-15.4 0-23.1 0h-90.8c-7 0-14.8 1-21.7 0-2.6-.4-3.8 1.4-6-3-.7-1.3-.4-4.1-.4-5.5-.1-4.1 0-8.3 0-12.4v-88.1V196c0-4.5-2.5-18 4.5-18 6.9 0 4.5 11.4 4.5 15.7V315.9c0 .8.7 1.5 1.5 1.5h133.5c1.8 0 1.8-3-.1-3z"/><path fill="#727F9B" d="M111.2 146.4c1 14.2 1.5 28.4 1.9 42.6.1 7.1.3 14.2.4 21.3s.2 14.2.1 21.3c-.1 14.2-.9 28.4-1.4 42.6-.2 7.1-.4 14.2-.4 21.3 0 3.5 0 7.1.1 10.6l.1 5.3.1 2.7c0 .4 0 .9.1 1.3 0 .4.1.7.2 1l.1.2v.3c0 1.2.5 2.5 1.3 3.2.8.8 1.9 1.1 3.2 1l9.3-.4c6.2-.3 12.4-.5 18.6-.6l18.6-.3c6.2-.1 12.4-.2 18.6-.2 12.4 0 24.8.3 37.2.8s24.8 1.1 37.2 2.1v.6c-12.4 1.1-24.8 1.7-37.2 2.1s-24.8.8-37.2.8c-6.2 0-12.4-.1-18.6-.2l-18.6-.3c-6.2-.1-12.4-.3-18.6-.6l-9.3-.4c-1.9-.1-3.9-.8-5.2-2.4-1.3-1.5-1.9-3.5-1.7-5.3v.4c-.1-.5-.2-1.1-.2-1.6v-1.4l.1-2.7.1-5.3c0-3.5.1-7.1.1-10.6 0-7.1-.2-14.2-.4-21.3-.5-14.2-1.2-28.4-1.4-42.6-.1-7.1 0-14.2.1-21.3 0-7.1.2-14.2.4-21.3.4-14.2.9-28.4 1.9-42.6h.4v-.1z"/><circle fill="#D0DAED" cx="288.8" cy="322.9" r="43.5"/><path fill="#727F9B" d="M330.8 322.9c-.3 17.5-11 33.5-27.6 39.5-16.3 5.9-35 1-46.2-12.2-11.5-13.4-13.3-33.2-4.3-48.5 8.9-15.2 26.8-23.4 44.1-20.1 19.7 3.8 33.7 21.3 34 41.3 0 1.9 3 1.9 3 0-.3-18.8-11.9-35.9-29.8-42.3-17.7-6.4-38.1-.6-50 14-11.8 14.6-13.4 35.6-3.6 51.6 9.7 16 28.8 24.4 47.1 20.9 21.1-4.1 36-22.9 36.3-44.1 0-2.1-3-2.1-3-.1z"/><circle fill="#D0DAED" cx="111.9" cy="143" r="43.5"/><path fill="#727F9B" d="M153.9 143c-.3 17.5-11 33.5-27.6 39.5-16.3 5.9-35 1-46.2-12.2-11.5-13.4-13.3-33.2-4.3-48.5 8.9-15.2 26.8-23.4 44.1-20.1 19.7 3.8 33.7 21.3 34 41.3 0 1.9 3 1.9 3 0-.3-18.8-11.9-35.9-29.8-42.3-17.7-6.4-38.1-.6-50 14-11.8 14.6-13.4 35.6-3.6 51.6 9.7 16 28.8 24.4 47.1 20.9 21.1-4.1 36-22.9 36.3-44.1 0-2.1-3-2.1-3-.1z"/><path fill="#515A6D" d="M276.8 312.8l4.8 13.8c0 .1.1.2.1.3 0 .3-.3.4-1 .4h-1.1c-.6 0-.9-.1-1-.4l-.9-2.6h-4.9l-.9 2.6c-.1.2-.4.4-.8.4h-1c-.8 0-1.2-.1-1.2-.4 0 0 0-.2.1-.4l4.8-13.8c.1-.3.5-.4 1.1-.4h.9c.6.1.9.2 1 .5zm-1.6 3.6c0 .1 0 .2-.1.5 0 .3-.1.5-.2.8l-1.6 4.7h3.8l-1.6-4.7c0-.3-.1-.8-.3-1.3zM291.2 317.3c.6.5 1.1 1.1 1.4 2s.5 1.9.5 3c0 1.8-.4 3.1-1.2 4.1s-1.9 1.5-3.2 1.5c-.9 0-1.7-.3-2.3-.8v4.4c-.1.4-.5.6-1.3.9h-.4c-.7-.3-1.1-.5-1.3-.9v-11.2c.2-.9.2-1.6.1-2.1-.1-.4-.1-.7-.1-.8 0-.2.2-.3.7-.5s.9-.2 1.2-.2c.2 0 .4.1.5.3.1.2.2.4.2.6s.1.4.1.5c.3-.5.8-.9 1.3-1.2.5-.3 1.1-.4 1.7-.4.8.1 1.5.3 2.1.8zm-3.8 1.8c-.4.2-.7.6-1 1v5.1c.5.4 1.2.6 1.9.6 1.5 0 2.3-1.2 2.3-3.4 0-1.1-.2-2-.5-2.6s-.8-.9-1.5-.9c-.5-.1-.8 0-1.2.2zM303.6 317.3c.6.5 1.1 1.1 1.4 2s.5 1.9.5 3c0 1.8-.4 3.1-1.2 4.1s-1.9 1.5-3.2 1.5c-.9 0-1.7-.3-2.7-.8v4.4c.2.4-.2.6-.9.9h-.4c-.7-.3-1.1-.5-1.7-.9v-11.2c.6-.9.6-1.6.5-2.1-.1-.4-.1-.7-.1-.8 0-.2.2-.3.7-.5s.9-.2 1.2-.2c.2 0 .4.1.5.3.1.2.2.4.2.6s.1.4.1.5c.3-.5.8-.9 1.3-1.2.5-.3 1.1-.4 1.7-.4.8.1 1.5.3 2.1.8zm-4.2 1.8c-.4.2-.7.6-1 1v5.1c.5.4 1.2.6 1.9.6 1.5 0 2.3-1.2 2.3-3.4 0-1.1-.2-2-.5-2.6s-.8-.9-1.5-.9c-.5-.1-.8 0-1.2.2z"/><path fill="#FFF" d="M268.4 348.5c-1.9-2.8-3.8-5.7-5.6-8.5-1.1-1.6-3.4-.2-2.6 1.5 1.8 4 5.5 6.9 9.8 7.7 1.9.3 2.7-2.5.8-2.9-3.6-.7-6.5-2.9-8-6.3-.9.5-1.7 1-2.6 1.5 1.9 2.8 3.8 5.7 5.6 8.5 1.1 1.6 3.7.1 2.6-1.5zM303.5 292.9c7.9 6.7 16.4 14.3 15.8 25.5-.1 2 2.8 1.9 3 0 1.4-13.7-8-25-21.5-26.8-1.9-.2-1.9 2.8 0 3 11.9 1.6 19.7 12 18.5 23.8h3c.6-12.1-8.2-20.5-16.7-27.7-1.4-1.2-3.5.9-2.1 2.2z"/><path fill="#515A6D" d="M83.8 134.1c.6.1 1 .3 1.4.5s.5.4.5.7-.1.6-.3 1c-.2.4-.4.6-.6.6 0 0-.2 0-.4-.1-.3-.1-.6-.3-.9-.3s-.7-.1-1.2-.1c-.8 0-1.3.2-1.7.5-.4.3-.5.7-.5 1.2 0 .4.1.7.3 1 .2.3.5.5.8.6.3.2.8.4 1.4.6.8.3 1.5.6 2 .9.5.3 1 .7 1.3 1.3s.6 1.3.6 2.2c0 1.5-.4 2.6-1.3 3.3s-2 1.1-3.4 1.1c-.9 0-1.7-.1-2.4-.3s-1.3-.4-1.7-.7-.6-.5-.6-.7.1-.4.2-.7.3-.5.5-.7.3-.3.5-.3c.1 0 .3.1.5.2.4.2.9.4 1.3.6.4.1.9.2 1.5.2s1.2-.2 1.6-.5.7-.8.7-1.4c0-.4-.1-.7-.3-1-.2-.3-.5-.5-.8-.7s-.8-.4-1.4-.6c-.4-.1-.6-.2-.7-.3-.6-.3-1.2-.6-1.6-.9s-.8-.7-1.1-1.3c-.3-.5-.4-1.2-.4-2 0-.9.2-1.6.7-2.3.4-.6 1-1.1 1.8-1.4.7-.3 1.6-.5 2.4-.5.1.1.7.2 1.3.3zM96.5 139.3c.7 1 1.1 2.3 1.1 4 0 .2-.1.4-.4.7s-.4.4-.6.4h-5.8c.1.9.3 1.6.8 2 .4.4 1.1.6 1.9.6.5 0 .9-.1 1.2-.2s.7-.3 1.1-.4c.2-.1.4-.1.4-.1.2 0 .4.2.6.5.2.4.3.6.3.8 0 .3-.2.5-.6.7s-.9.4-1.5.5-1.2.2-1.7.2c-1.8 0-3.2-.5-4-1.4s-1.3-2.3-1.3-4.1c0-1.9.4-3.4 1.3-4.3.9-.9 2.1-1.4 3.7-1.4 1.6.1 2.8.6 3.5 1.5zm-5.7 3.1H95c0-.8-.2-1.4-.5-1.9-.3-.4-.8-.7-1.4-.7-1.3 0-2.1.9-2.3 2.6zM106 137.9c.2.2.3.4.3.7s-.1.6-.2 1-.2.6-.4.6c-.1 0-.2 0-.4-.1s-.4-.1-.6-.1c-.4 0-.8.1-1.1.4-.3.3-.5.5-.2.8v7.1c-.5.4-.9.6-1.6.2h-.4c-.7.4-1.1.2-1-.2v-6.9c-.1-.9-.2-1.6-.3-2-.1-.4-.1-.7-.1-.8 0-.2.2-.3.7-.5.5-.1.9-.2 1.2-.2.2 0 .4.1.5.3s.2.4.2.6c0 .2.1.4.1.5.3-.5.7-.9 1-1.2.4-.3.8-.4 1.3-.4.5-.1.8 0 1 .2zM116.7 137.8c0 .1 0 .2-.1.4l-3.3 9.8c-.1.3-.4.4-1 .4h-.7c-.6 0-1-.1-1.1-.4l-3.3-9.9c-.1-.1-.1-.3-.1-.3 0-.3.4-.4 1.1-.4h.4c.6 0 1 .1 1.1.4l1.6 5 .5 1.8.2.8h.1c.2-1.1.4-2 .6-2.6l1.6-5c.1-.3.5-.4 1.1-.4h.3c.6 0 1 .1 1 .4zM121.4 133.5v1.5c0 .2-.1.3-.3.4-.2.1-.5.1-.9-.1h-.5c-.4.2-.7.2-.9.1-.2-.1-.3-.2-.6-.4v-1.5c.3-.4.7-.6 1.4-1.1h.5c.9.5 1.3.7 1.3 1.1zm0 4.8v9.9c0 .4-.4.6-1.1.2h-.4c-.7.4-1.1.2-1.4-.2v-9.9c.3-.4.7-.6 1.4-.9h.4c.7.3 1.1.5 1.1.9zM131.7 138c.7.2 1.1.5 1.1.9 0 .2-.1.5-.4.9-.2.4-.4.6-.6.6 0 0-.1 0-.3-.1-.6-.3-1.3-.5-2-.5-.9 0-1.5.3-2 .9-.4.6-.7 1.5-.7 2.7s.2 2.1.6 2.7c.4.6 1.1.9 2 .9.7 0 1.5-.2 2.2-.5.2-.1.3-.1.3-.1.2 0 .4.2.6.5.2.4.3.7.3.9 0 .3-.2.5-.6.7s-.9.4-1.5.5-1.1.1-1.5.1c-1.8 0-3.1-.5-3.9-1.4-.9-.9-1.3-2.3-1.3-4.2s.5-3.4 1.4-4.3c.9-.9 2.2-1.4 3.9-1.4.9-.2 1.7-.1 2.4.2zM143 139.3c.7 1 1.1 2.3 1.1 4 0 .2-.1.4-.4.7s-.4.4-.6.4h-5.8c.1.9.3 1.6.8 2 .4.4 1.1.6 1.9.6.5 0 .9-.1 1.2-.2s.7-.3 1.1-.4c.2-.1.4-.1.4-.1.2 0 .4.2.6.5.2.4.3.6.3.8 0 .3-.2.5-.6.7s-.9.4-1.5.5-1.2.2-1.7.2c-1.8 0-3.2-.5-4-1.4s-1.3-2.3-1.3-4.1c0-1.9.4-3.4 1.3-4.3.9-.9 2.1-1.4 3.7-1.4 1.7.1 2.8.6 3.5 1.5zm-5.6 3.1h4.1c0-.8-.2-1.4-.5-1.9-.3-.4-.8-.7-1.4-.7-1.3 0-2 .9-2.2 2.6z"/><path fill="#FFF" d="M120 114.6c5.7.5 10.7 3.6 13.8 8.4l2.4-1.8c-4.1-4.3-8.8-8.2-15.1-7.8-1.3.1-2.2 2.1-.8 2.8 3.9 1.8 7 4.5 9 8.3.9 1.7 3.5.2 2.6-1.5-2.3-4.2-5.7-7.5-10.1-9.4-.3.9-.5 1.9-.8 2.8 5.5-.3 9.4 3.2 13 6.9 1.2 1.2 3.3-.4 2.4-1.8-3.7-5.8-9.6-9.3-16.4-9.9-1.9-.2-1.9 2.8 0 3z"/><circle fill="#FFF" cx="100.4" cy="172.4" r="19"/><path fill="#E58231" d="M100.4 155.4c-9.4 0-17 7.6-17 17s7.6 17 17 17 17-7.6 17-17-7.6-17-17-17zm8.1 22.9l-2.3 2.3-5.7-5.9-5.9 5.9-2.3-2.3 5.9-5.9-5.7-5.9 2.3-2.3 5.9 5.9 5.9-5.9 2.3 2.3-6 5.9 5.6 5.9z"/><circle fill="#FFF" cx="121.9" cy="182.9" r="12.5"/><path fill="#F5CCB1" d="M121.9 171.7c-6.2 0-11.2 5-11.2 11.2s5 11.2 11.2 11.2c6.2 0 11.2-5 11.2-11.2s-5-11.2-11.2-11.2zm5.3 15.1l-1.5 1.5-3.8-3.9-3.9 3.9-1.5-1.5 3.9-3.9-3.8-3.9 1.5-1.5 3.9 3.9 3.9-3.9 1.5 1.5-4 3.9 3.8 3.9z"/><circle fill="#FFF" cx="132.4" cy="168.4" r="8"/><path fill="#F49F60" d="M132.4 161.3c-4 0-7.2 3.2-7.2 7.2s3.2 7.2 7.2 7.2 7.2-3.2 7.2-7.2-3.2-7.2-7.2-7.2zm3.4 9.6l-1 1-2.4-2.5-2.5 2.5-1-1 2.5-2.5-2.4-2.5 1-1 2.5 2.5 2.5-2.5 1 1-2.5 2.5 2.3 2.5z"/><g fill="#727F9B"><path d="M165.4 303.4h-30c-1.7 0-3 1.3-3 3v11h36v-11c0-1.6-1.3-3-3-3zM132.4 336.4c0 1.7 1.3 3 3 3h30c1.7 0 3-1.3 3-3v-10h-36v10z"/></g><path fill="#A1C14D" d="M166.4 322.4v-16c0-.6-.4-1-1-1h-30c-.6 0-1 .4-1 1v30c0 .6.4 1 1 1h30c.6 0 1-.4 1-1v-14"/><path fill="#D0DEA4" d="M158.4 318.2v5.8c0 1.4.6 5.1 0 6.3-.4.9-.7.6-1.9.6-1 0-2.1 0-3.1-.1-2.3-.1-4.7-.4-7-.7v2.9c3.2-.8 6.4-.4 9.6-.5 1.4-.1 2.7 0 3.6-1.1 1.4-1.6 1-4.6 1.1-6.5.2-3.2.2-6.3.1-9.5-.1-1.9-3-1.9-3 0 .1 2 .1 4.1.1 6.1 0 2.1.4 5.5-1.1 7.1s-3.8.9-5.9.9c-1.8 0-3.6.2-5.4.7-1.3.3-1.5 2.6 0 2.9 3 .4 6 .8 9 .9 1.7.1 4.3.6 5.8-.6 1.3-1.1 1-3.3 1-4.8v-10.2c.1-2.2-2.9-2.2-2.9-.2zM140.4 314.3c.1-.8-.4-2.3.5-2.8 1.1-.5 2.9-.4 4.1-.3 1.9.1 1.9-2.9 0-3s-4.6-.2-6.2 1c-1.7 1.3-1.2 3.2-1.4 5-.1 2 2.9 2 3 .1z"/><circle fill="#E58231" cx="163.9" cy="305.9" r="9"/><path fill="#FFF" d="M172.9 306.4h-.5c0 2.3-1 4.5-2.5 6s-3.7 2.5-6 2.5-4.5-1-6-2.5-2.5-3.7-2.5-6 1-4.5 2.5-6 3.7-2.5 6-2.5 4.5 1 6 2.5 2.5 3.7 2.5 6h1c0-5.3-4.4-9.6-9.8-9.5-5 .1-9.1 4.3-9.2 9.2-.1 5.4 4.2 9.8 9.5 9.8 5.2 0 9.5-4.3 9.5-9.5h-.5z"/><g fill="#515A6D"><path d="M180.2 121.6c-2.4-2.7-3.6-6.8-3.6-12.5 0-10.9 5-16.4 15-16.4 1.5 0 3 .2 4.4.5 1.5.3 2.6.7 3.5 1.2.8.5 1.2.9 1.2 1.3 0 .5-.2 1.1-.7 1.9-.5.8-.9 1.2-1.3 1.2-.1 0-.5-.2-1.2-.5s-1.5-.6-2.5-.9-2.1-.4-3.4-.4c-3.4 0-5.9 1-7.5 2.9-1.6 1.9-2.4 5-2.4 9.2 0 4.1.8 7.2 2.4 9.2 1.6 2 4.1 3 7.4 3 1.5 0 2.7-.2 3.8-.5 1.1-.4 2.1-.8 3.1-1.3.4-.2.7-.4.9-.4.3 0 .6.2.9.6.3.4.5.8.8 1.3.2.5.3.8.3 1 0 .6-.5 1.2-1.5 1.7-.9.5-2.1 1-3.6 1.3-1.5.3-3 .5-4.6.5-5.2.1-9-1.3-11.4-3.9zM207.6 124c-1.2-1-1.8-2.7-1.8-5.1V91.8c0-.8.7-1.2 2.1-1.2h.5c1.4 0 2.1.4 2.1 1.2v26.9c0 1.1.2 1.9.6 2.3.4.4 1 .7 1.7.7.4 0 .8 0 1.1-.1.3-.1.5-.1.7-.1.3 0 .6.3.8 1 .2.7.3 1.2.3 1.5 0 1.1-1.2 1.7-3.7 1.7-1.7-.1-3.2-.6-4.4-1.7zM220.8 122.4c-1.8-2.1-2.8-5.1-2.8-9.1s.9-7.1 2.8-9.2c1.9-2.1 4.5-3.2 8-3.2s6.1 1.1 7.9 3.2c1.8 2.1 2.7 5.2 2.7 9.2 0 4-.9 7-2.7 9.1-1.8 2.1-4.5 3.2-8 3.2-3.4 0-6.1-1.1-7.9-3.2zm12.4-2.8c1-1.4 1.4-3.5 1.4-6.3s-.5-5-1.4-6.4c-1-1.4-2.5-2.1-4.5-2.1s-3.5.7-4.4 2.1c-1 1.4-1.4 3.5-1.4 6.4s.5 5 1.4 6.3c.9 1.4 2.4 2.1 4.4 2.1 2.1 0 3.6-.7 4.5-2.1zM246.9 125.2c-1.1-.3-2-.7-2.7-1.1-.7-.5-1-.9-1-1.4 0-.4.2-.9.7-1.6.4-.7.8-1 1.2-1 .1 0 .4.2.9.5.6.3 1.2.6 1.9.9.7.2 1.5.4 2.4.4 2.7 0 4-1.1 4-3.2 0-1-.3-1.7-1-2.2-.7-.5-1.8-1.1-3.4-1.6-2.1-.6-3.7-1.5-4.6-2.6-1-1.1-1.4-2.5-1.4-4.3 0-2.1.7-3.7 2.2-5 1.4-1.3 3.3-1.9 5.7-1.9 1.6 0 3.1.2 4.4.6 1.3.4 2 .9 2 1.5 0 .5-.2 1-.6 1.7-.4.7-.7 1.1-1.1 1.1-.1 0-.5-.2-1.2-.6s-1.7-.5-2.9-.5c-1.1 0-1.9.2-2.6.7-.7.4-1 1.1-1 1.9 0 1 .3 1.7 1 2.3.7.6 1.7 1.1 3.1 1.6 1.6.6 2.9 1.1 3.8 1.7.9.6 1.6 1.3 2 2.2.4.9.6 1.9.6 3.3s-.4 2.7-1.1 3.8c-.7 1.1-1.7 2-3 2.6-1.3.6-2.7.9-4.3.9-1.7-.2-2.9-.4-4-.7zM262.6 113.4c0-4.1.9-7.3 2.8-9.4 1.9-2.1 4.6-3.2 8-3.2 3.2 0 5.6 1 7.2 3.1 1.6 2.1 2.4 5 2.4 8.9 0 .3-.2.7-.7 1.3-.4.6-.8.8-1.1.8h-13.8c.2 2.3.8 4 1.9 5.1 1.1 1.1 2.6 1.6 4.7 1.6 1.2 0 2.2-.1 3.1-.4s1.6-.6 2.3-.9c.6-.3 1-.5 1.1-.5.3 0 .7.4 1.2 1.1.4.7.7 1.2.7 1.6 0 .5-.4 1-1.2 1.4-.8.5-1.9.9-3.2 1.2s-2.6.5-3.9.5c-7.6 0-11.5-4.1-11.5-12.2zm15.7-2.1c0-2.1-.4-3.7-1.2-4.9-.8-1.1-2-1.7-3.7-1.7-3.5 0-5.4 2.2-5.8 6.5h10.7zM291.3 124c-1.3-1-2.4-2.5-3.1-4.3-.7-1.9-1.1-4-1.1-6.4 0-2.6.4-4.8 1.2-6.6s1.9-3.3 3.3-4.3 3.1-1.5 5-1.5c1.2 0 2.3.2 3.3.6 1 .4 1.9.9 2.8 1.6V91.8c0-.8.7-1.2 2.1-1.2h.5c1.4 0 2.1.4 2.1 1.2v26.3c0 2.1.1 3.5.3 4.5.2.9.3 1.4.3 1.6 0 .4-.4.7-1.2.9s-1.5.3-2.1.3c-.5 0-.8-.2-1-.7-.2-.5-.4-.9-.5-1.4-.1-.5-.2-.9-.2-1-2 2.3-4.4 3.4-7 3.4-1.9-.1-3.4-.6-4.7-1.7zm8.6-3.2c1-.5 1.8-1.3 2.7-2.2v-12c-1.5-1.1-3.1-1.7-5-1.7s-3.3.7-4.2 2.1-1.4 3.4-1.4 6c0 2.8.4 4.9 1.3 6.4s2.1 2.2 3.8 2.2c.9 0 1.8-.3 2.8-.8zM180.2 173.6c-2.4-2.7-3.6-6.8-3.6-12.5 0-10.9 5-16.4 15-16.4 1.5 0 3 .2 4.4.5 1.5.3 2.6.7 3.5 1.2.8.5 1.2.9 1.2 1.3 0 .5-.2 1.1-.7 1.9-.5.8-.9 1.2-1.3 1.2-.1 0-.5-.2-1.2-.5s-1.5-.6-2.5-.9-2.1-.4-3.4-.4c-3.4 0-5.9 1-7.5 2.9-1.6 1.9-2.4 5-2.4 9.2 0 4.1.8 7.2 2.4 9.2 1.6 2 4.1 3 7.4 3 1.5 0 2.7-.2 3.8-.5 1.1-.4 2.1-.8 3.1-1.3.4-.2.7-.4.9-.4.3 0 .6.2.9.6.3.4.5.8.8 1.3.2.5.3.8.3 1 0 .6-.5 1.2-1.5 1.7-.9.5-2.1 1-3.6 1.3-1.5.3-3 .5-4.6.5-5.2.1-9-1.3-11.4-3.9zM206 147.9v-2.7c0-.9.8-1.3 2.5-1.3 1.6 0 2.4.4 2.4 1.3v2.7c0 .9-.8 1.3-2.5 1.3-1.6 0-2.4-.4-2.4-1.3zm.1 28.3v-21.9c0-.8.7-1.1 2.1-1.1h.5c1.4 0 2.1.4 2.1 1.1v21.9c0 .8-.7 1.1-2.1 1.1h-.5c-1.4 0-2.1-.3-2.1-1.1zM218 176.2v-15.7c0-2-.1-3.5-.3-4.4-.2-.9-.3-1.4-.3-1.6 0-.4.4-.7 1.2-.9.8-.2 1.5-.3 2.1-.3.5 0 .8.2 1 .6.2.4.4.9.5 1.4.1.5.2.8.2 1 1.6-2.3 3.3-3.5 5.2-3.5.9 0 1.6.2 2 .6.4.4.7.9.7 1.4 0 .6-.1 1.2-.3 1.8-.2.7-.5 1-.7 1-.2 0-.5-.1-.9-.2-.4-.2-.9-.2-1.5-.2-1 0-1.8.3-2.5.9-.7.6-1.2 1.2-1.6 1.7V176c0 .8-.7 1.1-2.1 1.1h-.5c-1.5.2-2.2-.1-2.2-.9zM235.8 174.6c-1.9-2-2.8-5.1-2.8-9.4 0-4.3 1-7.5 3.1-9.4 2-1.9 4.7-2.9 8.1-2.9 1.8 0 3.4.2 4.9.7 1.5.5 2.2 1.1 2.2 1.7 0 .4-.2 1-.6 1.7-.4.7-.8 1.1-1.2 1.1 0 0-.2-.1-.6-.2-.7-.3-1.4-.6-2.1-.8-.7-.2-1.6-.3-2.6-.3-2.1 0-3.6.7-4.7 2s-1.6 3.4-1.6 6.3c0 3 .5 5.2 1.5 6.6 1 1.4 2.7 2 5 2 1.1 0 2-.1 2.8-.3s1.5-.5 2.2-.9c.4-.1.6-.2.6-.2.3 0 .7.3 1.1 1s.6 1.2.6 1.6c0 .7-.8 1.3-2.4 1.8-1.6.5-3.3.8-5 .8-3.7.1-6.6-.9-8.5-2.9zM257.9 175.6c-1.3-1.3-1.9-3.1-1.9-5.5v-15.9c0-.8.7-1.1 2.1-1.1h.5c1.4 0 2.1.4 2.1 1.1v15.3c0 1.3.4 2.2 1.1 2.9.7.7 1.7 1 3.1 1 1 0 1.9-.3 2.9-.9.9-.6 1.7-1.3 2.3-2.2v-16.2c0-.8.7-1.1 2.1-1.1h.5c1.4 0 2.1.4 2.1 1.1v15.8c0 2.1.1 3.5.3 4.5.2.9.3 1.4.3 1.6 0 .4-.4.7-1.2.9s-1.5.3-2.1.3c-.5 0-.8-.2-1-.7-.2-.5-.4-1-.5-1.5-.1-.5-.2-.9-.2-1.1-.9 1.1-2 1.9-3.2 2.6-1.3.6-2.5.9-3.9.9-2.3.2-4.1-.5-5.4-1.8zM281.8 147.9v-2.7c0-.9.8-1.3 2.5-1.3 1.6 0 2.4.4 2.4 1.3v2.7c0 .9-.8 1.3-2.5 1.3-1.6 0-2.4-.4-2.4-1.3zm.1 28.3v-21.9c0-.8.7-1.1 2.1-1.1h.5c1.4 0 2.1.4 2.1 1.1v21.9c0 .8-.7 1.1-2.1 1.1h-.5c-1.4 0-2.1-.3-2.1-1.1zM296.4 176c-1.2-1-1.8-2.7-1.8-5.1v-13.8h-1.8c-.4 0-.6-.1-.8-.4-.2-.3-.3-.7-.3-1.3v-.6c0-.6.1-1 .3-1.3.2-.3.4-.4.8-.4h1.8l.6-4.7c.1-.8.7-1.1 1.7-1.1h.7c1.1 0 1.7.4 1.7 1.1v4.7h3.4c.4 0 .6.1.8.4.2.3.3.7.3 1.3v.6c0 .6-.1 1-.3 1.3-.2.3-.4.4-.8.4h-3.4v13.6c0 1.1.2 1.9.6 2.3.4.4.9.7 1.7.7.4 0 .8 0 1.1-.1.3-.1.5-.1.7-.1.3 0 .6.3.8 1 .2.7.3 1.2.3 1.5 0 1.1-1.2 1.7-3.7 1.7-1.8-.1-3.2-.6-4.4-1.7zM181.5 228.6l-6-21.7c-.1-.4-.2-.6-.2-.8 0-.6.8-.9 2.3-.9 1.4 0 2.2.3 2.3.8l3.6 14c.1.4.3 1.1.4 2.1l.5 2.5h.2c0-.2.1-.6.2-1.2.4-2 .6-3.1.7-3.5l3.6-13.9c.1-.6.8-.8 2-.8h.6c1.2 0 1.9.3 2 .8l3.6 13.9c.3 1.4.6 2.6.7 3.7.1.2.1.6.2 1h.1c.1-.4.2-1.1.4-2.2.1-.3.1-.7.2-1.3s.2-1 .3-1.3l3.6-14c.1-.5.8-.8 2.1-.8 1.4 0 2.2.3 2.2.9 0 .2 0 .4-.1.6l-5.9 21.9c-.1.3-.3.5-.7.6-.4.1-.9.2-1.4.2h-1.6c-1.2 0-1.9-.3-2-.8l-3.4-13.6c-.1-.3-.2-1.1-.5-2.4l-.1-1h-.1c-.1.5-.1.9-.2 1.1-.1 1-.2 1.8-.4 2.3l-3.4 13.6c-.1.3-.3.5-.6.6-.4.1-.8.2-1.4.2h-1.7c-1.3.1-2-.1-2.1-.6zM211.9 199.9v-2.7c0-.9.8-1.3 2.5-1.3 1.6 0 2.4.4 2.4 1.3v2.7c0 .9-.8 1.3-2.5 1.3-1.6 0-2.4-.4-2.4-1.3zm0 28.3v-21.9c0-.8.7-1.1 2.1-1.1h.5c1.4 0 2.1.4 2.1 1.1v21.9c0 .8-.7 1.2-2.1 1.2h-.5c-1.3-.1-2.1-.4-2.1-1.2zM226.4 228c-1.2-1-1.8-2.7-1.8-5.1v-13.8h-1.8c-.4 0-.6-.1-.8-.4-.2-.3-.3-.7-.3-1.3v-.6c0-.6.1-1 .3-1.3.2-.3.4-.4.8-.4h1.8l.6-4.7c.1-.8.7-1.1 1.7-1.1h.7c1.1 0 1.7.4 1.7 1.1v4.7h3.4c.4 0 .6.1.8.4.2.3.3.7.3 1.3v.6c0 .6-.1 1-.3 1.3-.2.3-.4.4-.8.4h-3.4v13.6c0 1.1.2 1.9.6 2.3.4.4.9.7 1.7.7.4 0 .8 0 1.1-.1.3-.1.5-.1.7-.1.3 0 .6.3.8 1 .2.7.3 1.2.3 1.5 0 1.1-1.2 1.7-3.7 1.7-1.7-.1-3.2-.6-4.4-1.7zM239.5 228.2v-32.4c0-.8.7-1.2 2.1-1.2h.5c1.4 0 2.1.4 2.1 1.2V208c.9-.9 1.9-1.7 3.1-2.3 1.2-.6 2.4-.9 3.8-.9 2 0 3.7.6 5.1 1.7 1.4 1.1 2.1 3.1 2.1 5.8v15.9c0 .8-.7 1.2-2.1 1.2h-.5c-1.4 0-2.1-.4-2.1-1.2v-15.3c0-1.3-.4-2.2-1.1-2.9s-1.7-1-3.1-1c-.9 0-1.7.2-2.5.6-.8.4-1.4.9-1.9 1.4-.5.5-.8.9-.9 1v16.2c0 .8-.7 1.2-2.1 1.2h-.5c-1.4-.1-2-.4-2-1.2zM276.6 228.2v-19.1H275c-.4 0-.6-.1-.8-.4-.2-.3-.3-.7-.3-1.3v-.6c0-.6.1-1 .3-1.3.2-.3.4-.4.8-.4h1.6V201c0-2.5.6-4.2 1.8-5.2 1.2-1 2.6-1.5 4.4-1.5 2.5 0 3.7.5 3.7 1.6 0 .3-.1.8-.3 1.5-.2.7-.5 1-.8 1-.2 0-.4 0-.7-.1-.3-.1-.7-.1-1.1-.1-.7 0-1.3.2-1.7.6-.4.4-.6 1.2-.6 2.4v3.9h3.5c.4 0 .6.1.8.4.2.3.3.7.3 1.3v.6c0 .6-.1 1-.3 1.3-.2.3-.4.4-.8.4h-3.5v19.1c0 .8-.7 1.2-2.1 1.2h-.5c-1.4-.1-2.1-.4-2.1-1.2zM290.9 227.8c-1.3-1.2-2-2.9-2-5.1 0-3.1 1.3-5.3 3.9-6.5 2.6-1.2 6.2-1.9 10.8-1.9v-2c0-1.1-.4-1.9-1.1-2.6-.7-.6-1.9-1-3.5-1-1.3 0-2.4.1-3.3.4-.9.3-1.7.6-2.4.9-.7.3-1 .5-1.1.5-.3 0-.7-.4-1.2-1.1-.4-.7-.7-1.3-.7-1.6 0-.4.4-.9 1.2-1.4.8-.5 1.9-.9 3.2-1.2 1.3-.3 2.8-.5 4.3-.5 3 0 5.3.7 6.9 2 1.6 1.3 2.4 3.1 2.4 5.4v9.8c0 2.1.1 3.5.3 4.5.2.9.3 1.4.3 1.6 0 .4-.4.7-1.1.9-.8.2-1.4.3-2.1.3-.5 0-.8-.2-1-.7-.2-.5-.4-1-.5-1.5-.1-.5-.2-.9-.2-1.1-.8 1-1.9 1.8-3.1 2.5-1.2.7-2.7 1-4.3 1-2.5.2-4.4-.4-5.7-1.6zm9.8-3c1-.6 1.9-1.3 2.8-2.3v-4.6c-3 0-5.4.3-7.1.9-1.8.6-2.7 1.8-2.7 3.6 0 1 .3 1.8.9 2.4.6.6 1.4.9 2.6.9 1.3-.1 2.5-.4 3.5-.9zM315.2 199.9v-2.7c0-.9.8-1.3 2.5-1.3 1.6 0 2.4.4 2.4 1.3v2.7c0 .9-.8 1.3-2.5 1.3-1.6 0-2.4-.4-2.4-1.3zm.1 28.3v-21.9c0-.8.7-1.1 2.1-1.1h.5c1.4 0 2.1.4 2.1 1.1v21.9c0 .8-.7 1.2-2.1 1.2h-.5c-1.4-.1-2.1-.4-2.1-1.2zM328.7 228c-1.2-1-1.8-2.7-1.8-5.1v-27.1c0-.8.7-1.2 2.1-1.2h.5c1.4 0 2.1.4 2.1 1.2v26.9c0 1.1.2 1.9.6 2.3.4.4 1 .7 1.7.7.4 0 .8 0 1.1-.1.3-.1.5-.1.7-.1.3 0 .6.3.8 1 .2.7.3 1.2.3 1.5 0 1.1-1.2 1.7-3.7 1.7-1.7-.1-3.2-.6-4.4-1.7zM341.9 227.6c-1.3-1.3-1.9-3.1-1.9-5.5v-15.9c0-.8.7-1.1 2.1-1.1h.5c1.4 0 2.1.4 2.1 1.1v15.3c0 1.3.4 2.2 1.1 2.9.7.7 1.7 1 3.1 1 1 0 1.9-.3 2.9-.9s1.7-1.3 2.3-2.2v-16.2c0-.8.7-1.1 2.1-1.1h.5c1.4 0 2.1.4 2.1 1.1v15.8c0 2.1.1 3.5.3 4.5.2.9.3 1.4.3 1.6 0 .4-.4.7-1.2.9-.8.2-1.5.3-2.1.3-.5 0-.8-.2-1-.7-.2-.5-.4-1-.5-1.5-.1-.5-.2-.9-.2-1.1-.9 1.1-2 1.9-3.2 2.6-1.3.6-2.5.9-3.9.9-2.3.2-4.1-.5-5.4-1.8zM365.9 228.2v-15.7c0-2-.1-3.5-.3-4.4-.2-.9-.3-1.4-.3-1.6 0-.4.4-.7 1.2-.9.8-.2 1.5-.3 2.1-.3.5 0 .8.2 1 .6.2.4.4.9.5 1.4.1.5.2.8.2 1 1.6-2.3 3.3-3.5 5.2-3.5.9 0 1.6.2 2 .6.4.4.7.9.7 1.4 0 .6-.1 1.2-.3 1.8-.2.7-.5 1-.7 1-.2 0-.5-.1-.9-.2-.4-.2-.9-.2-1.5-.2-1 0-1.8.3-2.5.9-.7.6-1.2 1.2-1.6 1.7V228c0 .8-.7 1.2-2.1 1.2h-.6c-1.4.1-2.1-.2-2.1-1zM381 217.4c0-4.1.9-7.3 2.8-9.4 1.9-2.1 4.6-3.2 8-3.2 3.2 0 5.6 1 7.2 3.1 1.6 2.1 2.4 5 2.4 8.9 0 .3-.2.7-.7 1.3-.4.6-.8.8-1.1.8H386c.2 2.3.8 4 1.9 5.1 1.1 1.1 2.6 1.6 4.7 1.6 1.2 0 2.2-.1 3.1-.4.9-.3 1.6-.6 2.3-.9.6-.3 1-.5 1.1-.5.3 0 .7.4 1.2 1.1.4.7.7 1.2.7 1.6 0 .5-.4 1-1.2 1.4-.8.5-1.9.9-3.2 1.2-1.3.3-2.6.5-3.9.5-7.8 0-11.7-4.1-11.7-12.2zm15.7-2.1c0-2.1-.4-3.7-1.2-4.9-.8-1.1-2-1.7-3.7-1.7-3.5 0-5.4 2.2-5.8 6.5h10.7zM408.5 229.2c-1.1-.3-2-.7-2.7-1.2-.7-.5-1-.9-1-1.4 0-.4.2-.9.7-1.6.4-.7.8-1 1.2-1 .1 0 .4.2.9.5.6.3 1.2.6 1.9.9.7.2 1.5.4 2.4.4 2.7 0 4-1.1 4-3.2 0-1-.3-1.7-1-2.2-.7-.5-1.8-1.1-3.4-1.6-2.1-.6-3.7-1.5-4.6-2.6-1-1.1-1.4-2.5-1.4-4.3 0-2.1.7-3.7 2.2-5 1.4-1.3 3.3-1.9 5.7-1.9 1.6 0 3.1.2 4.4.6 1.3.4 2 .9 2 1.5 0 .5-.2 1-.6 1.7-.4.7-.7 1.1-1.1 1.1-.1 0-.5-.2-1.2-.6s-1.7-.5-2.9-.5c-1.1 0-1.9.2-2.6.7-.7.4-1 1.1-1 1.9 0 1 .3 1.7 1 2.3.7.6 1.7 1.1 3.1 1.6 1.6.6 2.9 1.1 3.8 1.7.9.6 1.6 1.3 2 2.2s.6 1.9.6 3.3-.4 2.7-1.1 3.8-1.7 2-3 2.6c-1.3.6-2.7.9-4.3.9-1.6-.1-2.8-.3-4-.6z"/></g></svg>