<svg id="Layer_1" xmlns="http://www.w3.org/2000/svg" viewBox="0 0 436.3 436.3"><style>.st0{fill:#fff}.st1{fill:#727f9b}.st2{fill:#d0daed}.st3{fill:#515a6d}.st4{fill:#e58231}.st5{fill:#a1c14d}.st6{fill:#d0dea4}.st7{enable-background:new}</style><g id="Layer_1_1_"><circle id="circle_18_" class="st0" cx="218.2" cy="218.2" r="216.8"/><path id="circle-stroke_21_" class="st1" d="M433.5 218.2c-.1 44.5-13.9 88.2-39.6 124.5-25.2 35.6-61.3 63.1-102.3 78-42.4 15.4-89.5 17-132.8 4.5-41.8-12-79.3-36.8-106.9-70.3-57.4-69.6-64.7-170.9-18-248.1C56.2 69.8 89.7 40 129 22.1c41.3-18.8 88.4-24 132.8-14.8 86.5 17.8 155 89.4 169 176.7 1.8 11.2 2.7 22.7 2.7 34.2 0 1.8 2.9 1.8 2.9 0-.1-45.2-14.1-89.7-40.4-126.5-25.4-35.6-61.3-63.1-102.3-78.3-43-15.9-90.9-17.7-135-5.2-42.5 12-80.8 37.2-108.9 71.2C21.5 113.7 4.2 156.3.7 200.7-2.9 246 7.8 292 31.4 330.9c22.7 37.6 56.8 68 96.9 86.1 41.4 18.7 88.4 24 133 15.1 43.5-8.7 83.8-30.9 114.4-62.9 30.8-32.1 51.3-73.4 58.1-117.4 1.7-11.1 2.6-22.4 2.6-33.6 0-1.9-2.9-1.9-2.9 0z"/><path id="connector-fill_3_" class="st0" d="M250 315.4H116.4V198.9v-17.2c0-7.7-12-7.7-12 0v137.6c0 .6.1 1.2.2 1.7-.2 3.1 1.7 6.4 5.8 6.4H250c7.7 0 7.7-12 0-12z"/><path id="connector-stroke_2_" class="st1" d="M250.5 314.4H117l1.5 1.5V204.4v-12.5c0-3.6.7-7.9-.2-11.4-.9-3.3-3.8-5.4-7.3-5.4-3.4 0-6.4 2.1-7.3 5.4-.8 3-.2 6.6-.2 9.7V316c0 4.7-.4 11.1 5.1 13 3.1 1.1 7 .4 10.3.4H238.1c4.4 0 9.3.6 13.6-.1 8.8-1.5 7.4-14.3-1.2-14.9-1.9-.1-1.9 2.9 0 3 3 .2 4.9 2.7 4.2 5.7-.8 3.1-3.4 3.2-6.1 3.3-7.7.2-15.4 0-23.1 0h-90.8c-7 0-14.8 1-21.7 0-2.6-.4-3.8 1.4-6-3-.7-1.3-.4-4.1-.4-5.5-.1-4.1 0-8.3 0-12.4v-88.1V196c0-4.5-2.5-18 4.5-18 6.9 0 4.5 11.4 4.5 15.7V315.9c0 .8.7 1.5 1.5 1.5h133.5c1.8 0 1.8-3-.1-3z"/><path id="connection-line_5_" class="st1" d="M111.2 146.4c1 14.2 1.5 28.4 1.9 42.6.1 7.1.3 14.2.4 21.3s.2 14.2.1 21.3c-.1 14.2-.9 28.4-1.4 42.6-.2 7.1-.4 14.2-.4 21.3 0 3.5 0 7.1.1 10.6l.1 5.3.1 2.7c0 .4 0 .9.1 1.3 0 .4.1.7.2 1l.1.2v.3c0 1.2.4 2.5 1.3 3.2.8.8 1.9 1.1 3.2 1l9.3-.4c6.2-.3 12.4-.5 18.6-.6l18.6-.3c6.2-.1 12.4-.2 18.6-.2 12.4 0 24.8.3 37.2.8s24.8 1.1 37.2 2.1v.6c-12.4 1.1-24.8 1.7-37.2 2.1s-24.8.8-37.2.8c-6.2 0-12.4-.1-18.6-.2l-18.6-.3c-6.2-.1-12.4-.3-18.6-.6l-9.3-.4c-1.9-.1-3.9-.8-5.2-2.4-1.3-1.5-1.9-3.5-1.7-5.3v.4c-.1-.5-.2-1.1-.2-1.6v-1.4l.1-2.7.1-5.3c0-3.5.1-7.1.1-10.6 0-7.1-.2-14.2-.4-21.3-.5-14.2-1.2-28.4-1.4-42.6-.1-7.1 0-14.2.1-21.3 0-7.1.2-14.2.4-21.3.4-14.2.9-28.4 1.9-42.6h.4v-.1z"/><circle id="circle_19_" class="st2" cx="288.8" cy="322.9" r="43.5"/><path id="circle-stroke_22_" class="st1" d="M330.8 322.9c-.3 17.5-11 33.5-27.6 39.5-16.3 5.9-35 1-46.2-12.2-11.5-13.4-13.3-33.2-4.3-48.5 8.9-15.2 26.8-23.4 44.1-20.1 19.7 3.8 33.7 21.3 34 41.3 0 1.9 3 1.9 3 0-.3-18.8-11.9-35.9-29.8-42.3-17.7-6.4-38.1-.6-50 14-11.8 14.6-13.4 35.6-3.6 51.6 9.7 16 28.8 24.4 47.1 20.9 21.1-4.1 36-22.9 36.3-44.1 0-2.1-3-2.1-3-.1z"/><circle id="circle_20_" class="st2" cx="111.9" cy="143" r="43.5"/><path id="circle-stroke_23_" class="st1" d="M153.9 143c-.3 17.5-11 33.5-27.6 39.5-16.3 5.9-35 1-46.2-12.2-11.5-13.4-13.3-33.2-4.3-48.5 8.9-15.2 26.8-23.4 44.1-20.1 19.7 3.8 33.7 21.3 34 41.3 0 1.9 3 1.9 3 0-.3-18.8-11.9-35.9-29.8-42.3-17.7-6.4-38.1-.6-50 14-11.8 14.6-13.4 35.6-3.6 51.6 9.7 16 28.8 24.4 47.1 20.9 21.1-4.1 36-22.9 36.3-44.1 0-2.1-3-2.1-3-.1z"/><path id="a_9_" class="st3" d="M276.8 312.8l4.8 13.8c0 .1.1.2.1.3 0 .3-.3.4-1 .4h-1.1c-.6 0-.9-.1-1-.4l-.9-2.6h-4.9l-.9 2.6c-.1.2-.4.4-.8.4h-1c-.8 0-1.2-.1-1.2-.4 0 0 0-.2.1-.4l4.8-13.8c.1-.3.5-.4 1.1-.4h.9c.6.1.9.2 1 .5zm-1.6 3.6c0 .1 0 .2-.1.5 0 .3-.1.5-.2.8l-1.6 4.7h3.8l-1.6-4.7c0-.3-.1-.8-.3-1.3z"/><path id="p_18_" class="st3" d="M291.2 317.3c.6.5 1.1 1.1 1.4 2s.5 1.9.5 3c0 1.8-.4 3.1-1.2 4.1s-1.9 1.5-3.2 1.5c-.9 0-1.7-.3-2.3-.8v4.4c-.1.4-.5.6-1.3.9h-.4c-.7-.3-1.1-.5-1.3-.9v-11.2c.2-.9.2-1.6.1-2.1-.1-.4-.1-.7-.1-.8 0-.2.2-.3.7-.5s.9-.2 1.2-.2c.2 0 .4.1.5.3.1.2.2.4.2.6s.1.4.1.5c.3-.5.8-.9 1.3-1.2.5-.3 1.1-.4 1.7-.4.8.1 1.5.3 2.1.8zm-3.8 1.8c-.4.2-.7.6-1 1v5.1c.5.4 1.2.6 1.9.6 1.5 0 2.3-1.2 2.3-3.4 0-1.1-.2-2-.5-2.6s-.8-.9-1.5-.9c-.5-.1-.8 0-1.2.2z"/><path id="p_19_" class="st3" d="M303.6 317.3c.6.5 1.1 1.1 1.4 2s.5 1.9.5 3c0 1.8-.4 3.1-1.2 4.1s-1.9 1.5-3.2 1.5c-.9 0-1.7-.3-2.7-.8v4.4c.2.4-.2.6-.9.9h-.4c-.7-.3-1.1-.5-1.7-.9v-11.2c.6-.9.6-1.6.5-2.1-.1-.4-.1-.7-.1-.8 0-.2.2-.3.7-.5s.9-.2 1.2-.2c.2 0 .4.1.5.3.1.2.2.4.2.6s.1.4.1.5c.3-.5.8-.9 1.3-1.2.5-.3 1.1-.4 1.7-.4.8.1 1.5.3 2.1.8zm-4.2 1.8c-.4.2-.7.6-1 1v5.1c.5.4 1.2.6 1.9.6 1.5 0 2.3-1.2 2.3-3.4 0-1.1-.2-2-.5-2.6s-.8-.9-1.5-.9c-.5-.1-.8 0-1.2.2z"/><path id="highlight_15_" class="st0" d="M268.4 348.5c-1.9-2.8-3.8-5.7-5.6-8.5-1.1-1.6-3.4-.2-2.6 1.5 1.8 4 5.5 6.9 9.8 7.7 1.9.3 2.7-2.5.8-2.9-3.6-.7-6.5-2.9-8-6.3-.9.5-1.7 1-2.6 1.5 1.9 2.8 3.8 5.7 5.6 8.5 1.1 1.6 3.7.1 2.6-1.5z"/><path id="highlight_14_" class="st0" d="M303.5 292.9c7.9 6.7 16.4 14.3 15.8 25.5-.1 2 2.8 1.9 3 0 1.4-13.7-8-25-21.5-26.8-1.9-.2-1.9 2.8 0 3 11.9 1.6 19.7 12 18.5 23.8h3c.6-12.1-8.2-20.5-16.7-27.7-1.4-1.2-3.5.9-2.1 2.2z"/><path id="s_6_" class="st3" d="M83.8 134.1c.6.1 1 .3 1.4.5s.5.4.5.7-.1.6-.3 1c-.2.4-.4.6-.6.6 0 0-.2 0-.4-.1-.3-.1-.6-.3-.9-.3s-.7-.1-1.2-.1c-.8 0-1.3.2-1.7.5-.4.3-.5.7-.5 1.2 0 .4.1.7.3 1 .2.3.5.5.8.6.3.2.8.4 1.4.6.8.3 1.5.6 2 .9.5.3 1 .7 1.3 1.3s.6 1.3.6 2.2c0 1.5-.4 2.6-1.3 3.3s-2 1.1-3.4 1.1c-.9 0-1.7-.1-2.4-.3s-1.3-.4-1.7-.7-.6-.5-.6-.7.1-.4.2-.7.3-.5.5-.7.3-.3.5-.3c.1 0 .3.1.5.2.4.2.9.4 1.3.6.4.1.9.2 1.5.2s1.2-.2 1.6-.5.7-.8.7-1.4c0-.4-.1-.7-.3-1-.2-.3-.5-.5-.8-.7s-.8-.4-1.4-.6c-.4-.1-.6-.2-.7-.3-.6-.3-1.2-.6-1.6-.9s-.8-.7-1.1-1.3c-.3-.5-.4-1.2-.4-2 0-.9.2-1.6.7-2.3.4-.6 1-1.1 1.8-1.4.7-.3 1.6-.5 2.4-.5.1.1.7.2 1.3.3z"/><path id="e_11_" class="st3" d="M96.5 139.3c.7 1 1.1 2.3 1.1 4 0 .2-.1.4-.4.7s-.4.4-.6.4h-5.8c.1.9.3 1.6.8 2 .4.4 1.1.6 1.9.6.5 0 .9-.1 1.2-.2s.7-.3 1.1-.4c.2-.1.4-.1.4-.1.2 0 .4.2.6.5.2.4.3.6.3.8 0 .3-.2.5-.6.7s-.9.4-1.5.5-1.2.2-1.7.2c-1.8 0-3.2-.5-4-1.4s-1.3-2.3-1.3-4.1c0-1.9.4-3.4 1.3-4.3.9-.9 2.1-1.4 3.7-1.4 1.6.1 2.8.6 3.5 1.5zm-5.7 3.1H95c0-.8-.2-1.4-.5-1.9-.3-.4-.8-.7-1.4-.7-1.3 0-2.1.9-2.3 2.6z"/><path id="r_6_" class="st3" d="M106 137.9c.2.2.3.4.3.7s-.1.6-.2 1-.2.6-.4.6c-.1 0-.2 0-.4-.1s-.4-.1-.6-.1c-.4 0-.8.1-1.1.4-.3.3-.5.5-.2.8v7.1c-.5.4-.9.6-1.6.2h-.4c-.7.4-1.1.2-1-.2v-6.9c-.1-.9-.2-1.6-.3-2-.1-.4-.1-.7-.1-.8 0-.2.2-.3.7-.5.5-.1.9-.2 1.2-.2.2 0 .4.1.5.3s.2.4.2.6c0 .2.1.4.1.5.3-.5.7-.9 1-1.2.4-.3.8-.4 1.3-.4.5-.1.8 0 1 .2z"/><path id="v_6_" class="st3" d="M116.7 137.8c0 .1 0 .2-.1.4l-3.3 9.8c-.1.3-.4.4-1 .4h-.7c-.6 0-1-.1-1.1-.4l-3.3-9.9c-.1-.1-.1-.3-.1-.3 0-.3.4-.4 1.1-.4h.4c.6 0 1 .1 1.1.4l1.6 5 .5 1.8.2.8h.1c.2-1.1.4-2 .6-2.6l1.6-5c.1-.3.5-.4 1.1-.4h.3c.6 0 1 .1 1 .4z"/><path id="i_6_" class="st3" d="M121.4 133.5v1.5c0 .2-.1.3-.3.4-.2.1-.5.1-.9-.1h-.5c-.4.2-.7.2-.9.1-.2-.1-.3-.2-.6-.4v-1.5c.3-.4.7-.6 1.4-1.1h.5c.9.5 1.3.7 1.3 1.1zm0 4.8v9.9c0 .4-.4.6-1.1.2h-.4c-.7.4-1.1.2-1.4-.2v-9.9c.3-.4.7-.6 1.4-.9h.4c.7.3 1.1.5 1.1.9z"/><path id="c_5_" class="st3" d="M131.7 138c.7.2 1.1.5 1.1.9 0 .2-.1.5-.4.9-.2.4-.4.6-.6.6 0 0-.1 0-.3-.1-.6-.3-1.3-.5-2-.5-.9 0-1.5.3-2 .9-.4.6-.7 1.5-.7 2.7s.2 2.1.6 2.7c.4.6 1.1.9 2 .9.7 0 1.5-.2 2.2-.5.2-.1.3-.1.3-.1.2 0 .4.2.6.5.2.4.3.7.3.9 0 .3-.2.5-.6.7s-.9.4-1.5.5-1.1.1-1.5.1c-1.8 0-3.1-.5-3.9-1.4-.9-.9-1.3-2.3-1.3-4.2s.5-3.4 1.4-4.3c.9-.9 2.2-1.4 3.9-1.4.9-.2 1.7-.1 2.4.2z"/><path id="e_12_" class="st3" d="M143 139.3c.7 1 1.1 2.3 1.1 4 0 .2-.1.4-.4.7s-.4.4-.6.4h-5.8c.1.9.3 1.6.8 2 .4.4 1.1.6 1.9.6.5 0 .9-.1 1.2-.2s.7-.3 1.1-.4c.2-.1.4-.1.4-.1.2 0 .4.2.6.5.2.4.3.6.3.8 0 .3-.2.5-.6.7s-.9.4-1.5.5-1.2.2-1.7.2c-1.8 0-3.2-.5-4-1.4s-1.3-2.3-1.3-4.1c0-1.9.4-3.4 1.3-4.3.9-.9 2.1-1.4 3.7-1.4 1.7.1 2.8.6 3.5 1.5zm-5.6 3.1h4.1c0-.8-.2-1.4-.5-1.9-.3-.4-.8-.7-1.4-.7-1.3 0-2 .9-2.2 2.6z"/><path id="highlight_16_" class="st0" d="M120 114.6c5.7.5 10.7 3.6 13.8 8.4l2.4-1.8c-4.1-4.3-8.8-8.2-15.1-7.8-1.3.1-2.2 2.1-.8 2.8 3.9 1.8 7 4.5 9 8.3.9 1.7 3.5.2 2.6-1.5-2.3-4.2-5.7-7.5-10.1-9.4-.3.9-.5 1.9-.8 2.8 5.5-.3 9.4 3.2 13 6.9 1.2 1.2 3.3-.4 2.4-1.8-3.7-5.8-9.6-9.3-16.4-9.9-1.9-.2-1.9 2.8 0 3z"/><path id="highlight_17_" class="st0" d="M83.7 161.7c4.4 9.9 14.9 13.2 24.8 14.9 1.6.3 2.6-1.8 1.2-2.7-5-3.3-10-6.6-15.1-9.9-1.3-.9-2.7.8-2.1 2.1 1.3 2.4 2.8 4.3 4.8 6.1.5-.8 1-1.7 1.5-2.5-6.4-1.4-9.6-7.1-12.4-12.5-.9-1.7-3.5-.2-2.6 1.5 3.2 6.2 6.9 12.3 14.2 13.9 1.4.3 2.6-1.5 1.5-2.5-1.8-1.6-3.2-3.3-4.4-5.5l-2.1 2.1c5 3.3 10 6.6 15.1 9.9l1.2-2.7c-9.2-1.6-18.9-4.2-23-13.5-.8-2-3.4-.5-2.6 1.3z"/><circle id="failure-bg_2_" class="st0" cx="127.4" cy="175.4" r="19"/><path id="failure_2_" class="st4" d="M127.4 158.4c-9.4 0-17 7.6-17 17s7.6 17 17 17 17-7.6 17-17-7.6-17-17-17zm8.1 22.9l-2.3 2.3-5.7-5.9-5.9 5.9-2.3-2.3 5.9-5.9-5.7-5.9 2.3-2.3 5.9 5.9 5.9-5.9 2.3 2.3-6 5.9 5.6 5.9z"/><g id="cb-stroke_7_"><path class="st1" d="M165.4 303.4h-30c-1.7 0-3 1.3-3 3v11h36v-11c0-1.6-1.3-3-3-3zM132.4 336.4c0 1.7 1.3 3 3 3h30c1.7 0 3-1.3 3-3v-10h-36v10z"/></g><path id="cb-fill_3_" class="st5" d="M166.4 322.4v-16c0-.6-.4-1-1-1h-30c-.6 0-1 .4-1 1v30c0 .6.4 1 1 1h30c.6 0 1-.4 1-1v-14"/><path id="cb-highlight_6_" class="st6" d="M158.4 318.2v5.8c0 1.4.6 5.1 0 6.3-.4.9-.7.6-1.9.6-1 0-2.1 0-3.1-.1-2.3-.1-4.7-.4-7-.7v2.9c3.2-.8 6.4-.4 9.6-.5 1.4-.1 2.7 0 3.6-1.1 1.4-1.6 1-4.6 1.1-6.5.2-3.2.2-6.3.1-9.5-.1-1.9-3-1.9-3 0 .1 2 .1 4.1.1 6.1 0 2.1.4 5.5-1.1 7.1s-3.8.9-5.9.9c-1.8 0-3.6.2-5.4.7-1.3.3-1.5 2.6 0 2.9 3 .4 6 .8 9 .9 1.7.1 4.3.6 5.8-.6 1.3-1.1 1-3.3 1-4.8v-10.2c.1-2.2-2.9-2.2-2.9-.2z"/><path id="cb-highlight_7_" class="st6" d="M140.4 314.3c.1-.8-.4-2.3.5-2.8 1.1-.5 2.9-.4 4.1-.3 1.9.1 1.9-2.9 0-3s-4.6-.2-6.2 1c-1.7 1.3-1.2 3.2-1.4 5-.1 2 2.9 2 3 .1z"/><circle id="failure-badge_2_" class="st4" cx="163.9" cy="305.9" r="9"/><path id="failure-badge-bg" class="st0" d="M172.9 306.4h-.5c0 2.3-1 4.5-2.5 6s-3.7 2.5-6 2.5-4.5-1-6-2.5-2.5-3.7-2.5-6 1-4.5 2.5-6 3.7-2.5 6-2.5 4.5 1 6 2.5 2.5 3.7 2.5 6h1c0-5.3-4.4-9.6-9.8-9.5-5 .1-9.1 4.3-9.2 9.2-.1 5.4 4.2 9.8 9.5 9.8 5.2 0 9.5-4.3 9.5-9.5h-.5z"/><g class="st7"><path class="st3" d="M200.8 161.5c-1.6-.4-2.8-1-3.6-1.6-.6-.5-1-.9-1-1.3 0-.5.2-1.1.7-1.8.5-.8.9-1.1 1.2-1.1.2 0 .6.2 1.1.5 1 .5 2 1 3 1.3 1 .3 2.2.5 3.5.5 1.6 0 2.9-.4 4-1.3s1.6-2 1.6-3.5c0-1-.3-1.8-.8-2.5s-1.2-1.2-2-1.6c-.8-.4-1.9-.9-3.2-1.5l-1-.4c-1.6-.6-2.9-1.3-3.9-1.9-1-.6-1.9-1.5-2.6-2.7-.7-1.2-1-2.6-1-4.5 0-1.8.5-3.3 1.4-4.6.9-1.3 2.1-2.3 3.7-3 1.6-.7 3.3-1.1 5.3-1.1 1.2 0 2.4.2 3.7.5 1.3.3 2.3.7 3 1.2.6.4 1 .8 1 1.3 0 .4-.2 1-.7 1.8-.4.8-.8 1.1-1.1 1.1-.2 0-.6-.2-1.3-.6-1.4-.7-2.9-1-4.4-1-1.7 0-3.1.4-4 1.2-1 .8-1.4 1.9-1.4 3.2 0 1 .3 1.8.8 2.4s1.1 1.1 1.8 1.4c.7.3 1.8.8 3.3 1.4 1.8.7 3.3 1.4 4.4 2 1.1.7 2.1 1.6 2.9 2.9.8 1.2 1.2 2.8 1.2 4.8 0 3-1 5.3-2.9 6.9-1.9 1.6-4.4 2.4-7.4 2.4-2-.1-3.7-.3-5.3-.8zM221.3 132.6v-2.7c0-.9.8-1.3 2.5-1.3 1.6 0 2.4.4 2.4 1.3v2.7c0 .9-.8 1.3-2.5 1.3-1.6 0-2.4-.4-2.4-1.3zm.1 28.2v-21.9c0-.8.7-1.2 2.1-1.2h.5c1.4 0 2.1.4 2.1 1.2v21.9c0 .8-.7 1.1-2.1 1.1h-.5c-1.4.1-2.1-.3-2.1-1.1zM233.5 160.8v-15.7c0-2-.1-3.5-.3-4.4-.2-.9-.3-1.4-.3-1.6 0-.4.4-.7 1.2-.9.8-.2 1.5-.3 2.1-.3.5 0 .8.2 1 .6.2.4.4.9.5 1.4.1.5.2.8.2 1 .9-1.1 2-1.9 3.3-2.6s2.5-.9 3.8-.9c2.3 0 4.1.7 5.4 2 1.3 1.3 1.9 3.1 1.9 5.5v15.9c0 .8-.7 1.1-2.1 1.1h-.5c-1.4 0-2.1-.4-2.1-1.1v-15.3c0-1.3-.4-2.2-1.1-2.9-.7-.7-1.7-1-3.1-1-1 0-1.9.3-2.9.9-.9.6-1.7 1.3-2.3 2.2v16.2c0 .8-.7 1.1-2.1 1.1h-.5c-1.4 0-2.1-.4-2.1-1.2zM259.9 170.2c-1.7-1-2.6-2.4-2.6-4.4 0-1.3.4-2.4 1.1-3.4.8-1 1.8-1.7 3.1-2.2v-.1c-1.3-.9-1.9-2.1-1.9-3.7 0-1.9.9-3.4 2.6-4.5-1.3-.6-2.2-1.5-2.9-2.7-.7-1.1-1-2.4-1-3.9 0-2.4.8-4.2 2.5-5.6 1.7-1.4 3.9-2.1 6.9-2.1.9 0 1.9.1 2.9.3h8.1c.4 0 .6.1.8.4.2.3.3.7.3 1.3v.6c0 .6-.1 1-.3 1.2-.2.2-.4.4-.8.4-1.2 0-2.1 0-2.9-.1v.1c.7 1 1.1 2.2 1.1 3.6 0 2.3-.8 4.2-2.4 5.6-1.6 1.4-3.9 2.1-6.7 2.1-2.6 0-3.9.9-3.9 2.6 0 1 .5 1.6 1.4 2 .9.3 2.3.6 4.3.9.7.1 1.3.1 1.6.2 2.2.3 3.9.9 5.1 1.7 1.2.8 1.9 2.2 1.9 4.2 0 2.3-.9 4-2.8 5.3-1.9 1.3-4.6 1.9-8 1.9-3.3-.3-5.8-.7-7.5-1.7zm13.7-5.4c0-.9-.5-1.5-1.4-1.9-.9-.3-2.4-.6-4.3-.9-1.6-.2-2.7-.4-3.4-.5-1.9.8-2.9 1.9-2.9 3.4 0 2 2 2.9 6.1 2.9 3.9.1 5.9-1 5.9-3zm-2.4-16.4c.9-.6 1.3-1.7 1.3-3.1 0-1.4-.4-2.5-1.3-3.1-.9-.6-2.1-1-3.6-1s-2.7.3-3.5 1c-.9.6-1.3 1.7-1.3 3.1 0 1.4.4 2.5 1.3 3.1.9.6 2.1 1 3.5 1 1.6-.1 2.8-.4 3.6-1zM285.9 160.7c-1.2-1-1.8-2.7-1.8-5.1v-27.1c0-.8.7-1.2 2.1-1.2h.5c1.4 0 2.1.4 2.1 1.2v26.9c0 1.1.2 1.9.6 2.3.4.4 1 .7 1.7.7.4 0 .8 0 1.1-.1.3-.1.5-.1.7-.1.3 0 .6.3.8 1 .2.7.3 1.2.3 1.5 0 1.1-1.2 1.7-3.7 1.7-1.7-.2-3.2-.7-4.4-1.7zM296.6 150c0-4.1.9-7.3 2.8-9.4 1.9-2.1 4.6-3.2 8-3.2 3.2 0 5.6 1 7.2 3.1 1.6 2.1 2.4 5 2.4 8.9 0 .3-.2.7-.7 1.3-.4.6-.8.8-1.1.8h-13.8c.2 2.3.8 4 1.9 5.1 1.1 1.1 2.6 1.6 4.7 1.6 1.2 0 2.2-.1 3.1-.4s1.6-.6 2.3-.9c.6-.3 1-.5 1.1-.5.3 0 .7.4 1.2 1.1.4.7.7 1.2.7 1.6 0 .5-.4 1-1.2 1.4-.8.5-1.9.9-3.2 1.2-1.3.3-2.6.5-3.9.5-7.7 0-11.5-4-11.5-12.2zm15.6-2c0-2.1-.4-3.7-1.2-4.9-.8-1.1-2-1.7-3.7-1.7-3.5 0-5.4 2.2-5.8 6.5h10.7z"/></g><g class="st7"><path class="st3" d="M199.3 212.8v-19.1h-1.6c-.4 0-.6-.1-.8-.4-.2-.3-.3-.7-.3-1.3v-.6c0-.6.1-1 .3-1.3.2-.3.4-.4.8-.4h1.6v-4.1c0-2.5.6-4.2 1.8-5.2 1.2-1 2.6-1.5 4.4-1.5 2.5 0 3.7.5 3.7 1.6 0 .3-.1.8-.3 1.5-.2.7-.5 1-.8 1-.2 0-.4 0-.7-.1-.3-.1-.7-.1-1.1-.1-.7 0-1.3.2-1.7.6-.4.4-.6 1.2-.6 2.4v3.9h3.5c.4 0 .6.1.8.4.2.3.3.7.3 1.3v.6c0 .6-.1 1-.3 1.3-.2.3-.4.4-.8.4H204v19.1c0 .8-.7 1.1-2.1 1.1h-.5c-1.5.1-2.1-.3-2.1-1.1zM213.8 212.4c-1.3-1.2-2-2.9-2-5.1 0-3.1 1.3-5.3 3.9-6.5 2.6-1.2 6.2-1.9 10.8-1.9v-2c0-1.1-.4-1.9-1.1-2.6-.7-.6-1.9-1-3.5-1-1.3 0-2.4.1-3.3.4-.9.3-1.7.6-2.4.9-.7.3-1 .5-1.1.5-.3 0-.7-.4-1.2-1.1-.4-.7-.7-1.3-.7-1.6 0-.4.4-.9 1.2-1.4.8-.5 1.9-.9 3.2-1.2 1.3-.3 2.8-.5 4.3-.5 3 0 5.3.7 6.9 2 1.6 1.3 2.4 3.1 2.4 5.4v9.8c0 2.1.1 3.5.3 4.5s.3 1.4.3 1.6c0 .4-.4.7-1.1.9-.8.2-1.4.3-2.1.3-.5 0-.8-.2-1-.7-.2-.5-.4-1-.5-1.5-.1-.5-.2-.9-.2-1.1-.8 1-1.9 1.8-3.1 2.5-1.2.7-2.7 1-4.3 1-2.5.2-4.4-.4-5.7-1.6zm9.8-3c1-.6 1.9-1.3 2.8-2.3v-4.6c-3 0-5.4.3-7.1.9-1.8.6-2.7 1.8-2.7 3.6 0 1 .3 1.8.9 2.4.6.6 1.4.9 2.6.9 1.3 0 2.5-.3 3.5-.9zM238.4 184.6v-2.7c0-.9.8-1.3 2.5-1.3 1.6 0 2.4.4 2.4 1.3v2.7c0 .9-.8 1.3-2.5 1.3-1.6 0-2.4-.4-2.4-1.3zm0 28.2v-21.9c0-.8.7-1.2 2.1-1.2h.5c1.4 0 2.1.4 2.1 1.2v21.9c0 .8-.7 1.1-2.1 1.1h-.5c-1.3.1-2.1-.3-2.1-1.1zM252.2 212.7c-1.2-1-1.8-2.7-1.8-5.1v-27.1c0-.8.7-1.2 2.1-1.2h.5c1.4 0 2.1.4 2.1 1.2v26.9c0 1.1.2 1.9.6 2.3.4.4 1 .7 1.7.7.4 0 .8 0 1.1-.1.3-.1.5-.1.7-.1.3 0 .6.3.8 1 .2.7.3 1.2.3 1.5 0 1.1-1.2 1.7-3.7 1.7-1.8-.2-3.2-.7-4.4-1.7zM265.7 212.3c-1.3-1.3-1.9-3.1-1.9-5.5v-15.9c0-.8.7-1.2 2.1-1.2h.5c1.4 0 2.1.4 2.1 1.2v15.3c0 1.3.4 2.2 1.1 2.9.7.7 1.7 1 3.1 1 1 0 1.9-.3 2.9-.9.9-.6 1.7-1.3 2.3-2.2v-16.2c0-.8.7-1.2 2.1-1.2h.5c1.4 0 2.1.4 2.1 1.2v15.8c0 2.1.1 3.5.3 4.5.2.9.3 1.4.3 1.6 0 .4-.4.7-1.2.9-.8.2-1.5.3-2.1.3-.5 0-.8-.2-1-.7-.2-.5-.4-1-.5-1.5-.1-.5-.2-.9-.2-1.1-.9 1.1-2 1.9-3.2 2.6-1.3.6-2.5.9-3.9.9-2.4.1-4.2-.5-5.4-1.8zM289.9 212.8v-15.7c0-2-.1-3.5-.3-4.4-.2-.9-.3-1.4-.3-1.6 0-.4.4-.7 1.2-.9.8-.2 1.5-.3 2.1-.3.5 0 .8.2 1 .6.2.4.4.9.5 1.4.1.5.2.8.2 1 1.6-2.3 3.3-3.5 5.2-3.5.9 0 1.6.2 2 .6.4.4.7.9.7 1.4 0 .6-.1 1.2-.3 1.8-.2.7-.5 1-.7 1-.2 0-.5-.1-.9-.2-.4-.2-.9-.2-1.5-.2-1 0-1.8.3-2.5.9-.7.6-1.2 1.2-1.6 1.7v16.2c0 .8-.7 1.1-2.1 1.1h-.6c-1.4.3-2.1-.1-2.1-.9zM305.3 202c0-4.1.9-7.3 2.8-9.4 1.9-2.1 4.6-3.2 8-3.2 3.2 0 5.6 1 7.2 3.1 1.6 2.1 2.4 5 2.4 8.9 0 .3-.2.7-.7 1.3-.4.6-.8.8-1.1.8h-13.8c.2 2.3.8 4 1.9 5.1 1.1 1.1 2.6 1.6 4.7 1.6 1.2 0 2.2-.1 3.1-.4s1.6-.6 2.3-.9c.6-.3 1-.5 1.1-.5.3 0 .7.4 1.2 1.1.4.7.7 1.2.7 1.6 0 .5-.4 1-1.2 1.4-.8.5-1.9.9-3.2 1.2-1.3.3-2.6.5-3.9.5-7.6 0-11.5-4-11.5-12.2zm15.7-2c0-2.1-.4-3.7-1.2-4.9-.8-1.1-2-1.7-3.7-1.7-3.5 0-5.4 2.2-5.8 6.5H321z"/></g></g></svg>