<?xml version="1.0" encoding="utf-8"?>
<!-- Generator: Adobe Illustrator 22.0.1, SVG Export Plug-In . SVG Version: 6.00 Build 0)  -->
<!DOCTYPE svg PUBLIC "-//W3C//DTD SVG 1.1//EN" "http://www.w3.org/Graphics/SVG/1.1/DTD/svg11.dtd" [
	<!ENTITY st0 "fill:#8C9696;">
	<!ENTITY st1 "fill:#E3BC13;">
	<!ENTITY st2 "fill:#FFFFFF;">
	<!ENTITY st3 "fill:#727F9B;">
	<!ENTITY st4 "fill:#515A6D;">
	<!ENTITY st5 "fill:#D0DAED;">
	<!ENTITY st6 "fill:#A1C14D;">
	<!ENTITY st7 "fill:#D0DEA4;">
	<!ENTITY st8 "fill:#E58231;">
	<!ENTITY st9 "fill:#F5CCB1;">
	<!ENTITY st10 "fill:#F49F60;">
	<!ENTITY st11 "fill:#E58231;stroke:#FFFFFF;stroke-miterlimit:10;">
	<!ENTITY st12 "fill:#FF00FF;">
	<!ENTITY st13 "fill:#E62325;">
	<!ENTITY st14 "opacity:0.4;">
	<!ENTITY st15 "fill:#DB7C00;">
	<!ENTITY st16 "fill:#D0DAED;stroke:#727F9B;stroke-miterlimit:10;">
	<!ENTITY st17 "fill:#C8D2D2;">
	<!ENTITY st18 "fill:#3F4659;">
	<!ENTITY st19 "fill:#343334;">
	<!ENTITY st20 "opacity:0.5;">
	<!ENTITY st21 "fill:#E3700D;">
	<!ENTITY st22 "fill:#F3F4F7;">
	<!ENTITY st23 "fill:#FF5C49;">
	<!ENTITY st24 "opacity:0.5;fill:#FFFFFF;">
]>
<svg version="1.1" xmlns="http://www.w3.org/2000/svg" xmlns:xlink="http://www.w3.org/1999/xlink" x="0px" y="0px"
	 viewBox="0 0 265.2 268.3" style="enable-background:new 0 0 265.2 268.3;" xml:space="preserve">
<g id="working_artboard">
	<path style="&st1;" d="M38,85.4c3.6,0.4,4.8,8.3,8.3,10.1c0.1-0.9,0.2-1.8,0.4-2.7c-4.3,0.9-4.9,3-8.5,5.1c-1,0.6-1,2.6,0.4,2.7
		c2.5,0.3,4.1,1.4,6.1,3c0-0.7,0-1.4,0-2.1c-1.9,2.2-5.5,2.2-7.5,4.5c-0.7,0.8-0.5,1.8,0.3,2.4c3,2.2,6,4,9.6,5.1
		c-0.1-0.9-0.2-1.8-0.4-2.7c-2.8,1.6-5.5,3.4-8.4,5c-1,0.6-0.9,2,0,2.6c2.6,1.6,2.8,1.9,3,5c0.1,1.9,0,4,0,5.9c0,4.5,0,9.1,0.1,13.6
		c0.1,8.9,0.2,17.9,0.3,26.8c0.3,18,0.7,36,1.3,54c0,0.8,0.7,1.5,1.5,1.5c20.1-0.6,40.3,0.1,60.4,0c8,0,16-0.2,24-0.2
		c6.2,0,13.2-0.2,18.5-3.7c-0.6-0.1-1.2-0.2-1.8-0.2c1.9,1.9,3.6,4.1,5.5,6c0.5,0.5,1.6,0.6,2.1,0c2.1-2.4,4.4-4.6,6.5-7
		c-0.7,0-1.4,0-2.1,0c2,2.6,4.6,4.8,6.6,7.4c0.6,0.7,2,0.5,2.4-0.3c1.2-2.4,1.3-4.5,3.3-6.4c-0.7,0-1.4,0-2.1,0
		c3.3,2.7,7.3,3.6,10.8,6c1.6,1.1,3.1-1.5,1.5-2.6c-3.2-2.2-7.2-3-10.2-5.5c-0.7-0.5-1.5-0.6-2.1,0c-2.6,2.3-2.3,4-3.8,7
		c0.8-0.1,1.6-0.2,2.4-0.3c-2-2.6-4.6-4.8-6.6-7.4c-0.5-0.6-1.6-0.6-2.1,0c-2.1,2.4-4.4,4.6-6.5,7c0.7,0,1.4,0,2.1,0
		c-1.9-1.9-3.6-4.1-5.5-6c-0.5-0.4-1.3-0.6-1.8-0.2c-6,4-14.3,3.4-21.2,3.3c-7.9-0.1-15.8,0.2-23.8,0.2c-18.8,0-37.7-0.5-56.5,0
		c0.5,0.5,1,1,1.5,1.5c-0.6-19.6-1.1-39.2-1.3-58.8c-0.1-9.6-0.2-19.2-0.3-28.8c0-4.9,0-9.8-0.1-14.7c-0.1-3.7-1.4-3.7-4.5-5.6
		c0,0.9,0,1.7,0,2.6c2.8-1.6,5.5-3.4,8.4-5c1.1-0.6,0.9-2.4-0.4-2.7c-3.4-1-6.1-2.7-8.9-4.8c0.1,0.8,0.2,1.6,0.3,2.4
		c1.9-2.2,5.5-2.2,7.5-4.5c0.5-0.6,0.7-1.6,0-2.1c-2.4-1.9-4.3-3.4-7.4-3.8c0.1,0.9,0.2,1.8,0.4,2.7c3.1-1.8,4.3-4,7.8-4.8
		c1.2-0.3,1.5-2.2,0.4-2.7c-4.6-2.4-3.8-9.8-9.8-10.5C36,82.1,36.1,85.1,38,85.4L38,85.4z"/>
	<path style="&st0;" d="M182.5,213.3c-24.7,0-49.4,0-74,0c-12.2,0-24.3,0-36.5,0c-5.3,0-10.6,0-15.9,0c-2.9,0-2.9-0.5-3.3-3.2
		c-0.5-3.4,0-7.3,0-10.7c0-23.3,0-46.7,0-70c0-11.5,0-23,0-34.6c0-5.7,2.3-14.1-4.3-17c-3.7-1.6-9-1.5-12.4,0.7
		c-1.4,1-2.4,2.2-2.8,3.8c-1.2,5-0.1,11.5-0.1,16.6c0,23.8,0,47.7,0,71.5c0,12,0,24,0,36c0,7.7-2.1,17.4,4.1,23.3
		c2.4,2.2,4.4,2.8,7.6,2.8c6.6,0.1,13.2,0,19.7,0c11.8,0,23.7,0,35.5,0c13.8,0,27.6,0,41.5,0c6.9,0,13.8,0,20.7,0
		c6.5,0,13.7,0.8,20.1,0C191.3,231.7,191.6,214,182.5,213.3c-1-0.1-1,1.4,0,1.5c5.1,0.4,5.6,7.8,4.7,11.6c-1.9,7.5-12,4.9-18,4.9
		c-16.4,0-32.8,0-49.2,0c-16.5,0-32.9,0-49.4,0c-7.2,0-14.5,0-21.7,0c-4.4,0-8.2,0.4-11.4-3.3c-3.3-3.7-2.8-8.1-2.8-12.7
		c0-32.2,0-64.5,0-96.7c0-7.8,0-15.6,0-23.3c0-5.8-2.4-14.6,4.9-16.5c4.3-1.1,10.5-0.3,11.6,4.7c0.8,3.4,0,7.9,0,11.4
		c0,4.5,0,9,0,13.6c0,35.2,0,70.4,0,105.6c0,0.4,0.3,0.8,0.8,0.8c43.5,0,87,0,130.5,0C183.5,214.8,183.5,213.3,182.5,213.3z"/>
	<g>
		<path style="&st19;" d="M103.9,85.7c-1.6-1.7-2.4-4.4-2.4-8.1c0-7.1,3.2-10.7,9.7-10.7c1,0,1.9,0.1,2.8,0.3
			c0.9,0.2,1.6,0.5,2.2,0.8c0.5,0.3,0.7,0.5,0.7,0.8c0,0.3-0.1,0.6-0.4,1.1c-0.2,0.4-0.5,0.7-0.6,0.7c-0.1,0-0.3-0.1-0.8-0.4
			s-1-0.5-1.7-0.7c-0.7-0.2-1.4-0.3-2.2-0.3c-2.4,0-4.2,0.7-5.3,2c-1.1,1.3-1.7,3.5-1.7,6.4c0,2.9,0.6,5,1.7,6.3s2.9,2,5.2,2
			c1,0,1.8-0.1,2.5-0.3c0.7-0.2,1.4-0.5,2.1-0.9c0.3-0.2,0.5-0.3,0.6-0.3c0.2,0,0.4,0.2,0.7,0.7c0.3,0.4,0.4,0.8,0.4,1
			c0,0.3-0.3,0.6-1,1c-0.6,0.3-1.4,0.6-2.3,0.8c-0.9,0.2-1.9,0.3-3,0.3C107.9,88.3,105.5,87.4,103.9,85.7z"/>
		<path style="&st19;" d="M121.9,87.4c-0.8-0.6-1.2-1.7-1.2-3.2V66.2c0-0.4,0.4-0.7,1.2-0.7h0.1c0.8,0,1.2,0.2,1.2,0.7v17.7
			c0,0.8,0.1,1.4,0.4,1.7c0.3,0.3,0.7,0.5,1.2,0.5c0.4,0,0.7,0,0.9-0.1s0.3-0.1,0.4-0.1c0.2,0,0.3,0.2,0.5,0.6s0.2,0.7,0.2,0.9
			c0,0.6-0.7,0.9-2.2,0.9C123.6,88.3,122.7,88,121.9,87.4z"/>
		<path style="&st19;" d="M130.4,86.2c-1.2-1.4-1.8-3.3-1.8-5.9c0-2.6,0.6-4.6,1.8-6c1.2-1.4,2.9-2.1,5.2-2.1c2.2,0,3.9,0.7,5.1,2.1
			c1.2,1.4,1.8,3.4,1.8,6c0,2.6-0.6,4.6-1.7,5.9c-1.2,1.4-2.8,2-5.1,2C133.3,88.3,131.6,87.6,130.4,86.2z M138.7,84.7
			c0.7-1,1.1-2.4,1.1-4.4s-0.3-3.5-1.1-4.4c-0.7-1-1.8-1.4-3.2-1.4s-2.5,0.5-3.2,1.4c-0.7,1-1,2.4-1,4.5c0,2,0.3,3.5,1,4.4
			c0.7,0.9,1.8,1.4,3.2,1.4S138,85.6,138.7,84.7z"/>
		<path style="&st19;" d="M147.3,88.1c-0.7-0.2-1.3-0.5-1.7-0.8c-0.4-0.3-0.6-0.6-0.6-0.8c0-0.2,0.1-0.5,0.4-0.9s0.5-0.6,0.7-0.6
			c0,0,0.2,0.1,0.6,0.3c0.3,0.2,0.8,0.4,1.3,0.6c0.5,0.2,1.1,0.3,1.7,0.3c2,0,2.9-0.8,2.9-2.4c0-0.7-0.2-1.2-0.7-1.6
			c-0.4-0.4-1.2-0.8-2.3-1.1c-1.6-0.5-2.7-1-3.3-1.7c-0.6-0.7-0.9-1.6-0.9-2.8c0-0.8,0.2-1.6,0.6-2.2c0.4-0.7,1-1.2,1.8-1.5
			c0.8-0.4,1.6-0.6,2.6-0.6c1,0,1.9,0.1,2.7,0.4c0.8,0.3,1.2,0.6,1.2,0.9c0,0.3-0.1,0.6-0.3,1c-0.2,0.4-0.4,0.6-0.6,0.6
			c-0.1,0-0.3-0.2-0.8-0.4s-1.1-0.4-1.9-0.4c-0.8,0-1.4,0.2-1.9,0.5c-0.5,0.3-0.8,0.8-0.8,1.4c0,0.7,0.2,1.2,0.5,1.6
			c0.4,0.4,1,0.7,1.8,1c1.3,0.4,2.3,0.8,2.9,1.2s1.2,0.9,1.4,1.4c0.3,0.6,0.4,1.3,0.4,2.2c0,0.9-0.2,1.7-0.7,2.4
			c-0.5,0.7-1.1,1.3-1.9,1.7c-0.8,0.4-1.7,0.6-2.7,0.6C148.8,88.4,148,88.3,147.3,88.1z"/>
		<path style="&st19;" d="M159.5,86.3c-1.2-1.3-1.8-3.3-1.8-6c0-2.7,0.6-4.7,1.8-6.1s2.9-2.1,5.2-2.1c2,0,3.6,0.7,4.6,2
			s1.6,3.3,1.6,5.8c0,0.2-0.1,0.4-0.4,0.8c-0.2,0.3-0.5,0.5-0.6,0.5h-9.5c0.1,1.7,0.6,2.9,1.3,3.7c0.7,0.8,1.8,1.2,3.3,1.2
			c0.8,0,1.6-0.1,2.2-0.3c0.6-0.2,1.1-0.4,1.5-0.6s0.6-0.3,0.7-0.3c0.2,0,0.4,0.2,0.7,0.6c0.2,0.4,0.4,0.7,0.4,0.9
			c0,0.2-0.2,0.5-0.8,0.8c-0.5,0.3-1.2,0.6-2,0.8c-0.8,0.2-1.7,0.3-2.7,0.3C162.6,88.3,160.7,87.6,159.5,86.3z M168.2,79.1
			c0-3.2-1.2-4.7-3.6-4.7c-2.6,0-4,1.6-4.2,4.7H168.2z"/>
		<path style="&st19;" d="M176.4,87.3c-0.9-0.7-1.6-1.6-2-2.8c-0.5-1.2-0.7-2.6-0.7-4.1c0-1.7,0.3-3.2,0.8-4.4
			c0.5-1.2,1.2-2.1,2.1-2.7c0.9-0.6,2-0.9,3.2-0.9c0.9,0,1.7,0.1,2.3,0.4c0.7,0.3,1.3,0.6,2,1.1v-7.6c0-0.4,0.4-0.7,1.2-0.7h0.1
			c0.8,0,1.2,0.2,1.2,0.7v17.5c0,1.3,0.1,2.3,0.2,2.8c0.1,0.6,0.2,0.9,0.2,0.9c0,0.2-0.2,0.4-0.6,0.5c-0.4,0.1-0.7,0.2-1.1,0.2
			c-0.3,0-0.5-0.2-0.6-0.5c-0.1-0.3-0.2-0.6-0.3-1c-0.1-0.3-0.1-0.6-0.1-0.7c-1.4,1.5-3,2.2-4.8,2.2
			C178.3,88.3,177.2,87.9,176.4,87.3z M182,85.5c0.7-0.4,1.4-0.9,2-1.5v-8.2c-1.1-0.9-2.3-1.4-3.7-1.4c-1.3,0-2.4,0.5-3,1.4
			c-0.7,1-1,2.3-1,4.1c0,1.9,0.3,3.4,1,4.5c0.6,1,1.5,1.6,2.7,1.6C180.6,86.1,181.3,85.9,182,85.5z"/>
		<path style="&st19;" d="M103.2,122.4c-1.2-1.3-1.8-3.3-1.8-6.2c0-2.9,0.7-4.9,2-6.1c1.4-1.2,3.1-1.8,5.1-1.8
			c1.2,0,2.2,0.1,3.1,0.4c0.9,0.3,1.4,0.6,1.4,1c0,0.3-0.1,0.6-0.3,1c-0.2,0.4-0.4,0.6-0.6,0.6c0,0-0.1,0-0.1,0s-0.1-0.1-0.2-0.1
			c-1.1-0.5-2.2-0.7-3.3-0.7c-2.9,0-4.3,1.9-4.3,5.7c0,2.1,0.4,3.7,1.1,4.6c0.7,0.9,1.9,1.4,3.6,1.4c1.2,0,2.3-0.3,3.4-0.8l0.3-0.1
			c0.2,0,0.4,0.2,0.7,0.6c0.2,0.4,0.4,0.7,0.4,0.9s-0.2,0.5-0.6,0.7c-0.4,0.2-1,0.4-1.7,0.6c-0.7,0.2-1.5,0.2-2.3,0.2
			C106.3,124.3,104.5,123.6,103.2,122.4z"/>
		<path style="&st19;" d="M116.8,104.9v-1.7c0-0.5,0.5-0.7,1.4-0.7c0.9,0,1.3,0.2,1.3,0.7v1.7c0,0.5-0.5,0.7-1.4,0.7
			C117.3,105.6,116.8,105.4,116.8,104.9z M117,123.5V109c0-0.4,0.4-0.7,1.2-0.7h0.1c0.8,0,1.2,0.2,1.2,0.7v14.5
			c0,0.4-0.4,0.7-1.2,0.7h-0.1C117.4,124.2,117,123.9,117,123.5z"/>
		<path style="&st19;" d="M124.7,123.5V113c0-1.3-0.1-2.3-0.2-2.8c-0.1-0.6-0.2-0.9-0.2-0.9c0-0.2,0.2-0.4,0.6-0.5
			c0.4-0.1,0.7-0.2,1-0.2c0.3,0,0.5,0.1,0.6,0.4c0.1,0.3,0.2,0.6,0.3,0.9c0.1,0.3,0.1,0.5,0.1,0.6c1.1-1.5,2.2-2.2,3.5-2.2
			c0.6,0,1,0.1,1.3,0.3c0.3,0.2,0.4,0.5,0.4,0.8c0,0.3-0.1,0.7-0.2,1.1c-0.1,0.4-0.3,0.6-0.4,0.6c-0.1,0-0.3-0.1-0.6-0.2
			c-0.3-0.1-0.6-0.2-1.1-0.2c-0.5,0-0.9,0.1-1.3,0.4s-0.8,0.6-1,0.9c-0.3,0.3-0.4,0.5-0.4,0.5v11c0,0.4-0.4,0.7-1.2,0.7h-0.1
			C125.1,124.2,124.7,123.9,124.7,123.5z"/>
		<path style="&st19;" d="M136.2,122.4c-1.2-1.3-1.8-3.3-1.8-6.2c0-2.9,0.7-4.9,2-6.1c1.4-1.2,3.1-1.8,5.1-1.8
			c1.2,0,2.2,0.1,3.1,0.4c0.9,0.3,1.4,0.6,1.4,1c0,0.3-0.1,0.6-0.3,1c-0.2,0.4-0.4,0.6-0.6,0.6c0,0-0.1,0-0.1,0s-0.1-0.1-0.2-0.1
			c-1.1-0.5-2.2-0.7-3.3-0.7c-2.9,0-4.3,1.9-4.3,5.7c0,2.1,0.4,3.7,1.1,4.6c0.7,0.9,1.9,1.4,3.6,1.4c1.2,0,2.3-0.3,3.4-0.8l0.3-0.1
			c0.2,0,0.4,0.2,0.7,0.6c0.2,0.4,0.4,0.7,0.4,0.9s-0.2,0.5-0.6,0.7c-0.4,0.2-1,0.4-1.7,0.6c-0.7,0.2-1.5,0.2-2.3,0.2
			C139.3,124.3,137.4,123.6,136.2,122.4z"/>
		<path style="&st19;" d="M150.7,123c-0.9-0.9-1.3-2.1-1.3-3.6V109c0-0.4,0.4-0.7,1.2-0.7h0.1c0.8,0,1.2,0.2,1.2,0.7v10.2
			c0,0.9,0.3,1.6,0.8,2.1s1.3,0.8,2.3,0.8c0.7,0,1.4-0.2,2-0.6c0.7-0.4,1.3-0.9,1.8-1.5v-11c0-0.4,0.4-0.7,1.2-0.7h0.1
			c0.8,0,1.2,0.2,1.2,0.7v10.7c0,1.3,0.1,2.3,0.2,2.8c0.1,0.6,0.2,0.9,0.2,0.9c0,0.2-0.2,0.4-0.6,0.5c-0.4,0.1-0.7,0.2-1,0.2
			c-0.3,0-0.5-0.2-0.6-0.5c-0.1-0.3-0.2-0.6-0.3-1s-0.1-0.6-0.1-0.7c-0.6,0.7-1.4,1.2-2.2,1.7c-0.8,0.4-1.7,0.6-2.5,0.6
			C152.8,124.3,151.6,123.8,150.7,123z"/>
		<path style="&st19;" d="M166.3,104.9v-1.7c0-0.5,0.5-0.7,1.4-0.7c0.9,0,1.3,0.2,1.3,0.7v1.7c0,0.5-0.5,0.7-1.4,0.7
			C166.7,105.6,166.3,105.4,166.3,104.9z M166.4,123.5V109c0-0.4,0.4-0.7,1.2-0.7h0.1c0.8,0,1.2,0.2,1.2,0.7v14.5
			c0,0.4-0.4,0.7-1.2,0.7h-0.1C166.8,124.2,166.4,123.9,166.4,123.5z"/>
		<path style="&st19;" d="M175.9,123.4c-0.8-0.6-1.2-1.7-1.2-3.2v-9.6h-1.5c-0.2,0-0.3-0.1-0.4-0.2c-0.1-0.1-0.2-0.4-0.2-0.7v-0.4
			c0-0.3,0-0.5,0.2-0.7c0.1-0.1,0.2-0.2,0.4-0.2h1.5l0.4-3.2c0.1-0.4,0.4-0.7,1-0.7h0.3c0.6,0,0.9,0.2,0.9,0.7v3.2h2.5
			c0.2,0,0.4,0.1,0.5,0.2c0.1,0.1,0.1,0.4,0.1,0.7v0.4c0,0.3,0,0.5-0.1,0.7c-0.1,0.1-0.2,0.2-0.5,0.2h-2.5v9.3
			c0,0.8,0.1,1.4,0.4,1.7c0.3,0.3,0.7,0.5,1.2,0.5c0.4,0,0.7,0,0.9-0.1c0.2,0,0.3-0.1,0.4-0.1c0.2,0,0.3,0.2,0.5,0.6
			c0.1,0.4,0.2,0.7,0.2,0.9c0,0.6-0.7,0.9-2.2,0.9C177.5,124.3,176.7,124,175.9,123.4z"/>
		<path style="&st19;" d="M193.6,123.7l-4-14.2c-0.1-0.3-0.1-0.5-0.1-0.6c0-0.3,0.5-0.5,1.4-0.5c0.7,0,1.1,0.2,1.2,0.5l2.5,9.6
			c0.1,0.2,0.1,0.5,0.2,0.9s0.1,0.8,0.2,1l0.3,1.6h0.1c0.3-1.8,0.5-2.9,0.7-3.5l2.5-9.5c0.1-0.3,0.5-0.5,1.2-0.5h0.2
			c0.7,0,1.1,0.2,1.2,0.5l2.5,9.5c0.2,0.9,0.4,1.6,0.5,2.3c0.1,0.6,0.2,1.1,0.2,1.2h0.1l0.2-1.3c0.2-1.1,0.4-1.9,0.5-2.2l2.5-9.6
			c0.1-0.3,0.5-0.5,1.2-0.5c0.8,0,1.2,0.2,1.2,0.5c0,0.1,0,0.2-0.1,0.4l-4,14.4c-0.1,0.3-0.5,0.5-1.2,0.5h-0.9
			c-0.7,0-1.1-0.2-1.2-0.5l-2.4-9.5c-0.1-0.3-0.2-0.8-0.3-1.6l-0.1-0.8h-0.1l-0.1,0.7c-0.1,0.8-0.2,1.4-0.3,1.6l-2.5,9.5
			c-0.1,0.3-0.5,0.5-1.2,0.5h-0.9C194.1,124.2,193.7,124,193.6,123.7z"/>
		<path style="&st19;" d="M213.4,104.9v-1.7c0-0.5,0.5-0.7,1.4-0.7c0.9,0,1.3,0.2,1.3,0.7v1.7c0,0.5-0.5,0.7-1.4,0.7
			C213.8,105.6,213.4,105.4,213.4,104.9z M213.5,123.5V109c0-0.4,0.4-0.7,1.2-0.7h0.1c0.8,0,1.2,0.2,1.2,0.7v14.5
			c0,0.4-0.4,0.7-1.2,0.7h-0.1C213.9,124.2,213.5,123.9,213.5,123.5z"/>
		<path style="&st19;" d="M223,123.4c-0.8-0.6-1.2-1.7-1.2-3.2v-9.6h-1.5c-0.2,0-0.3-0.1-0.5-0.2c-0.1-0.1-0.1-0.4-0.1-0.7v-0.4
			c0-0.3,0-0.5,0.1-0.7c0.1-0.1,0.2-0.2,0.5-0.2h1.5l0.4-3.2c0.1-0.4,0.4-0.7,1-0.7h0.3c0.6,0,0.9,0.2,0.9,0.7v3.2h2.5
			c0.2,0,0.4,0.1,0.5,0.2c0.1,0.1,0.1,0.4,0.1,0.7v0.4c0,0.3,0,0.5-0.1,0.7c-0.1,0.1-0.2,0.2-0.5,0.2h-2.5v9.3
			c0,0.8,0.1,1.4,0.4,1.7c0.3,0.3,0.7,0.5,1.2,0.5c0.4,0,0.7,0,0.9-0.1s0.3-0.1,0.4-0.1c0.2,0,0.3,0.2,0.5,0.6s0.2,0.7,0.2,0.9
			c0,0.6-0.7,0.9-2.2,0.9C224.6,124.3,223.8,124,223,123.4z"/>
		<path style="&st19;" d="M231.4,123.5v-21.3c0-0.4,0.4-0.7,1.2-0.7h0.1c0.8,0,1.2,0.2,1.2,0.7v8.1c0.6-0.6,1.3-1.1,2.1-1.5
			c0.8-0.4,1.6-0.6,2.5-0.6c1.3,0,2.4,0.4,3.3,1.1s1.4,2,1.4,3.8v10.4c0,0.4-0.4,0.7-1.2,0.7H242c-0.8,0-1.2-0.2-1.2-0.7v-10.2
			c0-0.9-0.3-1.6-0.8-2.1c-0.5-0.5-1.3-0.8-2.3-0.8c-0.7,0-1.3,0.2-1.8,0.5c-0.6,0.3-1,0.7-1.4,1c-0.4,0.4-0.6,0.6-0.6,0.6v11
			c0,0.4-0.4,0.7-1.2,0.7h-0.1C231.8,124.2,231.4,123.9,231.4,123.5z"/>
		<path style="&st19;" d="M103.1,159.5v-12.9h-1.2c-0.2,0-0.4-0.1-0.5-0.2c-0.1-0.1-0.2-0.4-0.2-0.7v-0.4c0-0.3,0.1-0.5,0.2-0.7
			c0.1-0.1,0.2-0.2,0.5-0.2h1.2v-2.9c0-1.6,0.4-2.7,1.2-3.3c0.8-0.6,1.7-0.9,2.7-0.9c1.5,0,2.2,0.3,2.2,0.9c0,0.2-0.1,0.5-0.2,0.9
			s-0.3,0.6-0.5,0.6c-0.1,0-0.2,0-0.4-0.1c-0.2,0-0.5-0.1-0.9-0.1c-0.5,0-0.9,0.1-1.2,0.4c-0.3,0.3-0.4,0.9-0.4,1.8v2.6h2.6
			c0.2,0,0.4,0.1,0.5,0.2c0.1,0.1,0.1,0.4,0.1,0.7v0.4c0,0.3,0,0.5-0.1,0.7c-0.1,0.1-0.2,0.2-0.5,0.2h-2.6v12.9
			c0,0.4-0.4,0.7-1.2,0.7h-0.1C103.5,160.2,103.1,159.9,103.1,159.5z"/>
		<path style="&st19;" d="M112.3,159.1c-0.9-0.8-1.4-1.9-1.4-3.4c0-1.6,0.5-2.8,1.4-3.6c0.9-0.8,2.1-1.3,3.5-1.5
			c1.4-0.2,3.1-0.4,5-0.4v-1.4c0-0.7-0.3-1.3-0.8-1.8s-1.4-0.7-2.5-0.7c-0.9,0-1.6,0.1-2.3,0.3c-0.7,0.2-1.2,0.4-1.6,0.6
			c-0.4,0.2-0.7,0.3-0.7,0.3c-0.2,0-0.4-0.2-0.7-0.6s-0.4-0.7-0.4-0.9c0-0.3,0.3-0.5,0.8-0.8s1.2-0.6,2.1-0.8
			c0.9-0.2,1.8-0.3,2.7-0.3c1.9,0,3.3,0.4,4.4,1.2s1.6,2,1.6,3.5v6.7c0,1.3,0.1,2.3,0.2,2.8c0.1,0.6,0.2,0.9,0.2,0.9
			c0,0.2-0.2,0.4-0.6,0.5c-0.4,0.1-0.7,0.2-1.1,0.2c-0.3,0-0.5-0.2-0.6-0.5c-0.1-0.3-0.2-0.6-0.3-1c-0.1-0.3-0.1-0.6-0.1-0.7
			c-1.4,1.5-3,2.2-5,2.2C114.5,160.3,113.2,159.9,112.3,159.1z M118.7,157.5c0.7-0.4,1.4-0.9,2.2-1.5v-3.5c-1.5,0-2.7,0.1-3.7,0.2
			c-0.9,0.1-1.8,0.4-2.5,0.8c-0.7,0.5-1.1,1.2-1.1,2.1c0,0.8,0.2,1.4,0.6,1.8s1.1,0.6,1.9,0.6C117.1,158.1,118,157.9,118.7,157.5z"
			/>
		<path style="&st19;" d="M128.2,140.9v-1.7c0-0.5,0.5-0.7,1.4-0.7c0.9,0,1.3,0.2,1.3,0.7v1.7c0,0.5-0.5,0.7-1.4,0.7
			C128.6,141.6,128.2,141.4,128.2,140.9z M128.3,159.5V145c0-0.4,0.4-0.7,1.2-0.7h0.1c0.8,0,1.2,0.2,1.2,0.7v14.5
			c0,0.4-0.4,0.7-1.2,0.7h-0.1C128.7,160.2,128.3,159.9,128.3,159.5z"/>
		<path style="&st19;" d="M137,159.4c-0.8-0.6-1.2-1.7-1.2-3.2v-17.9c0-0.4,0.4-0.7,1.2-0.7h0.1c0.8,0,1.2,0.2,1.2,0.7v17.7
			c0,0.8,0.1,1.4,0.4,1.7c0.3,0.3,0.7,0.5,1.2,0.5c0.4,0,0.7,0,0.9-0.1c0.2,0,0.3-0.1,0.4-0.1c0.2,0,0.3,0.2,0.4,0.6
			c0.1,0.4,0.2,0.7,0.2,0.9c0,0.6-0.7,0.9-2.2,0.9C138.7,160.3,137.8,160,137,159.4z"/>
		<path style="&st19;" d="M145.7,159c-0.9-0.9-1.3-2.1-1.3-3.6V145c0-0.4,0.4-0.7,1.2-0.7h0.1c0.8,0,1.2,0.2,1.2,0.7v10.2
			c0,0.9,0.3,1.6,0.8,2.1c0.5,0.5,1.3,0.8,2.3,0.8c0.7,0,1.4-0.2,2-0.6c0.7-0.4,1.3-0.9,1.8-1.5v-11c0-0.4,0.4-0.7,1.2-0.7h0.1
			c0.8,0,1.2,0.2,1.2,0.7v10.7c0,1.3,0.1,2.3,0.2,2.8c0.1,0.6,0.2,0.9,0.2,0.9c0,0.2-0.2,0.4-0.6,0.5c-0.4,0.1-0.7,0.2-1.1,0.2
			c-0.3,0-0.5-0.2-0.6-0.5c-0.1-0.3-0.2-0.6-0.3-1c-0.1-0.3-0.1-0.6-0.1-0.7c-0.6,0.7-1.4,1.2-2.2,1.7s-1.6,0.6-2.5,0.6
			C147.7,160.3,146.5,159.8,145.7,159z"/>
		<path style="&st19;" d="M161.3,159.5V149c0-1.3-0.1-2.3-0.2-2.8c-0.1-0.6-0.2-0.9-0.2-0.9c0-0.2,0.2-0.4,0.6-0.5
			c0.4-0.1,0.7-0.2,1-0.2c0.3,0,0.5,0.1,0.6,0.4s0.2,0.6,0.3,0.9s0.1,0.5,0.1,0.6c1.1-1.5,2.2-2.2,3.5-2.2c0.6,0,1,0.1,1.3,0.3
			c0.3,0.2,0.5,0.5,0.5,0.8c0,0.3-0.1,0.7-0.2,1.1s-0.3,0.6-0.4,0.6c-0.1,0-0.3-0.1-0.6-0.2c-0.3-0.1-0.6-0.2-1.1-0.2
			c-0.5,0-0.9,0.1-1.3,0.4c-0.4,0.3-0.8,0.6-1,0.9c-0.3,0.3-0.4,0.5-0.4,0.5v11c0,0.4-0.4,0.7-1.2,0.7h-0.1
			C161.7,160.2,161.3,159.9,161.3,159.5z"/>
		<path style="&st19;" d="M172.9,158.3c-1.2-1.3-1.8-3.3-1.8-6c0-2.7,0.6-4.7,1.8-6.1c1.2-1.4,2.9-2.1,5.2-2.1c2,0,3.6,0.7,4.6,2
			s1.6,3.3,1.6,5.8c0,0.2-0.1,0.4-0.4,0.8c-0.2,0.3-0.5,0.5-0.6,0.5h-9.5c0.1,1.7,0.5,2.9,1.3,3.7c0.7,0.8,1.8,1.2,3.3,1.2
			c0.8,0,1.6-0.1,2.2-0.3c0.6-0.2,1.1-0.4,1.5-0.6c0.4-0.2,0.6-0.3,0.7-0.3c0.2,0,0.4,0.2,0.7,0.6c0.2,0.4,0.4,0.7,0.4,0.9
			c0,0.2-0.2,0.5-0.8,0.8c-0.5,0.3-1.2,0.6-2,0.8c-0.8,0.2-1.7,0.3-2.7,0.3C175.9,160.3,174.1,159.6,172.9,158.3z M181.6,151.1
			c0-3.2-1.2-4.7-3.6-4.7c-2.6,0-4,1.6-4.2,4.7H181.6z"/>
		<path style="&st19;" d="M188.9,160.1c-0.7-0.2-1.3-0.5-1.7-0.8c-0.4-0.3-0.6-0.6-0.6-0.8c0-0.2,0.1-0.5,0.4-0.9s0.5-0.6,0.7-0.6
			c0,0,0.2,0.1,0.6,0.3s0.8,0.4,1.3,0.6c0.5,0.2,1.1,0.3,1.7,0.3c2,0,2.9-0.8,2.9-2.4c0-0.7-0.2-1.2-0.7-1.6
			c-0.4-0.4-1.2-0.8-2.3-1.1c-1.6-0.5-2.7-1-3.3-1.7c-0.6-0.7-0.9-1.6-0.9-2.8c0-0.8,0.2-1.6,0.6-2.2c0.4-0.7,1-1.2,1.8-1.5
			c0.8-0.4,1.6-0.6,2.6-0.6c1,0,1.9,0.1,2.7,0.4c0.8,0.3,1.2,0.6,1.2,0.9c0,0.3-0.1,0.6-0.3,1c-0.2,0.4-0.4,0.6-0.6,0.6
			c-0.1,0-0.3-0.2-0.8-0.4c-0.5-0.2-1.1-0.4-1.9-0.4c-0.8,0-1.4,0.2-1.9,0.5s-0.8,0.8-0.8,1.4c0,0.7,0.2,1.2,0.5,1.6s1,0.7,1.8,1
			c1.3,0.4,2.3,0.8,2.9,1.2c0.7,0.4,1.1,0.9,1.4,1.4c0.3,0.6,0.4,1.3,0.4,2.2c0,0.9-0.2,1.7-0.7,2.4c-0.5,0.7-1.1,1.3-1.9,1.7
			c-0.8,0.4-1.7,0.6-2.7,0.6C190.4,160.4,189.6,160.3,188.9,160.1z"/>
	</g>
	<path style="&st0;" d="M100.6,214.5v-8.9c0-1.7-1.3-3-3-3h-30c-1.7,0-3,1.3-3,3v8.9"/>
	<path style="&st0;" d="M64.6,231.5v7.1c0,1.7,1.3,3,3,3h30c1.7,0,3-1.3,3-3v-7.1"/>
	<path style="&st6;" d="M98.6,221.6v-16c0-0.6-0.4-1-1-1h-30c-0.6,0-1,0.4-1,1v33c0,0.6,0.4,1,1,1h30c0.6,0,1-0.4,1-1V221.6"/>
	<path style="&st24;" d="M72.9,214.5c0.1-1.2-0.5-3,1-3.5c1.4-0.4,2.9-0.4,4.3-0.3c1,0.1,1-1.4,0-1.5c-1.7-0.1-4.4-0.2-5.8,0.9
		c-1.4,1.1-0.9,2.9-1,4.4C71.3,215.5,72.8,215.5,72.9,214.5L72.9,214.5z"/>
	<circle style="&st17;" cx="44.1" cy="44.2" r="43.5"/>
	<g>
		<path style="&st0;" d="M86.9,44.2C86.6,62,75.6,78.3,58.7,84.3c-16.5,5.9-35.6,1-47-12.4C0,58.3-1.9,38.2,7.3,22.6
			C16.3,7.1,34.6-1.2,52.2,2.2C72.3,6.1,86.5,23.9,86.9,44.2c0,1,1.5,1,1.5,0C88.1,25.7,76.7,8.9,59.1,2.5
			C41.6-3.7,21.5,1.9,9.8,16.3C-1.8,30.6-3.3,51.3,6.3,67c9.5,15.7,28.2,24,46.3,20.5c20.8-4,35.4-22.5,35.8-43.4
			C88.4,43.2,86.9,43.2,86.9,44.2z"/>
	</g>
	<g>
		<path style="&st19;" d="M15.8,48.8c-0.6-0.2-1.1-0.4-1.4-0.6c-0.2-0.2-0.3-0.3-0.3-0.5c0-0.1,0.1-0.3,0.2-0.6s0.3-0.4,0.4-0.4
			c0,0,0.2,0.1,0.4,0.2c0.4,0.2,0.8,0.4,1.2,0.5c0.4,0.1,0.9,0.2,1.5,0.2c0.7,0,1.3-0.2,1.7-0.6c0.4-0.4,0.7-0.9,0.7-1.5
			c0-0.4-0.1-0.8-0.4-1.1s-0.5-0.5-0.9-0.7c-0.3-0.2-0.8-0.4-1.5-0.6c-0.7-0.3-1.2-0.5-1.7-0.8c-0.4-0.2-0.8-0.6-1-1
			c-0.3-0.4-0.4-1-0.4-1.8c0-0.6,0.2-1.2,0.5-1.7c0.3-0.5,0.8-0.9,1.4-1.2c0.6-0.3,1.3-0.4,2.1-0.4c0.4,0,0.9,0.1,1.4,0.2
			s0.9,0.3,1.2,0.5c0.2,0.1,0.4,0.3,0.4,0.5c0,0.1-0.1,0.3-0.2,0.6c-0.2,0.3-0.3,0.4-0.4,0.4c-0.1,0-0.1,0-0.3-0.1
			c-0.1-0.1-0.2-0.1-0.2-0.1c-0.6-0.3-1.2-0.5-1.9-0.5c-0.7,0-1.3,0.2-1.7,0.5C16.2,38.5,16,39,16,39.7c0,0.4,0.1,0.7,0.3,1
			s0.5,0.4,0.7,0.6c0.3,0.1,0.7,0.3,1.4,0.6c0.7,0.3,1.3,0.5,1.8,0.8c0.5,0.3,0.8,0.6,1.2,1.1c0.3,0.5,0.5,1.1,0.5,1.9
			c0,1.1-0.4,1.9-1.1,2.6c-0.7,0.6-1.7,0.9-2.9,0.9C17.1,49.1,16.4,49,15.8,48.8z"/>
		<path style="&st19;" d="M24.8,47.9c-0.7-0.8-1.1-2-1.1-3.6c0-1.6,0.4-2.8,1.1-3.6s1.8-1.2,3.1-1.2c1.2,0,2.1,0.4,2.8,1.2
			c0.6,0.8,0.9,2,0.9,3.5c0,0.1-0.1,0.3-0.2,0.5c-0.1,0.2-0.3,0.3-0.4,0.3h-5.7c0.1,1,0.3,1.7,0.8,2.2c0.4,0.5,1.1,0.7,2,0.7
			c0.5,0,0.9-0.1,1.3-0.2c0.4-0.1,0.7-0.3,0.9-0.4s0.4-0.2,0.4-0.2c0.1,0,0.3,0.1,0.4,0.4c0.1,0.2,0.2,0.4,0.2,0.5
			c0,0.1-0.1,0.3-0.4,0.5c-0.3,0.2-0.7,0.3-1.2,0.5s-1,0.2-1.6,0.2C26.6,49.1,25.5,48.7,24.8,47.9z M30,43.6c0-1.9-0.7-2.8-2.2-2.8
			c-1.5,0-2.4,0.9-2.5,2.8H30z"/>
		<path style="&st19;" d="M34.3,48.6v-6.3c0-0.8,0-1.4-0.1-1.7c-0.1-0.3-0.1-0.5-0.1-0.6c0-0.1,0.1-0.2,0.3-0.3
			c0.2-0.1,0.4-0.1,0.6-0.1c0.2,0,0.3,0.1,0.4,0.3s0.1,0.4,0.2,0.5s0.1,0.3,0.1,0.4c0.6-0.9,1.3-1.4,2.1-1.4c0.3,0,0.6,0.1,0.8,0.2
			c0.2,0.1,0.3,0.3,0.3,0.5c0,0.2,0,0.4-0.1,0.6c-0.1,0.2-0.2,0.3-0.3,0.3c-0.1,0-0.2,0-0.4-0.1c-0.2-0.1-0.4-0.1-0.6-0.1
			c-0.3,0-0.5,0.1-0.8,0.2s-0.5,0.3-0.6,0.5c-0.2,0.2-0.3,0.3-0.3,0.3v6.6c0,0.3-0.2,0.4-0.7,0.4H35C34.5,49,34.3,48.9,34.3,48.6z"
			/>
		<path style="&st19;" d="M42.9,48.7L40,40.1c0-0.1-0.1-0.2-0.1-0.2c0-0.2,0.3-0.3,0.8-0.3h0.1c0.4,0,0.7,0.1,0.7,0.3l1.8,5.7
			c0.1,0.4,0.3,1.1,0.6,2.2H44l0.1-0.5c0.1-0.7,0.3-1.2,0.4-1.7l1.9-5.8c0.1-0.2,0.3-0.3,0.7-0.3h0.1c0.4,0,0.7,0.1,0.7,0.3
			c0,0.1,0,0.1-0.1,0.3l-2.9,8.6c-0.1,0.2-0.3,0.3-0.7,0.3h-0.6C43.2,49,42.9,48.9,42.9,48.7z"/>
		<path style="&st19;" d="M50.1,37.4v-1c0-0.3,0.3-0.4,0.9-0.4c0.5,0,0.8,0.1,0.8,0.4v1c0,0.3-0.3,0.4-0.9,0.4
			C50.4,37.9,50.1,37.7,50.1,37.4z M50.2,48.6v-8.7c0-0.3,0.2-0.4,0.7-0.4H51c0.5,0,0.7,0.1,0.7,0.4v8.7c0,0.3-0.2,0.4-0.7,0.4h-0.1
			C50.4,49,50.2,48.9,50.2,48.6z"/>
		<path style="&st19;" d="M55.6,47.9c-0.7-0.8-1.1-2-1.1-3.7c0-1.7,0.4-2.9,1.2-3.7c0.8-0.7,1.8-1.1,3-1.1c0.7,0,1.3,0.1,1.9,0.3
			c0.6,0.2,0.8,0.4,0.8,0.6c0,0.2-0.1,0.4-0.2,0.6c-0.1,0.2-0.3,0.4-0.4,0.4c0,0-0.1,0-0.1,0c0,0-0.1,0-0.1,0
			c-0.6-0.3-1.3-0.4-2-0.4c-1.7,0-2.6,1.1-2.6,3.4c0,1.3,0.2,2.2,0.6,2.8c0.4,0.6,1.1,0.8,2.2,0.8c0.7,0,1.4-0.2,2-0.5l0.2-0.1
			c0.1,0,0.3,0.1,0.4,0.4c0.1,0.2,0.2,0.4,0.2,0.6c0,0.1-0.1,0.3-0.4,0.4s-0.6,0.3-1,0.4c-0.4,0.1-0.9,0.1-1.4,0.1
			C57.4,49.1,56.3,48.7,55.6,47.9z"/>
		<path style="&st19;" d="M64.6,47.9c-0.7-0.8-1.1-2-1.1-3.6c0-1.6,0.4-2.8,1.1-3.6s1.8-1.2,3.1-1.2c1.2,0,2.1,0.4,2.8,1.2
			c0.6,0.8,0.9,2,0.9,3.5c0,0.1-0.1,0.3-0.2,0.5c-0.1,0.2-0.3,0.3-0.4,0.3h-5.7c0.1,1,0.3,1.7,0.8,2.2c0.4,0.5,1.1,0.7,2,0.7
			c0.5,0,0.9-0.1,1.3-0.2c0.4-0.1,0.7-0.3,0.9-0.4s0.4-0.2,0.4-0.2c0.1,0,0.3,0.1,0.4,0.4c0.1,0.2,0.2,0.4,0.2,0.5
			c0,0.1-0.1,0.3-0.4,0.5c-0.3,0.2-0.7,0.3-1.2,0.5s-1,0.2-1.6,0.2C66.5,49.1,65.4,48.7,64.6,47.9z M69.9,43.6
			c0-1.9-0.7-2.8-2.2-2.8c-1.5,0-2.4,0.9-2.5,2.8H69.9z"/>
	</g>
	<circle style="&st17;" cx="221" cy="224.1" r="43.5"/>
	<g>
		<path style="&st0;" d="M263.7,224.1c-0.3,17.8-11.2,34.1-28.2,40.2c-16.5,5.9-35.6,1-47-12.4c-11.7-13.7-13.6-33.8-4.5-49.4
			c9.1-15.5,27.3-23.8,44.9-20.4C249.2,186,263.4,203.8,263.7,224.1c0,1,1.5,1,1.5,0c-0.3-18.5-11.7-35.3-29.3-41.6
			c-17.5-6.3-37.6-0.7-49.3,13.8c-11.6,14.3-13.1,35-3.5,50.7c9.5,15.7,28.2,24,46.3,20.5c20.8-4,35.4-22.5,35.8-43.4
			C265.3,223.1,263.8,223.1,263.7,224.1z"/>
	</g>
	<g>
		<path style="&st19;" d="M204,227.7c0-0.1,0-0.1,0.1-0.3l4.3-11.8c0.1-0.2,0.3-0.3,0.7-0.3h0.5c0.4,0,0.7,0.1,0.7,0.3l4.3,11.8
			c0,0.1,0.1,0.2,0.1,0.2c0,0.2-0.3,0.3-0.8,0.3h-0.1c-0.4,0-0.7-0.1-0.7-0.3l-1.1-3h-5.3l-1,3c-0.1,0.2-0.3,0.3-0.7,0.3h-0.1
			C204.2,228,204,227.9,204,227.7z M211.4,223.4l-1.9-5.4c-0.1-0.2-0.1-0.5-0.2-1h0c-0.1,0.5-0.2,0.8-0.3,1l-1.9,5.4H211.4z"/>
		<path style="&st19;" d="M216.6,231.3v-10c0-0.8,0-1.4-0.1-1.7c-0.1-0.3-0.1-0.5-0.1-0.6c0-0.1,0.1-0.2,0.3-0.3s0.4-0.1,0.6-0.1
			c0.2,0,0.3,0.1,0.4,0.3s0.1,0.4,0.2,0.5c0,0.2,0.1,0.3,0.1,0.4c0.9-0.9,1.8-1.4,2.9-1.4c0.7,0,1.4,0.2,1.9,0.6s0.9,1,1.2,1.7
			s0.4,1.6,0.4,2.5c0,1-0.2,1.9-0.5,2.6c-0.3,0.7-0.7,1.3-1.3,1.6c-0.6,0.4-1.2,0.6-1.9,0.6c-0.5,0-1-0.1-1.4-0.2
			c-0.4-0.2-0.8-0.4-1.2-0.7v4.2c0,0.3-0.2,0.4-0.7,0.4h-0.1C216.8,231.7,216.6,231.6,216.6,231.3z M222.2,225.9
			c0.4-0.6,0.6-1.4,0.6-2.5c0-1.2-0.2-2.1-0.6-2.7c-0.4-0.6-0.9-0.9-1.6-0.9c-0.4,0-0.8,0.1-1.3,0.3c-0.4,0.2-0.8,0.5-1.2,0.9v4.9
			c0.6,0.5,1.4,0.8,2.2,0.8C221.1,226.7,221.7,226.4,222.2,225.9z"/>
		<path style="&st19;" d="M227.2,231.3v-10c0-0.8,0-1.4-0.1-1.7c-0.1-0.3-0.1-0.5-0.1-0.6c0-0.1,0.1-0.2,0.3-0.3s0.4-0.1,0.6-0.1
			c0.2,0,0.3,0.1,0.4,0.3s0.1,0.4,0.2,0.5c0,0.2,0.1,0.3,0.1,0.4c0.9-0.9,1.8-1.4,2.9-1.4c0.7,0,1.4,0.2,1.9,0.6s0.9,1,1.2,1.7
			s0.4,1.6,0.4,2.5c0,1-0.2,1.9-0.5,2.6c-0.3,0.7-0.7,1.3-1.3,1.6c-0.6,0.4-1.2,0.6-1.9,0.6c-0.5,0-1-0.1-1.4-0.2
			c-0.4-0.2-0.8-0.4-1.2-0.7v4.2c0,0.3-0.2,0.4-0.7,0.4h-0.1C227.4,231.7,227.2,231.6,227.2,231.3z M232.7,225.9
			c0.4-0.6,0.6-1.4,0.6-2.5c0-1.2-0.2-2.1-0.6-2.7c-0.4-0.6-0.9-0.9-1.6-0.9c-0.4,0-0.8,0.1-1.3,0.3c-0.4,0.2-0.8,0.5-1.2,0.9v4.9
			c0.6,0.5,1.4,0.8,2.2,0.8C231.7,226.7,232.3,226.4,232.7,225.9z"/>
	</g>
	<g>
		<path style="&st2;" d="M201,248.1c-1.9-2.8-3.8-5.7-5.6-8.5c-0.5-0.8-1.7-0.1-1.3,0.8c1.7,3.8,5.2,6.6,9.4,7.3
			c0.9,0.2,1.3-1.3,0.4-1.4c-3.8-0.7-6.9-3.1-8.5-6.6c-0.4,0.3-0.9,0.5-1.3,0.8c1.9,2.8,3.8,5.7,5.6,8.5
			C200.2,249.7,201.5,248.9,201,248.1L201,248.1z"/>
	</g>
	<g>
		<path style="&st2;" d="M235.3,193.9c8,6.8,16.7,14.6,16,26.1c-0.1,1,1.4,0.9,1.5,0c1.3-13.2-7.6-24.3-20.7-26.1
			c-1-0.1-0.9,1.4,0,1.5c12.3,1.6,20.5,12.3,19.2,24.6c0.5,0,1,0,1.5,0c0.6-11.9-8.1-20.1-16.5-27.1
			C235.6,192.3,234.5,193.3,235.3,193.9L235.3,193.9z"/>
	</g>
	<path style="&st24;" d="M93.4,229.9c-0.1,1.5,0.3,3.1-1.6,3.6c-0.8,0.2-1.8,0.2-2.7,0.2c-1.7,0.1-3.4,0.1-5,0c-1-0.1-1,1.4,0,1.5
		c2.5,0.2,5,0.1,7.5-0.2c3.3-0.4,3.2-2.3,3.3-5.1C94.9,228.9,93.4,228.9,93.4,229.9L93.4,229.9z"/>
	<path style="&st2;" d="M52.2,13c6,0.6,11.2,3.7,14.5,8.8c0.4-0.3,0.8-0.6,1.2-0.9c-3.9-4.2-8.5-7.9-14.6-7.6
		c-0.7,0-1.1,1.1-0.4,1.4c4,1.8,7.2,4.7,9.3,8.6c0.5,0.9,1.8,0.1,1.3-0.8c-2.2-4.1-5.5-7.2-9.8-9.1c-0.1,0.5-0.3,0.9-0.4,1.4
		c5.7-0.3,9.8,3.3,13.5,7.1c0.6,0.6,1.6-0.2,1.2-0.9c-3.6-5.5-9.2-8.9-15.8-9.5C51.3,11.4,51.3,12.9,52.2,13L52.2,13z"/>
	<circle style="&st2;" cx="32.6" cy="75.6" r="19"/>
	<g>
		<g id="Icon_15_">
			<g>
				<g>
					<path style="&st8;" d="M32.6,58.6c-9.4,0-17,7.6-17,17s7.6,17,17,17s17-7.6,17-17S42,58.6,32.6,58.6z M39.5,82.6L39.5,82.6
						c-0.7,0.7-1.7,0.6-2.3,0l-4.6-4.7l-4.7,4.7c-0.6,0.6-1.7,0.6-2.3,0l0,0c-0.6-0.6-0.6-1.7,0-2.3l4.7-4.7l-4.6-4.7
						c-0.6-0.6-0.6-1.7,0-2.3l0,0c0.6-0.6,1.7-0.6,2.3,0l4.7,4.7l4.7-4.7c0.6-0.6,1.7-0.6,2.3,0h0c0.6,0.6,0.6,1.7,0,2.3l-4.8,4.7
						l4.6,4.7C40.2,81,40.1,82,39.5,82.6z"/>
				</g>
			</g>
		</g>
	</g>
	<circle style="&st2;" cx="54.1" cy="86.1" r="12.5"/>
	<g>
		<g id="Icon_14_">
			<g>
				<g>
					<path style="&st9;" d="M54.1,74.9c-6.2,0-11.2,5-11.2,11.2c0,6.2,5,11.2,11.2,11.2s11.2-5,11.2-11.2
						C65.3,79.9,60.3,74.9,54.1,74.9z M58.7,90.7l-0.1,0.1c-0.4,0.4-1,0.4-1.4,0l-3.1-3.1L51,90.8c-0.4,0.4-1,0.4-1.4,0l-0.1-0.1
						c-0.4-0.4-0.4-1,0-1.4l3.2-3.2L49.5,83c-0.4-0.4-0.4-1,0-1.4l0.1-0.1c0.4-0.4,1-0.4,1.4,0l3.2,3.2l3.2-3.2c0.4-0.4,1-0.4,1.4,0
						l0.1,0.1c0.4,0.4,0.4,1,0,1.4l-3.2,3.2l3.1,3.2C59.1,89.7,59.1,90.3,58.7,90.7z"/>
				</g>
			</g>
		</g>
	</g>
	<g>
		<circle style="&st2;" cx="64.6" cy="71.6" r="8"/>
		<g id="Icon_13_">
			<g>
				<g>
					<path style="&st10;" d="M64.6,64.6c-3.9,0-7,3.1-7,7c0,3.9,3.1,7,7,7s7-3.1,7-7C71.6,67.7,68.5,64.6,64.6,64.6z M67.5,74.5
						L67.5,74.5c-0.3,0.3-0.7,0.3-1,0.1l-1.9-2l-2,2c-0.2,0.2-0.6,0.2-0.9,0l-0.1-0.1c-0.2-0.2-0.2-0.6,0-0.9l2-2l-1.9-2
						c-0.2-0.2-0.2-0.6,0-0.9l0.1-0.1c0.2-0.2,0.6-0.2,0.9,0l2,2l2-2c0.2-0.2,0.6-0.2,0.9,0l0.1,0.1c0.2,0.2,0.2,0.6,0,0.9l-2,2
						l1.9,2C67.7,73.8,67.7,74.2,67.5,74.5z"/>
				</g>
			</g>
		</g>
	</g>
	<g>
		<circle style="&st8;" cx="96.1" cy="204.1" r="9"/>
		<path style="&st2;" d="M96.1,213.6c-5.2,0-9.5-4.3-9.5-9.5s4.3-9.5,9.5-9.5s9.5,4.3,9.5,9.5S101.4,213.6,96.1,213.6z M96.1,195.6
			c-4.7,0-8.5,3.8-8.5,8.5s3.8,8.5,8.5,8.5s8.5-3.8,8.5-8.5S100.8,195.6,96.1,195.6z"/>
	</g>
</g>
<g id="Layer_1">
</g>
</svg>
