<?xml version="1.0" encoding="utf-8"?>
<!-- Generator: Adobe Illustrator 19.1.0, SVG Export Plug-In . SVG Version: 6.00 Build 0)  -->
<svg version="1.1" id="Layer_1" xmlns="http://www.w3.org/2000/svg" xmlns:xlink="http://www.w3.org/1999/xlink" x="0px" y="0px"
	 width="152.2px" height="136.1px" viewBox="0 0 152.2 136.1" style="enable-background:new 0 0 152.2 136.1;" xml:space="preserve"
	>
<style type="text/css">
	.st0{fill:#D1EE83;stroke:#97BD30;stroke-width:2.5;stroke-miterlimit:10;}
	.st1{fill:#D1EE83;stroke:#97BD30;stroke-width:4;stroke-miterlimit:10;}
	.st2{fill:#97BD30;}
	.st3{fill:none;stroke:#97BD30;stroke-width:4;stroke-miterlimit:10;}
	.st4{fill:none;stroke:#C8D2D2;stroke-width:4;stroke-miterlimit:10;}
	.st5{fill:#C8D2D2;}
	.st6{fill:#D1EE83;stroke:#97BD30;stroke-width:3.4991;stroke-miterlimit:10;}
	.st7{fill:#D1EE83;stroke:#97BD30;stroke-width:5.6814;stroke-miterlimit:10;}
	.st8{fill:none;stroke:#97BD30;stroke-width:4.8706;stroke-miterlimit:10;}
	.st9{fill:none;stroke:#C8D2D2;stroke-width:4.8076;stroke-miterlimit:10;}
	.st10{fill:none;stroke:#C8D2D2;stroke-width:3.2416;stroke-miterlimit:10;}
	.st11{fill:none;stroke:#97BD30;stroke-width:2.5;stroke-miterlimit:10;}
	.st12{fill:#EE9B83;stroke:#BD3130;stroke-width:2.5;stroke-miterlimit:10;}
	.st13{fill:#BD3130;}
	.st14{fill:none;stroke:#BD3130;stroke-width:4;stroke-miterlimit:10;}
	.st15{fill:#EE9B83;stroke:#BD3130;stroke-width:4;stroke-miterlimit:10;}
	.st16{fill:none;stroke:#97BD30;stroke-width:3;stroke-miterlimit:10;}
	.st17{fill:#FF990D;}
	.st18{fill:none;stroke:#BD3130;stroke-width:2.4036;stroke-miterlimit:10;}
	.st19{fill:none;stroke:#C8D2D2;stroke-width:2.4036;stroke-miterlimit:10;}
	.st20{fill:#EE9B83;stroke:#BD3130;stroke-width:2.4036;stroke-miterlimit:10;}
	.st21{fill:#D1EE83;stroke:#97BD30;stroke-width:1.8073;stroke-miterlimit:10;}
	.st22{fill:#D1EE83;stroke:#97BD30;stroke-width:3;stroke-miterlimit:10;}
	.st23{fill:none;stroke:#C8D2D2;stroke-width:3;stroke-miterlimit:10;}
	.st24{fill:#D1EE83;stroke:#97BD30;stroke-width:2.6609;stroke-miterlimit:10;}
	.st25{fill:none;stroke:#BD3130;stroke-width:2.6609;stroke-miterlimit:10;}
	.st26{fill:none;stroke:#97BD30;stroke-width:2.6609;stroke-miterlimit:10;}
	.st27{fill:#EE9B83;stroke:#BD3130;stroke-width:2.6609;stroke-miterlimit:10;}
	.st28{fill:none;stroke:#C8D2D2;stroke-width:2.6609;stroke-miterlimit:10;}
	.st29{fill:#EE9B83;stroke:#BD3130;stroke-width:1.8073;stroke-miterlimit:10;}
	.st30{fill:none;stroke:#97BD30;stroke-width:1.8069;stroke-miterlimit:10;}
	.st31{fill:none;stroke:#BD3130;stroke-width:2.9701;stroke-miterlimit:10;}
	.st32{fill:none;stroke:#C8D2D2;stroke-width:2.9701;stroke-miterlimit:10;}
	.st33{fill:#EE9B83;stroke:#BD3130;stroke-width:2.9701;stroke-miterlimit:10;}
	.st34{fill:none;stroke:#BD3130;stroke-width:3;stroke-miterlimit:10;}
	.st35{fill:#EE9B83;stroke:#BD3130;stroke-width:3;stroke-miterlimit:10;}
	.st36{fill:none;stroke:#BD3130;stroke-width:2.6101;stroke-miterlimit:10;}
	.st37{fill:none;stroke:#C8D2D2;stroke-width:2.6101;stroke-miterlimit:10;}
	.st38{fill:#EE9B83;stroke:#BD3130;stroke-width:2.6101;stroke-miterlimit:10;}
	.st39{fill:none;stroke:#97BD30;stroke-width:2.6364;stroke-miterlimit:10;}
	.st40{fill:none;stroke:#97BD30;stroke-width:1.8073;stroke-miterlimit:10;}
</style>
<path class="st22" d="M103.5,89.9h-59c-1,0-1.9-0.9-1.9-1.9V40.2c0-1,0.9-1.9,1.9-1.9h59c1,0,1.9,0.9,1.9,1.9V88
	C105.4,89.1,104.5,89.9,103.5,89.9z"/>
<path class="st2" d="M107.3,72L107.3,72c-1.3,0-2.3-1-2.3-2.3V58.5c0-1.3,1-2.3,2.3-2.3l0,0c1.3,0,2.3,1,2.3,2.3v11.2
	C109.6,71,108.6,72,107.3,72z"/>
<path class="st2" d="M40.6,72L40.6,72c-1.3,0-2.3-1-2.3-2.3V58.5c0-1.3,1-2.3,2.3-2.3h0c1.3,0,2.3,1,2.3,2.3v11.2
	C42.8,71,41.8,72,40.6,72z"/>
<path class="st16" d="M40.6,64.1c0,0-13-3.3-13,14.7s0,27.3,0,27.3"/>
<path class="st16" d="M107,64.1c0,0,13-3.3,13,14.7c0,4.6,0,15,0,18.4"/>
<path class="st23" d="M46.6,130H25.4c-5,0-9.1-4.1-9.1-9.1v-3.1c0-5,4.1-9.1,9.1-9.1h21.2c5,0,9.1,4.1,9.1,9.1v3.1
	C55.7,125.9,51.6,130,46.6,130z"/>
<polygon class="st23" points="103.7,100.2 120.3,129 136.9,100.2 "/>
<path class="st5" d="M22.6,105.6v-0.3c0-0.9,0.7-1.6,1.6-1.6h6.9c0.9,0,1.6,0.7,1.6,1.6v0.3c0,0.9-0.7,1.6-1.6,1.6h-6.9
	C23.3,107.2,22.6,106.4,22.6,105.6z"/>
<path class="st5" d="M125,97.2v-0.3c0-0.9-0.7-1.6-1.6-1.6h-6.9c-0.9,0-1.6,0.7-1.6,1.6v0.3c0,0.9,0.7,1.6,1.6,1.6h6.9
	C124.3,98.8,125,98.1,125,97.2z"/>
<path class="st21" d="M149.3,23.9H3.9c-1.1,0-2-0.9-2-2V1.7c0-1.1,0.9-2,2-2h145.4c1.1,0,2,0.9,2,2v20.2
	C151.3,23,150.4,23.9,149.3,23.9z"/>
<g>
	<path d="M58.2,6.3c0.4,0.1,0.8,0.2,1.1,0.3c0.3,0.1,0.4,0.3,0.4,0.5c0,0.1,0,0.3-0.1,0.4s-0.2,0.3-0.3,0.5C59.1,8.2,59,8.3,59,8.3
		c0,0-0.1,0-0.3-0.1c-0.2-0.1-0.4-0.2-0.7-0.3s-0.6-0.1-1-0.1c-0.9,0-1.6,0.3-2.1,0.8c-0.4,0.6-0.7,1.4-0.7,2.6c0,1.2,0.2,2,0.7,2.6
		c0.4,0.6,1.1,0.9,2,0.9c0.4,0,0.8,0,1.1-0.1c0.3-0.1,0.6-0.2,0.9-0.3c0.1-0.1,0.3-0.1,0.3-0.1c0.1,0,0.2,0.1,0.3,0.2
		s0.2,0.3,0.3,0.5c0.1,0.2,0.1,0.3,0.1,0.4c0,0.2-0.2,0.4-0.5,0.6S58.7,16,58.2,16c-0.5,0.1-0.9,0.1-1.4,0.1c-1.6,0-2.7-0.4-3.5-1.2
		c-0.7-0.8-1.1-2.1-1.1-3.8c0-3.3,1.5-5,4.6-5C57.3,6.2,57.7,6.2,58.2,6.3z"/>
	<path d="M63.2,6.7v7.9h3.4c0.1,0,0.2,0,0.3,0.1c0.1,0.1,0.1,0.2,0.1,0.5v0.4c0,0.2,0,0.4-0.1,0.5c-0.1,0.1-0.1,0.1-0.3,0.1h-4.7
		c-0.2,0-0.3,0-0.4-0.1c-0.1-0.1-0.1-0.2-0.1-0.4V6.7c0-0.3,0.2-0.4,0.7-0.4h0.3C62.9,6.3,63.2,6.4,63.2,6.7z"/>
	<path d="M75.4,7.5c0.8,0.8,1.1,2.1,1.1,3.7s-0.4,2.9-1.1,3.7s-1.9,1.3-3.3,1.3s-2.5-0.4-3.3-1.3s-1.1-2.1-1.1-3.7
		c0-1.6,0.4-2.8,1.1-3.7s1.9-1.3,3.3-1.3S74.6,6.6,75.4,7.5z M70.2,8.6c-0.4,0.6-0.7,1.4-0.7,2.6c0,1.1,0.2,2,0.7,2.6
		c0.4,0.6,1.1,0.9,1.9,0.9c0.8,0,1.5-0.3,1.9-0.9c0.4-0.6,0.7-1.4,0.7-2.6c0-1.1-0.2-2-0.7-2.6C73.6,8,73,7.7,72.1,7.7
		C71.3,7.7,70.6,8,70.2,8.6z"/>
	<path d="M82.2,6.3c0.4,0.1,0.7,0.2,0.9,0.3c0.2,0.1,0.4,0.3,0.4,0.4c0,0.2-0.1,0.4-0.2,0.7C83.1,8,83,8.2,82.8,8.2
		c0,0-0.1,0-0.3-0.1c-0.2-0.1-0.4-0.2-0.6-0.2s-0.5-0.1-0.8-0.1c-0.5,0-0.9,0.1-1.1,0.3c-0.2,0.2-0.4,0.5-0.4,0.8
		c0,0.3,0.1,0.5,0.2,0.7c0.1,0.2,0.3,0.3,0.5,0.4s0.5,0.2,0.9,0.4c0.5,0.2,1,0.4,1.3,0.6c0.3,0.2,0.6,0.5,0.9,0.9s0.4,0.9,0.4,1.4
		c0,1-0.3,1.7-0.9,2.2c-0.6,0.5-1.3,0.7-2.3,0.7c-0.6,0-1.2-0.1-1.6-0.2c-0.5-0.1-0.9-0.3-1.1-0.5c-0.3-0.2-0.4-0.3-0.4-0.5
		c0-0.1,0-0.3,0.1-0.4s0.2-0.3,0.3-0.4c0.1-0.1,0.2-0.2,0.3-0.2c0.1,0,0.2,0,0.3,0.1c0.3,0.2,0.6,0.3,0.9,0.4c0.3,0.1,0.6,0.1,1,0.1
		c0.4,0,0.8-0.1,1.1-0.3c0.3-0.2,0.4-0.5,0.4-0.9c0-0.3-0.1-0.5-0.2-0.6s-0.3-0.3-0.6-0.4c-0.2-0.1-0.5-0.3-0.9-0.4
		c-0.2-0.1-0.4-0.2-0.4-0.2c-0.4-0.2-0.8-0.4-1.1-0.6s-0.5-0.5-0.7-0.8c-0.2-0.4-0.3-0.8-0.3-1.3c0-0.6,0.1-1.1,0.4-1.5
		c0.3-0.4,0.7-0.7,1.2-0.9c0.5-0.2,1-0.3,1.6-0.3C81.5,6.2,81.8,6.2,82.2,6.3z"/>
	<path d="M91.2,6.4c0.1,0.1,0.1,0.2,0.1,0.5v0.4c0,0.2,0,0.4-0.1,0.5c-0.1,0.1-0.2,0.1-0.3,0.1h-3.7v2.5h3.3c0.1,0,0.2,0,0.3,0.1
		s0.1,0.2,0.1,0.5v0.3c0,0.2,0,0.4-0.1,0.5s-0.2,0.1-0.3,0.1h-3.3v2.7h3.7c0.1,0,0.2,0,0.3,0.1s0.1,0.2,0.1,0.5v0.4
		c0,0.2,0,0.4-0.1,0.5c-0.1,0.1-0.2,0.1-0.3,0.1h-5c-0.2,0-0.3,0-0.4-0.1c-0.1-0.1-0.1-0.2-0.1-0.4V6.8c0-0.2,0-0.3,0.1-0.4
		c0.1-0.1,0.2-0.1,0.4-0.1h5C91,6.3,91.1,6.3,91.2,6.4z"/>
	<path d="M99.8,7.5c0.8,0.8,1.2,2,1.2,3.7s-0.4,2.8-1.2,3.7s-1.9,1.2-3.3,1.2h-3c-0.2,0-0.3,0-0.4-0.1C93,15.9,93,15.8,93,15.6V6.8
		c0-0.2,0-0.3,0.1-0.4c0.1-0.1,0.2-0.1,0.4-0.1h3C97.9,6.3,99,6.7,99.8,7.5z M94.8,7.8v6.7h1.7c0.8,0,1.5-0.3,1.9-0.8
		c0.5-0.6,0.7-1.4,0.7-2.5s-0.2-1.9-0.7-2.5c-0.5-0.6-1.1-0.8-1.9-0.8H94.8z"/>
</g>
</svg>
