<svg xmlns="http://www.w3.org/2000/svg" viewBox="0 0 43.46 72.96"><defs><style>.cls-1{fill:#727f9b}.cls-2{fill:#fff}.cls-3{fill:#d0daed}</style></defs><title>7Asset 8</title><g id="Layer_2" data-name="Layer 2"><g id="Layer_1-2" data-name="Layer 1"><path id="connector" class="cls-1" d="M27.14 70l1.5 1.5V40.24c0-4.6.68-9.81-.07-14.35-1.32-7.93-13.14-8.41-14.8-.4-1.23 5.92-.13 13.09-.13 19.17v26.8l1.5-1.5"/><path id="connector-2" data-name="connector" class="cls-2" d="M15.14 73a1.5 1.5 0 0 0 1.5-1.5V33.89c0-3-1-8.3 1.63-10.37a4.72 4.72 0 0 1 7.14 1.86c1.19 3.07.23 7.81.23 11v35a1.5 1.5 0 0 0 1.5 1.5"/><circle id="circle" class="cls-3" cx="21.73" cy="21.73" r="20.23"/><path id="circle-stroke" class="cls-1" d="M40.46 21.73c-.34 10.13-8.27 18.81-18.73 18.73A18.93 18.93 0 0 1 3 21.73 18.91 18.91 0 0 1 21 3c10.72-.42 19.07 8.26 19.42 18.71.07 1.93 3.07 1.93 3 0C43.06 9.91 33.87 0 21.73 0A22 22 0 0 0 0 21.73a22 22 0 0 0 21.73 21.73c12.14 0 21.33-9.9 21.73-21.73.07-1.93-2.93-1.93-3 0z"/><path id="highlight" class="cls-2" d="M13 16.38a9.58 9.58 0 0 1 9.14-5.11c1.93.11 1.92-2.89 0-3a12.53 12.53 0 0 0-11.73 6.59c-.91 1.7 1.68 3.22 2.59 1.52z"/><path id="highlight-2" data-name="highlight" class="cls-2" d="M21.06 34.64c9.08 1.86 16.45-5.38 14.86-14.48-.28-1.59-2.44-1.25-2.89 0-1.51 4.21-3.65 8.1-8.19 9.44a39.79 39.79 0 0 1-11.95 1.3c-1.93 0-1.93 3 0 3 4.94.09 11.1-.07 15.57-2.45 3.91-2.08 6-6.49 7.46-10.49H33a9.23 9.23 0 0 1-11.14 10.79c-1.86-.39-2.69 2.5-.8 2.89z"/></g></g></svg>