<?xml version="1.0" encoding="utf-8"?>
<!-- Generator: Adobe Illustrator 19.1.0, SVG Export Plug-In . SVG Version: 6.00 Build 0)  -->
<svg version="1.1" id="Layer_1" xmlns="http://www.w3.org/2000/svg" xmlns:xlink="http://www.w3.org/1999/xlink" x="0px" y="0px"
	 width="152.2px" height="136.1px" viewBox="0 0 152.2 136.1" style="enable-background:new 0 0 152.2 136.1;" xml:space="preserve"
	>
<style type="text/css">
	.st0{fill:#D1EE83;stroke:#97BD30;stroke-width:2.5;stroke-miterlimit:10;}
	.st1{fill:#D1EE83;stroke:#97BD30;stroke-width:4;stroke-miterlimit:10;}
	.st2{fill:#97BD30;}
	.st3{fill:none;stroke:#97BD30;stroke-width:4;stroke-miterlimit:10;}
	.st4{fill:none;stroke:#C8D2D2;stroke-width:4;stroke-miterlimit:10;}
	.st5{fill:#C8D2D2;}
	.st6{fill:#D1EE83;stroke:#97BD30;stroke-width:3.4991;stroke-miterlimit:10;}
	.st7{fill:#D1EE83;stroke:#97BD30;stroke-width:5.6814;stroke-miterlimit:10;}
	.st8{fill:none;stroke:#97BD30;stroke-width:4.8706;stroke-miterlimit:10;}
	.st9{fill:none;stroke:#C8D2D2;stroke-width:4.8076;stroke-miterlimit:10;}
	.st10{fill:none;stroke:#C8D2D2;stroke-width:3.2416;stroke-miterlimit:10;}
	.st11{fill:none;stroke:#97BD30;stroke-width:2.5;stroke-miterlimit:10;}
	.st12{fill:#EE9B83;stroke:#BD3130;stroke-width:2.5;stroke-miterlimit:10;}
	.st13{fill:#BD3130;}
	.st14{fill:none;stroke:#BD3130;stroke-width:4;stroke-miterlimit:10;}
	.st15{fill:#EE9B83;stroke:#BD3130;stroke-width:4;stroke-miterlimit:10;}
	.st16{fill:none;stroke:#97BD30;stroke-width:3;stroke-miterlimit:10;}
	.st17{fill:#FF990D;}
	.st18{fill:none;stroke:#BD3130;stroke-width:2.4036;stroke-miterlimit:10;}
	.st19{fill:none;stroke:#C8D2D2;stroke-width:2.4036;stroke-miterlimit:10;}
	.st20{fill:#EE9B83;stroke:#BD3130;stroke-width:2.4036;stroke-miterlimit:10;}
	.st21{fill:#D1EE83;stroke:#97BD30;stroke-width:1.8073;stroke-miterlimit:10;}
	.st22{fill:#D1EE83;stroke:#97BD30;stroke-width:3;stroke-miterlimit:10;}
	.st23{fill:none;stroke:#C8D2D2;stroke-width:3;stroke-miterlimit:10;}
	.st24{fill:#D1EE83;stroke:#97BD30;stroke-width:2.6609;stroke-miterlimit:10;}
	.st25{fill:none;stroke:#BD3130;stroke-width:2.6609;stroke-miterlimit:10;}
	.st26{fill:none;stroke:#97BD30;stroke-width:2.6609;stroke-miterlimit:10;}
	.st27{fill:#EE9B83;stroke:#BD3130;stroke-width:2.6609;stroke-miterlimit:10;}
	.st28{fill:none;stroke:#C8D2D2;stroke-width:2.6609;stroke-miterlimit:10;}
	.st29{fill:#EE9B83;stroke:#BD3130;stroke-width:1.8073;stroke-miterlimit:10;}
	.st30{fill:none;stroke:#97BD30;stroke-width:1.8069;stroke-miterlimit:10;}
	.st31{fill:none;stroke:#BD3130;stroke-width:2.9701;stroke-miterlimit:10;}
	.st32{fill:none;stroke:#C8D2D2;stroke-width:2.9701;stroke-miterlimit:10;}
	.st33{fill:#EE9B83;stroke:#BD3130;stroke-width:2.9701;stroke-miterlimit:10;}
	.st34{font-family:'Asap-Medium';}
	.st35{font-size:14px;}
	.st36{font-size:10px;}
	.st37{fill:none;stroke:#BD3130;stroke-width:3;stroke-miterlimit:10;}
	.st38{fill:#EE9B83;stroke:#BD3130;stroke-width:3;stroke-miterlimit:10;}
	.st39{fill:none;stroke:#BD3130;stroke-width:2.6101;stroke-miterlimit:10;}
	.st40{fill:none;stroke:#C8D2D2;stroke-width:2.6101;stroke-miterlimit:10;}
	.st41{fill:#EE9B83;stroke:#BD3130;stroke-width:2.6101;stroke-miterlimit:10;}
	.st42{fill:none;stroke:#97BD30;stroke-width:2.6364;stroke-miterlimit:10;}
	.st43{fill:none;stroke:#97BD30;stroke-width:1.8073;stroke-miterlimit:10;}
</style>
<path class="st29" d="M149,25.4H3.6c-1.1,0-2-0.9-2-2V3.3c0-1.1,0.9-2,2-2H149c1.1,0,2,0.9,2,2v20.2C151,24.5,150.1,25.4,149,25.4z"
	/>
<text transform="matrix(1 0 0 1 58.0483 17.6077)" class="st34 st35">OPEN</text>
<text transform="matrix(1 0 0 1 42.36 38.8726)" class="st34 st36">Fallback called</text>
<g>
	<g>
		<path class="st13" d="M14.8,85.2L14.8,85.2c-0.9,0.5-2.1,0.1-2.6-0.8L8,76.2c-0.5-0.9-0.1-2.1,0.8-2.6h0c0.9-0.5,2.1-0.1,2.6,0.8
			l4.3,8.2C16.1,83.6,15.8,84.7,14.8,85.2z"/>
		<path class="st37" d="M11.8,79.4c0,0-10.8,2.6-3.9,15.8s10.4,20.1,10.4,20.1"/>
		<path class="st23" d="M41.4,125.7l-15.7,8.1c-3.7,1.9-8.3,0.5-10.2-3.2l-1.2-2.3c-1.9-3.7-0.5-8.3,3.2-10.2l15.7-8.1
			c3.7-1.9,8.3-0.5,10.2,3.2l1.2,2.3C46.6,119.1,45.1,123.7,41.4,125.7z"/>
		<path class="st5" d="M14.8,117.6l-0.1-0.2c-0.3-0.6-0.1-1.5,0.6-1.8l5.1-2.6c0.6-0.3,1.5-0.1,1.8,0.6l0.1,0.2
			c0.3,0.6,0.1,1.5-0.6,1.8l-5.1,2.6C15.9,118.5,15.1,118.2,14.8,117.6z"/>
		<path class="st38" d="M32.8,73.7l7.5-13.6l-15.4-1.8l7.6-13.8L4.8,58.9C4,59.3,3.7,60.3,4.1,61l18.3,35.3c0.4,0.8,1.4,1.1,2.1,0.7
			l15.9-8.3l7.8-13.2L32.8,73.7z"/>
	</g>
	<g>
		<path class="st13" d="M99.4,80.2L99.4,80.2c-1,0-1.9-0.8-1.9-1.9L97.4,69c0-1,0.8-1.9,1.9-1.9h0c1,0,1.9,0.8,1.9,1.9l0.1,9.3
			C101.3,79.3,100.4,80.2,99.4,80.2z"/>
		<path class="st39" d="M99.1,73.7c0,0,10.8-2.8,10.9,12.2c0,3.8,0.1,12.4,0.1,15.3"/>
		<polygon class="st40" points="100.9,103.7 114.9,127.5 128.5,103.5 		"/>
		<path class="st5" d="M114.2,101.9l0-0.2c0-0.7-0.6-1.3-1.3-1.3l-5.7,0c-0.7,0-1.3,0.6-1.3,1.3l0,0.2c0,0.7,0.6,1.3,1.3,1.3l5.7,0
			C113.6,103.2,114.2,102.6,114.2,101.9z"/>
		<path class="st41" d="M96,52.2l-17.8,0.1l-13.1,8.8l13,8.6l-12.8,8.7l13,8.6l-12.9,8.3l31.1-0.2c0.9,0,1.6-0.7,1.6-1.6l-0.3-39.8
			C97.5,52.9,96.8,52.2,96,52.2z"/>
		<circle class="st40" cx="139.9" cy="73" r="8.2"/>
		<path class="st2" d="M130.7,80.2L130.7,80.2c1,0,1.9-0.8,1.9-1.9l0.1-9.3c0-1-0.8-1.9-1.9-1.9l0,0c-1,0-1.9,0.8-1.9,1.9l-0.1,9.3
			C128.8,79.3,129.7,80.2,130.7,80.2z"/>
		<path class="st42" d="M131,73.7c0,0-10.8-2.8-10.9,12.2c0,3.8-0.1,12.4-0.1,15.3"/>
		<path class="st5" d="M115.9,101.9l0-0.2c0-0.7,0.6-1.3,1.3-1.3l5.7,0c0.7,0,1.3,0.6,1.3,1.3l0,0.2c0,0.7-0.6,1.3-1.3,1.3l-5.7,0
			C116.5,103.2,115.9,102.6,115.9,101.9z"/>
	</g>
</g>
</svg>
