<?xml version="1.0" encoding="utf-8"?>
<!-- Generator: Adobe Illustrator 19.1.0, SVG Export Plug-In . SVG Version: 6.00 Build 0)  -->
<svg version="1.1" id="Layer_1" xmlns="http://www.w3.org/2000/svg" xmlns:xlink="http://www.w3.org/1999/xlink" x="0px" y="0px"
	 width="151.6px" height="135.4px" viewBox="0 0 151.6 135.4" style="enable-background:new 0 0 151.6 135.4;" xml:space="preserve"
	>
<style type="text/css">
	.st0{fill:#D1EE83;stroke:#97BD30;stroke-width:2.5;stroke-miterlimit:10;}
	.st1{fill:#D1EE83;stroke:#97BD30;stroke-width:4;stroke-miterlimit:10;}
	.st2{fill:#97BD30;}
	.st3{fill:none;stroke:#97BD30;stroke-width:4;stroke-miterlimit:10;}
	.st4{fill:none;stroke:#C8D2D2;stroke-width:4;stroke-miterlimit:10;}
	.st5{fill:#C8D2D2;}
	.st6{fill:#D1EE83;stroke:#97BD30;stroke-width:3.4991;stroke-miterlimit:10;}
	.st7{fill:#D1EE83;stroke:#97BD30;stroke-width:5.6814;stroke-miterlimit:10;}
	.st8{fill:none;stroke:#97BD30;stroke-width:4.8706;stroke-miterlimit:10;}
	.st9{fill:none;stroke:#C8D2D2;stroke-width:4.8076;stroke-miterlimit:10;}
	.st10{fill:none;stroke:#C8D2D2;stroke-width:3.2416;stroke-miterlimit:10;}
	.st11{fill:none;stroke:#97BD30;stroke-width:2.5;stroke-miterlimit:10;}
	.st12{fill:#EE9B83;stroke:#BD3130;stroke-width:2.5;stroke-miterlimit:10;}
	.st13{fill:#BD3130;}
	.st14{fill:none;stroke:#BD3130;stroke-width:4;stroke-miterlimit:10;}
	.st15{fill:#EE9B83;stroke:#BD3130;stroke-width:4;stroke-miterlimit:10;}
	.st16{fill:none;stroke:#97BD30;stroke-width:3;stroke-miterlimit:10;}
	.st17{fill:#FF990D;}
	.st18{fill:none;stroke:#BD3130;stroke-width:2.4036;stroke-miterlimit:10;}
	.st19{fill:none;stroke:#C8D2D2;stroke-width:2.4036;stroke-miterlimit:10;}
	.st20{fill:#EE9B83;stroke:#BD3130;stroke-width:2.4036;stroke-miterlimit:10;}
	.st21{fill:#D1EE83;stroke:#97BD30;stroke-width:1.8073;stroke-miterlimit:10;}
	.st22{fill:#D1EE83;stroke:#97BD30;stroke-width:3;stroke-miterlimit:10;}
	.st23{fill:none;stroke:#C8D2D2;stroke-width:3;stroke-miterlimit:10;}
	.st24{fill:#D1EE83;stroke:#97BD30;stroke-width:2.6609;stroke-miterlimit:10;}
	.st25{fill:none;stroke:#BD3130;stroke-width:2.6609;stroke-miterlimit:10;}
	.st26{fill:none;stroke:#97BD30;stroke-width:2.6609;stroke-miterlimit:10;}
	.st27{fill:#EE9B83;stroke:#BD3130;stroke-width:2.6609;stroke-miterlimit:10;}
	.st28{fill:none;stroke:#C8D2D2;stroke-width:2.6609;stroke-miterlimit:10;}
	.st29{fill:#EE9B83;stroke:#BD3130;stroke-width:1.8073;stroke-miterlimit:10;}
	.st30{fill:none;stroke:#97BD30;stroke-width:1.8069;stroke-miterlimit:10;}
	.st31{fill:none;stroke:#BD3130;stroke-width:2.9701;stroke-miterlimit:10;}
	.st32{fill:none;stroke:#C8D2D2;stroke-width:2.9701;stroke-miterlimit:10;}
	.st33{fill:#EE9B83;stroke:#BD3130;stroke-width:2.9701;stroke-miterlimit:10;}
	.st34{fill:none;stroke:#BD3130;stroke-width:3;stroke-miterlimit:10;}
	.st35{fill:#EE9B83;stroke:#BD3130;stroke-width:3;stroke-miterlimit:10;}
	.st36{fill:none;stroke:#BD3130;stroke-width:2.6101;stroke-miterlimit:10;}
	.st37{fill:none;stroke:#C8D2D2;stroke-width:2.6101;stroke-miterlimit:10;}
	.st38{fill:#EE9B83;stroke:#BD3130;stroke-width:2.6101;stroke-miterlimit:10;}
	.st39{fill:none;stroke:#97BD30;stroke-width:2.6364;stroke-miterlimit:10;}
	.st40{fill:none;stroke:#97BD30;stroke-width:1.8073;stroke-miterlimit:10;}
	.st41{fill:none;}
	.st42{font-family:'Asap-Medium';}
	.st43{font-size:8px;}
</style>
<g>
	<path class="st30" d="M148.2,24.9H2.9c-1.1,0-2-0.9-2-2V2.8c0-1.1,0.9-2,2-2h145.4c1.1,0,2,0.9,2,2v20.2
		C150.2,24,149.3,24.9,148.2,24.9z"/>
	<path class="st2" d="M106.3,70.8L106.3,70.8c-1.3,0-2.3-1-2.3-2.3V57.4c0-1.3,1-2.3,2.3-2.3l0,0c1.3,0,2.3,1,2.3,2.3v11.2
		C108.6,69.8,107.5,70.8,106.3,70.8z"/>
	<path class="st2" d="M39.5,70.8L39.5,70.8c-1.3,0-2.3-1-2.3-2.3V57.4c0-1.3,1-2.3,2.3-2.3h0c1.3,0,2.3,1,2.3,2.3v11.2
		C41.8,69.8,40.8,70.8,39.5,70.8z"/>
	<path class="st16" d="M39.5,63c0,0-13-3.3-13,14.7s0,27.3,0,27.3"/>
	<path class="st16" d="M106,63c0,0,13-3.3,13,14.7c0,4.6,0,15,0,18.4"/>
	<path class="st23" d="M45.6,128.8H24.3c-5,0-9.1-4.1-9.1-9.1v-3.1c0-5,4.1-9.1,9.1-9.1h21.2c5,0,9.1,4.1,9.1,9.1v3.1
		C54.7,124.7,50.6,128.8,45.6,128.8z"/>
	<polygon class="st23" points="102.7,99.1 119.3,127.9 135.9,99.1 	"/>
	<path class="st5" d="M21.6,104.4v-0.3c0-0.9,0.7-1.6,1.6-1.6h6.9c0.9,0,1.6,0.7,1.6,1.6v0.3c0,0.9-0.7,1.6-1.6,1.6h-6.9
		C22.3,106,21.6,105.3,21.6,104.4z"/>
	<path class="st5" d="M123.9,96.1v-0.3c0-0.9-0.7-1.6-1.6-1.6h-6.9c-0.9,0-1.6,0.7-1.6,1.6v0.3c0,0.9,0.7,1.6,1.6,1.6h6.9
		C123.2,97.7,123.9,97,123.9,96.1z"/>
	<g>
		<path d="M48.2,7.7v9.1c0,0.3-0.2,0.4-0.7,0.4h-0.3c-0.5,0-0.7-0.1-0.7-0.4v-3.9h-4.3v3.9c0,0.3-0.2,0.4-0.7,0.4H41
			c-0.5,0-0.7-0.1-0.7-0.4V7.7c0-0.3,0.2-0.4,0.7-0.4h0.4c0.5,0,0.7,0.1,0.7,0.4v3.6h4.3V7.7c0-0.3,0.2-0.4,0.7-0.4h0.3
			C47.9,7.3,48.2,7.4,48.2,7.7z"/>
		<path d="M54.6,7.6l3.2,9.1c0,0.1,0,0.2,0,0.2c0,0.2-0.2,0.3-0.7,0.3h-0.4c-0.4,0-0.6-0.1-0.7-0.3L55.3,15h-3.6l-0.6,1.9
			c-0.1,0.2-0.3,0.3-0.6,0.3h-0.4c-0.5,0-0.8-0.1-0.8-0.3c0,0,0-0.1,0.1-0.2l3.2-9.1c0.1-0.2,0.3-0.3,0.7-0.3h0.6
			C54.3,7.3,54.5,7.4,54.6,7.6z M53.5,9.4c0,0,0,0.2-0.1,0.4c0,0.2-0.1,0.4-0.1,0.5l-1,3.1h2.5l-1-3.1C53.7,10,53.6,9.8,53.5,9.4
			L53.5,9.4z"/>
		<path d="M60.8,7.7v7.9h3.4c0.1,0,0.2,0,0.3,0.1c0.1,0.1,0.1,0.2,0.1,0.5v0.4c0,0.2,0,0.4-0.1,0.5c-0.1,0.1-0.1,0.1-0.3,0.1h-4.7
			c-0.2,0-0.3,0-0.4-0.1C59,16.9,59,16.8,59,16.6V7.7c0-0.3,0.2-0.4,0.7-0.4H60C60.5,7.3,60.8,7.4,60.8,7.7z"/>
		<path d="M71.1,7.5c0.1,0.1,0.1,0.2,0.1,0.5v0.4c0,0.2,0,0.4-0.1,0.5c-0.1,0.1-0.1,0.1-0.3,0.1h-3.3v2.5h3.1c0.1,0,0.2,0,0.3,0.1
			c0.1,0.1,0.1,0.2,0.1,0.5v0.4c0,0.2,0,0.4-0.1,0.5s-0.1,0.1-0.3,0.1h-3.1v3.9c0,0.3-0.2,0.4-0.7,0.4h-0.3c-0.5,0-0.7-0.1-0.7-0.4
			V7.8c0-0.2,0-0.3,0.1-0.4c0.1-0.1,0.2-0.1,0.4-0.1h4.6C71,7.3,71.1,7.4,71.1,7.5z"/>
		<path d="M75.6,12.9c0.1,0.1,0.1,0.2,0.1,0.5v0.1c0,0.2,0,0.4-0.1,0.4C75.5,14,75.4,14,75.3,14h-2.8c-0.1,0-0.2,0-0.3-0.1
			c-0.1-0.1-0.1-0.2-0.1-0.4v-0.1c0-0.2,0-0.4,0.1-0.5c0.1-0.1,0.1-0.1,0.3-0.1h2.8C75.4,12.7,75.5,12.8,75.6,12.9z"/>
		<path d="M84.6,8.5c0.8,0.8,1.1,2.1,1.1,3.7s-0.4,2.9-1.1,3.7s-1.9,1.3-3.3,1.3s-2.5-0.4-3.3-1.3s-1.1-2.1-1.1-3.7
			c0-1.6,0.4-2.8,1.1-3.7s1.9-1.3,3.3-1.3S83.8,7.6,84.6,8.5z M79.4,9.6c-0.4,0.6-0.7,1.4-0.7,2.6c0,1.1,0.2,2,0.7,2.6
			c0.4,0.6,1.1,0.9,1.9,0.9c0.8,0,1.5-0.3,1.9-0.9c0.4-0.6,0.7-1.4,0.7-2.6c0-1.1-0.2-2-0.7-2.6c-0.4-0.6-1.1-0.9-1.9-0.9
			C80.4,8.8,79.8,9.1,79.4,9.6z"/>
		<path d="M93.1,7.9c0.7,0.4,1,1.2,1,2.3c0,0.8-0.2,1.4-0.6,1.9c-0.4,0.4-0.8,0.7-1.3,0.9c-0.5,0.2-0.9,0.2-1.3,0.2h-1.7v3.5
			c0,0.3-0.2,0.4-0.7,0.4h-0.3c-0.5,0-0.7-0.1-0.7-0.4V7.8c0-0.2,0-0.3,0.1-0.4c0.1-0.1,0.2-0.1,0.4-0.1h2.9
			C91.7,7.3,92.5,7.5,93.1,7.9z M89.3,8.9v2.8h1.6c0.4,0,0.7-0.1,1-0.3c0.3-0.2,0.4-0.6,0.4-1.1c0-0.5-0.1-0.9-0.4-1.1
			s-0.6-0.3-1-0.3H89.3z"/>
		<path d="M101.3,7.5c0.1,0.1,0.1,0.2,0.1,0.5v0.4c0,0.2,0,0.4-0.1,0.5c-0.1,0.1-0.2,0.1-0.3,0.1h-3.7v2.5h3.3c0.1,0,0.2,0,0.3,0.1
			s0.1,0.2,0.1,0.5v0.3c0,0.2,0,0.4-0.1,0.5s-0.2,0.1-0.3,0.1h-3.3v2.7h3.7c0.1,0,0.2,0,0.3,0.1s0.1,0.2,0.1,0.5v0.4
			c0,0.2,0,0.4-0.1,0.5c-0.1,0.1-0.2,0.1-0.3,0.1h-5c-0.2,0-0.3,0-0.4-0.1c-0.1-0.1-0.1-0.2-0.1-0.4V7.8c0-0.2,0-0.3,0.1-0.4
			c0.1-0.1,0.2-0.1,0.4-0.1h5C101.1,7.3,101.2,7.4,101.3,7.5z"/>
		<path d="M111,7.7v9.1c0,0.3-0.2,0.4-0.7,0.4h-0.4c-0.2,0-0.3,0-0.5-0.1s-0.2-0.1-0.3-0.2l-3.9-5.9l-0.3-0.5v6.4
			c0,0.3-0.2,0.4-0.7,0.4h-0.3c-0.5,0-0.7-0.1-0.7-0.4V7.7c0-0.3,0.2-0.4,0.7-0.4h0.5c0.2,0,0.4,0,0.5,0.1c0.1,0,0.2,0.1,0.3,0.3
			l3.7,5.7l0.4,0.6V7.7c0-0.3,0.2-0.4,0.7-0.4h0.3C110.8,7.3,111,7.4,111,7.7z"/>
	</g>
	<polygon class="st17" points="67.3,68.5 82.7,58.1 67.3,47.8 81,38.6 76.4,38.6 62.7,47.8 78.1,58.1 62.7,68.5 78.1,78.8 
		64.5,87.4 69.3,87.4 82.8,78.9 	"/>
	<path class="st16" d="M102.2,88.8h-59c-1,0-1.9-0.9-1.9-1.9V39c0-1,0.9-1.9,1.9-1.9h59c1,0,1.9,0.9,1.9,1.9v47.9
		C104.1,87.9,103.3,88.8,102.2,88.8z"/>
</g>
<g>
	<path d="M115.1,106.3l1.8,5.2c0,0,0,0.1,0,0.1c0,0.1-0.1,0.2-0.4,0.2h-0.2c-0.2,0-0.4-0.1-0.4-0.2l-0.4-1.1h-2.1l-0.4,1.1
		c0,0.1-0.2,0.2-0.4,0.2h-0.2c-0.3,0-0.4-0.1-0.4-0.2c0,0,0-0.1,0-0.1l1.8-5.2c0-0.1,0.2-0.2,0.4-0.2h0.4
		C114.9,106.2,115,106.2,115.1,106.3z M114.5,107.4c0,0,0,0.1,0,0.2c0,0.1,0,0.2-0.1,0.3l-0.6,1.8h1.5l-0.6-1.8
		C114.6,107.8,114.5,107.6,114.5,107.4L114.5,107.4z"/>
	<path d="M120.4,107.8c0.2,0.2,0.4,0.4,0.5,0.7c0.1,0.3,0.2,0.7,0.2,1.1c0,0.7-0.1,1.2-0.4,1.6s-0.7,0.6-1.2,0.6
		c-0.3,0-0.7-0.1-0.9-0.3v1.7c0,0.2-0.1,0.2-0.4,0.2H118c-0.3,0-0.4-0.1-0.4-0.2V109c0-0.4,0-0.6,0-0.8c0-0.2,0-0.3,0-0.3
		c0-0.1,0.1-0.1,0.3-0.2c0.2,0,0.3-0.1,0.5-0.1c0.1,0,0.1,0,0.2,0.1s0.1,0.2,0.1,0.2s0,0.1,0,0.2c0.1-0.2,0.3-0.3,0.5-0.4
		c0.2-0.1,0.4-0.2,0.7-0.2C119.9,107.6,120.2,107.7,120.4,107.8z M118.9,108.5c-0.1,0.1-0.3,0.2-0.4,0.4v1.9
		c0.2,0.2,0.4,0.2,0.7,0.2c0.6,0,0.9-0.4,0.9-1.3c0-0.4-0.1-0.8-0.2-1s-0.3-0.3-0.6-0.3C119.2,108.4,119,108.4,118.9,108.5z"/>
	<path d="M125,107.8c0.2,0.2,0.4,0.4,0.5,0.7c0.1,0.3,0.2,0.7,0.2,1.1c0,0.7-0.1,1.2-0.4,1.6s-0.7,0.6-1.2,0.6
		c-0.3,0-0.7-0.1-0.9-0.3v1.7c0,0.2-0.1,0.2-0.4,0.2h-0.2c-0.3,0-0.4-0.1-0.4-0.2V109c0-0.4,0-0.6,0-0.8c0-0.2,0-0.3,0-0.3
		c0-0.1,0.1-0.1,0.3-0.2c0.2,0,0.3-0.1,0.5-0.1c0.1,0,0.1,0,0.2,0.1s0.1,0.2,0.1,0.2s0,0.1,0,0.2c0.1-0.2,0.3-0.3,0.5-0.4
		c0.2-0.1,0.4-0.2,0.7-0.2C124.5,107.6,124.8,107.7,125,107.8z M123.5,108.5c-0.1,0.1-0.3,0.2-0.4,0.4v1.9c0.2,0.2,0.4,0.2,0.7,0.2
		c0.6,0,0.9-0.4,0.9-1.3c0-0.4-0.1-0.8-0.2-1s-0.3-0.3-0.6-0.3C123.8,108.4,123.6,108.4,123.5,108.5z"/>
</g>
<rect x="18.5" y="114.1" class="st41" width="34.4" height="6.2"/>
<text transform="matrix(1 0 0 1 22.9953 120.1031)" class="st42 st43">Service</text>
</svg>
