<?xml version="1.0" encoding="utf-8"?>
<!-- Generator: Adobe Illustrator 22.0.1, SVG Export Plug-In . SVG Version: 6.00 Build 0)  -->
<!DOCTYPE svg PUBLIC "-//W3C//DTD SVG 1.1//EN" "http://www.w3.org/Graphics/SVG/1.1/DTD/svg11.dtd" [
	<!ENTITY st0 "fill:#E3BC13;">
	<!ENTITY st1 "fill:#FFFFFF;">
	<!ENTITY st2 "fill:#727F9B;">
	<!ENTITY st3 "fill:#515A6D;">
	<!ENTITY st4 "fill:#D0DAED;">
	<!ENTITY st5 "fill:#A1C14D;">
	<!ENTITY st6 "fill:#D0DEA4;">
	<!ENTITY st7 "fill:#E58231;">
	<!ENTITY st8 "fill:#F5CCB1;">
	<!ENTITY st9 "fill:#F49F60;">
	<!ENTITY st10 "fill:#E58231;stroke:#FFFFFF;stroke-miterlimit:10;">
	<!ENTITY st11 "fill:#FF00FF;">
	<!ENTITY st12 "fill:#E62325;">
	<!ENTITY st13 "opacity:0.4;">
	<!ENTITY st14 "fill:#DB7C00;">
	<!ENTITY st15 "fill:#D0DAED;stroke:#727F9B;stroke-miterlimit:10;">
	<!ENTITY st16 "fill:#C8D2D2;">
	<!ENTITY st17 "fill:#3F4659;">
	<!ENTITY st18 "fill:#8C9696;">
	<!ENTITY st19 "fill:#343334;">
	<!ENTITY st20 "opacity:0.5;">
	<!ENTITY st21 "fill:#E3700D;">
	<!ENTITY st22 "fill:#F3F4F7;">
	<!ENTITY st23 "fill:#FF5C49;">
]>
<svg version="1.1" xmlns="http://www.w3.org/2000/svg" xmlns:xlink="http://www.w3.org/1999/xlink" x="0px" y="0px"
	 viewBox="0 0 298.5 331.4" style="enable-background:new 0 0 298.5 331.4;" xml:space="preserve">
<g id="working_artboard">
	<path style="&st0;" d="M260.6,245c-2.8-0.3-4.1-4.5-6.2-7.2c2.2-1,3.4-2.4,6.1-3.8c1.4-0.7,0.6-2.5-0.7-2.6c-1.8-0.2-3-0.8-4.3-1.6
		c2-1.1,4.4-1.4,6.1-3c0.7-0.7,0.5-1.7-0.3-2.2c-2.1-1.4-4.2-2.6-6.4-3.5c1.8-1,3.7-2.1,5.5-3c1-0.5,0.9-2,0-2.5
		c-2.1-1.1-2.8-1.4-3.1-3.8c-0.2-1.9,0-3.9,0-5.8c0-4.2,0-8.3-0.1-12.5c-0.1-7.9-0.2-15.8-0.3-23.6c-0.3-16.2-0.7-32.4-1.3-48.7
		c0-0.1,0-0.2,0-0.3c1.3-2,2.7-3.9,4.2-5.8c0.6-0.7,0.5-1.7-0.3-2.2c-1.9-1.3-3.8-2.5-5.7-3.8c1.7-1.6,3.4-3.1,5.1-4.7
		c0.8-0.7,0.4-2.2-0.6-2.4c-1.3-0.3-2.6-0.7-3.8-1.2c2-1.9,3.8-3.9,5.4-6.2c0.7-1-0.3-2-1.2-2.1c-1.3-0.1-2.7-0.3-4-0.4
		c1.9-5.4,3.5-10.8,4.8-16.4c0.4-1.8-2.3-2.5-2.7-0.8c-1.4,6.1-3.2,12.1-5.3,18c-0.3,0.9,0.5,1.7,1.4,1.8c1.1,0.1,2.2,0.2,3.3,0.3
		c-1.5,1.8-3.2,3.5-5,5.1c-0.7,0.6-0.5,1.8,0.3,2.2c1.3,0.7,2.5,1.2,3.8,1.7c-1.5,1.4-3,2.8-4.5,4.2c-0.7,0.7-0.4,1.7,0.3,2.2
		c2,1.3,4,2.6,6,3.9c-1.3,1.7-2.6,3.4-3.7,5.2c-0.3,0.4-0.3,0.8-0.2,1.1c0,0.1-0.1,0.3,0,0.4c0.4,12.5,0.7,25,1,37.5
		c-6.1-1.4-12-3.2-17.9-5.3c-0.9-0.3-1.7,0.5-1.8,1.4c-0.1,1.1-0.2,2.2-0.3,3.3c-1.8-1.5-3.5-3.2-5.1-5c-0.6-0.7-1.8-0.5-2.2,0.3
		c-0.7,1.3-1.2,2.5-1.7,3.8c-1.4-1.5-2.8-3-4.2-4.5c-0.7-0.7-1.7-0.4-2.2,0.3c-1.3,2-2.6,4-3.9,6c-1.7-1.3-3.4-2.6-5.2-3.7
		c-0.4-0.3-0.8-0.3-1.1-0.2c-0.1,0-0.3-0.1-0.4,0c-31.2,1-99.4,1.6-130.6,1.7c-0.5,0-1,0.3-1.2,0.7c-0.3,0.5-0.5,1-0.8,1.5
		c-1.1-2-2.3-4-3.3-6.1c-0.6-1.1-2.3-0.8-2.6,0.3c-0.7,2.6-1.8,4.9-3.1,7.1c-1-2-1.4-4.4-3-6c-0.7-0.7-1.7-0.4-2.2,0.3
		c-1,1.4-1.8,2.6-2.4,4c-1.1-1.5-2.1-2.9-2.5-5.1c-0.2-1.2-2.1-1.4-2.6-0.3c-1.3,2.8-4.3,3.7-6.6,5.3c-0.2-14.3-0.4-28.7-0.4-43
		c0-0.5-0.3-1-0.7-1.2c-0.5-0.3-1-0.5-1.5-0.8c2-1.1,4-2.3,6.1-3.3c1.1-0.6,0.8-2.3-0.3-2.6c-2.6-0.7-4.9-1.8-7.1-3.1
		c2-1,4.4-1.4,6-3c0.7-0.7,0.4-1.7-0.3-2.2c-1.4-1-2.6-1.8-4-2.4c1.5-1.1,2.9-2.1,5.1-2.5c1.2-0.2,1.4-2.1,0.3-2.6
		c-4.5-2.1-4.1-8.8-9.7-9.4c-1.8-0.2-1.8,2.6,0,2.8c2.8,0.3,4.1,4.5,6.2,7.2c-2.2,1-3.4,2.4-6.1,3.8c-1.4,0.7-0.6,2.5,0.7,2.6
		c1.8,0.2,3,0.8,4.3,1.6c-2,1.1-4.4,1.4-6.1,3c-0.7,0.7-0.5,1.7,0.3,2.2c2.1,1.4,4.2,2.6,6.4,3.5c-1.8,1-3.7,2.1-5.5,3
		c-1,0.5-0.9,2,0,2.5c2.1,1.1,2.8,1.4,3.1,3.8c0.2,1.9,0,3.9,0,5.8c0,4.2,0,8.3,0.1,12.5c0.1,7.9,0.2,15.8,0.3,23.6
		c0,0.8,0,1.6,0.1,2.4c0,0,0,0.1,0,0.1c0,0.2,0,0.4,0,0.5c0.3,15.2,0.7,30.4,1.2,45.6c0,0.1,0,0.2,0,0.3c-1.3,2-2.7,3.9-4.2,5.8
		c-0.6,0.7-0.5,1.7,0.3,2.2c1.9,1.3,3.8,2.5,5.7,3.8c-1.7,1.6-3.4,3.1-5.1,4.7c-0.8,0.7-0.4,2.2,0.6,2.4c1.3,0.3,2.6,0.7,3.8,1.2
		c-2,1.9-3.8,3.9-5.4,6.2c-0.7,1,0.3,2,1.2,2.1c1.3,0.1,2.7,0.3,4,0.4c-1.9,5.4-3.5,10.8-4.8,16.4c-0.4,1.8,2.3,2.5,2.7,0.8
		c1.4-6.1,3.2-12.1,5.3-18c0.3-0.9-0.5-1.7-1.4-1.8c-1.1-0.1-2.2-0.2-3.3-0.3c1.5-1.8,3.2-3.5,5-5.1c0.7-0.6,0.5-1.8-0.3-2.2
		c-1.3-0.7-2.5-1.2-3.8-1.7c1.5-1.4,3-2.8,4.5-4.2c0.7-0.7,0.4-1.7-0.3-2.2c-2-1.3-4-2.6-6-3.9c1.3-1.7,2.6-3.4,3.7-5.2
		c0.3-0.4,0.3-0.8,0.2-1.1c0-0.1,0.1-0.3,0-0.4c-0.5-15.4-0.9-30.9-1.2-46.3c0.5-2.7,4.5-4,7.1-6c1,2.2,2.4,3.4,3.8,6.1
		c0.7,1.4,2.5,0.6,2.6-0.7c0.2-1.8,0.8-3,1.6-4.3c1.1,2,1.4,4.4,3,6.1c0.7,0.7,1.7,0.5,2.2-0.3c1.4-2.1,2.6-4.2,3.5-6.4
		c1,1.8,2.1,3.7,3,5.5c0.5,1,2,0.9,2.5,0c1.1-2.1,1.4-2.8,3.8-3.1c1.9-0.2,3.9,0,5.8,0c4.2,0,8.3,0,12.5-0.1
		c7.9-0.1,15.8-0.2,23.6-0.3c16.2-0.3,69.4-0.7,85.7-1.3c0.1,0,0.2,0,0.3,0c2,1.3,3.9,2.7,5.8,4.2c0.7,0.6,1.7,0.5,2.2-0.3
		c1.3-1.9,2.5-3.8,3.8-5.7c1.6,1.7,3.1,3.4,4.7,5.1c0.7,0.8,2.2,0.4,2.4-0.6c0.3-1.3,0.7-2.6,1.2-3.8c1.9,2,3.9,3.8,6.2,5.4
		c1,0.7,2-0.3,2.1-1.2c0.1-1.3,0.3-2.7,0.4-4c5,1.8,11.8,4.1,17.1,5.5c0.4,17.5,0.6,35.1,0.6,52.6c0,0.5,0.3,1,0.7,1.2
		c0.5,0.3,1,0.5,1.5,0.8c-2,1.1-4,2.3-6.1,3.3c-1.1,0.6-0.8,2.3,0.3,2.6c2.6,0.7,4.9,1.8,7.1,3.1c-2,1-4.4,1.4-6,3
		c-0.7,0.7-0.4,1.7,0.3,2.2c1.4,1,2.6,1.8,4,2.4c-1.5,1.1-2.9,2.1-5.1,2.5c-1.2,0.2-1.4,2.1-0.3,2.6c4.5,2.1,4.1,8.8,9.7,9.4
		C262.4,248.1,262.4,245.2,260.6,245z"/>
	<g>
		<path style="&st18;" d="M247.1,18c0,28.5,0,57.1,0,85.6c0,6.9,0,13.9,0,20.8c0,3.8,0,7.7,0,11.5c0,1.3,0,2.6,0,3.9
			c0,1.6,0.8,6.6,0,7.8c-1.3,2-4.5,1.2-6.7,1.2c-3.9,0-7.8,0-11.7,0c-7.3,0-14.6,0-21.9,0c-29.5,0-59,0-88.5,0
			c-15.3,0-30.6,0-45.8,0c-3.3,0-6.6,0-10,0c-2.4,0-7,1-8.4-1.2c-1.1-1.7,0-7.7,0-9.8c0-3.8,0-7.7,0-11.5c0-28.4,0-56.9,0-85.3
			c0-7,0.1-14.1,0-21.1c0-3-0.3-5.3-3-7c-3.7-2.4-10.7-2.1-13.4,1.8c-2.4,3.4-1.1,9.4-1.1,13.1c0,7.8,0,15.6,0,23.4
			c0,14.1,0,28.3,0,42.4c0,28,0,55.9,0,83.8c0,29.1,0,58.1,0,87.2c0,7.1,0,14.3,0,21.4c0,4.1-1.5,11.4,1.1,15.1
			c2.7,3.9,9.7,4.2,13.4,1.8c2-1.2,2.8-2.9,3-5.1c0.9-7.5,0-15.5,0-23c0-14,0-28,0-42c0-14.4,0-28.9,0-43.3c0-6.2-0.9-13.2,0-19.3
			c0.4-2.7-0.2-2.6,2.4-3.2c1.3-0.3,3,0,4.2,0c3.9,0,7.8,0,11.7,0c29.6,0,59.3,0,88.9,0c15.1,0,30.3,0,45.4,0c6.6,0,13.3,0,19.9,0
			c4,0,8,0,12,0c2.4,0,7-0.9,8.4,1.2c0.6,0.9,0,4.8,0,5.9c0,1.6,0,3.2,0,4.9c0,3.5,0,7.1,0,10.6c0,7.3,0,14.5,0,21.8
			c0,14.1,0,28.2,0,42.3c0,14.4-0.7,28.9,0,43.3c0.3,5.6,4.9,8.1,10.3,7.4c9.3-1.1,7.2-10.1,7.2-17.3c0-14.5,0-29.1,0-43.6
			c0-28.5-0.2-57-0.2-85.5c0-28.5,0.2-57,0.2-85.5c0-14.2,0-28.4,0-42.6c0-7.2,2.4-17.1-7.2-18.2C252.8,11,247.5,12.8,247.1,18
			c-0.1,1,1.4,1,1.5,0c0.4-5.4,8.5-6.2,12.2-3.8c3.2,2.1,2.3,6.4,2.3,9.7c0,3.9,0,7.8,0,11.7c0,15.5,0,30.9,0,46.4
			c0,29.9,0,59.8,0,89.7c0,30.3,0,60.7,0,91c0,7.8,0,15.6,0,23.3c0,5.8,2.4,15.2-5.3,16.7c-2.2,0.4-5,0.2-7-1.1
			c-3.2-2.1-2.3-6.2-2.3-9.5c0-7.7,0-15.4,0-23.2c0-34.2,0-68.5,0-102.7c0-0.4-0.3-0.8-0.8-0.8c-64.8,0-129.7,0-194.5,0
			c-0.4,0-0.8,0.3-0.8,0.8c0,39.1,0,78.2,0,117.3c0,4.4,0.3,9,0,13.3c-0.3,4.2-3.2,6-7.2,6c-3.5,0-6.5-1.4-7.2-5
			c-1-4.7,0-10.9,0-15.7c0-19.6,0-39.3,0-58.9c0-38.7,0-77.3,0-116c0-19.6,0-39.2,0-58.9c0-9.7-0.7-19.7,0-29.3
			c0.6-7.5,12.9-8.4,14.5-1c1,4.9,0,11.2,0,16.2c0,5.5,0,11,0,16.6c0,10.8,0,21.5,0,32.3c0,22.2,0,44.4,0,66.6
			c0,0.4,0.3,0.8,0.8,0.8c64.8,0,129.7,0,194.5,0c0.4,0,0.8-0.3,0.8-0.8c0-43.9,0-87.8,0-131.6C248.6,17,247.1,17,247.1,18z"/>
	</g>
	<g>
		<circle style="&st16;" cx="44.1" cy="44.2" r="43.5"/>
		<g>
			<path style="&st18;" d="M86.9,44.2C86.6,62,75.6,78.3,58.7,84.3c-16.5,5.9-35.6,1-47-12.4C0,58.3-1.9,38.2,7.3,22.6
				C16.3,7.1,34.6-1.2,52.2,2.2C72.3,6.1,86.5,23.9,86.9,44.2c0,1,1.5,1,1.5,0C88.1,25.7,76.7,8.9,59.1,2.5
				C41.6-3.7,21.5,1.9,9.8,16.3C-1.8,30.6-3.3,51.3,6.3,67c9.5,15.7,28.2,24,46.3,20.5c20.8-4,35.4-22.5,35.8-43.4
				C88.4,43.2,86.9,43.2,86.9,44.2z"/>
		</g>
	</g>
	<g>
		<g>
			<path style="&st19;" d="M15.8,49.8c-0.6-0.2-1.1-0.4-1.4-0.6c-0.2-0.2-0.3-0.3-0.3-0.5c0-0.1,0.1-0.3,0.2-0.6s0.3-0.4,0.4-0.4
				c0,0,0.2,0.1,0.4,0.2c0.4,0.2,0.8,0.4,1.2,0.5c0.4,0.1,0.9,0.2,1.5,0.2c0.7,0,1.3-0.2,1.7-0.6c0.4-0.4,0.7-0.9,0.7-1.5
				c0-0.4-0.1-0.8-0.4-1.1s-0.5-0.5-0.9-0.7c-0.3-0.2-0.8-0.4-1.5-0.6c-0.7-0.3-1.2-0.5-1.7-0.8s-0.8-0.6-1-1
				c-0.3-0.4-0.4-1-0.4-1.8c0-0.6,0.2-1.2,0.5-1.7c0.3-0.5,0.8-0.9,1.4-1.2c0.6-0.3,1.3-0.4,2.1-0.4c0.4,0,0.9,0.1,1.4,0.2
				s0.9,0.3,1.2,0.5c0.2,0.1,0.4,0.3,0.4,0.5c0,0.1-0.1,0.3-0.2,0.6s-0.3,0.4-0.4,0.4c-0.1,0-0.1,0-0.3-0.1
				c-0.1-0.1-0.2-0.1-0.2-0.1c-0.6-0.3-1.2-0.5-1.9-0.5c-0.7,0-1.3,0.2-1.7,0.5C16.2,39.5,16,40,16,40.7c0,0.4,0.1,0.7,0.3,1
				c0.2,0.3,0.5,0.4,0.7,0.6s0.7,0.3,1.4,0.6c0.7,0.3,1.3,0.5,1.8,0.8c0.5,0.3,0.8,0.6,1.2,1.1s0.5,1.1,0.5,1.9
				c0,1.1-0.4,1.9-1.1,2.6c-0.7,0.6-1.7,0.9-2.9,0.9C17.1,50.1,16.4,50,15.8,49.8z"/>
			<path style="&st19;" d="M24.8,48.9c-0.7-0.8-1.1-2-1.1-3.6c0-1.6,0.4-2.8,1.1-3.6c0.7-0.8,1.8-1.2,3.1-1.2c1.2,0,2.1,0.4,2.8,1.2
				c0.6,0.8,0.9,2,0.9,3.5c0,0.1-0.1,0.3-0.2,0.5c-0.1,0.2-0.3,0.3-0.4,0.3h-5.7c0.1,1,0.3,1.7,0.8,2.2c0.4,0.5,1.1,0.7,2,0.7
				c0.5,0,0.9-0.1,1.3-0.2c0.4-0.1,0.7-0.3,0.9-0.4s0.4-0.2,0.4-0.2c0.1,0,0.3,0.1,0.4,0.4s0.2,0.4,0.2,0.5c0,0.1-0.1,0.3-0.4,0.5
				c-0.3,0.2-0.7,0.3-1.2,0.5s-1,0.2-1.6,0.2C26.6,50.1,25.5,49.7,24.8,48.9z M30,44.6c0-1.9-0.7-2.8-2.2-2.8
				c-1.5,0-2.4,0.9-2.5,2.8H30z"/>
			<path style="&st19;" d="M34.3,49.6v-6.3c0-0.8,0-1.4-0.1-1.7s-0.1-0.5-0.1-0.6c0-0.1,0.1-0.2,0.3-0.3c0.2-0.1,0.4-0.1,0.6-0.1
				c0.2,0,0.3,0.1,0.4,0.3s0.1,0.4,0.2,0.5c0,0.2,0.1,0.3,0.1,0.4c0.6-0.9,1.3-1.4,2.1-1.4c0.3,0,0.6,0.1,0.8,0.2
				c0.2,0.1,0.3,0.3,0.3,0.5c0,0.2,0,0.4-0.1,0.6c-0.1,0.2-0.2,0.3-0.3,0.3c-0.1,0-0.2,0-0.4-0.1c-0.2-0.1-0.4-0.1-0.6-0.1
				c-0.3,0-0.5,0.1-0.8,0.2s-0.5,0.3-0.6,0.5c-0.2,0.2-0.3,0.3-0.3,0.3v6.6c0,0.3-0.2,0.4-0.7,0.4H35C34.5,50,34.3,49.9,34.3,49.6z"
				/>
			<path style="&st19;" d="M42.9,49.7L40,41.1c0-0.1-0.1-0.2-0.1-0.2c0-0.2,0.3-0.3,0.8-0.3h0.1c0.4,0,0.7,0.1,0.7,0.3l1.8,5.7
				c0.1,0.4,0.3,1.1,0.6,2.2H44l0.1-0.5c0.1-0.7,0.3-1.2,0.4-1.7l1.9-5.8c0.1-0.2,0.3-0.3,0.7-0.3h0.1c0.4,0,0.7,0.1,0.7,0.3
				c0,0.1,0,0.1-0.1,0.3l-2.9,8.6c-0.1,0.2-0.3,0.3-0.7,0.3h-0.6C43.2,50,42.9,49.9,42.9,49.7z"/>
			<path style="&st19;" d="M50.1,38.4v-1c0-0.3,0.3-0.4,0.9-0.4c0.5,0,0.8,0.1,0.8,0.4v1c0,0.3-0.3,0.4-0.9,0.4
				C50.4,38.9,50.1,38.7,50.1,38.4z M50.2,49.6v-8.7c0-0.3,0.2-0.4,0.7-0.4H51c0.5,0,0.7,0.1,0.7,0.4v8.7c0,0.3-0.2,0.4-0.7,0.4
				h-0.1C50.4,50,50.2,49.9,50.2,49.6z"/>
			<path style="&st19;" d="M55.6,48.9c-0.7-0.8-1.1-2-1.1-3.7c0-1.7,0.4-2.9,1.2-3.7c0.8-0.7,1.8-1.1,3-1.1c0.7,0,1.3,0.1,1.9,0.3
				s0.8,0.4,0.8,0.6c0,0.2-0.1,0.4-0.2,0.6s-0.3,0.4-0.4,0.4c0,0-0.1,0-0.1,0c0,0-0.1,0-0.1,0c-0.6-0.3-1.3-0.4-2-0.4
				c-1.7,0-2.6,1.1-2.6,3.4c0,1.3,0.2,2.2,0.6,2.8c0.4,0.6,1.1,0.8,2.2,0.8c0.7,0,1.4-0.2,2-0.5l0.2-0.1c0.1,0,0.3,0.1,0.4,0.4
				s0.2,0.4,0.2,0.6c0,0.1-0.1,0.3-0.4,0.4s-0.6,0.3-1,0.4c-0.4,0.1-0.9,0.1-1.4,0.1C57.4,50.1,56.3,49.7,55.6,48.9z"/>
			<path style="&st19;" d="M64.6,48.9c-0.7-0.8-1.1-2-1.1-3.6c0-1.6,0.4-2.8,1.1-3.6c0.7-0.8,1.8-1.2,3.1-1.2c1.2,0,2.1,0.4,2.8,1.2
				c0.6,0.8,0.9,2,0.9,3.5c0,0.1-0.1,0.3-0.2,0.5c-0.1,0.2-0.3,0.3-0.4,0.3h-5.7c0.1,1,0.3,1.7,0.8,2.2c0.4,0.5,1.1,0.7,2,0.7
				c0.5,0,0.9-0.1,1.3-0.2s0.7-0.3,0.9-0.4s0.4-0.2,0.4-0.2c0.1,0,0.3,0.1,0.4,0.4c0.1,0.2,0.2,0.4,0.2,0.5c0,0.1-0.2,0.3-0.4,0.5
				c-0.3,0.2-0.7,0.3-1.2,0.5s-1,0.2-1.6,0.2C66.5,50.1,65.4,49.7,64.6,48.9z M69.9,44.6c0-1.9-0.7-2.8-2.2-2.8
				c-1.5,0-2.4,0.9-2.5,2.8H69.9z"/>
		</g>
	</g>
	<g>
		<path style="&st1;" d="M55.2,12c6,0.6,11.2,3.7,14.5,8.8c0.4-0.3,0.8-0.6,1.2-0.9c-3.9-4.2-8.5-7.9-14.6-7.6
			c-0.7,0-1.1,1.1-0.4,1.4c4,1.8,7.2,4.7,9.3,8.6c0.5,0.9,1.8,0.1,1.3-0.8c-2.2-4.1-5.5-7.2-9.8-9.1c-0.1,0.5-0.3,0.9-0.4,1.4
			c5.7-0.3,9.8,3.3,13.5,7.1c0.6,0.6,1.6-0.2,1.2-0.9c-3.6-5.5-9.2-8.9-15.8-9.5C54.3,10.4,54.3,11.9,55.2,12L55.2,12z"/>
	</g>
	<g>
		<path style="&st1;" d="M16.5,66.5c4.3,9.8,14.6,12.9,24.4,14.5c0.8,0.1,1.3-0.9,0.6-1.4c-5-3.3-10-6.6-15.1-9.9
			c-0.7-0.4-1.4,0.4-1,1c1.3,2.3,2.7,4.2,4.7,5.9c0.2-0.4,0.5-0.8,0.7-1.3C24.2,74,20.9,68.2,18,62.6c-0.4-0.9-1.7-0.1-1.3,0.8
			c3.1,6,6.7,12,13.7,13.5c0.7,0.2,1.3-0.7,0.7-1.3c-1.9-1.6-3.3-3.4-4.5-5.6c-0.3,0.3-0.7,0.7-1,1c5,3.3,10,6.6,15.1,9.9
			c0.2-0.5,0.4-0.9,0.6-1.4C31.9,78,22,75.1,17.8,65.7C17.4,64.8,16.1,65.6,16.5,66.5L16.5,66.5z"/>
	</g>
	<g>
		<circle style="&st16;" cx="254.3" cy="44.2" r="43.5"/>
		<g>
			<path style="&st18;" d="M297,44.2c-0.3,17.8-11.2,34.1-28.2,40.2c-16.5,5.9-35.6,1-47-12.4c-11.7-13.7-13.6-33.8-4.5-49.4
				c9.1-15.5,27.3-23.8,44.9-20.4C282.4,6.1,296.7,24,297,44.2c0,1,1.5,1,1.5,0c-0.3-18.5-11.7-35.3-29.3-41.6
				c-17.5-6.3-37.6-0.7-49.3,13.8c-11.6,14.3-13.1,35-3.5,50.7c9.5,15.7,28.2,24,46.3,20.5c20.8-4,35.4-22.5,35.8-43.4
				C298.5,43.2,297,43.2,297,44.2z"/>
		</g>
	</g>
	<g>
		<g>
			<path style="&st19;" d="M225.9,49.9c-0.6-0.2-1.1-0.4-1.4-0.6c-0.2-0.2-0.3-0.3-0.3-0.5c0-0.1,0.1-0.3,0.2-0.6s0.3-0.4,0.4-0.4
				c0,0,0.2,0.1,0.4,0.2c0.4,0.2,0.8,0.4,1.2,0.5c0.4,0.1,0.9,0.2,1.5,0.2c0.7,0,1.3-0.2,1.7-0.6c0.4-0.4,0.7-0.9,0.7-1.5
				c0-0.4-0.1-0.8-0.4-1.1s-0.5-0.5-0.9-0.7c-0.3-0.2-0.8-0.4-1.5-0.6c-0.7-0.3-1.2-0.5-1.7-0.8s-0.8-0.6-1-1
				c-0.3-0.4-0.4-1-0.4-1.8c0-0.6,0.2-1.2,0.5-1.7c0.3-0.5,0.8-0.9,1.4-1.2c0.6-0.3,1.3-0.4,2.1-0.4c0.4,0,0.9,0.1,1.4,0.2
				s0.9,0.3,1.2,0.5c0.2,0.1,0.4,0.3,0.4,0.5c0,0.1-0.1,0.3-0.2,0.6c-0.2,0.3-0.3,0.4-0.4,0.4c-0.1,0-0.1,0-0.3-0.1
				c-0.1-0.1-0.2-0.1-0.2-0.1c-0.6-0.3-1.2-0.5-1.9-0.5c-0.7,0-1.3,0.2-1.7,0.5c-0.4,0.4-0.6,0.9-0.6,1.5c0,0.4,0.1,0.7,0.3,1
				s0.5,0.4,0.7,0.6c0.3,0.1,0.7,0.3,1.4,0.6c0.7,0.3,1.3,0.5,1.8,0.8c0.5,0.3,0.8,0.6,1.2,1.1c0.3,0.5,0.5,1.1,0.5,1.9
				c0,1.1-0.4,1.9-1.1,2.6c-0.7,0.6-1.7,0.9-2.9,0.9C227.2,50.1,226.6,50,225.9,49.9z"/>
			<path style="&st19;" d="M234.9,49c-0.7-0.8-1.1-2-1.1-3.6c0-1.6,0.4-2.8,1.1-3.6s1.8-1.2,3.1-1.2c1.2,0,2.1,0.4,2.8,1.2
				c0.6,0.8,0.9,2,0.9,3.5c0,0.1-0.1,0.3-0.2,0.5c-0.1,0.2-0.3,0.3-0.4,0.3h-5.7c0.1,1,0.3,1.7,0.8,2.2c0.4,0.5,1.1,0.7,2,0.7
				c0.5,0,0.9-0.1,1.3-0.2c0.4-0.1,0.7-0.3,0.9-0.4s0.4-0.2,0.4-0.2c0.1,0,0.3,0.1,0.4,0.4c0.1,0.2,0.2,0.4,0.2,0.5
				c0,0.1-0.1,0.3-0.4,0.5c-0.3,0.2-0.7,0.3-1.2,0.5s-1,0.2-1.6,0.2C236.7,50.1,235.6,49.7,234.9,49z M240.1,44.6
				c0-1.9-0.7-2.8-2.2-2.8c-1.5,0-2.4,0.9-2.5,2.8H240.1z"/>
			<path style="&st19;" d="M244.4,49.7v-6.3c0-0.8,0-1.4-0.1-1.7c-0.1-0.3-0.1-0.5-0.1-0.6c0-0.1,0.1-0.2,0.3-0.3
				c0.2-0.1,0.4-0.1,0.6-0.1c0.2,0,0.3,0.1,0.4,0.3s0.1,0.4,0.2,0.5s0.1,0.3,0.1,0.4c0.6-0.9,1.3-1.4,2.1-1.4c0.3,0,0.6,0.1,0.8,0.2
				c0.2,0.1,0.3,0.3,0.3,0.5c0,0.2,0,0.4-0.1,0.6c-0.1,0.2-0.2,0.3-0.3,0.3c-0.1,0-0.2,0-0.4-0.1c-0.2-0.1-0.4-0.1-0.6-0.1
				c-0.3,0-0.5,0.1-0.8,0.2s-0.5,0.3-0.6,0.5c-0.2,0.2-0.3,0.3-0.3,0.3v6.6c0,0.3-0.2,0.4-0.7,0.4h-0.1
				C244.6,50,244.4,49.9,244.4,49.7z"/>
			<path style="&st19;" d="M253,49.8l-2.9-8.7c0-0.1-0.1-0.2-0.1-0.2c0-0.2,0.3-0.3,0.8-0.3h0.1c0.4,0,0.7,0.1,0.7,0.3l1.8,5.7
				c0.1,0.4,0.3,1.1,0.6,2.2h0.1l0.1-0.5c0.1-0.7,0.3-1.2,0.4-1.7l1.9-5.8c0.1-0.2,0.3-0.3,0.7-0.3h0.1c0.4,0,0.7,0.1,0.7,0.3
				c0,0.1,0,0.1-0.1,0.3l-2.9,8.6c-0.1,0.2-0.3,0.3-0.7,0.3h-0.6C253.3,50,253,50,253,49.8z"/>
			<path style="&st19;" d="M260.2,38.5v-1c0-0.3,0.3-0.4,0.9-0.4c0.5,0,0.8,0.1,0.8,0.4v1c0,0.3-0.3,0.4-0.9,0.4
				C260.5,38.9,260.2,38.8,260.2,38.5z M260.3,49.7V41c0-0.3,0.2-0.4,0.7-0.4h0.1c0.5,0,0.7,0.1,0.7,0.4v8.7c0,0.3-0.2,0.4-0.7,0.4
				H261C260.5,50,260.3,49.9,260.3,49.7z"/>
			<path style="&st19;" d="M265.7,49c-0.7-0.8-1.1-2-1.1-3.7c0-1.7,0.4-2.9,1.2-3.7c0.8-0.7,1.8-1.1,3-1.1c0.7,0,1.3,0.1,1.9,0.3
				c0.6,0.2,0.8,0.4,0.8,0.6c0,0.2-0.1,0.4-0.2,0.6c-0.1,0.2-0.3,0.4-0.4,0.4c0,0-0.1,0-0.1,0c0,0-0.1,0-0.1,0
				c-0.6-0.3-1.3-0.4-2-0.4c-1.7,0-2.6,1.1-2.6,3.4c0,1.3,0.2,2.2,0.6,2.8c0.4,0.6,1.1,0.8,2.2,0.8c0.7,0,1.4-0.2,2-0.5l0.2-0.1
				c0.1,0,0.3,0.1,0.4,0.4c0.1,0.2,0.2,0.4,0.2,0.6c0,0.1-0.1,0.3-0.4,0.4s-0.6,0.3-1,0.4c-0.4,0.1-0.9,0.1-1.4,0.1
				C267.6,50.1,266.5,49.7,265.7,49z"/>
			<path style="&st19;" d="M274.8,49c-0.7-0.8-1.1-2-1.1-3.6c0-1.6,0.4-2.8,1.1-3.6s1.8-1.2,3.1-1.2c1.2,0,2.1,0.4,2.8,1.2
				c0.6,0.8,0.9,2,0.9,3.5c0,0.1-0.1,0.3-0.2,0.5c-0.1,0.2-0.3,0.3-0.4,0.3h-5.7c0.1,1,0.3,1.7,0.8,2.2c0.4,0.5,1.1,0.7,2,0.7
				c0.5,0,0.9-0.1,1.3-0.2c0.4-0.1,0.7-0.3,0.9-0.4s0.4-0.2,0.4-0.2c0.1,0,0.3,0.1,0.4,0.4c0.1,0.2,0.2,0.4,0.2,0.5
				c0,0.1-0.1,0.3-0.4,0.5c-0.3,0.2-0.7,0.3-1.2,0.5s-1,0.2-1.6,0.2C276.6,50.1,275.5,49.7,274.8,49z M280,44.6
				c0-1.9-0.7-2.8-2.2-2.8c-1.5,0-2.4,0.9-2.5,2.8H280z"/>
		</g>
	</g>
	<g>
		<path style="&st1;" d="M265.4,12.1c6,0.6,11.2,3.7,14.5,8.8c0.4-0.3,0.8-0.6,1.2-0.9c-3.9-4.2-8.5-7.9-14.6-7.6
			c-0.7,0-1.1,1.1-0.4,1.4c4,1.8,7.2,4.7,9.3,8.6c0.5,0.9,1.8,0.1,1.3-0.8c-2.2-4.1-5.5-7.2-9.8-9.1c-0.1,0.5-0.3,0.9-0.4,1.4
			c5.7-0.3,9.8,3.3,13.5,7.1c0.6,0.6,1.6-0.2,1.2-0.9c-3.6-5.5-9.2-8.9-15.8-9.5C264.4,10.5,264.4,12,265.4,12.1L265.4,12.1z"/>
	</g>
	<g>
		<path style="&st1;" d="M226.6,66.5C231,76.3,241.3,79.4,251,81c0.8,0.1,1.3-0.9,0.6-1.4c-5-3.3-10-6.6-15.1-9.9
			c-0.7-0.4-1.4,0.4-1,1c1.3,2.3,2.7,4.2,4.7,5.9c0.2-0.4,0.5-0.8,0.7-1.3c-6.6-1.5-9.9-7.2-12.9-12.8c-0.4-0.9-1.7-0.1-1.3,0.8
			c3.1,6,6.7,12,13.7,13.5c0.7,0.2,1.3-0.7,0.7-1.3c-1.9-1.6-3.3-3.4-4.5-5.6c-0.3,0.3-0.7,0.7-1,1c5,3.3,10,6.6,15.1,9.9
			c0.2-0.5,0.4-0.9,0.6-1.4c-9.4-1.6-19.3-4.4-23.5-13.8C227.5,64.9,226.2,65.6,226.6,66.5L226.6,66.5z"/>
	</g>
	<g>
		<circle style="&st16;" cx="44.1" cy="287.2" r="43.5"/>
		<g>
			<path style="&st18;" d="M86.9,287.2c-0.3,17.8-11.2,34.1-28.2,40.2c-16.5,5.9-35.6,1-47-12.4C0,301.3-1.9,281.2,7.3,265.6
				c9.1-15.5,27.3-23.8,44.9-20.4C72.3,249.1,86.5,266.9,86.9,287.2c0,1,1.5,1,1.5,0c-0.3-18.5-11.7-35.3-29.3-41.6
				c-17.5-6.3-37.6-0.7-49.3,13.8c-11.6,14.3-13.1,35-3.5,50.7c9.5,15.7,28.2,24,46.3,20.5c20.8-4,35.4-22.5,35.8-43.4
				C88.4,286.2,86.9,286.2,86.9,287.2z"/>
		</g>
	</g>
	<g>
		<g>
			<path style="&st19;" d="M15.8,292.8c-0.6-0.2-1.1-0.4-1.4-0.6c-0.2-0.2-0.3-0.3-0.3-0.5c0-0.1,0.1-0.3,0.2-0.6s0.3-0.4,0.4-0.4
				c0,0,0.2,0.1,0.4,0.2c0.4,0.2,0.8,0.4,1.2,0.5c0.4,0.1,0.9,0.2,1.5,0.2c0.7,0,1.3-0.2,1.7-0.6c0.4-0.4,0.7-0.9,0.7-1.5
				c0-0.4-0.1-0.8-0.4-1.1s-0.5-0.5-0.9-0.7c-0.3-0.2-0.8-0.4-1.5-0.6c-0.7-0.3-1.2-0.5-1.7-0.8s-0.8-0.6-1-1
				c-0.3-0.4-0.4-1-0.4-1.8c0-0.6,0.2-1.2,0.5-1.7c0.3-0.5,0.8-0.9,1.4-1.2c0.6-0.3,1.3-0.4,2.1-0.4c0.4,0,0.9,0.1,1.4,0.2
				s0.9,0.3,1.2,0.5c0.2,0.1,0.4,0.3,0.4,0.5c0,0.1-0.1,0.3-0.2,0.6s-0.3,0.4-0.4,0.4c-0.1,0-0.1,0-0.3-0.1
				c-0.1-0.1-0.2-0.1-0.2-0.1c-0.6-0.3-1.2-0.5-1.9-0.5c-0.7,0-1.3,0.2-1.7,0.5c-0.4,0.4-0.6,0.9-0.6,1.5c0,0.4,0.1,0.7,0.3,1
				c0.2,0.3,0.5,0.4,0.7,0.6s0.7,0.3,1.4,0.6c0.7,0.3,1.3,0.5,1.8,0.8c0.5,0.3,0.8,0.6,1.2,1.1s0.5,1.1,0.5,1.9
				c0,1.1-0.4,1.9-1.1,2.6c-0.7,0.6-1.7,0.9-2.9,0.9C17.1,293.1,16.4,293,15.8,292.8z"/>
			<path style="&st19;" d="M24.8,291.9c-0.7-0.8-1.1-2-1.1-3.6c0-1.6,0.4-2.8,1.1-3.6c0.7-0.8,1.8-1.2,3.1-1.2
				c1.2,0,2.1,0.4,2.8,1.2c0.6,0.8,0.9,2,0.9,3.5c0,0.1-0.1,0.3-0.2,0.5c-0.1,0.2-0.3,0.3-0.4,0.3h-5.7c0.1,1,0.3,1.7,0.8,2.2
				c0.4,0.5,1.1,0.7,2,0.7c0.5,0,0.9-0.1,1.3-0.2c0.4-0.1,0.7-0.3,0.9-0.4s0.4-0.2,0.4-0.2c0.1,0,0.3,0.1,0.4,0.4s0.2,0.4,0.2,0.5
				c0,0.1-0.1,0.3-0.4,0.5c-0.3,0.2-0.7,0.3-1.2,0.5s-1,0.2-1.6,0.2C26.6,293.1,25.5,292.7,24.8,291.9z M30,287.6
				c0-1.9-0.7-2.8-2.2-2.8c-1.5,0-2.4,0.9-2.5,2.8H30z"/>
			<path style="&st19;" d="M34.3,292.6v-6.3c0-0.8,0-1.4-0.1-1.7s-0.1-0.5-0.1-0.6c0-0.1,0.1-0.2,0.3-0.3c0.2-0.1,0.4-0.1,0.6-0.1
				c0.2,0,0.3,0.1,0.4,0.3s0.1,0.4,0.2,0.5c0,0.2,0.1,0.3,0.1,0.4c0.6-0.9,1.3-1.4,2.1-1.4c0.3,0,0.6,0.1,0.8,0.2
				c0.2,0.1,0.3,0.3,0.3,0.5c0,0.2,0,0.4-0.1,0.6c-0.1,0.2-0.2,0.3-0.3,0.3c-0.1,0-0.2,0-0.4-0.1c-0.2-0.1-0.4-0.1-0.6-0.1
				c-0.3,0-0.5,0.1-0.8,0.2s-0.5,0.3-0.6,0.5c-0.2,0.2-0.3,0.3-0.3,0.3v6.6c0,0.3-0.2,0.4-0.7,0.4H35
				C34.5,293,34.3,292.9,34.3,292.6z"/>
			<path style="&st19;" d="M42.9,292.7l-2.9-8.7c0-0.1-0.1-0.2-0.1-0.2c0-0.2,0.3-0.3,0.8-0.3h0.1c0.4,0,0.7,0.1,0.7,0.3l1.8,5.7
				c0.1,0.4,0.3,1.1,0.6,2.2H44l0.1-0.5c0.1-0.7,0.3-1.2,0.4-1.7l1.9-5.8c0.1-0.2,0.3-0.3,0.7-0.3h0.1c0.4,0,0.7,0.1,0.7,0.3
				c0,0.1,0,0.1-0.1,0.3l-2.9,8.6c-0.1,0.2-0.3,0.3-0.7,0.3h-0.6C43.2,293,42.9,292.9,42.9,292.7z"/>
			<path style="&st19;" d="M50.1,281.4v-1c0-0.3,0.3-0.4,0.9-0.4c0.5,0,0.8,0.1,0.8,0.4v1c0,0.3-0.3,0.4-0.9,0.4
				C50.4,281.9,50.1,281.7,50.1,281.4z M50.2,292.6v-8.7c0-0.3,0.2-0.4,0.7-0.4H51c0.5,0,0.7,0.1,0.7,0.4v8.7c0,0.3-0.2,0.4-0.7,0.4
				h-0.1C50.4,293,50.2,292.9,50.2,292.6z"/>
			<path style="&st19;" d="M55.6,291.9c-0.7-0.8-1.1-2-1.1-3.7c0-1.7,0.4-2.9,1.2-3.7c0.8-0.7,1.8-1.1,3-1.1c0.7,0,1.3,0.1,1.9,0.3
				s0.8,0.4,0.8,0.6c0,0.2-0.1,0.4-0.2,0.6s-0.3,0.4-0.4,0.4c0,0-0.1,0-0.1,0c0,0-0.1,0-0.1,0c-0.6-0.3-1.3-0.4-2-0.4
				c-1.7,0-2.6,1.1-2.6,3.4c0,1.3,0.2,2.2,0.6,2.8c0.4,0.6,1.1,0.8,2.2,0.8c0.7,0,1.4-0.2,2-0.5l0.2-0.1c0.1,0,0.3,0.1,0.4,0.4
				s0.2,0.4,0.2,0.6c0,0.1-0.1,0.3-0.4,0.4s-0.6,0.3-1,0.4c-0.4,0.1-0.9,0.1-1.4,0.1C57.4,293.1,56.3,292.7,55.6,291.9z"/>
			<path style="&st19;" d="M64.6,291.9c-0.7-0.8-1.1-2-1.1-3.6c0-1.6,0.4-2.8,1.1-3.6c0.7-0.8,1.8-1.2,3.1-1.2
				c1.2,0,2.1,0.4,2.8,1.2c0.6,0.8,0.9,2,0.9,3.5c0,0.1-0.1,0.3-0.2,0.5c-0.1,0.2-0.3,0.3-0.4,0.3h-5.7c0.1,1,0.3,1.7,0.8,2.2
				c0.4,0.5,1.1,0.7,2,0.7c0.5,0,0.9-0.1,1.3-0.2s0.7-0.3,0.9-0.4s0.4-0.2,0.4-0.2c0.1,0,0.3,0.1,0.4,0.4c0.1,0.2,0.2,0.4,0.2,0.5
				c0,0.1-0.2,0.3-0.4,0.5c-0.3,0.2-0.7,0.3-1.2,0.5s-1,0.2-1.6,0.2C66.5,293.1,65.4,292.7,64.6,291.9z M69.9,287.6
				c0-1.9-0.7-2.8-2.2-2.8c-1.5,0-2.4,0.9-2.5,2.8H69.9z"/>
		</g>
	</g>
	<g>
		<path style="&st1;" d="M55.2,255c6,0.6,11.2,3.7,14.5,8.8c0.4-0.3,0.8-0.6,1.2-0.9c-3.9-4.2-8.5-7.9-14.6-7.6
			c-0.7,0-1.1,1.1-0.4,1.4c4,1.8,7.2,4.7,9.3,8.6c0.5,0.9,1.8,0.1,1.3-0.8c-2.2-4.1-5.5-7.2-9.8-9.1c-0.1,0.5-0.3,0.9-0.4,1.4
			c5.7-0.3,9.8,3.3,13.5,7.1c0.6,0.6,1.6-0.2,1.2-0.9c-3.6-5.5-9.2-8.9-15.8-9.5C54.3,253.4,54.3,254.9,55.2,255L55.2,255z"/>
	</g>
	<g>
		<path style="&st1;" d="M16.5,309.5c4.3,9.8,14.6,12.9,24.4,14.5c0.8,0.1,1.3-0.9,0.6-1.4c-5-3.3-10-6.6-15.1-9.9
			c-0.7-0.4-1.4,0.4-1,1c1.3,2.3,2.7,4.2,4.7,5.9c0.2-0.4,0.5-0.8,0.7-1.3c-6.6-1.5-9.9-7.2-12.9-12.8c-0.4-0.9-1.7-0.1-1.3,0.8
			c3.1,6,6.7,12,13.7,13.5c0.7,0.2,1.3-0.7,0.7-1.3c-1.9-1.6-3.3-3.4-4.5-5.6c-0.3,0.3-0.7,0.7-1,1c5,3.3,10,6.6,15.1,9.9
			c0.2-0.5,0.4-0.9,0.6-1.4c-9.4-1.6-19.3-4.4-23.5-13.8C17.4,307.8,16.1,308.6,16.5,309.5L16.5,309.5z"/>
	</g>
	<g>
		<circle style="&st16;" cx="254.3" cy="287.2" r="43.5"/>
		<g>
			<path style="&st18;" d="M297,287.2c-0.3,17.8-11.2,34.1-28.2,40.2c-16.5,5.9-35.6,1-47-12.4c-11.7-13.7-13.6-33.8-4.5-49.4
				c9.1-15.5,27.3-23.8,44.9-20.4C282.4,249.1,296.7,267,297,287.2c0,1,1.5,1,1.5,0c-0.3-18.5-11.7-35.3-29.3-41.6
				c-17.5-6.3-37.6-0.7-49.3,13.8c-11.6,14.3-13.1,35-3.5,50.7c9.5,15.7,28.2,24,46.3,20.5c20.8-4,35.4-22.5,35.8-43.4
				C298.5,286.2,297,286.2,297,287.2z"/>
		</g>
	</g>
	<g>
		<g>
			<path style="&st19;" d="M225.9,292.9c-0.6-0.2-1.1-0.4-1.4-0.6c-0.2-0.2-0.3-0.3-0.3-0.5c0-0.1,0.1-0.3,0.2-0.6s0.3-0.4,0.4-0.4
				c0,0,0.2,0.1,0.4,0.2c0.4,0.2,0.8,0.4,1.2,0.5c0.4,0.1,0.9,0.2,1.5,0.2c0.7,0,1.3-0.2,1.7-0.6c0.4-0.4,0.7-0.9,0.7-1.5
				c0-0.4-0.1-0.8-0.4-1.1s-0.5-0.5-0.9-0.7c-0.3-0.2-0.8-0.4-1.5-0.6c-0.7-0.3-1.2-0.5-1.7-0.8s-0.8-0.6-1-1
				c-0.3-0.4-0.4-1-0.4-1.8c0-0.6,0.2-1.2,0.5-1.7c0.3-0.5,0.8-0.9,1.4-1.2c0.6-0.3,1.3-0.4,2.1-0.4c0.4,0,0.9,0.1,1.4,0.2
				s0.9,0.3,1.2,0.5c0.2,0.1,0.4,0.3,0.4,0.5c0,0.1-0.1,0.3-0.2,0.6c-0.2,0.3-0.3,0.4-0.4,0.4c-0.1,0-0.1,0-0.3-0.1
				c-0.1-0.1-0.2-0.1-0.2-0.1c-0.6-0.3-1.2-0.5-1.9-0.5c-0.7,0-1.3,0.2-1.7,0.5c-0.4,0.4-0.6,0.9-0.6,1.5c0,0.4,0.1,0.7,0.3,1
				s0.5,0.4,0.7,0.6c0.3,0.1,0.7,0.3,1.4,0.6c0.7,0.3,1.3,0.5,1.8,0.8c0.5,0.3,0.8,0.6,1.2,1.1c0.3,0.5,0.5,1.1,0.5,1.9
				c0,1.1-0.4,1.9-1.1,2.6c-0.7,0.6-1.7,0.9-2.9,0.9C227.2,293.1,226.6,293,225.9,292.9z"/>
			<path style="&st19;" d="M234.9,292c-0.7-0.8-1.1-2-1.1-3.6c0-1.6,0.4-2.8,1.1-3.6s1.8-1.2,3.1-1.2c1.2,0,2.1,0.4,2.8,1.2
				c0.6,0.8,0.9,2,0.9,3.5c0,0.1-0.1,0.3-0.2,0.5c-0.1,0.2-0.3,0.3-0.4,0.3h-5.7c0.1,1,0.3,1.7,0.8,2.2c0.4,0.5,1.1,0.7,2,0.7
				c0.5,0,0.9-0.1,1.3-0.2c0.4-0.1,0.7-0.3,0.9-0.4s0.4-0.2,0.4-0.2c0.1,0,0.3,0.1,0.4,0.4c0.1,0.2,0.2,0.4,0.2,0.5
				c0,0.1-0.1,0.3-0.4,0.5c-0.3,0.2-0.7,0.3-1.2,0.5s-1,0.2-1.6,0.2C236.7,293.1,235.6,292.7,234.9,292z M240.1,287.6
				c0-1.9-0.7-2.8-2.2-2.8c-1.5,0-2.4,0.9-2.5,2.8H240.1z"/>
			<path style="&st19;" d="M244.4,292.7v-6.3c0-0.8,0-1.4-0.1-1.7c-0.1-0.3-0.1-0.5-0.1-0.6c0-0.1,0.1-0.2,0.3-0.3
				c0.2-0.1,0.4-0.1,0.6-0.1c0.2,0,0.3,0.1,0.4,0.3s0.1,0.4,0.2,0.5s0.1,0.3,0.1,0.4c0.6-0.9,1.3-1.4,2.1-1.4c0.3,0,0.6,0.1,0.8,0.2
				c0.2,0.1,0.3,0.3,0.3,0.5c0,0.2,0,0.4-0.1,0.6c-0.1,0.2-0.2,0.3-0.3,0.3c-0.1,0-0.2,0-0.4-0.1c-0.2-0.1-0.4-0.1-0.6-0.1
				c-0.3,0-0.5,0.1-0.8,0.2s-0.5,0.3-0.6,0.5c-0.2,0.2-0.3,0.3-0.3,0.3v6.6c0,0.3-0.2,0.4-0.7,0.4h-0.1
				C244.6,293,244.4,292.9,244.4,292.7z"/>
			<path style="&st19;" d="M253,292.8l-2.9-8.7c0-0.1-0.1-0.2-0.1-0.2c0-0.2,0.3-0.3,0.8-0.3h0.1c0.4,0,0.7,0.1,0.7,0.3l1.8,5.7
				c0.1,0.4,0.3,1.1,0.6,2.2h0.1l0.1-0.5c0.1-0.7,0.3-1.2,0.4-1.7l1.9-5.8c0.1-0.2,0.3-0.3,0.7-0.3h0.1c0.4,0,0.7,0.1,0.7,0.3
				c0,0.1,0,0.1-0.1,0.3l-2.9,8.6c-0.1,0.2-0.3,0.3-0.7,0.3h-0.6C253.3,293,253,293,253,292.8z"/>
			<path style="&st19;" d="M260.2,281.5v-1c0-0.3,0.3-0.4,0.9-0.4c0.5,0,0.8,0.1,0.8,0.4v1c0,0.3-0.3,0.4-0.9,0.4
				C260.5,281.9,260.2,281.8,260.2,281.5z M260.3,292.7V284c0-0.3,0.2-0.4,0.7-0.4h0.1c0.5,0,0.7,0.1,0.7,0.4v8.7
				c0,0.3-0.2,0.4-0.7,0.4H261C260.5,293,260.3,292.9,260.3,292.7z"/>
			<path style="&st19;" d="M265.7,292c-0.7-0.8-1.1-2-1.1-3.7c0-1.7,0.4-2.9,1.2-3.7c0.8-0.7,1.8-1.1,3-1.1c0.7,0,1.3,0.1,1.9,0.3
				c0.6,0.2,0.8,0.4,0.8,0.6c0,0.2-0.1,0.4-0.2,0.6c-0.1,0.2-0.3,0.4-0.4,0.4c0,0-0.1,0-0.1,0c0,0-0.1,0-0.1,0
				c-0.6-0.3-1.3-0.4-2-0.4c-1.7,0-2.6,1.1-2.6,3.4c0,1.3,0.2,2.2,0.6,2.8c0.4,0.6,1.1,0.8,2.2,0.8c0.7,0,1.4-0.2,2-0.5l0.2-0.1
				c0.1,0,0.3,0.1,0.4,0.4c0.1,0.2,0.2,0.4,0.2,0.6c0,0.1-0.1,0.3-0.4,0.4s-0.6,0.3-1,0.4c-0.4,0.1-0.9,0.1-1.4,0.1
				C267.6,293.1,266.5,292.7,265.7,292z"/>
			<path style="&st19;" d="M274.8,292c-0.7-0.8-1.1-2-1.1-3.6c0-1.6,0.4-2.8,1.1-3.6s1.8-1.2,3.1-1.2c1.2,0,2.1,0.4,2.8,1.2
				c0.6,0.8,0.9,2,0.9,3.5c0,0.1-0.1,0.3-0.2,0.5c-0.1,0.2-0.3,0.3-0.4,0.3h-5.7c0.1,1,0.3,1.7,0.8,2.2c0.4,0.5,1.1,0.7,2,0.7
				c0.5,0,0.9-0.1,1.3-0.2c0.4-0.1,0.7-0.3,0.9-0.4s0.4-0.2,0.4-0.2c0.1,0,0.3,0.1,0.4,0.4c0.1,0.2,0.2,0.4,0.2,0.5
				c0,0.1-0.1,0.3-0.4,0.5c-0.3,0.2-0.7,0.3-1.2,0.5s-1,0.2-1.6,0.2C276.6,293.1,275.5,292.7,274.8,292z M280,287.6
				c0-1.9-0.7-2.8-2.2-2.8c-1.5,0-2.4,0.9-2.5,2.8H280z"/>
		</g>
	</g>
	<g>
		<path style="&st1;" d="M265.4,255.1c6,0.6,11.2,3.7,14.5,8.8c0.4-0.3,0.8-0.6,1.2-0.9c-3.9-4.2-8.5-7.9-14.6-7.6
			c-0.7,0-1.1,1.1-0.4,1.4c4,1.8,7.2,4.7,9.3,8.6c0.5,0.9,1.8,0.1,1.3-0.8c-2.2-4.1-5.5-7.2-9.8-9.1c-0.1,0.5-0.3,0.9-0.4,1.4
			c5.7-0.3,9.8,3.3,13.5,7.1c0.6,0.6,1.6-0.2,1.2-0.9c-3.6-5.5-9.2-8.9-15.8-9.5C264.4,253.5,264.4,255,265.4,255.1L265.4,255.1z"/>
	</g>
	<g>
		<path style="&st1;" d="M226.6,309.5c4.3,9.8,14.6,12.9,24.4,14.5c0.8,0.1,1.3-0.9,0.6-1.4c-5-3.3-10-6.6-15.1-9.9
			c-0.7-0.4-1.4,0.4-1,1c1.3,2.3,2.7,4.2,4.7,5.9c0.2-0.4,0.5-0.8,0.7-1.3c-6.6-1.5-9.9-7.2-12.9-12.8c-0.4-0.9-1.7-0.1-1.3,0.8
			c3.1,6,6.7,12,13.7,13.5c0.7,0.2,1.3-0.7,0.7-1.3c-1.9-1.6-3.3-3.4-4.5-5.6c-0.3,0.3-0.7,0.7-1,1c5,3.3,10,6.6,15.1,9.9
			c0.2-0.5,0.4-0.9,0.6-1.4c-9.4-1.6-19.3-4.4-23.5-13.8C227.5,307.9,226.2,308.6,226.6,309.5L226.6,309.5z"/>
	</g>
	<g>
		<circle style="&st16;" cx="153.3" cy="158.6" r="43.5"/>
		<g>
			<path style="&st18;" d="M196.1,158.6c-0.3,17.8-11.2,34.1-28.2,40.2c-16.5,5.9-35.6,1-47-12.4c-11.7-13.7-13.6-33.8-4.5-49.4
				c9.1-15.5,27.3-23.8,44.9-20.4C181.5,120.5,195.7,138.4,196.1,158.6c0,1,1.5,1,1.5,0c-0.3-18.5-11.7-35.3-29.3-41.6
				c-17.5-6.3-37.6-0.7-49.3,13.8c-11.6,14.3-13.1,35-3.5,50.7c9.5,15.7,28.2,24,46.3,20.5c20.8-4,35.4-22.5,35.8-43.4
				C197.6,157.6,196.1,157.6,196.1,158.6z"/>
		</g>
	</g>
	<g>
		<g>
			<path style="&st19;" d="M136.3,163.2c0-0.1,0-0.1,0.1-0.3l4.3-11.8c0.1-0.2,0.3-0.3,0.7-0.3h0.5c0.4,0,0.7,0.1,0.7,0.3l4.3,11.8
				c0,0.1,0.1,0.2,0.1,0.2c0,0.2-0.3,0.3-0.8,0.3H146c-0.4,0-0.7-0.1-0.7-0.3l-1.1-3h-5.3l-1,3c-0.1,0.2-0.3,0.3-0.7,0.3h-0.1
				C136.5,163.5,136.3,163.4,136.3,163.2z M143.7,158.9l-1.9-5.4c-0.1-0.2-0.1-0.5-0.2-1h0c-0.1,0.5-0.2,0.8-0.3,1l-1.9,5.4H143.7z"
				/>
			<path style="&st19;" d="M148.9,166.9v-10c0-0.8,0-1.4-0.1-1.7c-0.1-0.3-0.1-0.5-0.1-0.6c0-0.1,0.1-0.2,0.3-0.3
				c0.2-0.1,0.4-0.1,0.6-0.1c0.2,0,0.3,0.1,0.4,0.3s0.1,0.4,0.2,0.5c0,0.2,0.1,0.3,0.1,0.4c0.9-0.9,1.8-1.4,2.9-1.4
				c0.7,0,1.4,0.2,1.9,0.6s0.9,1,1.2,1.7c0.3,0.7,0.4,1.6,0.4,2.5c0,1-0.2,1.9-0.5,2.6s-0.7,1.3-1.3,1.6s-1.2,0.6-1.9,0.6
				c-0.5,0-1-0.1-1.4-0.2c-0.4-0.2-0.8-0.4-1.2-0.7v4.2c0,0.3-0.2,0.4-0.7,0.4h-0.1C149.2,167.2,148.9,167.1,148.9,166.9z
				 M154.5,161.4c0.4-0.6,0.6-1.4,0.6-2.5c0-1.2-0.2-2.1-0.6-2.7s-0.9-0.9-1.6-0.9c-0.4,0-0.8,0.1-1.3,0.3c-0.4,0.2-0.8,0.5-1.2,0.9
				v4.9c0.6,0.5,1.4,0.8,2.2,0.8C153.5,162.3,154.1,162,154.5,161.4z"/>
			<path style="&st19;" d="M159.5,166.9v-10c0-0.8,0-1.4-0.1-1.7c-0.1-0.3-0.1-0.5-0.1-0.6c0-0.1,0.1-0.2,0.3-0.3
				c0.2-0.1,0.4-0.1,0.6-0.1c0.2,0,0.3,0.1,0.4,0.3s0.1,0.4,0.2,0.5c0,0.2,0.1,0.3,0.1,0.4c0.9-0.9,1.8-1.4,2.9-1.4
				c0.7,0,1.4,0.2,1.9,0.6s0.9,1,1.2,1.7c0.3,0.7,0.4,1.6,0.4,2.5c0,1-0.2,1.9-0.5,2.6s-0.7,1.3-1.3,1.6s-1.2,0.6-1.9,0.6
				c-0.5,0-1-0.1-1.4-0.2c-0.4-0.2-0.8-0.4-1.2-0.7v4.2c0,0.3-0.2,0.4-0.7,0.4h-0.1C159.8,167.2,159.5,167.1,159.5,166.9z
				 M165.1,161.4c0.4-0.6,0.6-1.4,0.6-2.5c0-1.2-0.2-2.1-0.6-2.7s-0.9-0.9-1.6-0.9c-0.4,0-0.8,0.1-1.3,0.3c-0.4,0.2-0.8,0.5-1.2,0.9
				v4.9c0.6,0.5,1.4,0.8,2.2,0.8C164,162.3,164.6,162,165.1,161.4z"/>
		</g>
	</g>
	<g>
		<path style="&st1;" d="M132.3,184.6c-1.9-2.8-3.8-5.7-5.6-8.5c-0.5-0.8-1.7-0.1-1.3,0.8c1.7,3.8,5.2,6.6,9.4,7.3
			c0.9,0.2,1.3-1.3,0.4-1.4c-3.8-0.7-6.9-3.1-8.5-6.6c-0.4,0.3-0.9,0.5-1.3,0.8c1.9,2.8,3.8,5.7,5.6,8.5
			C131.5,186.2,132.8,185.4,132.3,184.6L132.3,184.6z"/>
	</g>
	<g>
		<path style="&st1;" d="M168.6,128.5c8,6.8,16.7,14.6,16,26.1c-0.1,1,1.4,0.9,1.5,0c1.3-13.2-7.6-24.3-20.7-26.1
			c-1-0.1-0.9,1.4,0,1.5c12.3,1.6,20.5,12.3,19.2,24.6c0.5,0,1,0,1.5,0c0.6-11.9-8.1-20.1-16.5-27.1
			C168.9,126.8,167.9,127.9,168.6,128.5L168.6,128.5z"/>
	</g>
</g>
<g id="Layer_1">
</g>
</svg>
