<svg xmlns="http://www.w3.org/2000/svg" viewBox="0 0 300 298.9"><path d="M259.8 82.8l-.3-15c-.1-5-.3-10-.5-15-.5-10-1-20-2-30.1h-.6c-1 10-1.5 20-2 30.1-.2 5-.4 10-.5 15-.2 5-.3 10-.3 15-.1 5-.1 10 0 15l.2 15 .3 15c.1 2.5.1 5 .2 7.5l.1 3.8.1 1.9v.7c0 .2 0 .4-.1.6l-.1.5v.2c.1.9-.1 1.9-.6 2.6-.5.7-1.3 1.3-2.3 1.5l-2.4.6c-7.5-.8-15-1.3-22.5-1.7l-6.4-.3-6.4-.2c-4.3-.2-8.5-.2-12.8-.3-8.5-.1-17.1.1-25.6.4-4.3.1-8.5.2-12.8.4-4.3.2-8.5.5-12.8.8-8.5.6-17.1.9-25.6.7-8.5-.2-17.1-1.1-25.6-1.5-4.3-.2-8.5-.2-12.8-.2-4.3 0-8.5.2-12.8.3-6.5.3-13.1.7-19.6 1.3l-2.1-.2c-1-.1-1.9-.5-2.6-1.3-.7-.7-1-1.8-1-2.9v-.3l-.1-.2c-.2-.5-.2-.9-.2-1.5l-.1-1.9-.1-3.8c-.1-2.5-.1-5-.1-7.5-.1-5 0-10 .2-15 .4-10 1.3-20 1.5-30.1.1-5 .1-10 0-15 0-5-.2-10-.3-15-.4-10-.9-20-2-30.1h-.6c-1.1 10-1.6 20-2 30.1-.1 5-.3 10-.3 15-.1 5-.1 10 0 15 .2 10 1.1 20 1.5 30.1.2 5 .3 10 .2 15 0 2.5 0 5-.1 7.5l-.1 3.8-.1 1.9c0 .6 0 1.3.1 1.9-.1 1.6.3 3.3 1.3 4.7.2.3.5.7.8.9-.4.3-.8.7-1.1 1.1-1.1 1.3-1.7 3-1.7 4.7-.1.3-.2.6-.2 1-.1.4-.1.9-.1 1.2l-.1 1.9-.1 3.8c-.1 2.5-.2 5-.2 7.5l-.3 15-.2 15c-.1 5 0 10 0 15l.3 15c.1 5 .3 10 .5 15 .5 10 1 20 2 30.1h.6c1-10 1.5-20 2-30.1.2-5 .4-10 .5-15 .2-5 .3-10 .3-15 .1-5 .1-10 0-15l-.2-15-.3-15c-.1-2.5-.1-5-.2-7.5l-.1-3.8-.1-1.9v-.7c0-.2 0-.4.1-.6l.1-.5v-.2c-.1-.9.1-1.9.6-2.6.5-.7 1.3-1.3 2.3-1.5l3.6-.9c6 .6 12 .9 18 1.2 4.3.2 8.5.3 12.8.3 4.3.1 8.5 0 12.8-.2 8.5-.4 17.1-1.4 25.6-1.5 8.5-.2 17.1.1 25.6.7 4.3.3 8.5.6 12.8.8 4.3.2 8.5.3 12.8.4 8.5.2 17.1.5 25.6.4 4.3-.1 8.5-.1 12.8-.3l6.4-.2 6.4-.3c5.6-.3 11.2-.7 16.8-1.2l8.1.8c1 .1 1.9.5 2.6 1.3.7.7 1 1.8 1 2.9v.3l.1.2c.2.5.2.9.2 1.5l.1 1.9.1 3.8c.1 2.5.1 5 .1 7.5.1 5 0 10-.2 15-.4 10-1.3 20-1.5 30.1-.1 5-.1 10 0 15 0 5 .2 10 .3 15 .4 10 .9 20 2 30.1h.6c1.1-10 1.6-20 2-30.1.1-5 .3-10 .3-15 .1-5 .1-10 0-15-.2-10-1.1-20-1.5-30.1-.2-5-.3-10-.2-15 0-2.5 0-5 .1-7.5l.1-3.8.1-1.9c0-.6 0-1.3-.1-1.9.1-1.6-.3-3.3-1.3-4.7-.2-.3-.5-.7-.8-.9.4-.3.8-.7 1.1-1.1 1.1-1.3 1.7-3 1.7-4.7.1-.3.2-.6.2-1 .1-.4.1-.9.1-1.2l.1-1.9.1-3.8c.1-2.5.2-5 .2-7.5l.3-15 .2-15c.2-5.1.1-10.1.1-15.1z" fill="#727f9b"/><path d="M249.1 8.7v133.6l1.5-1.5H52.1l1.5 1.5V42.5c0-11.2.9-22.7 0-33.8-.8-9.5-14.2-9.5-15 0-.9 10.9 0 22.2 0 33.2v229c0 5.5-.1 11.1 0 16.7.1 2.5.4 4.7 2.3 6.4 2.8 2.5 7.5 2.5 10.4 0 2.2-2 2.3-4.5 2.3-7.3.1-6.4 0-12.8 0-19.2V154.9l-1.5 1.5h198.5l-1.5-1.5v106.6c0 8.9-.7 18.1 0 27 .3 3.4 2 6.2 5.5 7.1 12.5 3.1 9.5-15.3 9.5-21.8V18.6c0-3.7.7-8.1-.2-11.7-2.2-8.4-14.2-6.3-14.8 1.8-.1 1.9 2.9 1.9 3 0 .2-3 2.7-4.9 5.7-4.2 3.2.8 3.2 3.4 3.3 6.1.3 7.8 0 15.7 0 23.5v250.5c0 3.1.6 7.1-3.3 8.1-7.6 1.9-5.7-9.5-5.7-13.7V154.9c0-.8-.7-1.5-1.5-1.5H52.1c-.8 0-1.5.7-1.5 1.5v128.9c0 3.6.6 9.1-4.5 9.1-4.8 0-4.5-4.8-4.5-8.2v-271c0-3.6-.8-8.5 3.9-9.2 5.1-.7 5.1 4.4 5.1 8v129.8c0 .8.7 1.5 1.5 1.5h198.5c.8 0 1.5-.7 1.5-1.5V8.7c0-1.9-3-1.9-3 0z" fill="#727f9b"/><circle cx="44.9" cy="44.9" r="43.5" fill="#d0daed"/><path d="M86.8 44.9c-.3 17.5-11 33.5-27.6 39.5-16.3 5.9-35 1-46.2-12.2C1.5 58.8-.3 39 8.6 23.7 17.5 8.6 35.5.4 52.7 3.7 72.5 7.5 86.5 25 86.8 44.9c0 1.9 3 1.9 3 0C89.5 26.1 77.9 9 60 2.6c-17.7-6.4-38.1-.6-50 14C-1.8 31.1-3.3 52.1 6.4 68.2c9.7 16 28.8 24.4 47.1 20.9C74.6 85 89.5 66.2 89.8 45c.1-2-2.9-2-3-.1z" fill="#727f9b"/><circle cx="255" cy="45" r="43.5" fill="#d0daed"/><path d="M297 45c-.3 17.5-11 33.5-27.6 39.5-16.3 5.9-35 1-46.2-12.2-11.5-13.4-13.3-33.2-4.3-48.5C227.8 8.6 245.7.4 263 3.7 282.7 7.5 296.7 25 297 45c0 1.9 3 1.9 3 0-.3-18.9-12-36-29.8-42.4-17.7-6.4-38.1-.6-50 14-11.8 14.6-13.4 35.6-3.6 51.6 9.7 16 28.8 24.4 47.1 20.9 21.1-4.1 36-22.9 36.3-44.1 0-2-3-2-3 0z" fill="#727f9b"/><circle cx="44.9" cy="253.9" r="43.5" fill="#d0daed"/><path d="M86.8 253.9c-.3 17.5-11 33.5-27.6 39.5-16.3 5.9-35 1-46.2-12.2C1.5 267.8-.3 248 8.6 232.7c8.9-15.2 26.8-23.4 44.1-20.1 19.8 3.9 33.8 21.4 34.1 41.3 0 1.9 3 1.9 3 0-.3-18.8-11.9-35.9-29.8-42.3-17.7-6.4-38.1-.6-50 14-11.8 14.6-13.4 35.6-3.6 51.6 9.7 16 28.8 24.4 47.1 20.9 21.1-4.1 36-22.9 36.3-44.1.1-2-2.9-2-3-.1z" fill="#727f9b"/><circle cx="255" cy="254" r="43.5" fill="#d0daed"/><path d="M297 254c-.3 17.5-11 33.5-27.6 39.5-16.3 5.9-35 1-46.2-12.2-11.5-13.4-13.3-33.2-4.3-48.5 8.9-15.2 26.8-23.4 44.1-20.1 19.7 3.8 33.7 21.3 34 41.3 0 1.9 3 1.9 3 0-.3-18.8-11.9-35.9-29.8-42.3-17.7-6.4-38.1-.6-50 14-11.8 14.6-13.4 35.6-3.6 51.6 9.7 16 28.8 24.4 47.1 20.9 21.1-4.1 36-22.9 36.3-44.1 0-2.1-3-2.1-3-.1z" fill="#727f9b"/><path d="M16.4 36.1c.5.1 1 .3 1.4.5.4.2.6.4.6.7 0 .2-.1.4-.3.7-.2.3-.3.4-.4.4-.1 0-.1 0-.2-.1s-.2-.1-.2-.1c-.7-.4-1.5-.6-2.3-.6s-1.5.2-2 .6c-.5.4-.7 1-.7 1.7 0 .5.1.9.4 1.2.2.3.5.5.9.7.3.2.9.4 1.6.7.8.3 1.5.6 2.1.9.5.3 1 .7 1.4 1.3.4.6.6 1.3.6 2.2 0 1.3-.4 2.3-1.3 3S16 51 14.6 51c-.8 0-1.5-.1-2.2-.3-.7-.2-1.2-.4-1.6-.6s-.8-.6-.8-.8c0-.2.1-.4.3-.7.2-.3.3-.4.5-.4l.4.2c.5.3 1 .5 1.5.6s1.1.2 1.7.2c.8 0 1.5-.2 2-.7.5-.5.8-1.1.8-1.8 0-.5-.1-.9-.4-1.3s-.6-.6-1-.8c-.4-.2-1-.5-1.7-.7-.8-.3-1.5-.6-1.9-.9-.5-.3-.9-.7-1.2-1.2-.3-.5-.5-1.2-.5-2.1 0-.8.2-1.4.6-2s.9-1 1.6-1.4c.7-.3 1.5-.5 2.4-.5.3.1.8.1 1.3.3zM29.3 41c.7.9 1.1 2.3 1.1 4.1 0 .1-.1.3-.3.5-.1.2-.2.4-.4.4h-6.6c.1 1.2.4 2 .9 2.6s1.3.8 2.3.8c.6 0 1.1-.1 1.5-.2.4-.1.8-.3 1.1-.4.3-.1.4-.2.5-.2.1 0 .3.1.5.4.2.3.3.5.3.6 0 .2-.2.4-.5.6-.4.2-.8.4-1.4.5-.6.1-1.2.2-1.9.2-1.8 0-3-.5-3.9-1.4-.8-.9-1.3-2.3-1.3-4.2 0-1.9.4-3.3 1.2-4.2.8-1 2-1.5 3.7-1.5 1.4 0 2.5.5 3.2 1.4zm-6.2 3.4h5.5c0-2.2-.8-3.3-2.5-3.3-1.9 0-2.8 1.1-3 3.3zm15.5-4.6c.2.2.3.4.3.6 0 .2 0 .5-.1.7-.1.3-.2.4-.3.4-.1 0-.2 0-.4-.1s-.5-.1-.7-.1c-.3 0-.6.1-.9.3-.3.2-.5.4-.7.6-.2.2-.3.4-.3.4v7.7c0 .3-.3.5-.8.5h-.1c-.6 0-.8-.2-.8-.5v-7.4c0-.9 0-1.6-.1-2s-.1-.6-.1-.7c0-.2.1-.3.4-.4.3-.1.5-.1.7-.1.2 0 .3.1.4.3.1.2.2.4.2.6 0 .2.1.4.1.4.7-1.1 1.6-1.6 2.4-1.6.2.2.5.3.8.4zm10.9.2c0 .1 0 .2-.1.3L46 50.4c-.1.2-.4.3-.8.3h-.7c-.5 0-.8-.1-.8-.3l-3.4-10.1c0-.1-.1-.2-.1-.3 0-.2.3-.4.9-.4h.1c.5 0 .8.1.8.3l2.1 6.7c.1.4.4 1.3.7 2.6h.2l.1-.6c.2-.8.3-1.5.5-2l2.2-6.7c.1-.2.4-.3.9-.3h.1c.4.1.7.2.7.4zm4.5-4.6v1.2c0 .3-.3.5-.8.5h-.3c-.6 0-.8-.2-.8-.5v-1.2c0-.3.3-.5.8-.5h.3c.5 0 .8.2.8.5zm-.1 4.7v10.2c0 .3-.3.5-.8.5H53c-.6 0-.8-.2-.8-.5V40.1c0-.3.3-.5.8-.5h.1c.5.1.8.2.8.5zm10.5-.2c.6.2 1 .4 1 .7 0 .2-.1.4-.2.7s-.3.4-.4.4h-.1s-.1 0-.1-.1c-.8-.3-1.5-.5-2.3-.5-2 0-3 1.3-3 4 0 1.5.2 2.6.7 3.2.5.7 1.3 1 2.5 1 .9 0 1.6-.2 2.4-.5l.2-.1c.1 0 .3.1.5.4.2.3.3.5.3.7 0 .2-.2.3-.5.5s-.7.3-1.2.4c-.5.1-1.1.2-1.6.2-1.7 0-3-.4-3.9-1.3s-1.3-2.3-1.3-4.3.5-3.4 1.4-4.3c1-.9 2.1-1.3 3.6-1.3.6-.1 1.3 0 2 .2zM75.9 41c.7.9 1.1 2.3 1.1 4.1 0 .1-.1.3-.3.5-.2.2-.3.3-.4.3h-6.6c.1 1.2.4 2 .9 2.6s1.3.8 2.3.8c.6 0 1.1-.1 1.5-.2.4-.1.8-.3 1.1-.4.3-.1.4-.2.5-.2.1 0 .3.1.5.4.2.3.3.5.3.6 0 .2-.2.4-.5.6-.4.2-.8.4-1.4.5-.6.1-1.2.2-1.9.2-1.8 0-3-.5-3.9-1.4-.8-.9-1.3-2.3-1.3-4.2 0-1.9.4-3.3 1.2-4.2.8-1 2-1.5 3.7-1.5 1.4.1 2.5.6 3.2 1.5zm-6.2 3.4h5.5c0-2.2-.8-3.3-2.5-3.3-1.9 0-2.9 1.1-3 3.3zm156.8-8.3c.5.1 1 .3 1.4.5.4.2.6.4.6.7 0 .2-.1.4-.3.7-.2.3-.3.4-.4.4-.1 0-.1 0-.2-.1s-.2-.1-.2-.1c-.7-.4-1.5-.6-2.3-.6s-1.5.2-2 .6c-.5.4-.7 1-.7 1.7 0 .5.1.9.4 1.2.2.3.5.5.9.7.3.2.9.4 1.6.7.8.3 1.5.6 2.1.9.5.3 1 .7 1.4 1.3.4.6.6 1.3.6 2.2 0 1.3-.4 2.3-1.3 3s-2 1.1-3.4 1.1c-.8 0-1.5-.1-2.2-.3-.7-.2-1.2-.4-1.6-.6s-.6-.5-.6-.7c0-.2.1-.4.3-.7.2-.3.3-.4.5-.4l.4.2c.5.3 1 .5 1.5.6s1.1.2 1.7.2c.8 0 1.5-.2 2-.7.5-.5.8-1.1.8-1.8 0-.5-.1-.9-.4-1.3s-.6-.6-1-.8c-.4-.2-1-.5-1.7-.7-.8-.3-1.5-.6-1.9-.9-.5-.3-.9-.7-1.2-1.2-.3-.5-.5-1.2-.5-2.1 0-.8.2-1.4.6-2s.9-1 1.6-1.4c.7-.3 1.5-.5 2.4-.5.1 0 .6.1 1.1.2zm13 4.9c.7.9 1.1 2.3 1.1 4.1 0 .1-.1.3-.3.5-.2.2-.3.3-.4.3h-6.6c.1 1.2.4 2 .9 2.6s1.3.8 2.3.8c.6 0 1.1-.1 1.5-.2.4-.1.8-.3 1.1-.4.3-.1.4-.2.5-.2.1 0 .3.1.5.4.2.3.3.5.3.6 0 .2-.2.4-.5.6-.4.2-.8.4-1.4.5-.6.1-1.2.2-1.9.2-1.8 0-3-.5-3.9-1.4-.8-.9-1.3-2.3-1.3-4.2 0-1.9.4-3.3 1.2-4.2.8-1 2-1.5 3.7-1.5 1.4.1 2.4.6 3.2 1.5zm-6.3 3.5h5.5c0-2.2-.8-3.3-2.5-3.3-1.8 0-2.8 1.1-3 3.3zm15.5-4.6c.2.2.3.4.3.6 0 .2 0 .5-.1.7-.1.3-.2.4-.3.4-.1 0-.2 0-.4-.1s-.5-.1-.7-.1c-.3 0-.6.1-.9.3-.3.2-.5.4-.7.6-.2.2-.3.4-.3.4v7.7c0 .3-.3.5-.8.5h-.1c-.6 0-.8-.2-.8-.5V43c0-.9 0-1.6-.1-2s-.1-.6-.1-.7c0-.2.1-.3.4-.4.3-.1.5-.1.7-.1.2 0 .3.1.4.3.1.2.2.4.2.6 0 .2.1.4.1.4.7-1.1 1.6-1.6 2.4-1.6.3.1.6.2.8.4zm10.9.2c0 .1 0 .2-.1.3l-3.4 10.1c-.1.2-.4.3-.8.3h-.7c-.5 0-.8-.1-.8-.3l-3.4-10.1c0-.1-.1-.2-.1-.3 0-.2.3-.4.9-.4h.1c.5 0 .8.1.8.3l2.1 6.7c.1.4.4 1.3.7 2.6h.1l.1-.6c.2-.8.3-1.5.5-2l2.2-6.7c.1-.2.4-.3.9-.3h.1c.5 0 .8.2.8.4zm4.5-4.7v1.2c0 .3-.3.5-.8.5h-.3c-.6 0-.8-.2-.8-.5v-1.2c0-.3.3-.5.8-.5h.3c.5.1.8.2.8.5zm-.1 4.8v10.2c0 .3-.3.5-.8.5h-.1c-.6 0-.8-.2-.8-.5V40.2c0-.3.3-.5.8-.5h.1c.5 0 .8.2.8.5zm10.5-.3c.6.2 1 .4 1 .7 0 .2-.1.4-.2.7s-.3.4-.4.4h-.1s-.1 0-.1-.1c-.8-.3-1.5-.5-2.3-.5-2 0-3 1.3-3 4 0 1.5.2 2.6.7 3.2.5.7 1.3 1 2.5 1 .9 0 1.6-.2 2.4-.5l.2-.1c.1 0 .3.1.5.4.2.3.3.5.3.7 0 .2-.2.3-.5.5s-.7.3-1.2.4c-.5.1-1.1.2-1.6.2-1.7 0-3-.4-3.9-1.3s-1.3-2.3-1.3-4.3.5-3.4 1.4-4.3c1-.9 2.1-1.3 3.6-1.3.6-.1 1.3 0 2 .2zM286 41c.7.9 1.1 2.3 1.1 4.1 0 .1-.1.3-.3.5-.2.2-.3.3-.4.3h-6.6c.1 1.2.4 2 .9 2.6s1.3.8 2.3.8c.6 0 1.1-.1 1.5-.2.4-.1.8-.3 1.1-.4.3-.1.4-.2.5-.2.1 0 .3.1.5.4.2.3.3.5.3.6 0 .2-.2.4-.5.6-.4.2-.8.4-1.4.5-.6.1-1.2.2-1.9.2-1.8 0-3-.5-3.9-1.4-.8-.9-1.3-2.3-1.3-4.2 0-1.9.4-3.3 1.2-4.2.8-1 2-1.5 3.7-1.5 1.4.1 2.5.6 3.2 1.5zm-6.2 3.5h5.5c0-2.2-.8-3.3-2.5-3.3-1.9 0-2.9 1.1-3 3.3zM16.4 245.1c.5.1 1 .3 1.4.5.4.2.6.4.6.7 0 .2-.1.4-.3.7-.2.3-.3.4-.4.4-.1 0-.1 0-.2-.1s-.2-.1-.2-.1c-.7-.4-1.5-.6-2.3-.6s-1.5.2-2 .6c-.5.4-.7 1-.7 1.7 0 .5.1.9.4 1.2.2.3.5.5.9.7.3.2.9.4 1.6.7.8.3 1.5.6 2.1.9.5.3 1 .7 1.4 1.3.4.6.6 1.3.6 2.2 0 1.3-.4 2.3-1.3 3s-2 1.1-3.4 1.1c-.8 0-1.5-.1-2.2-.3-.7-.2-1.2-.4-1.6-.6s-.6-.5-.6-.7c0-.2.1-.4.3-.7.2-.3.3-.4.5-.4l.4.2c.5.3 1 .5 1.5.6s1.1.2 1.7.2c.8 0 1.5-.2 2-.7.5-.5.8-1.1.8-1.8 0-.5-.1-.9-.4-1.3s-.6-.6-1-.8c-.4-.2-1-.5-1.7-.7-.8-.3-1.5-.6-1.9-.9-.5-.3-.9-.7-1.2-1.2-.3-.5-.5-1.2-.5-2.1 0-.8.2-1.4.6-2s.9-1 1.6-1.4c.7-.3 1.5-.5 2.4-.5.1 0 .6 0 1.1.2zm12.9 4.9c.7.9 1.1 2.3 1.1 4.1 0 .1-.1.3-.3.5-.2.2-.3.3-.4.3h-6.6c.1 1.2.4 2 .9 2.6s1.3.8 2.3.8c.6 0 1.1-.1 1.5-.2.4-.1.8-.3 1.1-.4.3-.1.4-.2.5-.2.1 0 .3.1.5.4.2.3.3.5.3.6 0 .2-.2.4-.5.6-.4.2-.8.4-1.4.5-.6.1-1.2.2-1.9.2-1.8 0-3-.5-3.9-1.4-.8-.9-1.3-2.3-1.3-4.2 0-1.9.4-3.3 1.2-4.2.8-1 2-1.5 3.7-1.5 1.4.1 2.5.6 3.2 1.5zm-6.2 3.4h5.5c0-2.2-.8-3.3-2.5-3.3-1.9 0-2.8 1.1-3 3.3zm15.5-4.6c.2.2.3.4.3.6 0 .2 0 .5-.1.7-.1.3-.2.4-.3.4-.1 0-.2 0-.4-.1s-.5-.1-.7-.1c-.3 0-.6.1-.9.3-.3.2-.5.4-.7.6-.2.2-.3.4-.3.4v7.7c0 .3-.3.5-.8.5h-.1c-.6 0-.8-.2-.8-.5v-7.4c0-.9 0-1.6-.1-2s-.1-.6-.1-.7c0-.2.1-.3.4-.4.3-.1.5-.1.7-.1.2 0 .3.1.4.3.1.2.2.4.2.6 0 .2.1.4.1.4.7-1.1 1.6-1.6 2.4-1.6.2.2.5.3.8.4zm10.9.2c0 .1 0 .2-.1.3L46 259.4c-.1.2-.4.3-.8.3h-.7c-.5 0-.8-.1-.8-.3l-3.4-10.1c0-.1-.1-.2-.1-.3 0-.2.3-.4.9-.4h.1c.5 0 .8.1.8.3l2.1 6.7c.1.4.4 1.3.7 2.6h.2l.1-.6c.2-.8.3-1.5.5-2l2.2-6.7c.1-.2.4-.3.9-.3h.1c.4.1.7.2.7.4zm4.5-4.6v1.2c0 .3-.3.5-.8.5h-.3c-.6 0-.8-.2-.8-.5v-1.2c0-.3.3-.5.8-.5h.3c.5 0 .8.2.8.5zm-.1 4.7v10.2c0 .3-.3.5-.8.5H53c-.6 0-.8-.2-.8-.5v-10.2c0-.3.3-.5.8-.5h.1c.5.1.8.2.8.5zm10.5-.2c.6.2 1 .4 1 .7 0 .2-.1.4-.2.7s-.3.4-.4.4h-.1s-.1 0-.1-.1c-.8-.3-1.5-.5-2.3-.5-2 0-3 1.3-3 4 0 1.5.2 2.6.7 3.2.5.7 1.3 1 2.5 1 .9 0 1.6-.2 2.4-.5l.2-.1c.1 0 .3.1.5.4.2.3.3.5.3.7 0 .2-.2.3-.5.5s-.7.3-1.2.4c-.5.1-1.1.2-1.6.2-1.7 0-3-.4-3.9-1.3s-1.3-2.3-1.3-4.3.5-3.4 1.4-4.3c1-.9 2.1-1.3 3.6-1.3.6-.1 1.3 0 2 .2zm11.5 1.1c.7.9 1.1 2.3 1.1 4.1 0 .1-.1.3-.3.5-.2.2-.3.3-.4.3h-6.6c.1 1.2.4 2 .9 2.6s1.3.8 2.3.8c.6 0 1.1-.1 1.5-.2.4-.1.8-.3 1.1-.4.3-.1.4-.2.5-.2.1 0 .3.1.5.4.2.3.3.5.3.6 0 .2-.2.4-.5.6-.4.2-.8.4-1.4.5-.6.1-1.2.2-1.9.2-1.8 0-3-.5-3.9-1.4-.8-.9-1.3-2.3-1.3-4.2 0-1.9.4-3.3 1.2-4.2.8-1 2-1.5 3.7-1.5 1.4.1 2.5.6 3.2 1.5zm-6.2 3.4h5.5c0-2.2-.8-3.3-2.5-3.3-1.9 0-2.9 1.1-3 3.3zm156.8-8.3c.5.1 1 .3 1.4.5.4.2.6.4.6.7 0 .2-.1.4-.3.7-.2.3-.3.4-.4.4-.1 0-.1 0-.2-.1s-.2-.1-.2-.1c-.7-.4-1.5-.6-2.3-.6s-1.5.2-2 .6c-.5.4-.7 1-.7 1.7 0 .5.1.9.4 1.2.2.3.5.5.9.7.3.2.9.4 1.6.7.8.3 1.5.6 2.1.9.5.3 1 .7 1.4 1.3.4.6.6 1.3.6 2.2 0 1.3-.4 2.3-1.3 3s-2 1.1-3.4 1.1c-.8 0-1.5-.1-2.2-.3-.7-.2-1.2-.4-1.6-.6s-.6-.5-.6-.7c0-.2.1-.4.3-.7.2-.3.3-.4.5-.4l.4.2c.5.3 1 .5 1.5.6s1.1.2 1.7.2c.8 0 1.5-.2 2-.7.5-.5.8-1.1.8-1.8 0-.5-.1-.9-.4-1.3s-.6-.6-1-.8c-.4-.2-1-.5-1.7-.7-.8-.3-1.5-.6-1.9-.9-.5-.3-.9-.7-1.2-1.2-.3-.5-.5-1.2-.5-2.1 0-.8.2-1.4.6-2s.9-1 1.6-1.4c.7-.3 1.5-.5 2.4-.5.1 0 .6.1 1.1.2zm13 4.9c.7.9 1.1 2.3 1.1 4.1 0 .1-.1.3-.3.5-.2.2-.3.3-.4.3h-6.6c.1 1.2.4 2 .9 2.6s1.3.8 2.3.8c.6 0 1.1-.1 1.5-.2.4-.1.8-.3 1.1-.4.3-.1.4-.2.5-.2.1 0 .3.1.5.4.2.3.3.5.3.6 0 .2-.2.4-.5.6-.4.2-.8.4-1.4.5-.6.1-1.2.2-1.9.2-1.8 0-3-.5-3.9-1.4-.8-.9-1.3-2.3-1.3-4.2 0-1.9.4-3.3 1.2-4.2.8-1 2-1.5 3.7-1.5 1.4.1 2.4.6 3.2 1.5zm-6.3 3.5h5.5c0-2.2-.8-3.3-2.5-3.3-1.8 0-2.8 1.1-3 3.3zm15.5-4.6c.2.2.3.4.3.6 0 .2 0 .5-.1.7-.1.3-.2.4-.3.4-.1 0-.2 0-.4-.1s-.5-.1-.7-.1c-.3 0-.6.1-.9.3-.3.2-.5.4-.7.6-.2.2-.3.4-.3.4v7.7c0 .3-.3.5-.8.5h-.1c-.6 0-.8-.2-.8-.5V252c0-.9 0-1.6-.1-2s-.1-.6-.1-.7c0-.2.1-.3.4-.4.3-.1.5-.1.7-.1.2 0 .3.1.4.3.1.2.2.4.2.6 0 .2.1.4.1.4.7-1.1 1.6-1.6 2.4-1.6.3.1.6.2.8.4zm10.9.2c0 .1 0 .2-.1.3l-3.4 10.1c-.1.2-.4.3-.8.3h-.7c-.5 0-.8-.1-.8-.3l-3.4-10.1c0-.1-.1-.2-.1-.3 0-.2.3-.4.9-.4h.1c.5 0 .8.1.8.3l2.1 6.7c.1.4.4 1.3.7 2.6h.1l.1-.6c.2-.8.3-1.5.5-2l2.2-6.7c.1-.2.4-.3.9-.3h.1c.5 0 .8.2.8.4zm4.5-4.7v1.2c0 .3-.3.5-.8.5h-.3c-.6 0-.8-.2-.8-.5v-1.2c0-.3.3-.5.8-.5h.3c.5.1.8.2.8.5zm-.1 4.8v10.2c0 .3-.3.5-.8.5h-.1c-.6 0-.8-.2-.8-.5v-10.2c0-.3.3-.5.8-.5h.1c.5 0 .8.2.8.5zm10.5-.3c.6.2 1 .4 1 .7 0 .2-.1.4-.2.7s-.3.4-.4.4h-.1s-.1 0-.1-.1c-.8-.3-1.5-.5-2.3-.5-2 0-3 1.3-3 4 0 1.5.2 2.6.7 3.2.5.7 1.3 1 2.5 1 .9 0 1.6-.2 2.4-.5l.2-.1c.1 0 .3.1.5.4.2.3.3.5.3.7 0 .2-.2.3-.5.5s-.7.3-1.2.4c-.5.1-1.1.2-1.6.2-1.7 0-3-.4-3.9-1.3s-1.3-2.3-1.3-4.3.5-3.4 1.4-4.3c1-.9 2.1-1.3 3.6-1.3.6-.1 1.3 0 2 .2zM286 250c.7.9 1.1 2.3 1.1 4.1 0 .1-.1.3-.3.5-.2.2-.3.3-.4.3h-6.6c.1 1.2.4 2 .9 2.6s1.3.8 2.3.8c.6 0 1.1-.1 1.5-.2.4-.1.8-.3 1.1-.4.3-.1.4-.2.5-.2.1 0 .3.1.5.4.2.3.3.5.3.6 0 .2-.2.4-.5.6-.4.2-.8.4-1.4.5-.6.1-1.2.2-1.9.2-1.8 0-3-.5-3.9-1.4-.8-.9-1.3-2.3-1.3-4.2 0-1.9.4-3.3 1.2-4.2.8-1 2-1.5 3.7-1.5 1.4.1 2.5.6 3.2 1.5zm-6.2 3.5h5.5c0-2.2-.8-3.3-2.5-3.3-1.9 0-2.9 1.1-3 3.3z" fill="#515a6d"/><circle cx="154.1" cy="149.4" r="43.5" fill="#d0daed"/><path d="M196.1 149.4c-.3 17.5-11 33.5-27.6 39.5-16.3 5.9-35 1-46.2-12.2-11.5-13.4-13.3-33.2-4.3-48.5 8.9-15.2 26.8-23.4 44.1-20.1 19.6 3.8 33.6 21.3 34 41.3 0 1.9 3 1.9 3 0-.3-18.8-11.9-35.9-29.8-42.3-17.7-6.4-38.1-.6-50 14-11.8 14.6-13.4 35.6-3.6 51.6 9.7 16 28.8 24.4 47.1 20.9 21.1-4.1 36-22.9 36.3-44.1 0-2.1-3-2.1-3-.1z" fill="#727f9b"/><path d="M142.1 139.9l4.8 13.6c0 .1.1.2.1.3 0 .3-.3.4-1 .4h-.7c-.6 0-1-.1-1.1-.4l-1-2.9h-5.4l-1 2.9c-.1.3-.4.4-.9.4h-.6c-.8 0-1.2-.1-1.2-.4 0 0 0-.2.1-.4l4.8-13.6c.1-.3.5-.4 1.1-.4h.9c.6.1 1 .2 1.1.5zm-1.6 2.8c0 .1 0 .2-.1.5 0 .3-.1.5-.2.8l-1.6 4.7h3.8l-1.6-4.7c0-.3-.1-.8-.3-1.3zm16 1.1c.6.5 1.1 1.1 1.4 2 .3.9.5 1.9.5 3 0 1.8-.4 3.1-1.2 4.1s-1.9 1.5-3.2 1.5c-.9 0-1.7-.3-2.4-.8v4.4c0 .4-.4.6-1.1.6h-.5c-.7 0-1.1-.2-1.1-.6v-11.2c0-.9 0-1.6-.1-2-.1-.4-.1-.7-.1-.8 0-.2.2-.3.7-.5s.9-.2 1.2-.2c.2 0 .4.1.5.3s.2.4.2.6c0 .2.1.4.1.5.3-.5.8-.9 1.3-1.2.5-.3 1.1-.4 1.7-.4.8 0 1.5.2 2.1.7zm-4 1.8c-.4.2-.7.6-1 1v5.1c.5.4 1.2.6 1.9.6 1.5 0 2.3-1.2 2.3-3.4 0-1.1-.2-2-.5-2.6-.3-.6-.8-.9-1.5-.9-.4-.1-.8 0-1.2.2zm16.3-1.8c.6.5 1.1 1.1 1.4 2 .3.9.5 1.9.5 3 0 1.8-.4 3.1-1.2 4.1s-1.9 1.5-3.2 1.5c-.9 0-1.7-.3-2.4-.8v4.4c0 .4-.4.6-1.1.6h-.4c-.7 0-1.1-.2-1.1-.6v-11.2c0-.9 0-1.6-.1-2-.1-.4-.1-.7-.1-.8 0-.2.2-.3.7-.5s.9-.2 1.2-.2c.2 0 .4.1.5.3s.2.4.2.6c0 .2.1.4.1.5.3-.5.8-.9 1.3-1.2.5-.3 1.1-.4 1.7-.4.7 0 1.4.2 2 .7zm-3.9 1.8c-.4.2-.7.6-1 1v5.1c.5.4 1.2.6 1.9.6 1.5 0 2.3-1.2 2.3-3.4 0-1.1-.2-2-.5-2.6-.3-.6-.8-.9-1.5-.9-.5-.1-.9 0-1.2.2z" fill="#515a6d"/><path d="M54 14.5c5.7.5 10.7 3.6 13.8 8.4l2.4-1.8c-4.1-4.3-8.8-8.2-15.1-7.8-1.3.1-2.2 2.1-.8 2.8 3.9 1.8 7 4.5 9 8.3.9 1.7 3.5.2 2.6-1.5-2.3-4.2-5.7-7.5-10.1-9.4-.3.9-.5 1.9-.8 2.8 5.5-.3 9.4 3.2 13 6.9 1.2 1.2 3.3-.4 2.4-1.8-3.7-5.8-9.6-9.3-16.4-9.9-1.9-.1-1.9 2.9 0 3zM16.6 64.6c4.4 9.9 14.9 13.2 24.8 14.9 1.6.3 2.6-1.8 1.2-2.7-5-3.3-10-6.6-15.1-9.9-1.3-.9-2.7.8-2.1 2.1 1.3 2.4 2.8 4.3 4.8 6.1.5-.8 1-1.7 1.5-2.5-6.4-1.4-9.6-7.1-12.4-12.5-.9-1.7-3.5-.2-2.6 1.5 3.3 6.1 7 12.2 14.3 13.8 1.4.3 2.6-1.5 1.5-2.5-1.8-1.6-3.2-3.3-4.4-5.5L26 69.5c5 3.3 10 6.6 15.1 9.9l1.2-2.7c-9.2-1.6-18.9-4.2-23-13.5-.9-1.9-3.5-.3-2.7 1.4zm247.5-50c5.7.5 10.7 3.6 13.8 8.4l2.4-1.8c-4.1-4.3-8.8-8.2-15.1-7.8-1.3.1-2.2 2.1-.8 2.8 3.9 1.8 7 4.5 9 8.3.9 1.7 3.5.2 2.6-1.5-2.3-4.2-5.7-7.5-10.1-9.4-.3.9-.5 1.9-.8 2.8 5.5-.3 9.4 3.2 13 6.9 1.2 1.2 3.3-.4 2.4-1.8-3.7-5.8-9.6-9.3-16.4-9.9-1.9-.2-1.9 2.8 0 3zm-37.4 49.1c4.4 9.9 14.9 13.2 24.8 14.9 1.6.3 2.6-1.8 1.2-2.7-5-3.3-10-6.6-15.1-9.9-1.3-.9-2.7.8-2.1 2.1 1.3 2.4 2.8 4.3 4.8 6.1.5-.8 1-1.7 1.5-2.5-6.4-1.4-9.6-7.1-12.4-12.5-.9-1.7-3.5-.2-2.6 1.5 3.2 6.2 6.9 12.3 14.2 13.9 1.4.3 2.6-1.5 1.5-2.5-1.8-1.6-3.2-3.3-4.4-5.5l-2.1 2.1c5 3.3 10 6.6 15.1 9.9l1.2-2.7c-9.2-1.6-18.9-4.2-23-13.5-.8-2-3.3-.5-2.6 1.3zM54 223.5c5.7.5 10.7 3.6 13.8 8.4l2.4-1.8c-4.1-4.3-8.8-8.2-15.1-7.8-1.3.1-2.2 2.1-.8 2.8 3.9 1.8 7 4.5 9 8.3.9 1.7 3.5.2 2.6-1.5-2.3-4.2-5.7-7.5-10.1-9.4-.3.9-.5 1.9-.8 2.8 5.5-.3 9.4 3.2 13 6.9 1.2 1.2 3.3-.4 2.4-1.8-3.7-5.8-9.6-9.3-16.4-9.9-1.9-.1-1.9 2.9 0 3zm-37.4 50.1c4.4 9.9 14.9 13.2 24.8 14.9 1.6.3 2.6-1.8 1.2-2.7-5-3.3-10-6.6-15.1-9.9-1.3-.9-2.7.8-2.1 2.1 1.3 2.4 2.8 4.3 4.8 6.1.5-.8 1-1.7 1.5-2.5-6.4-1.4-9.6-7.1-12.4-12.5-.9-1.7-3.5-.2-2.6 1.5 3.2 6.2 6.9 12.3 14.2 13.9 1.4.3 2.6-1.5 1.5-2.5-1.8-1.6-3.2-3.3-4.4-5.5l-2.1 2.1c5 3.3 10 6.6 15.1 9.9l1.2-2.7c-9.2-1.6-18.9-4.2-23-13.5-.8-2-3.4-.4-2.6 1.3zm247.5-50c5.7.5 10.7 3.6 13.8 8.4l2.4-1.8c-4.1-4.3-8.8-8.2-15.1-7.8-1.3.1-2.2 2.1-.8 2.8 3.9 1.8 7 4.5 9 8.3.9 1.7 3.5.2 2.6-1.5-2.3-4.2-5.7-7.5-10.1-9.4-.3.9-.5 1.9-.8 2.8 5.5-.3 9.4 3.2 13 6.9 1.2 1.2 3.3-.4 2.4-1.8-3.7-5.8-9.6-9.3-16.4-9.9-1.9-.2-1.9 2.8 0 3zm-37.4 50.1c4.4 9.9 14.9 13.2 24.8 14.9 1.6.3 2.6-1.8 1.2-2.7-5-3.3-10-6.6-15.1-9.9-1.3-.9-2.7.8-2.1 2.1 1.3 2.4 2.8 4.3 4.8 6.1.5-.8 1-1.7 1.5-2.5-6.4-1.4-9.6-7.1-12.4-12.5-.9-1.7-3.5-.2-2.6 1.5 3.2 6.2 6.9 12.3 14.2 13.9 1.4.3 2.6-1.5 1.5-2.5-1.8-1.6-3.2-3.3-4.4-5.5l-2.1 2.1c5 3.3 10 6.6 15.1 9.9l1.2-2.7c-9.2-1.6-18.9-4.2-23-13.5-.8-2-3.3-.5-2.6 1.3zm-93-98.7c-1.9-2.8-3.8-5.7-5.6-8.5-1.1-1.6-3.4-.2-2.6 1.5 1.8 4 5.5 6.9 9.8 7.7 1.9.3 2.7-2.5.8-2.9-3.6-.7-6.5-2.9-8-6.3-.9.5-1.7 1-2.6 1.5 1.9 2.8 3.8 5.7 5.6 8.5 1.1 1.6 3.7.1 2.6-1.5zm33.1-53.2c7.9 6.7 16.4 14.3 15.8 25.5-.1 2 2.8 1.9 3 0 1.4-13.7-8-25-21.5-26.8-1.9-.2-1.9 2.8 0 3 11.9 1.6 19.7 12 18.5 23.8h3c.6-12.1-8.2-20.5-16.7-27.7-1.4-1.2-3.6.9-2.1 2.2z" fill="#fff"/></svg>