<svg xmlns="http://www.w3.org/2000/svg" viewBox="0 0 436.3 436.3"><circle fill="#FFF" cx="218.2" cy="218.2" r="216.8"/><path fill="#727F9B" d="M433.5 218.2c-.1 44.5-13.9 88.2-39.6 124.5-25.2 35.6-61.3 63.1-102.3 78-42.4 15.4-89.5 17-132.8 4.5-41.8-12-79.3-36.8-106.9-70.3-57.4-69.6-64.7-170.9-18-248.1C56.2 69.8 89.7 40 129 22.1c41.3-18.8 88.4-24 132.8-14.8 86.5 17.8 155 89.4 169 176.7 1.8 11.2 2.7 22.7 2.7 34.2 0 1.8 2.9 1.8 2.9 0-.1-45.2-14.1-89.7-40.4-126.5-25.4-35.6-61.3-63.1-102.3-78.3-43-15.9-90.9-17.7-135-5.2-42.5 12-80.8 37.2-108.9 71.2C21.5 113.7 4.2 156.3.7 200.7-2.9 246 7.8 292 31.4 330.9c22.7 37.6 56.8 68 96.9 86.1 41.4 18.7 88.4 24 133 15.1 43.5-8.7 83.8-30.9 114.4-62.9 30.8-32.1 51.3-73.4 58.1-117.4 1.7-11.1 2.6-22.4 2.6-33.6 0-1.9-2.9-1.9-2.9 0z"/><path fill="#FFF" d="M250 315.4h-56.5v-44.7c0-7.7-12-7.7-12 0v44.6h-65V181.6c0-7.7-12-7.7-12 0v137.6c0 .6.1 1.2.2 1.7-.2 3.1 1.7 6.4 5.8 6.4h139.6c7.6.1 7.6-11.9-.1-11.9z"/><path fill="#727F9B" d="M250.3 314.4h-57.4l1.5 1.5v-31.2c0-4.6.7-9.8-.1-14.3-1.3-7.9-13.1-8.4-14.8-.4-1.2 5.9-.1 13.1-.1 19.2V316l1.5-1.5h-64l1.5 1.5V192c0-3.6.7-7.9-.2-11.4-.9-3.3-3.8-5.4-7.3-5.4-3.4 0-6.4 2.1-7.3 5.4-.8 3-.2 6.6-.2 9.7v125.8c0 4.7-.4 11.1 5.1 13 3.1 1.1 7 .4 10.3.4H238c4.4 0 9.3.6 13.6-.1 8.8-1.5 7.4-14.3-1.2-14.9-1.9-.1-1.9 2.9 0 3 3 .2 4.9 2.7 4.2 5.7-.8 3.1-3.4 3.2-6.1 3.3-7.7.2-15.4 0-23.1 0h-90.8c-7 0-14.8 1-21.7 0-2.6-.4-3.8 1.4-6-3-.7-1.3-.4-4.1-.4-5.5-.1-4.1 0-8.3 0-12.4V196.1c0-4.5-2.5-18 4.5-18 6.9 0 4.5 11.4 4.5 15.7V316c0 .8.7 1.5 1.5 1.5h64c.8 0 1.5-.7 1.5-1.5v-37.6c0-3-1-8.3 1.6-10.4 2.3-1.8 6.1-.9 7.1 1.9 1.2 3.1.2 7.8.2 11v35c0 .8.7 1.5 1.5 1.5h57.4c2 0 2-3 0-3z"/><path fill="#727F9B" d="M288.4 323.2l-25.1.7c-8.4.2-16.7.5-25.1.6-16.7.4-33.5.6-50.2 1.1l-2.6.1-.1-2.8c-.2-4.3-.4-8.6-.4-12.9s.1-8.6.3-12.9.5-8.6.9-12.9.9-8.6 1.6-12.9h.6c.7 4.3 1.2 8.6 1.6 12.9.4 4.3.7 8.6.9 12.9s.4 8.6.3 12.9c0 4.3-.2 8.6-.4 12.9l-2.7-2.7c16.7.4 33.5.7 50.2 1.1 8.4.1 16.7.4 25.1.6l25.1.7v.6z"/><circle fill="#D0DAED" cx="111.9" cy="143" r="43.5"/><path fill="#727F9B" d="M153.9 143c-.3 17.5-11 33.5-27.6 39.5-16.3 5.9-35 1-46.2-12.2-11.5-13.4-13.3-33.2-4.3-48.5 8.9-15.2 26.8-23.4 44.1-20.1 19.7 3.8 33.7 21.3 34 41.3 0 1.9 3 1.9 3 0-.3-18.8-11.9-35.9-29.8-42.3-17.7-6.4-38.1-.6-50 14-11.8 14.6-13.4 35.6-3.6 51.6 9.7 16 28.8 24.4 47.1 20.9 21.1-4.1 36-22.9 36.3-44.1 0-2.1-3-2.1-3-.1z"/><path fill="#515A6D" d="M83.8 134.1c.6.1 1 .3 1.4.5s.5.4.5.7-.1.6-.3 1c-.2.4-.4.6-.6.6 0 0-.2 0-.4-.1-.3-.1-.6-.3-.9-.3s-.7-.1-1.2-.1c-.8 0-1.3.2-1.7.5-.4.3-.5.7-.5 1.2 0 .4.1.7.3 1 .2.3.5.5.8.6.3.2.8.4 1.4.6.8.3 1.5.6 2 .9.5.3 1 .7 1.3 1.3s.6 1.3.6 2.2c0 1.5-.4 2.6-1.3 3.3s-2 1.1-3.4 1.1c-.9 0-1.7-.1-2.4-.3s-1.3-.4-1.7-.7-.6-.5-.6-.7.1-.4.2-.7.3-.5.5-.7.3-.3.5-.3c.1 0 .3.1.5.2.4.2.9.4 1.3.6.4.1.9.2 1.5.2s1.2-.2 1.6-.5.7-.8.7-1.4c0-.4-.1-.7-.3-1-.2-.3-.5-.5-.8-.7s-.8-.4-1.4-.6c-.4-.1-.6-.2-.7-.3-.6-.3-1.2-.6-1.6-.9s-.8-.7-1.1-1.3c-.3-.5-.4-1.2-.4-2 0-.9.2-1.6.7-2.3.4-.6 1-1.1 1.8-1.4.7-.3 1.6-.5 2.4-.5.1.1.7.2 1.3.3zm12.7 5.2c.7 1 1.1 2.3 1.1 4 0 .2-.1.4-.4.7s-.4.4-.6.4h-5.8c.1.9.3 1.6.8 2 .4.4 1.1.6 1.9.6.5 0 .9-.1 1.2-.2s.7-.3 1.1-.4c.2-.1.4-.1.4-.1.2 0 .4.2.6.5.2.4.3.6.3.8 0 .3-.2.5-.6.7s-.9.4-1.5.5-1.2.2-1.7.2c-1.8 0-3.2-.5-4-1.4s-1.3-2.3-1.3-4.1c0-1.9.4-3.4 1.3-4.3.9-.9 2.1-1.4 3.7-1.4 1.6.1 2.8.6 3.5 1.5zm-5.7 3.1H95c0-.8-.2-1.4-.5-1.9-.3-.4-.8-.7-1.4-.7-1.3 0-2.1.9-2.3 2.6zm15.2-4.5c.2.2.3.4.3.7s-.1.6-.2 1-.2.6-.4.6c-.1 0-.2 0-.4-.1s-.4-.1-.6-.1c-.4 0-.8.1-1.1.4-.3.3-.5.5-.2.8v7.1c-.5.4-.9.6-1.6.2h-.4c-.7.4-1.1.2-1-.2v-6.9c-.1-.9-.2-1.6-.3-2-.1-.4-.1-.7-.1-.8 0-.2.2-.3.7-.5.5-.1.9-.2 1.2-.2.2 0 .4.1.5.3s.2.4.2.6c0 .2.1.4.1.5.3-.5.7-.9 1-1.2.4-.3.8-.4 1.3-.4.5-.1.8 0 1 .2zm10.7-.1c0 .1 0 .2-.1.4l-3.3 9.8c-.1.3-.4.4-1 .4h-.7c-.6 0-1-.1-1.1-.4l-3.3-9.9c-.1-.1-.1-.3-.1-.3 0-.3.4-.4 1.1-.4h.4c.6 0 1 .1 1.1.4l1.6 5 .5 1.8.2.8h.1c.2-1.1.4-2 .6-2.6l1.6-5c.1-.3.5-.4 1.1-.4h.3c.6 0 1 .1 1 .4zm4.7-4.3v1.5c0 .2-.1.3-.3.4-.2.1-.5.1-.9-.1h-.5c-.4.2-.7.2-.9.1-.2-.1-.3-.2-.6-.4v-1.5c.3-.4.7-.6 1.4-1.1h.5c.9.5 1.3.7 1.3 1.1zm0 4.8v9.9c0 .4-.4.6-1.1.2h-.4c-.7.4-1.1.2-1.4-.2v-9.9c.3-.4.7-.6 1.4-.9h.4c.7.3 1.1.5 1.1.9zm10.3-.3c.7.2 1.1.5 1.1.9 0 .2-.1.5-.4.9-.2.4-.4.6-.6.6 0 0-.1 0-.3-.1-.6-.3-1.3-.5-2-.5-.9 0-1.5.3-2 .9-.4.6-.7 1.5-.7 2.7s.2 2.1.6 2.7c.4.6 1.1.9 2 .9.7 0 1.5-.2 2.2-.5.2-.1.3-.1.3-.1.2 0 .4.2.6.5.2.4.3.7.3.9 0 .3-.2.5-.6.7s-.9.4-1.5.5-1.1.1-1.5.1c-1.8 0-3.1-.5-3.9-1.4-.9-.9-1.3-2.3-1.3-4.2s.5-3.4 1.4-4.3c.9-.9 2.2-1.4 3.9-1.4.9-.2 1.7-.1 2.4.2zm11.3 1.3c.7 1 1.1 2.3 1.1 4 0 .2-.1.4-.4.7s-.4.4-.6.4h-5.8c.1.9.3 1.6.8 2 .4.4 1.1.6 1.9.6.5 0 .9-.1 1.2-.2s.7-.3 1.1-.4c.2-.1.4-.1.4-.1.2 0 .4.2.6.5.2.4.3.6.3.8 0 .3-.2.5-.6.7s-.9.4-1.5.5-1.2.2-1.7.2c-1.8 0-3.2-.5-4-1.4s-1.3-2.3-1.3-4.1c0-1.9.4-3.4 1.3-4.3.9-.9 2.1-1.4 3.7-1.4 1.7.1 2.8.6 3.5 1.5zm-5.6 3.1h4.1c0-.8-.2-1.4-.5-1.9-.3-.4-.8-.7-1.4-.7-1.3 0-2 .9-2.2 2.6z"/><path fill="#FFF" d="M120 114.6c5.7.5 10.7 3.6 13.8 8.4l2.4-1.8c-4.1-4.3-8.8-8.2-15.1-7.8-1.3.1-2.2 2.1-.8 2.8 3.9 1.8 7 4.5 9 8.3.9 1.7 3.5.2 2.6-1.5-2.3-4.2-5.7-7.5-10.1-9.4-.3.9-.5 1.9-.8 2.8 5.5-.3 9.4 3.2 13 6.9 1.2 1.2 3.3-.4 2.4-1.8-3.7-5.8-9.6-9.3-16.4-9.9-1.9-.2-1.9 2.8 0 3zm-36.3 47.1c4.4 9.9 14.9 13.2 24.8 14.9 1.6.3 2.6-1.8 1.2-2.7-5-3.3-10-6.6-15.1-9.9-1.3-.9-2.7.8-2.1 2.1 1.3 2.4 2.8 4.3 4.8 6.1.5-.8 1-1.7 1.5-2.5-6.4-1.4-9.6-7.1-12.4-12.5-.9-1.7-3.5-.2-2.6 1.5 3.2 6.2 6.9 12.3 14.2 13.9 1.4.3 2.6-1.5 1.5-2.5-1.8-1.6-3.2-3.3-4.4-5.5l-2.1 2.1c5 3.3 10 6.6 15.1 9.9l1.2-2.7c-9.2-1.6-18.9-4.2-23-13.5-.8-2-3.4-.5-2.6 1.3z"/><path d="M165.4 303.4h-30c-1.7 0-3 1.3-3 3v11h36v-11c0-1.6-1.3-3-3-3zm-33 33c0 1.7 1.3 3 3 3h30c1.7 0 3-1.3 3-3v-10h-36v10z" fill="#727F9B"/><path fill="#E58231" d="M166.4 322.4v-16c0-.6-.4-1-1-1h-30c-.6 0-1 .4-1 1v30c0 .6.4 1 1 1h30c.6 0 1-.4 1-1v-14"/><path fill="#F5CCB1" d="M160.4 318.4v12.5c0 .4 0 .7-.2 1-.3.4-.8.4-1.3.4-4.2.1-8.3-.2-12.4-.9 3.6-1.1 7.6-.4 11.4-.7.4 0 .8-.1 1.1-.3.5-.4.6-1.1.7-1.7.4-4.5.5-9.1.3-13.7"/><path fill="#F5CCB1" d="M158.4 318.2v5.8c0 1.4.6 5.1 0 6.3-.4.9-.7.6-1.9.6-1 0-2.1 0-3.1-.1-2.3-.1-4.7-.4-7-.7v2.9c3.2-.8 6.4-.4 9.6-.5 1.4-.1 2.7 0 3.6-1.1 1.4-1.6 1-4.6 1.1-6.5.2-3.2.2-6.3.1-9.5-.1-1.9-3-1.9-3 0 .1 2 .1 4.1.1 6.1 0 2.1.4 5.5-1.1 7.1s-3.8.9-5.9.9c-1.8 0-3.6.2-5.4.7-1.3.3-1.5 2.6 0 2.9 3 .4 6 .8 9 .9 1.7.1 4.3.6 5.8-.6 1.3-1.1 1-3.3 1-4.8v-10.2c.1-2.2-2.9-2.2-2.9-.2zm-19.5-3.9c.1-.6 0-1.3 0-2s.1-1.4.6-1.8c.4-.3.8-.5 1.3-.6 1.3-.3 2.7-.4 4.1-.3"/><path fill="#F5CCB1" d="M140.4 314.3c.1-.8-.4-2.3.5-2.8 1.1-.5 2.9-.4 4.1-.3 1.9.1 1.9-2.9 0-3s-4.6-.2-6.2 1c-1.7 1.3-1.2 3.2-1.4 5-.1 2 2.9 2 3 .1z"/><circle fill="#D0DAED" cx="187.5" cy="266.2" r="20.2"/><path fill="#727F9B" d="M206.2 266.2c-.3 10.1-8.3 18.8-18.7 18.7-10.2-.1-18.7-8.5-18.7-18.7 0-10 8.1-18.3 18-18.7 10.7-.4 19.1 8.2 19.4 18.7.1 1.9 3.1 1.9 3 0-.4-11.8-9.6-21.7-21.7-21.7-11.8 0-21.7 9.9-21.7 21.7 0 11.8 9.9 21.7 21.7 21.7 12.1 0 21.3-9.9 21.7-21.7.1-2-2.9-2-3 0z"/><path fill="#FFF" d="M178.8 260.8c1.8-3.4 5.3-5.3 9.1-5.1 1.9.1 1.9-2.9 0-3-4.9-.3-9.4 2.3-11.7 6.6-.9 1.7 1.7 3.2 2.6 1.5zm8 18.3c9.1 1.9 16.4-5.4 14.9-14.5-.3-1.6-2.4-1.3-2.9 0-1.5 4.2-3.7 8.1-8.2 9.4-3.8 1.1-8 1.4-11.9 1.3-1.9 0-1.9 3 0 3 4.9.1 11.1-.1 15.6-2.4 3.9-2.1 6-6.5 7.5-10.5h-2.9c1.2 6.8-4.5 12.2-11.2 10.8-2-.4-2.8 2.5-.9 2.9z"/><circle fill="#D0DAED" cx="288.8" cy="322.9" r="43.5"/><path fill="#727F9B" d="M330.8 322.9c-.3 17.5-11 33.5-27.6 39.5-16.3 5.9-35 1-46.2-12.2-11.5-13.4-13.3-33.2-4.3-48.5 8.9-15.2 26.8-23.4 44.1-20.1 19.7 3.8 33.7 21.3 34 41.3 0 1.9 3 1.9 3 0-.3-18.8-11.9-35.9-29.8-42.3-17.7-6.4-38.1-.6-50 14-11.8 14.6-13.4 35.6-3.6 51.6 9.7 16 28.8 24.4 47.1 20.9 21.1-4.1 36-22.9 36.3-44.1 0-2.1-3-2.1-3-.1z"/><path fill="#515A6D" d="M276.8 312.8l4.8 13.8c0 .1.1.2.1.3 0 .3-.3.4-1 .4h-1.1c-.6 0-.9-.1-1-.4l-.9-2.6h-4.9l-.9 2.6c-.1.2-.4.4-.8.4h-1c-.8 0-1.2-.1-1.2-.4 0 0 0-.2.1-.4l4.8-13.8c.1-.3.5-.4 1.1-.4h.9c.6.1.9.2 1 .5zm-1.6 3.6c0 .1 0 .2-.1.5 0 .3-.1.5-.2.8l-1.6 4.7h3.8l-1.6-4.7c0-.3-.1-.8-.3-1.3zm16 .9c.6.5 1.1 1.1 1.4 2s.5 1.9.5 3c0 1.8-.4 3.1-1.2 4.1s-1.9 1.5-3.2 1.5c-.9 0-1.7-.3-2.3-.8v4.4c-.1.4-.5.6-1.3.9h-.4c-.7-.3-1.1-.5-1.3-.9v-11.2c.2-.9.2-1.6.1-2.1-.1-.4-.1-.7-.1-.8 0-.2.2-.3.7-.5s.9-.2 1.2-.2c.2 0 .4.1.5.3.1.2.2.4.2.6s.1.4.1.5c.3-.5.8-.9 1.3-1.2.5-.3 1.1-.4 1.7-.4.8.1 1.5.3 2.1.8zm-3.8 1.8c-.4.2-.7.6-1 1v5.1c.5.4 1.2.6 1.9.6 1.5 0 2.3-1.2 2.3-3.4 0-1.1-.2-2-.5-2.6s-.8-.9-1.5-.9c-.5-.1-.8 0-1.2.2zm16.2-1.8c.6.5 1.1 1.1 1.4 2s.5 1.9.5 3c0 1.8-.4 3.1-1.2 4.1s-1.9 1.5-3.2 1.5c-.9 0-1.7-.3-2.7-.8v4.4c.2.4-.2.6-.9.9h-.4c-.7-.3-1.1-.5-1.7-.9v-11.2c.6-.9.6-1.6.5-2.1-.1-.4-.1-.7-.1-.8 0-.2.2-.3.7-.5s.9-.2 1.2-.2c.2 0 .4.1.5.3.1.2.2.4.2.6s.1.4.1.5c.3-.5.8-.9 1.3-1.2.5-.3 1.1-.4 1.7-.4.8.1 1.5.3 2.1.8zm-4.2 1.8c-.4.2-.7.6-1 1v5.1c.5.4 1.2.6 1.9.6 1.5 0 2.3-1.2 2.3-3.4 0-1.1-.2-2-.5-2.6s-.8-.9-1.5-.9c-.5-.1-.8 0-1.2.2z"/><path fill="#FFF" d="M268.4 348.5c-1.9-2.8-3.8-5.7-5.6-8.5-1.1-1.6-3.4-.2-2.6 1.5 1.8 4 5.5 6.9 9.8 7.7 1.9.3 2.7-2.5.8-2.9-3.6-.7-6.5-2.9-8-6.3-.9.5-1.7 1-2.6 1.5 1.9 2.8 3.8 5.7 5.6 8.5 1.1 1.6 3.7.1 2.6-1.5zm35.1-55.6c7.9 6.7 16.4 14.3 15.8 25.5-.1 2 2.8 1.9 3 0 1.4-13.7-8-25-21.5-26.8-1.9-.2-1.9 2.8 0 3 11.9 1.6 19.7 12 18.5 23.8h3c.6-12.1-8.2-20.5-16.7-27.7-1.4-1.2-3.5.9-2.1 2.2z"/><path d="M201.2 124.2c-2-2.3-3-5.7-3-10.1 0-4.4 1-7.8 3-10.1s5-3.4 8.8-3.4c3.9 0 6.8 1.1 8.8 3.4 2 2.3 3 5.7 3 10.1 0 4.4-1 7.8-3 10.1s-5 3.5-8.8 3.5c-3.9 0-6.8-1.2-8.8-3.5zm14.5-2.6c1.3-1.7 2-4.2 2-7.5s-.7-5.8-2-7.5c-1.3-1.7-3.2-2.5-5.7-2.5s-4.4.8-5.7 2.5c-1.3 1.7-1.9 4.2-1.9 7.5s.7 5.8 2 7.5c1.3 1.7 3.2 2.6 5.7 2.6 2.4 0 4.3-.9 5.6-2.6zm11 12.8v-20.8c0-1.7-.1-2.9-.2-3.6-.2-.8-.2-1.2-.2-1.3 0-.4.3-.6 1-.8.6-.2 1.2-.2 1.7-.2.4 0 .7.2.8.6.2.4.3.7.4 1.1.1.4.1.7.2.8.8-.9 1.7-1.6 2.6-2.1 1-.5 2-.7 3.1-.7 1.5 0 2.8.4 3.9 1.3 1.1.8 1.9 2 2.5 3.6.6 1.5.9 3.3.9 5.4 0 3.2-.7 5.7-2.1 7.5-1.4 1.8-3.3 2.7-5.7 2.7-1 0-1.9-.2-2.7-.5-.8-.3-1.5-.7-2.3-1.3v8.4c0 .6-.6.9-1.7.9h-.4c-1.2-.1-1.8-.4-1.8-1zm11.5-11.8c.8-1.1 1.2-2.8 1.2-5 0-2.3-.4-4-1.1-5.3-.7-1.2-1.7-1.8-3.1-1.8-.8 0-1.6.2-2.4.7-.8.4-1.5 1.1-2.2 1.8v9.9c1.2.9 2.5 1.4 4.1 1.4 1.6.1 2.8-.5 3.5-1.7zm8.9-5c0-3.4.8-6 2.3-7.7 1.5-1.7 3.8-2.6 6.7-2.6 2.7 0 4.6.9 6 2.6 1.3 1.7 2 4.2 2 7.3 0 .3-.2.6-.6 1.1-.4.5-.7.7-.9.7h-11.4c.2 1.9.7 3.3 1.6 4.2s2.2 1.3 3.9 1.3c1 0 1.8-.1 2.5-.3s1.3-.5 1.9-.7c.5-.3.8-.4.9-.4.3 0 .6.3 1 .9.4.6.6 1 .6 1.3 0 .4-.3.8-1 1.2-.7.4-1.5.7-2.6 1s-2.1.4-3.2.4c-6.5-.2-9.7-3.6-9.7-10.3zm13-1.7c0-1.7-.3-3.1-1-4-.7-.9-1.7-1.4-3-1.4-2.9 0-4.5 1.8-4.8 5.4h8.8zm8.4 10.6v-13c0-1.7-.1-2.9-.2-3.6-.2-.8-.2-1.2-.2-1.3 0-.4.3-.6 1-.8.6-.2 1.2-.2 1.7-.2.4 0 .7.2.8.5.2.4.3.7.4 1.1.1.4.1.7.2.8.8-.9 1.7-1.6 2.7-2.1 1-.5 2.1-.8 3.2-.8 1.9 0 3.4.5 4.5 1.6s1.6 2.6 1.6 4.5v13.1c0 .6-.6 1-1.7 1h-.4c-1.2 0-1.7-.3-1.7-1v-12.7c0-1-.3-1.8-.9-2.4-.6-.6-1.4-.9-2.5-.9-.8 0-1.6.2-2.4.7-.8.5-1.4 1.1-1.9 1.8v13.4c0 .6-.6 1-1.7 1h-.4c-1.6.3-2.1 0-2.1-.7zm-67.3 41.9c-2-2.2-3-5.6-3-10.3 0-9 4.1-13.5 12.4-13.5 1.2 0 2.5.1 3.7.4 1.2.3 2.2.6 2.9 1 .6.4 1 .7 1 1.1 0 .4-.2.9-.6 1.6s-.7 1-1 1c-.1 0-.4-.1-1-.4-.6-.3-1.2-.5-2.1-.8-.8-.2-1.7-.3-2.8-.3-2.8 0-4.9.8-6.2 2.4-1.3 1.6-2 4.1-2 7.6 0 3.4.7 6 2 7.6 1.3 1.6 3.4 2.5 6.1 2.5 1.2 0 2.3-.1 3.2-.4.9-.3 1.7-.6 2.5-1 .4-.2.6-.3.7-.3.2 0 .5.2.7.5.2.3.4.7.6 1.1.2.4.3.7.3.9 0 .5-.4 1-1.3 1.4-.8.4-1.8.8-3 1.1-1.2.3-2.5.4-3.8.4-4.2-.3-7.3-1.4-9.3-3.6zm21.2-21.2V145c0-.7.7-1.1 2.1-1.1 1.3 0 2 .4 2 1.1v2.2c0 .7-.7 1.1-2.1 1.1-1.3 0-2-.4-2-1.1zm.1 23.3v-18.1c0-.6.6-1 1.7-1h.4c1.2 0 1.7.3 1.7 1v18.1c0 .6-.6 1-1.7 1h-.4c-1.1 0-1.7-.3-1.7-1zm9.9 0v-13c0-1.7-.1-2.9-.2-3.6-.2-.8-.2-1.2-.2-1.3 0-.4.3-.6 1-.8.6-.2 1.2-.2 1.7-.2.4 0 .7.2.8.5.2.4.3.7.4 1.1s.1.7.2.8c1.3-1.9 2.7-2.9 4.3-2.9.7 0 1.3.2 1.7.5.4.3.6.7.6 1.2s-.1 1-.3 1.5c-.2.6-.4.8-.6.8-.2 0-.4-.1-.8-.2s-.8-.2-1.2-.2c-.8 0-1.5.3-2.1.8-.6.5-1 1-1.3 1.4v13.4c0 .6-.6 1-1.7 1h-.4c-1.4.2-1.9-.1-1.9-.8zm14.7-1.3c-1.5-1.6-2.3-4.2-2.3-7.8 0-3.6.8-6.2 2.5-7.8 1.7-1.6 3.9-2.4 6.7-2.4 1.5 0 2.8.2 4 .6 1.2.4 1.8.9 1.8 1.4 0 .4-.2.8-.5 1.4-.4.6-.7.9-1 .9 0 0-.2-.1-.5-.2-.6-.3-1.2-.5-1.8-.6-.6-.2-1.3-.3-2.1-.3-1.7 0-3 .6-3.9 1.7s-1.3 2.8-1.3 5.2c0 2.5.4 4.3 1.2 5.4.8 1.1 2.2 1.7 4.1 1.7.9 0 1.7-.1 2.3-.3.6-.2 1.3-.4 1.8-.7.3-.1.5-.2.5-.2.3 0 .6.3 1 .9.4.6.5 1 .5 1.3 0 .6-.7 1.1-2 1.5-1.3.4-2.7.6-4.2.6-2.9.2-5.3-.7-6.8-2.3zm18.3.9c-1.1-1.1-1.6-2.6-1.6-4.5v-13.1c0-.6.6-1 1.7-1h.4c1.2 0 1.7.3 1.7 1v12.7c0 1 .3 1.8.9 2.4.6.6 1.4.9 2.5.9.8 0 1.6-.2 2.4-.7.8-.5 1.4-1.1 1.9-1.8v-13.4c0-.6.6-1 1.7-1h.4c1.2 0 1.7.3 1.7 1v13.1c0 1.7.1 2.9.2 3.7.2.8.2 1.2.2 1.3 0 .4-.3.6-1 .8-.6.2-1.2.2-1.7.2-.4 0-.7-.2-.8-.6-.2-.4-.3-.8-.4-1.2-.1-.4-.1-.7-.2-.9-.7.9-1.6 1.6-2.7 2.1-1 .5-2.1.8-3.2.8-1.6-.2-3.1-.8-4.1-1.8zm19.7-22.9V145c0-.7.7-1.1 2.1-1.1 1.3 0 2 .4 2 1.1v2.2c0 .7-.7 1.1-2.1 1.1-1.3 0-2-.4-2-1.1zm.1 23.3v-18.1c0-.6.6-1 1.7-1h.4c1.2 0 1.7.3 1.7 1v18.1c0 .6-.6 1-1.7 1h-.4c-1.1 0-1.7-.3-1.7-1zm11.9-.1c-1-.8-1.5-2.3-1.5-4.2v-11.4h-1.5c-.3 0-.5-.1-.7-.3-.1-.2-.2-.6-.2-1v-.5c0-.5.1-.8.2-1 .1-.2.4-.3.7-.3h1.5l.5-3.9c.1-.6.6-1 1.4-1h.6c.9 0 1.4.3 1.4 1v3.9h2.8c.3 0 .5.1.7.3.1.2.2.6.2 1v.5c0 .5-.1.8-.2 1-.1.2-.4.3-.7.3h-2.8V166c0 .9.2 1.6.5 1.9.3.4.8.6 1.4.6.4 0 .7 0 .9-.1.2-.1.4-.1.6-.1.3 0 .5.3.6.8.2.5.3 1 .3 1.2 0 .9-1 1.4-3 1.4-1.5 0-2.7-.5-3.7-1.3zm-94.9 44.4l-4.9-17.9c-.1-.3-.2-.5-.2-.7 0-.5.6-.8 1.9-.8 1.2 0 1.8.2 1.9.6l3 11.6c.1.3.2.9.3 1.7l.4 2.1h.2c0-.2.1-.5.2-.9.3-1.6.5-2.6.6-2.9l3-11.5c.1-.5.6-.7 1.6-.7h.5c1 0 1.6.2 1.7.7l3 11.5c.3 1.1.5 2.2.6 3.1.1.2.1.5.2.8h.1c.1-.3.2-.9.3-1.8.1-.2.1-.6.2-1 .1-.5.2-.8.2-1l3-11.6c.1-.4.7-.6 1.7-.6 1.2 0 1.8.3 1.8.8 0 .1 0 .3-.1.5l-4.9 18.1c-.1.2-.2.4-.6.5-.3.1-.7.2-1.2.2h-1.3c-1 0-1.6-.2-1.7-.6l-2.8-11.2c-.1-.3-.2-.9-.4-2l-.1-.8h-.1c-.1.4-.1.7-.2.9-.1.9-.2 1.5-.3 1.9L207 215c-.1.2-.2.4-.5.5-.3.1-.7.2-1.1.2H204c-1.1-.2-1.7-.4-1.8-.9zm25.1-23.6V189c0-.7.7-1.1 2.1-1.1 1.3 0 2 .4 2 1.1v2.2c0 .7-.7 1.1-2.1 1.1-1.3 0-2-.4-2-1.1zm.1 23.3v-18.1c0-.6.6-1 1.7-1h.4c1.2 0 1.7.3 1.7 1v18.1c0 .6-.6 1-1.7 1h-.4c-1.1 0-1.7-.3-1.7-1zm11.9-.1c-1-.8-1.5-2.3-1.5-4.2v-11.4h-1.5c-.3 0-.5-.1-.7-.3-.1-.2-.2-.6-.2-1v-.5c0-.5.1-.8.2-1 .1-.2.4-.3.7-.3h1.5l.5-3.9c.1-.6.6-1 1.4-1h.6c.9 0 1.4.3 1.4 1v3.9h2.8c.3 0 .5.1.7.3.1.2.2.6.2 1v.5c0 .5-.1.8-.2 1-.1.2-.4.3-.7.3h-2.8V210c0 .9.2 1.6.5 1.9.3.4.8.6 1.4.6.4 0 .7 0 .9-.1.2-.1.4-.1.6-.1.3 0 .5.3.6.8.2.5.3 1 .3 1.2 0 .9-1 1.4-3 1.4-1.5 0-2.7-.5-3.7-1.3zm10.8.1v-26.8c0-.6.6-.9 1.7-.9h.4c1.2 0 1.7.3 1.7.9v10.1c.7-.8 1.6-1.4 2.6-1.9s2-.7 3.1-.7c1.7 0 3.1.5 4.2 1.4 1.1.9 1.7 2.5 1.7 4.8v13.1c0 .6-.6 1-1.7 1h-.4c-1.2 0-1.7-.3-1.7-1v-12.7c0-1-.3-1.8-.9-2.4-.6-.6-1.4-.9-2.6-.9-.7 0-1.4.2-2.1.5-.6.3-1.1.7-1.5 1.1s-.6.7-.7.9v13.4c0 .6-.6 1-1.7 1h-.4c-1.1.1-1.7-.2-1.7-.9zm30.7 0v-15.8h-1.3c-.3 0-.5-.1-.7-.3s-.2-.6-.2-1v-.5c0-.5.1-.8.2-1s.4-.3.7-.3h1.3v-3.4c0-2 .5-3.5 1.5-4.3s2.2-1.2 3.6-1.2c2 0 3 .4 3 1.3 0 .3-.1.7-.3 1.3-.2.6-.4.8-.6.8-.1 0-.3 0-.6-.1s-.6-.1-.9-.1c-.6 0-1.1.2-1.4.5-.3.3-.5 1-.5 2v3.2h2.9c.3 0 .5.1.7.3.1.2.2.6.2 1v.5c0 .5-.1.8-.2 1-.1.2-.4.3-.7.3h-2.9v15.8c0 .6-.6 1-1.7 1h-.4c-1.1 0-1.7-.3-1.7-1zm11.8-.3c-1.1-1-1.7-2.4-1.7-4.2 0-2.6 1.1-4.4 3.2-5.4s5.1-1.6 8.9-1.6v-1.6c0-.9-.3-1.6-.9-2.1-.6-.5-1.6-.8-2.9-.8-1 0-1.9.1-2.7.4s-1.4.5-2 .8-.9.4-.9.4c-.3 0-.6-.3-1-.9-.4-.6-.6-1-.6-1.3 0-.4.3-.7 1-1.1.7-.4 1.6-.7 2.7-1 1.1-.3 2.3-.4 3.5-.4 2.5 0 4.4.5 5.7 1.6 1.3 1.1 2 2.6 2 4.5v8.1c0 1.7.1 2.9.2 3.7.2.8.2 1.2.2 1.3 0 .4-.3.6-.9.8s-1.2.2-1.7.2c-.4 0-.7-.2-.9-.6-.2-.4-.3-.8-.4-1.2-.1-.4-.1-.7-.2-.9-.7.8-1.5 1.5-2.6 2.1-1 .6-2.2.8-3.6.8-1.8-.1-3.3-.6-4.4-1.6zm8.1-2.5c.8-.5 1.6-1.1 2.3-1.9V206c-2.5 0-4.4.2-5.9.7-1.5.5-2.2 1.5-2.2 2.9 0 .9.2 1.5.7 2 .5.5 1.2.7 2.1.7 1.2.1 2.2-.1 3-.6zm13.3 2.7c-1-.8-1.5-2.3-1.5-4.2v-22.4c0-.6.6-.9 1.7-.9h.4c1.2 0 1.7.3 1.7.9V210c0 .9.2 1.6.5 1.9.3.4.8.6 1.4.6.4 0 .7 0 .9-.1.2-.1.4-.1.6-.1.3 0 .5.3.6.8.2.5.3 1 .3 1.2 0 .9-1 1.4-3 1.4-1.4 0-2.6-.5-3.6-1.3zm11.1 0c-1-.8-1.5-2.3-1.5-4.2v-22.4c0-.6.6-.9 1.7-.9h.4c1.2 0 1.7.3 1.7.9V210c0 .9.2 1.6.5 1.9.3.4.8.6 1.4.6.4 0 .7 0 .9-.1.2-.1.4-.1.6-.1.3 0 .5.3.6.8.2.5.3 1 .3 1.2 0 .9-1 1.4-3 1.4-1.5 0-2.6-.5-3.6-1.3zm15.9.5c-1-.5-1.9-1.2-2.6-2.1-.1.7-.3 1.4-.6 2.1-.1.2-.2.4-.4.5-.2.1-.5.1-.9.1h-.2c-1 0-1.4-.3-1.4-1v-26.8c0-.6.6-.9 1.7-.9h.4c1.2 0 1.7.3 1.7.9v9.3c.7-.6 1.5-1 2.3-1.3.8-.3 1.7-.5 2.7-.5 2.4 0 4.3.9 5.7 2.7 1.4 1.8 2.1 4.3 2.1 7.5 0 2-.3 3.8-.9 5.4-.6 1.5-1.4 2.7-2.5 3.6-1.1.8-2.4 1.3-3.9 1.3-1.2 0-2.2-.3-3.2-.8zm5.3-4.4c.7-1.2 1.1-3 1.1-5.3 0-2.2-.4-3.8-1.2-5s-2-1.7-3.5-1.7c-.7 0-1.5.1-2.2.4-.7.2-1.4.6-1.9 1v9.9c.7.8 1.4 1.4 2.2 1.8.8.4 1.6.7 2.4.7 1.4.1 2.4-.6 3.1-1.8zm10.3 3.7c-1.1-1-1.7-2.4-1.7-4.2 0-2.6 1.1-4.4 3.2-5.4s5.1-1.6 8.9-1.6v-1.6c0-.9-.3-1.6-.9-2.1-.6-.5-1.6-.8-2.9-.8-1 0-1.9.1-2.7.4s-1.4.5-2 .8-.9.4-.9.4c-.3 0-.6-.3-1-.9-.4-.6-.6-1-.6-1.3 0-.4.3-.7 1-1.1.7-.4 1.6-.7 2.7-1 1.1-.3 2.3-.4 3.5-.4 2.5 0 4.4.5 5.7 1.6 1.3 1.1 2 2.6 2 4.5v8.1c0 1.7.1 2.9.2 3.7.2.8.2 1.2.2 1.3 0 .4-.3.6-.9.8s-1.2.2-1.7.2c-.4 0-.7-.2-.9-.6-.2-.4-.3-.8-.4-1.2-.1-.4-.1-.7-.2-.9-.7.8-1.5 1.5-2.6 2.1-1 .6-2.2.8-3.6.8-1.8-.1-3.3-.6-4.4-1.6zm8.1-2.5c.8-.5 1.6-1.1 2.3-1.9V206c-2.5 0-4.4.2-5.9.7-1.5.5-2.2 1.5-2.2 2.9 0 .9.2 1.5.7 2 .5.5 1.2.7 2.1.7 1.2.1 2.2-.1 3-.6zm13.1 1.5c-1.5-1.6-2.3-4.2-2.3-7.8 0-3.6.8-6.2 2.5-7.8 1.7-1.6 3.9-2.4 6.7-2.4 1.5 0 2.8.2 4 .6 1.2.4 1.8.9 1.8 1.4 0 .4-.2.8-.5 1.4-.4.6-.7.9-1 .9 0 0-.2-.1-.5-.2-.6-.3-1.2-.5-1.8-.6-.6-.2-1.3-.3-2.1-.3-1.7 0-3 .6-3.9 1.7s-1.3 2.8-1.3 5.2c0 2.5.4 4.3 1.2 5.4.8 1.1 2.2 1.7 4.1 1.7.9 0 1.7-.1 2.3-.3.6-.2 1.3-.4 1.8-.7.3-.1.5-.2.5-.2.3 0 .6.3 1 .9.4.6.5 1 .5 1.3 0 .6-.7 1.1-2 1.5-1.3.4-2.7.6-4.2.6-2.9.2-5.3-.7-6.8-2.3zm32.7 1.7c0 .2-.1.3-.4.4-.3.1-.7.1-1.4.1h-.5c-.5 0-1 0-1.3-.1-.4-.1-.6-.2-.8-.5l-7-8.9h-.2v8.5c0 .6-.6 1-1.7 1h-.4c-1.2 0-1.7-.3-1.7-1v-26.8c0-.6.6-.9 1.7-.9h.4c1.1 0 1.7.3 1.7.9v16.5h.2l6.5-8.2c.3-.4 1-.6 2.1-.6h.5c.5 0 .9.1 1.2.2.3.1.4.2.4.4s-.1.5-.4.8l-6.5 8.1 7.3 9.4c.2.4.3.6.3.7z" fill="#515A6D"/></svg>