<?xml version="1.0" encoding="utf-8"?>
<!-- Generator: Adobe Illustrator 22.0.1, SVG Export Plug-In . SVG Version: 6.00 Build 0)  -->
<!DOCTYPE svg PUBLIC "-//W3C//DTD SVG 1.1//EN" "http://www.w3.org/Graphics/SVG/1.1/DTD/svg11.dtd" [
	<!ENTITY st0 "fill:#8C9696;">
	<!ENTITY st1 "fill:#E3BC13;">
	<!ENTITY st2 "fill:#FFFFFF;">
	<!ENTITY st3 "fill:#727F9B;">
	<!ENTITY st4 "fill:#515A6D;">
	<!ENTITY st5 "fill:#D0DAED;">
	<!ENTITY st6 "fill:#A1C14D;">
	<!ENTITY st7 "fill:#D0DEA4;">
	<!ENTITY st8 "fill:#E58231;">
	<!ENTITY st9 "fill:#F5CCB1;">
	<!ENTITY st10 "fill:#F49F60;">
	<!ENTITY st11 "fill:#E58231;stroke:#FFFFFF;stroke-miterlimit:10;">
	<!ENTITY st12 "fill:#FF00FF;">
	<!ENTITY st13 "fill:#E62325;">
	<!ENTITY st14 "opacity:0.4;">
	<!ENTITY st15 "fill:#DB7C00;">
	<!ENTITY st16 "fill:#D0DAED;stroke:#727F9B;stroke-miterlimit:10;">
	<!ENTITY st17 "fill:#C8D2D2;">
	<!ENTITY st18 "fill:#3F4659;">
	<!ENTITY st19 "fill:#343334;">
	<!ENTITY st20 "opacity:0.5;">
	<!ENTITY st21 "fill:#E3700D;">
	<!ENTITY st22 "fill:#F3F4F7;">
	<!ENTITY st23 "fill:#FF5C49;">
	<!ENTITY st24 "opacity:0.5;fill:#FFFFFF;">
]>
<svg version="1.1" xmlns="http://www.w3.org/2000/svg" xmlns:xlink="http://www.w3.org/1999/xlink" x="0px" y="0px"
	 viewBox="0 0 265.2 268.3" style="enable-background:new 0 0 265.2 268.3;" xml:space="preserve">
<g id="working_artboard">
	<g>
		<path style="&st0;" d="M77.5,231.2c0-0.3,0-0.6,0-0.9c-0.9,0-1.8,0-2.7,0C75.7,230.6,76.6,230.9,77.5,231.2z"/>
		<path style="&st0;" d="M182.5,214.3c-15.9,0-31.7,0-47.6,0c-3.3,0-6.5,1.1-7.1-2.6c-0.3-1.8,0-3.8,0-5.7c0-4.8,0-9.7,0-14.5
			c0-3.8,0-7.6,0-11.4c0-2.6,0.5-5.9-0.1-8.4c-0.5-2.5-2.2-4.2-4.6-5c-4.6-1.7-11.6-0.4-12.7,5c-1,4.9-0.1,11-0.1,16.1
			c0,2,0,4,0,5.9c0,1.8,0,3.6,0,5.4c0,4,0.7,8.6,0,12.5c-0.5,2.8-0.3,2.3-3.1,2.7c-1.8,0.3-3.9,0-5.7,0c-3.3,0-6.5,0-9.8,0
			c0,0.4,0,0.9,0,1.5c6.5,0,12.9,0,19.4,0c0.4,0,0.8-0.3,0.8-0.8c0-10.3,0-20.6,0-30.9c0-5.8-2.3-15.1,5.3-16.5c2.2-0.4,5-0.2,7,1.1
			c3.5,2.3,2.3,7.8,2.3,11.4c0,11.6,0,23.3,0,34.9c0,0.4,0.3,0.8,0.8,0.8c18.5,0,36.9,0,55.4,0c5.4,0.4,6.4,8.4,3.9,12.2
			c-2.2,3.2-6.3,2.3-9.6,2.3c-3.8,0-7.6,0-11.4,0c-15.8,0-31.6,0-47.4,0c-12.5,0-25.1,0-37.6,0c0,0.6,0,1.3,0,1.9
			c23.7,0,47.5-0.4,71.2-0.4c9.1,0,18.1,0,27.2,0c3.6,0,6.8,0.3,9-3C190.9,223.8,189.2,214.8,182.5,214.3z"/>
		<path style="&st0;" d="M70.5,230.6c0-0.1,0.1-0.2,0.1-0.3c-7.9,0-15.8,0-23.6,0c-12.4,0-11.2-9.5-11.2-18.9c0-31,0-61.9,0-92.9
			c0-7.8,0-15.6,0-23.3c0-5.8-2.3-15.2,5.3-16.7c2.2-0.4,5-0.2,7,1.1c2.7,1.8,2.3,4.7,2.3,7.6c0,8.4,0,16.7,0,25.1
			c0,34.2,0,68.5,0,102.7c0,0.4,0.3,0.8,0.8,0.8c11.1,0,22.2,0,33.3,0c0.2-0.5,0.8-0.9,1.4-0.9c1.1,0,2.1,0,3.2-0.1
			c0-0.2,0-0.3,0-0.5c-0.1,0-0.3,0-0.4,0c-6.8,0-13.7,0-20.5,0c-3.6,0-7.3,0-10.9,0c-0.8,0-3.6,0.4-4.2,0c-1.9-1.2-1-5.3-1-7.1
			c0-30.3,0-60.7,0-91c0-7.7,0-15.5,0-23.2c0-3.8,1.3-9.6-1.2-13c-3.2-4.2-12-4.3-15.2,0c-2.3,3-1.2,7.9-1.2,11.3
			c0,8.4,0,16.9,0,25.3c0,15.4,0,30.9,0,46.3c0,15.5,0,31.1,0,46.6c0,9.1-1.6,21.9,10.7,22.3c8.3,0.2,16.6,0.3,24.9,0.4
			C70.1,231.6,70.3,231.1,70.5,230.6z"/>
	</g>
	<path style="&st1;" d="M179,224c-3.2-2.2-7.2-3-10.2-5.5c-0.7-0.5-1.5-0.6-2.1,0c-2.6,2.3-2.3,4-3.8,7c0.8-0.1,1.6-0.2,2.4-0.3
		c-2-2.6-4.6-4.8-6.6-7.4c-0.5-0.6-1.6-0.6-2.1,0c-2.1,2.4-4.4,4.6-6.5,7c0.7,0,1.4,0,2.1,0c-1.9-1.9-3.6-4.1-5.5-6
		c-0.6-0.6-1.5-0.5-2.1,0c-1.6,1.3-3.2,3.8-5,4.7c-1.6,0.8-4.5,0.3-6.3,0.2c-4.3-0.2-8.6-0.4-12.9-0.7c0.5,0.5,1,1,1.5,1.5
		c0.1-4.1,0.2-8.2,0.3-12.3c0-0.5-0.3-1-0.7-1.3c-1.9-1.1-3.8-2.2-5.7-3.3c0,0.9,0,1.7,0,2.6c2.8-1.4,5.6-2.6,8.4-4
		c1.2-0.6,0.8-2.4-0.4-2.7c-3.4-1-6.1-2.7-8.9-4.8c0.1,0.8,0.2,1.6,0.3,2.4c1.9-2.2,5.5-2.2,7.5-4.5c0.5-0.6,0.7-1.6,0-2.1
		c-2.4-1.9-4.3-3.4-7.4-3.8c0.1,0.9,0.2,1.8,0.4,2.7c3.1-1.8,4.3-4,7.8-4.8c1.9-0.4,1.1-3.3-0.8-2.9c-4.3,0.9-4.9,3-8.5,5.1
		c-1,0.6-1,2.6,0.4,2.7c2.5,0.3,4.1,1.4,6.1,3c0-0.7,0-1.4,0-2.1c-1.9,2.2-5.5,2.2-7.5,4.5c-0.7,0.8-0.5,1.8,0.3,2.4
		c3,2.2,6,4,9.6,5.1c-0.1-0.9-0.2-1.8-0.4-2.7c-2.8,1.4-5.6,2.6-8.4,4c-1,0.5-0.9,2,0,2.6c1,0.6,1.9,1.1,2.9,1.7
		c0.1,0.1,2.8,2.1,2.1,0.5c0.4,0.9-0.1,2.7-0.1,3.7c-0.1,2.8-0.1,5.7-0.2,8.5c0,0.8,0.7,1.5,1.5,1.5c4.8,0.2,9.7,0.6,14.6,0.7
		c1.9,0,4.5,0.2,6.3-0.7c2.1-1.1,3.6-3.7,5.5-5.2c-0.7,0-1.4,0-2.1,0c1.9,1.9,3.6,4.1,5.5,6c0.5,0.5,1.6,0.6,2.1,0
		c2.1-2.4,4.4-4.6,6.5-7c-0.7,0-1.4,0-2.1,0c2,2.6,4.6,4.8,6.6,7.4c0.6,0.7,2,0.5,2.4-0.3c1.2-2.4,1.3-4.5,3.3-6.4
		c-0.7,0-1.4,0-2.1,0c3.3,2.7,7.3,3.6,10.8,6C179.1,227.7,180.6,225.1,179,224L179,224z"/>
	<circle style="&st17;" cx="44.1" cy="44.2" r="43.5"/>
	<g>
		<path style="&st0;" d="M86.9,44.2C86.6,62,75.6,78.3,58.7,84.3c-16.5,5.9-35.6,1-47-12.4C0,58.3-1.9,38.2,7.3,22.6
			C16.3,7.1,34.6-1.2,52.2,2.2C72.3,6.1,86.5,23.9,86.9,44.2c0,1,1.5,1,1.5,0C88.1,25.7,76.7,8.9,59.1,2.5
			C41.6-3.7,21.5,1.9,9.8,16.3C-1.8,30.6-3.3,51.3,6.3,67c9.5,15.7,28.2,24,46.3,20.5c20.8-4,35.4-22.5,35.8-43.4
			C88.4,43.2,86.9,43.2,86.9,44.2z"/>
	</g>
	<g>
		<path style="&st19;" d="M15.8,49.8c-0.6-0.2-1.1-0.4-1.4-0.6c-0.2-0.2-0.3-0.3-0.3-0.5c0-0.1,0.1-0.3,0.2-0.6s0.3-0.4,0.4-0.4
			c0,0,0.2,0.1,0.4,0.2c0.4,0.2,0.8,0.4,1.2,0.5c0.4,0.1,0.9,0.2,1.5,0.2c0.7,0,1.3-0.2,1.7-0.6c0.4-0.4,0.7-0.9,0.7-1.5
			c0-0.4-0.1-0.8-0.4-1.1s-0.5-0.5-0.9-0.7c-0.3-0.2-0.8-0.4-1.5-0.6c-0.7-0.3-1.2-0.5-1.7-0.8c-0.4-0.2-0.8-0.6-1-1
			c-0.3-0.4-0.4-1-0.4-1.8c0-0.6,0.2-1.2,0.5-1.7c0.3-0.5,0.8-0.9,1.4-1.2c0.6-0.3,1.3-0.4,2.1-0.4c0.4,0,0.9,0.1,1.4,0.2
			s0.9,0.3,1.2,0.5c0.2,0.1,0.4,0.3,0.4,0.5c0,0.1-0.1,0.3-0.2,0.6c-0.2,0.3-0.3,0.4-0.4,0.4c-0.1,0-0.1,0-0.3-0.1
			c-0.1-0.1-0.2-0.1-0.2-0.1c-0.6-0.3-1.2-0.5-1.9-0.5c-0.7,0-1.3,0.2-1.7,0.5C16.2,39.5,16,40,16,40.7c0,0.4,0.1,0.7,0.3,1
			s0.5,0.4,0.7,0.6c0.3,0.1,0.7,0.3,1.4,0.6c0.7,0.3,1.3,0.5,1.8,0.8c0.5,0.3,0.8,0.6,1.2,1.1c0.3,0.5,0.5,1.1,0.5,1.9
			c0,1.1-0.4,1.9-1.1,2.6c-0.7,0.6-1.7,0.9-2.9,0.9C17.1,50.1,16.4,50,15.8,49.8z"/>
		<path style="&st19;" d="M24.8,48.9c-0.7-0.8-1.1-2-1.1-3.6c0-1.6,0.4-2.8,1.1-3.6s1.8-1.2,3.1-1.2c1.2,0,2.1,0.4,2.8,1.2
			c0.6,0.8,0.9,2,0.9,3.5c0,0.1-0.1,0.3-0.2,0.5c-0.1,0.2-0.3,0.3-0.4,0.3h-5.7c0.1,1,0.3,1.7,0.8,2.2c0.4,0.5,1.1,0.7,2,0.7
			c0.5,0,0.9-0.1,1.3-0.2c0.4-0.1,0.7-0.3,0.9-0.4s0.4-0.2,0.4-0.2c0.1,0,0.3,0.1,0.4,0.4c0.1,0.2,0.2,0.4,0.2,0.5
			c0,0.1-0.1,0.3-0.4,0.5c-0.3,0.2-0.7,0.3-1.2,0.5s-1,0.2-1.6,0.2C26.6,50.1,25.5,49.7,24.8,48.9z M30,44.6c0-1.9-0.7-2.8-2.2-2.8
			c-1.5,0-2.4,0.9-2.5,2.8H30z"/>
		<path style="&st19;" d="M34.3,49.6v-6.3c0-0.8,0-1.4-0.1-1.7c-0.1-0.3-0.1-0.5-0.1-0.6c0-0.1,0.1-0.2,0.3-0.3
			c0.2-0.1,0.4-0.1,0.6-0.1c0.2,0,0.3,0.1,0.4,0.3s0.1,0.4,0.2,0.5s0.1,0.3,0.1,0.4c0.6-0.9,1.3-1.4,2.1-1.4c0.3,0,0.6,0.1,0.8,0.2
			c0.2,0.1,0.3,0.3,0.3,0.5c0,0.2,0,0.4-0.1,0.6c-0.1,0.2-0.2,0.3-0.3,0.3c-0.1,0-0.2,0-0.4-0.1c-0.2-0.1-0.4-0.1-0.6-0.1
			c-0.3,0-0.5,0.1-0.8,0.2s-0.5,0.3-0.6,0.5c-0.2,0.2-0.3,0.3-0.3,0.3v6.6c0,0.3-0.2,0.4-0.7,0.4H35C34.5,50,34.3,49.9,34.3,49.6z"
			/>
		<path style="&st19;" d="M42.9,49.7L40,41.1c0-0.1-0.1-0.2-0.1-0.2c0-0.2,0.3-0.3,0.8-0.3h0.1c0.4,0,0.7,0.1,0.7,0.3l1.8,5.7
			c0.1,0.4,0.3,1.1,0.6,2.2H44l0.1-0.5c0.1-0.7,0.3-1.2,0.4-1.7l1.9-5.8c0.1-0.2,0.3-0.3,0.7-0.3h0.1c0.4,0,0.7,0.1,0.7,0.3
			c0,0.1,0,0.1-0.1,0.3l-2.9,8.6c-0.1,0.2-0.3,0.3-0.7,0.3h-0.6C43.2,50,42.9,49.9,42.9,49.7z"/>
		<path style="&st19;" d="M50.1,38.4v-1c0-0.3,0.3-0.4,0.9-0.4c0.5,0,0.8,0.1,0.8,0.4v1c0,0.3-0.3,0.4-0.9,0.4
			C50.4,38.9,50.1,38.7,50.1,38.4z M50.2,49.6v-8.7c0-0.3,0.2-0.4,0.7-0.4H51c0.5,0,0.7,0.1,0.7,0.4v8.7c0,0.3-0.2,0.4-0.7,0.4h-0.1
			C50.4,50,50.2,49.9,50.2,49.6z"/>
		<path style="&st19;" d="M55.6,48.9c-0.7-0.8-1.1-2-1.1-3.7c0-1.7,0.4-2.9,1.2-3.7c0.8-0.7,1.8-1.1,3-1.1c0.7,0,1.3,0.1,1.9,0.3
			c0.6,0.2,0.8,0.4,0.8,0.6c0,0.2-0.1,0.4-0.2,0.6c-0.1,0.2-0.3,0.4-0.4,0.4c0,0-0.1,0-0.1,0c0,0-0.1,0-0.1,0
			c-0.6-0.3-1.3-0.4-2-0.4c-1.7,0-2.6,1.1-2.6,3.4c0,1.3,0.2,2.2,0.6,2.8c0.4,0.6,1.1,0.8,2.2,0.8c0.7,0,1.4-0.2,2-0.5l0.2-0.1
			c0.1,0,0.3,0.1,0.4,0.4c0.1,0.2,0.2,0.4,0.2,0.6c0,0.1-0.1,0.3-0.4,0.4s-0.6,0.3-1,0.4c-0.4,0.1-0.9,0.1-1.4,0.1
			C57.4,50.1,56.3,49.7,55.6,48.9z"/>
		<path style="&st19;" d="M64.6,48.9c-0.7-0.8-1.1-2-1.1-3.6c0-1.6,0.4-2.8,1.1-3.6s1.8-1.2,3.1-1.2c1.2,0,2.1,0.4,2.8,1.2
			c0.6,0.8,0.9,2,0.9,3.5c0,0.1-0.1,0.3-0.2,0.5c-0.1,0.2-0.3,0.3-0.4,0.3h-5.7c0.1,1,0.3,1.7,0.8,2.2c0.4,0.5,1.1,0.7,2,0.7
			c0.5,0,0.9-0.1,1.3-0.2c0.4-0.1,0.7-0.3,0.9-0.4s0.4-0.2,0.4-0.2c0.1,0,0.3,0.1,0.4,0.4c0.1,0.2,0.2,0.4,0.2,0.5
			c0,0.1-0.1,0.3-0.4,0.5c-0.3,0.2-0.7,0.3-1.2,0.5s-1,0.2-1.6,0.2C66.5,50.1,65.4,49.7,64.6,48.9z M69.9,44.6
			c0-1.9-0.7-2.8-2.2-2.8c-1.5,0-2.4,0.9-2.5,2.8H69.9z"/>
	</g>
	<g>
		<path style="&st2;" d="M55.2,12c6,0.6,11.2,3.7,14.5,8.8c0.4-0.3,0.8-0.6,1.2-0.9c-3.9-4.2-8.5-7.9-14.6-7.6
			c-0.7,0-1.1,1.1-0.4,1.4c4,1.8,7.2,4.7,9.3,8.6c0.5,0.9,1.8,0.1,1.3-0.8c-2.2-4.1-5.5-7.2-9.8-9.1c-0.1,0.5-0.3,0.9-0.4,1.4
			c5.7-0.3,9.8,3.3,13.5,7.1c0.6,0.6,1.6-0.2,1.2-0.9c-3.6-5.5-9.2-8.9-15.8-9.5C54.3,10.4,54.3,11.9,55.2,12L55.2,12z"/>
	</g>
	<g>
		<path style="&st2;" d="M16.5,66.5c4.3,9.8,14.6,12.9,24.4,14.5c0.8,0.1,1.3-0.9,0.6-1.4c-5-3.3-10-6.6-15.1-9.9
			c-0.7-0.4-1.4,0.4-1,1c1.3,2.3,2.7,4.2,4.7,5.9c0.2-0.4,0.5-0.8,0.7-1.3C24.2,74,20.9,68.2,18,62.6c-0.4-0.9-1.7-0.1-1.3,0.8
			c3.1,6,6.7,12,13.7,13.5c0.7,0.2,1.3-0.7,0.7-1.3c-1.9-1.6-3.3-3.4-4.5-5.6c-0.3,0.3-0.7,0.7-1,1c5,3.3,10,6.6,15.1,9.9
			c0.2-0.5,0.4-0.9,0.6-1.4C31.9,78,22,75.1,17.8,65.7C17.4,64.8,16.1,65.6,16.5,66.5L16.5,66.5z"/>
	</g>
	<circle style="&st17;" cx="119.7" cy="167.4" r="20.2"/>
	<g>
		<path style="&st0;" d="M139.2,167.4c-0.4,10.5-8.6,19.6-19.5,19.5c-10.6-0.1-19.5-8.8-19.5-19.5c0-10.4,8.5-19.1,18.8-19.5
			C130.2,147.5,138.8,156.5,139.2,167.4c0,1,1.5,1,1.5,0c-0.4-11.4-9.3-21-21-21c-11.4,0-21,9.6-21,21c0,11.4,9.6,21,21,21
			c11.7,0,20.6-9.6,21-21C140.7,166.4,139.2,166.4,139.2,167.4z"/>
	</g>
	<path style="&st2;" d="M110.3,161.6c1.9-3.6,5.7-5.7,9.8-5.5c1,0.1,1-1.4,0-1.5c-4.6-0.3-8.9,2.2-11.1,6.2
		C108.6,161.7,109.9,162.5,110.3,161.6L110.3,161.6z"/>
	<path style="&st2;" d="M119.2,179.3c8.5,1.7,15.4-5,13.9-13.6c-0.1-0.8-1.2-0.6-1.4,0c-1.6,4.5-3.9,8.5-8.7,10
		c-3.9,1.2-8.1,1.4-12.1,1.3c-1,0-1,1.5,0,1.5c4.8,0.1,10.8-0.1,15.2-2.3c3.7-2,5.8-6.2,7.1-10c-0.5,0-1,0-1.4,0
		c1.3,7.3-4.8,13.2-12.1,11.7C118.7,177.7,118.3,179.1,119.2,179.3L119.2,179.3z"/>
	<circle style="&st17;" cx="221" cy="224.1" r="43.5"/>
	<g>
		<path style="&st0;" d="M263.7,224.1c-0.3,17.8-11.2,34.1-28.2,40.2c-16.5,5.9-35.6,1-47-12.4c-11.7-13.7-13.6-33.8-4.5-49.4
			c9.1-15.5,27.3-23.8,44.9-20.4C249.2,186,263.4,203.8,263.7,224.1c0,1,1.5,1,1.5,0c-0.3-18.5-11.7-35.3-29.3-41.6
			c-17.5-6.3-37.6-0.7-49.3,13.8c-11.6,14.3-13.1,35-3.5,50.7c9.5,15.7,28.2,24,46.3,20.5c20.8-4,35.4-22.5,35.8-43.4
			C265.3,223.1,263.8,223.1,263.7,224.1z"/>
	</g>
	<g>
		<path style="&st19;" d="M204,228.7c0-0.1,0-0.1,0.1-0.3l4.3-11.8c0.1-0.2,0.3-0.3,0.7-0.3h0.5c0.4,0,0.7,0.1,0.7,0.3l4.3,11.8
			c0,0.1,0.1,0.2,0.1,0.2c0,0.2-0.3,0.3-0.8,0.3h-0.1c-0.4,0-0.7-0.1-0.7-0.3l-1.1-3h-5.3l-1,3c-0.1,0.2-0.3,0.3-0.7,0.3h-0.1
			C204.2,229,204,228.9,204,228.7z M211.4,224.4l-1.9-5.4c-0.1-0.2-0.1-0.5-0.2-1h0c-0.1,0.5-0.2,0.8-0.3,1l-1.9,5.4H211.4z"/>
		<path style="&st19;" d="M216.6,232.3v-10c0-0.8,0-1.4-0.1-1.7c-0.1-0.3-0.1-0.5-0.1-0.6c0-0.1,0.1-0.2,0.3-0.3s0.4-0.1,0.6-0.1
			c0.2,0,0.3,0.1,0.4,0.3s0.1,0.4,0.2,0.5c0,0.2,0.1,0.3,0.1,0.4c0.9-0.9,1.8-1.4,2.9-1.4c0.7,0,1.4,0.2,1.9,0.6s0.9,1,1.2,1.7
			s0.4,1.6,0.4,2.5c0,1-0.2,1.9-0.5,2.6c-0.3,0.7-0.7,1.3-1.3,1.6c-0.6,0.4-1.2,0.6-1.9,0.6c-0.5,0-1-0.1-1.4-0.2
			c-0.4-0.2-0.8-0.4-1.2-0.7v4.2c0,0.3-0.2,0.4-0.7,0.4h-0.1C216.8,232.7,216.6,232.6,216.6,232.3z M222.2,226.9
			c0.4-0.6,0.6-1.4,0.6-2.5c0-1.2-0.2-2.1-0.6-2.7c-0.4-0.6-0.9-0.9-1.6-0.9c-0.4,0-0.8,0.1-1.3,0.3c-0.4,0.2-0.8,0.5-1.2,0.9v4.9
			c0.6,0.5,1.4,0.8,2.2,0.8C221.1,227.7,221.7,227.4,222.2,226.9z"/>
		<path style="&st19;" d="M227.2,232.3v-10c0-0.8,0-1.4-0.1-1.7c-0.1-0.3-0.1-0.5-0.1-0.6c0-0.1,0.1-0.2,0.3-0.3s0.4-0.1,0.6-0.1
			c0.2,0,0.3,0.1,0.4,0.3s0.1,0.4,0.2,0.5c0,0.2,0.1,0.3,0.1,0.4c0.9-0.9,1.8-1.4,2.9-1.4c0.7,0,1.4,0.2,1.9,0.6s0.9,1,1.2,1.7
			s0.4,1.6,0.4,2.5c0,1-0.2,1.9-0.5,2.6c-0.3,0.7-0.7,1.3-1.3,1.6c-0.6,0.4-1.2,0.6-1.9,0.6c-0.5,0-1-0.1-1.4-0.2
			c-0.4-0.2-0.8-0.4-1.2-0.7v4.2c0,0.3-0.2,0.4-0.7,0.4h-0.1C227.4,232.7,227.2,232.6,227.2,232.3z M232.7,226.9
			c0.4-0.6,0.6-1.4,0.6-2.5c0-1.2-0.2-2.1-0.6-2.7c-0.4-0.6-0.9-0.9-1.6-0.9c-0.4,0-0.8,0.1-1.3,0.3c-0.4,0.2-0.8,0.5-1.2,0.9v4.9
			c0.6,0.5,1.4,0.8,2.2,0.8C231.7,227.7,232.3,227.4,232.7,226.9z"/>
	</g>
	<g>
		<path style="&st2;" d="M200,250.1c-1.9-2.8-3.8-5.7-5.6-8.5c-0.5-0.8-1.7-0.1-1.3,0.8c1.7,3.8,5.2,6.6,9.4,7.3
			c0.9,0.2,1.3-1.3,0.4-1.4c-3.8-0.7-6.9-3.1-8.5-6.6c-0.4,0.3-0.9,0.5-1.3,0.8c1.9,2.8,3.8,5.7,5.6,8.5
			C199.2,251.7,200.5,250.9,200,250.1L200,250.1z"/>
	</g>
	<g>
		<path style="&st2;" d="M236.3,193.9c8,6.8,16.7,14.6,16,26.1c-0.1,1,1.4,0.9,1.5,0c1.3-13.2-7.6-24.3-20.7-26.1
			c-1-0.1-0.9,1.4,0,1.5c12.3,1.6,20.5,12.3,19.2,24.6c0.5,0,1,0,1.5,0c0.6-11.9-8.1-20.1-16.5-27.1
			C236.6,192.3,235.5,193.3,236.3,193.9L236.3,193.9z"/>
	</g>
	<g>
		<path style="&st0;" d="M65.2,239.3c1.8-1.9,3.9-5.1,4.9-7.8l-5.5,0v7.1c0,0.4,0.1,0.7,0.2,1C65,239.5,65.1,239.4,65.2,239.3z"/>
		<path style="&st0;" d="M80.4,233.2c0,0.9-0.9,1.7-1.8,1.4c-1.9-0.7-3.9-1.3-5.9-1.9c-0.6,1.4-1.4,2.6-2.2,3.9
			c-0.8,1.2-1.9,3.6-2.9,5c0,0,0,0,0,0h30c1.7,0,3-1.3,3-3v-7.1l-20.2,0C80.4,232,80.4,232.6,80.4,233.2z"/>
	</g>
	<g>
		<path style="&st0;" d="M88.7,210.9c0-0.5,0.3-1,0.7-1.2c3.6-1.6,6.3-4.8,9.5-6.8c-0.4-0.2-0.8-0.3-1.3-0.3h-30c-1.7,0-3,1.3-3,3
			v8.9l24.2,0C88.8,213.3,88.7,212.1,88.7,210.9z"/>
		<path style="&st0;" d="M94.7,209.7c-2.6,2-3.1,2.3-3,4.8l8.9,0v-8.9c0-0.2,0-0.3-0.1-0.5C98.4,206.3,96.6,208.3,94.7,209.7z"/>
	</g>
	<g>
		<path style="&st23;" d="M94.7,209.7c-3,2.3-3.2,2.3-3,6.4c0,0.8-0.7,1.4-1.4,1.4c-1,0.1-2.1,0.2-3.1,0.2c0.2,2,0.5,3.9,0.7,5.9
			c0.1,0.6-0.5,1.2-1,1.4c-2.2,0.6-4.3,1-6.5,1.2c0,2.3,0,4.6,0,6.9c0,0.9-0.9,1.7-1.8,1.4c-1.9-0.7-3.9-1.3-5.9-1.9
			c-0.6,1.4-1.4,2.6-2.2,3.9c-0.5,0.7-1.1,1.9-1.7,3h28.8c0.6,0,1-0.4,1-1v-17v-15.2C97.3,207.5,96,208.7,94.7,209.7z"/>
		<path style="&st23;" d="M70.5,230.6c0.2-0.8,1-1.2,1.8-1c1.8,0.5,3.6,1,5.3,1.6c0-2.1,0-4.1,0-6.2c0-0.8,0.7-1.4,1.4-1.4
			c2.1-0.2,4-0.5,6-1c-0.2-2.1-0.5-4.2-0.7-6.2c-0.1-0.8,0.7-1.4,1.4-1.4c1.1,0,2.1,0,3.2-0.1c-0.1-1.3-0.1-2.6-0.2-3.8
			c0-0.5,0.3-1,0.7-1.2c2.7-1.2,4.9-3.3,7.1-5.1H67.6c-0.6,0-1,0.4-1,1v32C68.2,235.5,69.9,232.8,70.5,230.6z"/>
	</g>
	<g>
		<g>
			<path style="&st19;" d="M106.9,55.5c-1.6-1.8-2.4-4.5-2.4-8c0-3.5,0.8-6.1,2.4-7.9s3.9-2.7,6.9-2.7c3,0,5.3,0.9,6.9,2.7
				s2.4,4.4,2.4,7.9c0,3.5-0.8,6.2-2.4,8s-3.9,2.7-6.9,2.7C110.8,58.3,108.5,57.4,106.9,55.5z M118.7,53.8c1.1-1.4,1.7-3.5,1.7-6.3
				c0-2.7-0.6-4.8-1.7-6.2c-1.1-1.4-2.7-2.1-4.9-2.1s-3.7,0.7-4.8,2.1c-1.1,1.4-1.7,3.5-1.7,6.2c0,2.8,0.6,4.9,1.7,6.3
				c1.1,1.4,2.7,2.2,4.8,2.2S117.5,55.3,118.7,53.8z"/>
			<path style="&st19;" d="M127.2,63.7V47c0-1.3-0.1-2.3-0.2-2.8s-0.2-0.9-0.2-0.9c0-0.2,0.2-0.4,0.6-0.5c0.4-0.1,0.7-0.2,1.1-0.2
				c0.3,0,0.5,0.1,0.6,0.4c0.1,0.3,0.2,0.6,0.3,0.9s0.1,0.5,0.1,0.6c1.4-1.5,3-2.2,4.8-2.2c1.2,0,2.3,0.3,3.1,1
				c0.9,0.7,1.5,1.6,2,2.9c0.5,1.2,0.7,2.6,0.7,4.2c0,1.7-0.3,3.2-0.8,4.3c-0.5,1.2-1.2,2.1-2.1,2.7c-0.9,0.6-2,0.9-3.2,0.9
				c-0.9,0-1.7-0.1-2.3-0.4s-1.3-0.6-2-1.1v6.9c0,0.4-0.4,0.7-1.2,0.7h-0.1C127.6,64.3,127.2,64.1,127.2,63.7z M136.4,54.6
				c0.7-1,1-2.3,1-4.1c0-1.9-0.3-3.4-1-4.5c-0.6-1-1.5-1.6-2.7-1.6c-0.7,0-1.4,0.2-2.1,0.5c-0.7,0.4-1.4,0.9-2,1.5v8.2
				c1.1,0.9,2.3,1.4,3.7,1.4C134.7,56.1,135.7,55.6,136.4,54.6z"/>
			<path style="&st19;" d="M145.1,56.3c-1.2-1.3-1.8-3.3-1.8-6c0-2.7,0.6-4.7,1.8-6.1s2.9-2.1,5.2-2.1c2,0,3.6,0.7,4.6,2
				s1.6,3.3,1.6,5.8c0,0.2-0.1,0.4-0.4,0.8c-0.2,0.3-0.5,0.5-0.6,0.5H146c0.1,1.7,0.6,2.9,1.3,3.7c0.7,0.8,1.8,1.2,3.3,1.2
				c0.8,0,1.6-0.1,2.2-0.3c0.6-0.2,1.1-0.4,1.5-0.6s0.6-0.3,0.7-0.3c0.2,0,0.4,0.2,0.7,0.6c0.2,0.4,0.4,0.7,0.4,0.9
				c0,0.2-0.2,0.5-0.8,0.8c-0.5,0.3-1.2,0.6-2,0.8c-0.8,0.2-1.7,0.3-2.7,0.3C148.1,58.3,146.3,57.6,145.1,56.3z M153.8,49.1
				c0-3.2-1.2-4.7-3.6-4.7c-2.6,0-4,1.6-4.2,4.7H153.8z"/>
			<path style="&st19;" d="M160.2,57.5V47c0-1.3-0.1-2.3-0.2-2.8c-0.1-0.6-0.2-0.9-0.2-0.9c0-0.2,0.2-0.4,0.6-0.5
				c0.4-0.1,0.7-0.2,1-0.2c0.3,0,0.5,0.1,0.6,0.4s0.2,0.6,0.3,0.9s0.1,0.5,0.1,0.6c0.6-0.7,1.4-1.2,2.2-1.6c0.8-0.4,1.6-0.6,2.5-0.6
				c1.5,0,2.7,0.4,3.6,1.3c0.9,0.9,1.3,2.1,1.3,3.6v10.4c0,0.4-0.4,0.7-1.2,0.7h-0.1c-0.8,0-1.2-0.2-1.2-0.7V47.3
				c0-0.9-0.3-1.6-0.8-2.1c-0.5-0.5-1.3-0.8-2.3-0.8c-0.7,0-1.4,0.2-2,0.6c-0.7,0.4-1.3,0.9-1.8,1.5v11c0,0.4-0.4,0.7-1.2,0.7h-0.1
				C160.6,58.2,160.2,57.9,160.2,57.5z"/>
			<path style="&st19;" d="M106.2,92.4c-1.2-1.3-1.8-3.3-1.8-6.2c0-2.9,0.7-4.9,2-6.1c1.4-1.2,3.1-1.8,5.1-1.8
				c1.2,0,2.2,0.1,3.1,0.4c0.9,0.3,1.4,0.6,1.4,1c0,0.3-0.1,0.6-0.3,1c-0.2,0.4-0.4,0.6-0.6,0.6c0,0-0.1,0-0.1,0s-0.1-0.1-0.2-0.1
				c-1.1-0.5-2.2-0.7-3.3-0.7c-2.9,0-4.3,1.9-4.3,5.7c0,2.1,0.4,3.7,1.1,4.6c0.7,0.9,1.9,1.4,3.6,1.4c1.2,0,2.3-0.3,3.4-0.8l0.3-0.1
				c0.2,0,0.4,0.2,0.7,0.6c0.2,0.4,0.4,0.7,0.4,0.9s-0.2,0.5-0.6,0.7c-0.4,0.2-1,0.4-1.7,0.6c-0.7,0.2-1.5,0.2-2.3,0.2
				C109.3,94.3,107.5,93.6,106.2,92.4z"/>
			<path style="&st19;" d="M119.8,74.9v-1.7c0-0.5,0.5-0.7,1.4-0.7c0.9,0,1.3,0.2,1.3,0.7v1.7c0,0.5-0.5,0.7-1.4,0.7
				C120.3,75.6,119.8,75.4,119.8,74.9z M120,93.5V79c0-0.4,0.4-0.7,1.2-0.7h0.1c0.8,0,1.2,0.2,1.2,0.7v14.5c0,0.4-0.4,0.7-1.2,0.7
				h-0.1C120.4,94.2,120,93.9,120,93.5z"/>
			<path style="&st19;" d="M127.7,93.5V83c0-1.3-0.1-2.3-0.2-2.8c-0.1-0.6-0.2-0.9-0.2-0.9c0-0.2,0.2-0.4,0.6-0.5
				c0.4-0.1,0.7-0.2,1-0.2c0.3,0,0.5,0.1,0.6,0.4c0.1,0.3,0.2,0.6,0.3,0.9c0.1,0.3,0.1,0.5,0.1,0.6c1.1-1.5,2.2-2.2,3.5-2.2
				c0.6,0,1,0.1,1.3,0.3c0.3,0.2,0.4,0.5,0.4,0.8c0,0.3-0.1,0.7-0.2,1.1c-0.1,0.4-0.3,0.6-0.4,0.6c-0.1,0-0.3-0.1-0.6-0.2
				c-0.3-0.1-0.6-0.2-1.1-0.2c-0.5,0-0.9,0.1-1.3,0.4s-0.8,0.6-1,0.9c-0.3,0.3-0.4,0.5-0.4,0.5v11c0,0.4-0.4,0.7-1.2,0.7h-0.1
				C128.1,94.2,127.7,93.9,127.7,93.5z"/>
			<path style="&st19;" d="M139.2,92.4c-1.2-1.3-1.8-3.3-1.8-6.2c0-2.9,0.7-4.9,2-6.1c1.4-1.2,3.1-1.8,5.1-1.8
				c1.2,0,2.2,0.1,3.1,0.4c0.9,0.3,1.4,0.6,1.4,1c0,0.3-0.1,0.6-0.3,1c-0.2,0.4-0.4,0.6-0.6,0.6c0,0-0.1,0-0.1,0s-0.1-0.1-0.2-0.1
				c-1.1-0.5-2.2-0.7-3.3-0.7c-2.9,0-4.3,1.9-4.3,5.7c0,2.1,0.4,3.7,1.1,4.6c0.7,0.9,1.9,1.4,3.6,1.4c1.2,0,2.3-0.3,3.4-0.8l0.3-0.1
				c0.2,0,0.4,0.2,0.7,0.6c0.2,0.4,0.4,0.7,0.4,0.9s-0.2,0.5-0.6,0.7c-0.4,0.2-1,0.4-1.7,0.6c-0.7,0.2-1.5,0.2-2.3,0.2
				C142.3,94.3,140.4,93.6,139.2,92.4z"/>
			<path style="&st19;" d="M153.7,93c-0.9-0.9-1.3-2.1-1.3-3.6V79c0-0.4,0.4-0.7,1.2-0.7h0.1c0.8,0,1.2,0.2,1.2,0.7v10.2
				c0,0.9,0.3,1.6,0.8,2.1s1.3,0.8,2.3,0.8c0.7,0,1.4-0.2,2-0.6c0.7-0.4,1.3-0.9,1.8-1.5V79c0-0.4,0.4-0.7,1.2-0.7h0.1
				c0.8,0,1.2,0.2,1.2,0.7v10.7c0,1.3,0.1,2.3,0.2,2.8c0.1,0.6,0.2,0.9,0.2,0.9c0,0.2-0.2,0.4-0.6,0.5c-0.4,0.1-0.7,0.2-1,0.2
				c-0.3,0-0.5-0.2-0.6-0.5c-0.1-0.3-0.2-0.6-0.3-1S162,92.1,162,92c-0.6,0.7-1.4,1.2-2.2,1.7c-0.8,0.4-1.7,0.6-2.5,0.6
				C155.8,94.3,154.6,93.8,153.7,93z"/>
			<path style="&st19;" d="M169.3,74.9v-1.7c0-0.5,0.5-0.7,1.4-0.7c0.9,0,1.3,0.2,1.3,0.7v1.7c0,0.5-0.5,0.7-1.4,0.7
				C169.7,75.6,169.3,75.4,169.3,74.9z M169.4,93.5V79c0-0.4,0.4-0.7,1.2-0.7h0.1c0.8,0,1.2,0.2,1.2,0.7v14.5c0,0.4-0.4,0.7-1.2,0.7
				h-0.1C169.8,94.2,169.4,93.9,169.4,93.5z"/>
			<path style="&st19;" d="M178.9,93.4c-0.8-0.6-1.2-1.7-1.2-3.2v-9.6h-1.5c-0.2,0-0.3-0.1-0.4-0.2c-0.1-0.1-0.2-0.4-0.2-0.7v-0.4
				c0-0.3,0-0.5,0.2-0.7c0.1-0.1,0.2-0.2,0.4-0.2h1.5l0.4-3.2c0.1-0.4,0.4-0.7,1-0.7h0.3c0.6,0,0.9,0.2,0.9,0.7v3.2h2.5
				c0.2,0,0.4,0.1,0.5,0.2c0.1,0.1,0.1,0.4,0.1,0.7v0.4c0,0.3,0,0.5-0.1,0.7c-0.1,0.1-0.2,0.2-0.5,0.2h-2.5v9.3
				c0,0.8,0.1,1.4,0.4,1.7c0.3,0.3,0.7,0.5,1.2,0.5c0.4,0,0.7,0,0.9-0.1c0.2,0,0.3-0.1,0.4-0.1c0.2,0,0.3,0.2,0.5,0.6
				c0.1,0.4,0.2,0.7,0.2,0.9c0,0.6-0.7,0.9-2.2,0.9C180.5,94.3,179.7,94,178.9,93.4z"/>
			<path style="&st19;" d="M196.6,93.7l-4-14.2c-0.1-0.3-0.1-0.5-0.1-0.6c0-0.3,0.5-0.5,1.4-0.5c0.7,0,1.1,0.2,1.2,0.5l2.5,9.6
				c0.1,0.2,0.1,0.5,0.2,0.9s0.1,0.8,0.2,1l0.3,1.6h0.1c0.3-1.8,0.5-2.9,0.7-3.5l2.5-9.5c0.1-0.3,0.5-0.5,1.2-0.5h0.2
				c0.7,0,1.1,0.2,1.2,0.5l2.5,9.5c0.2,0.9,0.4,1.6,0.5,2.3c0.1,0.6,0.2,1.1,0.2,1.2h0.1l0.2-1.3c0.2-1.1,0.4-1.9,0.5-2.2l2.5-9.6
				c0.1-0.3,0.5-0.5,1.2-0.5c0.8,0,1.2,0.2,1.2,0.5c0,0.1,0,0.2-0.1,0.4l-4,14.4c-0.1,0.3-0.5,0.5-1.2,0.5h-0.9
				c-0.7,0-1.1-0.2-1.2-0.5l-2.4-9.5c-0.1-0.3-0.2-0.8-0.3-1.6l-0.1-0.8h-0.1l-0.1,0.7c-0.1,0.8-0.2,1.4-0.3,1.6l-2.5,9.5
				c-0.1,0.3-0.5,0.5-1.2,0.5h-0.9C197.1,94.2,196.7,94,196.6,93.7z"/>
			<path style="&st19;" d="M216.4,74.9v-1.7c0-0.5,0.5-0.7,1.4-0.7c0.9,0,1.3,0.2,1.3,0.7v1.7c0,0.5-0.5,0.7-1.4,0.7
				C216.8,75.6,216.4,75.4,216.4,74.9z M216.5,93.5V79c0-0.4,0.4-0.7,1.2-0.7h0.1c0.8,0,1.2,0.2,1.2,0.7v14.5c0,0.4-0.4,0.7-1.2,0.7
				h-0.1C216.9,94.2,216.5,93.9,216.5,93.5z"/>
			<path style="&st19;" d="M226,93.4c-0.8-0.6-1.2-1.7-1.2-3.2v-9.6h-1.5c-0.2,0-0.3-0.1-0.5-0.2c-0.1-0.1-0.1-0.4-0.1-0.7v-0.4
				c0-0.3,0-0.5,0.1-0.7c0.1-0.1,0.2-0.2,0.5-0.2h1.5l0.4-3.2c0.1-0.4,0.4-0.7,1-0.7h0.3c0.6,0,0.9,0.2,0.9,0.7v3.2h2.5
				c0.2,0,0.4,0.1,0.5,0.2c0.1,0.1,0.1,0.4,0.1,0.7v0.4c0,0.3,0,0.5-0.1,0.7c-0.1,0.1-0.2,0.2-0.5,0.2h-2.5v9.3
				c0,0.8,0.1,1.4,0.4,1.7c0.3,0.3,0.7,0.5,1.2,0.5c0.4,0,0.7,0,0.9-0.1s0.3-0.1,0.4-0.1c0.2,0,0.3,0.2,0.5,0.6s0.2,0.7,0.2,0.9
				c0,0.6-0.7,0.9-2.2,0.9C227.6,94.3,226.8,94,226,93.4z"/>
			<path style="&st19;" d="M234.4,93.5V72.2c0-0.4,0.4-0.7,1.2-0.7h0.1c0.8,0,1.2,0.2,1.2,0.7v8.1c0.6-0.6,1.3-1.1,2.1-1.5
				c0.8-0.4,1.6-0.6,2.5-0.6c1.3,0,2.4,0.4,3.3,1.1s1.4,2,1.4,3.8v10.4c0,0.4-0.4,0.7-1.2,0.7H245c-0.8,0-1.2-0.2-1.2-0.7V83.3
				c0-0.9-0.3-1.6-0.8-2.1c-0.5-0.5-1.3-0.8-2.3-0.8c-0.7,0-1.3,0.2-1.8,0.5c-0.6,0.3-1,0.7-1.4,1c-0.4,0.4-0.6,0.6-0.6,0.6v11
				c0,0.4-0.4,0.7-1.2,0.7h-0.1C234.8,94.2,234.4,93.9,234.4,93.5z"/>
			<path style="&st19;" d="M106.1,129.5v-12.9h-1.2c-0.2,0-0.4-0.1-0.5-0.2c-0.1-0.1-0.2-0.4-0.2-0.7v-0.4c0-0.3,0.1-0.5,0.2-0.7
				c0.1-0.1,0.2-0.2,0.5-0.2h1.2v-2.9c0-1.6,0.4-2.7,1.2-3.3c0.8-0.6,1.7-0.9,2.7-0.9c1.5,0,2.2,0.3,2.2,0.9c0,0.2-0.1,0.5-0.2,0.9
				s-0.3,0.6-0.5,0.6c-0.1,0-0.2,0-0.4-0.1c-0.2,0-0.5-0.1-0.9-0.1c-0.5,0-0.9,0.1-1.2,0.4c-0.3,0.3-0.4,0.9-0.4,1.8v2.6h2.6
				c0.2,0,0.4,0.1,0.5,0.2c0.1,0.1,0.1,0.4,0.1,0.7v0.4c0,0.3,0,0.5-0.1,0.7c-0.1,0.1-0.2,0.2-0.5,0.2h-2.6v12.9
				c0,0.4-0.4,0.7-1.2,0.7h-0.1C106.5,130.2,106.1,129.9,106.1,129.5z"/>
			<path style="&st19;" d="M115.3,129.1c-0.9-0.8-1.4-1.9-1.4-3.4c0-1.6,0.5-2.8,1.4-3.6c0.9-0.8,2.1-1.3,3.5-1.5
				c1.4-0.2,3.1-0.4,5-0.4v-1.4c0-0.7-0.3-1.3-0.8-1.8s-1.4-0.7-2.5-0.7c-0.9,0-1.6,0.1-2.3,0.3c-0.7,0.2-1.2,0.4-1.6,0.6
				c-0.4,0.2-0.7,0.3-0.7,0.3c-0.2,0-0.4-0.2-0.7-0.6s-0.4-0.7-0.4-0.9c0-0.3,0.3-0.5,0.8-0.8s1.2-0.6,2.1-0.8
				c0.9-0.2,1.8-0.3,2.7-0.3c1.9,0,3.3,0.4,4.4,1.2s1.6,2,1.6,3.5v6.7c0,1.3,0.1,2.3,0.2,2.8c0.1,0.6,0.2,0.9,0.2,0.9
				c0,0.2-0.2,0.4-0.6,0.5c-0.4,0.1-0.7,0.2-1.1,0.2c-0.3,0-0.5-0.2-0.6-0.5c-0.1-0.3-0.2-0.6-0.3-1c-0.1-0.3-0.1-0.6-0.1-0.7
				c-1.4,1.5-3,2.2-5,2.2C117.5,130.3,116.2,129.9,115.3,129.1z M121.7,127.5c0.7-0.4,1.4-0.9,2.2-1.5v-3.5c-1.5,0-2.7,0.1-3.7,0.2
				c-0.9,0.1-1.8,0.4-2.5,0.8c-0.7,0.5-1.1,1.2-1.1,2.1c0,0.8,0.2,1.4,0.6,1.8s1.1,0.6,1.9,0.6C120.1,128.1,121,127.9,121.7,127.5z"
				/>
			<path style="&st19;" d="M132.2,129.4c-0.8-0.6-1.2-1.7-1.2-3.2v-17.9c0-0.4,0.4-0.7,1.2-0.7h0.1c0.8,0,1.2,0.2,1.2,0.7v17.7
				c0,0.8,0.1,1.4,0.4,1.7c0.3,0.3,0.7,0.5,1.2,0.5c0.4,0,0.7,0,0.9-0.1c0.2,0,0.3-0.1,0.4-0.1c0.2,0,0.3,0.2,0.5,0.6
				c0.1,0.4,0.2,0.7,0.2,0.9c0,0.6-0.7,0.9-2.2,0.9C133.9,130.3,133,130,132.2,129.4z"/>
			<path style="&st19;" d="M141,129.4c-0.8-0.6-1.2-1.7-1.2-3.2v-17.9c0-0.4,0.4-0.7,1.2-0.7h0.1c0.8,0,1.2,0.2,1.2,0.7v17.7
				c0,0.8,0.1,1.4,0.4,1.7c0.3,0.3,0.7,0.5,1.2,0.5c0.4,0,0.7,0,0.9-0.1c0.2,0,0.3-0.1,0.4-0.1c0.2,0,0.3,0.2,0.5,0.6
				s0.2,0.7,0.2,0.9c0,0.6-0.7,0.9-2.2,0.9C142.7,130.3,141.8,130,141,129.4z"/>
			<path style="&st19;" d="M150.9,128c-0.1,0.6-0.3,1.2-0.5,1.8c-0.1,0.2-0.4,0.4-0.8,0.4h-0.1c-0.6,0-0.9-0.2-0.9-0.7v-21.3
				c0-0.4,0.4-0.7,1.2-0.7h0.1c0.8,0,1.2,0.2,1.2,0.7v7.6c0.6-0.5,1.3-0.9,2-1.1c0.7-0.3,1.4-0.4,2.3-0.4c1.2,0,2.3,0.3,3.2,0.9
				c0.9,0.6,1.6,1.5,2.1,2.7s0.8,2.7,0.8,4.4c0,1.6-0.2,2.9-0.7,4.2c-0.5,1.2-1.1,2.2-2,2.8c-0.9,0.7-1.9,1-3.1,1
				C153.9,130.3,152.4,129.5,150.9,128z M157.9,126.5c0.6-1,1-2.5,1-4.5c0-1.8-0.3-3.2-1-4.1c-0.7-1-1.7-1.4-3-1.4
				c-0.7,0-1.3,0.1-2,0.3c-0.7,0.2-1.2,0.6-1.8,1v8.2c0.6,0.7,1.3,1.2,2,1.5s1.4,0.5,2.1,0.5C156.4,128.1,157.3,127.6,157.9,126.5z"
				/>
			<path style="&st19;" d="M165.8,129.1c-0.9-0.8-1.4-1.9-1.4-3.4c0-1.6,0.5-2.8,1.4-3.6c0.9-0.8,2.1-1.3,3.5-1.5
				c1.4-0.2,3.1-0.4,5-0.4v-1.4c0-0.7-0.3-1.3-0.8-1.8s-1.4-0.7-2.5-0.7c-0.9,0-1.6,0.1-2.3,0.3c-0.7,0.2-1.2,0.4-1.6,0.6
				c-0.4,0.2-0.7,0.3-0.7,0.3c-0.2,0-0.4-0.2-0.7-0.6s-0.4-0.7-0.4-0.9c0-0.3,0.3-0.5,0.8-0.8s1.2-0.6,2.1-0.8
				c0.9-0.2,1.8-0.3,2.7-0.3c1.9,0,3.3,0.4,4.4,1.2s1.6,2,1.6,3.5v6.7c0,1.3,0.1,2.3,0.2,2.8c0.1,0.6,0.2,0.9,0.2,0.9
				c0,0.2-0.2,0.4-0.6,0.5c-0.4,0.1-0.7,0.2-1.1,0.2c-0.3,0-0.5-0.2-0.6-0.5c-0.1-0.3-0.2-0.6-0.3-1c-0.1-0.3-0.1-0.6-0.1-0.7
				c-1.4,1.5-3,2.2-5,2.2C168,130.3,166.8,129.9,165.8,129.1z M172.2,127.5c0.7-0.4,1.4-0.9,2.2-1.5v-3.5c-1.5,0-2.7,0.1-3.7,0.2
				c-0.9,0.1-1.8,0.4-2.5,0.8c-0.7,0.5-1.1,1.2-1.1,2.1c0,0.8,0.2,1.4,0.6,1.8s1.1,0.6,1.9,0.6C170.6,128.1,171.5,127.9,172.2,127.5
				z"/>
			<path style="&st19;" d="M182.5,128.4c-1.2-1.3-1.8-3.3-1.8-6.2c0-2.9,0.7-4.9,2-6.1c1.4-1.2,3-1.8,5.1-1.8c1.2,0,2.2,0.1,3.1,0.4
				s1.4,0.6,1.4,1c0,0.3-0.1,0.6-0.3,1s-0.4,0.6-0.6,0.6c0,0-0.1,0-0.1,0s-0.1-0.1-0.2-0.1c-1.1-0.5-2.2-0.7-3.3-0.7
				c-2.9,0-4.3,1.9-4.3,5.7c0,2.1,0.4,3.7,1.1,4.6c0.7,0.9,1.9,1.4,3.6,1.4c1.2,0,2.3-0.3,3.4-0.8l0.3-0.1c0.2,0,0.4,0.2,0.7,0.6
				c0.2,0.4,0.4,0.7,0.4,0.9s-0.2,0.5-0.6,0.7c-0.4,0.2-1,0.4-1.7,0.6c-0.7,0.2-1.5,0.2-2.3,0.2
				C185.6,130.3,183.7,129.6,182.5,128.4z"/>
			<path style="&st19;" d="M208,129.7c0,0.2-0.1,0.3-0.3,0.3c-0.2,0.1-0.5,0.1-1,0.1h-0.1c-0.4,0-0.8,0-1-0.1
				c-0.3,0-0.5-0.2-0.6-0.3l-6-7.1h-0.1v6.8c0,0.4-0.4,0.7-1.2,0.7h-0.1c-0.8,0-1.2-0.2-1.2-0.7v-21.3c0-0.4,0.4-0.7,1.2-0.7h0.1
				c0.8,0,1.2,0.2,1.2,0.7v13.4h0.1l5.7-6.8c0.2-0.3,0.8-0.4,1.6-0.4h0.1c0.3,0,0.6,0,0.8,0.1s0.3,0.2,0.3,0.3
				c0,0.2-0.1,0.4-0.3,0.6l-5.6,6.6l6.2,7.3C207.9,129.5,208,129.6,208,129.7z"/>
		</g>
	</g>
	<path style="&st24;" d="M93.4,230.9c-0.1,1.5,0.3,3.1-1.6,3.6c-0.8,0.2-1.8,0.2-2.7,0.2c-1.7,0.1-3.4,0.1-5,0c-1-0.1-1,1.4,0,1.5
		c2.5,0.2,5,0.1,7.5-0.2c3.3-0.4,3.2-2.3,3.3-5.1C94.9,229.9,93.4,229.9,93.4,230.9L93.4,230.9z"/>
	<path style="&st24;" d="M72.9,215.5c0.1-1.2-0.5-3,1-3.5c1.4-0.4,2.9-0.4,4.3-0.3c1,0.1,1-1.4,0-1.5c-1.7-0.1-4.4-0.2-5.8,0.9
		c-1.4,1.1-0.9,2.9-1,4.4C71.3,216.5,72.8,216.5,72.9,215.5L72.9,215.5z"/>
</g>
<g id="Layer_1">
</g>
</svg>
