<?xml version="1.0" encoding="utf-8"?>
<!-- Generator: Adobe Illustrator 19.1.0, SVG Export Plug-In . SVG Version: 6.00 Build 0)  -->
<svg version="1.1" id="Layer_1" xmlns="http://www.w3.org/2000/svg" xmlns:xlink="http://www.w3.org/1999/xlink" x="0px" y="0px"
	 width="151.2px" height="135.4px" viewBox="0 0 151.2 135.4" style="enable-background:new 0 0 151.2 135.4;" xml:space="preserve"
	>
<style type="text/css">
	.st0{fill:#D1EE83;stroke:#97BD30;stroke-width:2.5;stroke-miterlimit:10;}
	.st1{fill:#D1EE83;stroke:#97BD30;stroke-width:4;stroke-miterlimit:10;}
	.st2{fill:#97BD30;}
	.st3{fill:none;stroke:#97BD30;stroke-width:4;stroke-miterlimit:10;}
	.st4{fill:none;stroke:#C8D2D2;stroke-width:4;stroke-miterlimit:10;}
	.st5{fill:#C8D2D2;}
	.st6{fill:#D1EE83;stroke:#97BD30;stroke-width:3.4991;stroke-miterlimit:10;}
	.st7{fill:#D1EE83;stroke:#97BD30;stroke-width:5.6814;stroke-miterlimit:10;}
	.st8{fill:none;stroke:#97BD30;stroke-width:4.8706;stroke-miterlimit:10;}
	.st9{fill:none;stroke:#C8D2D2;stroke-width:4.8076;stroke-miterlimit:10;}
	.st10{fill:none;stroke:#C8D2D2;stroke-width:3.2416;stroke-miterlimit:10;}
	.st11{fill:none;stroke:#97BD30;stroke-width:2.5;stroke-miterlimit:10;}
	.st12{fill:#EE9B83;stroke:#BD3130;stroke-width:2.5;stroke-miterlimit:10;}
	.st13{fill:#BD3130;}
	.st14{fill:none;stroke:#BD3130;stroke-width:4;stroke-miterlimit:10;}
	.st15{fill:#EE9B83;stroke:#BD3130;stroke-width:4;stroke-miterlimit:10;}
	.st16{fill:none;stroke:#97BD30;stroke-width:3;stroke-miterlimit:10;}
	.st17{fill:#FF990D;}
	.st18{fill:none;stroke:#BD3130;stroke-width:2.4036;stroke-miterlimit:10;}
	.st19{fill:none;stroke:#C8D2D2;stroke-width:2.4036;stroke-miterlimit:10;}
	.st20{fill:#EE9B83;stroke:#BD3130;stroke-width:2.4036;stroke-miterlimit:10;}
	.st21{fill:#D1EE83;stroke:#97BD30;stroke-width:1.8073;stroke-miterlimit:10;}
	.st22{fill:#D1EE83;stroke:#97BD30;stroke-width:3;stroke-miterlimit:10;}
	.st23{fill:none;stroke:#C8D2D2;stroke-width:3;stroke-miterlimit:10;}
	.st24{fill:#D1EE83;stroke:#97BD30;stroke-width:2.6609;stroke-miterlimit:10;}
	.st25{fill:none;stroke:#BD3130;stroke-width:2.6609;stroke-miterlimit:10;}
	.st26{fill:none;stroke:#97BD30;stroke-width:2.6609;stroke-miterlimit:10;}
	.st27{fill:#EE9B83;stroke:#BD3130;stroke-width:2.6609;stroke-miterlimit:10;}
	.st28{fill:none;stroke:#C8D2D2;stroke-width:2.6609;stroke-miterlimit:10;}
	.st29{fill:#EE9B83;stroke:#BD3130;stroke-width:1.8073;stroke-miterlimit:10;}
	.st30{fill:none;stroke:#97BD30;stroke-width:1.8069;stroke-miterlimit:10;}
	.st31{fill:none;stroke:#BD3130;stroke-width:2.9701;stroke-miterlimit:10;}
	.st32{fill:none;stroke:#C8D2D2;stroke-width:2.9701;stroke-miterlimit:10;}
	.st33{fill:#EE9B83;stroke:#BD3130;stroke-width:2.9701;stroke-miterlimit:10;}
	.st34{fill:none;stroke:#BD3130;stroke-width:3;stroke-miterlimit:10;}
	.st35{fill:#EE9B83;stroke:#BD3130;stroke-width:3;stroke-miterlimit:10;}
	.st36{fill:none;stroke:#BD3130;stroke-width:2.6101;stroke-miterlimit:10;}
	.st37{fill:none;stroke:#C8D2D2;stroke-width:2.6101;stroke-miterlimit:10;}
	.st38{fill:#EE9B83;stroke:#BD3130;stroke-width:2.6101;stroke-miterlimit:10;}
	.st39{fill:none;stroke:#97BD30;stroke-width:2.6364;stroke-miterlimit:10;}
	.st40{fill:none;stroke:#97BD30;stroke-width:1.8073;stroke-miterlimit:10;}
	.st41{font-family:'Asap-Medium';}
	.st42{font-size:14px;}
	.st43{fill:none;}
	.st44{font-size:8px;}
</style>
<g>
	<path class="st29" d="M148.3,25.1H2.9c-1.1,0-2-0.9-2-2V2.9c0-1.1,0.9-2,2-2h145.4c1.1,0,2,0.9,2,2v20.2
		C150.3,24.2,149.4,25.1,148.3,25.1z"/>
	<text transform="matrix(1 0 0 1 57.4112 17.255)" class="st41 st42">OPEN</text>
	<path class="st13" d="M22.7,77L22.7,77c-1.1,0.3-2.3-0.3-2.7-1.5l-3-10.1c-0.3-1.1,0.3-2.3,1.5-2.7h0c1.1-0.3,2.3,0.3,2.7,1.5
		l3,10.1C24.5,75.4,23.8,76.6,22.7,77z"/>
	<path class="st31" d="M20.6,69.8c0,0-12.6,0.5-7.8,16.8s7.3,24.8,7.3,24.8"/>
	<path class="st32" d="M43.8,127.9l-19.2,5.7c-4.6,1.4-9.4-1.3-10.7-5.8l-0.8-2.8c-1.4-4.6,1.3-9.4,5.8-10.7l19.2-5.7
		c4.6-1.4,9.4,1.3,10.7,5.8l0.8,2.8C50.9,121.7,48.3,126.5,43.8,127.9z"/>
	<path class="st5" d="M15.7,113.1l-0.1-0.3c-0.2-0.8,0.2-1.6,1-1.9l6.3-1.9c0.8-0.2,1.6,0.2,1.9,1l0.1,0.3c0.2,0.8-0.2,1.6-1,1.9
		l-6.3,1.9C16.8,114.4,16,113.9,15.7,113.1z"/>
	<path class="st33" d="M45.2,68l11.3-13.6l-16.9-5.3l11.5-13.8l-34,10.1c-0.9,0.3-1.5,1.3-1.2,2.2L28.8,91c0.3,0.9,1.3,1.5,2.2,1.2
		l19.6-5.8l11.5-13.1L45.2,68z"/>
	<path class="st13" d="M119.5,78.9L119.5,78.9c-0.9-0.8-0.9-2.2-0.1-3l7.3-7.6c0.8-0.9,2.2-0.9,3-0.1v0c0.9,0.8,0.9,2.2,0.1,3
		l-7.3,7.6C121.7,79.7,120.4,79.7,119.5,78.9z"/>
	<path class="st31" d="M124.5,73.3c0,0,11,6.3-0.8,18.5c-3,3.1-9.8,10.2-12.1,12.5"/>
	<polygon class="st32" points="98.6,95.7 91,126.2 121.2,117.5 	"/>
	<path class="st5" d="M114.3,108.3l0.2-0.2c0.6-0.6,0.6-1.6,0-2.1l-4.7-4.5c-0.6-0.6-1.6-0.6-2.1,0l-0.2,0.2c-0.6,0.6-0.6,1.6,0,2.1
		l4.7,4.5C112.8,108.9,113.8,108.9,114.3,108.3z"/>
	<path class="st33" d="M138.9,53.4l-14.6-14.1l-17.7-3.2l3.7,17.3L93,50.3l3.7,17.3L79.6,64l25.5,24.5c0.7,0.7,1.8,0.7,2.5,0
		L139,55.9C139.7,55.2,139.6,54.1,138.9,53.4z"/>
</g>
<rect x="92.7" y="110.3" class="st43" width="24.9" height="6.2"/>
<text transform="matrix(1 0 0 1 98.0537 116.308)" class="st41 st44">App</text>
<rect x="14.4" y="118.1" class="st43" width="34.4" height="6.2"/>
<text transform="matrix(1 0 0 1 18.9116 124.1442)" class="st41 st44">Service</text>
</svg>
