<?xml version="1.0" encoding="utf-8"?>
<!-- Generator: Adobe Illustrator 19.2.1, SVG Export Plug-In . SVG Version: 6.00 Build 0)  -->
<svg version="1.1" id="Layer_1" xmlns="http://www.w3.org/2000/svg" xmlns:xlink="http://www.w3.org/1999/xlink" x="0px" y="0px"
	 viewBox="0 0 436.3 436.3" style="enable-background:new 0 0 436.3 436.3;" xml:space="preserve">
<style type="text/css">
	.st0{fill:#FFFFFF;}
	.st1{fill:#727F9B;}
	.st2{fill:#D0DAED;}
	.st3{fill:#515A6D;}
	.st4{fill:#E58231;}
	.st5{fill:#F5CCB1;}
	.st6{enable-background:new    ;}
</style>
<g id="working_artboard">
</g>
<g id="Layer_1_1_">
	<circle id="circle_6_" class="st0" cx="218.2" cy="218.2" r="216.8"/>
	<path id="circle-stroke_6_" class="st1" d="M433.5,218.2c-0.1,44.5-13.9,88.2-39.6,124.5c-25.2,35.6-61.3,63.1-102.3,78
		c-42.4,15.4-89.5,17-132.8,4.5c-41.8-12-79.3-36.8-106.9-70.3c-57.4-69.6-64.7-170.9-18-248.1C56.2,69.8,89.7,40,129,22.1
		c41.3-18.8,88.4-24,132.8-14.8c86.5,17.8,155,89.4,169,176.7C432.6,195.2,433.5,206.7,433.5,218.2c0,1.8,2.9,1.8,2.9,0
		c-0.1-45.2-14.1-89.7-40.4-126.5c-25.4-35.6-61.3-63.1-102.3-78.3c-43-15.9-90.9-17.7-135-5.2c-42.5,12-80.8,37.2-108.9,71.2
		C21.5,113.7,4.2,156.3,0.7,200.7C-2.9,246,7.8,292,31.4,330.9c22.7,37.6,56.8,68,96.9,86.1c41.4,18.7,88.4,24,133,15.1
		c43.5-8.7,83.8-30.9,114.4-62.9c30.8-32.1,51.3-73.4,58.1-117.4c1.7-11.1,2.6-22.4,2.6-33.6C436.4,216.3,433.5,216.3,433.5,218.2z"
		/>
	<path id="connector-fill_5_" class="st0" d="M250,315.4c-40.8,0-81.6,0-122.4,0c-3.7,0-7.4,0-11.2,0c0-39.5,0-77,0-116.5
		c0-5.7,0-11.4,0-17.2c0-7.7-12-7.7-12,0c0,40.8,0,79.6,0,120.4c0,5.7,0,11.4,0,17.2c0,0.6,0.1,1.2,0.2,1.7
		c-0.2,3.1,1.7,6.4,5.8,6.4c40.8,0,81.6,0,122.4,0c5.7,0,11.4,0,17.2,0C257.7,327.4,257.7,315.4,250,315.4z"/>
	<path id="connector-stroke_4_" class="st1" d="M250.5,314.4c-44.5,0-89,0-133.5,0c0.5,0.5,1,1,1.5,1.5c0-37.2,0-74.4,0-111.5
		c0-4.2,0-8.4,0-12.5c0-3.6,0.7-7.9-0.2-11.4c-0.9-3.3-3.8-5.4-7.3-5.4c-3.4,0-6.4,2.1-7.3,5.4c-0.8,3-0.2,6.6-0.2,9.7
		c0,4.9,0,9.8,0,14.6c0,37.1,0,74.1,0,111.2c0,4.7-0.4,11.1,5.1,13c3.1,1.1,7,0.4,10.3,0.4c4.9,0,9.9,0,14.8,0c19.1,0,38.2,0,57.2,0
		c10.5,0,21.1,0,31.6,0c5.2,0,10.4,0,15.6,0c4.4,0,9.3,0.6,13.6-0.1C260.5,327.8,259.1,315,250.5,314.4c-1.9-0.1-1.9,2.9,0,3
		c3,0.2,4.9,2.7,4.2,5.7c-0.8,3.1-3.4,3.2-6.1,3.3c-7.7,0.2-15.4,0-23.1,0c-15.1,0-30.3,0-45.4,0s-30.3,0-45.4,0c-7,0-14.8,1-21.7,0
		c-2.6-0.4-3.8,1.4-6-3c-0.7-1.3-0.4-4.1-0.4-5.5c-0.1-4.1,0-8.3,0-12.4c0-29.4,0-58.8,0-88.1c0-7.1,0-14.3,0-21.4
		c0-4.5-2.5-18,4.5-18c6.9,0,4.5,11.4,4.5,15.7c0,7.5,0,14.9,0,22.4v99.8c0,0.8,0.7,1.5,1.5,1.5h133.5
		C252.4,317.4,252.4,314.4,250.5,314.4z"/>
	<path id="connector_line" class="st1" d="M144.4,321.6c4.6-1.2,9.2-1.7,13.8-2.1c4.6-0.3,9.2-0.5,13.8-0.1
		c4.6,0.5,9.2,1.4,13.8,1.5c2.3,0.1,4.6,0,6.9-0.2c2.3-0.2,4.6-0.5,6.9-0.7l3.4-0.4c1.1-0.1,2.3-0.2,3.4-0.3
		c2.3-0.2,4.6-0.3,6.9-0.4c4.6-0.3,9.2-0.4,13.8-0.2c2.3,0.1,4.6,0.2,6.9,0.4l6.9,0.6l3.4,0.3l3.4,0.4l3.4,0.5l1.7,0.3
		c0.5,0.1,1.1,0.1,1.6,0.1l0.2,0.6c-0.5,0.3-1.2,0.5-1.8,0.5l-1.7,0.3l-3.4,0.5l-3.4,0.4l-3.4,0.3l-6.9,0.6
		c-2.3,0.2-4.6,0.3-6.9,0.4c-4.6,0.2-9.2,0-13.8-0.2c-2.3-0.1-4.6-0.2-6.9-0.4c-1.1-0.1-2.3-0.2-3.4-0.3l-3.4-0.4
		c-2.3-0.3-4.6-0.6-6.9-0.7c-2.3-0.2-4.6-0.2-6.9-0.2c-4.6,0.1-9.2,1-13.8,1.5s-9.2,0.2-13.8-0.1c-4.6-0.4-9.2-0.9-13.8-2.1V321.6z"
		/>
	<circle id="circle_17_" class="st2" cx="111.9" cy="143" r="43.5"/>
	<path id="circle-stroke_15_" class="st1" d="M153.9,143c-0.3,17.5-11,33.5-27.6,39.5c-16.3,5.9-35,1-46.2-12.2
		c-11.5-13.4-13.3-33.2-4.3-48.5c8.9-15.2,26.8-23.4,44.1-20.1C139.6,105.5,153.6,123,153.9,143c0,1.9,3,1.9,3,0
		c-0.3-18.8-11.9-35.9-29.8-42.3c-17.7-6.4-38.1-0.6-50,14c-11.8,14.6-13.4,35.6-3.6,51.6c9.7,16,28.8,24.4,47.1,20.9
		c21.1-4.1,36-22.9,36.3-44.1C156.9,141,153.9,141,153.9,143z"/>
	<path id="s_1_" class="st3" d="M83.8,133.1c0.6,0.1,1,0.3,1.4,0.5s0.5,0.4,0.5,0.7s-0.1,0.6-0.3,1c-0.2,0.4-0.4,0.6-0.6,0.6
		c0,0-0.2,0-0.4-0.1c-0.3-0.1-0.6-0.3-0.9-0.3s-0.7-0.1-1.2-0.1c-0.8,0-1.3,0.2-1.7,0.5c-0.4,0.3-0.5,0.7-0.5,1.2
		c0,0.4,0.1,0.7,0.3,1c0.2,0.3,0.5,0.5,0.8,0.6c0.3,0.2,0.8,0.4,1.4,0.6c0.8,0.3,1.5,0.6,2,0.9c0.5,0.3,1,0.7,1.3,1.3
		s0.6,1.3,0.6,2.2c0,1.5-0.4,2.6-1.3,3.3s-2,1.1-3.4,1.1c-0.9,0-1.7-0.1-2.4-0.3s-1.3-0.4-1.7-0.7s-0.6-0.5-0.6-0.7s0.1-0.4,0.2-0.7
		s0.3-0.5,0.5-0.7s0.3-0.3,0.5-0.3c0.1,0,0.3,0.1,0.5,0.2c0.4,0.2,0.9,0.4,1.3,0.6c0.4,0.1,0.9,0.2,1.5,0.2s1.2-0.2,1.6-0.5
		s0.7-0.8,0.7-1.4c0-0.4-0.1-0.7-0.3-1c-0.2-0.3-0.5-0.5-0.8-0.7s-0.8-0.4-1.4-0.6c-0.4-0.1-0.6-0.2-0.7-0.3
		c-0.6-0.3-1.2-0.6-1.6-0.9s-0.8-0.7-1.1-1.3c-0.3-0.5-0.4-1.2-0.4-2c0-0.9,0.2-1.6,0.7-2.3c0.4-0.6,1-1.1,1.8-1.4
		c0.7-0.3,1.6-0.5,2.4-0.5C82.6,132.9,83.2,133,83.8,133.1z"/>
	<path id="e_2_" class="st3" d="M96.5,138.3c0.7,1,1.1,2.3,1.1,4c0,0.2-0.1,0.4-0.4,0.7s-0.4,0.4-0.6,0.4h-5.8
		c0.1,0.9,0.3,1.6,0.8,2c0.4,0.4,1.1,0.6,1.9,0.6c0.5,0,0.9-0.1,1.2-0.2s0.7-0.3,1.1-0.4c0.2-0.1,0.4-0.1,0.4-0.1
		c0.2,0,0.4,0.2,0.6,0.5c0.2,0.4,0.3,0.6,0.3,0.8c0,0.3-0.2,0.5-0.6,0.7s-0.9,0.4-1.5,0.5s-1.2,0.2-1.7,0.2c-1.8,0-3.2-0.5-4-1.4
		s-1.3-2.3-1.3-4.1c0-1.9,0.4-3.4,1.3-4.3c0.9-0.9,2.1-1.4,3.7-1.4C94.6,136.9,95.8,137.4,96.5,138.3z M90.8,141.4H95
		c0-0.8-0.2-1.4-0.5-1.9c-0.3-0.4-0.8-0.7-1.4-0.7C91.8,138.8,91,139.7,90.8,141.4z"/>
	<path id="r_1_" class="st3" d="M106,136.9c0.2,0.2,0.3,0.4,0.3,0.7s-0.1,0.6-0.2,1s-0.2,0.6-0.4,0.6c-0.1,0-0.2,0-0.4-0.1
		s-0.4-0.1-0.6-0.1c-0.4,0-0.8,0.1-1.1,0.4c-0.3,0.3-0.5,0.5-0.2,0.8v7.1c-0.5,0.4-0.9,0.6-1.6,0.2h-0.4c-0.7,0.4-1.1,0.2-1-0.2
		v-6.9c-0.1-0.9-0.2-1.6-0.3-2c-0.1-0.4-0.1-0.7-0.1-0.8c0-0.2,0.2-0.3,0.7-0.5c0.5-0.1,0.9-0.2,1.2-0.2c0.2,0,0.4,0.1,0.5,0.3
		s0.2,0.4,0.2,0.6c0,0.2,0.1,0.4,0.1,0.5c0.3-0.5,0.7-0.9,1-1.2c0.4-0.3,0.8-0.4,1.3-0.4C105.5,136.6,105.8,136.7,106,136.9z"/>
	<path id="v_1_" class="st3" d="M116.7,136.8c0,0.1,0,0.2-0.1,0.4l-3.3,9.8c-0.1,0.3-0.4,0.4-1,0.4h-0.7c-0.6,0-1-0.1-1.1-0.4
		l-3.3-9.9c-0.1-0.1-0.1-0.3-0.1-0.3c0-0.3,0.4-0.4,1.1-0.4h0.4c0.6,0,1,0.1,1.1,0.4l1.6,5l0.5,1.8l0.2,0.8h0.1
		c0.2-1.1,0.4-2,0.6-2.6l1.6-5c0.1-0.3,0.5-0.4,1.1-0.4h0.3C116.3,136.4,116.7,136.5,116.7,136.8z"/>
	<path id="i_1_" class="st3" d="M121.4,132.5v1.5c0,0.2-0.1,0.3-0.3,0.4c-0.2,0.1-0.5,0.1-0.9-0.1h-0.5c-0.4,0.2-0.7,0.2-0.9,0.1
		c-0.2-0.1-0.3-0.2-0.6-0.4v-1.5c0.3-0.4,0.7-0.6,1.4-1.1h0.5C121,131.9,121.4,132.1,121.4,132.5z M121.4,137.3v9.9
		c0,0.4-0.4,0.6-1.1,0.2h-0.4c-0.7,0.4-1.1,0.2-1.4-0.2v-9.9c0.3-0.4,0.7-0.6,1.4-0.9h0.4C121,136.7,121.4,136.9,121.4,137.3z"/>
	<path id="c_7_" class="st3" d="M131.7,137c0.7,0.2,1.1,0.5,1.1,0.9c0,0.2-0.1,0.5-0.4,0.9c-0.2,0.4-0.4,0.6-0.6,0.6
		c0,0-0.1,0-0.3-0.1c-0.6-0.3-1.3-0.5-2-0.5c-0.9,0-1.5,0.3-2,0.9c-0.4,0.6-0.7,1.5-0.7,2.7s0.2,2.1,0.6,2.7c0.4,0.6,1.1,0.9,2,0.9
		c0.7,0,1.5-0.2,2.2-0.5c0.2-0.1,0.3-0.1,0.3-0.1c0.2,0,0.4,0.2,0.6,0.5c0.2,0.4,0.3,0.7,0.3,0.9c0,0.3-0.2,0.5-0.6,0.7
		s-0.9,0.4-1.5,0.5s-1.1,0.1-1.5,0.1c-1.8,0-3.1-0.5-3.9-1.4c-0.9-0.9-1.3-2.3-1.3-4.2s0.5-3.4,1.4-4.3c0.9-0.9,2.2-1.4,3.9-1.4
		C130.2,136.6,131,136.7,131.7,137z"/>
	<path id="e_3_" class="st3" d="M143,138.3c0.7,1,1.1,2.3,1.1,4c0,0.2-0.1,0.4-0.4,0.7s-0.4,0.4-0.6,0.4h-5.8c0.1,0.9,0.3,1.6,0.8,2
		c0.4,0.4,1.1,0.6,1.9,0.6c0.5,0,0.9-0.1,1.2-0.2s0.7-0.3,1.1-0.4c0.2-0.1,0.4-0.1,0.4-0.1c0.2,0,0.4,0.2,0.6,0.5
		c0.2,0.4,0.3,0.6,0.3,0.8c0,0.3-0.2,0.5-0.6,0.7s-0.9,0.4-1.5,0.5s-1.2,0.2-1.7,0.2c-1.8,0-3.2-0.5-4-1.4s-1.3-2.3-1.3-4.1
		c0-1.9,0.4-3.4,1.3-4.3c0.9-0.9,2.1-1.4,3.7-1.4C141.2,136.9,142.3,137.4,143,138.3z M137.4,141.4h4.1c0-0.8-0.2-1.4-0.5-1.9
		c-0.3-0.4-0.8-0.7-1.4-0.7C138.3,138.8,137.6,139.7,137.4,141.4z"/>
	<path id="highlight_37_" class="st0" d="M120,113.6c5.7,0.5,10.7,3.6,13.8,8.4c0.8-0.6,1.6-1.2,2.4-1.8c-4.1-4.3-8.8-8.2-15.1-7.8
		c-1.3,0.1-2.2,2.1-0.8,2.8c3.9,1.8,7,4.5,9,8.3c0.9,1.7,3.5,0.2,2.6-1.5c-2.3-4.2-5.7-7.5-10.1-9.4c-0.3,0.9-0.5,1.9-0.8,2.8
		c5.5-0.3,9.4,3.2,13,6.9c1.2,1.2,3.3-0.4,2.4-1.8c-3.7-5.8-9.6-9.3-16.4-9.9C118.1,110.4,118.1,113.4,120,113.6z"/>
	<path id="highlight_36_" class="st0" d="M83.7,160.7c4.4,9.9,14.9,13.2,24.8,14.9c1.6,0.3,2.6-1.8,1.2-2.7c-5-3.3-10-6.6-15.1-9.9
		c-1.3-0.9-2.7,0.8-2.1,2.1c1.3,2.4,2.8,4.3,4.8,6.1c0.5-0.8,1-1.7,1.5-2.5c-6.4-1.4-9.6-7.1-12.4-12.5c-0.9-1.7-3.5-0.2-2.6,1.5
		c3.2,6.2,6.9,12.3,14.2,13.9c1.4,0.3,2.6-1.5,1.5-2.5c-1.8-1.6-3.2-3.3-4.4-5.5c-0.7,0.7-1.4,1.4-2.1,2.1c5,3.3,10,6.6,15.1,9.9
		c0.4-0.9,0.8-1.8,1.2-2.7c-9.2-1.6-18.9-4.2-23-13.5C85.5,157.4,82.9,158.9,83.7,160.7z"/>
	<circle id="circle_11_" class="st2" cx="288.8" cy="322.9" r="43.5"/>
	<path id="circle-stroke_14_" class="st1" d="M330.8,322.9c-0.3,17.5-11,33.5-27.6,39.5c-16.3,5.9-35,1-46.2-12.2
		c-11.5-13.4-13.3-33.2-4.3-48.5c8.9-15.2,26.8-23.4,44.1-20.1C316.5,285.4,330.5,302.9,330.8,322.9c0,1.9,3,1.9,3,0
		c-0.3-18.8-11.9-35.9-29.8-42.3c-17.7-6.4-38.1-0.6-50,14c-11.8,14.6-13.4,35.6-3.6,51.6c9.7,16,28.8,24.4,47.1,20.9
		c21.1-4.1,36-22.9,36.3-44.1C333.8,320.9,330.8,320.9,330.8,322.9z"/>
	<path id="a_1_" class="st3" d="M276.8,311.8l4.8,13.8c0,0.1,0.1,0.2,0.1,0.3c0,0.3-0.3,0.4-1,0.4h-1.1c-0.6,0-0.9-0.1-1-0.4
		l-0.9-2.6h-4.9l-0.9,2.6c-0.1,0.2-0.4,0.4-0.8,0.4h-1c-0.8,0-1.2-0.1-1.2-0.4c0,0,0-0.2,0.1-0.4l4.8-13.8c0.1-0.3,0.5-0.4,1.1-0.4
		h0.9C276.4,311.4,276.7,311.5,276.8,311.8z M275.2,315.4c0,0.1,0,0.2-0.1,0.5c0,0.3-0.1,0.5-0.2,0.8l-1.6,4.7h3.8l-1.6-4.7
		C275.5,316.4,275.4,315.9,275.2,315.4L275.2,315.4z"/>
	<path id="p_2_" class="st3" d="M291.2,316.3c0.6,0.5,1.1,1.1,1.4,2s0.5,1.9,0.5,3c0,1.8-0.4,3.1-1.2,4.1s-1.9,1.5-3.2,1.5
		c-0.9,0-1.7-0.3-2.3-0.8v4.4c-0.1,0.4-0.5,0.6-1.3,0.9h-0.4c-0.7-0.3-1.1-0.5-1.3-0.9v-11.2c0.2-0.9,0.2-1.6,0.1-2.1
		c-0.1-0.4-0.1-0.7-0.1-0.8c0-0.2,0.2-0.3,0.7-0.5s0.9-0.2,1.2-0.2c0.2,0,0.4,0.1,0.5,0.3c0.1,0.2,0.2,0.4,0.2,0.6s0.1,0.4,0.1,0.5
		c0.3-0.5,0.8-0.9,1.3-1.2c0.5-0.3,1.1-0.4,1.7-0.4C289.9,315.6,290.6,315.8,291.2,316.3z M287.4,318.1c-0.4,0.2-0.7,0.6-1,1v5.1
		c0.5,0.4,1.2,0.6,1.9,0.6c1.5,0,2.3-1.2,2.3-3.4c0-1.1-0.2-2-0.5-2.6s-0.8-0.9-1.5-0.9C288.1,317.8,287.8,317.9,287.4,318.1z"/>
	<path id="p_3_" class="st3" d="M303.6,316.3c0.6,0.5,1.1,1.1,1.4,2s0.5,1.9,0.5,3c0,1.8-0.4,3.1-1.2,4.1s-1.9,1.5-3.2,1.5
		c-0.9,0-1.7-0.3-2.7-0.8v4.4c0.2,0.4-0.2,0.6-0.9,0.9h-0.4c-0.7-0.3-1.1-0.5-1.7-0.9v-11.2c0.6-0.9,0.6-1.6,0.5-2.1
		c-0.1-0.4-0.1-0.7-0.1-0.8c0-0.2,0.2-0.3,0.7-0.5s0.9-0.2,1.2-0.2c0.2,0,0.4,0.1,0.5,0.3c0.1,0.2,0.2,0.4,0.2,0.6s0.1,0.4,0.1,0.5
		c0.3-0.5,0.8-0.9,1.3-1.2c0.5-0.3,1.1-0.4,1.7-0.4C302.3,315.6,303,315.8,303.6,316.3z M299.4,318.1c-0.4,0.2-0.7,0.6-1,1v5.1
		c0.5,0.4,1.2,0.6,1.9,0.6c1.5,0,2.3-1.2,2.3-3.4c0-1.1-0.2-2-0.5-2.6s-0.8-0.9-1.5-0.9C300.1,317.8,299.8,317.9,299.4,318.1z"/>
	<path id="highlight_35_" class="st0" d="M268.4,347.5c-1.9-2.8-3.8-5.7-5.6-8.5c-1.1-1.6-3.4-0.2-2.6,1.5c1.8,4,5.5,6.9,9.8,7.7
		c1.9,0.3,2.7-2.5,0.8-2.9c-3.6-0.7-6.5-2.9-8-6.3c-0.9,0.5-1.7,1-2.6,1.5c1.9,2.8,3.8,5.7,5.6,8.5
		C266.9,350.6,269.5,349.1,268.4,347.5z"/>
	<path id="highlight_34_" class="st0" d="M303.5,291.9c7.9,6.7,16.4,14.3,15.8,25.5c-0.1,2,2.8,1.9,3,0c1.4-13.7-8-25-21.5-26.8
		c-1.9-0.2-1.9,2.8,0,3c11.9,1.6,19.7,12,18.5,23.8c1,0,2,0,3,0c0.6-12.1-8.2-20.5-16.7-27.7C304.2,288.5,302.1,290.6,303.5,291.9z"
		/>
	<g id="cb-stroke_2_">
		<path class="st1" d="M165.4,303.4h-30c-1.7,0-3,1.3-3,3v11h36v-11C168.4,304.8,167.1,303.4,165.4,303.4z"/>
		<path class="st1" d="M132.4,336.4c0,1.7,1.3,3,3,3h30c1.7,0,3-1.3,3-3v-10h-36V336.4z"/>
	</g>
	<path id="cb-open-fill" class="st4" d="M166.4,322.4v-16c0-0.6-0.4-1-1-1h-30c-0.6,0-1,0.4-1,1v30c0,0.6,0.4,1,1,1h30
		c0.6,0,1-0.4,1-1V322.4"/>
	<path id="cb-open-highlight" class="st5" d="M158.4,318.2c0,1.9,0,3.9,0,5.8c0,1.4,0.6,5.1,0,6.3c-0.4,0.9-0.7,0.6-1.9,0.6
		c-1,0-2.1,0-3.1-0.1c-2.3-0.1-4.7-0.4-7-0.7c0,1,0,1.9,0,2.9c3.2-0.8,6.4-0.4,9.6-0.5c1.4-0.1,2.7,0,3.6-1.1c1.4-1.6,1-4.6,1.1-6.5
		c0.2-3.2,0.2-6.3,0.1-9.5c-0.1-1.9-3-1.9-3,0c0.1,2,0.1,4.1,0.1,6.1c0,2.1,0.4,5.5-1.1,7.1s-3.8,0.9-5.9,0.9
		c-1.8,0-3.6,0.2-5.4,0.7c-1.3,0.3-1.5,2.6,0,2.9c3,0.4,6,0.8,9,0.9c1.7,0.1,4.3,0.6,5.8-0.6c1.3-1.1,1-3.3,1-4.8
		c0-3.4,0-6.8,0-10.2C161.4,316.2,158.4,316.2,158.4,318.2z"/>
	<path id="cb-open-highlight_1_" class="st5" d="M140.4,314.3c0.1-0.8-0.4-2.3,0.5-2.8c1.1-0.5,2.9-0.4,4.1-0.3c1.9,0.1,1.9-2.9,0-3
		s-4.6-0.2-6.2,1c-1.7,1.3-1.2,3.2-1.4,5C137.3,316.2,140.3,316.2,140.4,314.3z"/>
	<g>
		<g class="st6">
			<path class="st3" d="M201.8,122c-2.5-2.8-3.7-6.9-3.7-12.2c0-5.4,1.2-9.4,3.7-12.2c2.5-2.8,6-4.2,10.6-4.2
				c4.7,0,8.3,1.4,10.7,4.2c2.4,2.8,3.7,6.8,3.7,12.2c0,5.4-1.2,9.5-3.7,12.3c-2.5,2.8-6,4.2-10.7,4.2
				C207.8,126.2,204.3,124.8,201.8,122z M219.3,118.9c1.6-2.1,2.4-5.1,2.4-9.1c0-4-0.8-7-2.4-9c-1.6-2-3.9-3.1-6.9-3.1
				s-5.3,1-6.9,3.1s-2.3,5.1-2.3,9c0,4,0.8,7,2.4,9.1c1.6,2.1,3.9,3.1,6.9,3.1C215.5,122,217.8,120.9,219.3,118.9z"/>
			<path class="st3" d="M233,134.3v-25.2c0-2-0.1-3.5-0.3-4.4c-0.2-0.9-0.3-1.4-0.3-1.6c0-0.4,0.4-0.7,1.2-0.9
				c0.8-0.2,1.5-0.3,2.1-0.3c0.5,0,0.8,0.2,1,0.7c0.2,0.4,0.4,0.9,0.5,1.4c0.1,0.5,0.2,0.8,0.2,0.9c1-1.1,2-2,3.2-2.6
				c1.2-0.6,2.4-0.9,3.7-0.9c1.8,0,3.4,0.5,4.7,1.5s2.4,2.5,3.1,4.3c0.7,1.9,1.1,4,1.1,6.5c0,3.9-0.9,6.9-2.6,9.1
				c-1.7,2.2-4,3.3-6.9,3.3c-1.2,0-2.3-0.2-3.3-0.6c-1-0.4-1.9-0.9-2.8-1.6v10.2c0,0.7-0.7,1.1-2.1,1.1h-0.5
				C233.7,135.4,233,135,233,134.3z M246.9,120.1c0.9-1.4,1.4-3.4,1.4-6c0-2.8-0.4-4.9-1.3-6.4c-0.9-1.5-2.1-2.2-3.8-2.2
				c-1,0-1.9,0.3-2.9,0.8c-1,0.5-1.8,1.3-2.6,2.2v12c1.4,1.1,3.1,1.7,5,1.7C244.6,122.2,246,121.5,246.9,120.1z"/>
			<path class="st3" d="M258,114c0-4.1,0.9-7.3,2.8-9.4c1.9-2.1,4.6-3.2,8-3.2c3.2,0,5.6,1,7.2,3.1c1.6,2.1,2.4,5,2.4,8.9
				c0,0.3-0.2,0.7-0.7,1.3c-0.4,0.6-0.8,0.8-1.1,0.8H263c0.2,2.3,0.8,4,1.9,5.1c1.1,1.1,2.6,1.6,4.7,1.6c1.2,0,2.2-0.1,3.1-0.4
				s1.6-0.6,2.3-0.9c0.6-0.3,1-0.5,1.1-0.5c0.3,0,0.7,0.4,1.2,1.1c0.4,0.7,0.7,1.2,0.7,1.6c0,0.5-0.4,1-1.2,1.4
				c-0.8,0.5-1.9,0.9-3.2,1.2c-1.3,0.3-2.6,0.5-3.9,0.5C261.8,126.2,258,122.2,258,114z M273.6,112c0-2.1-0.4-3.7-1.2-4.9
				c-0.8-1.1-2-1.7-3.7-1.7c-3.5,0-5.4,2.2-5.8,6.5H273.6z"/>
			<path class="st3" d="M284.1,124.8v-15.7c0-2-0.1-3.5-0.3-4.4c-0.2-0.9-0.3-1.4-0.3-1.6c0-0.4,0.4-0.7,1.2-0.9
				c0.8-0.2,1.5-0.3,2.1-0.3c0.5,0,0.8,0.2,1,0.6c0.2,0.4,0.4,0.9,0.5,1.4c0.1,0.5,0.2,0.8,0.2,1c0.9-1.1,2-1.9,3.3-2.6
				s2.5-0.9,3.8-0.9c2.3,0,4.1,0.7,5.4,2c1.3,1.3,1.9,3.1,1.9,5.5v15.9c0,0.8-0.7,1.1-2.1,1.1h-0.5c-1.4,0-2.1-0.4-2.1-1.1v-15.3
				c0-1.3-0.4-2.2-1.1-2.9c-0.7-0.7-1.7-1-3.1-1c-1,0-1.9,0.3-2.9,0.9c-0.9,0.6-1.7,1.3-2.3,2.2v16.2c0,0.8-0.7,1.1-2.1,1.1h-0.5
				C284.8,126,284.1,125.6,284.1,124.8z"/>
		</g>
		<g class="st6">
			<path class="st3" d="M200.7,175.2c-1.9-2-2.8-5.1-2.8-9.4c0-4.3,1-7.5,3.1-9.4c2-1.9,4.7-2.9,8.1-2.9c1.8,0,3.4,0.2,4.9,0.7
				c1.5,0.5,2.2,1.1,2.2,1.7c0,0.4-0.2,1-0.6,1.7c-0.4,0.7-0.8,1.1-1.1,1.1c0,0-0.2-0.1-0.6-0.2c-0.7-0.3-1.4-0.6-2.1-0.8
				c-0.7-0.2-1.6-0.3-2.6-0.3c-2.1,0-3.6,0.7-4.7,2s-1.6,3.4-1.6,6.3c0,3,0.5,5.2,1.5,6.6s2.7,2,5,2c1.1,0,2-0.1,2.8-0.3
				c0.8-0.2,1.5-0.5,2.2-0.9c0.4-0.1,0.6-0.2,0.6-0.2c0.3,0,0.7,0.3,1.2,1c0.4,0.7,0.6,1.2,0.6,1.6c0,0.7-0.8,1.3-2.4,1.8
				c-1.6,0.5-3.3,0.8-5,0.8C205.5,178.2,202.6,177.2,200.7,175.2z"/>
			<path class="st3" d="M221.6,148.6v-2.7c0-0.9,0.8-1.3,2.5-1.3c1.6,0,2.4,0.4,2.4,1.3v2.7c0,0.9-0.8,1.3-2.5,1.3
				C222.4,149.9,221.6,149.5,221.6,148.6z M221.7,176.8v-21.9c0-0.8,0.7-1.2,2.1-1.2h0.5c1.4,0,2.1,0.4,2.1,1.2v21.9
				c0,0.8-0.7,1.1-2.1,1.1h-0.5C222.4,178,221.7,177.6,221.7,176.8z"/>
			<path class="st3" d="M233.9,176.8v-15.7c0-2-0.1-3.5-0.3-4.4c-0.2-0.9-0.3-1.4-0.3-1.6c0-0.4,0.4-0.7,1.2-0.9
				c0.8-0.2,1.5-0.3,2.1-0.3c0.5,0,0.8,0.2,1,0.6c0.2,0.4,0.4,0.9,0.5,1.4c0.1,0.5,0.2,0.8,0.2,1c1.6-2.3,3.3-3.5,5.2-3.5
				c0.9,0,1.6,0.2,2,0.6c0.4,0.4,0.7,0.9,0.7,1.4c0,0.6-0.1,1.2-0.3,1.8c-0.2,0.7-0.5,1-0.7,1c-0.2,0-0.5-0.1-0.9-0.2
				c-0.4-0.2-0.9-0.2-1.5-0.2c-1,0-1.8,0.3-2.5,0.9c-0.7,0.6-1.2,1.2-1.6,1.7v16.2c0,0.8-0.7,1.1-2.1,1.1H236
				C234.6,178,233.9,177.6,233.9,176.8z"/>
			<path class="st3" d="M252.1,175.2c-1.9-2-2.8-5.1-2.8-9.4c0-4.3,1-7.5,3.1-9.4c2-1.9,4.7-2.9,8.1-2.9c1.8,0,3.4,0.2,4.9,0.7
				c1.5,0.5,2.2,1.1,2.2,1.7c0,0.4-0.2,1-0.6,1.7c-0.4,0.7-0.8,1.1-1.2,1.1c0,0-0.2-0.1-0.6-0.2c-0.7-0.3-1.4-0.6-2.1-0.8
				c-0.7-0.2-1.6-0.3-2.6-0.3c-2.1,0-3.6,0.7-4.7,2c-1.1,1.3-1.6,3.4-1.6,6.3c0,3,0.5,5.2,1.5,6.6c1,1.4,2.7,2,5,2
				c1.1,0,2-0.1,2.8-0.3c0.8-0.2,1.5-0.5,2.2-0.9c0.4-0.1,0.6-0.2,0.6-0.2c0.3,0,0.7,0.3,1.1,1c0.4,0.7,0.6,1.2,0.6,1.6
				c0,0.7-0.8,1.3-2.4,1.8c-1.6,0.5-3.3,0.8-5,0.8C256.8,178.2,253.9,177.2,252.1,175.2z"/>
			<path class="st3" d="M274.4,176.3c-1.3-1.3-1.9-3.1-1.9-5.5v-15.9c0-0.8,0.7-1.2,2.1-1.2h0.5c1.4,0,2.1,0.4,2.1,1.2v15.3
				c0,1.3,0.4,2.2,1.1,2.9c0.7,0.7,1.7,1,3.1,1c1,0,1.9-0.3,2.9-0.9c0.9-0.6,1.7-1.3,2.3-2.2v-16.2c0-0.8,0.7-1.2,2.1-1.2h0.5
				c1.4,0,2.1,0.4,2.1,1.2v15.8c0,2.1,0.1,3.5,0.3,4.5c0.2,0.9,0.3,1.4,0.3,1.6c0,0.4-0.4,0.7-1.2,0.9c-0.8,0.2-1.5,0.3-2.1,0.3
				c-0.5,0-0.8-0.2-1-0.7c-0.2-0.5-0.4-1-0.5-1.5c-0.1-0.5-0.2-0.9-0.2-1.1c-0.9,1.1-2,1.9-3.2,2.6c-1.3,0.6-2.5,0.9-3.9,0.9
				C277.5,178.2,275.7,177.6,274.4,176.3z"/>
			<path class="st3" d="M298.6,148.6v-2.7c0-0.9,0.8-1.3,2.5-1.3c1.6,0,2.4,0.4,2.4,1.3v2.7c0,0.9-0.8,1.3-2.5,1.3
				C299.4,149.9,298.6,149.5,298.6,148.6z M298.7,176.8v-21.9c0-0.8,0.7-1.2,2.1-1.2h0.5c1.4,0,2.1,0.4,2.1,1.2v21.9
				c0,0.8-0.7,1.1-2.1,1.1h-0.5C299.4,178,298.7,177.6,298.7,176.8z"/>
			<path class="st3" d="M313.4,176.7c-1.2-1-1.8-2.7-1.8-5.1v-13.8h-1.8c-0.4,0-0.6-0.1-0.8-0.4c-0.2-0.3-0.3-0.7-0.3-1.3v-0.6
				c0-0.6,0.1-1,0.3-1.3c0.2-0.3,0.4-0.4,0.8-0.4h1.8l0.6-4.7c0.1-0.8,0.7-1.2,1.7-1.2h0.7c1.1,0,1.7,0.4,1.7,1.2v4.7h3.4
				c0.4,0,0.6,0.1,0.8,0.4c0.2,0.3,0.3,0.7,0.3,1.3v0.6c0,0.6-0.1,1-0.3,1.3c-0.2,0.3-0.4,0.4-0.8,0.4h-3.4v13.6
				c0,1.1,0.2,1.9,0.6,2.3c0.4,0.4,0.9,0.7,1.7,0.7c0.4,0,0.8,0,1.1-0.1c0.3-0.1,0.5-0.1,0.7-0.1c0.3,0,0.6,0.3,0.8,1
				c0.2,0.7,0.3,1.2,0.3,1.5c0,1.1-1.2,1.7-3.7,1.7C316.1,178.2,314.6,177.7,313.4,176.7z"/>
		</g>
		<g class="st6">
			<path class="st3" d="M206.9,229.3c-1.2-0.6-2.2-1.4-3.2-2.6c-0.1,0.8-0.4,1.7-0.7,2.5c-0.1,0.3-0.3,0.5-0.5,0.6
				c-0.3,0.1-0.6,0.2-1.1,0.2h-0.3c-1.2,0-1.7-0.4-1.7-1.1v-32.4c0-0.8,0.7-1.2,2.1-1.2h0.5c1.4,0,2.1,0.4,2.1,1.2v11.2
				c0.9-0.7,1.8-1.2,2.8-1.6c1-0.4,2-0.6,3.3-0.6c2.9,0,5.2,1.1,6.9,3.3c1.7,2.2,2.6,5.2,2.6,9.1c0,2.5-0.4,4.6-1.1,6.5
				c-0.7,1.9-1.7,3.3-3.1,4.3s-2.9,1.5-4.7,1.5C209.3,230.2,208.1,229.9,206.9,229.3z M213.3,224c0.9-1.5,1.3-3.6,1.3-6.4
				c0-2.6-0.5-4.6-1.4-6c-1-1.4-2.4-2.1-4.2-2.1c-0.9,0-1.8,0.1-2.6,0.4c-0.9,0.3-1.6,0.7-2.3,1.3v12c0.8,1,1.7,1.7,2.6,2.2
				c1,0.5,1.9,0.8,2.9,0.8C211.2,226.2,212.5,225.5,213.3,224z"/>
			<path class="st3" d="M225.6,228.8v-15.7c0-2-0.1-3.5-0.3-4.4c-0.2-0.9-0.3-1.4-0.3-1.6c0-0.4,0.4-0.7,1.1-0.9
				c0.8-0.2,1.5-0.3,2.1-0.3c0.5,0,0.8,0.2,1,0.6c0.2,0.4,0.4,0.9,0.5,1.4c0.1,0.5,0.2,0.8,0.2,1c1.6-2.3,3.3-3.5,5.2-3.5
				c0.9,0,1.6,0.2,2,0.6c0.4,0.4,0.7,0.9,0.7,1.4c0,0.6-0.1,1.2-0.3,1.8c-0.2,0.7-0.5,1-0.7,1c-0.2,0-0.5-0.1-0.9-0.2
				c-0.4-0.2-0.9-0.2-1.5-0.2c-0.9,0-1.8,0.3-2.5,0.9c-0.7,0.6-1.2,1.2-1.6,1.7v16.2c0,0.8-0.7,1.1-2.1,1.1h-0.5
				C226.3,230,225.6,229.6,225.6,228.8z"/>
			<path class="st3" d="M241,218c0-4.1,0.9-7.3,2.8-9.4c1.9-2.1,4.6-3.2,8-3.2c3.2,0,5.6,1,7.2,3.1c1.6,2.1,2.4,5,2.4,8.9
				c0,0.3-0.2,0.7-0.7,1.3c-0.4,0.6-0.8,0.8-1.1,0.8H246c0.2,2.3,0.8,4,1.9,5.1c1.1,1.1,2.6,1.6,4.7,1.6c1.2,0,2.2-0.1,3.1-0.4
				s1.6-0.6,2.3-0.9c0.6-0.3,1-0.5,1.1-0.5c0.3,0,0.7,0.4,1.2,1.1c0.4,0.7,0.7,1.2,0.7,1.6c0,0.5-0.4,1-1.2,1.4
				c-0.8,0.5-1.9,0.9-3.2,1.2c-1.3,0.3-2.6,0.5-3.9,0.5C244.8,230.2,241,226.2,241,218z M256.7,216c0-2.1-0.4-3.7-1.2-4.9
				c-0.8-1.1-2-1.7-3.7-1.7c-3.5,0-5.4,2.2-5.8,6.5H256.7z"/>
			<path class="st3" d="M267.6,228.4c-1.3-1.2-2-2.9-2-5.1c0-3.1,1.3-5.3,3.9-6.5c2.6-1.2,6.2-1.9,10.8-1.9v-2
				c0-1.1-0.4-1.9-1.1-2.6c-0.7-0.6-1.9-1-3.5-1c-1.3,0-2.4,0.1-3.3,0.4c-0.9,0.3-1.7,0.6-2.4,0.9c-0.7,0.3-1,0.5-1.1,0.5
				c-0.3,0-0.7-0.4-1.2-1.1c-0.4-0.7-0.7-1.3-0.7-1.6c0-0.4,0.4-0.9,1.2-1.4c0.8-0.5,1.9-0.9,3.2-1.2c1.3-0.3,2.8-0.5,4.3-0.5
				c3,0,5.3,0.7,6.9,2c1.6,1.3,2.4,3.1,2.4,5.4v9.8c0,2.1,0.1,3.5,0.3,4.5c0.2,0.9,0.3,1.4,0.3,1.6c0,0.4-0.4,0.7-1.1,0.9
				c-0.8,0.2-1.4,0.3-2.1,0.3c-0.5,0-0.8-0.2-1-0.7c-0.2-0.5-0.4-1-0.5-1.5c-0.1-0.5-0.2-0.9-0.2-1.1c-0.8,1-1.9,1.8-3.1,2.5
				c-1.2,0.7-2.7,1-4.3,1C270.8,230.2,269,229.6,267.6,228.4z M277.5,225.4c1-0.6,1.9-1.3,2.8-2.3v-4.6c-3,0-5.4,0.3-7.1,0.9
				c-1.8,0.6-2.7,1.8-2.7,3.6c0,1,0.3,1.8,0.9,2.4c0.6,0.6,1.4,0.9,2.6,0.9C275.3,226.3,276.5,226,277.5,225.4z"/>
			<path class="st3" d="M311.2,229.3c0,0.2-0.2,0.4-0.5,0.5c-0.3,0.1-0.9,0.2-1.7,0.2h-0.6c-0.6,0-1.2,0-1.6-0.1s-0.8-0.3-1-0.6
				l-8.4-10.8l-0.2,0v10.3c0,0.8-0.7,1.1-2.1,1.1h-0.5c-1.4,0-2.1-0.4-2.1-1.1v-32.4c0-0.8,0.7-1.2,2.1-1.2h0.5
				c1.4,0,2.1,0.4,2.1,1.2v19.9h0.2l7.9-9.9c0.4-0.5,1.3-0.7,2.6-0.7h0.6c0.6,0,1.1,0.1,1.4,0.2c0.3,0.1,0.5,0.3,0.5,0.5
				c0,0.3-0.2,0.6-0.5,0.9l-7.9,9.8l8.9,11.4C311.1,228.9,311.2,229.2,311.2,229.3z"/>
			<path class="st3" d="M314.8,218c0-4.1,0.9-7.3,2.8-9.4c1.9-2.1,4.6-3.2,8-3.2c3.2,0,5.6,1,7.2,3.1c1.6,2.1,2.4,5,2.4,8.9
				c0,0.3-0.2,0.7-0.7,1.3c-0.4,0.6-0.8,0.8-1.1,0.8h-13.8c0.2,2.3,0.8,4,1.9,5.1c1.1,1.1,2.6,1.6,4.7,1.6c1.2,0,2.2-0.1,3.1-0.4
				s1.6-0.6,2.3-0.9c0.6-0.3,1-0.5,1.1-0.5c0.3,0,0.7,0.4,1.2,1.1c0.4,0.7,0.7,1.2,0.7,1.6c0,0.5-0.4,1-1.2,1.4
				c-0.8,0.5-1.9,0.9-3.2,1.2c-1.3,0.3-2.6,0.5-3.9,0.5C318.7,230.2,314.8,226.2,314.8,218z M330.5,216c0-2.1-0.4-3.7-1.2-4.9
				c-0.8-1.1-2-1.7-3.7-1.7c-3.5,0-5.4,2.2-5.8,6.5H330.5z"/>
			<path class="st3" d="M341.1,228.8v-15.7c0-2-0.1-3.5-0.3-4.4c-0.2-0.9-0.3-1.4-0.3-1.6c0-0.4,0.4-0.7,1.2-0.9
				c0.8-0.2,1.5-0.3,2.1-0.3c0.5,0,0.8,0.2,1,0.6c0.2,0.4,0.4,0.9,0.5,1.4c0.1,0.5,0.2,0.8,0.2,1c1.6-2.3,3.3-3.5,5.2-3.5
				c0.9,0,1.6,0.2,2,0.6c0.4,0.4,0.7,0.9,0.7,1.4c0,0.6-0.1,1.2-0.3,1.8c-0.2,0.7-0.5,1-0.7,1c-0.2,0-0.5-0.1-0.9-0.2
				c-0.4-0.2-0.9-0.2-1.5-0.2c-1,0-1.8,0.3-2.5,0.9c-0.7,0.6-1.2,1.2-1.6,1.7v16.2c0,0.8-0.7,1.1-2.1,1.1h-0.5
				C341.8,230,341.1,229.6,341.1,228.8z"/>
		</g>
	</g>
</g>
</svg>
