<?xml version="1.0" encoding="utf-8"?>
<!-- Generator: Adobe Illustrator 22.0.1, SVG Export Plug-In . SVG Version: 6.00 Build 0)  -->
<!DOCTYPE svg PUBLIC "-//W3C//DTD SVG 1.1//EN" "http://www.w3.org/Graphics/SVG/1.1/DTD/svg11.dtd" [
	<!ENTITY st0 "fill:#E3BC13;">
	<!ENTITY st1 "fill:#8C9696;">
	<!ENTITY st2 "fill:#FFFFFF;">
	<!ENTITY st3 "fill:#727F9B;">
	<!ENTITY st4 "fill:#515A6D;">
	<!ENTITY st5 "fill:#D0DAED;">
	<!ENTITY st6 "fill:#A1C14D;">
	<!ENTITY st7 "fill:#D0DEA4;">
	<!ENTITY st8 "fill:#E58231;">
	<!ENTITY st9 "fill:#F5CCB1;">
	<!ENTITY st10 "fill:#F49F60;">
	<!ENTITY st11 "fill:#E58231;stroke:#FFFFFF;stroke-miterlimit:10;">
	<!ENTITY st12 "fill:#FF00FF;">
	<!ENTITY st13 "fill:#E62325;">
	<!ENTITY st14 "opacity:0.4;">
	<!ENTITY st15 "fill:#DB7C00;">
	<!ENTITY st16 "fill:#D0DAED;stroke:#727F9B;stroke-miterlimit:10;">
	<!ENTITY st17 "fill:#C8D2D2;">
	<!ENTITY st18 "fill:#3F4659;">
	<!ENTITY st19 "fill:#343334;">
	<!ENTITY st20 "opacity:0.5;">
	<!ENTITY st21 "fill:#E3700D;">
	<!ENTITY st22 "fill:#FF5C49;">
	<!ENTITY st23 "font-family:'Asap-Regular';">
	<!ENTITY st24 "font-size:18px;">
	<!ENTITY st25 "opacity:0.5;fill:#FFFFFF;">
]>
<svg version="1.1" xmlns="http://www.w3.org/2000/svg" xmlns:xlink="http://www.w3.org/1999/xlink" x="0px" y="0px"
	 viewBox="0 0 265.2 268.3" style="enable-background:new 0 0 265.2 268.3;" xml:space="preserve">
<g id="working_artboard">
	<g>
		<path style="&st1;" d="M72.7,232.7c0,0,0,0.1,0,0.1c0.1,0,0.3,0,0.4,0C73,232.8,72.9,232.7,72.7,232.7z"/>
		<path style="&st1;" d="M69.6,232.8c0.2-0.5,0.4-1,0.6-1.5c-7.1,0-14.2,0-21.3,0c-4.4,0-8.2,0.4-11.4-3.3
			c-3.3-3.7-2.8-8.1-2.8-12.7c0-32.2,0-64.5,0-96.7c0-7.8,0-15.6,0-23.3c0-5.8-2.4-14.6,4.9-16.5c4.3-1.1,10.5-0.3,11.6,4.7
			c0.8,3.4,0,7.9,0,11.4c0,4.5,0,9,0,13.6c0,35.2,0,70.4,0,105.6c0,0.4,0.3,0.8,0.8,0.8c12.2,0,24.3,0,36.5,0c0.1,0,0.2,0,0.3,0
			c0-0.5,0-1-0.1-1.5c-5.6,0-11.2,0-16.8,0c-5.3,0-10.6,0-15.9,0c-2.9,0-2.9-0.5-3.3-3.2c-0.5-3.4,0-7.3,0-10.7c0-23.3,0-46.7,0-70
			c0-11.5,0-23,0-34.6c0-5.7,2.3-14.1-4.3-17c-3.7-1.6-9-1.5-12.4,0.7c-1.4,1-2.4,2.2-2.8,3.8c-1.2,5-0.1,11.5-0.1,16.6
			c0,23.8,0,47.7,0,71.5c0,12,0,24,0,36c0,7.7-2.1,17.4,4.1,23.3c2.4,2.2,4.4,2.8,7.6,2.8c6.6,0.1,13.2,0,19.7,0
			C66.3,232.8,68,232.8,69.6,232.8z"/>
		<path style="&st1;" d="M182.5,213.3c-24.7,0-49.4,0-74,0c-5.6,0-11.2,0-16.8,0c-0.1,0.4-0.1,0.9-0.1,1.5c30.3,0,60.6,0,90.8,0
			c5.1,0.4,5.6,7.8,4.7,11.6c-1.9,7.5-12,4.9-18,4.9c-16.4,0-32.8,0-49.2,0c-13.2,0-26.4,0-39.6,0c0,0.5,0,1,0,1.5
			c6.6,0,13.2,0,19.8,0c13.8,0,27.6,0,41.5,0c6.9,0,13.8,0,20.7,0c6.5,0,13.7,0.8,20.1,0C191.3,231.7,191.6,214,182.5,213.3z"/>
	</g>
	<g>
		<path style="&st0;" d="M98.4,225c6.8-0.2,3.6,0.1,10.4,0c6.7-0.1,13.4-0.2,20.1-0.2c6.2,0,13.2-0.2,18.5-3.7
			c-0.6-0.1-1.2-0.2-1.8-0.2c1.9,1.9,3.6,4.1,5.5,6c0.5,0.5,1.6,0.6,2.1,0c2.1-2.4,4.4-4.6,6.5-7c-0.7,0-1.4,0-2.1,0
			c2,2.6,4.6,4.8,6.6,7.4c0.6,0.7,2,0.5,2.4-0.3c1.2-2.4,1.3-4.5,3.3-6.4c-0.7,0-1.4,0-2.1,0c3.3,2.7,7.3,3.6,10.8,6
			c1.6,1.1,3.1-1.5,1.5-2.6c-3.2-2.2-7.2-3-10.2-5.5c-0.7-0.5-1.5-0.6-2.1,0c-2.6,2.3-2.3,4-3.8,7c0.8-0.1,1.6-0.2,2.4-0.3
			c-2-2.6-4.6-4.8-6.6-7.4c-0.5-0.6-1.6-0.6-2.1,0c-2.1,2.4-4.4,4.6-6.5,7c0.7,0,1.4,0,2.1,0c-1.9-1.9-3.6-4.1-5.5-6
			c-0.5-0.4-1.3-0.6-1.8-0.2c-6,4-14.3,3.4-21.2,3.3c-5.8-0.1-11.7,0.2-17.5,0.2c-6.3,0-2.5-0.2-8.8,0
			C96.4,222.1,96.4,225.1,98.4,225L98.4,225z"/>
	</g>
	<g>
		<path style="&st19;" d="M113.9,79.5c-1.6-1.8-2.4-4.5-2.4-8c0-3.5,0.8-6.1,2.4-7.9c1.6-1.8,3.9-2.7,6.9-2.7c3,0,5.3,0.9,6.9,2.7
			c1.6,1.8,2.4,4.4,2.4,7.9c0,3.5-0.8,6.2-2.4,8c-1.6,1.8-3.9,2.7-6.9,2.7C117.8,82.3,115.5,81.4,113.9,79.5z M125.7,77.8
			c1.1-1.4,1.7-3.5,1.7-6.3c0-2.7-0.6-4.8-1.7-6.2c-1.1-1.4-2.7-2.1-4.9-2.1s-3.7,0.7-4.8,2.1c-1.1,1.4-1.7,3.5-1.7,6.2
			c0,2.8,0.6,4.9,1.7,6.3c1.1,1.4,2.7,2.2,4.8,2.2S124.5,79.3,125.7,77.8z"/>
		<path style="&st19;" d="M134.2,87.7V71c0-1.3-0.1-2.3-0.2-2.8c-0.1-0.6-0.2-0.9-0.2-0.9c0-0.2,0.2-0.4,0.6-0.5
			c0.4-0.1,0.7-0.2,1.1-0.2c0.3,0,0.5,0.1,0.6,0.4c0.1,0.3,0.2,0.6,0.3,0.9c0.1,0.3,0.1,0.5,0.1,0.6c1.4-1.5,3-2.2,4.8-2.2
			c1.2,0,2.3,0.3,3.1,1c0.9,0.7,1.5,1.6,2,2.9c0.5,1.2,0.7,2.6,0.7,4.2c0,1.7-0.3,3.1-0.8,4.4s-1.2,2.1-2.1,2.7
			c-0.9,0.6-2,0.9-3.2,0.9c-0.9,0-1.7-0.1-2.3-0.4s-1.3-0.6-2-1.1v6.9c0,0.4-0.4,0.7-1.2,0.7h-0.1C134.6,88.3,134.2,88.1,134.2,87.7
			z M143.4,78.6c0.7-1,1-2.3,1-4.1c0-1.9-0.3-3.4-1-4.5c-0.6-1-1.5-1.6-2.7-1.6c-0.7,0-1.4,0.2-2.1,0.5c-0.7,0.4-1.4,0.9-2,1.5v8.2
			c1.1,0.9,2.3,1.4,3.7,1.4C141.7,80.1,142.7,79.6,143.4,78.6z"/>
		<path style="&st19;" d="M152.1,80.3c-1.2-1.3-1.8-3.3-1.8-6c0-2.7,0.6-4.7,1.8-6.1c1.2-1.4,2.9-2.1,5.2-2.1c2,0,3.6,0.7,4.6,2
			s1.6,3.3,1.6,5.8c0,0.2-0.1,0.4-0.4,0.8c-0.2,0.3-0.5,0.5-0.6,0.5H153c0.1,1.7,0.6,2.9,1.3,3.7c0.7,0.8,1.8,1.2,3.3,1.2
			c0.8,0,1.6-0.1,2.2-0.3c0.6-0.2,1.1-0.4,1.5-0.6s0.6-0.3,0.7-0.3c0.2,0,0.4,0.2,0.7,0.6c0.2,0.4,0.4,0.7,0.4,0.9
			c0,0.2-0.2,0.5-0.8,0.8c-0.5,0.3-1.2,0.6-2,0.8c-0.8,0.2-1.7,0.3-2.7,0.3C155.1,82.3,153.3,81.6,152.1,80.3z M160.8,73.1
			c0-3.2-1.2-4.7-3.6-4.7c-2.6,0-4,1.6-4.2,4.7H160.8z"/>
		<path style="&st19;" d="M167.2,81.5V71c0-1.3-0.1-2.3-0.2-2.8c-0.1-0.6-0.2-0.9-0.2-0.9c0-0.2,0.2-0.4,0.6-0.5
			c0.4-0.1,0.7-0.2,1-0.2c0.3,0,0.5,0.1,0.6,0.4c0.1,0.3,0.2,0.6,0.3,0.9c0.1,0.3,0.1,0.5,0.1,0.6c0.6-0.7,1.4-1.2,2.2-1.6
			c0.8-0.4,1.6-0.6,2.5-0.6c1.5,0,2.7,0.4,3.6,1.3c0.9,0.9,1.3,2.1,1.3,3.6v10.4c0,0.4-0.4,0.7-1.2,0.7h-0.1c-0.8,0-1.2-0.2-1.2-0.7
			V71.3c0-0.9-0.3-1.6-0.8-2.1c-0.5-0.5-1.3-0.8-2.3-0.8c-0.7,0-1.4,0.2-2,0.6s-1.3,0.9-1.8,1.5v11c0,0.4-0.4,0.7-1.2,0.7h-0.1
			C167.6,82.2,167.2,81.9,167.2,81.5z"/>
		<path style="&st19;" d="M113.2,116.4c-1.2-1.3-1.8-3.3-1.8-6.2c0-2.9,0.7-4.9,2-6.1c1.4-1.2,3.1-1.8,5.1-1.8
			c1.2,0,2.2,0.1,3.1,0.4c0.9,0.3,1.4,0.6,1.4,1c0,0.3-0.1,0.6-0.3,1c-0.2,0.4-0.4,0.6-0.6,0.6c0,0-0.1,0-0.1,0c0,0-0.1-0.1-0.2-0.1
			c-1.1-0.5-2.2-0.7-3.3-0.7c-2.9,0-4.3,1.9-4.3,5.7c0,2.1,0.4,3.6,1.1,4.6c0.7,0.9,1.9,1.4,3.6,1.4c1.2,0,2.3-0.3,3.4-0.8l0.3-0.1
			c0.2,0,0.4,0.2,0.7,0.6c0.2,0.4,0.4,0.7,0.4,0.9c0,0.2-0.2,0.5-0.6,0.7c-0.4,0.2-1,0.4-1.7,0.6c-0.7,0.2-1.5,0.2-2.3,0.2
			C116.3,118.3,114.5,117.6,113.2,116.4z"/>
		<path style="&st19;" d="M126.8,98.9v-1.7c0-0.5,0.5-0.7,1.4-0.7c0.9,0,1.3,0.2,1.3,0.7v1.7c0,0.5-0.5,0.7-1.4,0.7
			C127.3,99.6,126.8,99.4,126.8,98.9z M127,117.5V103c0-0.4,0.4-0.7,1.2-0.7h0.1c0.8,0,1.2,0.2,1.2,0.7v14.5c0,0.4-0.4,0.7-1.2,0.7
			h-0.1C127.4,118.2,127,117.9,127,117.5z"/>
		<path style="&st19;" d="M134.7,117.5V107c0-1.3-0.1-2.3-0.2-2.8c-0.1-0.6-0.2-0.9-0.2-0.9c0-0.2,0.2-0.4,0.6-0.5
			c0.4-0.1,0.7-0.2,1-0.2c0.3,0,0.5,0.1,0.6,0.4c0.1,0.3,0.2,0.6,0.3,0.9c0.1,0.3,0.1,0.5,0.1,0.6c1.1-1.5,2.2-2.2,3.5-2.2
			c0.6,0,1,0.1,1.3,0.3c0.3,0.2,0.5,0.5,0.5,0.8c0,0.3-0.1,0.7-0.2,1.1c-0.1,0.4-0.3,0.6-0.4,0.6c-0.1,0-0.3-0.1-0.6-0.2
			c-0.3-0.1-0.6-0.2-1.1-0.2c-0.5,0-0.9,0.1-1.3,0.4s-0.8,0.6-1,0.9c-0.3,0.3-0.4,0.5-0.4,0.5v11c0,0.4-0.4,0.7-1.2,0.7h-0.1
			C135.1,118.2,134.7,117.9,134.7,117.5z"/>
		<path style="&st19;" d="M146.2,116.4c-1.2-1.3-1.8-3.3-1.8-6.2c0-2.9,0.7-4.9,2-6.1c1.4-1.2,3-1.8,5.1-1.8c1.2,0,2.2,0.1,3.1,0.4
			c0.9,0.3,1.4,0.6,1.4,1c0,0.3-0.1,0.6-0.3,1c-0.2,0.4-0.4,0.6-0.6,0.6c0,0-0.1,0-0.1,0c-0.1,0-0.1-0.1-0.2-0.1
			c-1.1-0.5-2.2-0.7-3.3-0.7c-2.9,0-4.4,1.9-4.4,5.7c0,2.1,0.4,3.6,1.1,4.6c0.7,0.9,1.9,1.4,3.6,1.4c1.2,0,2.3-0.3,3.4-0.8l0.3-0.1
			c0.2,0,0.4,0.2,0.7,0.6c0.2,0.4,0.4,0.7,0.4,0.9c0,0.2-0.2,0.5-0.6,0.7c-0.4,0.2-1,0.4-1.7,0.6s-1.5,0.2-2.3,0.2
			C149.3,118.3,147.4,117.6,146.2,116.4z"/>
		<path style="&st19;" d="M160.7,117c-0.9-0.9-1.3-2-1.3-3.6V103c0-0.4,0.4-0.7,1.2-0.7h0.1c0.8,0,1.2,0.2,1.2,0.7v10.2
			c0,0.9,0.3,1.6,0.8,2.1c0.5,0.5,1.3,0.8,2.3,0.8c0.7,0,1.4-0.2,2-0.6c0.7-0.4,1.3-0.9,1.8-1.5v-11c0-0.4,0.4-0.7,1.2-0.7h0.1
			c0.8,0,1.2,0.2,1.2,0.7v10.6c0,1.3,0.1,2.3,0.2,2.8s0.2,0.9,0.2,0.9c0,0.2-0.2,0.4-0.6,0.5c-0.4,0.1-0.7,0.2-1,0.2
			c-0.3,0-0.5-0.2-0.6-0.5c-0.1-0.3-0.2-0.6-0.3-1c-0.1-0.3-0.1-0.6-0.1-0.7c-0.6,0.7-1.4,1.2-2.2,1.6c-0.8,0.4-1.7,0.6-2.5,0.6
			C162.8,118.3,161.6,117.8,160.7,117z"/>
		<path style="&st19;" d="M176.3,98.9v-1.7c0-0.5,0.5-0.7,1.4-0.7c0.9,0,1.3,0.2,1.3,0.7v1.7c0,0.5-0.5,0.7-1.4,0.7
			C176.7,99.6,176.3,99.4,176.3,98.9z M176.4,117.5V103c0-0.4,0.4-0.7,1.2-0.7h0.1c0.8,0,1.2,0.2,1.2,0.7v14.5
			c0,0.4-0.4,0.7-1.2,0.7h-0.1C176.8,118.2,176.4,117.9,176.4,117.5z"/>
		<path style="&st19;" d="M185.9,117.4c-0.8-0.6-1.2-1.7-1.2-3.2v-9.6h-1.5c-0.2,0-0.4-0.1-0.5-0.2c-0.1-0.1-0.2-0.4-0.2-0.7v-0.4
			c0-0.3,0.1-0.5,0.2-0.7c0.1-0.1,0.2-0.2,0.5-0.2h1.5l0.4-3.1c0.1-0.4,0.4-0.7,1-0.7h0.3c0.6,0,0.9,0.2,0.9,0.7v3.1h2.5
			c0.2,0,0.4,0.1,0.5,0.2c0.1,0.1,0.1,0.4,0.1,0.7v0.4c0,0.3,0,0.6-0.1,0.7c-0.1,0.1-0.2,0.2-0.5,0.2h-2.5v9.3
			c0,0.8,0.1,1.4,0.4,1.7c0.3,0.3,0.7,0.5,1.2,0.5c0.4,0,0.7,0,0.9-0.1c0.2,0,0.3-0.1,0.4-0.1c0.2,0,0.3,0.2,0.4,0.6
			c0.1,0.4,0.2,0.7,0.2,0.9c0,0.6-0.7,0.9-2.2,0.9C187.5,118.3,186.7,118,185.9,117.4z"/>
		<path style="&st19;" d="M114.7,152c-0.1,0.6-0.3,1.2-0.5,1.8c-0.1,0.2-0.4,0.4-0.8,0.4h-0.1c-0.6,0-0.9-0.2-0.9-0.7v-21.3
			c0-0.4,0.4-0.7,1.2-0.7h0.1c0.8,0,1.2,0.2,1.2,0.7v7.6c0.6-0.5,1.3-0.9,2-1.1c0.7-0.3,1.4-0.4,2.3-0.4c1.2,0,2.3,0.3,3.2,0.9
			c0.9,0.6,1.6,1.5,2.1,2.7c0.5,1.2,0.8,2.7,0.8,4.4c0,1.6-0.2,3-0.7,4.2c-0.5,1.2-1.1,2.2-2,2.9c-0.9,0.7-1.9,1-3.1,1
			C117.7,154.3,116.2,153.5,114.7,152z M121.7,150.5c0.6-1,1-2.5,1-4.5c0-1.8-0.3-3.2-1-4.1c-0.7-1-1.7-1.4-3-1.4
			c-0.7,0-1.3,0.1-2,0.3c-0.7,0.2-1.2,0.6-1.8,1v8.2c0.6,0.7,1.3,1.2,2,1.5c0.7,0.4,1.4,0.5,2.1,0.5
			C120.2,152.1,121.1,151.6,121.7,150.5z"/>
		<path style="&st19;" d="M129.4,153.5V143c0-1.3-0.1-2.3-0.2-2.8c-0.1-0.6-0.2-0.9-0.2-0.9c0-0.2,0.2-0.4,0.6-0.5
			c0.4-0.1,0.7-0.2,1.1-0.2c0.3,0,0.5,0.1,0.6,0.4c0.1,0.3,0.2,0.6,0.3,0.9c0.1,0.3,0.1,0.5,0.1,0.6c1.1-1.5,2.2-2.2,3.5-2.2
			c0.6,0,1,0.1,1.3,0.3c0.3,0.2,0.5,0.5,0.5,0.8c0,0.3-0.1,0.7-0.2,1.1c-0.1,0.4-0.3,0.6-0.4,0.6c-0.1,0-0.3-0.1-0.6-0.2
			c-0.3-0.1-0.6-0.2-1.1-0.2c-0.5,0-0.9,0.1-1.3,0.4c-0.4,0.3-0.8,0.6-1,0.9c-0.3,0.3-0.4,0.5-0.4,0.5v11c0,0.4-0.4,0.7-1.2,0.7
			h-0.1C129.8,154.2,129.4,153.9,129.4,153.5z"/>
		<path style="&st19;" d="M141,152.3c-1.2-1.3-1.8-3.3-1.8-6c0-2.7,0.6-4.7,1.8-6.1c1.2-1.4,2.9-2.1,5.2-2.1c2,0,3.6,0.7,4.6,2
			s1.6,3.3,1.6,5.8c0,0.2-0.1,0.4-0.4,0.8c-0.2,0.3-0.5,0.5-0.6,0.5h-9.5c0.1,1.7,0.6,2.9,1.3,3.7c0.7,0.8,1.8,1.2,3.3,1.2
			c0.8,0,1.6-0.1,2.2-0.3c0.6-0.2,1.1-0.4,1.5-0.6s0.6-0.3,0.7-0.3c0.2,0,0.4,0.2,0.7,0.6c0.2,0.4,0.4,0.7,0.4,0.9
			c0,0.2-0.2,0.5-0.8,0.8c-0.5,0.3-1.2,0.6-2,0.8c-0.8,0.2-1.7,0.3-2.7,0.3C144,154.3,142.2,153.6,141,152.3z M149.7,145.1
			c0-3.2-1.2-4.7-3.6-4.7c-2.6,0-4,1.6-4.2,4.7H149.7z"/>
		<path style="&st19;" d="M156.4,153.1c-0.9-0.8-1.4-1.9-1.4-3.4c0-1.6,0.5-2.8,1.4-3.6c0.9-0.8,2.1-1.3,3.5-1.5
			c1.4-0.2,3.1-0.4,5-0.4v-1.4c0-0.7-0.3-1.3-0.8-1.8c-0.5-0.5-1.4-0.7-2.5-0.7c-0.9,0-1.7,0.1-2.3,0.3c-0.7,0.2-1.2,0.4-1.6,0.6
			s-0.7,0.3-0.7,0.3c-0.2,0-0.4-0.2-0.7-0.6s-0.4-0.7-0.4-0.9c0-0.3,0.3-0.5,0.8-0.8c0.5-0.3,1.2-0.6,2.1-0.8
			c0.9-0.2,1.8-0.3,2.7-0.3c1.9,0,3.3,0.4,4.3,1.2c1,0.8,1.6,2,1.6,3.5v6.7c0,1.3,0.1,2.3,0.2,2.8s0.2,0.9,0.2,0.9
			c0,0.2-0.2,0.4-0.6,0.5s-0.7,0.2-1,0.2c-0.3,0-0.5-0.2-0.6-0.5c-0.1-0.3-0.2-0.6-0.3-1c-0.1-0.3-0.1-0.6-0.1-0.7
			c-1.4,1.5-3,2.2-5,2.2C158.6,154.3,157.4,153.9,156.4,153.1z M162.8,151.5c0.7-0.4,1.4-0.9,2.2-1.5v-3.5c-1.5,0-2.7,0.1-3.7,0.2
			c-1,0.1-1.8,0.4-2.5,0.8c-0.7,0.5-1.1,1.2-1.1,2.1c0,0.8,0.2,1.4,0.6,1.8c0.4,0.4,1.1,0.6,1.9,0.6
			C161.2,152.1,162.1,151.9,162.8,151.5z"/>
		<path style="&st19;" d="M184.2,153.7c0,0.2-0.1,0.3-0.3,0.3c-0.2,0.1-0.5,0.1-1,0.1h-0.1c-0.4,0-0.8,0-1-0.1
			c-0.3,0-0.5-0.2-0.6-0.3l-6-7.1H175v6.8c0,0.4-0.4,0.7-1.2,0.7h-0.1c-0.8,0-1.2-0.2-1.2-0.7v-21.3c0-0.4,0.4-0.7,1.2-0.7h0.1
			c0.8,0,1.2,0.2,1.2,0.7v13.4h0.1l5.7-6.8c0.2-0.3,0.8-0.4,1.6-0.4h0.1c0.3,0,0.6,0,0.8,0.1c0.2,0.1,0.3,0.2,0.3,0.3
			c0,0.2-0.1,0.4-0.3,0.6l-5.6,6.6l6.2,7.3C184.1,153.5,184.2,153.6,184.2,153.7z"/>
		<path style="&st19;" d="M188.6,152.3c-1.2-1.3-1.8-3.3-1.8-6c0-2.7,0.6-4.7,1.8-6.1c1.2-1.4,2.9-2.1,5.2-2.1c2,0,3.6,0.7,4.6,2
			s1.6,3.3,1.6,5.8c0,0.2-0.1,0.4-0.4,0.8c-0.2,0.3-0.5,0.5-0.6,0.5h-9.5c0.1,1.7,0.6,2.9,1.3,3.7c0.7,0.8,1.8,1.2,3.3,1.2
			c0.8,0,1.6-0.1,2.2-0.3c0.6-0.2,1.1-0.4,1.5-0.6s0.6-0.3,0.7-0.3c0.2,0,0.4,0.2,0.7,0.6c0.2,0.4,0.4,0.7,0.4,0.9
			c0,0.2-0.2,0.5-0.8,0.8c-0.5,0.3-1.2,0.6-2,0.8c-0.8,0.2-1.7,0.3-2.7,0.3C191.7,154.3,189.8,153.6,188.6,152.3z M197.3,145.1
			c0-3.2-1.2-4.7-3.6-4.7c-2.6,0-4,1.6-4.2,4.7H197.3z"/>
		<path style="&st19;" d="M203.8,153.5V143c0-1.3-0.1-2.3-0.2-2.8c-0.1-0.6-0.2-0.9-0.2-0.9c0-0.2,0.2-0.4,0.6-0.5
			c0.4-0.1,0.7-0.2,1-0.2c0.3,0,0.5,0.1,0.6,0.4c0.1,0.3,0.2,0.6,0.3,0.9c0.1,0.3,0.1,0.5,0.1,0.6c1.1-1.5,2.2-2.2,3.5-2.2
			c0.6,0,1,0.1,1.3,0.3c0.3,0.2,0.4,0.5,0.4,0.8c0,0.3-0.1,0.7-0.2,1.1c-0.1,0.4-0.3,0.6-0.4,0.6c-0.1,0-0.3-0.1-0.6-0.2
			c-0.3-0.1-0.6-0.2-1.1-0.2c-0.5,0-0.9,0.1-1.3,0.4s-0.8,0.6-1,0.9c-0.3,0.3-0.4,0.5-0.4,0.5v11c0,0.4-0.4,0.7-1.2,0.7H205
			C204.2,154.2,203.8,153.9,203.8,153.5z"/>
	</g>
	<g>
		<circle style="&st17;" cx="44.1" cy="44.2" r="43.5"/>
		<g>
			<path style="&st1;" d="M86.9,44.2C86.6,62,75.6,78.3,58.7,84.3c-16.5,5.9-35.6,1-47-12.4C0,58.3-1.9,38.2,7.3,22.6
				C16.3,7.1,34.6-1.2,52.2,2.2C72.3,6.1,86.5,23.9,86.9,44.2c0,1,1.5,1,1.5,0C88.1,25.7,76.7,8.9,59.1,2.5
				C41.6-3.7,21.5,1.9,9.8,16.3C-1.8,30.6-3.3,51.3,6.3,67c9.5,15.7,28.2,24,46.3,20.5c20.8-4,35.4-22.5,35.8-43.4
				C88.4,43.2,86.9,43.2,86.9,44.2z"/>
		</g>
	</g>
	<text transform="matrix(1 0 0 1 13.4216 48.9683)" style="&st19; &st23; &st24;">Service</text>
	<g>
		<circle style="&st17;" cx="221" cy="224.1" r="43.5"/>
		<g>
			<path style="&st1;" d="M263.7,224.1c-0.3,17.8-11.2,34.1-28.2,40.2c-16.5,5.9-35.6,1-47-12.4c-11.7-13.7-13.6-33.8-4.5-49.4
				c9.1-15.5,27.3-23.8,44.9-20.4C249.2,186,263.4,203.8,263.7,224.1c0,1,1.5,1,1.5,0c-0.3-18.5-11.7-35.3-29.3-41.6
				c-17.5-6.3-37.6-0.7-49.3,13.8c-11.6,14.3-13.1,35-3.5,50.7c9.5,15.7,28.2,24,46.3,20.5c20.8-4,35.4-22.5,35.8-43.4
				C265.3,223.1,263.8,223.1,263.7,224.1z"/>
		</g>
	</g>
	<text transform="matrix(1 0 0 1 203.7576 227.9607)" style="&st19; &st23; &st24;">App</text>
	<g>
		<path style="&st2;" d="M201,248.1c-1.9-2.8-3.8-5.7-5.6-8.5c-0.5-0.8-1.7-0.1-1.3,0.8c1.7,3.8,5.2,6.6,9.4,7.3
			c0.9,0.2,1.3-1.3,0.4-1.4c-3.8-0.7-6.9-3.1-8.5-6.6c-0.4,0.3-0.9,0.5-1.3,0.8c1.9,2.8,3.8,5.7,5.6,8.5
			C200.2,249.7,201.5,248.9,201,248.1L201,248.1z"/>
	</g>
	<g>
		<path style="&st2;" d="M235.3,193.9c8,6.8,16.7,14.6,16,26.1c-0.1,1,1.4,0.9,1.5,0c1.3-13.2-7.6-24.3-20.7-26.1
			c-1-0.1-0.9,1.4,0,1.5c12.3,1.6,20.5,12.3,19.2,24.6c0.5,0,1,0,1.5,0c0.6-11.9-8.1-20.1-16.5-27.1
			C235.6,192.3,234.5,193.3,235.3,193.9L235.3,193.9z"/>
	</g>
	<g>
		<path style="&st2;" d="M52.2,13c6,0.6,11.2,3.7,14.5,8.8c0.4-0.3,0.8-0.6,1.2-0.9c-3.9-4.2-8.5-7.9-14.6-7.6
			c-0.7,0-1.1,1.1-0.4,1.4c4,1.8,7.2,4.7,9.3,8.6c0.5,0.9,1.8,0.1,1.3-0.8c-2.2-4.1-5.5-7.2-9.8-9.1c-0.1,0.5-0.3,0.9-0.4,1.4
			c5.7-0.3,9.8,3.3,13.5,7.1c0.6,0.6,1.6-0.2,1.2-0.9c-3.6-5.5-9.2-8.9-15.8-9.5C51.3,11.4,51.3,12.9,52.2,13L52.2,13z"/>
	</g>
	<g>
		<path style="&st2;" d="M15.5,64.5c4.3,9.8,14.6,12.9,24.4,14.5c0.8,0.1,1.3-0.9,0.6-1.4c-5-3.3-10-6.6-15.1-9.9
			c-0.7-0.4-1.4,0.4-1,1c1.3,2.3,2.7,4.2,4.7,5.9c0.2-0.4,0.5-0.8,0.7-1.3C23.2,72,19.9,66.2,17,60.6c-0.4-0.9-1.7-0.1-1.3,0.8
			c3.1,6,6.7,12,13.7,13.5c0.7,0.2,1.3-0.7,0.7-1.3c-1.9-1.6-3.3-3.4-4.5-5.6c-0.3,0.3-0.7,0.7-1,1c5,3.3,10,6.6,15.1,9.9
			c0.2-0.5,0.4-0.9,0.6-1.4C30.9,76,21,73.1,16.8,63.7C16.4,62.8,15.1,63.6,15.5,64.5L15.5,64.5z"/>
	</g>
	<g>
		<g>
			<path style="&st1;" d="M65.2,239.3c1.8-1.9,3.9-5.1,4.9-7.8l-5.5,0v7.1c0,0.4,0.1,0.7,0.2,1C65,239.5,65.1,239.4,65.2,239.3z"/>
			<path style="&st1;" d="M80.4,233.2c0,0.9-0.9,1.7-1.8,1.4c-1.9-0.7-3.9-1.3-5.9-1.9c-0.6,1.4-1.4,2.6-2.2,3.9
				c-0.8,1.2-1.9,3.6-2.9,5c0,0,0,0,0,0h30c1.7,0,3-1.3,3-3v-7.1l-20.2,0C80.4,232,80.4,232.6,80.4,233.2z"/>
		</g>
		<g>
			<path style="&st1;" d="M88.7,210.9c0-0.5,0.3-1,0.7-1.2c3.6-1.6,6.3-4.8,9.5-6.8c-0.4-0.2-0.8-0.3-1.3-0.3h-30c-1.7,0-3,1.3-3,3
				v8.9l24.2,0C88.8,213.3,88.7,212.1,88.7,210.9z"/>
			<path style="&st1;" d="M94.7,209.7c-2.6,2-3.1,2.3-3,4.8l8.9,0v-8.9c0-0.2,0-0.3-0.1-0.5C98.4,206.3,96.6,208.3,94.7,209.7z"/>
		</g>
		<g>
			<path style="&st22;" d="M94.7,209.7c-3,2.3-3.2,2.3-3,6.4c0,0.8-0.7,1.4-1.4,1.4c-1,0.1-2.1,0.2-3.1,0.2c0.2,2,0.5,3.9,0.7,5.9
				c0.1,0.6-0.5,1.2-1,1.4c-2.2,0.6-4.3,1-6.5,1.2c0,2.3,0,4.6,0,6.9c0,0.9-0.9,1.7-1.8,1.4c-1.9-0.7-3.9-1.3-5.9-1.9
				c-0.6,1.4-1.4,2.6-2.2,3.9c-0.5,0.7-1.1,1.9-1.7,3h28.8c0.6,0,1-0.4,1-1v-17v-15.2C97.3,207.5,96,208.7,94.7,209.7z"/>
			<path style="&st22;" d="M70.5,230.6c0.2-0.8,1-1.2,1.8-1c1.8,0.5,3.6,1,5.3,1.6c0-2.1,0-4.1,0-6.2c0-0.8,0.7-1.4,1.4-1.4
				c2.1-0.2,4-0.5,6-1c-0.2-2.1-0.5-4.2-0.7-6.2c-0.1-0.8,0.7-1.4,1.4-1.4c1.1,0,2.1,0,3.2-0.1c-0.1-1.3-0.1-2.6-0.2-3.8
				c0-0.5,0.3-1,0.7-1.2c2.7-1.2,4.9-3.3,7.1-5.1H67.6c-0.6,0-1,0.4-1,1v32C68.2,235.5,69.9,232.8,70.5,230.6z"/>
		</g>
		<path style="&st25;" d="M93.4,230.9c-0.1,1.5,0.3,3.1-1.6,3.6c-0.8,0.2-1.8,0.2-2.7,0.2c-1.7,0.1-3.4,0.1-5,0c-1-0.1-1,1.4,0,1.5
			c2.5,0.2,5,0.1,7.5-0.2c3.3-0.4,3.2-2.3,3.3-5.1C94.9,229.9,93.4,229.9,93.4,230.9L93.4,230.9z"/>
		<path style="&st25;" d="M72.9,215.5c0.1-1.2-0.5-3,1-3.5c1.4-0.4,2.9-0.4,4.3-0.3c1,0.1,1-1.4,0-1.5c-1.7-0.1-4.4-0.2-5.8,0.9
			c-1.4,1.1-0.9,2.9-1,4.4C71.3,216.5,72.8,216.5,72.9,215.5L72.9,215.5z"/>
	</g>
</g>
<g id="Layer_1">
</g>
</svg>
