<svg id="Layer_1" xmlns="http://www.w3.org/2000/svg" viewBox="0 0 436.3 436.3"><style>.st0{fill:#fff}.st1{fill:#727f9b}.st2{fill:#d0daed}.st3{fill:#515a6d}.st4{enable-background:new}.st5{font-family:&apos;Asap-Medium&apos;}.st6{font-size:21.0192px}</style><g id="Layer_1_1_"><circle id="circle_1_" class="st0" cx="218.2" cy="218.2" r="216.8"/><path id="circle-stroke_1_" class="st1" d="M433.5 218.2c-.1 44.5-13.9 88.2-39.6 124.5-25.2 35.6-61.3 63.1-102.3 78-42.4 15.4-89.5 17-132.8 4.5-41.8-12-79.3-36.8-106.9-70.3-57.4-69.6-64.7-170.9-18-248.1C56.2 69.8 89.7 40 129 22.1c41.3-18.8 88.4-24 132.8-14.8 86.5 17.8 155 89.4 169 176.7 1.8 11.2 2.7 22.7 2.7 34.2 0 1.8 2.9 1.8 2.9 0-.1-45.2-14.1-89.7-40.4-126.5-25.4-35.6-61.3-63.1-102.3-78.3-43-15.9-90.9-17.7-135-5.2-42.5 12-80.8 37.2-108.9 71.2C21.5 113.7 4.2 156.3.7 200.7-2.9 246 7.8 292 31.4 330.9c22.7 37.6 56.8 68 96.9 86.1 41.4 18.7 88.4 24 133 15.1 43.5-8.7 83.8-30.9 114.4-62.9 30.8-32.1 51.3-73.4 58.1-117.4 1.7-11.1 2.6-22.4 2.6-33.6 0-1.9-2.9-1.9-2.9 0z"/><path id="connector-fill_9_" class="st0" d="M250 315.4H116.4V181.7c0-7.7-12-7.7-12 0v137.6c0 .6.1 1.2.2 1.7-.2 3.1 1.7 6.4 5.8 6.4H250c7.7 0 7.7-12 0-12z"/><path id="connector-stroke_8_" class="st1" d="M250.5 314.4H117l1.5 1.5v-124c0-3.6.7-7.9-.2-11.4-.9-3.3-3.8-5.4-7.3-5.4-3.4 0-6.4 2.1-7.3 5.4-.8 3-.2 6.6-.2 9.7V316c0 4.7-.4 11.1 5.1 13 3.1 1.1 7 .4 10.3.4h119.2c4.4 0 9.3.6 13.6-.1 8.8-1.5 7.4-14.3-1.2-14.9-1.9-.1-1.9 2.9 0 3 3 .2 4.9 2.7 4.2 5.7-.8 3.1-3.4 3.2-6.1 3.3-7.7.2-15.4 0-23.1 0h-90.8c-7 0-14.8 1-21.7 0-2.6-.4-3.8 1.4-6-3-.7-1.3-.4-4.1-.4-5.5-.1-4.1 0-8.3 0-12.4V196c0-4.5-2.5-18 4.5-18 6.9 0 4.5 11.4 4.5 15.7v122.2c0 .8.7 1.5 1.5 1.5h133.5c1.8 0 1.8-3-.1-3z"/><path id="connection-line_6_" class="st1" d="M111.2 146.4c1 14.2 1.5 28.4 1.9 42.6.1 7.1.3 14.2.4 21.3s.2 14.2.1 21.3c-.1 14.2-.9 28.4-1.4 42.6-.2 7.1-.4 14.2-.4 21.3 0 3.5 0 7.1.1 10.6l.1 5.3.1 2.7c0 .4 0 .9.1 1.3 0 .4.1.7.2 1l.1.2v.3c0 1.2.5 2.5 1.3 3.2.8.8 1.9 1.1 3.2 1l9.3-.4c6.2-.3 12.4-.5 18.6-.6l18.6-.3c6.2-.1 12.4-.2 18.6-.2 12.4 0 24.8.3 37.2.8s24.8 1.1 37.2 2.1v.6c-12.4 1.1-24.8 1.7-37.2 2.1s-24.8.8-37.2.8c-6.2 0-12.4-.1-18.6-.2l-18.6-.3c-6.2-.1-12.4-.3-18.6-.6l-9.3-.4c-1.9-.1-3.9-.8-5.2-2.4-1.3-1.5-1.9-3.5-1.7-5.3v.4c-.1-.5-.2-1.1-.2-1.6v-1.4l.1-2.7.1-5.3c0-3.5.1-7.1.1-10.6 0-7.1-.2-14.2-.4-21.3-.5-14.2-1.2-28.4-1.4-42.6-.1-7.1 0-14.2.1-21.3 0-7.1.2-14.2.4-21.3.4-14.2.9-28.4 1.9-42.6h.4v-.1z"/><circle id="circle_22_" class="st2" cx="288.8" cy="322.9" r="43.5"/><path id="circle-stroke_25_" class="st1" d="M330.8 322.9c-.3 17.5-11 33.5-27.6 39.5-16.3 5.9-35 1-46.2-12.2-11.5-13.4-13.3-33.2-4.3-48.5 8.9-15.2 26.8-23.4 44.1-20.1 19.7 3.8 33.7 21.3 34 41.3 0 1.9 3 1.9 3 0-.3-18.8-11.9-35.9-29.8-42.3-17.7-6.4-38.1-.6-50 14-11.8 14.6-13.4 35.6-3.6 51.6 9.7 16 28.8 24.4 47.1 20.9 21.1-4.1 36-22.9 36.3-44.1 0-2.1-3-2.1-3-.1z"/><path id="highlight_48_" class="st0" d="M268.4 348.5c-1.9-2.8-3.8-5.7-5.6-8.5-1.1-1.6-3.4-.2-2.6 1.5 1.8 4 5.5 6.9 9.8 7.7 1.9.3 2.7-2.5.8-2.9-3.6-.7-6.5-2.9-8-6.3-.9.5-1.7 1-2.6 1.5 1.9 2.8 3.8 5.7 5.6 8.5 1.1 1.6 3.7.1 2.6-1.5z"/><path id="highlight_47_" class="st0" d="M303.5 292.9c7.9 6.7 16.4 14.3 15.8 25.5-.1 2 2.8 1.9 3 0 1.4-13.7-8-25-21.5-26.8-1.9-.2-1.9 2.8 0 3 11.9 1.6 19.7 12 18.5 23.8h3c.6-12.1-8.2-20.5-16.7-27.7-1.4-1.2-3.5.9-2.1 2.2z"/><circle id="circle_23_" class="st2" cx="111.9" cy="143" r="43.5"/><path id="circle-stroke_26_" class="st1" d="M153.9 143c-.3 17.5-11 33.5-27.6 39.5-16.3 5.9-35 1-46.2-12.2-11.5-13.4-13.3-33.2-4.3-48.5 8.9-15.2 26.8-23.4 44.1-20.1 19.7 3.8 33.7 21.3 34 41.3 0 1.9 3 1.9 3 0-.3-18.8-11.9-35.9-29.8-42.3-17.7-6.4-38.1-.6-50 14-11.8 14.6-13.4 35.6-3.6 51.6 9.7 16 28.8 24.4 47.1 20.9 21.1-4.1 36-22.9 36.3-44.1 0-2.1-3-2.1-3-.1z"/><path id="s_4_" class="st3" d="M83.8 134.1c.6.1 1 .3 1.4.5s.5.4.5.7-.1.6-.3 1c-.2.4-.4.6-.6.6 0 0-.2 0-.4-.1-.3-.1-.6-.3-.9-.3s-.7-.1-1.2-.1c-.8 0-1.3.2-1.7.5-.4.3-.5.7-.5 1.2 0 .4.1.7.3 1 .2.3.5.5.8.6.3.2.8.4 1.4.6.8.3 1.5.6 2 .9.5.3 1 .7 1.3 1.3s.6 1.3.6 2.2c0 1.5-.4 2.6-1.3 3.3s-2 1.1-3.4 1.1c-.9 0-1.7-.1-2.4-.3s-1.3-.4-1.7-.7-.6-.5-.6-.7.1-.4.2-.7.3-.5.5-.7.3-.3.5-.3c.1 0 .3.1.5.2.4.2.9.4 1.3.6.4.1.9.2 1.5.2s1.2-.2 1.6-.5.7-.8.7-1.4c0-.4-.1-.7-.3-1-.2-.3-.5-.5-.8-.7s-.8-.4-1.4-.6c-.4-.1-.6-.2-.7-.3-.6-.3-1.2-.6-1.6-.9s-.8-.7-1.1-1.3c-.3-.5-.4-1.2-.4-2 0-.9.2-1.6.7-2.3.4-.6 1-1.1 1.8-1.4.7-.3 1.6-.5 2.4-.5.1.1.7.2 1.3.3z"/><path id="e_7_" class="st3" d="M96.5 139.3c.7 1 1.1 2.3 1.1 4 0 .2-.1.4-.4.7s-.4.4-.6.4h-5.8c.1.9.3 1.6.8 2 .4.4 1.1.6 1.9.6.5 0 .9-.1 1.2-.2s.7-.3 1.1-.4c.2-.1.4-.1.4-.1.2 0 .4.2.6.5.2.4.3.6.3.8 0 .3-.2.5-.6.7s-.9.4-1.5.5-1.2.2-1.7.2c-1.8 0-3.2-.5-4-1.4s-1.3-2.3-1.3-4.1c0-1.9.4-3.4 1.3-4.3.9-.9 2.1-1.4 3.7-1.4 1.6.1 2.8.6 3.5 1.5zm-5.7 3.1H95c0-.8-.2-1.4-.5-1.9-.3-.4-.8-.7-1.4-.7-1.3 0-2.1.9-2.3 2.6z"/><path id="r_4_" class="st3" d="M106 137.9c.2.2.3.4.3.7s-.1.6-.2 1-.2.6-.4.6c-.1 0-.2 0-.4-.1s-.4-.1-.6-.1c-.4 0-.8.1-1.1.4-.3.3-.5.5-.2.8v7.1c-.5.4-.9.6-1.6.2h-.4c-.7.4-1.1.2-1-.2v-6.9c-.1-.9-.2-1.6-.3-2-.1-.4-.1-.7-.1-.8 0-.2.2-.3.7-.5.5-.1.9-.2 1.2-.2.2 0 .4.1.5.3s.2.4.2.6c0 .2.1.4.1.5.3-.5.7-.9 1-1.2.4-.3.8-.4 1.3-.4.5-.1.8 0 1 .2z"/><path id="v_4_" class="st3" d="M116.7 137.8c0 .1 0 .2-.1.4l-3.3 9.8c-.1.3-.4.4-1 .4h-.7c-.6 0-1-.1-1.1-.4l-3.3-9.9c-.1-.1-.1-.3-.1-.3 0-.3.4-.4 1.1-.4h.4c.6 0 1 .1 1.1.4l1.6 5 .5 1.8.2.8h.1c.2-1.1.4-2 .6-2.6l1.6-5c.1-.3.5-.4 1.1-.4h.3c.6 0 1 .1 1 .4z"/><path id="i_4_" class="st3" d="M121.4 133.5v1.5c0 .2-.1.3-.3.4-.2.1-.5.1-.9-.1h-.5c-.4.2-.7.2-.9.1-.2-.1-.3-.2-.6-.4v-1.5c.3-.4.7-.6 1.4-1.1h.5c.9.5 1.3.7 1.3 1.1zm0 4.8v9.9c0 .4-.4.6-1.1.2h-.4c-.7.4-1.1.2-1.4-.2v-9.9c.3-.4.7-.6 1.4-.9h.4c.7.3 1.1.5 1.1.9z"/><path id="c_3_" class="st3" d="M131.7 138c.7.2 1.1.5 1.1.9 0 .2-.1.5-.4.9-.2.4-.4.6-.6.6 0 0-.1 0-.3-.1-.6-.3-1.3-.5-2-.5-.9 0-1.5.3-2 .9-.4.6-.7 1.5-.7 2.7s.2 2.1.6 2.7c.4.6 1.1.9 2 .9.7 0 1.5-.2 2.2-.5.2-.1.3-.1.3-.1.2 0 .4.2.6.5.2.4.3.7.3.9 0 .3-.2.5-.6.7s-.9.4-1.5.5-1.1.1-1.5.1c-1.8 0-3.1-.5-3.9-1.4-.9-.9-1.3-2.3-1.3-4.2s.5-3.4 1.4-4.3c.9-.9 2.2-1.4 3.9-1.4.9-.2 1.7-.1 2.4.2z"/><path id="e_8_" class="st3" d="M143 139.3c.7 1 1.1 2.3 1.1 4 0 .2-.1.4-.4.7s-.4.4-.6.4h-5.8c.1.9.3 1.6.8 2 .4.4 1.1.6 1.9.6.5 0 .9-.1 1.2-.2s.7-.3 1.1-.4c.2-.1.4-.1.4-.1.2 0 .4.2.6.5.2.4.3.6.3.8 0 .3-.2.5-.6.7s-.9.4-1.5.5-1.2.2-1.7.2c-1.8 0-3.2-.5-4-1.4s-1.3-2.3-1.3-4.1c0-1.9.4-3.4 1.3-4.3.9-.9 2.1-1.4 3.7-1.4 1.7.1 2.8.6 3.5 1.5zm-5.6 3.1h4.1c0-.8-.2-1.4-.5-1.9-.3-.4-.8-.7-1.4-.7-1.3 0-2 .9-2.2 2.6z"/><path id="highlight_45_" class="st0" d="M121 114.6c5.7.5 10.7 3.6 13.8 8.4l2.4-1.8c-4.1-4.3-8.8-8.2-15.1-7.8-1.3.1-2.2 2.1-.8 2.8 3.9 1.8 7 4.5 9 8.3.9 1.7 3.5.2 2.6-1.5-2.3-4.2-5.7-7.5-10.1-9.4-.3.9-.5 1.9-.8 2.8 5.5-.3 9.4 3.2 13 6.9 1.2 1.2 3.3-.4 2.4-1.8-3.7-5.8-9.6-9.3-16.4-9.9-1.9-.2-1.9 2.8 0 3z"/><path id="highlight_46_" class="st0" d="M83.7 161.7c4.4 9.9 14.9 13.2 24.8 14.9 1.6.3 2.6-1.8 1.2-2.7-5-3.3-10-6.6-15.1-9.9-1.3-.9-2.7.8-2.1 2.1 1.3 2.4 2.8 4.3 4.8 6.1.5-.8 1-1.7 1.5-2.5-6.4-1.4-9.6-7.1-12.4-12.5-.9-1.7-3.5-.2-2.6 1.5 3.2 6.2 6.9 12.3 14.2 13.9 1.4.3 2.6-1.5 1.5-2.5-1.8-1.6-3.2-3.3-4.4-5.5l-2.1 2.1c5 3.3 10 6.6 15.1 9.9l1.2-2.7c-9.2-1.6-18.9-4.2-23-13.5-.8-2-3.4-.5-2.6 1.3z"/><g class="st4"><path class="st3" d="M201.8 158c-2.5-2.8-3.7-6.9-3.7-12.2 0-5.4 1.2-9.4 3.7-12.2 2.5-2.8 6-4.2 10.6-4.2 4.7 0 8.3 1.4 10.7 4.2 2.4 2.8 3.7 6.8 3.7 12.2 0 5.4-1.2 9.5-3.7 12.3-2.5 2.8-6 4.2-10.7 4.2-4.6-.1-8.1-1.5-10.6-4.3zm17.5-3.1c1.6-2.1 2.4-5.1 2.4-9.1s-.8-7-2.4-9c-1.6-2-3.9-3.1-6.9-3.1s-5.3 1-6.9 3.1-2.3 5.1-2.3 9c0 4 .8 7 2.4 9.1 1.6 2.1 3.9 3.1 6.9 3.1 3 0 5.3-1.1 6.8-3.1zm13.8 5.9v-15.7c0-2-.1-3.5-.3-4.4-.2-.9-.3-1.4-.3-1.6 0-.4.4-.7 1.2-.9.8-.2 1.5-.3 2.1-.3.5 0 .8.2 1 .6.2.4.4.9.5 1.4.1.5.2.8.2 1 1.6-2.3 3.3-3.5 5.2-3.5.9 0 1.6.2 2 .6.4.4.7.9.7 1.4 0 .6-.1 1.2-.3 1.8-.2.7-.5 1-.7 1-.2 0-.5-.1-.9-.2-.4-.2-.9-.2-1.5-.2-1 0-1.8.3-2.5.9-.7.6-1.2 1.2-1.6 1.7v16.2c0 .8-.7 1.1-2.1 1.1h-.5c-1.5.3-2.2-.1-2.2-.9zm16.7-28.2v-2.7c0-.9.8-1.3 2.5-1.3 1.6 0 2.4.4 2.4 1.3v2.7c0 .9-.8 1.3-2.5 1.3-1.6 0-2.4-.4-2.4-1.3zm.1 28.2v-21.9c0-.8.7-1.2 2.1-1.2h.5c1.4 0 2.1.4 2.1 1.2v21.9c0 .8-.7 1.1-2.1 1.1h-.5c-1.4.1-2.1-.3-2.1-1.1zm12.8 9.4c-1.7-1-2.6-2.4-2.6-4.4 0-1.3.4-2.4 1.1-3.4.8-1 1.8-1.7 3.1-2.2v-.1c-1.3-.9-1.9-2.1-1.9-3.7 0-1.9.9-3.4 2.6-4.5-1.3-.6-2.2-1.5-2.9-2.7-.7-1.1-1-2.4-1-3.9 0-2.4.8-4.2 2.5-5.6 1.7-1.4 3.9-2.1 6.9-2.1.9 0 1.9.1 2.9.3h8.1c.4 0 .6.1.8.4.2.3.3.7.3 1.3v.6c0 .6-.1 1-.3 1.2-.2.2-.4.4-.8.4-1.2 0-2.1 0-2.9-.1v.1c.7 1 1.1 2.2 1.1 3.6 0 2.3-.8 4.2-2.4 5.6-1.6 1.4-3.9 2.1-6.7 2.1-2.6 0-3.9.9-3.9 2.6 0 1 .5 1.6 1.4 2 .9.3 2.3.6 4.3.9.7.1 1.3.1 1.6.2 2.2.3 3.9.9 5.1 1.7 1.2.8 1.9 2.2 1.9 4.2 0 2.3-.9 4-2.8 5.3-1.9 1.3-4.6 1.9-8 1.9-3.3-.3-5.7-.7-7.5-1.7zm13.7-5.4c0-.9-.5-1.5-1.4-1.9-.9-.3-2.4-.6-4.3-.9-1.6-.2-2.7-.4-3.4-.5-1.9.8-2.9 1.9-2.9 3.4 0 2 2 2.9 6.1 2.9 4 .1 5.9-1 5.9-3zm-2.3-16.4c.9-.6 1.3-1.7 1.3-3.1 0-1.4-.4-2.5-1.3-3.1-.9-.6-2.1-1-3.6-1s-2.7.3-3.5 1c-.9.6-1.3 1.7-1.3 3.1 0 1.4.4 2.5 1.3 3.1.9.6 2.1 1 3.5 1 1.5-.1 2.7-.4 3.6-1zm13-15.8v-2.7c0-.9.8-1.3 2.5-1.3 1.6 0 2.4.4 2.4 1.3v2.7c0 .9-.8 1.3-2.5 1.3-1.6 0-2.4-.4-2.4-1.3zm.1 28.2v-21.9c0-.8.7-1.2 2.1-1.2h.5c1.4 0 2.1.4 2.1 1.2v21.9c0 .8-.7 1.1-2.1 1.1h-.5c-1.4.1-2.1-.3-2.1-1.1zm12 0v-15.7c0-2-.1-3.5-.3-4.4-.2-.9-.3-1.4-.3-1.6 0-.4.4-.7 1.2-.9.8-.2 1.5-.3 2.1-.3.5 0 .8.2 1 .6.2.4.4.9.5 1.4.1.5.2.8.2 1 .9-1.1 2-1.9 3.3-2.6s2.5-.9 3.8-.9c2.3 0 4.1.7 5.4 2 1.3 1.3 1.9 3.1 1.9 5.5v15.9c0 .8-.7 1.1-2.1 1.1h-.5c-1.4 0-2.1-.4-2.1-1.1v-15.3c0-1.3-.4-2.2-1.1-2.9-.7-.7-1.7-1-3.1-1-1 0-1.9.3-2.9.9-.9.6-1.7 1.3-2.3 2.2v16.2c0 .8-.7 1.1-2.1 1.1h-.5c-1.3 0-2.1-.4-2.1-1.2zm26.2-.4c-1.3-1.2-2-2.9-2-5.1 0-3.1 1.3-5.3 3.9-6.5 2.6-1.2 6.2-1.9 10.8-1.9v-2c0-1.1-.4-1.9-1.1-2.6-.7-.6-1.9-1-3.5-1-1.3 0-2.4.1-3.3.4-.9.3-1.7.6-2.4.9-.7.3-1 .5-1.1.5-.3 0-.7-.4-1.2-1.1-.4-.7-.7-1.3-.7-1.6 0-.4.4-.9 1.2-1.4.8-.5 1.9-.9 3.2-1.2 1.3-.3 2.8-.5 4.3-.5 3 0 5.3.7 6.9 2 1.6 1.3 2.4 3.1 2.4 5.4v9.8c0 2.1.1 3.5.3 4.5.2.9.3 1.4.3 1.6 0 .4-.4.7-1.1.9-.8.2-1.4.3-2.1.3-.5 0-.8-.2-1-.7-.2-.5-.4-1-.5-1.5-.1-.5-.2-.9-.2-1.1-.8 1-1.9 1.8-3.1 2.5-1.2.7-2.7 1-4.3 1-2.5.2-4.3-.4-5.7-1.6zm9.9-3c1-.6 1.9-1.3 2.8-2.3v-4.6c-3 0-5.4.3-7.1.9-1.8.6-2.7 1.8-2.7 3.6 0 1 .3 1.8.9 2.4.6.6 1.4.9 2.6.9 1.3 0 2.5-.3 3.5-.9zm16.3 3.3c-1.2-1-1.8-2.7-1.8-5.1v-27.1c0-.8.7-1.2 2.1-1.2h.5c1.4 0 2.1.4 2.1 1.2v26.9c0 1.1.2 1.9.6 2.3.4.4 1 .7 1.7.7.4 0 .8 0 1.1-.1.3-.1.5-.1.7-.1.3 0 .6.3.8 1 .2.7.3 1.2.3 1.5 0 1.1-1.2 1.7-3.7 1.7-1.7-.2-3.2-.7-4.4-1.7z"/></g><g class="st4"><path class="st3" d="M200.7 211.2c-1.9-2-2.8-5.1-2.8-9.4 0-4.3 1-7.5 3.1-9.4 2-1.9 4.7-2.9 8.1-2.9 1.8 0 3.4.2 4.9.7 1.5.5 2.2 1.1 2.2 1.7 0 .4-.2 1-.6 1.7-.4.7-.8 1.1-1.1 1.1 0 0-.2-.1-.6-.2-.7-.3-1.4-.6-2.1-.8-.7-.2-1.6-.3-2.6-.3-2.1 0-3.6.7-4.7 2s-1.6 3.4-1.6 6.3c0 3 .5 5.2 1.5 6.6s2.7 2 5 2c1.1 0 2-.1 2.8-.3.8-.2 1.5-.5 2.2-.9.4-.1.6-.2.6-.2.3 0 .7.3 1.2 1 .4.7.6 1.2.6 1.6 0 .7-.8 1.3-2.4 1.8-1.6.5-3.3.8-5 .8-3.9.1-6.8-.9-8.7-2.9zm20.9-26.6v-2.7c0-.9.8-1.3 2.5-1.3 1.6 0 2.4.4 2.4 1.3v2.7c0 .9-.8 1.3-2.5 1.3-1.6 0-2.4-.4-2.4-1.3zm.1 28.2v-21.9c0-.8.7-1.2 2.1-1.2h.5c1.4 0 2.1.4 2.1 1.2v21.9c0 .8-.7 1.1-2.1 1.1h-.5c-1.4.1-2.1-.3-2.1-1.1zm12.2 0v-15.7c0-2-.1-3.5-.3-4.4-.2-.9-.3-1.4-.3-1.6 0-.4.4-.7 1.2-.9.8-.2 1.5-.3 2.1-.3.5 0 .8.2 1 .6.2.4.4.9.5 1.4.1.5.2.8.2 1 1.6-2.3 3.3-3.5 5.2-3.5.9 0 1.6.2 2 .6.4.4.7.9.7 1.4 0 .6-.1 1.2-.3 1.8-.2.7-.5 1-.7 1-.2 0-.5-.1-.9-.2-.4-.2-.9-.2-1.5-.2-1 0-1.8.3-2.5.9-.7.6-1.2 1.2-1.6 1.7v16.2c0 .8-.7 1.1-2.1 1.1h-.6c-1.4.3-2.1-.1-2.1-.9zm18.2-1.6c-1.9-2-2.8-5.1-2.8-9.4 0-4.3 1-7.5 3.1-9.4 2-1.9 4.7-2.9 8.1-2.9 1.8 0 3.4.2 4.9.7 1.5.5 2.2 1.1 2.2 1.7 0 .4-.2 1-.6 1.7-.4.7-.8 1.1-1.2 1.1 0 0-.2-.1-.6-.2-.7-.3-1.4-.6-2.1-.8-.7-.2-1.6-.3-2.6-.3-2.1 0-3.6.7-4.7 2s-1.6 3.4-1.6 6.3c0 3 .5 5.2 1.5 6.6 1 1.4 2.7 2 5 2 1.1 0 2-.1 2.8-.3.8-.2 1.5-.5 2.2-.9.4-.1.6-.2.6-.2.3 0 .7.3 1.1 1 .4.7.6 1.2.6 1.6 0 .7-.8 1.3-2.4 1.8-1.6.5-3.3.8-5 .8-3.8.1-6.7-.9-8.5-2.9zm22.3 1.1c-1.3-1.3-1.9-3.1-1.9-5.5v-15.9c0-.8.7-1.2 2.1-1.2h.5c1.4 0 2.1.4 2.1 1.2v15.3c0 1.3.4 2.2 1.1 2.9.7.7 1.7 1 3.1 1 1 0 1.9-.3 2.9-.9.9-.6 1.7-1.3 2.3-2.2v-16.2c0-.8.7-1.2 2.1-1.2h.5c1.4 0 2.1.4 2.1 1.2v15.8c0 2.1.1 3.5.3 4.5.2.9.3 1.4.3 1.6 0 .4-.4.7-1.2.9-.8.2-1.5.3-2.1.3-.5 0-.8-.2-1-.7-.2-.5-.4-1-.5-1.5-.1-.5-.2-.9-.2-1.1-.9 1.1-2 1.9-3.2 2.6-1.3.6-2.5.9-3.9.9-2.3.1-4.1-.5-5.4-1.8zm24.2-27.7v-2.7c0-.9.8-1.3 2.5-1.3 1.6 0 2.4.4 2.4 1.3v2.7c0 .9-.8 1.3-2.5 1.3-1.6 0-2.4-.4-2.4-1.3zm.1 28.2v-21.9c0-.8.7-1.2 2.1-1.2h.5c1.4 0 2.1.4 2.1 1.2v21.9c0 .8-.7 1.1-2.1 1.1h-.5c-1.4.1-2.1-.3-2.1-1.1zm14.7-.1c-1.2-1-1.8-2.7-1.8-5.1v-13.8h-1.8c-.4 0-.6-.1-.8-.4-.2-.3-.3-.7-.3-1.3v-.6c0-.6.1-1 .3-1.3.2-.3.4-.4.8-.4h1.8l.6-4.7c.1-.8.7-1.2 1.7-1.2h.7c1.1 0 1.7.4 1.7 1.2v4.7h3.4c.4 0 .6.1.8.4.2.3.3.7.3 1.3v.6c0 .6-.1 1-.3 1.3-.2.3-.4.4-.8.4h-3.4v13.6c0 1.1.2 1.9.6 2.3.4.4.9.7 1.7.7.4 0 .8 0 1.1-.1.3-.1.5-.1.7-.1.3 0 .6.3.8 1 .2.7.3 1.2.3 1.5 0 1.1-1.2 1.7-3.7 1.7-1.7-.2-3.2-.7-4.4-1.7z"/></g><text transform="translate(268.856 327.757)" class="st3 st5 st6">App</text></g></svg>