<?xml version="1.0" encoding="utf-8"?>
<!-- Generator: Adobe Illustrator 19.1.0, SVG Export Plug-In . SVG Version: 6.00 Build 0)  -->
<svg version="1.1" id="Layer_1" xmlns="http://www.w3.org/2000/svg" xmlns:xlink="http://www.w3.org/1999/xlink" x="0px" y="0px"
	 width="140.9px" height="134.7px" viewBox="0 0 140.9 134.7" style="enable-background:new 0 0 140.9 134.7;" xml:space="preserve"
	>
<style type="text/css">
	.st0{fill:#D1EE83;stroke:#97BD30;stroke-width:2.5;stroke-miterlimit:10;}
	.st1{fill:#D1EE83;stroke:#97BD30;stroke-width:4;stroke-miterlimit:10;}
	.st2{fill:#97BD30;}
	.st3{fill:none;stroke:#97BD30;stroke-width:4;stroke-miterlimit:10;}
	.st4{fill:none;stroke:#C8D2D2;stroke-width:4;stroke-miterlimit:10;}
	.st5{fill:#C8D2D2;}
	.st6{fill:#D1EE83;stroke:#97BD30;stroke-width:3.4991;stroke-miterlimit:10;}
	.st7{fill:#D1EE83;stroke:#97BD30;stroke-width:5.6814;stroke-miterlimit:10;}
	.st8{fill:none;stroke:#97BD30;stroke-width:4.8706;stroke-miterlimit:10;}
	.st9{fill:none;stroke:#C8D2D2;stroke-width:4.8076;stroke-miterlimit:10;}
	.st10{fill:none;stroke:#C8D2D2;stroke-width:3.2416;stroke-miterlimit:10;}
	.st11{fill:none;stroke:#97BD30;stroke-width:2.5;stroke-miterlimit:10;}
	.st12{fill:#EE9B83;stroke:#BD3130;stroke-width:2.5;stroke-miterlimit:10;}
	.st13{fill:#BD3130;}
	.st14{fill:none;stroke:#BD3130;stroke-width:4;stroke-miterlimit:10;}
	.st15{fill:#EE9B83;stroke:#BD3130;stroke-width:4;stroke-miterlimit:10;}
	.st16{fill:none;stroke:#97BD30;stroke-width:3;stroke-miterlimit:10;}
	.st17{fill:#FF990D;}
	.st18{fill:none;stroke:#BD3130;stroke-width:2.4036;stroke-miterlimit:10;}
	.st19{fill:none;stroke:#C8D2D2;stroke-width:2.4036;stroke-miterlimit:10;}
	.st20{fill:#EE9B83;stroke:#BD3130;stroke-width:2.4036;stroke-miterlimit:10;}
	.st21{fill:#D1EE83;stroke:#97BD30;stroke-width:1.8073;stroke-miterlimit:10;}
	.st22{fill:#D1EE83;stroke:#97BD30;stroke-width:3;stroke-miterlimit:10;}
	.st23{fill:none;stroke:#C8D2D2;stroke-width:3;stroke-miterlimit:10;}
	.st24{fill:#D1EE83;stroke:#97BD30;stroke-width:2.6609;stroke-miterlimit:10;}
	.st25{fill:none;stroke:#BD3130;stroke-width:2.6609;stroke-miterlimit:10;}
	.st26{fill:none;stroke:#97BD30;stroke-width:2.6609;stroke-miterlimit:10;}
	.st27{fill:#EE9B83;stroke:#BD3130;stroke-width:2.6609;stroke-miterlimit:10;}
	.st28{fill:none;stroke:#C8D2D2;stroke-width:2.6609;stroke-miterlimit:10;}
	.st29{fill:#EE9B83;stroke:#BD3130;stroke-width:1.8073;stroke-miterlimit:10;}
	.st30{fill:none;stroke:#97BD30;stroke-width:1.8069;stroke-miterlimit:10;}
	.st31{fill:none;stroke:#BD3130;stroke-width:2.9701;stroke-miterlimit:10;}
	.st32{fill:none;stroke:#C8D2D2;stroke-width:2.9701;stroke-miterlimit:10;}
	.st33{fill:#EE9B83;stroke:#BD3130;stroke-width:2.9701;stroke-miterlimit:10;}
	.st34{fill:none;stroke:#BD3130;stroke-width:3;stroke-miterlimit:10;}
	.st35{fill:#EE9B83;stroke:#BD3130;stroke-width:3;stroke-miterlimit:10;}
	.st36{fill:none;stroke:#BD3130;stroke-width:2.6101;stroke-miterlimit:10;}
	.st37{fill:none;stroke:#C8D2D2;stroke-width:2.6101;stroke-miterlimit:10;}
	.st38{fill:#EE9B83;stroke:#BD3130;stroke-width:2.6101;stroke-miterlimit:10;}
	.st39{fill:none;stroke:#97BD30;stroke-width:2.6364;stroke-miterlimit:10;}
	.st40{fill:none;stroke:#97BD30;stroke-width:1.8073;stroke-miterlimit:10;}
</style>
<path class="st16" d="M116.3,88.7c0-3.4,0-13.8,0-18.4c0-5.4-1.6-11.2-6.9-13.6c-3-1.4-6.3-1.1-9.5-1.1c-3.5,0-7,0-10.5,0
	c-4.9,0-9.7,0-14.6,0c-5.1,0-10.2,0-15.4,0c-4.3,0-8.6,0-13,0c-2.5,0-4.9,0-7.4,0c-0.2,0-0.4,0-0.7,0c0,0-14.7-1.7-14.7,14.8
	c0,17.3,0,26.6,0,26.6H24"/>
<path class="st23" d="M42.9,121.4H21.7c-5,0-9.1-4.1-9.1-9.1v-3.1c0-5,4.1-9.1,9.1-9.1h21.2c5,0,9.1,4.1,9.1,9.1v3.1
	C52,117.3,47.9,121.4,42.9,121.4z"/>
<polygon class="st23" points="100,91.6 116.6,120.4 133.2,91.6 "/>
<path class="st5" d="M18.9,97v-0.3c0-0.9,0.7-1.6,1.6-1.6h6.9c0.9,0,1.6,0.7,1.6,1.6V97c0,0.9-0.7,1.6-1.6,1.6h-6.9
	C19.6,98.6,18.9,97.9,18.9,97z"/>
<path class="st5" d="M121.3,88.6v-0.3c0-0.9-0.7-1.6-1.6-1.6h-6.9c-0.9,0-1.6,0.7-1.6,1.6v0.3c0,0.9,0.7,1.6,1.6,1.6h6.9
	C120.6,90.2,121.3,89.5,121.3,88.6z"/>
<g>
	<path d="M112.7,98.4l1.8,5.2c0,0,0,0.1,0,0.1c0,0.1-0.1,0.2-0.4,0.2h-0.2c-0.2,0-0.4-0.1-0.4-0.2l-0.4-1.1h-2.1l-0.4,1.1
		c0,0.1-0.2,0.2-0.4,0.2h-0.2c-0.3,0-0.4-0.1-0.4-0.2c0,0,0-0.1,0-0.1l1.8-5.2c0-0.1,0.2-0.2,0.4-0.2h0.4
		C112.5,98.3,112.7,98.3,112.7,98.4z M112.1,99.5c0,0,0,0.1,0,0.2c0,0.1,0,0.2-0.1,0.3l-0.6,1.8h1.5l-0.6-1.8
		C112.2,99.8,112.2,99.7,112.1,99.5L112.1,99.5z"/>
	<path d="M118.1,99.9c0.2,0.2,0.4,0.4,0.5,0.7c0.1,0.3,0.2,0.7,0.2,1.1c0,0.7-0.1,1.2-0.4,1.6s-0.7,0.6-1.2,0.6
		c-0.3,0-0.7-0.1-0.9-0.3v1.7c0,0.2-0.1,0.2-0.4,0.2h-0.2c-0.3,0-0.4-0.1-0.4-0.2V101c0-0.4,0-0.6,0-0.8c0-0.2,0-0.3,0-0.3
		c0-0.1,0.1-0.1,0.3-0.2c0.2,0,0.3-0.1,0.5-0.1c0.1,0,0.1,0,0.2,0.1s0.1,0.2,0.1,0.2s0,0.1,0,0.2c0.1-0.2,0.3-0.3,0.5-0.4
		c0.2-0.1,0.4-0.2,0.7-0.2C117.6,99.6,117.8,99.7,118.1,99.9z M116.6,100.6c-0.1,0.1-0.3,0.2-0.4,0.4v1.9c0.2,0.2,0.4,0.2,0.7,0.2
		c0.6,0,0.9-0.4,0.9-1.3c0-0.4-0.1-0.8-0.2-1s-0.3-0.3-0.6-0.3C116.8,100.5,116.7,100.5,116.6,100.6z"/>
	<path d="M122.6,99.9c0.2,0.2,0.4,0.4,0.5,0.7c0.1,0.3,0.2,0.7,0.2,1.1c0,0.7-0.1,1.2-0.4,1.6s-0.7,0.6-1.2,0.6
		c-0.3,0-0.7-0.1-0.9-0.3v1.7c0,0.2-0.1,0.2-0.4,0.2h-0.2c-0.3,0-0.4-0.1-0.4-0.2V101c0-0.4,0-0.6,0-0.8c0-0.2,0-0.3,0-0.3
		c0-0.1,0.1-0.1,0.3-0.2c0.2,0,0.3-0.1,0.5-0.1c0.1,0,0.1,0,0.2,0.1s0.1,0.2,0.1,0.2s0,0.1,0,0.2c0.1-0.2,0.3-0.3,0.5-0.4
		c0.2-0.1,0.4-0.2,0.7-0.2C122.2,99.6,122.4,99.7,122.6,99.9z M121.1,100.6c-0.1,0.1-0.3,0.2-0.4,0.4v1.9c0.2,0.2,0.4,0.2,0.7,0.2
		c0.6,0,0.9-0.4,0.9-1.3c0-0.4-0.1-0.8-0.2-1s-0.3-0.3-0.6-0.3C121.4,100.5,121.3,100.5,121.1,100.6z"/>
</g>
<g>
	<path d="M22.6,108.3c0.2,0.1,0.4,0.1,0.5,0.2c0.1,0.1,0.2,0.2,0.2,0.3c0,0.1,0,0.2-0.1,0.4c-0.1,0.2-0.2,0.2-0.2,0.2
		c0,0-0.1,0-0.2-0.1c-0.1-0.1-0.2-0.1-0.4-0.1c-0.1,0-0.3-0.1-0.4-0.1c-0.3,0-0.5,0.1-0.6,0.2c-0.1,0.1-0.2,0.3-0.2,0.4
		c0,0.2,0,0.3,0.1,0.4c0.1,0.1,0.2,0.2,0.3,0.2c0.1,0.1,0.3,0.1,0.5,0.2c0.3,0.1,0.6,0.2,0.8,0.4c0.2,0.1,0.4,0.3,0.5,0.5
		c0.1,0.2,0.2,0.5,0.2,0.8c0,0.6-0.2,1-0.5,1.3c-0.3,0.3-0.8,0.4-1.3,0.4c-0.3,0-0.7,0-0.9-0.1c-0.3-0.1-0.5-0.2-0.6-0.3
		c-0.2-0.1-0.2-0.2-0.2-0.3c0-0.1,0-0.2,0.1-0.2c0.1-0.1,0.1-0.2,0.2-0.3s0.1-0.1,0.2-0.1c0,0,0.1,0,0.2,0.1
		c0.2,0.1,0.3,0.2,0.5,0.2s0.3,0.1,0.6,0.1c0.2,0,0.4-0.1,0.6-0.2s0.2-0.3,0.2-0.5c0-0.1,0-0.3-0.1-0.4c-0.1-0.1-0.2-0.2-0.3-0.3
		s-0.3-0.1-0.5-0.2c-0.1-0.1-0.2-0.1-0.2-0.1c-0.2-0.1-0.5-0.2-0.6-0.3c-0.2-0.1-0.3-0.3-0.4-0.5s-0.2-0.5-0.2-0.8
		c0-0.3,0.1-0.6,0.3-0.9c0.2-0.2,0.4-0.4,0.7-0.5s0.6-0.2,0.9-0.2C22.1,108.2,22.4,108.3,22.6,108.3z"/>
	<path d="M27.3,110.2c0.3,0.4,0.4,0.9,0.4,1.5c0,0.1,0,0.1-0.1,0.3s-0.2,0.2-0.2,0.2h-2.2c0,0.4,0.1,0.6,0.3,0.8s0.4,0.2,0.7,0.2
		c0.2,0,0.3,0,0.5-0.1c0.1,0,0.3-0.1,0.4-0.2c0.1,0,0.1-0.1,0.2-0.1c0.1,0,0.1,0.1,0.2,0.2s0.1,0.2,0.1,0.3c0,0.1-0.1,0.2-0.2,0.3
		c-0.2,0.1-0.3,0.2-0.6,0.2c-0.2,0-0.4,0.1-0.6,0.1c-0.7,0-1.2-0.2-1.5-0.5c-0.3-0.4-0.5-0.9-0.5-1.6c0-0.7,0.2-1.3,0.5-1.6
		c0.3-0.4,0.8-0.5,1.4-0.5C26.6,109.7,27,109.8,27.3,110.2z M25.1,111.4h1.6c0-0.3-0.1-0.5-0.2-0.7c-0.1-0.2-0.3-0.3-0.5-0.3
		C25.5,110.5,25.2,110.8,25.1,111.4z"/>
	<path d="M30.8,109.8c0.1,0.1,0.1,0.2,0.1,0.3c0,0.1,0,0.2-0.1,0.4c0,0.1-0.1,0.2-0.2,0.2c0,0-0.1,0-0.2,0s-0.2,0-0.2,0
		c-0.2,0-0.3,0-0.4,0.1c-0.1,0.1-0.2,0.2-0.3,0.3v2.7c0,0.1-0.1,0.2-0.4,0.2H29c-0.3,0-0.4-0.1-0.4-0.2V111c0-0.4,0-0.6,0-0.8
		c0-0.2,0-0.3,0-0.3c0-0.1,0.1-0.1,0.3-0.2s0.3-0.1,0.5-0.1c0.1,0,0.1,0,0.2,0.1c0,0.1,0.1,0.2,0.1,0.2s0,0.1,0,0.2
		c0.1-0.2,0.2-0.3,0.4-0.4c0.1-0.1,0.3-0.2,0.5-0.2C30.6,109.7,30.7,109.7,30.8,109.8z"/>
	<path d="M34.7,109.9c0,0,0,0.1,0,0.1l-1.3,3.8c0,0.1-0.2,0.2-0.4,0.2h-0.3c-0.2,0-0.4-0.1-0.4-0.2l-1.3-3.8c0-0.1,0-0.1,0-0.1
		c0-0.1,0.1-0.2,0.4-0.2h0.2c0.2,0,0.4,0.1,0.4,0.2l0.6,1.9l0.2,0.7l0.1,0.3h0c0.1-0.4,0.2-0.7,0.2-1l0.6-1.9c0-0.1,0.2-0.2,0.4-0.2
		h0.1C34.6,109.7,34.7,109.7,34.7,109.9z"/>
	<path d="M36.4,108.1v0.6c0,0.1,0,0.1-0.1,0.2c-0.1,0-0.2,0.1-0.3,0.1h-0.2c-0.1,0-0.3,0-0.3-0.1c-0.1,0-0.1-0.1-0.1-0.2v-0.6
		c0-0.1,0.1-0.2,0.4-0.2H36C36.3,107.9,36.4,107.9,36.4,108.1z M36.4,109.9v3.8c0,0.1-0.1,0.2-0.4,0.2h-0.2c-0.3,0-0.4-0.1-0.4-0.2
		v-3.8c0-0.1,0.1-0.2,0.4-0.2H36C36.3,109.7,36.4,109.8,36.4,109.9z"/>
	<path d="M40.2,109.8c0.3,0.1,0.4,0.2,0.4,0.3c0,0.1,0,0.2-0.1,0.3c-0.1,0.1-0.2,0.2-0.2,0.2c0,0,0,0-0.1,0
		c-0.2-0.1-0.5-0.2-0.8-0.2c-0.3,0-0.6,0.1-0.8,0.3c-0.2,0.2-0.2,0.6-0.2,1c0,0.5,0.1,0.8,0.2,1c0.2,0.2,0.4,0.3,0.8,0.3
		c0.3,0,0.6-0.1,0.8-0.2c0.1,0,0.1,0,0.1,0c0.1,0,0.2,0.1,0.2,0.2s0.1,0.2,0.1,0.3c0,0.1-0.1,0.2-0.2,0.3s-0.3,0.1-0.6,0.2
		s-0.4,0.1-0.6,0.1c-0.7,0-1.2-0.2-1.5-0.5s-0.5-0.9-0.5-1.6c0-0.7,0.2-1.3,0.5-1.6s0.8-0.5,1.5-0.5
		C39.6,109.7,39.9,109.7,40.2,109.8z"/>
	<path d="M44.4,110.2c0.3,0.4,0.4,0.9,0.4,1.5c0,0.1,0,0.1-0.1,0.3s-0.2,0.2-0.2,0.2h-2.2c0,0.4,0.1,0.6,0.3,0.8s0.4,0.2,0.7,0.2
		c0.2,0,0.3,0,0.5-0.1c0.1,0,0.3-0.1,0.4-0.2c0.1,0,0.1-0.1,0.2-0.1c0.1,0,0.1,0.1,0.2,0.2s0.1,0.2,0.1,0.3c0,0.1-0.1,0.2-0.2,0.3
		c-0.2,0.1-0.3,0.2-0.6,0.2c-0.2,0-0.4,0.1-0.6,0.1c-0.7,0-1.2-0.2-1.5-0.5c-0.3-0.4-0.5-0.9-0.5-1.6c0-0.7,0.2-1.3,0.5-1.6
		c0.3-0.4,0.8-0.5,1.4-0.5C43.7,109.7,44.1,109.8,44.4,110.2z M42.3,111.4h1.6c0-0.3-0.1-0.5-0.2-0.7c-0.1-0.2-0.3-0.3-0.5-0.3
		C42.6,110.5,42.3,110.8,42.3,111.4z"/>
</g>
</svg>
